<?xml version="1.0" encoding="UTF-8" standalone="no"?>
<!DOCTYPE svg PUBLIC "-//W3C//DTD SVG 1.1//EN" "http://www.w3.org/Graphics/SVG/1.1/DTD/svg11.dtd">
<svg width="100%" height="100%" viewBox="0 0 90 380" version="1.1" xmlns="http://www.w3.org/2000/svg" xmlns:xlink="http://www.w3.org/1999/xlink" xml:space="preserve" xmlns:serif="http://www.serif.com/" style="fill-rule:evenodd;clip-rule:evenodd;stroke-miterlimit:10;">
    <g id="svg8">
        <rect x="0" y="0" width="90" height="380" style="fill:rgb(240,240,240);"/>
        <g transform="matrix(1,0,0,1,25.7842,350.154)">
            <path d="M0,11.424L-1.606,11.424L-1.606,6.093L-7.682,6.093L-7.682,11.424L-9.288,11.424L-9.288,0L-7.682,0L-7.682,4.719L-1.606,4.719L-1.606,0L0,0L0,11.424Z" style="fill:rgb(35,31,32);fill-rule:nonzero;"/>
        </g>
        <g transform="matrix(1,0,0,1,33.9917,350.154)">
            <path d="M0,11.424L-6.821,11.424L-6.821,0L-0.132,0L-0.132,1.342L-5.215,1.342L-5.215,4.752L-0.414,4.752L-0.414,6.093L-5.215,6.093L-5.215,10.067L0,10.067L0,11.424Z" style="fill:rgb(35,31,32);fill-rule:nonzero;"/>
        </g>
        <g transform="matrix(1,0,0,1,42.8652,360.236)">
            <path d="M0,-8.74L-3.212,-8.74L-3.212,1.342L-4.818,1.342L-4.818,-8.74L-8.046,-8.74L-8.046,-10.082L0,-10.082L0,-8.74Z" style="fill:rgb(35,31,32);fill-rule:nonzero;"/>
        </g>
        <g transform="matrix(1,0,0,1,48.5752,359.855)">
            <path d="M0,-7.978C-0.513,-8.359 -1.126,-8.392 -1.92,-8.392L-3.096,-8.392L-3.096,-4.518L-1.92,-4.518C-1.126,-4.518 -0.513,-4.551 0,-4.915C0.514,-5.296 0.729,-5.76 0.729,-6.456C0.729,-7.134 0.514,-7.614 0,-7.978M3.047,1.723L1.109,1.723L-1.871,-3.194L-3.096,-3.194L-3.096,1.723L-4.702,1.723L-4.702,-9.701L-1.474,-9.701C-0.331,-9.701 0.596,-9.435 1.275,-8.906C1.954,-8.359 2.384,-7.532 2.384,-6.489C2.384,-4.485 0.993,-3.591 -0.215,-3.359L3.047,1.723Z" style="fill:rgb(35,31,32);fill-rule:nonzero;"/>
        </g>
        <g transform="matrix(-1,0,0,1,107.233,331.732)">
            <rect x="52.814" y="18.422" width="1.605" height="11.424" style="fill:rgb(35,31,32);"/>
        </g>
        <g transform="matrix(1,0,0,1,65.542,351.678)">
            <path d="M0,8.41C-0.712,9.205 -2.003,10.099 -4.172,10.099C-7.5,10.099 -10.017,7.764 -10.017,4.205C-10.017,0.645 -7.45,-1.689 -4.172,-1.689C-2.036,-1.689 -0.745,-0.795 -0.116,-0.182L-0.795,1.109C-1.241,0.547 -2.517,-0.281 -4.105,-0.281C-6.572,-0.281 -8.36,1.49 -8.36,4.172C-8.36,6.854 -6.556,8.626 -4.105,8.626C-2.6,8.626 -1.44,8.047 -0.695,7.235L0,8.41Z" style="fill:rgb(237,50,36);fill-rule:nonzero;"/>
        </g>
        <g transform="matrix(1,0,0,1,75.4521,350.154)">
            <path d="M0,11.424L-1.953,11.424L-5.745,5.695L-6.92,6.888L-6.92,11.424L-8.526,11.424L-8.526,0L-6.92,0L-6.92,4.868L-2.268,0L-0.314,0L-4.669,4.504L0,11.424Z" style="fill:rgb(237,50,36);fill-rule:nonzero;"/>
        </g>
        <g transform="matrix(1,0,0,1,75.4521,354.658)">
            <path d="M0,6.92L-1.953,6.92L-5.745,1.191L-6.92,2.384L-6.92,6.92L-8.526,6.92L-8.526,2.361L-6.92,2.384L-5.745,1.191L-4.669,0L-4.052,0.913L-3.555,1.65L0,6.92Z" style="fill-rule:nonzero;"/>
        </g>
        <g transform="matrix(1,0,0,1,57.5713,325.333)">
            <path d="M0,-45.333L-25.142,-45.333C-29.542,-45.333 -33.142,-41.733 -33.142,-37.333L-33.142,-8C-33.142,-3.6 -29.542,0 -25.142,0L0,0C4.399,0 8,-3.6 8,-8L8,-37.333C8,-41.733 4.399,-45.333 0,-45.333Z" style="fill-rule:nonzero;stroke:white;stroke-width:1px;"/>
        </g>
        <g transform="matrix(1,0,0,1,57.5713,325.334)">
            <path d="M0,-180.667L-25.142,-180.667C-29.542,-180.667 -33.142,-177.067 -33.142,-172.667L-33.142,-8C-33.142,-3.6 -29.542,0 -25.142,0L0,0C4.399,0 8,-3.6 8,-8L8,-172.667C8,-177.067 4.399,-180.667 0,-180.667" style="fill-rule:nonzero;"/>
        </g>
        <g transform="matrix(1,0,0,1,-23.0225,0)">
            <g transform="matrix(18,0,0,18,46.4135,28.8369)">
                <path d="M0.068,-0.065C0.068,-0.1 0.076,-0.131 0.093,-0.158C0.11,-0.185 0.13,-0.21 0.153,-0.233C0.182,-0.262 0.209,-0.286 0.234,-0.307C0.26,-0.328 0.283,-0.347 0.302,-0.364C0.321,-0.381 0.337,-0.399 0.347,-0.416C0.359,-0.433 0.364,-0.452 0.364,-0.474C0.364,-0.484 0.362,-0.494 0.359,-0.505C0.355,-0.516 0.349,-0.526 0.34,-0.535C0.331,-0.544 0.32,-0.551 0.307,-0.557C0.294,-0.563 0.277,-0.566 0.257,-0.566C0.239,-0.566 0.223,-0.564 0.209,-0.559C0.195,-0.554 0.183,-0.547 0.172,-0.54C0.161,-0.533 0.152,-0.524 0.145,-0.515C0.138,-0.506 0.131,-0.497 0.125,-0.489L0.058,-0.537C0.065,-0.549 0.074,-0.562 0.086,-0.575C0.097,-0.588 0.111,-0.6 0.128,-0.611C0.144,-0.622 0.163,-0.63 0.186,-0.637C0.208,-0.645 0.234,-0.648 0.263,-0.648C0.297,-0.648 0.327,-0.643 0.352,-0.634C0.377,-0.625 0.397,-0.612 0.413,-0.597C0.429,-0.581 0.441,-0.563 0.449,-0.543C0.457,-0.523 0.461,-0.502 0.461,-0.48C0.461,-0.457 0.457,-0.435 0.449,-0.414C0.441,-0.394 0.43,-0.375 0.417,-0.358C0.404,-0.341 0.389,-0.324 0.372,-0.309C0.355,-0.293 0.337,-0.278 0.319,-0.264C0.298,-0.247 0.278,-0.231 0.26,-0.216C0.241,-0.201 0.225,-0.186 0.212,-0.171C0.198,-0.156 0.187,-0.142 0.18,-0.127C0.172,-0.112 0.168,-0.097 0.168,-0.082L0.468,-0.082L0.468,-0L0.068,-0L0.068,-0.065Z" style="fill-rule:nonzero;"/>
            </g>
            <g transform="matrix(18,0,0,18,60.5435,28.8369)">
                <path d="M0.102,-0.39L0.018,-0.39L0.018,-0.465L0.102,-0.465L0.102,-0.617L0.192,-0.617L0.192,-0.465L0.328,-0.465L0.328,-0.39L0.192,-0.39L0.192,-0.161C0.192,-0.124 0.198,-0.098 0.21,-0.084C0.221,-0.07 0.238,-0.063 0.259,-0.063C0.276,-0.063 0.291,-0.066 0.302,-0.071C0.313,-0.076 0.325,-0.084 0.336,-0.095L0.377,-0.04C0.358,-0.021 0.338,-0.008 0.318,0C0.297,0.009 0.273,0.013 0.245,0.013C0.196,0.013 0.16,-0 0.137,-0.027C0.114,-0.054 0.102,-0.095 0.102,-0.152L0.102,-0.39Z" style="fill-rule:nonzero;"/>
            </g>
            <g transform="matrix(18,0,0,18,66.8375,28.8369)">
                <path d="M0.286,0.014C0.25,0.014 0.217,0.007 0.187,-0.006C0.157,-0.019 0.131,-0.036 0.11,-0.059C0.088,-0.082 0.071,-0.108 0.059,-0.138C0.046,-0.167 0.04,-0.199 0.04,-0.233C0.04,-0.267 0.046,-0.299 0.059,-0.329C0.071,-0.358 0.088,-0.384 0.11,-0.407C0.131,-0.43 0.157,-0.448 0.187,-0.461C0.217,-0.473 0.25,-0.48 0.286,-0.48C0.321,-0.48 0.354,-0.473 0.384,-0.461C0.414,-0.448 0.44,-0.43 0.462,-0.407C0.484,-0.384 0.501,-0.358 0.514,-0.329C0.526,-0.299 0.532,-0.267 0.532,-0.233C0.532,-0.199 0.526,-0.167 0.514,-0.138C0.501,-0.108 0.484,-0.082 0.462,-0.059C0.44,-0.036 0.414,-0.019 0.384,-0.006C0.354,0.007 0.321,0.014 0.286,0.014ZM0.286,-0.064C0.31,-0.064 0.332,-0.069 0.351,-0.079C0.37,-0.088 0.387,-0.101 0.4,-0.117C0.413,-0.132 0.424,-0.15 0.431,-0.171C0.438,-0.191 0.441,-0.212 0.441,-0.233C0.441,-0.254 0.438,-0.274 0.431,-0.295C0.424,-0.315 0.413,-0.333 0.4,-0.349C0.386,-0.365 0.37,-0.378 0.35,-0.388C0.332,-0.397 0.31,-0.402 0.286,-0.402C0.262,-0.402 0.24,-0.397 0.221,-0.388C0.202,-0.378 0.185,-0.365 0.172,-0.349C0.159,-0.334 0.149,-0.316 0.141,-0.296C0.135,-0.275 0.131,-0.254 0.131,-0.233C0.131,-0.212 0.135,-0.191 0.141,-0.171C0.149,-0.151 0.159,-0.133 0.172,-0.117C0.186,-0.101 0.203,-0.088 0.222,-0.079C0.241,-0.069 0.262,-0.064 0.286,-0.064Z" style="fill-rule:nonzero;"/>
            </g>
            <g transform="matrix(18,0,0,18,79.8215,28.8369)">
                <path d="M0.049,-0.208L0.335,-0.631L0.426,-0.631L0.426,-0.209L0.494,-0.209L0.494,-0.131L0.426,-0.131L0.426,-0L0.339,-0L0.339,-0.131L0.049,-0.131L0.049,-0.208ZM0.339,-0.209L0.339,-0.51L0.138,-0.209L0.339,-0.209Z" style="fill-rule:nonzero;"/>
            </g>
        </g>
        <g transform="matrix(12,0,0,12,12.4341,138)">
            <rect x="0.076" y="-0.667" width="0.096" height="0.667" style="fill-rule:nonzero;"/>
        </g>
        <g transform="matrix(12,0,0,12,15.3981,138)">
            <path d="M0.062,-0L0.062,-0.418C0.062,-0.433 0.062,-0.448 0.061,-0.465L0.147,-0.465L0.15,-0.395C0.156,-0.403 0.163,-0.412 0.172,-0.422C0.181,-0.431 0.191,-0.44 0.204,-0.448C0.217,-0.456 0.232,-0.463 0.249,-0.468C0.266,-0.473 0.285,-0.476 0.306,-0.476C0.367,-0.476 0.412,-0.458 0.441,-0.423C0.47,-0.388 0.485,-0.34 0.485,-0.279L0.485,-0L0.395,-0L0.395,-0.272C0.395,-0.315 0.386,-0.347 0.367,-0.368C0.348,-0.388 0.322,-0.398 0.288,-0.398C0.262,-0.398 0.24,-0.393 0.223,-0.382C0.206,-0.371 0.192,-0.358 0.182,-0.341C0.171,-0.324 0.164,-0.304 0.159,-0.282C0.154,-0.261 0.152,-0.239 0.152,-0.216L0.152,-0L0.062,-0Z" style="fill-rule:nonzero;"/>
        </g>
        <g transform="matrix(12,0,0,12,24.264,138)">
            <path d="M0.271,-0.667L0.369,-0.667L0.63,-0L0.523,-0L0.454,-0.186L0.18,-0.186L0.111,-0L0.01,-0L0.271,-0.667ZM0.425,-0.267L0.317,-0.56L0.208,-0.267L0.425,-0.267Z" style="fill-rule:nonzero;"/>
        </g>
        <g transform="matrix(12,0,0,12,57.1101,138)">
            <rect x="0.076" y="-0.667" width="0.096" height="0.667" style="fill-rule:nonzero;"/>
        </g>
        <g transform="matrix(12,0,0,12,60.0741,138)">
            <path d="M0.062,-0L0.062,-0.418C0.062,-0.433 0.062,-0.448 0.061,-0.465L0.147,-0.465L0.15,-0.395C0.156,-0.403 0.163,-0.412 0.172,-0.422C0.181,-0.431 0.191,-0.44 0.204,-0.448C0.217,-0.456 0.232,-0.463 0.249,-0.468C0.266,-0.473 0.285,-0.476 0.306,-0.476C0.367,-0.476 0.412,-0.458 0.441,-0.423C0.47,-0.388 0.485,-0.34 0.485,-0.279L0.485,-0L0.395,-0L0.395,-0.272C0.395,-0.315 0.386,-0.347 0.367,-0.368C0.348,-0.388 0.322,-0.398 0.288,-0.398C0.262,-0.398 0.24,-0.393 0.223,-0.382C0.206,-0.371 0.192,-0.358 0.182,-0.341C0.171,-0.324 0.164,-0.304 0.159,-0.282C0.154,-0.261 0.152,-0.239 0.152,-0.216L0.152,-0L0.062,-0Z" style="fill-rule:nonzero;"/>
        </g>
        <g transform="matrix(12,0,0,12,68.94,138)">
            <path d="M0.076,-0.667L0.302,-0.667C0.337,-0.667 0.367,-0.663 0.392,-0.654C0.417,-0.645 0.438,-0.632 0.455,-0.617C0.472,-0.602 0.484,-0.584 0.493,-0.563C0.501,-0.542 0.505,-0.52 0.505,-0.497C0.505,-0.476 0.501,-0.456 0.494,-0.439C0.486,-0.422 0.476,-0.407 0.466,-0.395C0.455,-0.383 0.443,-0.373 0.43,-0.366C0.417,-0.359 0.405,-0.354 0.394,-0.353C0.408,-0.351 0.424,-0.347 0.441,-0.341C0.458,-0.334 0.473,-0.325 0.488,-0.312C0.503,-0.299 0.515,-0.283 0.525,-0.263C0.535,-0.242 0.54,-0.217 0.54,-0.187C0.54,-0.151 0.534,-0.121 0.521,-0.098C0.507,-0.074 0.49,-0.055 0.468,-0.04C0.445,-0.025 0.419,-0.015 0.388,-0.009C0.357,-0.003 0.325,-0 0.29,-0L0.076,-0L0.076,-0.667ZM0.288,-0.389C0.303,-0.389 0.317,-0.391 0.332,-0.395C0.347,-0.398 0.36,-0.404 0.372,-0.412C0.384,-0.42 0.394,-0.43 0.401,-0.443C0.408,-0.456 0.412,-0.471 0.412,-0.489C0.412,-0.509 0.408,-0.525 0.401,-0.538C0.394,-0.55 0.384,-0.56 0.372,-0.567C0.36,-0.574 0.347,-0.578 0.332,-0.581C0.317,-0.583 0.303,-0.584 0.288,-0.584L0.169,-0.584L0.169,-0.389L0.288,-0.389ZM0.285,-0.083C0.302,-0.083 0.32,-0.084 0.339,-0.086C0.358,-0.088 0.375,-0.093 0.391,-0.1C0.406,-0.107 0.419,-0.118 0.429,-0.133C0.439,-0.147 0.444,-0.167 0.444,-0.192C0.444,-0.216 0.439,-0.235 0.43,-0.25C0.42,-0.265 0.407,-0.276 0.393,-0.285C0.378,-0.294 0.361,-0.3 0.343,-0.303C0.325,-0.306 0.308,-0.307 0.291,-0.307L0.169,-0.307L0.169,-0.083L0.285,-0.083Z" style="fill-rule:nonzero;"/>
        </g>
        <g transform="matrix(1,0,0,1,-9.1469,0)">
            <g transform="matrix(12,0,0,12,42.7052,186)">
                <path d="M0.271,-0.667L0.369,-0.667L0.63,-0L0.523,-0L0.454,-0.186L0.18,-0.186L0.111,-0L0.01,-0L0.271,-0.667ZM0.425,-0.267L0.317,-0.56L0.208,-0.267L0.425,-0.267Z" style="fill:white;fill-rule:nonzero;"/>
            </g>
            <g transform="matrix(12,0,0,12,51.1832,186)">
                <path d="M0.073,-0.36L0.234,-0.36L0.234,-0.517L0.312,-0.517L0.312,-0.36L0.472,-0.36L0.472,-0.282L0.313,-0.282L0.313,-0.125L0.234,-0.125L0.234,-0.282L0.073,-0.282L0.073,-0.36Z" style="fill:white;fill-rule:nonzero;"/>
            </g>
            <g transform="matrix(12,0,0,12,58.5092,186)">
                <path d="M0.076,-0.667L0.302,-0.667C0.337,-0.667 0.367,-0.663 0.392,-0.654C0.417,-0.645 0.438,-0.632 0.455,-0.617C0.472,-0.602 0.484,-0.584 0.493,-0.563C0.501,-0.542 0.505,-0.52 0.505,-0.497C0.505,-0.476 0.501,-0.456 0.494,-0.439C0.486,-0.422 0.476,-0.407 0.466,-0.395C0.455,-0.383 0.443,-0.373 0.43,-0.366C0.417,-0.359 0.405,-0.354 0.394,-0.353C0.408,-0.351 0.424,-0.347 0.441,-0.341C0.458,-0.334 0.473,-0.325 0.488,-0.312C0.503,-0.299 0.515,-0.283 0.525,-0.263C0.535,-0.242 0.54,-0.217 0.54,-0.187C0.54,-0.151 0.534,-0.121 0.521,-0.098C0.507,-0.074 0.49,-0.055 0.468,-0.04C0.445,-0.025 0.419,-0.015 0.388,-0.009C0.357,-0.003 0.325,-0 0.29,-0L0.076,-0L0.076,-0.667ZM0.288,-0.389C0.303,-0.389 0.317,-0.391 0.332,-0.395C0.347,-0.398 0.36,-0.404 0.372,-0.412C0.384,-0.42 0.394,-0.43 0.401,-0.443C0.408,-0.456 0.412,-0.471 0.412,-0.489C0.412,-0.509 0.408,-0.525 0.401,-0.538C0.394,-0.55 0.384,-0.56 0.372,-0.567C0.36,-0.574 0.347,-0.578 0.332,-0.581C0.317,-0.583 0.303,-0.584 0.288,-0.584L0.169,-0.584L0.169,-0.389L0.288,-0.389ZM0.285,-0.083C0.302,-0.083 0.32,-0.084 0.339,-0.086C0.358,-0.088 0.375,-0.093 0.391,-0.1C0.406,-0.107 0.419,-0.118 0.429,-0.133C0.439,-0.147 0.444,-0.167 0.444,-0.192C0.444,-0.216 0.439,-0.235 0.43,-0.25C0.42,-0.265 0.407,-0.276 0.393,-0.285C0.378,-0.294 0.361,-0.3 0.343,-0.303C0.325,-0.306 0.308,-0.307 0.291,-0.307L0.169,-0.307L0.169,-0.083L0.285,-0.083Z" style="fill:white;fill-rule:nonzero;"/>
            </g>
        </g>
        <g transform="matrix(1,0,0,1,-11.5469,0)">
            <g transform="matrix(12,0,0,12,47.4905,321.336)">
                <path d="M0.271,-0.667L0.369,-0.667L0.63,-0L0.523,-0L0.454,-0.186L0.18,-0.186L0.111,-0L0.01,-0L0.271,-0.667ZM0.425,-0.267L0.317,-0.56L0.208,-0.267L0.425,-0.267Z" style="fill:white;fill-rule:nonzero;"/>
            </g>
            <g transform="matrix(12,0,0,12,53.9645,321.336)">
                <rect x="0.073" y="-0.323" width="0.293" height="0.086" style="fill:white;fill-rule:nonzero;"/>
            </g>
            <g transform="matrix(12,0,0,12,58.4945,321.336)">
                <path d="M0.076,-0.667L0.302,-0.667C0.337,-0.667 0.367,-0.663 0.392,-0.654C0.417,-0.645 0.438,-0.632 0.455,-0.617C0.472,-0.602 0.484,-0.584 0.493,-0.563C0.501,-0.542 0.505,-0.52 0.505,-0.497C0.505,-0.476 0.501,-0.456 0.494,-0.439C0.486,-0.422 0.476,-0.407 0.466,-0.395C0.455,-0.383 0.443,-0.373 0.43,-0.366C0.417,-0.359 0.405,-0.354 0.394,-0.353C0.408,-0.351 0.424,-0.347 0.441,-0.341C0.458,-0.334 0.473,-0.325 0.488,-0.312C0.503,-0.299 0.515,-0.283 0.525,-0.263C0.535,-0.242 0.54,-0.217 0.54,-0.187C0.54,-0.151 0.534,-0.121 0.521,-0.098C0.507,-0.074 0.49,-0.055 0.468,-0.04C0.445,-0.025 0.419,-0.015 0.388,-0.009C0.357,-0.003 0.325,-0 0.29,-0L0.076,-0L0.076,-0.667ZM0.288,-0.389C0.303,-0.389 0.317,-0.391 0.332,-0.395C0.347,-0.398 0.36,-0.404 0.372,-0.412C0.384,-0.42 0.394,-0.43 0.401,-0.443C0.408,-0.456 0.412,-0.471 0.412,-0.489C0.412,-0.509 0.408,-0.525 0.401,-0.538C0.394,-0.55 0.384,-0.56 0.372,-0.567C0.36,-0.574 0.347,-0.578 0.332,-0.581C0.317,-0.583 0.303,-0.584 0.288,-0.584L0.169,-0.584L0.169,-0.389L0.288,-0.389ZM0.285,-0.083C0.302,-0.083 0.32,-0.084 0.339,-0.086C0.358,-0.088 0.375,-0.093 0.391,-0.1C0.406,-0.107 0.419,-0.118 0.429,-0.133C0.439,-0.147 0.444,-0.167 0.444,-0.192C0.444,-0.216 0.439,-0.235 0.43,-0.25C0.42,-0.265 0.407,-0.276 0.393,-0.285C0.378,-0.294 0.361,-0.3 0.343,-0.303C0.325,-0.306 0.308,-0.307 0.291,-0.307L0.169,-0.307L0.169,-0.083L0.285,-0.083Z" style="fill:white;fill-rule:nonzero;"/>
            </g>
        </g>
        <g transform="matrix(1,0,0,1,-6.3869,0)">
            <g transform="matrix(12,0,0,12,37.1672,276)">
                <rect x="0.073" y="-0.323" width="0.293" height="0.086" style="fill:white;fill-rule:nonzero;"/>
            </g>
            <g transform="matrix(12,0,0,12,41.8376,276)">
                <path d="M0.164,0.093C0.155,0.078 0.145,0.058 0.134,0.033C0.122,0.008 0.111,-0.021 0.101,-0.055C0.09,-0.089 0.081,-0.127 0.074,-0.17C0.067,-0.212 0.063,-0.257 0.063,-0.306C0.063,-0.355 0.067,-0.4 0.074,-0.443C0.081,-0.485 0.09,-0.523 0.101,-0.557C0.111,-0.591 0.122,-0.621 0.134,-0.646C0.145,-0.671 0.155,-0.691 0.164,-0.706L0.252,-0.706C0.241,-0.687 0.231,-0.663 0.22,-0.636C0.209,-0.609 0.199,-0.578 0.19,-0.544C0.181,-0.51 0.174,-0.473 0.169,-0.433C0.163,-0.393 0.16,-0.351 0.16,-0.306C0.16,-0.262 0.163,-0.22 0.169,-0.18C0.174,-0.14 0.181,-0.103 0.19,-0.069C0.199,-0.035 0.209,-0.004 0.22,0.023C0.231,0.05 0.241,0.074 0.252,0.093L0.164,0.093Z" style="fill:white;fill-rule:nonzero;"/>
            </g>
            <g transform="matrix(12,0,0,12,44.48,276)">
                <path d="M0.271,-0.667L0.369,-0.667L0.63,-0L0.523,-0L0.454,-0.186L0.18,-0.186L0.111,-0L0.01,-0L0.271,-0.667ZM0.425,-0.267L0.317,-0.56L0.208,-0.267L0.425,-0.267Z" style="fill:white;fill-rule:nonzero;"/>
            </g>
            <g transform="matrix(12,0,0,12,51.0944,276)">
                <rect x="0.073" y="-0.323" width="0.293" height="0.086" style="fill:white;fill-rule:nonzero;"/>
            </g>
            <g transform="matrix(12,0,0,12,55.7648,276)">
                <path d="M0.076,-0.667L0.302,-0.667C0.337,-0.667 0.367,-0.663 0.392,-0.654C0.417,-0.645 0.438,-0.632 0.455,-0.617C0.472,-0.602 0.484,-0.584 0.493,-0.563C0.501,-0.542 0.505,-0.52 0.505,-0.497C0.505,-0.476 0.501,-0.456 0.494,-0.439C0.486,-0.422 0.476,-0.407 0.466,-0.395C0.455,-0.383 0.443,-0.373 0.43,-0.366C0.417,-0.359 0.405,-0.354 0.394,-0.353C0.408,-0.351 0.424,-0.347 0.441,-0.341C0.458,-0.334 0.473,-0.325 0.488,-0.312C0.503,-0.299 0.515,-0.283 0.525,-0.263C0.535,-0.242 0.54,-0.217 0.54,-0.187C0.54,-0.151 0.534,-0.121 0.521,-0.098C0.507,-0.074 0.49,-0.055 0.468,-0.04C0.445,-0.025 0.419,-0.015 0.388,-0.009C0.357,-0.003 0.325,-0 0.29,-0L0.076,-0L0.076,-0.667ZM0.288,-0.389C0.303,-0.389 0.317,-0.391 0.332,-0.395C0.347,-0.398 0.36,-0.404 0.372,-0.412C0.384,-0.42 0.394,-0.43 0.401,-0.443C0.408,-0.456 0.412,-0.471 0.412,-0.489C0.412,-0.509 0.408,-0.525 0.401,-0.538C0.394,-0.55 0.384,-0.56 0.372,-0.567C0.36,-0.574 0.347,-0.578 0.332,-0.581C0.317,-0.583 0.303,-0.584 0.288,-0.584L0.169,-0.584L0.169,-0.389L0.288,-0.389ZM0.285,-0.083C0.302,-0.083 0.32,-0.084 0.339,-0.086C0.358,-0.088 0.375,-0.093 0.391,-0.1C0.406,-0.107 0.419,-0.118 0.429,-0.133C0.439,-0.147 0.444,-0.167 0.444,-0.192C0.444,-0.216 0.439,-0.235 0.43,-0.25C0.42,-0.265 0.407,-0.276 0.393,-0.285C0.378,-0.294 0.361,-0.3 0.343,-0.303C0.325,-0.306 0.308,-0.307 0.291,-0.307L0.169,-0.307L0.169,-0.083L0.285,-0.083Z" style="fill:white;fill-rule:nonzero;"/>
            </g>
            <g transform="matrix(12,0,0,12,62.1272,276)">
                <path d="M0.039,0.093C0.05,0.074 0.06,0.05 0.071,0.023C0.082,-0.004 0.092,-0.035 0.101,-0.069C0.11,-0.103 0.117,-0.14 0.123,-0.18C0.128,-0.22 0.131,-0.262 0.131,-0.306C0.131,-0.351 0.128,-0.393 0.123,-0.433C0.117,-0.473 0.11,-0.51 0.101,-0.544C0.092,-0.578 0.082,-0.609 0.071,-0.636C0.06,-0.663 0.05,-0.687 0.039,-0.706L0.126,-0.706C0.135,-0.691 0.145,-0.671 0.156,-0.646C0.167,-0.621 0.178,-0.591 0.189,-0.557C0.2,-0.523 0.209,-0.485 0.216,-0.443C0.223,-0.4 0.227,-0.355 0.227,-0.306C0.227,-0.257 0.223,-0.212 0.216,-0.17C0.209,-0.127 0.2,-0.089 0.189,-0.055C0.178,-0.021 0.167,0.008 0.156,0.033C0.145,0.058 0.135,0.078 0.126,0.093L0.039,0.093Z" style="fill:white;fill-rule:nonzero;"/>
            </g>
        </g>
        <g transform="matrix(1,0,0,1,-3.9869,0)">
            <g transform="matrix(12,0,0,12,32.3672,231.335)">
                <rect x="0.073" y="-0.323" width="0.293" height="0.086" style="fill:white;fill-rule:nonzero;"/>
            </g>
            <g transform="matrix(12,0,0,12,37.6472,231.335)">
                <path d="M0.164,0.093C0.155,0.078 0.145,0.058 0.134,0.033C0.122,0.008 0.111,-0.021 0.101,-0.055C0.09,-0.089 0.081,-0.127 0.074,-0.17C0.067,-0.212 0.063,-0.257 0.063,-0.306C0.063,-0.355 0.067,-0.4 0.074,-0.443C0.081,-0.485 0.09,-0.523 0.101,-0.557C0.111,-0.591 0.122,-0.621 0.134,-0.646C0.145,-0.671 0.155,-0.691 0.164,-0.706L0.252,-0.706C0.241,-0.687 0.231,-0.663 0.22,-0.636C0.209,-0.609 0.199,-0.578 0.19,-0.544C0.181,-0.51 0.174,-0.473 0.169,-0.433C0.163,-0.393 0.16,-0.351 0.16,-0.306C0.16,-0.262 0.163,-0.22 0.169,-0.18C0.174,-0.14 0.181,-0.103 0.19,-0.069C0.199,-0.035 0.209,-0.004 0.22,0.023C0.231,0.05 0.241,0.074 0.252,0.093L0.164,0.093Z" style="fill:white;fill-rule:nonzero;"/>
            </g>
            <g transform="matrix(12,0,0,12,40.8992,231.335)">
                <path d="M0.271,-0.667L0.369,-0.667L0.63,-0L0.523,-0L0.454,-0.186L0.18,-0.186L0.111,-0L0.01,-0L0.271,-0.667ZM0.425,-0.267L0.317,-0.56L0.208,-0.267L0.425,-0.267Z" style="fill:white;fill-rule:nonzero;"/>
            </g>
            <g transform="matrix(12,0,0,12,48.6032,231.335)">
                <path d="M0.073,-0.36L0.234,-0.36L0.234,-0.517L0.312,-0.517L0.312,-0.36L0.472,-0.36L0.472,-0.282L0.313,-0.282L0.313,-0.125L0.234,-0.125L0.234,-0.282L0.073,-0.282L0.073,-0.36Z" style="fill:white;fill-rule:nonzero;"/>
            </g>
            <g transform="matrix(12,0,0,12,55.1552,231.335)">
                <path d="M0.076,-0.667L0.302,-0.667C0.337,-0.667 0.367,-0.663 0.392,-0.654C0.417,-0.645 0.438,-0.632 0.455,-0.617C0.472,-0.602 0.484,-0.584 0.493,-0.563C0.501,-0.542 0.505,-0.52 0.505,-0.497C0.505,-0.476 0.501,-0.456 0.494,-0.439C0.486,-0.422 0.476,-0.407 0.466,-0.395C0.455,-0.383 0.443,-0.373 0.43,-0.366C0.417,-0.359 0.405,-0.354 0.394,-0.353C0.408,-0.351 0.424,-0.347 0.441,-0.341C0.458,-0.334 0.473,-0.325 0.488,-0.312C0.503,-0.299 0.515,-0.283 0.525,-0.263C0.535,-0.242 0.54,-0.217 0.54,-0.187C0.54,-0.151 0.534,-0.121 0.521,-0.098C0.507,-0.074 0.49,-0.055 0.468,-0.04C0.445,-0.025 0.419,-0.015 0.388,-0.009C0.357,-0.003 0.325,-0 0.29,-0L0.076,-0L0.076,-0.667ZM0.288,-0.389C0.303,-0.389 0.317,-0.391 0.332,-0.395C0.347,-0.398 0.36,-0.404 0.372,-0.412C0.384,-0.42 0.394,-0.43 0.401,-0.443C0.408,-0.456 0.412,-0.471 0.412,-0.489C0.412,-0.509 0.408,-0.525 0.401,-0.538C0.394,-0.55 0.384,-0.56 0.372,-0.567C0.36,-0.574 0.347,-0.578 0.332,-0.581C0.317,-0.583 0.303,-0.584 0.288,-0.584L0.169,-0.584L0.169,-0.389L0.288,-0.389ZM0.285,-0.083C0.302,-0.083 0.32,-0.084 0.339,-0.086C0.358,-0.088 0.375,-0.093 0.391,-0.1C0.406,-0.107 0.419,-0.118 0.429,-0.133C0.439,-0.147 0.444,-0.167 0.444,-0.192C0.444,-0.216 0.439,-0.235 0.43,-0.25C0.42,-0.265 0.407,-0.276 0.393,-0.285C0.378,-0.294 0.361,-0.3 0.343,-0.303C0.325,-0.306 0.308,-0.307 0.291,-0.307L0.169,-0.307L0.169,-0.083L0.285,-0.083Z" style="fill:white;fill-rule:nonzero;"/>
            </g>
            <g transform="matrix(12,0,0,12,62.1272,231.335)">
                <path d="M0.039,0.093C0.05,0.074 0.06,0.05 0.071,0.023C0.082,-0.004 0.092,-0.035 0.101,-0.069C0.11,-0.103 0.117,-0.14 0.123,-0.18C0.128,-0.22 0.131,-0.262 0.131,-0.306C0.131,-0.351 0.128,-0.393 0.123,-0.433C0.117,-0.473 0.11,-0.51 0.101,-0.544C0.092,-0.578 0.082,-0.609 0.071,-0.636C0.06,-0.663 0.05,-0.687 0.039,-0.706L0.126,-0.706C0.135,-0.691 0.145,-0.671 0.156,-0.646C0.167,-0.621 0.178,-0.591 0.189,-0.557C0.2,-0.523 0.209,-0.485 0.216,-0.443C0.223,-0.4 0.227,-0.355 0.227,-0.306C0.227,-0.257 0.223,-0.212 0.216,-0.17C0.209,-0.127 0.2,-0.089 0.189,-0.055C0.178,-0.021 0.167,0.008 0.156,0.033C0.145,0.058 0.135,0.078 0.126,0.093L0.039,0.093Z" style="fill:white;fill-rule:nonzero;"/>
            </g>
        </g>
        <g transform="matrix(-1,0,0,1,24.75,-268.25)">
            <rect x="6" y="317.75" width="12.75" height="12.75" style="fill:none;stroke:black;stroke-width:1px;"/>
        </g>
        <g transform="matrix(-1,0,0,1,24.75,-242)">
            <rect x="6" y="304.625" width="12.75" height="12.75" style="fill:none;stroke:black;stroke-width:1px;"/>
        </g>
        <g transform="matrix(-1,0,0,1,154.142,-294.166)">
            <rect x="70.696" y="330.708" width="12.75" height="12.75" style="fill:none;stroke:black;stroke-width:1px;"/>
        </g>
        <g transform="matrix(-1,0,0,1,154.142,-268.25)">
            <rect x="70.696" y="317.75" width="12.75" height="12.75" style="fill:none;stroke:black;stroke-width:1px;"/>
        </g>
        <g transform="matrix(-1,0,0,1,154.142,-242.75)">
            <rect x="70.696" y="305" width="12.75" height="12.75" style="fill:none;stroke:black;stroke-width:1px;"/>
        </g>
        <g transform="matrix(-1,0,0,1,154.142,-216.834)">
            <rect x="70.696" y="292.042" width="12.75" height="12.75" style="fill:none;stroke:black;stroke-width:1px;"/>
        </g>
        <g transform="matrix(0.970268,-0.242035,-0.242035,-0.970268,21.0904,61.9687)">
            <path d="M-0.796,6.479L52.742,6.479" style="fill:none;fill-rule:nonzero;stroke:black;stroke-width:1px;"/>
        </g>
        <g transform="matrix(-1,0,0,1,18.7503,55.875)">
            <path d="M-51.946,0L0,0" style="fill:none;fill-rule:nonzero;stroke:black;stroke-width:1px;"/>
        </g>
        <g transform="matrix(-0.971174,-0.238372,-0.238372,0.971174,21.0186,49.8675)">
            <path d="M-52.717,6.375L0.771,6.375" style="fill:none;fill-rule:nonzero;stroke:black;stroke-width:1px;"/>
        </g>
        <g transform="matrix(-0.896249,-0.443552,-0.443552,0.896249,27.1465,45.6887)">
            <path d="M-54.953,12.854L3.007,12.854" style="fill:none;fill-rule:nonzero;stroke:black;stroke-width:1px;"/>
        </g>
        <g transform="matrix(0.896249,-0.443552,-0.443552,-0.896249,27.1462,78.8118)">
            <path d="M-3.007,12.854L54.953,12.854" style="fill:none;fill-rule:nonzero;stroke:black;stroke-width:1px;"/>
        </g>
        <g transform="matrix(-0.971174,0.238372,0.238372,0.971174,21.0186,74.6325)">
            <path d="M-52.717,-6.375L0.771,-6.375" style="fill:none;fill-rule:nonzero;stroke:black;stroke-width:1px;"/>
        </g>
        <g transform="matrix(-1,0,0,1,18.7503,68.625)">
            <path d="M-51.946,0L0,0" style="fill:none;fill-rule:nonzero;stroke:black;stroke-width:1px;"/>
        </g>
        <g transform="matrix(-0.970268,-0.242035,-0.242035,0.970268,21.0907,62.5318)">
            <path d="M-52.742,6.479L0.796,6.479" style="fill:none;fill-rule:nonzero;stroke:black;stroke-width:1px;"/>
        </g>
    </g>
</svg>
