<?xml version="1.0" encoding="UTF-8" standalone="no"?>
<!DOCTYPE svg PUBLIC "-//W3C//DTD SVG 1.1//EN" "http://www.w3.org/Graphics/SVG/1.1/DTD/svg11.dtd">
<svg width="100%" height="100%" viewBox="0 0 210 380" version="1.1" xmlns="http://www.w3.org/2000/svg" xmlns:xlink="http://www.w3.org/1999/xlink" xml:space="preserve" xmlns:serif="http://www.serif.com/" style="fill-rule:evenodd;clip-rule:evenodd;stroke-linejoin:round;stroke-miterlimit:2;">
    <g id="svg8">
        <rect x="0" y="0" width="210" height="380" style="fill:rgb(240,240,240);"/>
        <g id="HetrickCVLogo">
            <path d="M84.81,374.578L83.204,374.578L83.204,369.247L77.128,369.247L77.128,374.578L75.522,374.578L75.522,363.154L77.128,363.154L77.128,367.873L83.204,367.873L83.204,363.154L84.81,363.154L84.81,374.578Z" style="fill:rgb(35,31,32);fill-rule:nonzero;"/>
            <path d="M93.018,374.578L86.197,374.578L86.197,363.154L92.886,363.154L92.886,364.496L87.803,364.496L87.803,367.906L92.604,367.906L92.604,369.247L87.803,369.247L87.803,373.221L93.018,373.221L93.018,374.578Z" style="fill:rgb(35,31,32);fill-rule:nonzero;"/>
            <path d="M101.891,364.496L98.679,364.496L98.679,374.578L97.073,374.578L97.073,364.496L93.845,364.496L93.845,363.154L101.891,363.154L101.891,364.496Z" style="fill:rgb(35,31,32);fill-rule:nonzero;"/>
            <path d="M107.601,364.877C107.088,364.496 106.475,364.463 105.681,364.463L104.505,364.463L104.505,368.337L105.681,368.337C106.475,368.337 107.088,368.304 107.601,367.94C108.115,367.559 108.33,367.095 108.33,366.399C108.33,365.721 108.115,365.241 107.601,364.877M110.648,374.578L108.71,374.578L105.73,369.661L104.505,369.661L104.505,374.578L102.899,374.578L102.899,363.154L106.127,363.154C107.27,363.154 108.197,363.42 108.876,363.949C109.555,364.496 109.985,365.323 109.985,366.366C109.985,368.37 108.594,369.264 107.386,369.496L110.648,374.578Z" style="fill:rgb(35,31,32);fill-rule:nonzero;"/>
            <rect x="111.84" y="363.154" width="1.605" height="11.424" style="fill:rgb(35,31,32);"/>
            <path d="M124.568,373.088C123.856,373.883 122.565,374.777 120.396,374.777C117.068,374.777 114.551,372.442 114.551,368.883C114.551,365.323 117.118,362.989 120.396,362.989C122.532,362.989 123.823,363.883 124.452,364.496L123.773,365.787C123.327,365.225 122.051,364.397 120.463,364.397C117.996,364.397 116.208,366.168 116.208,368.85C116.208,371.532 118.012,373.304 120.463,373.304C121.968,373.304 123.128,372.725 123.873,371.913L124.568,373.088Z" style="fill:rgb(237,50,36);fill-rule:nonzero;"/>
            <path d="M134.478,374.578L132.525,374.578L128.733,368.849L127.558,370.042L127.558,374.578L125.952,374.578L125.952,363.154L127.558,363.154L127.558,368.022L132.21,363.154L134.164,363.154L129.809,367.658L134.478,374.578Z" style="fill:rgb(237,50,36);fill-rule:nonzero;"/>
            <path d="M134.478,374.578L132.525,374.578L128.733,368.849L127.558,370.042L127.558,374.578L125.952,374.578L125.952,370.019L127.558,370.042L128.733,368.849L129.809,367.658L130.426,368.571L130.923,369.308L134.478,374.578Z" style="fill-rule:nonzero;"/>
        </g>
        <path d="M198,315.996C198,310.894 193.858,306.751 188.755,306.751L108.937,306.751C103.835,306.751 99.692,310.894 99.692,315.996L99.692,350.755C99.692,355.858 103.835,360 108.937,360L188.755,360C193.858,360 198,355.858 198,350.755L198,315.996Z"/>
        <path d="M115.323,338.996L117.855,338.996C118.399,338.996 118.849,339.072 119.205,339.224C119.561,339.376 119.845,339.568 120.057,339.8C120.269,340.032 120.417,340.292 120.501,340.58C120.585,340.868 120.627,341.148 120.627,341.42C120.627,341.82 120.559,342.172 120.423,342.476C120.287,342.78 120.099,343.034 119.859,343.238C119.619,343.442 119.333,343.596 119.001,343.7C118.669,343.804 118.307,343.856 117.915,343.856L116.463,343.856L116.463,347L115.323,347L115.323,338.996ZM117.903,342.872C118.399,342.872 118.781,342.746 119.049,342.494C119.317,342.242 119.451,341.892 119.451,341.444C119.451,340.988 119.313,340.63 119.037,340.37C118.761,340.11 118.383,339.98 117.903,339.98L116.463,339.98L116.463,342.872L117.903,342.872Z" style="fill:white;fill-rule:nonzero;"/>
        <path d="M123.839,347.168C123.407,347.168 123.011,347.09 122.651,346.934C122.291,346.778 121.981,346.564 121.721,346.292C121.461,346.02 121.257,345.706 121.109,345.35C120.961,344.994 120.887,344.612 120.887,344.204C120.887,343.796 120.961,343.414 121.109,343.058C121.257,342.702 121.461,342.388 121.721,342.116C121.981,341.844 122.291,341.63 122.651,341.474C123.011,341.318 123.407,341.24 123.839,341.24C124.263,341.24 124.655,341.318 125.015,341.474C125.375,341.63 125.687,341.844 125.951,342.116C126.215,342.388 126.421,342.702 126.569,343.058C126.717,343.414 126.791,343.796 126.791,344.204C126.791,344.612 126.717,344.994 126.569,345.35C126.421,345.706 126.215,346.02 125.951,346.292C125.687,346.564 125.375,346.778 125.015,346.934C124.655,347.09 124.263,347.168 123.839,347.168ZM123.839,346.232C124.127,346.232 124.387,346.174 124.619,346.058C124.851,345.942 125.047,345.79 125.207,345.602C125.367,345.414 125.489,345.198 125.573,344.954C125.657,344.71 125.699,344.46 125.699,344.204C125.699,343.956 125.657,343.71 125.573,343.466C125.489,343.222 125.365,343.004 125.201,342.812C125.037,342.62 124.841,342.466 124.613,342.35C124.385,342.234 124.127,342.176 123.839,342.176C123.551,342.176 123.291,342.234 123.059,342.35C122.827,342.466 122.631,342.618 122.471,342.806C122.311,342.994 122.189,343.21 122.105,343.454C122.021,343.698 121.979,343.948 121.979,344.204C121.979,344.46 122.021,344.708 122.105,344.948C122.189,345.188 122.313,345.404 122.477,345.596C122.641,345.788 122.837,345.942 123.065,346.058C123.293,346.174 123.551,346.232 123.839,346.232Z" style="fill:white;fill-rule:nonzero;"/>
        <rect x="127.819" y="338.996" width="1.08" height="8.004" style="fill:white;fill-rule:nonzero;"/>
        <path d="M130.215,348.368C130.295,348.44 130.387,348.504 130.491,348.56C130.595,348.616 130.723,348.644 130.875,348.644C131.003,348.644 131.113,348.616 131.205,348.56C131.297,348.504 131.381,348.418 131.457,348.302C131.533,348.186 131.605,348.046 131.673,347.882C131.741,347.718 131.819,347.528 131.907,347.312L132.051,346.952L129.555,341.42L130.791,341.42L132.591,345.632L134.175,341.42L135.351,341.42L133.119,346.856C133.015,347.112 132.909,347.394 132.801,347.702C132.693,348.01 132.559,348.302 132.399,348.578C132.239,348.854 132.043,349.084 131.811,349.268C131.579,349.452 131.287,349.544 130.935,349.544C130.655,349.544 130.419,349.506 130.227,349.43C130.035,349.354 129.867,349.252 129.723,349.124L130.215,348.368Z" style="fill:white;fill-rule:nonzero;"/>
        <path d="M198.142,46.042L154.19,46.042C149.789,46.042 146.19,49.642 146.19,54.042L146.19,351.729C146.19,356.128 149.789,359.729 154.19,359.729L198.142,359.729C202.542,359.729 206.142,356.128 206.142,351.729L206.142,54.042C206.142,49.642 202.542,46.042 198.142,46.042" style="fill-rule:nonzero;"/>
        <g transform="matrix(1,0,0,1,30,-1.13243e-14)">
            <g transform="matrix(12,0,0,12,132.384,66.1369)">
                <path d="M0.141,-0.08L0.253,-0.08L0.253,-0.535L0.123,-0.465L0.086,-0.536L0.263,-0.633L0.344,-0.633L0.344,-0.08L0.454,-0.08L0.454,-0L0.141,-0L0.141,-0.08Z" style="fill:white;fill-rule:nonzero;"/>
            </g>
            <g transform="matrix(12,0,0,12,131.484,106.177)">
                <path d="M0.068,-0.065C0.068,-0.1 0.076,-0.131 0.093,-0.158C0.11,-0.185 0.13,-0.21 0.153,-0.233C0.182,-0.262 0.209,-0.286 0.235,-0.307C0.26,-0.328 0.283,-0.347 0.302,-0.364C0.321,-0.381 0.337,-0.399 0.348,-0.416C0.359,-0.433 0.364,-0.452 0.364,-0.474C0.364,-0.484 0.362,-0.494 0.359,-0.505C0.355,-0.516 0.349,-0.526 0.34,-0.535C0.331,-0.544 0.32,-0.551 0.307,-0.557C0.294,-0.563 0.277,-0.566 0.257,-0.566C0.239,-0.566 0.223,-0.564 0.209,-0.559C0.195,-0.554 0.183,-0.547 0.172,-0.54C0.161,-0.533 0.152,-0.524 0.145,-0.515C0.138,-0.506 0.131,-0.497 0.125,-0.489L0.058,-0.537C0.065,-0.549 0.074,-0.562 0.086,-0.575C0.097,-0.588 0.111,-0.6 0.128,-0.611C0.144,-0.622 0.163,-0.631 0.186,-0.638C0.208,-0.645 0.234,-0.648 0.263,-0.648C0.297,-0.648 0.327,-0.643 0.352,-0.634C0.377,-0.625 0.397,-0.612 0.413,-0.597C0.429,-0.581 0.441,-0.563 0.449,-0.543C0.457,-0.523 0.461,-0.502 0.461,-0.48C0.461,-0.457 0.457,-0.435 0.449,-0.415C0.441,-0.394 0.43,-0.375 0.417,-0.358C0.404,-0.341 0.389,-0.324 0.372,-0.309C0.355,-0.293 0.337,-0.278 0.319,-0.264C0.298,-0.247 0.278,-0.231 0.26,-0.216C0.241,-0.201 0.225,-0.186 0.212,-0.171C0.198,-0.156 0.187,-0.142 0.18,-0.127C0.172,-0.112 0.168,-0.097 0.168,-0.082L0.468,-0.082L0.468,-0L0.068,-0L0.068,-0.065Z" style="fill:white;fill-rule:nonzero;"/>
            </g>
            <g transform="matrix(12,0,0,12,131.484,146.957)">
                <path d="M0.087,-0.118C0.104,-0.105 0.123,-0.092 0.146,-0.081C0.169,-0.069 0.197,-0.063 0.232,-0.063C0.274,-0.063 0.307,-0.074 0.332,-0.097C0.357,-0.12 0.369,-0.15 0.369,-0.188C0.369,-0.222 0.359,-0.25 0.338,-0.272C0.317,-0.294 0.286,-0.305 0.245,-0.305C0.233,-0.305 0.222,-0.304 0.212,-0.302C0.202,-0.3 0.192,-0.297 0.183,-0.294L0.154,-0.341L0.331,-0.547L0.079,-0.547L0.079,-0.63L0.441,-0.63L0.441,-0.558L0.279,-0.369C0.307,-0.369 0.332,-0.365 0.355,-0.356C0.378,-0.347 0.397,-0.335 0.414,-0.319C0.43,-0.303 0.442,-0.284 0.451,-0.262C0.46,-0.239 0.464,-0.214 0.464,-0.187C0.464,-0.154 0.458,-0.124 0.446,-0.099C0.434,-0.074 0.418,-0.053 0.397,-0.036C0.376,-0.019 0.351,-0.006 0.323,0.004C0.294,0.013 0.264,0.017 0.231,0.017C0.207,0.017 0.185,0.015 0.165,0.011C0.145,0.007 0.127,0.002 0.111,-0.005C0.095,-0.012 0.081,-0.019 0.068,-0.028C0.055,-0.036 0.044,-0.044 0.034,-0.053L0.087,-0.118Z" style="fill:white;fill-rule:nonzero;"/>
            </g>
            <g transform="matrix(12,0,0,12,131.484,186.997)">
                <path d="M0.049,-0.208L0.335,-0.631L0.426,-0.631L0.426,-0.209L0.494,-0.209L0.494,-0.131L0.426,-0.131L0.426,-0L0.339,-0L0.339,-0.131L0.049,-0.131L0.049,-0.208ZM0.339,-0.209L0.339,-0.51L0.138,-0.209L0.339,-0.209Z" style="fill:white;fill-rule:nonzero;"/>
            </g>
            <g transform="matrix(12,0,0,12,131.484,226.177)">
                <path d="M0.089,-0.118C0.108,-0.103 0.128,-0.09 0.151,-0.08C0.173,-0.069 0.201,-0.064 0.234,-0.064C0.257,-0.064 0.278,-0.068 0.295,-0.075C0.312,-0.082 0.327,-0.091 0.339,-0.103C0.35,-0.115 0.359,-0.129 0.365,-0.145C0.37,-0.161 0.373,-0.178 0.373,-0.197C0.373,-0.21 0.371,-0.223 0.367,-0.238C0.363,-0.253 0.356,-0.266 0.346,-0.279C0.336,-0.291 0.322,-0.301 0.305,-0.309C0.288,-0.317 0.266,-0.321 0.239,-0.321C0.212,-0.321 0.19,-0.318 0.174,-0.313C0.158,-0.308 0.143,-0.302 0.13,-0.295L0.084,-0.33L0.144,-0.63L0.453,-0.63L0.453,-0.546L0.207,-0.546L0.178,-0.381C0.185,-0.385 0.195,-0.389 0.21,-0.393C0.225,-0.396 0.242,-0.398 0.263,-0.398C0.293,-0.398 0.321,-0.394 0.346,-0.385C0.371,-0.376 0.392,-0.364 0.41,-0.347C0.428,-0.33 0.442,-0.309 0.452,-0.285C0.462,-0.26 0.467,-0.232 0.467,-0.2C0.467,-0.171 0.462,-0.143 0.453,-0.117C0.444,-0.091 0.429,-0.068 0.41,-0.048C0.391,-0.028 0.366,-0.012 0.336,-0.001C0.306,0.011 0.27,0.017 0.229,0.017C0.185,0.017 0.148,0.01 0.117,-0.003C0.086,-0.016 0.059,-0.033 0.038,-0.052L0.089,-0.118Z" style="fill:white;fill-rule:nonzero;"/>
            </g>
            <g transform="matrix(12,0,0,12,131.484,266.217)">
                <path d="M0.437,-0.534C0.435,-0.535 0.431,-0.538 0.426,-0.541C0.42,-0.544 0.412,-0.548 0.403,-0.552C0.394,-0.555 0.383,-0.559 0.371,-0.562C0.358,-0.565 0.345,-0.566 0.33,-0.566C0.302,-0.566 0.277,-0.56 0.256,-0.548C0.235,-0.536 0.217,-0.52 0.202,-0.5C0.187,-0.48 0.176,-0.457 0.168,-0.432C0.16,-0.406 0.156,-0.379 0.155,-0.352C0.17,-0.362 0.189,-0.373 0.212,-0.385C0.235,-0.396 0.265,-0.402 0.301,-0.402C0.362,-0.402 0.409,-0.384 0.444,-0.348C0.478,-0.312 0.495,-0.261 0.495,-0.195C0.495,-0.164 0.49,-0.135 0.48,-0.109C0.469,-0.083 0.455,-0.061 0.437,-0.042C0.418,-0.023 0.396,-0.009 0.371,0.002C0.346,0.012 0.318,0.017 0.288,0.017C0.217,0.017 0.162,-0.008 0.123,-0.058C0.083,-0.108 0.063,-0.184 0.063,-0.285C0.063,-0.341 0.069,-0.391 0.081,-0.436C0.092,-0.481 0.11,-0.519 0.133,-0.55C0.156,-0.581 0.184,-0.605 0.217,-0.622C0.25,-0.639 0.289,-0.647 0.333,-0.647C0.367,-0.647 0.397,-0.642 0.422,-0.632C0.447,-0.622 0.465,-0.613 0.478,-0.605L0.437,-0.534ZM0.154,-0.273C0.154,-0.207 0.164,-0.156 0.185,-0.119C0.206,-0.082 0.24,-0.063 0.287,-0.063C0.303,-0.063 0.318,-0.066 0.333,-0.072C0.348,-0.078 0.361,-0.087 0.372,-0.098C0.383,-0.109 0.392,-0.123 0.399,-0.14C0.406,-0.157 0.409,-0.176 0.409,-0.197C0.409,-0.233 0.4,-0.263 0.382,-0.287C0.363,-0.31 0.333,-0.322 0.292,-0.322C0.26,-0.322 0.233,-0.317 0.211,-0.308C0.188,-0.298 0.169,-0.286 0.154,-0.273Z" style="fill:white;fill-rule:nonzero;"/>
            </g>
            <g transform="matrix(12,0,0,12,131.484,306.997)">
                <path d="M0.14,-0C0.155,-0.047 0.174,-0.098 0.195,-0.152C0.216,-0.205 0.238,-0.257 0.261,-0.308C0.283,-0.359 0.305,-0.405 0.326,-0.447C0.346,-0.489 0.364,-0.522 0.379,-0.546L0.069,-0.546L0.069,-0.631L0.472,-0.631L0.472,-0.549C0.462,-0.534 0.451,-0.513 0.438,-0.487C0.424,-0.461 0.411,-0.432 0.396,-0.401C0.381,-0.369 0.365,-0.335 0.35,-0.299C0.334,-0.263 0.319,-0.227 0.305,-0.192C0.291,-0.157 0.278,-0.122 0.266,-0.089C0.254,-0.056 0.244,-0.026 0.237,-0L0.14,-0Z" style="fill:white;fill-rule:nonzero;"/>
            </g>
            <g transform="matrix(12,0,0,12,131.484,347.037)">
                <path d="M0.273,-0.379C0.305,-0.389 0.331,-0.404 0.35,-0.423C0.369,-0.442 0.379,-0.465 0.379,-0.491C0.379,-0.516 0.369,-0.536 0.35,-0.553C0.331,-0.569 0.305,-0.577 0.273,-0.577C0.241,-0.577 0.215,-0.569 0.196,-0.553C0.177,-0.536 0.167,-0.514 0.167,-0.486C0.167,-0.463 0.176,-0.442 0.195,-0.423C0.213,-0.404 0.239,-0.389 0.273,-0.379ZM0.269,-0.302C0.251,-0.297 0.234,-0.291 0.218,-0.283C0.202,-0.274 0.188,-0.265 0.176,-0.254C0.164,-0.243 0.155,-0.23 0.148,-0.217C0.14,-0.203 0.137,-0.188 0.137,-0.172C0.137,-0.152 0.141,-0.135 0.15,-0.121C0.158,-0.106 0.169,-0.095 0.182,-0.086C0.195,-0.077 0.209,-0.07 0.225,-0.066C0.241,-0.062 0.257,-0.06 0.273,-0.06C0.289,-0.06 0.305,-0.062 0.321,-0.066C0.337,-0.07 0.352,-0.077 0.365,-0.086C0.378,-0.095 0.388,-0.106 0.396,-0.121C0.404,-0.135 0.408,-0.152 0.408,-0.172C0.408,-0.188 0.404,-0.203 0.397,-0.217C0.389,-0.23 0.379,-0.243 0.366,-0.254C0.353,-0.265 0.338,-0.274 0.321,-0.283C0.304,-0.291 0.287,-0.297 0.269,-0.302ZM0.176,-0.344C0.149,-0.358 0.127,-0.377 0.108,-0.4C0.089,-0.423 0.08,-0.452 0.08,-0.486C0.08,-0.509 0.085,-0.531 0.094,-0.551C0.102,-0.571 0.115,-0.588 0.132,-0.603C0.149,-0.617 0.169,-0.628 0.193,-0.636C0.216,-0.644 0.243,-0.648 0.273,-0.648C0.304,-0.648 0.332,-0.644 0.356,-0.636C0.38,-0.628 0.4,-0.617 0.416,-0.603C0.432,-0.589 0.444,-0.572 0.453,-0.554C0.461,-0.535 0.465,-0.514 0.465,-0.492C0.465,-0.461 0.456,-0.432 0.439,-0.407C0.422,-0.382 0.397,-0.362 0.365,-0.347C0.377,-0.342 0.391,-0.334 0.407,-0.325C0.422,-0.316 0.437,-0.304 0.451,-0.289C0.465,-0.274 0.477,-0.257 0.487,-0.238C0.496,-0.218 0.501,-0.195 0.501,-0.17C0.501,-0.149 0.497,-0.127 0.489,-0.105C0.48,-0.083 0.467,-0.063 0.449,-0.045C0.43,-0.027 0.407,-0.012 0.378,-0.001C0.349,0.01 0.314,0.016 0.273,0.016C0.231,0.016 0.196,0.01 0.167,-0.001C0.137,-0.012 0.114,-0.027 0.096,-0.045C0.078,-0.063 0.065,-0.083 0.057,-0.105C0.048,-0.126 0.044,-0.148 0.044,-0.169C0.044,-0.191 0.048,-0.211 0.055,-0.229C0.062,-0.247 0.072,-0.263 0.085,-0.278C0.097,-0.293 0.111,-0.306 0.127,-0.317C0.143,-0.328 0.159,-0.337 0.176,-0.344Z" style="fill:white;fill-rule:nonzero;"/>
            </g>
        </g>
        <path d="M117.943,97.87L119.119,97.87L122.251,105.874L120.967,105.874L120.139,103.642L116.851,103.642L116.023,105.874L114.811,105.874L117.943,97.87ZM119.791,102.67L118.495,99.154L117.187,102.67L119.791,102.67Z" style="fill-rule:nonzero;"/>
        <path d="M126.951,101.53C126.871,101.466 126.723,101.38 126.507,101.272C126.291,101.164 125.983,101.11 125.583,101.11C125.319,101.11 125.077,101.158 124.857,101.254C124.637,101.35 124.445,101.486 124.281,101.662C124.117,101.838 123.989,102.054 123.897,102.31C123.805,102.566 123.759,102.854 123.759,103.174C123.759,103.438 123.791,103.688 123.855,103.924C123.919,104.16 124.017,104.366 124.149,104.542C124.281,104.718 124.449,104.856 124.653,104.956C124.857,105.056 125.099,105.106 125.379,105.106C125.659,105.106 125.899,105.054 126.099,104.95C126.299,104.846 126.461,104.716 126.585,104.56C126.709,104.404 126.801,104.232 126.861,104.044C126.921,103.856 126.951,103.682 126.951,103.522L126.951,101.53ZM126.951,105.166C126.911,105.214 126.845,105.288 126.753,105.388C126.661,105.488 126.539,105.586 126.387,105.682C126.235,105.778 126.057,105.862 125.853,105.934C125.649,106.006 125.411,106.042 125.139,106.042C124.787,106.042 124.459,105.974 124.155,105.838C123.851,105.702 123.587,105.51 123.363,105.262C123.139,105.014 122.965,104.712 122.841,104.356C122.717,104 122.655,103.602 122.655,103.162C122.655,102.634 122.747,102.18 122.931,101.8C123.115,101.42 123.349,101.108 123.633,100.864C123.917,100.62 124.225,100.442 124.557,100.33C124.889,100.218 125.203,100.162 125.499,100.162C125.899,100.162 126.211,100.21 126.435,100.306C126.659,100.402 126.831,100.474 126.951,100.522L126.951,97.87L128.031,97.87L128.031,105.304C128.031,105.484 128.035,105.674 128.043,105.874L126.987,105.874L126.951,105.166Z" style="fill-rule:nonzero;"/>
        <path d="M133.355,101.53C133.275,101.466 133.127,101.38 132.911,101.272C132.695,101.164 132.387,101.11 131.987,101.11C131.723,101.11 131.481,101.158 131.261,101.254C131.041,101.35 130.849,101.486 130.685,101.662C130.521,101.838 130.393,102.054 130.301,102.31C130.209,102.566 130.163,102.854 130.163,103.174C130.163,103.438 130.195,103.688 130.259,103.924C130.323,104.16 130.421,104.366 130.553,104.542C130.685,104.718 130.853,104.856 131.057,104.956C131.261,105.056 131.503,105.106 131.783,105.106C132.063,105.106 132.303,105.054 132.503,104.95C132.703,104.846 132.865,104.716 132.989,104.56C133.113,104.404 133.205,104.232 133.265,104.044C133.325,103.856 133.355,103.682 133.355,103.522L133.355,101.53ZM133.355,105.166C133.315,105.214 133.249,105.288 133.157,105.388C133.065,105.488 132.943,105.586 132.791,105.682C132.639,105.778 132.461,105.862 132.257,105.934C132.053,106.006 131.815,106.042 131.543,106.042C131.191,106.042 130.863,105.974 130.559,105.838C130.255,105.702 129.991,105.51 129.767,105.262C129.543,105.014 129.369,104.712 129.245,104.356C129.121,104 129.059,103.602 129.059,103.162C129.059,102.634 129.151,102.18 129.335,101.8C129.519,101.42 129.753,101.108 130.037,100.864C130.321,100.62 130.629,100.442 130.961,100.33C131.293,100.218 131.607,100.162 131.903,100.162C132.303,100.162 132.615,100.21 132.839,100.306C133.063,100.402 133.235,100.474 133.355,100.522L133.355,97.87L134.435,97.87L134.435,105.304C134.435,105.484 134.439,105.674 134.447,105.874L133.391,105.874L133.355,105.166Z" style="fill-rule:nonzero;"/>
        <rect x="60.271" y="40.54" width="1.152" height="8.004" style="fill-rule:nonzero;"/>
        <path d="M62.883,48.544L62.883,43.534C62.883,43.354 62.879,43.164 62.871,42.964L63.903,42.964L63.939,43.804C64.011,43.708 64.099,43.602 64.203,43.486C64.307,43.37 64.435,43.264 64.587,43.168C64.739,43.072 64.917,42.992 65.121,42.928C65.325,42.864 65.555,42.832 65.811,42.832C66.539,42.832 67.079,43.044 67.431,43.468C67.783,43.892 67.959,44.468 67.959,45.196L67.959,48.544L66.879,48.544L66.879,45.28C66.879,44.76 66.767,44.378 66.543,44.134C66.319,43.89 66.003,43.768 65.595,43.768C65.283,43.768 65.023,43.832 64.815,43.96C64.607,44.088 64.441,44.254 64.317,44.458C64.193,44.662 64.103,44.894 64.047,45.154C63.991,45.414 63.963,45.68 63.963,45.952L63.963,48.544L62.883,48.544Z" style="fill-rule:nonzero;"/>
        <path d="M68.303,42.964L69.539,42.964L71.279,47.32L73.007,42.964L74.171,42.964L71.783,48.544L70.703,48.544L68.303,42.964Z" style="fill-rule:nonzero;"/>
        <path d="M79.891,47.728C79.827,47.8 79.731,47.892 79.603,48.004C79.475,48.116 79.309,48.224 79.105,48.328C78.901,48.432 78.661,48.522 78.385,48.598C78.109,48.674 77.795,48.712 77.443,48.712C77.011,48.712 76.615,48.64 76.255,48.496C75.895,48.352 75.587,48.148 75.331,47.884C75.075,47.62 74.877,47.304 74.737,46.936C74.597,46.568 74.527,46.16 74.527,45.712C74.527,45.304 74.595,44.922 74.731,44.566C74.867,44.21 75.059,43.902 75.307,43.642C75.555,43.382 75.849,43.176 76.189,43.024C76.529,42.872 76.903,42.796 77.311,42.796C77.791,42.796 78.203,42.888 78.547,43.072C78.891,43.256 79.173,43.5 79.393,43.804C79.613,44.108 79.775,44.456 79.879,44.848C79.983,45.24 80.035,45.648 80.035,46.072L75.631,46.072C75.639,46.32 75.693,46.548 75.793,46.756C75.893,46.964 76.027,47.144 76.195,47.296C76.363,47.448 76.555,47.568 76.771,47.656C76.987,47.744 77.215,47.788 77.455,47.788C77.927,47.788 78.315,47.708 78.619,47.548C78.923,47.388 79.143,47.232 79.279,47.08L79.891,47.728ZM78.919,45.268C78.887,44.836 78.735,44.468 78.463,44.164C78.191,43.86 77.807,43.708 77.311,43.708C77.055,43.708 76.825,43.752 76.621,43.84C76.417,43.928 76.243,44.044 76.099,44.188C75.955,44.332 75.843,44.498 75.763,44.686C75.683,44.874 75.639,45.068 75.631,45.268L78.919,45.268Z" style="fill-rule:nonzero;"/>
        <path d="M81.039,48.544L81.039,43.498C81.039,43.326 81.035,43.148 81.027,42.964L82.059,42.964L82.095,43.864C82.159,43.768 82.243,43.662 82.347,43.546C82.451,43.43 82.577,43.324 82.725,43.228C82.873,43.132 83.045,43.05 83.241,42.982C83.437,42.914 83.663,42.88 83.919,42.88C84.039,42.88 84.149,42.888 84.249,42.904C84.349,42.92 84.443,42.944 84.531,42.976L84.291,43.984C84.147,43.928 83.963,43.9 83.739,43.9C83.507,43.9 83.293,43.944 83.097,44.032C82.901,44.12 82.731,44.242 82.587,44.398C82.443,44.554 82.329,44.736 82.245,44.944C82.161,45.152 82.119,45.372 82.119,45.604L82.119,48.544L81.039,48.544Z" style="fill-rule:nonzero;"/>
        <path d="M85.691,43.864L84.683,43.864L84.683,42.964L85.691,42.964L85.691,41.14L86.771,41.14L86.771,42.964L88.403,42.964L88.403,43.864L86.771,43.864L86.771,46.612C86.771,47.06 86.841,47.368 86.981,47.536C87.121,47.704 87.319,47.788 87.575,47.788C87.783,47.788 87.955,47.756 88.091,47.692C88.227,47.628 88.363,47.532 88.499,47.404L88.991,48.064C88.759,48.288 88.521,48.45 88.277,48.55C88.033,48.65 87.743,48.7 87.407,48.7C86.815,48.7 86.381,48.54 86.105,48.22C85.829,47.9 85.691,47.4 85.691,46.72L85.691,43.864Z" style="fill-rule:nonzero;"/>
        <path d="M115.047,169.407C115.159,169.535 115.285,169.665 115.425,169.797C115.565,169.929 115.723,170.047 115.899,170.151C116.075,170.255 116.271,170.339 116.487,170.403C116.703,170.467 116.939,170.499 117.195,170.499C117.723,170.499 118.135,170.379 118.431,170.139C118.727,169.899 118.875,169.575 118.875,169.167C118.875,168.727 118.707,168.397 118.371,168.177C118.035,167.957 117.551,167.779 116.919,167.643C116.575,167.571 116.263,167.471 115.983,167.343C115.703,167.215 115.461,167.055 115.257,166.863C115.053,166.671 114.895,166.449 114.783,166.197C114.671,165.945 114.615,165.659 114.615,165.339C114.615,165.043 114.671,164.763 114.783,164.499C114.895,164.235 115.063,164.003 115.287,163.803C115.511,163.603 115.791,163.443 116.127,163.323C116.463,163.203 116.851,163.143 117.291,163.143C117.683,163.143 118.021,163.185 118.305,163.269C118.589,163.353 118.831,163.455 119.031,163.575C119.231,163.695 119.391,163.819 119.511,163.947C119.631,164.075 119.723,164.179 119.787,164.259L119.019,164.967C118.971,164.911 118.899,164.837 118.803,164.745C118.707,164.653 118.585,164.563 118.437,164.475C118.289,164.387 118.117,164.313 117.921,164.253C117.725,164.193 117.499,164.163 117.243,164.163C116.987,164.163 116.767,164.197 116.583,164.265C116.399,164.333 116.247,164.421 116.127,164.529C116.007,164.637 115.919,164.759 115.863,164.895C115.807,165.031 115.779,165.167 115.779,165.303C115.779,165.503 115.821,165.673 115.905,165.813C115.989,165.953 116.111,166.077 116.271,166.185C116.431,166.293 116.629,166.385 116.865,166.461C117.101,166.537 117.371,166.611 117.675,166.683C117.971,166.755 118.261,166.849 118.545,166.965C118.829,167.081 119.083,167.237 119.307,167.433C119.531,167.629 119.709,167.869 119.841,168.153C119.973,168.437 120.039,168.783 120.039,169.191C120.039,169.535 119.967,169.851 119.823,170.139C119.679,170.427 119.481,170.677 119.229,170.889C118.977,171.101 118.679,171.265 118.335,171.381C117.991,171.497 117.619,171.555 117.219,171.555C116.843,171.555 116.501,171.511 116.193,171.423C115.885,171.335 115.605,171.223 115.353,171.087C115.101,170.951 114.881,170.801 114.693,170.637C114.505,170.473 114.351,170.311 114.231,170.151L115.047,169.407Z" style="fill-rule:nonzero;"/>
        <path d="M121.043,165.771L122.123,165.771L122.123,169.047C122.123,169.575 122.231,169.957 122.447,170.193C122.663,170.429 122.975,170.547 123.383,170.547C123.695,170.547 123.953,170.483 124.157,170.355C124.361,170.227 124.527,170.061 124.655,169.857C124.783,169.653 124.873,169.421 124.925,169.161C124.977,168.901 125.003,168.635 125.003,168.363L125.003,165.771L126.083,165.771L126.083,170.781C126.083,170.961 126.087,171.151 126.095,171.351L125.063,171.351L125.027,170.523C124.955,170.619 124.867,170.723 124.763,170.835C124.659,170.947 124.531,171.049 124.379,171.141C124.227,171.233 124.051,171.311 123.851,171.375C123.651,171.439 123.423,171.471 123.167,171.471C122.439,171.471 121.903,171.261 121.559,170.841C121.215,170.421 121.043,169.847 121.043,169.119L121.043,165.771Z" style="fill-rule:nonzero;"/>
        <path d="M127.387,163.347L128.467,163.347L128.467,166.383C128.523,166.311 128.601,166.231 128.701,166.143C128.801,166.055 128.923,165.973 129.067,165.897C129.211,165.821 129.377,165.759 129.565,165.711C129.753,165.663 129.963,165.639 130.195,165.639C130.611,165.639 130.977,165.713 131.293,165.861C131.609,166.009 131.875,166.213 132.091,166.473C132.307,166.733 132.469,167.039 132.577,167.391C132.685,167.743 132.739,168.119 132.739,168.519C132.739,168.959 132.663,169.363 132.511,169.731C132.359,170.099 132.145,170.415 131.869,170.679C131.593,170.943 131.263,171.149 130.879,171.297C130.495,171.445 130.071,171.519 129.607,171.519C129.151,171.519 128.727,171.483 128.335,171.411C127.943,171.339 127.627,171.255 127.387,171.159L127.387,163.347ZM128.455,170.427C128.567,170.459 128.705,170.493 128.869,170.529C129.033,170.565 129.275,170.583 129.595,170.583C129.907,170.583 130.187,170.533 130.435,170.433C130.683,170.333 130.897,170.193 131.077,170.013C131.257,169.833 131.395,169.617 131.491,169.365C131.587,169.113 131.635,168.839 131.635,168.543C131.635,168.287 131.605,168.041 131.545,167.805C131.485,167.569 131.389,167.361 131.257,167.181C131.125,167.001 130.959,166.857 130.759,166.749C130.559,166.641 130.315,166.587 130.027,166.587C129.763,166.587 129.533,166.633 129.337,166.725C129.141,166.817 128.977,166.937 128.845,167.085C128.713,167.233 128.615,167.405 128.551,167.601C128.487,167.797 128.455,167.999 128.455,168.207L128.455,170.427Z" style="fill-rule:nonzero;"/>
        <rect x="133.875" y="170.019" width="1.356" height="1.344" style="fill-rule:nonzero;"/>
        <path d="M111.137,228.738L113.693,228.738C114.205,228.738 114.637,228.808 114.989,228.948C115.341,229.088 115.627,229.268 115.847,229.488C116.067,229.708 116.227,229.958 116.327,230.238C116.427,230.518 116.477,230.802 116.477,231.09C116.477,231.602 116.357,232.054 116.117,232.446C115.877,232.838 115.505,233.13 115.001,233.322L116.873,236.742L115.577,236.742L113.861,233.466L112.253,233.466L112.253,236.742L111.137,236.742L111.137,228.738ZM113.789,232.494C114.293,232.494 114.671,232.37 114.923,232.122C115.175,231.874 115.301,231.542 115.301,231.126C115.301,230.686 115.165,230.344 114.893,230.1C114.621,229.856 114.245,229.734 113.765,229.734L112.253,229.734L112.253,232.494L113.789,232.494Z" style="fill-rule:nonzero;"/>
        <path d="M122.941,235.926C122.877,235.998 122.781,236.09 122.653,236.202C122.525,236.314 122.359,236.422 122.155,236.526C121.951,236.63 121.711,236.72 121.435,236.796C121.159,236.872 120.845,236.91 120.493,236.91C120.061,236.91 119.665,236.838 119.305,236.694C118.945,236.55 118.637,236.346 118.381,236.082C118.125,235.818 117.927,235.502 117.787,235.134C117.647,234.766 117.577,234.358 117.577,233.91C117.577,233.502 117.645,233.12 117.781,232.764C117.917,232.408 118.109,232.1 118.357,231.84C118.605,231.58 118.899,231.374 119.239,231.222C119.579,231.07 119.953,230.994 120.361,230.994C120.841,230.994 121.253,231.086 121.597,231.27C121.941,231.454 122.223,231.698 122.443,232.002C122.663,232.306 122.825,232.654 122.929,233.046C123.033,233.438 123.085,233.846 123.085,234.27L118.681,234.27C118.689,234.518 118.743,234.746 118.843,234.954C118.943,235.162 119.077,235.342 119.245,235.494C119.413,235.646 119.605,235.766 119.821,235.854C120.037,235.942 120.265,235.986 120.505,235.986C120.977,235.986 121.365,235.906 121.669,235.746C121.973,235.586 122.193,235.43 122.329,235.278L122.941,235.926ZM121.969,233.466C121.937,233.034 121.785,232.666 121.513,232.362C121.241,232.058 120.857,231.906 120.361,231.906C120.105,231.906 119.875,231.95 119.671,232.038C119.467,232.126 119.293,232.242 119.149,232.386C119.005,232.53 118.893,232.696 118.813,232.884C118.733,233.072 118.689,233.266 118.681,233.466L121.969,233.466Z" style="fill-rule:nonzero;"/>
        <path d="M124.449,235.338C124.649,235.538 124.889,235.698 125.169,235.818C125.449,235.938 125.773,235.998 126.141,235.998C126.501,235.998 126.801,235.94 127.041,235.824C127.281,235.708 127.401,235.526 127.401,235.278C127.401,235.15 127.375,235.04 127.323,234.948C127.271,234.856 127.183,234.774 127.059,234.702C126.935,234.63 126.771,234.564 126.567,234.504C126.363,234.444 126.109,234.378 125.805,234.306C125.589,234.258 125.375,234.194 125.163,234.114C124.951,234.034 124.761,233.928 124.593,233.796C124.425,233.664 124.289,233.504 124.185,233.316C124.081,233.128 124.029,232.902 124.029,232.638C124.029,232.366 124.091,232.128 124.215,231.924C124.339,231.72 124.505,231.548 124.713,231.408C124.921,231.268 125.155,231.162 125.415,231.09C125.675,231.018 125.945,230.982 126.225,230.982C126.697,230.982 127.103,231.044 127.443,231.168C127.783,231.292 128.081,231.466 128.337,231.69L127.749,232.434C127.581,232.282 127.371,232.154 127.119,232.05C126.867,231.946 126.573,231.894 126.237,231.894C125.893,231.894 125.617,231.95 125.409,232.062C125.201,232.174 125.097,232.358 125.097,232.614C125.097,232.854 125.235,233.032 125.511,233.148C125.787,233.264 126.149,233.374 126.597,233.478C126.861,233.542 127.107,233.616 127.335,233.7C127.563,233.784 127.763,233.892 127.935,234.024C128.107,234.156 128.243,234.318 128.343,234.51C128.443,234.702 128.493,234.934 128.493,235.206C128.493,235.486 128.429,235.732 128.301,235.944C128.173,236.156 128.001,236.334 127.785,236.478C127.569,236.622 127.321,236.73 127.041,236.802C126.761,236.874 126.469,236.91 126.165,236.91C125.109,236.91 124.317,236.626 123.789,236.058L124.449,235.338Z" style="fill-rule:nonzero;"/>
        <path d="M134.645,235.926C134.581,235.998 134.485,236.09 134.357,236.202C134.229,236.314 134.063,236.422 133.859,236.526C133.655,236.63 133.415,236.72 133.139,236.796C132.863,236.872 132.549,236.91 132.197,236.91C131.765,236.91 131.369,236.838 131.009,236.694C130.649,236.55 130.341,236.346 130.085,236.082C129.829,235.818 129.631,235.502 129.491,235.134C129.351,234.766 129.281,234.358 129.281,233.91C129.281,233.502 129.349,233.12 129.485,232.764C129.621,232.408 129.813,232.1 130.061,231.84C130.309,231.58 130.603,231.374 130.943,231.222C131.283,231.07 131.657,230.994 132.065,230.994C132.545,230.994 132.957,231.086 133.301,231.27C133.645,231.454 133.927,231.698 134.147,232.002C134.367,232.306 134.529,232.654 134.633,233.046C134.737,233.438 134.789,233.846 134.789,234.27L130.385,234.27C130.393,234.518 130.447,234.746 130.547,234.954C130.647,235.162 130.781,235.342 130.949,235.494C131.117,235.646 131.309,235.766 131.525,235.854C131.741,235.942 131.969,235.986 132.209,235.986C132.681,235.986 133.069,235.906 133.373,235.746C133.677,235.586 133.897,235.43 134.033,235.278L134.645,235.926ZM133.673,233.466C133.641,233.034 133.489,232.666 133.217,232.362C132.945,232.058 132.561,231.906 132.065,231.906C131.809,231.906 131.579,231.95 131.375,232.038C131.171,232.126 130.997,232.242 130.853,232.386C130.709,232.53 130.597,232.696 130.517,232.884C130.437,233.072 130.393,233.266 130.385,233.466L133.673,233.466Z" style="fill-rule:nonzero;"/>
        <path d="M136.273,232.062L135.265,232.062L135.265,231.162L136.273,231.162L136.273,229.338L137.353,229.338L137.353,231.162L138.985,231.162L138.985,232.062L137.353,232.062L137.353,234.81C137.353,235.258 137.423,235.566 137.563,235.734C137.703,235.902 137.901,235.986 138.157,235.986C138.365,235.986 138.537,235.954 138.673,235.89C138.809,235.826 138.945,235.73 139.081,235.602L139.573,236.262C139.341,236.486 139.103,236.648 138.859,236.748C138.615,236.848 138.325,236.898 137.989,236.898C137.397,236.898 136.963,236.738 136.687,236.418C136.411,236.098 136.273,235.598 136.273,234.918L136.273,232.062Z" style="fill-rule:nonzero;"/>
        <path d="M115.323,286.04L117.855,286.04C118.399,286.04 118.849,286.116 119.205,286.268C119.561,286.42 119.845,286.612 120.057,286.844C120.269,287.076 120.417,287.336 120.501,287.624C120.585,287.912 120.627,288.192 120.627,288.464C120.627,288.864 120.559,289.216 120.423,289.52C120.287,289.824 120.099,290.078 119.859,290.282C119.619,290.486 119.333,290.64 119.001,290.744C118.669,290.848 118.307,290.9 117.915,290.9L116.463,290.9L116.463,294.044L115.323,294.044L115.323,286.04ZM117.903,289.916C118.399,289.916 118.781,289.79 119.049,289.538C119.317,289.286 119.451,288.936 119.451,288.488C119.451,288.032 119.313,287.674 119.037,287.414C118.761,287.154 118.383,287.024 117.903,287.024L116.463,287.024L116.463,289.916L117.903,289.916Z" style="fill-rule:nonzero;"/>
        <path d="M123.839,294.212C123.407,294.212 123.011,294.134 122.651,293.978C122.291,293.822 121.981,293.608 121.721,293.336C121.461,293.064 121.257,292.75 121.109,292.394C120.961,292.038 120.887,291.656 120.887,291.248C120.887,290.84 120.961,290.458 121.109,290.102C121.257,289.746 121.461,289.432 121.721,289.16C121.981,288.888 122.291,288.674 122.651,288.518C123.011,288.362 123.407,288.284 123.839,288.284C124.263,288.284 124.655,288.362 125.015,288.518C125.375,288.674 125.687,288.888 125.951,289.16C126.215,289.432 126.421,289.746 126.569,290.102C126.717,290.458 126.791,290.84 126.791,291.248C126.791,291.656 126.717,292.038 126.569,292.394C126.421,292.75 126.215,293.064 125.951,293.336C125.687,293.608 125.375,293.822 125.015,293.978C124.655,294.134 124.263,294.212 123.839,294.212ZM123.839,293.276C124.127,293.276 124.387,293.218 124.619,293.102C124.851,292.986 125.047,292.834 125.207,292.646C125.367,292.458 125.489,292.242 125.573,291.998C125.657,291.754 125.699,291.504 125.699,291.248C125.699,291 125.657,290.754 125.573,290.51C125.489,290.266 125.365,290.048 125.201,289.856C125.037,289.664 124.841,289.51 124.613,289.394C124.385,289.278 124.127,289.22 123.839,289.22C123.551,289.22 123.291,289.278 123.059,289.394C122.827,289.51 122.631,289.662 122.471,289.85C122.311,290.038 122.189,290.254 122.105,290.498C122.021,290.742 121.979,290.992 121.979,291.248C121.979,291.504 122.021,291.752 122.105,291.992C122.189,292.232 122.313,292.448 122.477,292.64C122.641,292.832 122.837,292.986 123.065,293.102C123.293,293.218 123.551,293.276 123.839,293.276Z" style="fill-rule:nonzero;"/>
        <rect x="127.819" y="286.04" width="1.08" height="8.004" style="fill-rule:nonzero;"/>
        <path d="M130.215,295.412C130.295,295.484 130.387,295.548 130.491,295.604C130.595,295.66 130.723,295.688 130.875,295.688C131.003,295.688 131.113,295.66 131.205,295.604C131.297,295.548 131.381,295.462 131.457,295.346C131.533,295.23 131.605,295.09 131.673,294.926C131.741,294.762 131.819,294.572 131.907,294.356L132.051,293.996L129.555,288.464L130.791,288.464L132.591,292.676L134.175,288.464L135.351,288.464L133.119,293.9C133.015,294.156 132.909,294.438 132.801,294.746C132.693,295.054 132.559,295.346 132.399,295.622C132.239,295.898 132.043,296.128 131.811,296.312C131.579,296.496 131.287,296.588 130.935,296.588C130.655,296.588 130.419,296.55 130.227,296.474C130.035,296.398 129.867,296.296 129.723,296.168L130.215,295.412Z" style="fill-rule:nonzero;"/>
        <path d="M82.104,39.228C81.464,39.228 80.977,39.013 80.642,38.584C80.308,38.155 80.14,37.528 80.14,36.704L80.14,35.817C80.14,34.983 80.308,34.349 80.642,33.915C80.977,33.481 81.466,33.264 82.111,33.264C82.751,33.264 83.237,33.481 83.569,33.915C83.902,34.349 84.068,34.983 84.068,35.817L84.068,36.704C84.068,37.528 83.9,38.155 83.566,38.584C83.231,39.013 82.744,39.228 82.104,39.228ZM82.104,38.573C82.545,38.573 82.862,38.428 83.053,38.137C83.245,37.846 83.34,37.368 83.34,36.704L83.34,35.817C83.34,35.138 83.245,34.652 83.053,34.359C82.862,34.065 82.545,33.919 82.104,33.919C81.663,33.919 81.346,34.065 81.155,34.359C80.963,34.652 80.868,35.138 80.868,35.817L80.868,36.704C80.868,37.368 80.963,37.846 81.155,38.137C81.346,38.428 81.663,38.573 82.104,38.573ZM82.104,36.813C81.949,36.813 81.823,36.787 81.726,36.733C81.629,36.68 81.58,36.578 81.58,36.428L81.58,36.071C81.58,35.926 81.629,35.825 81.726,35.77C81.823,35.714 81.949,35.686 82.104,35.686C82.259,35.686 82.384,35.714 82.479,35.77C82.573,35.825 82.62,35.926 82.62,36.071L82.62,36.428C82.62,36.578 82.572,36.68 82.475,36.733C82.378,36.787 82.254,36.813 82.104,36.813Z" style="fill-rule:nonzero;"/>
        <path d="M85.592,39.155L85.592,38.501L87.192,38.501L87.192,34.21L86.981,34.21C86.816,34.501 86.604,34.707 86.345,34.828C86.085,34.949 85.786,34.981 85.447,34.922L85.374,34.21C85.747,34.253 86.089,34.201 86.399,34.053C86.71,33.905 86.981,33.667 87.214,33.337L87.919,33.337L87.919,38.501L89.374,38.501L89.374,39.155L85.592,39.155Z" style="fill-rule:nonzero;"/>
        <path d="M92.28,39.228C91.64,39.228 91.153,39.013 90.818,38.584C90.484,38.155 90.316,37.528 90.316,36.704L90.316,35.817C90.316,34.983 90.484,34.349 90.818,33.915C91.153,33.481 91.642,33.264 92.287,33.264C92.927,33.264 93.413,33.481 93.745,33.915C94.078,34.349 94.244,34.983 94.244,35.817L94.244,36.704C94.244,37.528 94.076,38.155 93.742,38.584C93.407,39.013 92.92,39.228 92.28,39.228ZM92.28,38.573C92.721,38.573 93.038,38.428 93.229,38.137C93.421,37.846 93.516,37.368 93.516,36.704L93.516,35.817C93.516,35.138 93.421,34.652 93.229,34.359C93.038,34.065 92.721,33.919 92.28,33.919C91.839,33.919 91.522,34.065 91.331,34.359C91.139,34.652 91.044,35.138 91.044,35.817L91.044,36.704C91.044,37.368 91.139,37.846 91.331,38.137C91.522,38.428 91.839,38.573 92.28,38.573ZM92.28,36.813C92.125,36.813 91.999,36.787 91.902,36.733C91.805,36.68 91.756,36.578 91.756,36.428L91.756,36.071C91.756,35.926 91.805,35.825 91.902,35.77C91.999,35.714 92.125,35.686 92.28,35.686C92.435,35.686 92.56,35.714 92.655,35.77C92.749,35.825 92.796,35.926 92.796,36.071L92.796,36.428C92.796,36.578 92.748,36.68 92.651,36.733C92.554,36.787 92.43,36.813 92.28,36.813Z" style="fill-rule:nonzero;"/>
        <path d="M95.768,39.155L95.768,38.501L97.368,38.501L97.368,34.21L97.157,34.21C96.992,34.501 96.78,34.707 96.521,34.828C96.261,34.949 95.962,34.981 95.623,34.922L95.55,34.21C95.923,34.253 96.265,34.201 96.575,34.053C96.886,33.905 97.157,33.667 97.39,33.337L98.095,33.337L98.095,38.501L99.55,38.501L99.55,39.155L95.768,39.155Z" style="fill-rule:nonzero;"/>
        <path d="M102.456,39.228C101.816,39.228 101.329,39.013 100.994,38.584C100.66,38.155 100.492,37.528 100.492,36.704L100.492,35.817C100.492,34.983 100.66,34.349 100.994,33.915C101.329,33.481 101.818,33.264 102.463,33.264C103.103,33.264 103.589,33.481 103.921,33.915C104.254,34.349 104.42,34.983 104.42,35.817L104.42,36.704C104.42,37.528 104.252,38.155 103.918,38.584C103.583,39.013 103.096,39.228 102.456,39.228ZM102.456,38.573C102.897,38.573 103.214,38.428 103.405,38.137C103.597,37.846 103.692,37.368 103.692,36.704L103.692,35.817C103.692,35.138 103.597,34.652 103.405,34.359C103.214,34.065 102.897,33.919 102.456,33.919C102.015,33.919 101.698,34.065 101.507,34.359C101.315,34.652 101.22,35.138 101.22,35.817L101.22,36.704C101.22,37.368 101.315,37.846 101.507,38.137C101.698,38.428 102.015,38.573 102.456,38.573ZM102.456,36.813C102.301,36.813 102.175,36.787 102.078,36.733C101.981,36.68 101.932,36.578 101.932,36.428L101.932,36.071C101.932,35.926 101.981,35.825 102.078,35.77C102.175,35.714 102.301,35.686 102.456,35.686C102.611,35.686 102.736,35.714 102.831,35.77C102.925,35.825 102.972,35.926 102.972,36.071L102.972,36.428C102.972,36.578 102.924,36.68 102.827,36.733C102.73,36.787 102.606,36.813 102.456,36.813Z" style="fill-rule:nonzero;"/>
        <path d="M105.944,39.155L105.944,38.501L107.544,38.501L107.544,34.21L107.333,34.21C107.168,34.501 106.956,34.707 106.697,34.828C106.437,34.949 106.138,34.981 105.799,34.922L105.726,34.21C106.099,34.253 106.441,34.201 106.751,34.053C107.062,33.905 107.333,33.667 107.566,33.337L108.271,33.337L108.271,38.501L109.726,38.501L109.726,39.155L105.944,39.155Z" style="fill-rule:nonzero;"/>
        <path d="M111.032,39.155L111.032,38.501L112.632,38.501L112.632,34.21L112.421,34.21C112.256,34.501 112.044,34.707 111.785,34.828C111.525,34.949 111.226,34.981 110.887,34.922L110.814,34.21C111.187,34.253 111.529,34.201 111.839,34.053C112.15,33.905 112.421,33.667 112.654,33.337L113.359,33.337L113.359,38.501L114.814,38.501L114.814,39.155L111.032,39.155Z" style="fill-rule:nonzero;"/>
        <path d="M117.72,39.228C117.08,39.228 116.593,39.013 116.258,38.584C115.924,38.155 115.756,37.528 115.756,36.704L115.756,35.817C115.756,34.983 115.924,34.349 116.258,33.915C116.593,33.481 117.082,33.264 117.727,33.264C118.367,33.264 118.853,33.481 119.185,33.915C119.518,34.349 119.684,34.983 119.684,35.817L119.684,36.704C119.684,37.528 119.516,38.155 119.182,38.584C118.847,39.013 118.36,39.228 117.72,39.228ZM117.72,38.573C118.161,38.573 118.478,38.428 118.669,38.137C118.861,37.846 118.956,37.368 118.956,36.704L118.956,35.817C118.956,35.138 118.861,34.652 118.669,34.359C118.478,34.065 118.161,33.919 117.72,33.919C117.279,33.919 116.962,34.065 116.771,34.359C116.579,34.652 116.484,35.138 116.484,35.817L116.484,36.704C116.484,37.368 116.579,37.846 116.771,38.137C116.962,38.428 117.279,38.573 117.72,38.573ZM117.72,36.813C117.565,36.813 117.439,36.787 117.342,36.733C117.245,36.68 117.196,36.578 117.196,36.428L117.196,36.071C117.196,35.926 117.245,35.825 117.342,35.77C117.439,35.714 117.565,35.686 117.72,35.686C117.875,35.686 118,35.714 118.095,35.77C118.189,35.825 118.236,35.926 118.236,36.071L118.236,36.428C118.236,36.578 118.188,36.68 118.091,36.733C117.994,36.787 117.87,36.813 117.72,36.813Z" style="fill-rule:nonzero;"/>
        <path d="M121.208,39.155L121.208,38.501L122.808,38.501L122.808,34.21L122.597,34.21C122.432,34.501 122.22,34.707 121.961,34.828C121.701,34.949 121.402,34.981 121.063,34.922L120.99,34.21C121.363,34.253 121.705,34.201 122.015,34.053C122.326,33.905 122.597,33.667 122.83,33.337L123.535,33.337L123.535,38.501L124.99,38.501L124.99,39.155L121.208,39.155Z" style="fill-rule:nonzero;"/>
        <path d="M127.896,39.228C127.256,39.228 126.769,39.013 126.434,38.584C126.1,38.155 125.932,37.528 125.932,36.704L125.932,35.817C125.932,34.983 126.1,34.349 126.434,33.915C126.769,33.481 127.258,33.264 127.903,33.264C128.543,33.264 129.029,33.481 129.361,33.915C129.694,34.349 129.86,34.983 129.86,35.817L129.86,36.704C129.86,37.528 129.692,38.155 129.358,38.584C129.023,39.013 128.536,39.228 127.896,39.228ZM127.896,38.573C128.337,38.573 128.654,38.428 128.845,38.137C129.037,37.846 129.132,37.368 129.132,36.704L129.132,35.817C129.132,35.138 129.037,34.652 128.845,34.359C128.654,34.065 128.337,33.919 127.896,33.919C127.455,33.919 127.138,34.065 126.947,34.359C126.755,34.652 126.66,35.138 126.66,35.817L126.66,36.704C126.66,37.368 126.755,37.846 126.947,38.137C127.138,38.428 127.455,38.573 127.896,38.573ZM127.896,36.813C127.741,36.813 127.615,36.787 127.518,36.733C127.421,36.68 127.372,36.578 127.372,36.428L127.372,36.071C127.372,35.926 127.421,35.825 127.518,35.77C127.615,35.714 127.741,35.686 127.896,35.686C128.051,35.686 128.176,35.714 128.271,35.77C128.365,35.825 128.412,35.926 128.412,36.071L128.412,36.428C128.412,36.578 128.364,36.68 128.267,36.733C128.17,36.787 128.046,36.813 127.896,36.813Z" style="fill-rule:nonzero;"/>
        <path d="M49.536,16.831L53.604,16.831C54.228,16.831 54.768,16.912 55.224,17.074C55.68,17.236 56.058,17.455 56.358,17.731C56.658,18.007 56.883,18.331 57.033,18.703C57.183,19.075 57.258,19.471 57.258,19.891C57.258,20.275 57.189,20.623 57.051,20.935C56.913,21.247 56.745,21.511 56.547,21.727C56.349,21.943 56.133,22.117 55.899,22.249C55.665,22.381 55.452,22.459 55.26,22.483C55.512,22.519 55.791,22.594 56.097,22.708C56.403,22.822 56.688,22.993 56.952,23.221C57.216,23.449 57.438,23.746 57.618,24.112C57.798,24.478 57.888,24.931 57.888,25.471C57.888,26.119 57.771,26.656 57.537,27.082C57.303,27.508 56.985,27.853 56.583,28.117C56.181,28.381 55.704,28.567 55.152,28.675C54.6,28.783 54.012,28.837 53.388,28.837L49.536,28.837L49.536,16.831ZM53.352,21.835C53.616,21.835 53.88,21.802 54.144,21.736C54.408,21.67 54.648,21.565 54.864,21.421C55.08,21.277 55.254,21.091 55.386,20.863C55.518,20.635 55.584,20.359 55.584,20.035C55.584,19.675 55.518,19.384 55.386,19.162C55.254,18.94 55.08,18.766 54.864,18.64C54.648,18.514 54.408,18.43 54.144,18.388C53.88,18.346 53.616,18.325 53.352,18.325L51.21,18.325L51.21,21.835L53.352,21.835ZM53.298,27.343C53.61,27.343 53.934,27.325 54.27,27.289C54.606,27.253 54.915,27.169 55.197,27.037C55.479,26.905 55.71,26.71 55.89,26.452C56.07,26.194 56.16,25.837 56.16,25.381C56.16,24.949 56.073,24.601 55.899,24.337C55.725,24.073 55.503,23.863 55.233,23.707C54.963,23.551 54.666,23.446 54.342,23.392C54.018,23.338 53.706,23.311 53.406,23.311L51.21,23.311L51.21,27.343L53.298,27.343Z" style="fill-rule:nonzero;"/>
        <path d="M59.61,17.155L61.428,17.155L61.428,18.973L59.61,18.973L59.61,17.155ZM59.718,20.467L61.338,20.467L61.338,28.837L59.718,28.837L59.718,20.467Z" style="fill-rule:nonzero;"/>
        <path d="M63.384,28.837L63.384,21.322C63.384,21.052 63.378,20.767 63.366,20.467L64.914,20.467L64.968,21.727C65.076,21.583 65.208,21.424 65.364,21.25C65.52,21.076 65.712,20.917 65.94,20.773C66.168,20.629 66.435,20.509 66.741,20.413C67.047,20.317 67.392,20.269 67.776,20.269C68.868,20.269 69.678,20.587 70.206,21.223C70.734,21.859 70.998,22.723 70.998,23.815L70.998,28.837L69.378,28.837L69.378,23.941C69.378,23.161 69.21,22.588 68.874,22.222C68.538,21.856 68.064,21.673 67.452,21.673C66.984,21.673 66.594,21.769 66.282,21.961C65.97,22.153 65.721,22.402 65.535,22.708C65.349,23.014 65.214,23.362 65.13,23.752C65.046,24.142 65.004,24.541 65.004,24.949L65.004,28.837L63.384,28.837Z" style="fill-rule:nonzero;"/>
        <path d="M78.138,24.877C78.09,24.865 77.997,24.85 77.859,24.832C77.721,24.814 77.562,24.799 77.382,24.787C77.202,24.775 77.01,24.763 76.806,24.751C76.602,24.739 76.404,24.733 76.212,24.733C75.756,24.733 75.387,24.787 75.105,24.895C74.823,25.003 74.601,25.138 74.439,25.3C74.277,25.462 74.166,25.642 74.106,25.84C74.046,26.038 74.016,26.227 74.016,26.407C74.016,26.863 74.172,27.208 74.484,27.442C74.796,27.676 75.228,27.793 75.78,27.793C76.092,27.793 76.389,27.739 76.671,27.631C76.953,27.523 77.202,27.379 77.418,27.199C77.634,27.019 77.808,26.809 77.94,26.569C78.072,26.329 78.138,26.083 78.138,25.831L78.138,24.877ZM78.156,27.829C77.844,28.249 77.433,28.561 76.923,28.765C76.413,28.969 75.888,29.071 75.348,29.071C75,29.071 74.655,29.026 74.313,28.936C73.971,28.846 73.659,28.696 73.377,28.486C73.095,28.276 72.867,28.006 72.693,27.676C72.519,27.346 72.432,26.941 72.432,26.461C72.432,25.561 72.747,24.841 73.377,24.301C74.007,23.761 74.916,23.491 76.104,23.491C76.296,23.491 76.5,23.497 76.716,23.509C76.932,23.521 77.136,23.533 77.328,23.545C77.52,23.557 77.688,23.569 77.832,23.581C77.976,23.593 78.078,23.605 78.138,23.617L78.138,23.311C78.138,22.687 77.949,22.24 77.571,21.97C77.193,21.7 76.68,21.565 76.032,21.565C75.396,21.565 74.892,21.652 74.52,21.826C74.148,22 73.836,22.177 73.584,22.357L72.828,21.259C72.972,21.139 73.146,21.019 73.35,20.899C73.554,20.779 73.794,20.668 74.07,20.566C74.346,20.464 74.658,20.38 75.006,20.314C75.354,20.248 75.756,20.215 76.212,20.215C77.292,20.215 78.141,20.476 78.759,20.998C79.377,21.52 79.686,22.261 79.686,23.221L79.686,28.09C79.686,28.384 79.692,28.633 79.704,28.837L78.192,28.837L78.156,27.829Z" style="fill-rule:nonzero;"/>
        <path d="M81.642,28.837L81.642,21.268C81.642,21.01 81.636,20.743 81.624,20.467L83.172,20.467L83.226,21.817C83.322,21.673 83.448,21.514 83.604,21.34C83.76,21.166 83.949,21.007 84.171,20.863C84.393,20.719 84.651,20.596 84.945,20.494C85.239,20.392 85.578,20.341 85.962,20.341C86.142,20.341 86.307,20.353 86.457,20.377C86.607,20.401 86.748,20.437 86.88,20.485L86.52,21.997C86.304,21.913 86.028,21.871 85.692,21.871C85.344,21.871 85.023,21.937 84.729,22.069C84.435,22.201 84.18,22.384 83.964,22.618C83.748,22.852 83.577,23.125 83.451,23.437C83.325,23.749 83.262,24.079 83.262,24.427L83.262,28.837L81.642,28.837Z" style="fill-rule:nonzero;"/>
        <path d="M87.972,30.889C88.092,30.997 88.23,31.093 88.386,31.177C88.542,31.261 88.734,31.303 88.962,31.303C89.154,31.303 89.319,31.261 89.457,31.177C89.595,31.093 89.721,30.964 89.835,30.79C89.949,30.616 90.057,30.406 90.159,30.16C90.261,29.914 90.378,29.629 90.51,29.305L90.726,28.765L86.982,20.467L88.836,20.467L91.536,26.785L93.912,20.467L95.676,20.467L92.328,28.621C92.172,29.005 92.013,29.428 91.851,29.89C91.689,30.352 91.488,30.79 91.248,31.204C91.008,31.618 90.714,31.963 90.366,32.239C90.018,32.515 89.58,32.653 89.052,32.653C88.632,32.653 88.278,32.596 87.99,32.482C87.702,32.368 87.45,32.215 87.234,32.023L87.972,30.889Z" style="fill-rule:nonzero;"/>
        <path d="M110.154,26.731C110.022,26.947 109.818,27.193 109.542,27.469C109.266,27.745 108.93,28.006 108.534,28.252C108.138,28.498 107.682,28.705 107.166,28.873C106.65,29.041 106.08,29.125 105.456,29.125C104.568,29.125 103.758,28.969 103.026,28.657C102.294,28.345 101.664,27.91 101.136,27.352C100.608,26.794 100.197,26.134 99.903,25.372C99.609,24.61 99.462,23.779 99.462,22.879C99.462,22.003 99.609,21.181 99.903,20.413C100.197,19.645 100.608,18.973 101.136,18.397C101.664,17.821 102.297,17.368 103.035,17.038C103.773,16.708 104.592,16.543 105.492,16.543C106.128,16.543 106.698,16.621 107.202,16.777C107.706,16.933 108.147,17.128 108.525,17.362C108.903,17.596 109.227,17.851 109.497,18.127C109.767,18.403 109.986,18.667 110.154,18.919L108.93,19.963C108.786,19.759 108.615,19.546 108.417,19.324C108.219,19.102 107.982,18.901 107.706,18.721C107.43,18.541 107.112,18.391 106.752,18.271C106.392,18.151 105.978,18.091 105.51,18.091C104.85,18.091 104.259,18.217 103.737,18.469C103.215,18.721 102.771,19.063 102.405,19.495C102.039,19.927 101.76,20.431 101.568,21.007C101.376,21.583 101.28,22.195 101.28,22.843C101.28,23.491 101.379,24.1 101.577,24.67C101.775,25.24 102.054,25.735 102.414,26.155C102.774,26.575 103.212,26.905 103.728,27.145C104.244,27.385 104.82,27.505 105.456,27.505C105.996,27.505 106.461,27.436 106.851,27.298C107.241,27.16 107.571,26.995 107.841,26.803C108.111,26.611 108.333,26.416 108.507,26.218C108.681,26.02 108.828,25.855 108.948,25.723L110.154,26.731Z" style="fill-rule:nonzero;"/>
        <path d="M115.314,29.089C114.666,29.089 114.072,28.972 113.532,28.738C112.992,28.504 112.527,28.183 112.137,27.775C111.747,27.367 111.441,26.896 111.219,26.362C110.997,25.828 110.886,25.255 110.886,24.643C110.886,24.031 110.997,23.458 111.219,22.924C111.441,22.39 111.747,21.919 112.137,21.511C112.527,21.103 112.992,20.782 113.532,20.548C114.072,20.314 114.666,20.197 115.314,20.197C115.95,20.197 116.538,20.314 117.078,20.548C117.618,20.782 118.086,21.103 118.482,21.511C118.878,21.919 119.187,22.39 119.409,22.924C119.631,23.458 119.742,24.031 119.742,24.643C119.742,25.255 119.631,25.828 119.409,26.362C119.187,26.896 118.878,27.367 118.482,27.775C118.086,28.183 117.618,28.504 117.078,28.738C116.538,28.972 115.95,29.089 115.314,29.089ZM115.314,27.685C115.746,27.685 116.136,27.598 116.484,27.424C116.832,27.25 117.126,27.022 117.366,26.74C117.606,26.458 117.789,26.134 117.915,25.768C118.041,25.402 118.104,25.027 118.104,24.643C118.104,24.271 118.041,23.902 117.915,23.536C117.789,23.17 117.603,22.843 117.357,22.555C117.111,22.267 116.817,22.036 116.475,21.862C116.133,21.688 115.746,21.601 115.314,21.601C114.882,21.601 114.492,21.688 114.144,21.862C113.796,22.036 113.502,22.264 113.262,22.546C113.022,22.828 112.839,23.152 112.713,23.518C112.587,23.884 112.524,24.259 112.524,24.643C112.524,25.027 112.587,25.399 112.713,25.759C112.839,26.119 113.025,26.443 113.271,26.731C113.517,27.019 113.811,27.25 114.153,27.424C114.495,27.598 114.882,27.685 115.314,27.685Z" style="fill-rule:nonzero;"/>
        <path d="M121.266,20.467L122.886,20.467L122.886,25.381C122.886,26.173 123.048,26.746 123.372,27.1C123.696,27.454 124.164,27.631 124.776,27.631C125.244,27.631 125.631,27.535 125.937,27.343C126.243,27.151 126.492,26.902 126.684,26.596C126.876,26.29 127.011,25.942 127.089,25.552C127.167,25.162 127.206,24.763 127.206,24.355L127.206,20.467L128.826,20.467L128.826,27.982C128.826,28.252 128.832,28.537 128.844,28.837L127.296,28.837L127.242,27.595C127.134,27.739 127.002,27.895 126.846,28.063C126.69,28.231 126.498,28.384 126.27,28.522C126.042,28.66 125.778,28.777 125.478,28.873C125.178,28.969 124.836,29.017 124.452,29.017C123.36,29.017 122.556,28.702 122.04,28.072C121.524,27.442 121.266,26.581 121.266,25.489L121.266,20.467Z" style="fill-rule:nonzero;"/>
        <path d="M130.818,28.837L130.818,21.322C130.818,21.052 130.812,20.767 130.8,20.467L132.348,20.467L132.402,21.727C132.51,21.583 132.642,21.424 132.798,21.25C132.954,21.076 133.146,20.917 133.374,20.773C133.602,20.629 133.869,20.509 134.175,20.413C134.481,20.317 134.826,20.269 135.21,20.269C136.302,20.269 137.112,20.587 137.64,21.223C138.168,21.859 138.432,22.723 138.432,23.815L138.432,28.837L136.812,28.837L136.812,23.941C136.812,23.161 136.644,22.588 136.308,22.222C135.972,21.856 135.498,21.673 134.886,21.673C134.418,21.673 134.028,21.769 133.716,21.961C133.404,22.153 133.155,22.402 132.969,22.708C132.783,23.014 132.648,23.362 132.564,23.752C132.48,24.142 132.438,24.541 132.438,24.949L132.438,28.837L130.818,28.837Z" style="fill-rule:nonzero;"/>
        <path d="M141.072,21.817L139.56,21.817L139.56,20.467L141.072,20.467L141.072,17.731L142.692,17.731L142.692,20.467L145.14,20.467L145.14,21.817L142.692,21.817L142.692,25.939C142.692,26.611 142.797,27.073 143.007,27.325C143.217,27.577 143.514,27.703 143.898,27.703C144.21,27.703 144.468,27.655 144.672,27.559C144.876,27.463 145.08,27.319 145.284,27.127L146.022,28.117C145.674,28.453 145.317,28.696 144.951,28.846C144.585,28.996 144.15,29.071 143.646,29.071C142.758,29.071 142.107,28.831 141.693,28.351C141.279,27.871 141.072,27.121 141.072,26.101L141.072,21.817Z" style="fill-rule:nonzero;"/>
        <path d="M154.638,27.613C154.542,27.721 154.398,27.859 154.206,28.027C154.014,28.195 153.765,28.357 153.459,28.513C153.153,28.669 152.793,28.804 152.379,28.918C151.965,29.032 151.494,29.089 150.966,29.089C150.318,29.089 149.724,28.981 149.184,28.765C148.644,28.549 148.182,28.243 147.798,27.847C147.414,27.451 147.117,26.977 146.907,26.425C146.697,25.873 146.592,25.261 146.592,24.589C146.592,23.977 146.694,23.404 146.898,22.87C147.102,22.336 147.39,21.874 147.762,21.484C148.134,21.094 148.575,20.785 149.085,20.557C149.595,20.329 150.156,20.215 150.768,20.215C151.488,20.215 152.106,20.353 152.622,20.629C153.138,20.905 153.561,21.271 153.891,21.727C154.221,22.183 154.464,22.705 154.62,23.293C154.776,23.881 154.854,24.493 154.854,25.129L148.248,25.129C148.26,25.501 148.341,25.843 148.491,26.155C148.641,26.467 148.842,26.737 149.094,26.965C149.346,27.193 149.634,27.373 149.958,27.505C150.282,27.637 150.624,27.703 150.984,27.703C151.692,27.703 152.274,27.583 152.73,27.343C153.186,27.103 153.516,26.869 153.72,26.641L154.638,27.613ZM153.18,23.923C153.132,23.275 152.904,22.723 152.496,22.267C152.088,21.811 151.512,21.583 150.768,21.583C150.384,21.583 150.039,21.649 149.733,21.781C149.427,21.913 149.166,22.087 148.95,22.303C148.734,22.519 148.566,22.768 148.446,23.05C148.326,23.332 148.26,23.623 148.248,23.923L153.18,23.923Z" style="fill-rule:nonzero;"/>
        <path d="M156.396,28.837L156.396,21.268C156.396,21.01 156.39,20.743 156.378,20.467L157.926,20.467L157.98,21.817C158.076,21.673 158.202,21.514 158.358,21.34C158.514,21.166 158.703,21.007 158.925,20.863C159.147,20.719 159.405,20.596 159.699,20.494C159.993,20.392 160.332,20.341 160.716,20.341C160.896,20.341 161.061,20.353 161.211,20.377C161.361,20.401 161.502,20.437 161.634,20.485L161.274,21.997C161.058,21.913 160.782,21.871 160.446,21.871C160.098,21.871 159.777,21.937 159.483,22.069C159.189,22.201 158.934,22.384 158.718,22.618C158.502,22.852 158.331,23.125 158.205,23.437C158.079,23.749 158.016,24.079 158.016,24.427L158.016,28.837L156.396,28.837Z" style="fill-rule:nonzero;"/>
        <g>
            <path d="M39.839,65.184L41.183,65.184L41.183,59.724L39.623,60.564L39.179,59.712L41.303,58.548L42.275,58.548L42.275,65.184L43.595,65.184L43.595,66.144L39.839,66.144L39.839,65.184Z" style="fill-rule:nonzero;"/>
            <path d="M38.063,105.404C38.063,104.98 38.163,104.608 38.363,104.288C38.563,103.968 38.803,103.668 39.083,103.388C39.427,103.044 39.753,102.748 40.061,102.5C40.369,102.252 40.639,102.024 40.871,101.816C41.103,101.608 41.285,101.402 41.417,101.198C41.549,100.994 41.615,100.76 41.615,100.496C41.615,100.376 41.593,100.252 41.549,100.124C41.505,99.996 41.431,99.878 41.327,99.77C41.223,99.662 41.091,99.572 40.931,99.5C40.771,99.428 40.571,99.392 40.331,99.392C40.115,99.392 39.923,99.422 39.755,99.482C39.587,99.542 39.439,99.616 39.311,99.704C39.183,99.792 39.075,99.892 38.987,100.004C38.899,100.116 38.819,100.22 38.747,100.316L37.943,99.74C38.023,99.596 38.133,99.446 38.273,99.29C38.413,99.134 38.581,98.99 38.777,98.858C38.973,98.726 39.205,98.618 39.473,98.534C39.741,98.45 40.051,98.408 40.403,98.408C40.811,98.408 41.165,98.464 41.465,98.576C41.765,98.688 42.011,98.838 42.203,99.026C42.395,99.214 42.539,99.428 42.635,99.668C42.731,99.908 42.779,100.16 42.779,100.424C42.779,100.704 42.731,100.966 42.635,101.21C42.539,101.454 42.411,101.68 42.251,101.888C42.091,102.096 41.909,102.294 41.705,102.482C41.501,102.67 41.291,102.848 41.075,103.016C40.819,103.216 40.581,103.408 40.361,103.592C40.141,103.776 39.949,103.956 39.785,104.132C39.621,104.308 39.493,104.484 39.401,104.66C39.309,104.836 39.263,105.016 39.263,105.2L42.863,105.2L42.863,106.184L38.063,106.184L38.063,105.404Z" style="fill-rule:nonzero;"/>
            <path d="M38.291,145.548C38.491,145.708 38.727,145.858 38.999,145.998C39.271,146.138 39.615,146.208 40.031,146.208C40.535,146.208 40.935,146.072 41.231,145.8C41.527,145.528 41.675,145.164 41.675,144.708C41.675,144.3 41.549,143.964 41.297,143.7C41.045,143.436 40.675,143.304 40.187,143.304C40.043,143.304 39.911,143.316 39.791,143.34C39.671,143.364 39.555,143.396 39.443,143.436L39.095,142.872L41.219,140.4L38.195,140.4L38.195,139.404L42.539,139.404L42.539,140.268L40.595,142.536C40.931,142.536 41.235,142.588 41.507,142.692C41.779,142.796 42.013,142.944 42.209,143.136C42.405,143.328 42.555,143.558 42.659,143.826C42.763,144.094 42.815,144.392 42.815,144.72C42.815,145.12 42.743,145.472 42.599,145.776C42.455,146.08 42.257,146.334 42.005,146.538C41.753,146.742 41.457,146.898 41.117,147.006C40.777,147.114 40.411,147.168 40.019,147.168C39.731,147.168 39.467,147.144 39.227,147.096C38.987,147.048 38.771,146.984 38.579,146.904C38.387,146.824 38.215,146.734 38.063,146.634C37.911,146.534 37.775,146.432 37.655,146.328L38.291,145.548Z" style="fill-rule:nonzero;"/>
            <path d="M37.835,184.508L41.267,179.432L42.359,179.432L42.359,184.496L43.175,184.496L43.175,185.432L42.359,185.432L42.359,187.004L41.315,187.004L41.315,185.432L37.835,185.432L37.835,184.508ZM41.315,184.496L41.315,180.884L38.903,184.496L41.315,184.496Z" style="fill-rule:nonzero;"/>
            <path d="M38.315,224.768C38.539,224.952 38.785,225.106 39.053,225.23C39.321,225.354 39.655,225.416 40.055,225.416C40.335,225.416 40.579,225.374 40.787,225.29C40.995,225.206 41.169,225.092 41.309,224.948C41.449,224.804 41.553,224.636 41.621,224.444C41.689,224.252 41.723,224.044 41.723,223.82C41.723,223.668 41.699,223.504 41.651,223.328C41.603,223.152 41.519,222.99 41.399,222.842C41.279,222.694 41.115,222.572 40.907,222.476C40.699,222.38 40.435,222.332 40.115,222.332C39.787,222.332 39.527,222.364 39.335,222.428C39.143,222.492 38.967,222.564 38.807,222.644L38.255,222.224L38.975,218.624L42.683,218.624L42.683,219.632L39.731,219.632L39.383,221.612C39.463,221.564 39.591,221.518 39.767,221.474C39.943,221.43 40.155,221.408 40.403,221.408C40.763,221.408 41.093,221.46 41.393,221.564C41.693,221.668 41.951,221.822 42.167,222.026C42.383,222.23 42.551,222.478 42.671,222.77C42.791,223.062 42.851,223.4 42.851,223.784C42.851,224.136 42.795,224.468 42.683,224.78C42.571,225.092 42.399,225.368 42.167,225.608C41.935,225.848 41.639,226.038 41.279,226.178C40.919,226.318 40.491,226.388 39.995,226.388C39.467,226.388 39.017,226.308 38.645,226.148C38.273,225.988 37.959,225.792 37.703,225.56L38.315,224.768Z" style="fill-rule:nonzero;"/>
            <path d="M42.491,259.816C42.467,259.8 42.421,259.772 42.353,259.732C42.285,259.692 42.195,259.65 42.083,259.606C41.971,259.562 41.841,259.522 41.693,259.486C41.545,259.45 41.383,259.432 41.207,259.432C40.871,259.432 40.575,259.504 40.319,259.648C40.063,259.792 39.847,259.984 39.671,260.224C39.495,260.464 39.359,260.738 39.263,261.046C39.167,261.354 39.115,261.672 39.107,262C39.283,261.88 39.511,261.75 39.791,261.61C40.071,261.47 40.427,261.4 40.859,261.4C41.587,261.4 42.157,261.616 42.569,262.048C42.981,262.48 43.187,263.092 43.187,263.884C43.187,264.26 43.125,264.604 43.001,264.916C42.877,265.228 42.705,265.496 42.485,265.72C42.265,265.944 42.003,266.118 41.699,266.242C41.395,266.366 41.063,266.428 40.703,266.428C39.855,266.428 39.193,266.128 38.717,265.528C38.241,264.928 38.003,264.02 38.003,262.804C38.003,262.132 38.073,261.528 38.213,260.992C38.353,260.456 38.561,260 38.837,259.624C39.113,259.248 39.451,258.96 39.851,258.76C40.251,258.56 40.715,258.46 41.243,258.46C41.651,258.46 42.005,258.52 42.305,258.64C42.605,258.76 42.831,258.868 42.983,258.964L42.491,259.816ZM39.095,262.948C39.095,263.74 39.219,264.358 39.467,264.802C39.715,265.246 40.123,265.468 40.691,265.468C40.883,265.468 41.067,265.432 41.243,265.36C41.419,265.288 41.575,265.184 41.711,265.048C41.847,264.912 41.955,264.744 42.035,264.544C42.115,264.344 42.155,264.116 42.155,263.86C42.155,263.428 42.045,263.07 41.825,262.786C41.605,262.502 41.247,262.36 40.751,262.36C40.367,262.36 40.041,262.418 39.773,262.534C39.505,262.65 39.279,262.788 39.095,262.948Z" style="fill-rule:nonzero;"/>
            <path d="M38.927,307.004C39.111,306.436 39.331,305.83 39.587,305.186C39.843,304.542 40.105,303.916 40.373,303.308C40.641,302.7 40.901,302.144 41.153,301.64C41.405,301.136 41.619,300.74 41.795,300.452L38.075,300.452L38.075,299.432L42.911,299.432L42.911,300.416C42.791,300.6 42.653,300.848 42.497,301.16C42.341,301.472 42.173,301.818 41.993,302.198C41.813,302.578 41.629,302.984 41.441,303.416C41.253,303.848 41.075,304.276 40.907,304.7C40.739,305.124 40.583,305.536 40.439,305.936C40.295,306.336 40.179,306.692 40.091,307.004L38.927,307.004Z" style="fill-rule:nonzero;"/>
            <path d="M40.523,342.496C40.907,342.376 41.215,342.2 41.447,341.968C41.679,341.736 41.795,341.464 41.795,341.152C41.795,340.856 41.679,340.61 41.447,340.414C41.215,340.218 40.907,340.12 40.523,340.12C40.139,340.12 39.831,340.218 39.599,340.414C39.367,340.61 39.251,340.876 39.251,341.212C39.251,341.484 39.361,341.736 39.581,341.968C39.801,342.2 40.115,342.376 40.523,342.496ZM40.475,343.42C40.259,343.476 40.055,343.554 39.863,343.654C39.671,343.754 39.503,343.87 39.359,344.002C39.215,344.134 39.101,344.282 39.017,344.446C38.933,344.61 38.891,344.788 38.891,344.98C38.891,345.22 38.941,345.426 39.041,345.598C39.141,345.77 39.269,345.91 39.425,346.018C39.581,346.126 39.755,346.204 39.947,346.252C40.139,346.3 40.331,346.324 40.523,346.324C40.715,346.324 40.907,346.3 41.099,346.252C41.291,346.204 41.465,346.126 41.621,346.018C41.777,345.91 41.903,345.77 41.999,345.598C42.095,345.426 42.143,345.22 42.143,344.98C42.143,344.788 42.097,344.61 42.005,344.446C41.913,344.282 41.789,344.134 41.633,344.002C41.477,343.87 41.299,343.754 41.099,343.654C40.899,343.554 40.691,343.476 40.475,343.42ZM39.359,342.916C39.039,342.748 38.767,342.524 38.543,342.244C38.319,341.964 38.207,341.62 38.207,341.212C38.207,340.932 38.261,340.672 38.369,340.432C38.477,340.192 38.631,339.986 38.831,339.814C39.031,339.642 39.273,339.508 39.557,339.412C39.841,339.316 40.163,339.268 40.523,339.268C40.899,339.268 41.231,339.316 41.519,339.412C41.807,339.508 42.047,339.64 42.239,339.808C42.431,339.976 42.577,340.174 42.677,340.402C42.777,340.63 42.827,340.876 42.827,341.14C42.827,341.516 42.723,341.856 42.515,342.16C42.307,342.464 42.011,342.704 41.627,342.88C41.771,342.944 41.937,343.032 42.125,343.144C42.313,343.256 42.491,343.4 42.659,343.576C42.827,343.752 42.969,343.958 43.085,344.194C43.201,344.43 43.259,344.7 43.259,345.004C43.259,345.26 43.209,345.52 43.109,345.784C43.009,346.048 42.849,346.288 42.629,346.504C42.409,346.72 42.125,346.896 41.777,347.032C41.429,347.168 41.011,347.236 40.523,347.236C40.019,347.236 39.593,347.168 39.245,347.032C38.897,346.896 38.615,346.72 38.399,346.504C38.183,346.288 38.025,346.05 37.925,345.79C37.825,345.53 37.775,345.272 37.775,345.016C37.775,344.752 37.819,344.512 37.907,344.296C37.995,344.08 38.113,343.884 38.261,343.708C38.409,343.532 38.579,343.378 38.771,343.246C38.963,343.114 39.159,343.004 39.359,342.916Z" style="fill-rule:nonzero;"/>
        </g>
    </g>
</svg>
