<svg id="svg8" xmlns="http://www.w3.org/2000/svg" width="89.99999" height="380.00004" viewBox="0 0 89.99999 380.00004">
  <title>Crackle</title>
  <g id="layer1">
    <path id="rect817" d="M0,0H90V380H0Z" transform="translate(0 0.00002)" style="fill: #f0f0f0"/>
  </g>
  <g>
    <path d="M25.78415,361.57842H24.17823v-5.3311H18.10212v5.3311H16.49619V350.15468h1.60593v4.71854h6.07611v-4.71854h1.60593Z" transform="translate(0 0.00002)" style="fill: #231f20"/>
    <path d="M33.99163,361.57842H27.17051V350.15468h6.68867v1.34109H28.77644v3.41053h4.8013v1.341h-4.8013v3.97347h5.21519Z" transform="translate(0 0.00002)" style="fill: #231f20"/>
    <path d="M42.86514,351.49577H39.65329v10.08265h-1.606V351.49577H34.81891v-1.34109h8.04624Z" transform="translate(0 0.00002)" style="fill: #231f20"/>
    <path d="M51.62163,361.57842H49.68452l-2.98-4.91715H45.47936v4.91715h-1.606V350.15468h3.22846a4.37325,4.37325,0,0,1,2.74834.79469A3.185,3.185,0,0,1,48.36,356.49568Zm-3.04632-9.70191a3.04673,3.04673,0,0,0-1.92045-.41389h-1.1755v3.87416h1.1755a3.15908,3.15908,0,0,0,1.92045-.39735,1.72712,1.72712,0,0,0,.72853-1.5397A1.69838,1.69838,0,0,0,48.57531,351.87651Z" transform="translate(0 0.00002)" style="fill: #231f20"/>
    <path d="M54.41922,361.57842H52.81317V350.15468h1.60605Z" transform="translate(0 0.00002)" style="fill: #231f20"/>
    <path d="M65.54207,360.08834A5.35543,5.35543,0,0,1,61.37,361.77709a5.89517,5.89517,0,1,1,4.05617-10.28133l-.67878,1.29135a4.52732,4.52732,0,0,0-3.31122-1.39071,4.45825,4.45825,0,0,0,0,8.90722,4.52188,4.52188,0,0,0,3.41059-1.39071Z" transform="translate(0 0.00002)" style="fill: #ed3224"/>
    <path d="M75.45235,361.57842H73.4987L69.70743,355.85l-1.1755,1.192v4.5364H66.92588V350.15468h1.60605v4.86753l4.65225-4.86753h1.95353l-4.35415,4.50326Z" transform="translate(0 0.00002)" style="fill: #ed3224"/>
    <path d="M75.45235,361.57842H73.4987L69.70743,355.85l-1.1755,1.192v4.5364H66.92588V357.019l1.60605.023,1.1755-1.192,1.07613-1.192.61637.91363.49748.7374Z" transform="translate(0 0.00002)"/>
  </g>
  <g>
    <path d="M20.23584,27.21582a5.825,5.825,0,0,1-4.5376,1.83643,6.12088,6.12088,0,0,1-6.356-6.40967,6.15079,6.15079,0,0,1,6.356-6.40967,6.156,6.156,0,0,1,4.41162,1.63818l-.73828,1.4043a4.92533,4.92533,0,0,0-3.60107-1.51221,4.52144,4.52144,0,0,0-4.62744,4.84326,4.53144,4.53144,0,0,0,4.62744,4.84375,4.91744,4.91744,0,0,0,3.709-1.5127Z" transform="translate(0 0.00002)"/>
    <path d="M30.44092,28.83643H28.33447l-3.24121-5.34766H23.76074v5.34766H22.01465V16.4126h3.51074a4.755,4.755,0,0,1,2.98877.86426,3.27359,3.27359,0,0,1,1.20654,2.62891A3.30426,3.30426,0,0,1,26.894,23.30859Zm-3.313-10.55127a3.31434,3.31434,0,0,0-2.08887-.4502H23.76074v4.21338h1.27832a3.43712,3.43712,0,0,0,2.08887-.43213,1.87825,1.87825,0,0,0,.792-1.67432A1.84711,1.84711,0,0,0,27.12793,18.28516Z" transform="translate(0 0.00002)"/>
    <path d="M42.05127,28.83643H40.10645l-1.27832-3.24121H33.49854l-1.27832,3.24121H30.38379l5.05957-12.46h1.53027Zm-3.709-4.69922-2.17871-5.582-2.17871,5.582Z" transform="translate(0 0.00002)"/>
    <path d="M53.26465,27.21582a5.823,5.823,0,0,1-4.53711,1.83643,6.12088,6.12088,0,0,1-6.356-6.40967,6.46525,6.46525,0,0,1,10.76709-4.77148l-.73828,1.4043a4.92214,4.92214,0,0,0-3.60059-1.51221,4.5217,4.5217,0,0,0-4.62744,4.84326A4.53144,4.53144,0,0,0,48.7998,27.4502a4.91744,4.91744,0,0,0,3.709-1.5127Z" transform="translate(0 0.00002)"/>
    <path d="M64.31738,28.83643h-2.125l-4.123-6.23L56.791,23.90283v4.93359H55.04395V16.4126H56.791v5.29395l5.05957-5.29395h2.124l-4.73535,4.89746Z" transform="translate(0 0.00002)"/>
    <path d="M71.58789,28.83643H65.46582V16.4126h1.74707V27.3418h4.375Z" transform="translate(0 0.00002)"/>
    <path d="M80.55273,28.83643H73.13379V16.4126H80.4082v1.4585H74.88086v3.709h5.22168v1.4585H74.88086v4.32129h5.67188Z" transform="translate(0 0.00002)"/>
  </g>
  <g>
    <path d="M36.56006,136.91992a3.87957,3.87957,0,0,1-3.02246,1.22363,4.27064,4.27064,0,1,1,2.93848-7.44824l-.4917.93555a3.279,3.279,0,0,0-2.39844-1.00732,3.22967,3.22967,0,0,0,0,6.45264,3.274,3.274,0,0,0,2.47021-1.00781Z" transform="translate(0 0.00002)"/>
    <path d="M42.645,137.99951H41.49365v-3.22607c0-.81592-.13184-1.63135-1.17529-1.63135s-1.4873.89941-1.4873,2.03906v2.81836H37.69189v-8.27539h1.13916v3.478H38.855a1.94533,1.94533,0,0,1,1.75146-1.00732c1.64307,0,2.03857,1.05518,2.03857,2.41064Z" transform="translate(0 0.00002)"/>
    <path d="M48.63281,137.99951H47.51758l-.01172-.71973a2.35166,2.35166,0,0,1-1.811.85156,1.80969,1.80969,0,0,1-1.9668-1.76318c0-1.11523.91113-1.67871,2.23047-1.73877l1.52393-.06006v-.228a1.2504,1.2504,0,0,0-1.416-1.29492,3.495,3.495,0,0,0-1.71484.4917l-.34766-.76758a4.38091,4.38091,0,0,1,2.13477-.57568,2.46939,2.46939,0,0,1,1.88281.64746,2.35972,2.35972,0,0,1,.61133,1.84717Zm-1.13867-2.73437-1.332.084c-.92334.04785-1.29492.44385-1.29492.9834s.41992.9834,1.17578.9834a1.79107,1.79107,0,0,0,1.45117-.82764Z" transform="translate(0 0.00002)"/>
    <path d="M52.75,138.13135a2.96855,2.96855,0,1,1,3.00977-2.9624A2.88734,2.88734,0,0,1,52.75,138.13135Zm0-5.001a2.01581,2.01581,0,1,0,1.84766,2.00293A1.85312,1.85312,0,0,0,52.75,133.13037Z" transform="translate(0 0.00002)"/>
    <path d="M60.21484,137.62793a2.433,2.433,0,0,1-1.584.50342,2.72891,2.72891,0,0,1-2.21875-1.01953l.55273-.67139a2.33531,2.33531,0,0,0,1.67773.81543c.52734,0,1.0918-.19189,1.0918-.81543s-.90039-.81543-1.2832-.94775a4.20534,4.20534,0,0,1-.7793-.2998,1.46927,1.46927,0,0,1-.90039-1.36719,1.72462,1.72462,0,0,1,1.91992-1.63086,2.49567,2.49567,0,0,1,1.94336.74365l-.48047.70752a2.08667,2.08667,0,0,0-1.43945-.61182c-.55078,0-.91211.23975-.91211.70752s.55273.67188,1.11523.85156c.3125.10791.5293.18018.76758.27588a2.17756,2.17756,0,0,1,.66016.40771,1.40615,1.40615,0,0,1,.457,1.05566A1.62394,1.62394,0,0,1,60.21484,137.62793Z" transform="translate(0 0.00002)"/>
  </g>
  <g>
    <path d="M38.91553,322.47754a4.27,4.27,0,1,1,4.26953-4.26953A4.1111,4.1111,0,0,1,38.91553,322.47754Zm0-7.53223a3.24222,3.24222,0,1,0,3.08252,3.23828A3.02752,3.02752,0,0,0,38.91553,314.94531Z" transform="translate(0 0.00002)"/>
    <path d="M49.27148,322.333H48.15625l-.01172-.81543a1.98858,1.98858,0,0,1-1.76367.94727,1.84507,1.84507,0,0,1-1.583-.65918,2.891,2.891,0,0,1-.41992-1.7627V316.624h1.13916v3.37012c0,.78027.168,1.51172,1.188,1.51172,1.00684,0,1.41406-.86328,1.41406-1.82324V316.624h1.15234Z" transform="translate(0 0.00002)"/>
    <path d="M53.62891,322.27344a2.90678,2.90678,0,0,1-1.04492.19141,1.33782,1.33782,0,0,1-1.21094-.58691,2.97362,2.97362,0,0,1-.28711-1.70312v-2.60254h-.83984v-.92383h.83984v-1.70312h1.15039v1.70313h1.36719v.92383H52.23633v2.57813a2.2302,2.2302,0,0,0,.14453,1.04395.59593.59593,0,0,0,.58789.28711,1.39119,1.39119,0,0,0,.58789-.13184Z" transform="translate(0 0.00002)"/>
  </g>
  <g>
    <path d="M35.16211,212.58691a3.87791,3.87791,0,0,1-3.02246,1.22363,4.27041,4.27041,0,1,1,2.93848-7.44824l-.4917.93555A3.28084,3.28084,0,0,0,32.188,206.291a3.22942,3.22942,0,0,0,0,6.45215,3.27589,3.27589,0,0,0,2.4707-1.00781Z" transform="translate(0 0.00002)"/>
    <path d="M37.43311,213.667H36.29395V205.3916h1.13916Z" transform="translate(0 0.00002)"/>
    <path d="M43.50342,213.667H42.3877l-.01172-.71973a2.35229,2.35229,0,0,1-1.811.85156,1.81006,1.81006,0,0,1-1.9668-1.76367c0-1.11523.91113-1.67871,2.23047-1.73828l1.52344-.06055v-.22754a1.25023,1.25023,0,0,0-1.41553-1.29492,3.4962,3.4962,0,0,0-1.71484.49121l-.34766-.76758a4.38147,4.38147,0,0,1,2.13477-.5752,2.46939,2.46939,0,0,1,1.88281.64746,2.35777,2.35777,0,0,1,.61182,1.84668Zm-1.13965-2.73437-1.33105.084c-.92383.04785-1.29541.44336-1.29541.9834,0,.53906.41992.9834,1.17529.9834a1.78784,1.78784,0,0,0,1.45117-.82812Z" transform="translate(0 0.00002)"/>
    <path d="M48.23242,213.29492a2.4305,2.4305,0,0,1-1.584.50391,2.72755,2.72755,0,0,1-2.21875-1.01953l.55176-.67187a2.33546,2.33546,0,0,0,1.67871.81543c.52832,0,1.0918-.19141,1.0918-.81543,0-.623-.89941-.81543-1.2832-.94727a4.289,4.289,0,0,1-.77979-.2998,1.46848,1.46848,0,0,1-.89941-1.36719A1.72389,1.72389,0,0,1,46.709,207.8623a2.49321,2.49321,0,0,1,1.94238.74316l-.47949.708a2.08682,2.08682,0,0,0-1.43945-.6123c-.55176,0-.91162.24023-.91162.708s.55225.67188,1.11572.85156c.31152.10742.52832.17969.76758.27539a2.19564,2.19564,0,0,1,.65918.4082A1.40579,1.40579,0,0,1,48.81934,212,1.6215,1.6215,0,0,1,48.23242,213.29492Z" transform="translate(0 0.00002)"/>
    <path d="M53.08008,213.29492a2.4305,2.4305,0,0,1-1.584.50391,2.72891,2.72891,0,0,1-2.21875-1.01953l.55273-.67187a2.33347,2.33347,0,0,0,1.67773.81543c.5293,0,1.0918-.19141,1.0918-.81543,0-.623-.89844-.81543-1.2832-.94727a4.29671,4.29671,0,0,1-.7793-.2998,1.4692,1.4692,0,0,1-.89941-1.36719,1.72346,1.72346,0,0,1,1.91895-1.63086,2.49245,2.49245,0,0,1,1.94336.74316l-.48047.708a2.085,2.085,0,0,0-1.43945-.6123c-.55078,0-.91016.24023-.91016.708s.55078.67188,1.11523.85156c.31055.10742.52734.17969.76758.27539a2.203,2.203,0,0,1,.6582.4082A1.40615,1.40615,0,0,1,53.668,212,1.62225,1.62225,0,0,1,53.08008,213.29492Z" transform="translate(0 0.00002)"/>
    <path d="M55.42188,206.80664a.70842.70842,0,1,1,.74414-.708A.70715.70715,0,0,1,55.42188,206.80664ZM55.998,213.667H54.8457v-5.69727H55.998Z" transform="translate(0 0.00002)"/>
    <path d="M62.40234,212.93555a3.03325,3.03325,0,0,1-5.15625-2.11133,2.87383,2.87383,0,0,1,2.91406-2.96191,2.77259,2.77259,0,0,1,2.207.81543l-.4082.83887a2.24751,2.24751,0,0,0-1.70312-.69531,2.00262,2.00262,0,0,0,.01172,3.99414,2.36723,2.36723,0,0,0,1.72656-.71973Z" transform="translate(0 0.00002)"/>
    <path d="M32.62549,256.32715a3.19919,3.19919,0,0,1-2.08691.54H27.85205V248.5918h2.23047a3.574,3.574,0,0,1,1.96729.39551A1.84148,1.84148,0,0,1,32.937,250.666a1.88563,1.88563,0,0,1-1.25928,1.81152v.02344a2.02362,2.02362,0,0,1,1.835,2.01563A2.1578,2.1578,0,0,1,32.62549,256.32715Zm-1.40332-6.584a2.12984,2.12984,0,0,0-1.13965-.22852H29.01514v2.627h.97168a2.04349,2.04349,0,0,0,1.23535-.252,1.23429,1.23429,0,0,0,.55176-1.0918A1.10182,1.10182,0,0,0,31.22217,249.74316Zm.4917,3.58594a2.53449,2.53449,0,0,0-1.45117-.2998H29.01514v2.89063H30.2627a2.53841,2.53841,0,0,0,1.45117-.28809,1.28521,1.28521,0,0,0,.59961-1.16406A1.24382,1.24382,0,0,0,31.71387,253.3291Z" transform="translate(0 0.00002)"/>
    <path d="M37.88232,252.22559h-.04785a1.51263,1.51263,0,0,0-.624-.12012,1.19615,1.19615,0,0,0-.93555.47949,2.52691,2.52691,0,0,0-.34766,1.43945v2.84277H34.77588v-5.69727h1.15137l-.01172.876h.03564a1.486,1.486,0,0,1,1.40332-.9834,1.6041,1.6041,0,0,1,.59961.0957Z" transform="translate(0 0.00002)"/>
    <path d="M41.25439,256.999a2.96855,2.96855,0,1,1,3.01025-2.96289A2.88853,2.88853,0,0,1,41.25439,256.999Zm0-5.001a2.0159,2.0159,0,1,0,1.84668,2.00293A1.853,1.853,0,0,0,41.25439,251.998Z" transform="translate(0 0.00002)"/>
    <path d="M50.625,256.86719H49.28125l-1.95508-2.75879-.65918.624v2.13477H45.52783V248.5918H46.667v4.85742l2.32715-2.2793h1.34375l-2.23145,2.14648Z" transform="translate(0 0.00002)"/>
    <path d="M56.18164,254.28809H51.791a1.757,1.757,0,0,0,1.83594,1.81152,3.15594,3.15594,0,0,0,1.88281-.66016l.47852.66016a3.34114,3.34114,0,0,1-2.50586.89941,2.76177,2.76177,0,0,1-2.85352-2.98633,2.825,2.825,0,0,1,2.88867-2.9502,2.60049,2.60049,0,0,1,2.69922,2.72168C56.2168,254.001,56.18164,254.28809,56.18164,254.28809Zm-1.05664-.76758a1.646,1.646,0,0,0-1.64258-1.63086,1.67782,1.67782,0,0,0-1.67969,1.63086Z" transform="translate(0 0.00002)"/>
    <path d="M62.3125,256.86719H61.16211v-3.17871c0-.959-.168-1.67871-1.1875-1.67871-1.06836,0-1.46289.89941-1.46289,1.99121v2.86621H57.35938v-5.69727h1.15234l-.01367.89941h.03711a1.92124,1.92124,0,0,1,1.73828-1.00684c1.61914,0,2.03906,1.06738,2.03906,2.43457Z" transform="translate(0 0.00002)"/>
  </g>
  <rect x="24.42913" y="281.00002" width="41.14172" height="45.33333" rx="8" ry="8"/>
  <g>
    <path d="M38.91553,322.47754a4.27,4.27,0,1,1,4.26953-4.26953A4.1111,4.1111,0,0,1,38.91553,322.47754Zm0-7.53223a3.24222,3.24222,0,1,0,3.08252,3.23828A3.02752,3.02752,0,0,0,38.91553,314.94531Z" transform="translate(0 0.00002)" style="fill: #fff"/>
    <path d="M49.27051,322.333H48.15527l-.01172-.81543a1.98573,1.98573,0,0,1-1.7627.94727,1.84507,1.84507,0,0,1-1.583-.65918,2.891,2.891,0,0,1-.41992-1.7627V316.624h1.13916v3.37012c0,.78027.168,1.51172,1.187,1.51172,1.00781,0,1.415-.86328,1.415-1.82324V316.624h1.15137Z" transform="translate(0 0.00002)" style="fill: #fff"/>
    <path d="M53.62793,322.27344a2.898,2.898,0,0,1-1.04395.19141,1.33669,1.33669,0,0,1-1.21094-.58691,2.97191,2.97191,0,0,1-.28809-1.70312v-2.60254h-.83984v-.92383H51.085v-1.70312h1.15137v1.70313h1.36719v.92383H52.23633v2.57813a2.245,2.245,0,0,0,.14355,1.04395.59688.59688,0,0,0,.58789.28711,1.39119,1.39119,0,0,0,.58789-.13184Z" transform="translate(0 0.00002)" style="fill: #fff"/>
  </g>
  <circle cx="45" cy="58.00002" r="19.5"/>
  <g>
    <circle cx="45" cy="58.00002" r="16.75688" style="fill: none;stroke: #fff;stroke-miterlimit: 10"/>
    <circle cx="45" cy="58.00002" r="15.3159" style="fill: none;stroke: #fff;stroke-miterlimit: 10;stroke-width: 0.9140069800853593px"/>
    <circle cx="45" cy="58.00002" r="13.87493" style="fill: none;stroke: #fff;stroke-miterlimit: 10;stroke-width: 0.8280139609944732px"/>
    <circle cx="45" cy="58.00002" r="12.43396" style="fill: none;stroke: #fff;stroke-miterlimit: 10;stroke-width: 0.7420209419035869px"/>
    <circle cx="45" cy="58.00002" r="10.99298" style="fill: none;stroke: #fff;stroke-miterlimit: 10;stroke-width: 0.6560279228127007px"/>
    <circle cx="45" cy="58.00002" r="9.55201" style="fill: none;stroke: #fff;stroke-miterlimit: 10;stroke-width: 0.5700349037218146px"/>
    <circle cx="45" cy="58.00002" r="8.11103" style="fill: none;stroke: #fff;stroke-miterlimit: 10;stroke-width: 0.48404188463092845px"/>
    <circle cx="45" cy="58.00002" r="6.67006" style="fill: none;stroke: #fff;stroke-miterlimit: 10;stroke-width: 0.3980488655400424px"/>
    <circle cx="45" cy="58.00002" r="5.22908" style="fill: none;stroke: #fff;stroke-miterlimit: 10;stroke-width: 0.31205584644915624px"/>
    <circle cx="45" cy="58.00002" r="3.78811" style="fill: none;stroke: #fff;stroke-miterlimit: 10;stroke-width: 0.2260628265345156px"/>
  </g>
</svg>
