<?xml version="1.0" encoding="UTF-8" standalone="no"?>
<!DOCTYPE svg PUBLIC "-//W3C//DTD SVG 1.1//EN" "http://www.w3.org/Graphics/SVG/1.1/DTD/svg11.dtd">
<svg width="100%" height="100%" viewBox="0 0 90 380" version="1.1" xmlns="http://www.w3.org/2000/svg" xmlns:xlink="http://www.w3.org/1999/xlink" xml:space="preserve" xmlns:serif="http://www.serif.com/" style="fill-rule:evenodd;clip-rule:evenodd;stroke-linecap:round;stroke-linejoin:round;stroke-miterlimit:1.5;">
    <g id="svg8">
        <rect x="0" y="0" width="90" height="380" style="fill:rgb(240,240,240);"/>
        <g id="HetrickCV">
            <g transform="matrix(1,0,0,1,25.7842,350.154)">
                <path d="M0,11.424L-1.606,11.424L-1.606,6.093L-7.682,6.093L-7.682,11.424L-9.288,11.424L-9.288,0L-7.682,0L-7.682,4.719L-1.606,4.719L-1.606,0L0,0L0,11.424Z" style="fill:rgb(35,31,32);fill-rule:nonzero;"/>
            </g>
            <g transform="matrix(1,0,0,1,33.9917,350.154)">
                <path d="M0,11.424L-6.821,11.424L-6.821,0L-0.132,0L-0.132,1.342L-5.215,1.342L-5.215,4.752L-0.414,4.752L-0.414,6.093L-5.215,6.093L-5.215,10.067L0,10.067L0,11.424Z" style="fill:rgb(35,31,32);fill-rule:nonzero;"/>
            </g>
            <g transform="matrix(1,0,0,1,42.8652,360.236)">
                <path d="M0,-8.74L-3.212,-8.74L-3.212,1.342L-4.818,1.342L-4.818,-8.74L-8.046,-8.74L-8.046,-10.082L0,-10.082L0,-8.74Z" style="fill:rgb(35,31,32);fill-rule:nonzero;"/>
            </g>
            <g transform="matrix(1,0,0,1,48.5752,359.855)">
                <path d="M0,-7.978C-0.513,-8.359 -1.126,-8.392 -1.92,-8.392L-3.096,-8.392L-3.096,-4.518L-1.92,-4.518C-1.126,-4.518 -0.513,-4.551 0,-4.915C0.514,-5.296 0.729,-5.76 0.729,-6.456C0.729,-7.134 0.514,-7.614 0,-7.978M3.047,1.723L1.109,1.723L-1.871,-3.194L-3.096,-3.194L-3.096,1.723L-4.702,1.723L-4.702,-9.701L-1.474,-9.701C-0.331,-9.701 0.596,-9.435 1.275,-8.906C1.954,-8.359 2.384,-7.532 2.384,-6.489C2.384,-4.485 0.993,-3.591 -0.215,-3.359L3.047,1.723Z" style="fill:rgb(35,31,32);fill-rule:nonzero;"/>
            </g>
            <g transform="matrix(-1,0,0,1,107.233,331.732)">
                <rect x="52.814" y="18.422" width="1.605" height="11.424" style="fill:rgb(35,31,32);"/>
            </g>
            <g transform="matrix(1,0,0,1,65.542,351.678)">
                <path d="M0,8.41C-0.712,9.205 -2.003,10.099 -4.172,10.099C-7.5,10.099 -10.017,7.764 -10.017,4.205C-10.017,0.645 -7.45,-1.689 -4.172,-1.689C-2.036,-1.689 -0.745,-0.795 -0.116,-0.182L-0.795,1.109C-1.241,0.547 -2.517,-0.281 -4.105,-0.281C-6.572,-0.281 -8.36,1.49 -8.36,4.172C-8.36,6.854 -6.556,8.626 -4.105,8.626C-2.6,8.626 -1.44,8.047 -0.695,7.235L0,8.41Z" style="fill:rgb(237,50,36);fill-rule:nonzero;"/>
            </g>
            <g transform="matrix(1,0,0,1,75.4521,350.154)">
                <path d="M0,11.424L-1.953,11.424L-5.745,5.695L-6.92,6.888L-6.92,11.424L-8.526,11.424L-8.526,0L-6.92,0L-6.92,4.868L-2.268,0L-0.314,0L-4.669,4.504L0,11.424Z" style="fill:rgb(237,50,36);fill-rule:nonzero;"/>
            </g>
            <g transform="matrix(1,0,0,1,75.4521,354.658)">
                <path d="M0,6.92L-1.953,6.92L-5.745,1.191L-6.92,2.384L-6.92,6.92L-8.526,6.92L-8.526,2.361L-6.92,2.384L-5.745,1.191L-4.669,0L-4.052,0.913L-3.555,1.65L0,6.92Z" style="fill-rule:nonzero;"/>
            </g>
        </g>
        <g transform="matrix(2.18755,0,0,1,-53.4402,-1.83715)">
            <path d="M65.571,289.09C65.571,284.073 63.709,280 61.416,280L28.585,280C26.291,280 24.429,284.073 24.429,289.09L24.429,316.243C24.429,321.26 26.291,325.333 28.585,325.333L61.416,325.333C63.709,325.333 65.571,321.26 65.571,316.243L65.571,289.09Z"/>
        </g>
        <g transform="matrix(2.18755,0,0,1,-53.4402,-138.17)">
            <path d="M65.571,289.09C65.571,284.073 63.709,280 61.416,280L28.585,280C26.291,280 24.429,284.073 24.429,289.09L24.429,316.243C24.429,321.26 26.291,325.333 28.585,325.333L61.416,325.333C63.709,325.333 65.571,321.26 65.571,316.243L65.571,289.09Z"/>
        </g>
        <g transform="matrix(1,0,0,1,-12.5107,7)">
            <g transform="matrix(18,0,0,18,39.2857,28.8369)">
                <path d="M0.076,-0.667L0.299,-0.667C0.352,-0.667 0.4,-0.661 0.445,-0.648C0.489,-0.634 0.527,-0.614 0.559,-0.587C0.591,-0.559 0.616,-0.524 0.634,-0.482C0.652,-0.44 0.661,-0.39 0.661,-0.332C0.661,-0.276 0.652,-0.227 0.634,-0.186C0.616,-0.144 0.591,-0.109 0.559,-0.082C0.527,-0.054 0.489,-0.033 0.444,-0.02C0.399,-0.007 0.351,-0 0.298,-0L0.076,-0L0.076,-0.667ZM0.296,-0.086C0.379,-0.086 0.444,-0.107 0.491,-0.148C0.537,-0.189 0.56,-0.249 0.56,-0.33C0.56,-0.411 0.538,-0.474 0.493,-0.517C0.448,-0.56 0.382,-0.581 0.293,-0.581L0.172,-0.581L0.172,-0.086L0.296,-0.086Z" style="fill-rule:nonzero;"/>
            </g>
            <g transform="matrix(18,0,0,18,51.7237,28.8369)">
                <path d="M0.352,-0.22C0.349,-0.221 0.344,-0.222 0.337,-0.223C0.329,-0.224 0.32,-0.224 0.31,-0.225C0.3,-0.226 0.289,-0.226 0.278,-0.227C0.267,-0.228 0.256,-0.228 0.245,-0.228C0.22,-0.228 0.199,-0.225 0.184,-0.219C0.168,-0.213 0.156,-0.206 0.147,-0.197C0.137,-0.188 0.131,-0.178 0.128,-0.167C0.125,-0.156 0.123,-0.145 0.123,-0.135C0.123,-0.11 0.132,-0.091 0.149,-0.078C0.166,-0.065 0.19,-0.058 0.221,-0.058C0.238,-0.058 0.255,-0.061 0.271,-0.067C0.286,-0.073 0.3,-0.081 0.312,-0.091C0.324,-0.101 0.334,-0.113 0.341,-0.126C0.348,-0.139 0.352,-0.153 0.352,-0.167L0.352,-0.22ZM0.353,-0.056C0.336,-0.033 0.313,-0.015 0.285,-0.004C0.256,0.007 0.227,0.013 0.197,0.013C0.178,0.013 0.159,0.011 0.14,0.006C0.121,0 0.103,-0.008 0.088,-0.02C0.072,-0.031 0.059,-0.046 0.05,-0.065C0.04,-0.083 0.035,-0.105 0.035,-0.132C0.035,-0.182 0.053,-0.222 0.088,-0.252C0.123,-0.282 0.173,-0.297 0.239,-0.297C0.25,-0.297 0.261,-0.297 0.273,-0.296C0.285,-0.295 0.296,-0.295 0.307,-0.294C0.318,-0.293 0.327,-0.293 0.335,-0.292C0.343,-0.291 0.349,-0.291 0.352,-0.29L0.352,-0.307C0.352,-0.342 0.341,-0.367 0.321,-0.382C0.3,-0.397 0.271,-0.404 0.235,-0.404C0.2,-0.404 0.172,-0.399 0.151,-0.39C0.13,-0.38 0.113,-0.37 0.099,-0.36L0.057,-0.421C0.065,-0.428 0.075,-0.434 0.086,-0.441C0.097,-0.448 0.111,-0.454 0.126,-0.46C0.141,-0.465 0.159,-0.47 0.178,-0.474C0.197,-0.477 0.22,-0.479 0.245,-0.479C0.305,-0.479 0.352,-0.464 0.387,-0.436C0.421,-0.407 0.438,-0.365 0.438,-0.312L0.438,-0.042C0.438,-0.025 0.438,-0.011 0.439,-0L0.355,-0L0.353,-0.056Z" style="fill-rule:nonzero;"/>
            </g>
            <g transform="matrix(18,0,0,18,60.2737,28.8369)">
                <path d="M0.102,-0.39L0.018,-0.39L0.018,-0.465L0.102,-0.465L0.102,-0.617L0.192,-0.617L0.192,-0.465L0.328,-0.465L0.328,-0.39L0.192,-0.39L0.192,-0.161C0.192,-0.124 0.198,-0.098 0.21,-0.084C0.221,-0.07 0.238,-0.063 0.259,-0.063C0.276,-0.063 0.291,-0.066 0.302,-0.071C0.313,-0.076 0.325,-0.084 0.336,-0.095L0.377,-0.04C0.358,-0.021 0.338,-0.008 0.318,0.001C0.297,0.009 0.273,0.013 0.245,0.013C0.196,0.013 0.16,-0 0.137,-0.027C0.114,-0.054 0.102,-0.095 0.102,-0.152L0.102,-0.39Z" style="fill-rule:nonzero;"/>
            </g>
            <g transform="matrix(18,0,0,18,66.7537,28.8369)">
                <path d="M0.352,-0.22C0.349,-0.221 0.344,-0.222 0.337,-0.223C0.329,-0.224 0.32,-0.224 0.31,-0.225C0.3,-0.226 0.289,-0.226 0.278,-0.227C0.267,-0.228 0.256,-0.228 0.245,-0.228C0.22,-0.228 0.199,-0.225 0.184,-0.219C0.168,-0.213 0.156,-0.206 0.147,-0.197C0.137,-0.188 0.131,-0.178 0.128,-0.167C0.125,-0.156 0.123,-0.145 0.123,-0.135C0.123,-0.11 0.132,-0.091 0.149,-0.078C0.166,-0.065 0.19,-0.058 0.221,-0.058C0.238,-0.058 0.255,-0.061 0.271,-0.067C0.286,-0.073 0.3,-0.081 0.312,-0.091C0.324,-0.101 0.334,-0.113 0.341,-0.126C0.348,-0.139 0.352,-0.153 0.352,-0.167L0.352,-0.22ZM0.353,-0.056C0.336,-0.033 0.313,-0.015 0.285,-0.004C0.256,0.007 0.227,0.013 0.197,0.013C0.178,0.013 0.159,0.011 0.14,0.006C0.121,0 0.103,-0.008 0.088,-0.02C0.072,-0.031 0.059,-0.046 0.05,-0.065C0.04,-0.083 0.035,-0.105 0.035,-0.132C0.035,-0.182 0.053,-0.222 0.088,-0.252C0.123,-0.282 0.173,-0.297 0.239,-0.297C0.25,-0.297 0.261,-0.297 0.273,-0.296C0.285,-0.295 0.296,-0.295 0.307,-0.294C0.318,-0.293 0.327,-0.293 0.335,-0.292C0.343,-0.291 0.349,-0.291 0.352,-0.29L0.352,-0.307C0.352,-0.342 0.341,-0.367 0.321,-0.382C0.3,-0.397 0.271,-0.404 0.235,-0.404C0.2,-0.404 0.172,-0.399 0.151,-0.39C0.13,-0.38 0.113,-0.37 0.099,-0.36L0.057,-0.421C0.065,-0.428 0.075,-0.434 0.086,-0.441C0.097,-0.448 0.111,-0.454 0.126,-0.46C0.141,-0.465 0.159,-0.47 0.178,-0.474C0.197,-0.477 0.22,-0.479 0.245,-0.479C0.305,-0.479 0.352,-0.464 0.387,-0.436C0.421,-0.407 0.438,-0.365 0.438,-0.312L0.438,-0.042C0.438,-0.025 0.438,-0.011 0.439,-0L0.355,-0L0.353,-0.056Z" style="fill-rule:nonzero;"/>
            </g>
            <g transform="matrix(18,0,0,18,13.0687,46.8369)">
                <path d="M0.642,-0.117C0.635,-0.105 0.623,-0.091 0.608,-0.076C0.593,-0.061 0.574,-0.046 0.552,-0.033C0.53,-0.019 0.505,-0.007 0.476,0.002C0.447,0.011 0.416,0.016 0.381,0.016C0.332,0.016 0.287,0.007 0.246,-0.01C0.205,-0.027 0.17,-0.052 0.141,-0.083C0.112,-0.114 0.089,-0.15 0.073,-0.193C0.056,-0.235 0.048,-0.281 0.048,-0.331C0.048,-0.38 0.056,-0.425 0.073,-0.468C0.089,-0.511 0.112,-0.548 0.141,-0.58C0.17,-0.612 0.206,-0.637 0.247,-0.656C0.288,-0.674 0.333,-0.683 0.383,-0.683C0.418,-0.683 0.45,-0.679 0.478,-0.67C0.506,-0.661 0.531,-0.651 0.552,-0.638C0.572,-0.624 0.591,-0.61 0.606,-0.595C0.62,-0.58 0.633,-0.565 0.642,-0.551L0.574,-0.493C0.566,-0.504 0.557,-0.516 0.546,-0.529C0.535,-0.541 0.521,-0.552 0.506,-0.562C0.491,-0.572 0.473,-0.58 0.453,-0.587C0.433,-0.594 0.41,-0.597 0.384,-0.597C0.347,-0.597 0.315,-0.59 0.286,-0.576C0.257,-0.562 0.232,-0.543 0.212,-0.519C0.191,-0.495 0.176,-0.467 0.165,-0.435C0.154,-0.403 0.149,-0.369 0.149,-0.333C0.149,-0.297 0.155,-0.263 0.166,-0.232C0.177,-0.2 0.192,-0.172 0.212,-0.149C0.232,-0.126 0.256,-0.107 0.285,-0.094C0.314,-0.081 0.346,-0.074 0.381,-0.074C0.411,-0.074 0.437,-0.078 0.459,-0.086C0.48,-0.093 0.498,-0.102 0.514,-0.113C0.529,-0.124 0.541,-0.134 0.551,-0.146C0.56,-0.157 0.568,-0.166 0.575,-0.173L0.642,-0.117Z" style="fill-rule:nonzero;"/>
            </g>
            <g transform="matrix(18,0,0,18,24.4627,46.8369)">
                <path d="M0.286,0.014C0.25,0.014 0.217,0.008 0.187,-0.006C0.157,-0.019 0.131,-0.036 0.11,-0.059C0.088,-0.082 0.071,-0.108 0.059,-0.138C0.046,-0.167 0.04,-0.199 0.04,-0.233C0.04,-0.267 0.046,-0.299 0.059,-0.329C0.071,-0.358 0.088,-0.384 0.11,-0.407C0.131,-0.43 0.157,-0.448 0.187,-0.461C0.217,-0.474 0.25,-0.48 0.286,-0.48C0.321,-0.48 0.354,-0.474 0.384,-0.461C0.414,-0.448 0.44,-0.43 0.462,-0.407C0.484,-0.384 0.501,-0.358 0.514,-0.329C0.526,-0.299 0.532,-0.267 0.532,-0.233C0.532,-0.199 0.526,-0.167 0.514,-0.138C0.501,-0.108 0.484,-0.082 0.462,-0.059C0.44,-0.036 0.414,-0.019 0.384,-0.006C0.354,0.008 0.321,0.014 0.286,0.014ZM0.286,-0.064C0.31,-0.064 0.332,-0.069 0.351,-0.079C0.37,-0.088 0.387,-0.101 0.4,-0.117C0.413,-0.132 0.424,-0.15 0.431,-0.171C0.438,-0.191 0.441,-0.212 0.441,-0.233C0.441,-0.254 0.438,-0.274 0.431,-0.295C0.424,-0.315 0.413,-0.333 0.4,-0.349C0.386,-0.365 0.37,-0.378 0.351,-0.388C0.332,-0.397 0.31,-0.402 0.286,-0.402C0.262,-0.402 0.24,-0.397 0.221,-0.388C0.202,-0.378 0.185,-0.365 0.172,-0.35C0.159,-0.334 0.149,-0.316 0.142,-0.296C0.135,-0.275 0.131,-0.254 0.131,-0.233C0.131,-0.212 0.135,-0.191 0.142,-0.171C0.149,-0.151 0.159,-0.133 0.173,-0.117C0.186,-0.101 0.203,-0.088 0.222,-0.079C0.241,-0.069 0.262,-0.064 0.286,-0.064Z" style="fill-rule:nonzero;"/>
            </g>
            <g transform="matrix(18,0,0,18,34.3267,46.8369)">
                <path d="M0.062,-0L0.062,-0.418C0.062,-0.432 0.062,-0.448 0.061,-0.465L0.147,-0.465L0.15,-0.395C0.155,-0.403 0.162,-0.412 0.171,-0.422C0.18,-0.431 0.19,-0.44 0.202,-0.448C0.214,-0.456 0.228,-0.463 0.245,-0.468C0.261,-0.473 0.28,-0.476 0.301,-0.476C0.337,-0.476 0.367,-0.469 0.391,-0.455C0.414,-0.44 0.433,-0.419 0.446,-0.392C0.465,-0.414 0.488,-0.434 0.515,-0.451C0.542,-0.468 0.575,-0.476 0.615,-0.476C0.675,-0.476 0.719,-0.458 0.748,-0.423C0.777,-0.387 0.791,-0.339 0.791,-0.279L0.791,-0L0.701,-0L0.701,-0.272C0.701,-0.315 0.693,-0.347 0.676,-0.368C0.659,-0.388 0.634,-0.398 0.601,-0.398C0.582,-0.398 0.565,-0.394 0.55,-0.387C0.534,-0.379 0.52,-0.369 0.509,-0.356C0.497,-0.343 0.488,-0.329 0.482,-0.312C0.475,-0.295 0.472,-0.277 0.472,-0.258L0.472,-0L0.382,-0L0.382,-0.272C0.382,-0.315 0.374,-0.347 0.357,-0.368C0.339,-0.388 0.315,-0.398 0.283,-0.398C0.258,-0.398 0.238,-0.393 0.221,-0.382C0.204,-0.371 0.191,-0.358 0.181,-0.341C0.17,-0.324 0.163,-0.304 0.159,-0.282C0.154,-0.26 0.152,-0.238 0.152,-0.216L0.152,-0L0.062,-0Z" style="fill-rule:nonzero;"/>
            </g>
            <g transform="matrix(18,0,0,18,49.1947,46.8369)">
                <path d="M0.062,0.2L0.062,-0.418C0.062,-0.432 0.062,-0.448 0.061,-0.465L0.147,-0.465L0.15,-0.399C0.155,-0.405 0.161,-0.412 0.17,-0.421C0.179,-0.43 0.19,-0.438 0.203,-0.446C0.216,-0.454 0.231,-0.461 0.248,-0.467C0.265,-0.472 0.285,-0.475 0.308,-0.475C0.344,-0.475 0.375,-0.468 0.402,-0.455C0.428,-0.442 0.45,-0.424 0.467,-0.401C0.484,-0.378 0.497,-0.352 0.506,-0.323C0.514,-0.294 0.518,-0.263 0.518,-0.23C0.518,-0.188 0.511,-0.152 0.497,-0.121C0.482,-0.09 0.464,-0.065 0.441,-0.045C0.418,-0.025 0.392,-0.01 0.364,-0.001C0.335,0.009 0.307,0.014 0.28,0.014C0.249,0.014 0.224,0.011 0.205,0.005C0.186,-0.002 0.168,-0.009 0.151,-0.016L0.151,0.2L0.062,0.2ZM0.151,-0.101C0.162,-0.092 0.177,-0.084 0.197,-0.076C0.217,-0.068 0.242,-0.064 0.272,-0.064C0.295,-0.064 0.316,-0.068 0.335,-0.077C0.354,-0.085 0.37,-0.096 0.384,-0.112C0.397,-0.127 0.408,-0.144 0.415,-0.164C0.422,-0.184 0.426,-0.206 0.426,-0.23C0.426,-0.253 0.424,-0.274 0.419,-0.294C0.413,-0.314 0.406,-0.332 0.395,-0.347C0.384,-0.362 0.369,-0.375 0.352,-0.384C0.335,-0.393 0.313,-0.397 0.288,-0.397C0.256,-0.397 0.229,-0.388 0.206,-0.371C0.183,-0.353 0.167,-0.327 0.158,-0.293C0.155,-0.282 0.153,-0.271 0.152,-0.259C0.151,-0.246 0.151,-0.233 0.151,-0.22L0.151,-0.101Z" style="fill-rule:nonzero;"/>
            </g>
            <g transform="matrix(18,0,0,18,58.8067,46.8369)">
                <path d="M0.352,-0.22C0.349,-0.221 0.344,-0.222 0.337,-0.223C0.329,-0.224 0.32,-0.224 0.31,-0.225C0.3,-0.226 0.289,-0.226 0.278,-0.227C0.267,-0.228 0.256,-0.228 0.245,-0.228C0.22,-0.228 0.199,-0.225 0.184,-0.219C0.168,-0.213 0.156,-0.206 0.147,-0.197C0.137,-0.188 0.131,-0.178 0.128,-0.167C0.125,-0.156 0.123,-0.145 0.123,-0.135C0.123,-0.11 0.132,-0.091 0.149,-0.078C0.166,-0.065 0.19,-0.058 0.221,-0.058C0.238,-0.058 0.255,-0.061 0.271,-0.067C0.286,-0.073 0.3,-0.081 0.312,-0.091C0.324,-0.101 0.334,-0.113 0.341,-0.126C0.348,-0.139 0.352,-0.153 0.352,-0.167L0.352,-0.22ZM0.353,-0.056C0.336,-0.033 0.313,-0.015 0.285,-0.004C0.256,0.007 0.227,0.013 0.197,0.013C0.178,0.013 0.159,0.011 0.14,0.006C0.121,0 0.103,-0.008 0.088,-0.02C0.072,-0.031 0.059,-0.046 0.05,-0.065C0.04,-0.083 0.035,-0.105 0.035,-0.132C0.035,-0.182 0.053,-0.222 0.088,-0.252C0.123,-0.282 0.173,-0.297 0.239,-0.297C0.25,-0.297 0.261,-0.297 0.273,-0.296C0.285,-0.295 0.296,-0.295 0.307,-0.294C0.318,-0.293 0.327,-0.293 0.335,-0.292C0.343,-0.291 0.349,-0.291 0.352,-0.29L0.352,-0.307C0.352,-0.342 0.341,-0.367 0.321,-0.382C0.3,-0.397 0.271,-0.404 0.235,-0.404C0.2,-0.404 0.172,-0.399 0.151,-0.39C0.13,-0.38 0.113,-0.37 0.099,-0.36L0.057,-0.421C0.065,-0.428 0.075,-0.434 0.086,-0.441C0.097,-0.448 0.111,-0.454 0.126,-0.46C0.141,-0.465 0.159,-0.47 0.178,-0.474C0.197,-0.477 0.22,-0.479 0.245,-0.479C0.305,-0.479 0.352,-0.464 0.387,-0.436C0.421,-0.407 0.438,-0.365 0.438,-0.312L0.438,-0.042C0.438,-0.025 0.438,-0.011 0.439,-0L0.355,-0L0.353,-0.056Z" style="fill-rule:nonzero;"/>
            </g>
            <g transform="matrix(18,0,0,18,67.3567,46.8369)">
                <path d="M0.062,-0L0.062,-0.418C0.062,-0.432 0.062,-0.448 0.061,-0.465L0.147,-0.465L0.15,-0.395C0.156,-0.403 0.163,-0.412 0.172,-0.422C0.181,-0.431 0.191,-0.44 0.204,-0.448C0.217,-0.456 0.232,-0.463 0.249,-0.468C0.266,-0.473 0.285,-0.476 0.306,-0.476C0.367,-0.476 0.412,-0.458 0.441,-0.423C0.47,-0.388 0.485,-0.34 0.485,-0.279L0.485,-0L0.395,-0L0.395,-0.272C0.395,-0.315 0.386,-0.347 0.367,-0.368C0.348,-0.388 0.322,-0.398 0.288,-0.398C0.262,-0.398 0.24,-0.393 0.223,-0.382C0.206,-0.371 0.192,-0.358 0.182,-0.341C0.171,-0.324 0.164,-0.304 0.159,-0.283C0.154,-0.261 0.152,-0.239 0.152,-0.216L0.152,-0L0.062,-0Z" style="fill-rule:nonzero;"/>
            </g>
            <g transform="matrix(18,0,0,18,76.7167,46.8369)">
                <path d="M0.397,-0.362C0.39,-0.367 0.378,-0.375 0.36,-0.384C0.342,-0.393 0.316,-0.397 0.283,-0.397C0.261,-0.397 0.241,-0.393 0.223,-0.385C0.204,-0.377 0.188,-0.366 0.175,-0.351C0.161,-0.336 0.15,-0.318 0.143,-0.297C0.135,-0.276 0.131,-0.252 0.131,-0.225C0.131,-0.203 0.134,-0.182 0.139,-0.163C0.144,-0.143 0.153,-0.126 0.164,-0.111C0.174,-0.096 0.189,-0.085 0.206,-0.077C0.223,-0.068 0.243,-0.064 0.266,-0.064C0.289,-0.064 0.309,-0.068 0.326,-0.077C0.343,-0.086 0.356,-0.096 0.367,-0.11C0.377,-0.123 0.385,-0.137 0.39,-0.153C0.395,-0.168 0.397,-0.183 0.397,-0.196L0.397,-0.362ZM0.397,-0.059C0.394,-0.055 0.388,-0.049 0.381,-0.041C0.373,-0.032 0.363,-0.024 0.35,-0.016C0.337,-0.008 0.323,-0.001 0.306,0.005C0.289,0.011 0.269,0.014 0.246,0.014C0.217,0.014 0.189,0.008 0.164,-0.003C0.139,-0.014 0.117,-0.03 0.098,-0.051C0.079,-0.072 0.065,-0.097 0.055,-0.127C0.044,-0.156 0.039,-0.189 0.039,-0.226C0.039,-0.27 0.047,-0.308 0.062,-0.34C0.077,-0.371 0.097,-0.397 0.121,-0.418C0.144,-0.438 0.17,-0.453 0.198,-0.462C0.225,-0.471 0.251,-0.476 0.276,-0.476C0.309,-0.476 0.335,-0.472 0.354,-0.464C0.373,-0.456 0.387,-0.45 0.397,-0.446L0.397,-0.667L0.487,-0.667L0.487,-0.048C0.487,-0.033 0.487,-0.017 0.488,-0L0.4,-0L0.397,-0.059Z" style="fill-rule:nonzero;"/>
            </g>
            <g transform="matrix(18,0,0,18,86.1847,46.8369)">
                <path d="M0.486,-0.068C0.481,-0.062 0.473,-0.054 0.462,-0.045C0.451,-0.036 0.438,-0.027 0.421,-0.018C0.404,-0.009 0.384,-0.002 0.361,0.005C0.337,0.011 0.311,0.014 0.282,0.014C0.246,0.014 0.213,0.008 0.183,-0.004C0.153,-0.016 0.127,-0.033 0.106,-0.055C0.085,-0.077 0.068,-0.103 0.057,-0.134C0.045,-0.165 0.039,-0.199 0.039,-0.236C0.039,-0.27 0.045,-0.302 0.056,-0.332C0.067,-0.361 0.083,-0.387 0.104,-0.409C0.125,-0.43 0.149,-0.447 0.178,-0.46C0.206,-0.473 0.237,-0.479 0.271,-0.479C0.311,-0.479 0.345,-0.471 0.374,-0.456C0.403,-0.441 0.426,-0.42 0.445,-0.395C0.463,-0.37 0.476,-0.341 0.485,-0.308C0.494,-0.275 0.498,-0.241 0.498,-0.206L0.131,-0.206C0.132,-0.185 0.136,-0.166 0.145,-0.149C0.153,-0.132 0.164,-0.117 0.178,-0.104C0.192,-0.091 0.208,-0.081 0.226,-0.074C0.244,-0.067 0.263,-0.063 0.283,-0.063C0.322,-0.063 0.355,-0.07 0.38,-0.083C0.405,-0.096 0.424,-0.109 0.435,-0.122L0.486,-0.068ZM0.405,-0.273C0.402,-0.309 0.39,-0.34 0.367,-0.365C0.344,-0.39 0.312,-0.403 0.271,-0.403C0.25,-0.403 0.231,-0.399 0.214,-0.392C0.197,-0.385 0.182,-0.375 0.17,-0.363C0.158,-0.351 0.149,-0.337 0.142,-0.322C0.135,-0.306 0.132,-0.29 0.131,-0.273L0.405,-0.273Z" style="fill-rule:nonzero;"/>
            </g>
            <g transform="matrix(18,0,0,18,95.4007,46.8369)">
                <path d="M0.062,-0L0.062,-0.421C0.062,-0.435 0.062,-0.45 0.061,-0.465L0.147,-0.465L0.15,-0.39C0.155,-0.398 0.162,-0.407 0.171,-0.417C0.18,-0.426 0.19,-0.435 0.203,-0.443C0.215,-0.451 0.229,-0.458 0.246,-0.464C0.262,-0.469 0.281,-0.472 0.302,-0.472C0.312,-0.472 0.321,-0.471 0.33,-0.47C0.338,-0.469 0.346,-0.467 0.353,-0.464L0.333,-0.38C0.321,-0.385 0.306,-0.387 0.287,-0.387C0.268,-0.387 0.25,-0.383 0.234,-0.376C0.217,-0.369 0.203,-0.359 0.191,-0.346C0.179,-0.333 0.17,-0.317 0.163,-0.3C0.156,-0.283 0.152,-0.264 0.152,-0.245L0.152,-0L0.062,-0Z" style="fill-rule:nonzero;"/>
            </g>
        </g>
        <g transform="matrix(1,0,0,1,-40.2542,-173.827)">
            <g transform="matrix(12,0,0,12,51.6812,270.661)">
                <rect x="0.076" y="-0.667" width="0.096" height="0.667" style="fill-rule:nonzero;"/>
            </g>
            <g transform="matrix(12,0,0,12,54.6692,270.661)">
                <path d="M0.062,-0L0.062,-0.418C0.062,-0.432 0.062,-0.448 0.061,-0.465L0.147,-0.465L0.15,-0.395C0.156,-0.403 0.163,-0.412 0.172,-0.422C0.181,-0.431 0.191,-0.44 0.204,-0.448C0.217,-0.456 0.232,-0.463 0.249,-0.468C0.266,-0.473 0.285,-0.476 0.306,-0.476C0.367,-0.476 0.412,-0.458 0.441,-0.423C0.47,-0.388 0.485,-0.34 0.485,-0.279L0.485,-0L0.395,-0L0.395,-0.272C0.395,-0.315 0.386,-0.347 0.367,-0.368C0.348,-0.388 0.322,-0.398 0.288,-0.398C0.262,-0.398 0.24,-0.393 0.223,-0.382C0.206,-0.371 0.192,-0.358 0.182,-0.341C0.171,-0.324 0.164,-0.304 0.159,-0.283C0.154,-0.261 0.152,-0.239 0.152,-0.216L0.152,-0L0.062,-0Z" style="fill-rule:nonzero;"/>
            </g>
            <g transform="matrix(12,0,0,12,63.3932,270.661)">
                <path d="M0.076,-0.667L0.172,-0.667L0.172,-0.085L0.519,-0.085L0.519,-0L0.076,-0L0.076,-0.667Z" style="fill-rule:nonzero;"/>
            </g>
        </g>
        <g transform="matrix(1,0,0,1,-10.2542,-159.238)">
            <g transform="matrix(10,0,0,10,40.2542,269.82)">
                <path d="M0.497,-0.519L0.497,-0L0.418,-0L0.418,-0.062C0.402,-0.035 0.385,-0.018 0.368,-0.008C0.345,0.006 0.319,0.012 0.289,0.012C0.262,0.012 0.238,0.007 0.217,-0.004C0.201,-0.012 0.184,-0.028 0.165,-0.052L0.165,0.199L0.078,0.199L0.078,-0.519L0.165,-0.519L0.165,-0.299C0.165,-0.219 0.169,-0.167 0.178,-0.144C0.186,-0.12 0.2,-0.102 0.219,-0.088C0.238,-0.074 0.26,-0.067 0.285,-0.067C0.311,-0.067 0.334,-0.075 0.354,-0.089C0.375,-0.103 0.389,-0.122 0.398,-0.144C0.406,-0.167 0.411,-0.218 0.411,-0.297L0.411,-0.519L0.497,-0.519Z" style="fill-rule:nonzero;"/>
            </g>
            <g transform="matrix(10,0,0,10,40.2542,279.82)">
                <path d="M0.271,-0.667L0.369,-0.667L0.63,-0L0.523,-0L0.454,-0.186L0.18,-0.186L0.111,-0L0.01,-0L0.271,-0.667ZM0.425,-0.267L0.317,-0.56L0.208,-0.267L0.425,-0.267Z" style="fill-rule:nonzero;"/>
            </g>
            <g transform="matrix(10,0,0,10,40.2542,289.82)">
                <path d="M0.272,0.014C0.233,0.014 0.198,0.006 0.169,-0.01C0.139,-0.026 0.114,-0.049 0.094,-0.078C0.073,-0.107 0.058,-0.143 0.048,-0.184C0.037,-0.225 0.032,-0.271 0.032,-0.322C0.032,-0.372 0.037,-0.417 0.048,-0.457C0.058,-0.497 0.073,-0.531 0.094,-0.56C0.115,-0.588 0.14,-0.61 0.17,-0.625C0.199,-0.64 0.234,-0.648 0.273,-0.648C0.312,-0.648 0.346,-0.64 0.376,-0.625C0.406,-0.61 0.431,-0.588 0.452,-0.56C0.472,-0.531 0.487,-0.497 0.498,-0.457C0.508,-0.417 0.513,-0.372 0.513,-0.322C0.513,-0.271 0.508,-0.225 0.498,-0.184C0.487,-0.143 0.472,-0.107 0.451,-0.078C0.43,-0.049 0.405,-0.026 0.375,-0.01C0.345,0.006 0.311,0.014 0.272,0.014ZM0.272,-0.069C0.296,-0.069 0.317,-0.075 0.336,-0.088C0.354,-0.1 0.369,-0.117 0.382,-0.14C0.394,-0.162 0.403,-0.189 0.41,-0.22C0.416,-0.251 0.419,-0.285 0.419,-0.322C0.419,-0.359 0.416,-0.392 0.41,-0.422C0.403,-0.452 0.394,-0.478 0.381,-0.499C0.368,-0.52 0.353,-0.536 0.335,-0.547C0.317,-0.558 0.296,-0.564 0.272,-0.564C0.248,-0.564 0.227,-0.558 0.209,-0.547C0.191,-0.536 0.176,-0.52 0.164,-0.499C0.151,-0.478 0.142,-0.452 0.136,-0.422C0.129,-0.392 0.126,-0.359 0.126,-0.322C0.126,-0.285 0.129,-0.251 0.136,-0.22C0.142,-0.189 0.151,-0.162 0.164,-0.14C0.176,-0.117 0.191,-0.1 0.209,-0.088C0.227,-0.075 0.248,-0.069 0.272,-0.069Z" style="fill-rule:nonzero;"/>
            </g>
        </g>
        <g transform="matrix(1,0,0,1,6.6038,-152.238)">
            <g transform="matrix(10,0,0,10,43.4962,269.327)">
                <path d="M0.141,-0.08L0.253,-0.08L0.253,-0.535L0.123,-0.465L0.086,-0.536L0.263,-0.633L0.344,-0.633L0.344,-0.08L0.454,-0.08L0.454,-0L0.141,-0L0.141,-0.08Z" style="fill-rule:nonzero;"/>
            </g>
            <g transform="matrix(10,0,0,10,48.9462,269.327)">
                <path d="M0.272,0.014C0.233,0.014 0.198,0.006 0.169,-0.01C0.139,-0.026 0.114,-0.049 0.094,-0.078C0.073,-0.107 0.058,-0.143 0.048,-0.184C0.037,-0.225 0.032,-0.271 0.032,-0.322C0.032,-0.372 0.037,-0.417 0.048,-0.457C0.058,-0.497 0.073,-0.531 0.094,-0.56C0.115,-0.588 0.14,-0.61 0.17,-0.625C0.199,-0.64 0.234,-0.648 0.273,-0.648C0.312,-0.648 0.346,-0.64 0.376,-0.625C0.406,-0.61 0.431,-0.588 0.452,-0.56C0.472,-0.531 0.487,-0.497 0.498,-0.457C0.508,-0.417 0.513,-0.372 0.513,-0.322C0.513,-0.271 0.508,-0.225 0.498,-0.184C0.487,-0.143 0.472,-0.107 0.451,-0.078C0.43,-0.049 0.405,-0.026 0.375,-0.01C0.345,0.006 0.311,0.014 0.272,0.014ZM0.272,-0.069C0.296,-0.069 0.317,-0.075 0.336,-0.088C0.354,-0.1 0.369,-0.117 0.382,-0.14C0.394,-0.162 0.403,-0.189 0.41,-0.22C0.416,-0.251 0.419,-0.285 0.419,-0.322C0.419,-0.359 0.416,-0.392 0.41,-0.422C0.403,-0.452 0.394,-0.478 0.381,-0.499C0.368,-0.52 0.353,-0.536 0.335,-0.547C0.317,-0.558 0.296,-0.564 0.272,-0.564C0.248,-0.564 0.227,-0.558 0.209,-0.547C0.191,-0.536 0.176,-0.52 0.164,-0.499C0.151,-0.478 0.142,-0.452 0.136,-0.422C0.129,-0.392 0.126,-0.359 0.126,-0.322C0.126,-0.285 0.129,-0.251 0.136,-0.22C0.142,-0.189 0.151,-0.162 0.164,-0.14C0.176,-0.117 0.191,-0.1 0.209,-0.088C0.227,-0.075 0.248,-0.069 0.272,-0.069Z" style="fill-rule:nonzero;"/>
            </g>
            <g transform="matrix(10,0,0,10,48.9462,279.327)">
                <path d="M0.089,-0.118C0.108,-0.103 0.128,-0.09 0.151,-0.08C0.173,-0.069 0.201,-0.064 0.234,-0.064C0.257,-0.064 0.278,-0.068 0.295,-0.075C0.312,-0.082 0.327,-0.091 0.339,-0.103C0.35,-0.115 0.359,-0.129 0.365,-0.145C0.37,-0.161 0.373,-0.178 0.373,-0.197C0.373,-0.21 0.371,-0.223 0.367,-0.238C0.363,-0.253 0.356,-0.266 0.346,-0.279C0.336,-0.291 0.322,-0.301 0.305,-0.309C0.288,-0.317 0.266,-0.321 0.239,-0.321C0.212,-0.321 0.19,-0.318 0.174,-0.313C0.158,-0.308 0.143,-0.302 0.13,-0.295L0.084,-0.33L0.144,-0.63L0.453,-0.63L0.453,-0.546L0.207,-0.546L0.178,-0.381C0.185,-0.385 0.195,-0.389 0.21,-0.393C0.225,-0.396 0.242,-0.398 0.263,-0.398C0.293,-0.398 0.321,-0.394 0.346,-0.385C0.371,-0.376 0.392,-0.364 0.41,-0.347C0.428,-0.33 0.442,-0.309 0.452,-0.285C0.462,-0.26 0.467,-0.232 0.467,-0.2C0.467,-0.171 0.462,-0.143 0.453,-0.117C0.444,-0.091 0.429,-0.068 0.41,-0.048C0.391,-0.028 0.366,-0.012 0.336,-0.001C0.306,0.011 0.27,0.017 0.229,0.017C0.185,0.017 0.148,0.01 0.117,-0.003C0.086,-0.016 0.059,-0.033 0.038,-0.052L0.089,-0.118Z" style="fill-rule:nonzero;"/>
            </g>
        </g>
        <g transform="matrix(1,0,0,1,6.6038,-17.9458)">
            <g transform="matrix(10,0,0,10,43.4962,269.327)">
                <path d="M0.141,-0.08L0.253,-0.08L0.253,-0.535L0.123,-0.465L0.086,-0.536L0.263,-0.633L0.344,-0.633L0.344,-0.08L0.454,-0.08L0.454,-0L0.141,-0L0.141,-0.08Z" style="fill-rule:nonzero;"/>
            </g>
            <g transform="matrix(10,0,0,10,48.9462,269.327)">
                <path d="M0.272,0.014C0.233,0.014 0.198,0.006 0.169,-0.01C0.139,-0.026 0.114,-0.049 0.094,-0.078C0.073,-0.107 0.058,-0.143 0.048,-0.184C0.037,-0.225 0.032,-0.271 0.032,-0.322C0.032,-0.372 0.037,-0.417 0.048,-0.457C0.058,-0.497 0.073,-0.531 0.094,-0.56C0.115,-0.588 0.14,-0.61 0.17,-0.625C0.199,-0.64 0.234,-0.648 0.273,-0.648C0.312,-0.648 0.346,-0.64 0.376,-0.625C0.406,-0.61 0.431,-0.588 0.452,-0.56C0.472,-0.531 0.487,-0.497 0.498,-0.457C0.508,-0.417 0.513,-0.372 0.513,-0.322C0.513,-0.271 0.508,-0.225 0.498,-0.184C0.487,-0.143 0.472,-0.107 0.451,-0.078C0.43,-0.049 0.405,-0.026 0.375,-0.01C0.345,0.006 0.311,0.014 0.272,0.014ZM0.272,-0.069C0.296,-0.069 0.317,-0.075 0.336,-0.088C0.354,-0.1 0.369,-0.117 0.382,-0.14C0.394,-0.162 0.403,-0.189 0.41,-0.22C0.416,-0.251 0.419,-0.285 0.419,-0.322C0.419,-0.359 0.416,-0.392 0.41,-0.422C0.403,-0.452 0.394,-0.478 0.381,-0.499C0.368,-0.52 0.353,-0.536 0.335,-0.547C0.317,-0.558 0.296,-0.564 0.272,-0.564C0.248,-0.564 0.227,-0.558 0.209,-0.547C0.191,-0.536 0.176,-0.52 0.164,-0.499C0.151,-0.478 0.142,-0.452 0.136,-0.422C0.129,-0.392 0.126,-0.359 0.126,-0.322C0.126,-0.285 0.129,-0.251 0.136,-0.22C0.142,-0.189 0.151,-0.162 0.164,-0.14C0.176,-0.117 0.191,-0.1 0.209,-0.088C0.227,-0.075 0.248,-0.069 0.272,-0.069Z" style="fill-rule:nonzero;"/>
            </g>
            <g transform="matrix(10,0,0,10,48.9462,279.327)">
                <path d="M0.089,-0.118C0.108,-0.103 0.128,-0.09 0.151,-0.08C0.173,-0.069 0.201,-0.064 0.234,-0.064C0.257,-0.064 0.278,-0.068 0.295,-0.075C0.312,-0.082 0.327,-0.091 0.339,-0.103C0.35,-0.115 0.359,-0.129 0.365,-0.145C0.37,-0.161 0.373,-0.178 0.373,-0.197C0.373,-0.21 0.371,-0.223 0.367,-0.238C0.363,-0.253 0.356,-0.266 0.346,-0.279C0.336,-0.291 0.322,-0.301 0.305,-0.309C0.288,-0.317 0.266,-0.321 0.239,-0.321C0.212,-0.321 0.19,-0.318 0.174,-0.313C0.158,-0.308 0.143,-0.302 0.13,-0.295L0.084,-0.33L0.144,-0.63L0.453,-0.63L0.453,-0.546L0.207,-0.546L0.178,-0.381C0.185,-0.385 0.195,-0.389 0.21,-0.393C0.225,-0.396 0.242,-0.398 0.263,-0.398C0.293,-0.398 0.321,-0.394 0.346,-0.385C0.371,-0.376 0.392,-0.364 0.41,-0.347C0.428,-0.33 0.442,-0.309 0.452,-0.285C0.462,-0.26 0.467,-0.232 0.467,-0.2C0.467,-0.171 0.462,-0.143 0.453,-0.117C0.444,-0.091 0.429,-0.068 0.41,-0.048C0.391,-0.028 0.366,-0.012 0.336,-0.001C0.306,0.011 0.27,0.017 0.229,0.017C0.185,0.017 0.148,0.01 0.117,-0.003C0.086,-0.016 0.059,-0.033 0.038,-0.052L0.089,-0.118Z" style="fill-rule:nonzero;"/>
            </g>
        </g>
        <g transform="matrix(1,0,0,1,-10.2542,-22.905)">
            <g transform="matrix(10,0,0,10,40.2542,269.82)">
                <path d="M0.497,-0.519L0.497,-0L0.418,-0L0.418,-0.062C0.402,-0.035 0.385,-0.018 0.368,-0.008C0.345,0.006 0.319,0.012 0.289,0.012C0.262,0.012 0.238,0.007 0.217,-0.004C0.201,-0.012 0.184,-0.028 0.165,-0.052L0.165,0.199L0.078,0.199L0.078,-0.519L0.165,-0.519L0.165,-0.299C0.165,-0.219 0.169,-0.167 0.178,-0.144C0.186,-0.12 0.2,-0.102 0.219,-0.088C0.238,-0.074 0.26,-0.067 0.285,-0.067C0.311,-0.067 0.334,-0.075 0.354,-0.089C0.375,-0.103 0.389,-0.122 0.398,-0.144C0.406,-0.167 0.411,-0.218 0.411,-0.297L0.411,-0.519L0.497,-0.519Z" style="fill-rule:nonzero;"/>
            </g>
            <g transform="matrix(10,0,0,10,40.2542,279.82)">
                <path d="M0.271,-0.667L0.369,-0.667L0.63,-0L0.523,-0L0.454,-0.186L0.18,-0.186L0.111,-0L0.01,-0L0.271,-0.667ZM0.425,-0.267L0.317,-0.56L0.208,-0.267L0.425,-0.267Z" style="fill-rule:nonzero;"/>
            </g>
            <g transform="matrix(10,0,0,10,40.2542,289.82)">
                <path d="M0.272,0.014C0.233,0.014 0.198,0.006 0.169,-0.01C0.139,-0.026 0.114,-0.049 0.094,-0.078C0.073,-0.107 0.058,-0.143 0.048,-0.184C0.037,-0.225 0.032,-0.271 0.032,-0.322C0.032,-0.372 0.037,-0.417 0.048,-0.457C0.058,-0.497 0.073,-0.531 0.094,-0.56C0.115,-0.588 0.14,-0.61 0.17,-0.625C0.199,-0.64 0.234,-0.648 0.273,-0.648C0.312,-0.648 0.346,-0.64 0.376,-0.625C0.406,-0.61 0.431,-0.588 0.452,-0.56C0.472,-0.531 0.487,-0.497 0.498,-0.457C0.508,-0.417 0.513,-0.372 0.513,-0.322C0.513,-0.271 0.508,-0.225 0.498,-0.184C0.487,-0.143 0.472,-0.107 0.451,-0.078C0.43,-0.049 0.405,-0.026 0.375,-0.01C0.345,0.006 0.311,0.014 0.272,0.014ZM0.272,-0.069C0.296,-0.069 0.317,-0.075 0.336,-0.088C0.354,-0.1 0.369,-0.117 0.382,-0.14C0.394,-0.162 0.403,-0.189 0.41,-0.22C0.416,-0.251 0.419,-0.285 0.419,-0.322C0.419,-0.359 0.416,-0.392 0.41,-0.422C0.403,-0.452 0.394,-0.478 0.381,-0.499C0.368,-0.52 0.353,-0.536 0.335,-0.547C0.317,-0.558 0.296,-0.564 0.272,-0.564C0.248,-0.564 0.227,-0.558 0.209,-0.547C0.191,-0.536 0.176,-0.52 0.164,-0.499C0.151,-0.478 0.142,-0.452 0.136,-0.422C0.129,-0.392 0.126,-0.359 0.126,-0.322C0.126,-0.285 0.129,-0.251 0.136,-0.22C0.142,-0.189 0.151,-0.162 0.164,-0.14C0.176,-0.117 0.191,-0.1 0.209,-0.088C0.227,-0.075 0.248,-0.069 0.272,-0.069Z" style="fill-rule:nonzero;"/>
            </g>
        </g>
        <g transform="matrix(1,0,0,1,-40.2542,-37.4936)">
            <g transform="matrix(12,0,0,12,51.6812,270.661)">
                <rect x="0.076" y="-0.667" width="0.096" height="0.667" style="fill-rule:nonzero;"/>
            </g>
            <g transform="matrix(12,0,0,12,54.6692,270.661)">
                <path d="M0.062,-0L0.062,-0.418C0.062,-0.432 0.062,-0.448 0.061,-0.465L0.147,-0.465L0.15,-0.395C0.156,-0.403 0.163,-0.412 0.172,-0.422C0.181,-0.431 0.191,-0.44 0.204,-0.448C0.217,-0.456 0.232,-0.463 0.249,-0.468C0.266,-0.473 0.285,-0.476 0.306,-0.476C0.367,-0.476 0.412,-0.458 0.441,-0.423C0.47,-0.388 0.485,-0.34 0.485,-0.279L0.485,-0L0.395,-0L0.395,-0.272C0.395,-0.315 0.386,-0.347 0.367,-0.368C0.348,-0.388 0.322,-0.398 0.288,-0.398C0.262,-0.398 0.24,-0.393 0.223,-0.382C0.206,-0.371 0.192,-0.358 0.182,-0.341C0.171,-0.324 0.164,-0.304 0.159,-0.283C0.154,-0.261 0.152,-0.239 0.152,-0.216L0.152,-0L0.062,-0Z" style="fill-rule:nonzero;"/>
            </g>
            <g transform="matrix(12,0,0,12,63.3932,270.661)">
                <path d="M0.076,-0.667L0.172,-0.667L0.172,-0.085L0.519,-0.085L0.519,-0L0.076,-0L0.076,-0.667Z" style="fill-rule:nonzero;"/>
            </g>
        </g>
        <g transform="matrix(1,0,0,1,8.6038,-173.827)">
            <g transform="matrix(12,0,0,12,51.4292,270.661)">
                <rect x="0.076" y="-0.667" width="0.096" height="0.667" style="fill-rule:nonzero;"/>
            </g>
            <g transform="matrix(12,0,0,12,54.4172,270.661)">
                <path d="M0.062,-0L0.062,-0.418C0.062,-0.432 0.062,-0.448 0.061,-0.465L0.147,-0.465L0.15,-0.395C0.156,-0.403 0.163,-0.412 0.172,-0.422C0.181,-0.431 0.191,-0.44 0.204,-0.448C0.217,-0.456 0.232,-0.463 0.249,-0.468C0.266,-0.473 0.285,-0.476 0.306,-0.476C0.367,-0.476 0.412,-0.458 0.441,-0.423C0.47,-0.388 0.485,-0.34 0.485,-0.279L0.485,-0L0.395,-0L0.395,-0.272C0.395,-0.315 0.386,-0.347 0.367,-0.368C0.348,-0.388 0.322,-0.398 0.288,-0.398C0.262,-0.398 0.24,-0.393 0.223,-0.382C0.206,-0.371 0.192,-0.358 0.182,-0.341C0.171,-0.324 0.164,-0.304 0.159,-0.283C0.154,-0.261 0.152,-0.239 0.152,-0.216L0.152,-0L0.062,-0Z" style="fill-rule:nonzero;"/>
            </g>
            <g transform="matrix(12,0,0,12,63.1412,270.661)">
                <path d="M0.076,-0.667L0.289,-0.667C0.332,-0.667 0.368,-0.661 0.397,-0.65C0.426,-0.638 0.45,-0.623 0.469,-0.605C0.487,-0.586 0.5,-0.565 0.509,-0.542C0.517,-0.519 0.521,-0.495 0.521,-0.471C0.521,-0.428 0.511,-0.391 0.491,-0.358C0.471,-0.325 0.44,-0.301 0.398,-0.285L0.554,-0L0.446,-0L0.303,-0.273L0.169,-0.273L0.169,-0L0.076,-0L0.076,-0.667ZM0.297,-0.354C0.339,-0.354 0.371,-0.364 0.392,-0.385C0.413,-0.406 0.423,-0.433 0.423,-0.468C0.423,-0.505 0.412,-0.533 0.389,-0.554C0.366,-0.574 0.335,-0.584 0.295,-0.584L0.169,-0.584L0.169,-0.354L0.297,-0.354Z" style="fill-rule:nonzero;"/>
            </g>
        </g>
        <g transform="matrix(1,0,0,1,8.6038,-37.4936)">
            <g transform="matrix(12,0,0,12,51.4292,270.661)">
                <rect x="0.076" y="-0.667" width="0.096" height="0.667" style="fill-rule:nonzero;"/>
            </g>
            <g transform="matrix(12,0,0,12,54.4172,270.661)">
                <path d="M0.062,-0L0.062,-0.418C0.062,-0.432 0.062,-0.448 0.061,-0.465L0.147,-0.465L0.15,-0.395C0.156,-0.403 0.163,-0.412 0.172,-0.422C0.181,-0.431 0.191,-0.44 0.204,-0.448C0.217,-0.456 0.232,-0.463 0.249,-0.468C0.266,-0.473 0.285,-0.476 0.306,-0.476C0.367,-0.476 0.412,-0.458 0.441,-0.423C0.47,-0.388 0.485,-0.34 0.485,-0.279L0.485,-0L0.395,-0L0.395,-0.272C0.395,-0.315 0.386,-0.347 0.367,-0.368C0.348,-0.388 0.322,-0.398 0.288,-0.398C0.262,-0.398 0.24,-0.393 0.223,-0.382C0.206,-0.371 0.192,-0.358 0.182,-0.341C0.171,-0.324 0.164,-0.304 0.159,-0.283C0.154,-0.261 0.152,-0.239 0.152,-0.216L0.152,-0L0.062,-0Z" style="fill-rule:nonzero;"/>
            </g>
            <g transform="matrix(12,0,0,12,63.1412,270.661)">
                <path d="M0.076,-0.667L0.289,-0.667C0.332,-0.667 0.368,-0.661 0.397,-0.65C0.426,-0.638 0.45,-0.623 0.469,-0.605C0.487,-0.586 0.5,-0.565 0.509,-0.542C0.517,-0.519 0.521,-0.495 0.521,-0.471C0.521,-0.428 0.511,-0.391 0.491,-0.358C0.471,-0.325 0.44,-0.301 0.398,-0.285L0.554,-0L0.446,-0L0.303,-0.273L0.169,-0.273L0.169,-0L0.076,-0L0.076,-0.667ZM0.297,-0.354C0.339,-0.354 0.371,-0.364 0.392,-0.385C0.413,-0.406 0.423,-0.433 0.423,-0.468C0.423,-0.505 0.412,-0.533 0.389,-0.554C0.366,-0.574 0.335,-0.584 0.295,-0.584L0.169,-0.584L0.169,-0.354L0.297,-0.354Z" style="fill-rule:nonzero;"/>
            </g>
        </g>
        <g transform="matrix(1,0,0,1,-34.2021,-1.83715)">
            <g transform="matrix(12,0,0,12,40.1571,321.334)">
                <path d="M0.389,0.017C0.341,0.017 0.296,0.008 0.255,-0.011C0.214,-0.029 0.178,-0.054 0.147,-0.086C0.116,-0.117 0.092,-0.154 0.075,-0.197C0.058,-0.24 0.049,-0.285 0.049,-0.334C0.049,-0.383 0.058,-0.428 0.075,-0.471C0.092,-0.513 0.116,-0.55 0.147,-0.582C0.177,-0.613 0.213,-0.638 0.255,-0.657C0.296,-0.675 0.341,-0.684 0.389,-0.684C0.437,-0.684 0.482,-0.675 0.524,-0.657C0.565,-0.638 0.601,-0.613 0.632,-0.582C0.663,-0.55 0.687,-0.513 0.704,-0.471C0.721,-0.428 0.73,-0.383 0.73,-0.334C0.73,-0.285 0.721,-0.24 0.704,-0.197C0.687,-0.154 0.663,-0.117 0.632,-0.086C0.601,-0.054 0.565,-0.029 0.524,-0.011C0.482,0.008 0.437,0.017 0.389,0.017ZM0.389,-0.073C0.426,-0.073 0.459,-0.08 0.489,-0.094C0.518,-0.108 0.544,-0.127 0.565,-0.151C0.586,-0.175 0.602,-0.203 0.613,-0.235C0.624,-0.266 0.63,-0.3 0.63,-0.335C0.63,-0.371 0.624,-0.405 0.613,-0.437C0.602,-0.468 0.586,-0.496 0.565,-0.52C0.544,-0.544 0.518,-0.563 0.489,-0.577C0.459,-0.59 0.426,-0.597 0.389,-0.597C0.352,-0.597 0.319,-0.59 0.29,-0.577C0.261,-0.563 0.236,-0.544 0.215,-0.52C0.194,-0.496 0.177,-0.468 0.166,-0.437C0.155,-0.405 0.149,-0.371 0.149,-0.335C0.149,-0.3 0.155,-0.266 0.166,-0.235C0.177,-0.203 0.194,-0.175 0.215,-0.151C0.236,-0.127 0.261,-0.108 0.29,-0.094C0.319,-0.08 0.352,-0.073 0.389,-0.073Z" style="fill:white;fill-rule:nonzero;"/>
            </g>
            <g transform="matrix(12,0,0,12,49.5111,321.334)">
                <path d="M0.059,-0.465L0.149,-0.465L0.149,-0.192C0.149,-0.148 0.158,-0.116 0.176,-0.097C0.194,-0.077 0.22,-0.067 0.254,-0.067C0.28,-0.067 0.302,-0.072 0.319,-0.083C0.335,-0.094 0.349,-0.108 0.36,-0.125C0.371,-0.141 0.378,-0.161 0.383,-0.183C0.387,-0.204 0.389,-0.226 0.389,-0.249L0.389,-0.465L0.479,-0.465L0.479,-0.048C0.479,-0.033 0.479,-0.017 0.48,-0L0.394,-0L0.391,-0.069C0.385,-0.061 0.378,-0.052 0.369,-0.043C0.36,-0.034 0.35,-0.025 0.337,-0.018C0.324,-0.01 0.31,-0.003 0.293,0.002C0.276,0.007 0.257,0.01 0.236,0.01C0.175,0.01 0.131,-0.008 0.102,-0.043C0.073,-0.078 0.059,-0.125 0.059,-0.186L0.059,-0.465Z" style="fill:white;fill-rule:nonzero;"/>
            </g>
            <g transform="matrix(12,0,0,12,56.0211,321.334)">
                <path d="M0.102,-0.39L0.018,-0.39L0.018,-0.465L0.102,-0.465L0.102,-0.617L0.192,-0.617L0.192,-0.465L0.328,-0.465L0.328,-0.39L0.192,-0.39L0.192,-0.161C0.192,-0.124 0.198,-0.098 0.21,-0.084C0.221,-0.07 0.238,-0.063 0.259,-0.063C0.276,-0.063 0.291,-0.066 0.302,-0.071C0.313,-0.076 0.325,-0.084 0.336,-0.095L0.377,-0.04C0.358,-0.021 0.338,-0.008 0.318,0.001C0.297,0.009 0.273,0.013 0.245,0.013C0.196,0.013 0.16,-0 0.137,-0.027C0.114,-0.054 0.102,-0.095 0.102,-0.152L0.102,-0.39Z" style="fill:white;fill-rule:nonzero;"/>
            </g>
            <g transform="matrix(12,0,0,12,62.8131,321.334)">
                <path d="M0.076,-0.667L0.172,-0.667L0.172,-0.085L0.519,-0.085L0.519,-0L0.076,-0L0.076,-0.667Z" style="fill:white;fill-rule:nonzero;"/>
            </g>
        </g>
        <g transform="matrix(1,0,0,1,-34.2021,-138.17)">
            <g transform="matrix(12,0,0,12,40.1571,321.334)">
                <path d="M0.389,0.017C0.341,0.017 0.296,0.008 0.255,-0.011C0.214,-0.029 0.178,-0.054 0.147,-0.086C0.116,-0.117 0.092,-0.154 0.075,-0.197C0.058,-0.24 0.049,-0.285 0.049,-0.334C0.049,-0.383 0.058,-0.428 0.075,-0.471C0.092,-0.513 0.116,-0.55 0.147,-0.582C0.177,-0.613 0.213,-0.638 0.255,-0.657C0.296,-0.675 0.341,-0.684 0.389,-0.684C0.437,-0.684 0.482,-0.675 0.524,-0.657C0.565,-0.638 0.601,-0.613 0.632,-0.582C0.663,-0.55 0.687,-0.513 0.704,-0.471C0.721,-0.428 0.73,-0.383 0.73,-0.334C0.73,-0.285 0.721,-0.24 0.704,-0.197C0.687,-0.154 0.663,-0.117 0.632,-0.086C0.601,-0.054 0.565,-0.029 0.524,-0.011C0.482,0.008 0.437,0.017 0.389,0.017ZM0.389,-0.073C0.426,-0.073 0.459,-0.08 0.489,-0.094C0.518,-0.108 0.544,-0.127 0.565,-0.151C0.586,-0.175 0.602,-0.203 0.613,-0.235C0.624,-0.266 0.63,-0.3 0.63,-0.335C0.63,-0.371 0.624,-0.405 0.613,-0.437C0.602,-0.468 0.586,-0.496 0.565,-0.52C0.544,-0.544 0.518,-0.563 0.489,-0.577C0.459,-0.59 0.426,-0.597 0.389,-0.597C0.352,-0.597 0.319,-0.59 0.29,-0.577C0.261,-0.563 0.236,-0.544 0.215,-0.52C0.194,-0.496 0.177,-0.468 0.166,-0.437C0.155,-0.405 0.149,-0.371 0.149,-0.335C0.149,-0.3 0.155,-0.266 0.166,-0.235C0.177,-0.203 0.194,-0.175 0.215,-0.151C0.236,-0.127 0.261,-0.108 0.29,-0.094C0.319,-0.08 0.352,-0.073 0.389,-0.073Z" style="fill:white;fill-rule:nonzero;"/>
            </g>
            <g transform="matrix(12,0,0,12,49.5111,321.334)">
                <path d="M0.059,-0.465L0.149,-0.465L0.149,-0.192C0.149,-0.148 0.158,-0.116 0.176,-0.097C0.194,-0.077 0.22,-0.067 0.254,-0.067C0.28,-0.067 0.302,-0.072 0.319,-0.083C0.335,-0.094 0.349,-0.108 0.36,-0.125C0.371,-0.141 0.378,-0.161 0.383,-0.183C0.387,-0.204 0.389,-0.226 0.389,-0.249L0.389,-0.465L0.479,-0.465L0.479,-0.048C0.479,-0.033 0.479,-0.017 0.48,-0L0.394,-0L0.391,-0.069C0.385,-0.061 0.378,-0.052 0.369,-0.043C0.36,-0.034 0.35,-0.025 0.337,-0.018C0.324,-0.01 0.31,-0.003 0.293,0.002C0.276,0.007 0.257,0.01 0.236,0.01C0.175,0.01 0.131,-0.008 0.102,-0.043C0.073,-0.078 0.059,-0.125 0.059,-0.186L0.059,-0.465Z" style="fill:white;fill-rule:nonzero;"/>
            </g>
            <g transform="matrix(12,0,0,12,56.0211,321.334)">
                <path d="M0.102,-0.39L0.018,-0.39L0.018,-0.465L0.102,-0.465L0.102,-0.617L0.192,-0.617L0.192,-0.465L0.328,-0.465L0.328,-0.39L0.192,-0.39L0.192,-0.161C0.192,-0.124 0.198,-0.098 0.21,-0.084C0.221,-0.07 0.238,-0.063 0.259,-0.063C0.276,-0.063 0.291,-0.066 0.302,-0.071C0.313,-0.076 0.325,-0.084 0.336,-0.095L0.377,-0.04C0.358,-0.021 0.338,-0.008 0.318,0.001C0.297,0.009 0.273,0.013 0.245,0.013C0.196,0.013 0.16,-0 0.137,-0.027C0.114,-0.054 0.102,-0.095 0.102,-0.152L0.102,-0.39Z" style="fill:white;fill-rule:nonzero;"/>
            </g>
            <g transform="matrix(12,0,0,12,62.8131,321.334)">
                <path d="M0.076,-0.667L0.172,-0.667L0.172,-0.085L0.519,-0.085L0.519,-0L0.076,-0L0.076,-0.667Z" style="fill:white;fill-rule:nonzero;"/>
            </g>
        </g>
        <g transform="matrix(1,0,0,1,14.6559,-1.83715)">
            <g transform="matrix(12,0,0,12,39.9051,321.334)">
                <path d="M0.389,0.017C0.341,0.017 0.296,0.008 0.255,-0.011C0.214,-0.029 0.178,-0.054 0.147,-0.086C0.116,-0.117 0.092,-0.154 0.075,-0.197C0.058,-0.24 0.049,-0.285 0.049,-0.334C0.049,-0.383 0.058,-0.428 0.075,-0.471C0.092,-0.513 0.116,-0.55 0.147,-0.582C0.177,-0.613 0.213,-0.638 0.255,-0.657C0.296,-0.675 0.341,-0.684 0.389,-0.684C0.437,-0.684 0.482,-0.675 0.524,-0.657C0.565,-0.638 0.601,-0.613 0.632,-0.582C0.663,-0.55 0.687,-0.513 0.704,-0.471C0.721,-0.428 0.73,-0.383 0.73,-0.334C0.73,-0.285 0.721,-0.24 0.704,-0.197C0.687,-0.154 0.663,-0.117 0.632,-0.086C0.601,-0.054 0.565,-0.029 0.524,-0.011C0.482,0.008 0.437,0.017 0.389,0.017ZM0.389,-0.073C0.426,-0.073 0.459,-0.08 0.489,-0.094C0.518,-0.108 0.544,-0.127 0.565,-0.151C0.586,-0.175 0.602,-0.203 0.613,-0.235C0.624,-0.266 0.63,-0.3 0.63,-0.335C0.63,-0.371 0.624,-0.405 0.613,-0.437C0.602,-0.468 0.586,-0.496 0.565,-0.52C0.544,-0.544 0.518,-0.563 0.489,-0.577C0.459,-0.59 0.426,-0.597 0.389,-0.597C0.352,-0.597 0.319,-0.59 0.29,-0.577C0.261,-0.563 0.236,-0.544 0.215,-0.52C0.194,-0.496 0.177,-0.468 0.166,-0.437C0.155,-0.405 0.149,-0.371 0.149,-0.335C0.149,-0.3 0.155,-0.266 0.166,-0.235C0.177,-0.203 0.194,-0.175 0.215,-0.151C0.236,-0.127 0.261,-0.108 0.29,-0.094C0.319,-0.08 0.352,-0.073 0.389,-0.073Z" style="fill:white;fill-rule:nonzero;"/>
            </g>
            <g transform="matrix(12,0,0,12,49.2591,321.334)">
                <path d="M0.059,-0.465L0.149,-0.465L0.149,-0.192C0.149,-0.148 0.158,-0.116 0.176,-0.097C0.194,-0.077 0.22,-0.067 0.254,-0.067C0.28,-0.067 0.302,-0.072 0.319,-0.083C0.335,-0.094 0.349,-0.108 0.36,-0.125C0.371,-0.141 0.378,-0.161 0.383,-0.183C0.387,-0.204 0.389,-0.226 0.389,-0.249L0.389,-0.465L0.479,-0.465L0.479,-0.048C0.479,-0.033 0.479,-0.017 0.48,-0L0.394,-0L0.391,-0.069C0.385,-0.061 0.378,-0.052 0.369,-0.043C0.36,-0.034 0.35,-0.025 0.337,-0.018C0.324,-0.01 0.31,-0.003 0.293,0.002C0.276,0.007 0.257,0.01 0.236,0.01C0.175,0.01 0.131,-0.008 0.102,-0.043C0.073,-0.078 0.059,-0.125 0.059,-0.186L0.059,-0.465Z" style="fill:white;fill-rule:nonzero;"/>
            </g>
            <g transform="matrix(12,0,0,12,55.7691,321.334)">
                <path d="M0.102,-0.39L0.018,-0.39L0.018,-0.465L0.102,-0.465L0.102,-0.617L0.192,-0.617L0.192,-0.465L0.328,-0.465L0.328,-0.39L0.192,-0.39L0.192,-0.161C0.192,-0.124 0.198,-0.098 0.21,-0.084C0.221,-0.07 0.238,-0.063 0.259,-0.063C0.276,-0.063 0.291,-0.066 0.302,-0.071C0.313,-0.076 0.325,-0.084 0.336,-0.095L0.377,-0.04C0.358,-0.021 0.338,-0.008 0.318,0.001C0.297,0.009 0.273,0.013 0.245,0.013C0.196,0.013 0.16,-0 0.137,-0.027C0.114,-0.054 0.102,-0.095 0.102,-0.152L0.102,-0.39Z" style="fill:white;fill-rule:nonzero;"/>
            </g>
            <g transform="matrix(12,0,0,12,62.5611,321.334)">
                <path d="M0.076,-0.667L0.289,-0.667C0.332,-0.667 0.368,-0.661 0.397,-0.65C0.426,-0.638 0.45,-0.623 0.469,-0.605C0.487,-0.586 0.5,-0.565 0.509,-0.542C0.517,-0.519 0.521,-0.495 0.521,-0.471C0.521,-0.428 0.511,-0.391 0.491,-0.358C0.471,-0.325 0.44,-0.301 0.398,-0.285L0.554,-0L0.446,-0L0.303,-0.273L0.169,-0.273L0.169,-0L0.076,-0L0.076,-0.667ZM0.297,-0.354C0.339,-0.354 0.371,-0.364 0.392,-0.385C0.413,-0.406 0.423,-0.433 0.423,-0.468C0.423,-0.505 0.412,-0.533 0.389,-0.554C0.366,-0.574 0.335,-0.584 0.295,-0.584L0.169,-0.584L0.169,-0.354L0.297,-0.354Z" style="fill:white;fill-rule:nonzero;"/>
            </g>
        </g>
        <g transform="matrix(1,0,0,1,14.6559,-138.17)">
            <g transform="matrix(12,0,0,12,39.9051,321.334)">
                <path d="M0.389,0.017C0.341,0.017 0.296,0.008 0.255,-0.011C0.214,-0.029 0.178,-0.054 0.147,-0.086C0.116,-0.117 0.092,-0.154 0.075,-0.197C0.058,-0.24 0.049,-0.285 0.049,-0.334C0.049,-0.383 0.058,-0.428 0.075,-0.471C0.092,-0.513 0.116,-0.55 0.147,-0.582C0.177,-0.613 0.213,-0.638 0.255,-0.657C0.296,-0.675 0.341,-0.684 0.389,-0.684C0.437,-0.684 0.482,-0.675 0.524,-0.657C0.565,-0.638 0.601,-0.613 0.632,-0.582C0.663,-0.55 0.687,-0.513 0.704,-0.471C0.721,-0.428 0.73,-0.383 0.73,-0.334C0.73,-0.285 0.721,-0.24 0.704,-0.197C0.687,-0.154 0.663,-0.117 0.632,-0.086C0.601,-0.054 0.565,-0.029 0.524,-0.011C0.482,0.008 0.437,0.017 0.389,0.017ZM0.389,-0.073C0.426,-0.073 0.459,-0.08 0.489,-0.094C0.518,-0.108 0.544,-0.127 0.565,-0.151C0.586,-0.175 0.602,-0.203 0.613,-0.235C0.624,-0.266 0.63,-0.3 0.63,-0.335C0.63,-0.371 0.624,-0.405 0.613,-0.437C0.602,-0.468 0.586,-0.496 0.565,-0.52C0.544,-0.544 0.518,-0.563 0.489,-0.577C0.459,-0.59 0.426,-0.597 0.389,-0.597C0.352,-0.597 0.319,-0.59 0.29,-0.577C0.261,-0.563 0.236,-0.544 0.215,-0.52C0.194,-0.496 0.177,-0.468 0.166,-0.437C0.155,-0.405 0.149,-0.371 0.149,-0.335C0.149,-0.3 0.155,-0.266 0.166,-0.235C0.177,-0.203 0.194,-0.175 0.215,-0.151C0.236,-0.127 0.261,-0.108 0.29,-0.094C0.319,-0.08 0.352,-0.073 0.389,-0.073Z" style="fill:white;fill-rule:nonzero;"/>
            </g>
            <g transform="matrix(12,0,0,12,49.2591,321.334)">
                <path d="M0.059,-0.465L0.149,-0.465L0.149,-0.192C0.149,-0.148 0.158,-0.116 0.176,-0.097C0.194,-0.077 0.22,-0.067 0.254,-0.067C0.28,-0.067 0.302,-0.072 0.319,-0.083C0.335,-0.094 0.349,-0.108 0.36,-0.125C0.371,-0.141 0.378,-0.161 0.383,-0.183C0.387,-0.204 0.389,-0.226 0.389,-0.249L0.389,-0.465L0.479,-0.465L0.479,-0.048C0.479,-0.033 0.479,-0.017 0.48,-0L0.394,-0L0.391,-0.069C0.385,-0.061 0.378,-0.052 0.369,-0.043C0.36,-0.034 0.35,-0.025 0.337,-0.018C0.324,-0.01 0.31,-0.003 0.293,0.002C0.276,0.007 0.257,0.01 0.236,0.01C0.175,0.01 0.131,-0.008 0.102,-0.043C0.073,-0.078 0.059,-0.125 0.059,-0.186L0.059,-0.465Z" style="fill:white;fill-rule:nonzero;"/>
            </g>
            <g transform="matrix(12,0,0,12,55.7691,321.334)">
                <path d="M0.102,-0.39L0.018,-0.39L0.018,-0.465L0.102,-0.465L0.102,-0.617L0.192,-0.617L0.192,-0.465L0.328,-0.465L0.328,-0.39L0.192,-0.39L0.192,-0.161C0.192,-0.124 0.198,-0.098 0.21,-0.084C0.221,-0.07 0.238,-0.063 0.259,-0.063C0.276,-0.063 0.291,-0.066 0.302,-0.071C0.313,-0.076 0.325,-0.084 0.336,-0.095L0.377,-0.04C0.358,-0.021 0.338,-0.008 0.318,0.001C0.297,0.009 0.273,0.013 0.245,0.013C0.196,0.013 0.16,-0 0.137,-0.027C0.114,-0.054 0.102,-0.095 0.102,-0.152L0.102,-0.39Z" style="fill:white;fill-rule:nonzero;"/>
            </g>
            <g transform="matrix(12,0,0,12,62.5611,321.334)">
                <path d="M0.076,-0.667L0.289,-0.667C0.332,-0.667 0.368,-0.661 0.397,-0.65C0.426,-0.638 0.45,-0.623 0.469,-0.605C0.487,-0.586 0.5,-0.565 0.509,-0.542C0.517,-0.519 0.521,-0.495 0.521,-0.471C0.521,-0.428 0.511,-0.391 0.491,-0.358C0.471,-0.325 0.44,-0.301 0.398,-0.285L0.554,-0L0.446,-0L0.303,-0.273L0.169,-0.273L0.169,-0L0.076,-0L0.076,-0.667ZM0.297,-0.354C0.339,-0.354 0.371,-0.364 0.392,-0.385C0.413,-0.406 0.423,-0.433 0.423,-0.468C0.423,-0.505 0.412,-0.533 0.389,-0.554C0.366,-0.574 0.335,-0.584 0.295,-0.584L0.169,-0.584L0.169,-0.354L0.297,-0.354Z" style="fill:white;fill-rule:nonzero;"/>
            </g>
        </g>
        <g transform="matrix(1,0,0,0.347657,0,132.847)">
            <g transform="matrix(1,-0,-0,2.87639,0,-382.119)">
                <path d="M21.5,194.859L20,197.859L18.5,194.859C19.25,195.609 20.75,195.609 21.5,194.859Z"/>
                <path d="M20,186.733L20,195.459" style="fill:none;stroke:black;stroke-width:1px;stroke-dasharray:1,2,0,0;"/>
            </g>
        </g>
        <g transform="matrix(1,0,0,0.368375,49,129.065)">
            <g transform="matrix(1,-0,-0,2.71463,-49,-350.364)">
                <path d="M70.5,194.951L69,197.951L67.5,194.951C68.25,195.701 69.75,195.701 70.5,194.951Z"/>
                <path d="M69,186.163L69,195.551" style="fill:none;stroke:black;stroke-width:1px;stroke-dasharray:1,2,0,0;"/>
            </g>
        </g>
    </g>
</svg>
