<?xml version="1.0" encoding="UTF-8" standalone="no"?>
<!DOCTYPE svg PUBLIC "-//W3C//DTD SVG 1.1//EN" "http://www.w3.org/Graphics/SVG/1.1/DTD/svg11.dtd">
<svg width="100%" height="100%" viewBox="0 0 90 380" version="1.1" xmlns="http://www.w3.org/2000/svg" xmlns:xlink="http://www.w3.org/1999/xlink" xml:space="preserve" xmlns:serif="http://www.serif.com/" style="fill-rule:evenodd;clip-rule:evenodd;stroke-linejoin:round;stroke-miterlimit:2;">
    <g id="svg8">
        <rect x="0" y="0" width="90" height="380" style="fill:rgb(240,240,240);"/>
        <g transform="matrix(1,0,0,1,25.7842,350.154)">
            <path d="M0,11.424L-1.606,11.424L-1.606,6.093L-7.682,6.093L-7.682,11.424L-9.288,11.424L-9.288,0L-7.682,0L-7.682,4.719L-1.606,4.719L-1.606,0L0,0L0,11.424Z" style="fill:rgb(35,31,32);fill-rule:nonzero;"/>
        </g>
        <g transform="matrix(1,0,0,1,33.9917,350.154)">
            <path d="M0,11.424L-6.821,11.424L-6.821,0L-0.132,0L-0.132,1.342L-5.215,1.342L-5.215,4.752L-0.414,4.752L-0.414,6.093L-5.215,6.093L-5.215,10.067L0,10.067L0,11.424Z" style="fill:rgb(35,31,32);fill-rule:nonzero;"/>
        </g>
        <g transform="matrix(1,0,0,1,42.8652,360.236)">
            <path d="M0,-8.74L-3.212,-8.74L-3.212,1.342L-4.818,1.342L-4.818,-8.74L-8.046,-8.74L-8.046,-10.082L0,-10.082L0,-8.74Z" style="fill:rgb(35,31,32);fill-rule:nonzero;"/>
        </g>
        <g transform="matrix(1,0,0,1,48.5752,359.855)">
            <path d="M0,-7.978C-0.513,-8.359 -1.126,-8.392 -1.92,-8.392L-3.096,-8.392L-3.096,-4.518L-1.92,-4.518C-1.126,-4.518 -0.513,-4.551 0,-4.915C0.514,-5.296 0.729,-5.76 0.729,-6.456C0.729,-7.134 0.514,-7.614 0,-7.978M3.047,1.723L1.109,1.723L-1.871,-3.194L-3.096,-3.194L-3.096,1.723L-4.702,1.723L-4.702,-9.701L-1.474,-9.701C-0.331,-9.701 0.596,-9.435 1.275,-8.906C1.954,-8.359 2.384,-7.532 2.384,-6.489C2.384,-4.485 0.993,-3.591 -0.215,-3.359L3.047,1.723Z" style="fill:rgb(35,31,32);fill-rule:nonzero;"/>
        </g>
        <g transform="matrix(-1,0,0,1,107.233,331.732)">
            <rect x="52.814" y="18.422" width="1.605" height="11.424" style="fill:rgb(35,31,32);"/>
        </g>
        <g transform="matrix(1,0,0,1,65.542,351.678)">
            <path d="M0,8.41C-0.712,9.205 -2.003,10.099 -4.172,10.099C-7.5,10.099 -10.017,7.764 -10.017,4.205C-10.017,0.645 -7.45,-1.689 -4.172,-1.689C-2.036,-1.689 -0.745,-0.795 -0.116,-0.182L-0.795,1.109C-1.241,0.547 -2.517,-0.281 -4.105,-0.281C-6.572,-0.281 -8.36,1.49 -8.36,4.172C-8.36,6.854 -6.556,8.626 -4.105,8.626C-2.6,8.626 -1.44,8.047 -0.695,7.235L0,8.41Z" style="fill:rgb(237,50,36);fill-rule:nonzero;"/>
        </g>
        <g transform="matrix(1,0,0,1,75.4521,350.154)">
            <path d="M0,11.424L-1.953,11.424L-5.745,5.695L-6.92,6.888L-6.92,11.424L-8.526,11.424L-8.526,0L-6.92,0L-6.92,4.868L-2.268,0L-0.314,0L-4.669,4.504L0,11.424Z" style="fill:rgb(237,50,36);fill-rule:nonzero;"/>
        </g>
        <g transform="matrix(1,0,0,1,75.4521,354.658)">
            <path d="M0,6.92L-1.953,6.92L-5.745,1.191L-6.92,2.384L-6.92,6.92L-8.526,6.92L-8.526,2.361L-6.92,2.384L-5.745,1.191L-4.669,0L-4.052,0.913L-3.555,1.65L0,6.92Z" style="fill-rule:nonzero;"/>
        </g>
        <g transform="matrix(1,0,0,1,77.5576,342.102)">
            <path d="M0,-103.591L-64.63,-103.591C-69.031,-103.591 -72.63,-99.991 -72.63,-95.591L-72.63,-8C-72.63,-3.6 -69.031,0 -64.63,0L0,0C4.399,0 8,-3.6 8,-8L8,-95.591C8,-99.991 4.399,-103.591 0,-103.591" style="fill-rule:nonzero;"/>
        </g>
        <g transform="matrix(1,0,0,1,0,-85.555)">
            <rect x="44.469" y="231.503" width="1.5" height="2.549" style="fill:rgb(35,31,32);"/>
        </g>
        <g transform="matrix(1,0,0,1,0,-76.411)">
            <rect x="44.469" y="226.931" width="1.5" height="2.549" style="fill:rgb(35,31,32);"/>
        </g>
        <g transform="matrix(1,0,0,1,0,-67.297)">
            <rect x="44.469" y="222.374" width="1.5" height="2.549" style="fill:rgb(35,31,32);"/>
        </g>
        <g transform="matrix(1,0,0,1,0,-113.021)">
            <rect x="44.469" y="245.236" width="1.5" height="2.549" style="fill:rgb(35,31,32);"/>
        </g>
        <g transform="matrix(1,0,0,1,0,-103.877)">
            <rect x="44.469" y="240.664" width="1.5" height="2.549" style="fill:rgb(35,31,32);"/>
        </g>
        <g transform="matrix(1,0,0,1,0,-94.763)">
            <rect x="44.469" y="236.107" width="1.5" height="2.549" style="fill:rgb(35,31,32);"/>
        </g>
        <g transform="matrix(1,0,0,1,0,-140.489)">
            <rect x="44.469" y="258.97" width="1.5" height="2.549" style="fill:rgb(35,31,32);"/>
        </g>
        <g transform="matrix(1,0,0,1,0,-131.343)">
            <rect x="44.469" y="254.397" width="1.5" height="2.549" style="fill:rgb(35,31,32);"/>
        </g>
        <g transform="matrix(1,0,0,1,0,-122.229)">
            <rect x="44.469" y="249.84" width="1.5" height="2.549" style="fill:rgb(35,31,32);"/>
        </g>
        <g transform="matrix(1,0,0,1,0,-167.955)">
            <rect x="44.469" y="272.703" width="1.5" height="2.549" style="fill:rgb(35,31,32);"/>
        </g>
        <g transform="matrix(1,0,0,1,0,-158.811)">
            <rect x="44.469" y="268.131" width="1.5" height="2.549" style="fill:rgb(35,31,32);"/>
        </g>
        <g transform="matrix(1,0,0,1,0,-149.697)">
            <rect x="44.469" y="263.574" width="1.5" height="2.549" style="fill:rgb(35,31,32);"/>
        </g>
        <g transform="matrix(1,0,0,1,0,-195.421)">
            <rect x="44.469" y="286.436" width="1.5" height="2.549" style="fill:rgb(35,31,32);"/>
        </g>
        <g transform="matrix(1,0,0,1,0,-186.277)">
            <rect x="44.469" y="281.864" width="1.5" height="2.549" style="fill:rgb(35,31,32);"/>
        </g>
        <g transform="matrix(1,0,0,1,0,-177.163)">
            <rect x="44.469" y="277.307" width="1.5" height="2.549" style="fill:rgb(35,31,32);"/>
        </g>
        <g transform="matrix(1,0,0,1,76.5107,253.622)">
            <path d="M0,-63.622L-21.984,-63.622C-26.96,-63.622 -31.031,-59.551 -31.031,-54.575L-31.031,-9.047C-31.031,-4.07 -26.96,0 -21.984,0L0,0C4.976,0 9.047,-4.07 9.047,-9.047L9.047,-54.575C9.047,-59.551 4.976,-63.622 0,-63.622" style="fill-rule:nonzero;"/>
        </g>
        <g transform="matrix(18,0,0,18,24.7056,28.8369)">
            <path d="M0.076,-0.667L0.299,-0.667C0.352,-0.667 0.4,-0.661 0.445,-0.648C0.489,-0.634 0.527,-0.614 0.559,-0.587C0.591,-0.559 0.616,-0.524 0.634,-0.482C0.652,-0.44 0.661,-0.39 0.661,-0.332C0.661,-0.276 0.652,-0.227 0.634,-0.186C0.616,-0.144 0.591,-0.109 0.559,-0.082C0.527,-0.054 0.489,-0.033 0.444,-0.02C0.399,-0.007 0.351,-0 0.298,-0L0.076,-0L0.076,-0.667ZM0.296,-0.086C0.379,-0.086 0.444,-0.107 0.491,-0.148C0.537,-0.189 0.56,-0.249 0.56,-0.33C0.56,-0.411 0.538,-0.473 0.493,-0.517C0.448,-0.56 0.382,-0.581 0.293,-0.581L0.172,-0.581L0.172,-0.086L0.296,-0.086Z" style="fill-rule:nonzero;"/>
        </g>
        <g transform="matrix(18,0,0,18,37.1886,28.8369)">
            <path d="M0.486,-0.068C0.481,-0.062 0.473,-0.054 0.462,-0.045C0.451,-0.036 0.438,-0.027 0.421,-0.018C0.404,-0.009 0.384,-0.002 0.361,0.004C0.338,0.011 0.311,0.014 0.282,0.014C0.246,0.014 0.213,0.008 0.183,-0.004C0.153,-0.016 0.127,-0.033 0.106,-0.055C0.085,-0.077 0.068,-0.103 0.057,-0.134C0.045,-0.165 0.039,-0.199 0.039,-0.236C0.039,-0.27 0.045,-0.302 0.056,-0.332C0.067,-0.361 0.083,-0.387 0.104,-0.408C0.125,-0.43 0.149,-0.447 0.178,-0.46C0.206,-0.473 0.237,-0.479 0.271,-0.479C0.311,-0.479 0.345,-0.471 0.374,-0.456C0.403,-0.441 0.426,-0.42 0.445,-0.395C0.463,-0.37 0.476,-0.341 0.485,-0.308C0.494,-0.275 0.498,-0.241 0.498,-0.206L0.131,-0.206C0.132,-0.185 0.136,-0.166 0.145,-0.149C0.153,-0.132 0.164,-0.117 0.178,-0.104C0.192,-0.091 0.208,-0.081 0.226,-0.074C0.244,-0.067 0.263,-0.063 0.283,-0.063C0.322,-0.063 0.355,-0.07 0.38,-0.083C0.405,-0.096 0.424,-0.109 0.435,-0.122L0.486,-0.068ZM0.405,-0.273C0.402,-0.309 0.39,-0.34 0.367,-0.365C0.344,-0.39 0.312,-0.403 0.271,-0.403C0.25,-0.403 0.231,-0.399 0.214,-0.392C0.197,-0.385 0.182,-0.375 0.17,-0.363C0.158,-0.351 0.149,-0.337 0.142,-0.322C0.135,-0.306 0.132,-0.29 0.131,-0.273L0.405,-0.273Z" style="fill-rule:nonzero;"/>
        </g>
        <g transform="matrix(18,0,0,18,46.4496,28.8369)">
            <rect x="0.062" y="-0.667" width="0.09" height="0.667" style="fill-rule:nonzero;"/>
        </g>
        <g transform="matrix(18,0,0,18,49.9146,28.8369)">
            <path d="M0.102,-0.39L0.018,-0.39L0.018,-0.465L0.102,-0.465L0.102,-0.617L0.192,-0.617L0.192,-0.465L0.328,-0.465L0.328,-0.39L0.192,-0.39L0.192,-0.161C0.192,-0.124 0.198,-0.098 0.21,-0.084C0.221,-0.07 0.238,-0.063 0.259,-0.063C0.276,-0.063 0.291,-0.066 0.302,-0.071C0.313,-0.076 0.325,-0.084 0.336,-0.095L0.377,-0.04C0.358,-0.021 0.338,-0.008 0.318,0C0.297,0.009 0.273,0.013 0.245,0.013C0.196,0.013 0.16,-0 0.137,-0.027C0.114,-0.054 0.102,-0.095 0.102,-0.152L0.102,-0.39Z" style="fill-rule:nonzero;"/>
        </g>
        <g transform="matrix(18,0,0,18,56.4396,28.8369)">
            <path d="M0.352,-0.22C0.349,-0.221 0.344,-0.222 0.337,-0.223C0.329,-0.224 0.32,-0.224 0.31,-0.225C0.3,-0.226 0.289,-0.226 0.278,-0.227C0.267,-0.228 0.256,-0.228 0.245,-0.228C0.22,-0.228 0.199,-0.225 0.184,-0.219C0.168,-0.213 0.156,-0.205 0.147,-0.197C0.138,-0.188 0.131,-0.178 0.128,-0.167C0.125,-0.156 0.123,-0.145 0.123,-0.135C0.123,-0.11 0.132,-0.091 0.149,-0.078C0.166,-0.065 0.19,-0.058 0.221,-0.058C0.238,-0.058 0.255,-0.061 0.271,-0.067C0.286,-0.073 0.3,-0.081 0.312,-0.091C0.324,-0.101 0.334,-0.113 0.341,-0.126C0.348,-0.139 0.352,-0.153 0.352,-0.167L0.352,-0.22ZM0.353,-0.056C0.336,-0.033 0.313,-0.015 0.284,-0.004C0.256,0.007 0.227,0.013 0.197,0.013C0.178,0.013 0.159,0.01 0.14,0.005C0.121,0 0.103,-0.008 0.087,-0.02C0.072,-0.031 0.059,-0.046 0.05,-0.065C0.04,-0.083 0.035,-0.105 0.035,-0.132C0.035,-0.182 0.053,-0.222 0.087,-0.252C0.123,-0.282 0.173,-0.297 0.239,-0.297C0.25,-0.297 0.261,-0.297 0.273,-0.296C0.285,-0.295 0.296,-0.295 0.307,-0.294C0.318,-0.293 0.327,-0.293 0.335,-0.292C0.343,-0.291 0.349,-0.291 0.352,-0.29L0.352,-0.307C0.352,-0.342 0.342,-0.367 0.321,-0.382C0.3,-0.397 0.271,-0.404 0.235,-0.404C0.2,-0.404 0.172,-0.399 0.151,-0.39C0.13,-0.38 0.113,-0.37 0.099,-0.36L0.057,-0.421C0.065,-0.428 0.075,-0.434 0.086,-0.441C0.097,-0.448 0.111,-0.454 0.126,-0.46C0.141,-0.465 0.159,-0.47 0.178,-0.473C0.197,-0.477 0.22,-0.479 0.245,-0.479C0.305,-0.479 0.352,-0.465 0.387,-0.436C0.421,-0.406 0.438,-0.365 0.438,-0.312L0.438,-0.042C0.438,-0.025 0.438,-0.011 0.439,-0L0.355,-0L0.353,-0.056Z" style="fill-rule:nonzero;"/>
        </g>
        <g transform="matrix(12,0,0,12,30.2764,178.333)">
            <path d="M0.076,-0.667L0.302,-0.667C0.337,-0.667 0.367,-0.663 0.392,-0.654C0.417,-0.645 0.438,-0.632 0.455,-0.617C0.472,-0.602 0.484,-0.584 0.493,-0.563C0.501,-0.542 0.505,-0.52 0.505,-0.497C0.505,-0.476 0.501,-0.456 0.494,-0.439C0.486,-0.422 0.476,-0.407 0.466,-0.395C0.455,-0.383 0.443,-0.373 0.43,-0.366C0.417,-0.359 0.405,-0.354 0.394,-0.353C0.408,-0.351 0.424,-0.347 0.441,-0.341C0.458,-0.334 0.473,-0.325 0.488,-0.312C0.503,-0.299 0.515,-0.283 0.525,-0.263C0.535,-0.242 0.54,-0.217 0.54,-0.187C0.54,-0.151 0.534,-0.121 0.521,-0.098C0.507,-0.074 0.49,-0.055 0.468,-0.04C0.445,-0.025 0.419,-0.015 0.388,-0.009C0.357,-0.003 0.325,-0 0.29,-0L0.076,-0L0.076,-0.667ZM0.288,-0.389C0.303,-0.389 0.317,-0.391 0.332,-0.395C0.347,-0.398 0.36,-0.404 0.372,-0.412C0.384,-0.42 0.394,-0.43 0.401,-0.443C0.408,-0.456 0.412,-0.471 0.412,-0.489C0.412,-0.509 0.408,-0.525 0.401,-0.538C0.394,-0.55 0.384,-0.56 0.372,-0.567C0.36,-0.574 0.347,-0.578 0.332,-0.581C0.317,-0.583 0.303,-0.584 0.288,-0.584L0.169,-0.584L0.169,-0.389L0.288,-0.389ZM0.285,-0.083C0.302,-0.083 0.32,-0.084 0.339,-0.086C0.358,-0.088 0.375,-0.093 0.391,-0.1C0.406,-0.107 0.419,-0.118 0.429,-0.133C0.439,-0.147 0.444,-0.167 0.444,-0.192C0.444,-0.216 0.439,-0.235 0.43,-0.25C0.42,-0.265 0.407,-0.276 0.393,-0.285C0.378,-0.294 0.361,-0.3 0.343,-0.303C0.325,-0.306 0.308,-0.307 0.291,-0.307L0.169,-0.307L0.169,-0.083L0.285,-0.083Z" style="fill-rule:nonzero;"/>
        </g>
        <g transform="matrix(12,0,0,12,37.1674,178.333)">
            <path d="M0.286,0.014C0.25,0.014 0.217,0.007 0.187,-0.006C0.157,-0.019 0.131,-0.036 0.11,-0.059C0.088,-0.082 0.071,-0.108 0.059,-0.138C0.046,-0.167 0.04,-0.199 0.04,-0.233C0.04,-0.267 0.046,-0.299 0.059,-0.329C0.071,-0.358 0.088,-0.384 0.11,-0.407C0.131,-0.43 0.157,-0.448 0.187,-0.461C0.217,-0.473 0.25,-0.48 0.286,-0.48C0.321,-0.48 0.354,-0.473 0.384,-0.461C0.414,-0.448 0.44,-0.43 0.462,-0.407C0.484,-0.384 0.501,-0.358 0.514,-0.329C0.526,-0.299 0.532,-0.267 0.532,-0.233C0.532,-0.199 0.526,-0.167 0.514,-0.138C0.501,-0.108 0.484,-0.082 0.462,-0.059C0.44,-0.036 0.414,-0.019 0.384,-0.006C0.354,0.007 0.321,0.014 0.286,0.014ZM0.286,-0.064C0.31,-0.064 0.332,-0.069 0.351,-0.079C0.37,-0.088 0.387,-0.101 0.4,-0.117C0.413,-0.132 0.424,-0.15 0.431,-0.171C0.438,-0.191 0.441,-0.212 0.441,-0.233C0.441,-0.254 0.438,-0.274 0.431,-0.295C0.424,-0.315 0.413,-0.333 0.4,-0.349C0.386,-0.365 0.37,-0.378 0.35,-0.388C0.332,-0.397 0.31,-0.402 0.286,-0.402C0.262,-0.402 0.24,-0.397 0.221,-0.388C0.202,-0.378 0.185,-0.365 0.172,-0.349C0.159,-0.334 0.149,-0.316 0.141,-0.296C0.135,-0.275 0.131,-0.254 0.131,-0.233C0.131,-0.212 0.135,-0.191 0.141,-0.171C0.149,-0.151 0.159,-0.133 0.172,-0.117C0.186,-0.101 0.203,-0.088 0.222,-0.079C0.241,-0.069 0.262,-0.064 0.286,-0.064Z" style="fill-rule:nonzero;"/>
        </g>
        <g transform="matrix(12,0,0,12,43.8424,178.333)">
            <path d="M0.286,0.014C0.25,0.014 0.217,0.007 0.187,-0.006C0.157,-0.019 0.131,-0.036 0.11,-0.059C0.088,-0.082 0.071,-0.108 0.059,-0.138C0.046,-0.167 0.04,-0.199 0.04,-0.233C0.04,-0.267 0.046,-0.299 0.059,-0.329C0.071,-0.358 0.088,-0.384 0.11,-0.407C0.131,-0.43 0.157,-0.448 0.187,-0.461C0.217,-0.473 0.25,-0.48 0.286,-0.48C0.321,-0.48 0.354,-0.473 0.384,-0.461C0.414,-0.448 0.44,-0.43 0.462,-0.407C0.484,-0.384 0.501,-0.358 0.514,-0.329C0.526,-0.299 0.532,-0.267 0.532,-0.233C0.532,-0.199 0.526,-0.167 0.514,-0.138C0.501,-0.108 0.484,-0.082 0.462,-0.059C0.44,-0.036 0.414,-0.019 0.384,-0.006C0.354,0.007 0.321,0.014 0.286,0.014ZM0.286,-0.064C0.31,-0.064 0.332,-0.069 0.351,-0.079C0.37,-0.088 0.387,-0.101 0.4,-0.117C0.413,-0.132 0.424,-0.15 0.431,-0.171C0.438,-0.191 0.441,-0.212 0.441,-0.233C0.441,-0.254 0.438,-0.274 0.431,-0.295C0.424,-0.315 0.413,-0.333 0.4,-0.349C0.386,-0.365 0.37,-0.378 0.35,-0.388C0.332,-0.397 0.31,-0.402 0.286,-0.402C0.262,-0.402 0.24,-0.397 0.221,-0.388C0.202,-0.378 0.185,-0.365 0.172,-0.349C0.159,-0.334 0.149,-0.316 0.141,-0.296C0.135,-0.275 0.131,-0.254 0.131,-0.233C0.131,-0.212 0.135,-0.191 0.141,-0.171C0.149,-0.151 0.159,-0.133 0.172,-0.117C0.186,-0.101 0.203,-0.088 0.222,-0.079C0.241,-0.069 0.262,-0.064 0.286,-0.064Z" style="fill-rule:nonzero;"/>
        </g>
        <g transform="matrix(12,0,0,12,50.5174,178.333)">
            <path d="M0.092,-0.117C0.109,-0.1 0.129,-0.087 0.152,-0.077C0.175,-0.067 0.202,-0.062 0.233,-0.062C0.263,-0.062 0.288,-0.067 0.308,-0.077C0.328,-0.086 0.338,-0.101 0.338,-0.122C0.338,-0.133 0.336,-0.142 0.332,-0.15C0.327,-0.157 0.32,-0.164 0.31,-0.17C0.299,-0.176 0.285,-0.182 0.269,-0.187C0.252,-0.192 0.23,-0.197 0.205,-0.203C0.187,-0.207 0.169,-0.212 0.152,-0.219C0.134,-0.226 0.118,-0.234 0.104,-0.246C0.09,-0.257 0.079,-0.27 0.07,-0.285C0.061,-0.301 0.057,-0.32 0.057,-0.342C0.057,-0.365 0.062,-0.385 0.073,-0.402C0.083,-0.419 0.097,-0.433 0.114,-0.445C0.131,-0.456 0.151,-0.465 0.172,-0.471C0.194,-0.477 0.217,-0.48 0.24,-0.48C0.279,-0.48 0.313,-0.475 0.342,-0.465C0.37,-0.454 0.395,-0.44 0.416,-0.421L0.367,-0.359C0.353,-0.372 0.336,-0.382 0.315,-0.391C0.294,-0.4 0.269,-0.404 0.241,-0.404C0.212,-0.404 0.189,-0.399 0.172,-0.39C0.155,-0.381 0.146,-0.365 0.146,-0.344C0.146,-0.324 0.158,-0.309 0.181,-0.3C0.203,-0.29 0.234,-0.281 0.271,-0.272C0.293,-0.267 0.314,-0.261 0.333,-0.254C0.352,-0.247 0.368,-0.237 0.383,-0.227C0.397,-0.216 0.408,-0.202 0.417,-0.186C0.425,-0.17 0.429,-0.151 0.429,-0.128C0.429,-0.105 0.424,-0.084 0.413,-0.067C0.402,-0.049 0.388,-0.034 0.37,-0.022C0.352,-0.01 0.331,-0.001 0.308,0.005C0.285,0.011 0.26,0.014 0.235,0.014C0.147,0.014 0.081,-0.01 0.037,-0.057L0.092,-0.117Z" style="fill-rule:nonzero;"/>
        </g>
        <g transform="matrix(12,0,0,12,55.9924,178.333)">
            <path d="M0.102,-0.39L0.018,-0.39L0.018,-0.465L0.102,-0.465L0.102,-0.617L0.192,-0.617L0.192,-0.465L0.328,-0.465L0.328,-0.39L0.192,-0.39L0.192,-0.161C0.192,-0.124 0.198,-0.098 0.21,-0.084C0.221,-0.07 0.238,-0.063 0.259,-0.063C0.276,-0.063 0.291,-0.066 0.302,-0.071C0.313,-0.076 0.325,-0.084 0.336,-0.095L0.377,-0.04C0.358,-0.021 0.338,-0.008 0.318,0C0.297,0.009 0.273,0.013 0.245,0.013C0.196,0.013 0.16,-0 0.137,-0.027C0.114,-0.054 0.102,-0.095 0.102,-0.152L0.102,-0.39Z" style="fill-rule:nonzero;"/>
        </g>
        <g transform="matrix(12,0,0,12,11.8084,229.561)">
            <rect x="0.076" y="-0.667" width="0.096" height="0.667" style="fill-rule:nonzero;"/>
        </g>
        <g transform="matrix(12,0,0,12,14.8744,229.561)">
            <path d="M0.062,-0L0.062,-0.418C0.062,-0.433 0.062,-0.448 0.061,-0.465L0.147,-0.465L0.15,-0.395C0.156,-0.403 0.163,-0.412 0.172,-0.422C0.181,-0.431 0.191,-0.44 0.204,-0.448C0.217,-0.456 0.232,-0.463 0.249,-0.468C0.266,-0.473 0.285,-0.476 0.306,-0.476C0.367,-0.476 0.412,-0.458 0.441,-0.423C0.47,-0.388 0.485,-0.34 0.485,-0.279L0.485,-0L0.395,-0L0.395,-0.272C0.395,-0.315 0.386,-0.347 0.367,-0.368C0.348,-0.388 0.322,-0.398 0.288,-0.398C0.262,-0.398 0.24,-0.393 0.223,-0.382C0.206,-0.371 0.192,-0.358 0.182,-0.341C0.171,-0.324 0.164,-0.304 0.159,-0.282C0.154,-0.261 0.152,-0.239 0.152,-0.216L0.152,-0L0.062,-0Z" style="fill-rule:nonzero;"/>
        </g>
        <g transform="matrix(12,0,0,12,21.4924,229.561)">
            <path d="M0.062,0.2L0.062,-0.418C0.062,-0.433 0.062,-0.448 0.061,-0.465L0.147,-0.465L0.15,-0.399C0.155,-0.405 0.161,-0.412 0.17,-0.421C0.179,-0.43 0.19,-0.438 0.203,-0.446C0.216,-0.454 0.231,-0.461 0.248,-0.467C0.265,-0.472 0.285,-0.475 0.308,-0.475C0.344,-0.475 0.375,-0.468 0.402,-0.455C0.428,-0.442 0.45,-0.424 0.467,-0.401C0.484,-0.378 0.497,-0.352 0.505,-0.323C0.514,-0.294 0.518,-0.263 0.518,-0.23C0.518,-0.188 0.511,-0.152 0.497,-0.121C0.482,-0.09 0.464,-0.065 0.441,-0.045C0.418,-0.025 0.392,-0.01 0.364,-0.001C0.335,0.009 0.307,0.014 0.28,0.014C0.249,0.014 0.224,0.011 0.204,0.004C0.186,-0.002 0.168,-0.009 0.151,-0.016L0.151,0.2L0.062,0.2ZM0.151,-0.101C0.162,-0.092 0.177,-0.084 0.197,-0.076C0.217,-0.068 0.242,-0.064 0.272,-0.064C0.295,-0.064 0.316,-0.068 0.335,-0.077C0.354,-0.085 0.37,-0.097 0.384,-0.112C0.397,-0.127 0.408,-0.144 0.415,-0.164C0.422,-0.184 0.426,-0.206 0.426,-0.23C0.426,-0.253 0.424,-0.274 0.419,-0.294C0.413,-0.314 0.406,-0.332 0.395,-0.347C0.384,-0.362 0.369,-0.375 0.352,-0.384C0.335,-0.393 0.313,-0.397 0.288,-0.397C0.256,-0.397 0.229,-0.388 0.206,-0.371C0.183,-0.353 0.167,-0.327 0.158,-0.293C0.155,-0.282 0.153,-0.271 0.152,-0.259C0.151,-0.246 0.151,-0.233 0.151,-0.22L0.151,-0.101Z" style="fill-rule:nonzero;"/>
        </g>
        <g transform="matrix(12,0,0,12,28.2784,229.561)">
            <path d="M0.059,-0.465L0.149,-0.465L0.149,-0.192C0.149,-0.148 0.158,-0.116 0.176,-0.097C0.194,-0.077 0.22,-0.067 0.254,-0.067C0.28,-0.067 0.302,-0.072 0.319,-0.083C0.336,-0.094 0.349,-0.108 0.36,-0.125C0.371,-0.141 0.378,-0.161 0.383,-0.183C0.387,-0.204 0.389,-0.226 0.389,-0.249L0.389,-0.465L0.479,-0.465L0.479,-0.048C0.479,-0.033 0.479,-0.017 0.48,-0L0.394,-0L0.391,-0.069C0.385,-0.061 0.378,-0.052 0.369,-0.043C0.36,-0.034 0.35,-0.025 0.337,-0.018C0.324,-0.01 0.31,-0.003 0.293,0.002C0.276,0.007 0.257,0.01 0.236,0.01C0.175,0.01 0.131,-0.008 0.102,-0.043C0.073,-0.078 0.059,-0.125 0.059,-0.186L0.059,-0.465Z" style="fill-rule:nonzero;"/>
        </g>
        <g transform="matrix(12,0,0,12,34.8724,229.561)">
            <path d="M0.102,-0.39L0.018,-0.39L0.018,-0.465L0.102,-0.465L0.102,-0.617L0.192,-0.617L0.192,-0.465L0.328,-0.465L0.328,-0.39L0.192,-0.39L0.192,-0.161C0.192,-0.124 0.198,-0.098 0.21,-0.084C0.221,-0.07 0.238,-0.063 0.259,-0.063C0.276,-0.063 0.291,-0.066 0.302,-0.071C0.313,-0.076 0.325,-0.084 0.336,-0.095L0.377,-0.04C0.358,-0.021 0.338,-0.008 0.318,0C0.297,0.009 0.273,0.013 0.245,0.013C0.196,0.013 0.16,-0 0.137,-0.027C0.114,-0.054 0.102,-0.095 0.102,-0.152L0.102,-0.39Z" style="fill-rule:nonzero;"/>
        </g>
        <g transform="matrix(8,0,0,8,37.6177,135.001)">
            <rect x="0.073" y="-0.323" width="0.293" height="0.086" style="fill-rule:nonzero;"/>
        </g>
        <g transform="matrix(8,0,0,8,49.6177,135.001)">
            <path d="M0.073,-0.36L0.234,-0.36L0.234,-0.517L0.312,-0.517L0.312,-0.36L0.472,-0.36L0.472,-0.282L0.313,-0.282L0.313,-0.125L0.234,-0.125L0.234,-0.282L0.073,-0.282L0.073,-0.36Z" style="fill-rule:nonzero;"/>
        </g>
        <g transform="matrix(12,0,0,12,21.2124,271.666)">
            <path d="M0.071,-0.349L0.437,-0.541L0.471,-0.473L0.176,-0.32L0.471,-0.167L0.437,-0.099L0.071,-0.291L0.071,-0.349Z" style="fill:white;fill-rule:nonzero;"/>
        </g>
        <g>
            <g transform="matrix(12,0,0,12,61.2684,271.666)">
                <path d="M0.073,-0.167L0.368,-0.32L0.073,-0.473L0.107,-0.541L0.473,-0.349L0.473,-0.291L0.107,-0.099L0.073,-0.167Z" style="fill:white;fill-rule:nonzero;"/>
            </g>
            <g transform="matrix(12,0,0,12,40.7604,300.476)">
                <path d="M0.417,-0.339L0.651,-0.339L0.651,-0.073C0.638,-0.062 0.624,-0.051 0.608,-0.04C0.591,-0.029 0.572,-0.02 0.551,-0.012C0.529,-0.003 0.505,0.003 0.478,0.008C0.451,0.013 0.421,0.016 0.388,0.016C0.336,0.016 0.289,0.007 0.248,-0.011C0.206,-0.028 0.17,-0.053 0.141,-0.084C0.111,-0.115 0.088,-0.151 0.073,-0.194C0.057,-0.236 0.049,-0.282 0.049,-0.332C0.049,-0.381 0.057,-0.426 0.074,-0.469C0.09,-0.512 0.113,-0.549 0.142,-0.581C0.171,-0.612 0.206,-0.637 0.248,-0.656C0.289,-0.674 0.334,-0.683 0.384,-0.683C0.419,-0.683 0.451,-0.679 0.479,-0.671C0.507,-0.662 0.532,-0.652 0.553,-0.639C0.574,-0.625 0.591,-0.611 0.606,-0.596C0.621,-0.581 0.633,-0.566 0.643,-0.552L0.575,-0.494C0.567,-0.505 0.557,-0.517 0.546,-0.53C0.535,-0.542 0.521,-0.553 0.506,-0.563C0.491,-0.573 0.473,-0.581 0.454,-0.588C0.434,-0.595 0.411,-0.598 0.386,-0.598C0.349,-0.598 0.316,-0.591 0.287,-0.577C0.258,-0.563 0.233,-0.544 0.213,-0.52C0.192,-0.496 0.177,-0.468 0.166,-0.436C0.155,-0.403 0.149,-0.369 0.149,-0.333C0.149,-0.294 0.155,-0.259 0.167,-0.227C0.179,-0.195 0.196,-0.168 0.218,-0.145C0.239,-0.122 0.265,-0.103 0.294,-0.091C0.323,-0.078 0.356,-0.071 0.391,-0.071C0.43,-0.071 0.463,-0.075 0.49,-0.084C0.517,-0.093 0.54,-0.105 0.559,-0.12L0.559,-0.256L0.417,-0.256L0.417,-0.339Z" style="fill:rgb(252,252,252);fill-rule:nonzero;"/>
            </g>
        </g>
        <g transform="matrix(1,0,0,1,-6.2098,0)">
            <g transform="matrix(12,0,0,12,47.7264,330.875)">
                <path d="M0.263,-0.583L0.024,-0.583L0.024,-0.667L0.597,-0.667L0.597,-0.583L0.359,-0.583L0.359,-0L0.263,-0L0.263,-0.583Z" style="fill:rgb(252,252,252);fill-rule:nonzero;"/>
            </g>
        </g>
        <g transform="matrix(8,0,0,8,15.5625,94.2002)">
            <path d="M0.188,-0.24L0.021,-0.465L0.133,-0.465L0.245,-0.311L0.355,-0.465L0.455,-0.465L0.293,-0.247L0.478,-0L0.365,-0L0.236,-0.176L0.109,-0L0.008,-0L0.188,-0.24Z" style="fill-rule:nonzero;"/>
        </g>
        <g transform="matrix(8,0,0,8,19.5305,94.2002)">
            <path d="M0.141,-0.08L0.253,-0.08L0.253,-0.535L0.123,-0.465L0.086,-0.536L0.263,-0.633L0.344,-0.633L0.344,-0.08L0.454,-0.08L0.454,-0L0.141,-0L0.141,-0.08Z" style="fill-rule:nonzero;"/>
        </g>
        <g transform="matrix(8,0,0,8,62.5865,94.2002)">
            <path d="M0.188,-0.24L0.021,-0.465L0.133,-0.465L0.245,-0.311L0.355,-0.465L0.455,-0.465L0.293,-0.247L0.478,-0L0.365,-0L0.236,-0.176L0.109,-0L0.008,-0L0.188,-0.24Z" style="fill-rule:nonzero;"/>
        </g>
        <g transform="matrix(8,0,0,8,66.7465,94.2002)">
            <path d="M0.273,-0.379C0.305,-0.389 0.331,-0.404 0.35,-0.423C0.369,-0.442 0.379,-0.465 0.379,-0.491C0.379,-0.516 0.369,-0.536 0.35,-0.553C0.331,-0.569 0.305,-0.577 0.273,-0.577C0.241,-0.577 0.215,-0.569 0.196,-0.553C0.177,-0.536 0.167,-0.514 0.167,-0.486C0.167,-0.463 0.176,-0.442 0.195,-0.423C0.213,-0.404 0.239,-0.389 0.273,-0.379ZM0.269,-0.302C0.251,-0.297 0.234,-0.291 0.218,-0.282C0.202,-0.274 0.188,-0.265 0.176,-0.254C0.164,-0.243 0.155,-0.23 0.148,-0.217C0.141,-0.203 0.137,-0.188 0.137,-0.172C0.137,-0.152 0.141,-0.135 0.15,-0.121C0.158,-0.106 0.169,-0.095 0.182,-0.086C0.195,-0.077 0.209,-0.07 0.225,-0.066C0.241,-0.062 0.257,-0.06 0.273,-0.06C0.289,-0.06 0.305,-0.062 0.321,-0.066C0.337,-0.07 0.352,-0.077 0.365,-0.086C0.378,-0.095 0.388,-0.106 0.396,-0.121C0.404,-0.135 0.408,-0.152 0.408,-0.172C0.408,-0.188 0.404,-0.203 0.397,-0.217C0.389,-0.23 0.379,-0.243 0.366,-0.254C0.353,-0.265 0.338,-0.274 0.321,-0.282C0.304,-0.291 0.287,-0.297 0.269,-0.302ZM0.176,-0.344C0.149,-0.358 0.127,-0.377 0.108,-0.4C0.089,-0.423 0.08,-0.452 0.08,-0.486C0.08,-0.509 0.085,-0.531 0.094,-0.551C0.102,-0.571 0.115,-0.588 0.132,-0.603C0.149,-0.617 0.169,-0.628 0.193,-0.636C0.216,-0.644 0.243,-0.648 0.273,-0.648C0.304,-0.648 0.332,-0.644 0.356,-0.636C0.38,-0.628 0.4,-0.617 0.416,-0.603C0.432,-0.589 0.444,-0.573 0.453,-0.554C0.461,-0.535 0.465,-0.514 0.465,-0.492C0.465,-0.461 0.456,-0.432 0.439,-0.407C0.422,-0.382 0.397,-0.362 0.365,-0.347C0.377,-0.342 0.391,-0.334 0.406,-0.325C0.422,-0.316 0.437,-0.304 0.451,-0.289C0.465,-0.274 0.477,-0.257 0.487,-0.237C0.496,-0.218 0.501,-0.195 0.501,-0.17C0.501,-0.149 0.497,-0.127 0.489,-0.105C0.48,-0.083 0.467,-0.063 0.449,-0.045C0.43,-0.027 0.406,-0.012 0.378,-0.001C0.348,0.01 0.314,0.016 0.273,0.016C0.231,0.016 0.196,0.01 0.167,-0.001C0.138,-0.012 0.114,-0.027 0.096,-0.045C0.078,-0.063 0.065,-0.083 0.057,-0.105C0.048,-0.126 0.044,-0.148 0.044,-0.169C0.044,-0.191 0.048,-0.211 0.055,-0.229C0.062,-0.247 0.072,-0.263 0.085,-0.278C0.097,-0.293 0.111,-0.306 0.127,-0.317C0.143,-0.328 0.159,-0.337 0.176,-0.344Z" style="fill-rule:nonzero;"/>
        </g>
        <g transform="matrix(8,0,0,8,71.3705,94.2002)">
            <path d="M0.272,0.014C0.233,0.014 0.198,0.006 0.169,-0.01C0.139,-0.026 0.114,-0.049 0.094,-0.078C0.073,-0.107 0.058,-0.143 0.048,-0.184C0.037,-0.225 0.032,-0.271 0.032,-0.322C0.032,-0.372 0.037,-0.417 0.048,-0.457C0.058,-0.497 0.073,-0.531 0.094,-0.56C0.115,-0.588 0.14,-0.61 0.17,-0.625C0.199,-0.64 0.234,-0.648 0.273,-0.648C0.312,-0.648 0.346,-0.64 0.376,-0.625C0.406,-0.61 0.431,-0.588 0.452,-0.56C0.472,-0.531 0.487,-0.497 0.498,-0.457C0.508,-0.417 0.513,-0.372 0.513,-0.322C0.513,-0.271 0.508,-0.225 0.498,-0.184C0.487,-0.143 0.472,-0.107 0.451,-0.078C0.43,-0.049 0.405,-0.026 0.375,-0.01C0.345,0.006 0.311,0.014 0.272,0.014ZM0.272,-0.069C0.296,-0.069 0.317,-0.075 0.336,-0.087C0.354,-0.1 0.369,-0.117 0.382,-0.14C0.394,-0.162 0.403,-0.189 0.409,-0.22C0.416,-0.251 0.419,-0.285 0.419,-0.322C0.419,-0.359 0.416,-0.392 0.409,-0.422C0.403,-0.452 0.394,-0.477 0.381,-0.499C0.368,-0.52 0.353,-0.536 0.335,-0.547C0.317,-0.558 0.296,-0.564 0.272,-0.564C0.248,-0.564 0.227,-0.558 0.209,-0.547C0.191,-0.536 0.176,-0.52 0.164,-0.499C0.151,-0.477 0.142,-0.452 0.136,-0.422C0.129,-0.392 0.126,-0.359 0.126,-0.322C0.126,-0.285 0.129,-0.251 0.136,-0.22C0.142,-0.189 0.151,-0.162 0.164,-0.14C0.176,-0.117 0.191,-0.1 0.209,-0.087C0.227,-0.075 0.248,-0.069 0.272,-0.069Z" style="fill-rule:nonzero;"/>
        </g>
        <g transform="matrix(8,0,0,8,75.9945,94.2002)">
            <path d="M0.272,0.014C0.233,0.014 0.198,0.006 0.169,-0.01C0.139,-0.026 0.114,-0.049 0.094,-0.078C0.073,-0.107 0.058,-0.143 0.048,-0.184C0.037,-0.225 0.032,-0.271 0.032,-0.322C0.032,-0.372 0.037,-0.417 0.048,-0.457C0.058,-0.497 0.073,-0.531 0.094,-0.56C0.115,-0.588 0.14,-0.61 0.17,-0.625C0.199,-0.64 0.234,-0.648 0.273,-0.648C0.312,-0.648 0.346,-0.64 0.376,-0.625C0.406,-0.61 0.431,-0.588 0.452,-0.56C0.472,-0.531 0.487,-0.497 0.498,-0.457C0.508,-0.417 0.513,-0.372 0.513,-0.322C0.513,-0.271 0.508,-0.225 0.498,-0.184C0.487,-0.143 0.472,-0.107 0.451,-0.078C0.43,-0.049 0.405,-0.026 0.375,-0.01C0.345,0.006 0.311,0.014 0.272,0.014ZM0.272,-0.069C0.296,-0.069 0.317,-0.075 0.336,-0.087C0.354,-0.1 0.369,-0.117 0.382,-0.14C0.394,-0.162 0.403,-0.189 0.409,-0.22C0.416,-0.251 0.419,-0.285 0.419,-0.322C0.419,-0.359 0.416,-0.392 0.409,-0.422C0.403,-0.452 0.394,-0.477 0.381,-0.499C0.368,-0.52 0.353,-0.536 0.335,-0.547C0.317,-0.558 0.296,-0.564 0.272,-0.564C0.248,-0.564 0.227,-0.558 0.209,-0.547C0.191,-0.536 0.176,-0.52 0.164,-0.499C0.151,-0.477 0.142,-0.452 0.136,-0.422C0.129,-0.392 0.126,-0.359 0.126,-0.322C0.126,-0.285 0.129,-0.251 0.136,-0.22C0.142,-0.189 0.151,-0.162 0.164,-0.14C0.176,-0.117 0.191,-0.1 0.209,-0.087C0.227,-0.075 0.248,-0.069 0.272,-0.069Z" style="fill-rule:nonzero;"/>
        </g>
        <g transform="matrix(8,0,0,8,80.6185,94.2002)">
            <path d="M0.272,0.014C0.233,0.014 0.198,0.006 0.169,-0.01C0.139,-0.026 0.114,-0.049 0.094,-0.078C0.073,-0.107 0.058,-0.143 0.048,-0.184C0.037,-0.225 0.032,-0.271 0.032,-0.322C0.032,-0.372 0.037,-0.417 0.048,-0.457C0.058,-0.497 0.073,-0.531 0.094,-0.56C0.115,-0.588 0.14,-0.61 0.17,-0.625C0.199,-0.64 0.234,-0.648 0.273,-0.648C0.312,-0.648 0.346,-0.64 0.376,-0.625C0.406,-0.61 0.431,-0.588 0.452,-0.56C0.472,-0.531 0.487,-0.497 0.498,-0.457C0.508,-0.417 0.513,-0.372 0.513,-0.322C0.513,-0.271 0.508,-0.225 0.498,-0.184C0.487,-0.143 0.472,-0.107 0.451,-0.078C0.43,-0.049 0.405,-0.026 0.375,-0.01C0.345,0.006 0.311,0.014 0.272,0.014ZM0.272,-0.069C0.296,-0.069 0.317,-0.075 0.336,-0.087C0.354,-0.1 0.369,-0.117 0.382,-0.14C0.394,-0.162 0.403,-0.189 0.409,-0.22C0.416,-0.251 0.419,-0.285 0.419,-0.322C0.419,-0.359 0.416,-0.392 0.409,-0.422C0.403,-0.452 0.394,-0.477 0.381,-0.499C0.368,-0.52 0.353,-0.536 0.335,-0.547C0.317,-0.558 0.296,-0.564 0.272,-0.564C0.248,-0.564 0.227,-0.558 0.209,-0.547C0.191,-0.536 0.176,-0.52 0.164,-0.499C0.151,-0.477 0.142,-0.452 0.136,-0.422C0.129,-0.392 0.126,-0.359 0.126,-0.322C0.126,-0.285 0.129,-0.251 0.136,-0.22C0.142,-0.189 0.151,-0.162 0.164,-0.14C0.176,-0.117 0.191,-0.1 0.209,-0.087C0.227,-0.075 0.248,-0.069 0.272,-0.069Z" style="fill-rule:nonzero;"/>
        </g>
        <g transform="matrix(12,0,0,12,51.3423,229.565)">
            <path d="M0.076,-0.667L0.299,-0.667C0.352,-0.667 0.4,-0.661 0.445,-0.648C0.489,-0.634 0.527,-0.614 0.559,-0.587C0.591,-0.559 0.616,-0.524 0.634,-0.482C0.652,-0.44 0.661,-0.39 0.661,-0.332C0.661,-0.276 0.652,-0.227 0.634,-0.186C0.616,-0.144 0.591,-0.109 0.559,-0.082C0.527,-0.054 0.489,-0.033 0.444,-0.02C0.399,-0.007 0.351,-0 0.298,-0L0.076,-0L0.076,-0.667ZM0.296,-0.086C0.379,-0.086 0.444,-0.107 0.491,-0.148C0.537,-0.189 0.56,-0.249 0.56,-0.33C0.56,-0.411 0.538,-0.473 0.493,-0.517C0.448,-0.56 0.382,-0.581 0.293,-0.581L0.172,-0.581L0.172,-0.086L0.296,-0.086Z" style="fill:white;fill-rule:nonzero;"/>
        </g>
        <g transform="matrix(12,0,0,12,59.6643,229.565)">
            <path d="M0.486,-0.068C0.481,-0.062 0.473,-0.054 0.462,-0.045C0.451,-0.036 0.438,-0.027 0.421,-0.018C0.404,-0.009 0.384,-0.002 0.361,0.004C0.338,0.011 0.311,0.014 0.282,0.014C0.246,0.014 0.213,0.008 0.183,-0.004C0.153,-0.016 0.127,-0.033 0.106,-0.055C0.085,-0.077 0.068,-0.103 0.057,-0.134C0.045,-0.165 0.039,-0.199 0.039,-0.236C0.039,-0.27 0.045,-0.302 0.056,-0.332C0.067,-0.361 0.083,-0.387 0.104,-0.408C0.125,-0.43 0.149,-0.447 0.178,-0.46C0.206,-0.473 0.237,-0.479 0.271,-0.479C0.311,-0.479 0.345,-0.471 0.374,-0.456C0.403,-0.441 0.426,-0.42 0.445,-0.395C0.463,-0.37 0.476,-0.341 0.485,-0.308C0.494,-0.275 0.498,-0.241 0.498,-0.206L0.131,-0.206C0.132,-0.185 0.136,-0.166 0.145,-0.149C0.153,-0.132 0.164,-0.117 0.178,-0.104C0.192,-0.091 0.208,-0.081 0.226,-0.074C0.244,-0.067 0.263,-0.063 0.283,-0.063C0.322,-0.063 0.355,-0.07 0.38,-0.083C0.405,-0.096 0.424,-0.109 0.435,-0.122L0.486,-0.068ZM0.405,-0.273C0.402,-0.309 0.39,-0.34 0.367,-0.365C0.344,-0.39 0.312,-0.403 0.271,-0.403C0.25,-0.403 0.231,-0.399 0.214,-0.392C0.197,-0.385 0.182,-0.375 0.17,-0.363C0.158,-0.351 0.149,-0.337 0.142,-0.322C0.135,-0.306 0.132,-0.29 0.131,-0.273L0.405,-0.273Z" style="fill:white;fill-rule:nonzero;"/>
        </g>
        <g transform="matrix(12,0,0,12,65.8383,229.565)">
            <rect x="0.062" y="-0.667" width="0.09" height="0.667" style="fill:white;fill-rule:nonzero;"/>
        </g>
        <g transform="matrix(12,0,0,12,68.1483,229.565)">
            <path d="M0.102,-0.39L0.018,-0.39L0.018,-0.465L0.102,-0.465L0.102,-0.617L0.192,-0.617L0.192,-0.465L0.328,-0.465L0.328,-0.39L0.192,-0.39L0.192,-0.161C0.192,-0.124 0.198,-0.098 0.21,-0.084C0.221,-0.07 0.238,-0.063 0.259,-0.063C0.276,-0.063 0.291,-0.066 0.302,-0.071C0.313,-0.076 0.325,-0.084 0.336,-0.095L0.377,-0.04C0.358,-0.021 0.338,-0.008 0.318,0C0.297,0.009 0.273,0.013 0.245,0.013C0.196,0.013 0.16,-0 0.137,-0.027C0.114,-0.054 0.102,-0.095 0.102,-0.152L0.102,-0.39Z" style="fill:white;fill-rule:nonzero;"/>
        </g>
        <g transform="matrix(12,0,0,12,72.4983,229.565)">
            <path d="M0.352,-0.22C0.349,-0.221 0.344,-0.222 0.337,-0.223C0.329,-0.224 0.32,-0.224 0.31,-0.225C0.3,-0.226 0.289,-0.226 0.278,-0.227C0.267,-0.228 0.256,-0.228 0.245,-0.228C0.22,-0.228 0.199,-0.225 0.184,-0.219C0.168,-0.213 0.156,-0.205 0.147,-0.197C0.138,-0.188 0.131,-0.178 0.128,-0.167C0.125,-0.156 0.123,-0.145 0.123,-0.135C0.123,-0.11 0.132,-0.091 0.149,-0.078C0.166,-0.065 0.19,-0.058 0.221,-0.058C0.238,-0.058 0.255,-0.061 0.271,-0.067C0.286,-0.073 0.3,-0.081 0.312,-0.091C0.324,-0.101 0.334,-0.113 0.341,-0.126C0.348,-0.139 0.352,-0.153 0.352,-0.167L0.352,-0.22ZM0.353,-0.056C0.336,-0.033 0.313,-0.015 0.284,-0.004C0.256,0.007 0.227,0.013 0.197,0.013C0.178,0.013 0.159,0.01 0.14,0.005C0.121,0 0.103,-0.008 0.087,-0.02C0.072,-0.031 0.059,-0.046 0.05,-0.065C0.04,-0.083 0.035,-0.105 0.035,-0.132C0.035,-0.182 0.053,-0.222 0.087,-0.252C0.123,-0.282 0.173,-0.297 0.239,-0.297C0.25,-0.297 0.261,-0.297 0.273,-0.296C0.285,-0.295 0.296,-0.295 0.307,-0.294C0.318,-0.293 0.327,-0.293 0.335,-0.292C0.343,-0.291 0.349,-0.291 0.352,-0.29L0.352,-0.307C0.352,-0.342 0.342,-0.367 0.321,-0.382C0.3,-0.397 0.271,-0.404 0.235,-0.404C0.2,-0.404 0.172,-0.399 0.151,-0.39C0.13,-0.38 0.113,-0.37 0.099,-0.36L0.057,-0.421C0.065,-0.428 0.075,-0.434 0.086,-0.441C0.097,-0.448 0.111,-0.454 0.126,-0.46C0.141,-0.465 0.159,-0.47 0.178,-0.473C0.197,-0.477 0.22,-0.479 0.245,-0.479C0.305,-0.479 0.352,-0.465 0.387,-0.436C0.421,-0.406 0.438,-0.365 0.438,-0.312L0.438,-0.042C0.438,-0.025 0.438,-0.011 0.439,-0L0.355,-0L0.353,-0.056Z" style="fill:white;fill-rule:nonzero;"/>
        </g>
        <g transform="matrix(14,0,0,14,39.5757,46.18)">
            <path d="M0.599,-0L0.013,-0L0.319,-0.677L0.599,-0ZM0.483,-0.04L0.289,-0.512L0.074,-0.04L0.483,-0.04Z" style="fill-rule:nonzero;"/>
        </g>
    </g>
</svg>
