<svg id="svg8" xmlns="http://www.w3.org/2000/svg" width="89.99999" height="380.00004" viewBox="0 0 89.99999 380.00004">
  <title>Dust</title>
  <g id="layer1">
    <path id="rect817" d="M0,0H90V380H0Z" transform="translate(0 0.00002)" style="fill: #f0f0f0"/>
  </g>
  <g>
    <path d="M25.78415,361.57842H24.17823v-5.3311H18.10212v5.3311H16.49619V350.15468h1.60593v4.71854h6.07611v-4.71854h1.60593Z" transform="translate(0 0.00002)" style="fill: #231f20"/>
    <path d="M33.99163,361.57842H27.17051V350.15468h6.68867v1.34109H28.77644v3.41053h4.8013v1.341h-4.8013v3.97347h5.21519Z" transform="translate(0 0.00002)" style="fill: #231f20"/>
    <path d="M42.86514,351.49577H39.65329v10.08265h-1.606V351.49577H34.81891v-1.34109h8.04624Z" transform="translate(0 0.00002)" style="fill: #231f20"/>
    <path d="M51.62163,361.57842H49.68452l-2.98-4.91715H45.47936v4.91715h-1.606V350.15468h3.22846a4.37325,4.37325,0,0,1,2.74834.79469A3.185,3.185,0,0,1,48.36,356.49568Zm-3.04632-9.70191a3.04673,3.04673,0,0,0-1.92045-.41389h-1.1755v3.87416h1.1755a3.15908,3.15908,0,0,0,1.92045-.39735,1.72712,1.72712,0,0,0,.72853-1.5397A1.69838,1.69838,0,0,0,48.57531,351.87651Z" transform="translate(0 0.00002)" style="fill: #231f20"/>
    <path d="M54.41922,361.57842H52.81317V350.15468h1.60605Z" transform="translate(0 0.00002)" style="fill: #231f20"/>
    <path d="M65.54207,360.08834A5.35543,5.35543,0,0,1,61.37,361.77709a5.89517,5.89517,0,1,1,4.05617-10.28133l-.67878,1.29135a4.52732,4.52732,0,0,0-3.31122-1.39071,4.45825,4.45825,0,0,0,0,8.90722,4.52188,4.52188,0,0,0,3.41059-1.39071Z" transform="translate(0 0.00002)" style="fill: #ed3224"/>
    <path d="M75.45235,361.57842H73.4987L69.70743,355.85l-1.1755,1.192v4.5364H66.92588V350.15468h1.60605v4.86753l4.65225-4.86753h1.95353l-4.35415,4.50326Z" transform="translate(0 0.00002)" style="fill: #ed3224"/>
    <path d="M75.45235,361.57842H73.4987L69.70743,355.85l-1.1755,1.192v4.5364H66.92588V357.019l1.60605.023,1.1755-1.192,1.07613-1.192.61637.91363.49748.7374Z" transform="translate(0 0.00002)"/>
  </g>
  <g>
    <path d="M33.35693,27.21582a6.83843,6.83843,0,0,1-4.645,1.62061H24.9668V16.4126h3.74512a6.84084,6.84084,0,0,1,4.645,1.62061,6.00229,6.00229,0,0,1,1.92676,4.59131A6.00229,6.00229,0,0,1,33.35693,27.21582Zm-1.33252-8.15625a4.73745,4.73745,0,0,0-3.3125-1.15234h-1.999v9.4165h1.999a4.73745,4.73745,0,0,0,3.3125-1.15234A4.676,4.676,0,0,0,33.501,22.62451,4.72185,4.72185,0,0,0,32.02441,19.05957Z" transform="translate(0 0.00002)"/>
    <path d="M46.67676,23.75879A5.48976,5.48976,0,0,1,45.68652,27.54a4.70386,4.70386,0,0,1-3.72705,1.51221A4.65335,4.65335,0,0,1,38.23242,27.54a5.40653,5.40653,0,0,1-1.0083-3.78125V16.4126h1.76465v7.18408a4.55308,4.55308,0,0,0,.57617,2.791,3.16027,3.16027,0,0,0,4.78955,0,4.581,4.581,0,0,0,.57617-2.791V16.4126h1.74609Z" transform="translate(0 0.00002)"/>
    <path d="M55.62109,28.08008a4.69948,4.69948,0,0,1-3.043.97217,5.20288,5.20288,0,0,1-4.01465-2.08838l1.02637-1.17041a4.20142,4.20142,0,0,0,3.15039,1.78271A2.174,2.174,0,0,0,55.1709,25.4873c0-1.29639-1.38574-1.80029-2.0166-2.05225-.64746-.25244-1.51172-.59424-1.98047-.82861a4.003,4.003,0,0,1-1.24219-.88232,2.98389,2.98389,0,0,1-.81055-2.16064,3.09116,3.09116,0,0,1,1.13477-2.39453,4.36281,4.36281,0,0,1,2.86328-.91846A4.84323,4.84323,0,0,1,56.68359,17.853l-.918,1.18848a3.77551,3.77551,0,0,0-2.7373-1.33252c-1.22363,0-2.16016.57617-2.16016,1.72852s.8457,1.58447,1.60254,1.89063l2.28613.95459a4.85364,4.85364,0,0,1,1.40527,1.00781,3.2031,3.2031,0,0,1,.75586,2.08887A3.4586,3.4586,0,0,1,55.62109,28.08008Z" transform="translate(0 0.00002)"/>
    <path d="M66.26074,17.87109H62.76758V28.83643H61.02051V17.87109H57.50977V16.4126h8.751Z" transform="translate(0 0.00002)"/>
  </g>
  <g>
    <path d="M32.3252,136.91992a4.55673,4.55673,0,0,1-3.09424,1.07959H26.73633v-8.27539H29.231a4.55673,4.55673,0,0,1,3.09424,1.07959,4.28561,4.28561,0,0,1,0,6.11621Zm-.8877-5.43262a3.15464,3.15464,0,0,0-2.20654-.76758H27.89941v6.27246H29.231a3.1569,3.1569,0,0,0,2.20654-.76758,3.3443,3.3443,0,0,0,0-4.7373Z" transform="translate(0 0.00002)"/>
    <path d="M40.01758,135.4209H35.62793a1.75632,1.75632,0,0,0,1.835,1.811,3.15043,3.15043,0,0,0,1.88281-.65967l.48.65967a3.34737,3.34737,0,0,1-2.50684.89941,2.76251,2.76251,0,0,1-2.85449-2.98633,2.82573,2.82573,0,0,1,2.89063-2.9502,2.60065,2.60065,0,0,1,2.69824,2.72217A5.00488,5.00488,0,0,1,40.01758,135.4209Zm-1.05566-.76758a1.64612,1.64612,0,0,0-1.64307-1.63086,1.67631,1.67631,0,0,0-1.6792,1.63086Z" transform="translate(0 0.00002)"/>
    <path d="M46.14844,137.99951H44.99756v-3.17822c0-.95947-.16748-1.6792-1.187-1.6792-1.06738,0-1.46338.89941-1.46338,1.99121v2.86621H41.1958v-5.69678h1.15137l-.01172.89941h.03564a1.92488,1.92488,0,0,1,1.73926-1.00732c1.61914,0,2.03809,1.06738,2.03809,2.43457Z" transform="translate(0 0.00002)"/>
    <path d="M50.9375,137.62793a2.42836,2.42836,0,0,1-1.583.50342,2.72891,2.72891,0,0,1-2.21875-1.01953l.55176-.67139a2.3376,2.3376,0,0,0,1.67969.81543c.52734,0,1.09082-.19189,1.09082-.81543s-.89941-.81543-1.2832-.94775a4.23293,4.23293,0,0,1-.7793-.2998,1.4672,1.4672,0,0,1-.89941-1.36719,1.72375,1.72375,0,0,1,1.91895-1.63086,2.49168,2.49168,0,0,1,1.94238.74365l-.47949.70752a2.08855,2.08855,0,0,0-1.43945-.61182c-.55176,0-.91113.23975-.91113.70752s.55176.67188,1.11523.85156c.31152.10791.52734.18018.76758.27588a2.18466,2.18466,0,0,1,.65918.40771,1.40928,1.40928,0,0,1,.45605,1.05566A1.621,1.621,0,0,1,50.9375,137.62793Z" transform="translate(0 0.00002)"/>
    <path d="M53.27832,131.13916a.70842.70842,0,1,1,.74414-.70752A.70706.70706,0,0,1,53.27832,131.13916Zm.57617,6.86035H52.70313v-5.69678h1.15137Z" transform="translate(0 0.00002)"/>
    <path d="M58.25781,137.93945a2.89165,2.89165,0,0,1-1.04395.19189,1.337,1.337,0,0,1-1.21094-.5874,2.971,2.971,0,0,1-.28809-1.70312v-2.60254H54.875v-.92383h.83984v-1.70312h1.15137v1.70313H58.2334v.92383H56.86621v2.57861a2.24273,2.24273,0,0,0,.14355,1.04346.59712.59712,0,0,0,.58789.2876,1.39119,1.39119,0,0,0,.58789-.13184Z" transform="translate(0 0.00002)"/>
    <path d="M64.19629,132.30273l-2.74609,6.69238c-.39551.9834-.86328,1.31934-1.499,1.31934a2.82376,2.82376,0,0,1-1.08008-.2041l.22852-.93555a1.80562,1.80562,0,0,0,.59961.13184c.23926,0,.49121.02393.74316-.67139l.27637-.75586-2.2793-5.58887,1.19922.01221,1.69141,4.42529,1.67871-4.4375Z" transform="translate(0 0.00002)"/>
  </g>
  <g>
    <path d="M38.91553,322.47754a4.27,4.27,0,1,1,4.26953-4.26953A4.1111,4.1111,0,0,1,38.91553,322.47754Zm0-7.53223a3.24222,3.24222,0,1,0,3.08252,3.23828A3.02752,3.02752,0,0,0,38.91553,314.94531Z" transform="translate(0 0.00002)"/>
    <path d="M49.27051,322.333H48.15527l-.01172-.81543a1.98573,1.98573,0,0,1-1.7627.94727,1.84507,1.84507,0,0,1-1.583-.65918,2.891,2.891,0,0,1-.41992-1.7627V316.624h1.13916v3.37012c0,.78027.168,1.51172,1.187,1.51172,1.00781,0,1.415-.86328,1.415-1.82324V316.624h1.15137Z" transform="translate(0 0.00002)"/>
    <path d="M53.62793,322.27344a2.898,2.898,0,0,1-1.04395.19141,1.33669,1.33669,0,0,1-1.21094-.58691,2.97191,2.97191,0,0,1-.28809-1.70312v-2.60254h-.83984v-.92383H51.085v-1.70312h1.15137v1.70313h1.36719v.92383H52.23633v2.57813a2.245,2.245,0,0,0,.14355,1.04395.59688.59688,0,0,0,.58789.28711,1.39119,1.39119,0,0,0,.58789-.13184Z" transform="translate(0 0.00002)"/>
  </g>
  <g>
    <path d="M48.13379,209.97266h-2.686v2.68652h-.8877v-2.68652H41.86182v-.8877h2.69824v-2.68652h.8877V209.085h2.686Z" transform="translate(0 0.00002)"/>
    <path d="M43.26221,253.17285H40.57568v2.68652H39.688v-2.68652H36.98975v-.8877H39.688v-2.68652h.8877v2.68652h2.68652Z" transform="translate(0 0.00002)"/>
    <path d="M50.1377,247.74023l-4.98828,10.24219-.76758-.34766,4.98926-10.23047Z" transform="translate(0 0.00002)"/>
    <path d="M53.57129,254.06055H50.66895v-.96h2.90234Z" transform="translate(0 0.00002)"/>
  </g>
</svg>
