<?xml version="1.0" encoding="UTF-8" standalone="no"?>
<!DOCTYPE svg PUBLIC "-//W3C//DTD SVG 1.1//EN" "http://www.w3.org/Graphics/SVG/1.1/DTD/svg11.dtd">
<svg width="100%" height="100%" viewBox="0 0 90 380" version="1.1" xmlns="http://www.w3.org/2000/svg" xmlns:xlink="http://www.w3.org/1999/xlink" xml:space="preserve" xmlns:serif="http://www.serif.com/" style="fill-rule:evenodd;clip-rule:evenodd;stroke-miterlimit:10;">
    <g id="svg8">
        <rect x="0" y="0" width="90" height="380" style="fill:rgb(240,240,240);"/>
        <g transform="matrix(1,0,0,1,25.7842,350.154)">
            <path d="M0,11.424L-1.606,11.424L-1.606,6.093L-7.682,6.093L-7.682,11.424L-9.288,11.424L-9.288,0L-7.682,0L-7.682,4.719L-1.606,4.719L-1.606,0L0,0L0,11.424Z" style="fill:rgb(35,31,32);fill-rule:nonzero;"/>
        </g>
        <g transform="matrix(1,0,0,1,33.9917,350.154)">
            <path d="M0,11.424L-6.821,11.424L-6.821,0L-0.132,0L-0.132,1.342L-5.215,1.342L-5.215,4.752L-0.414,4.752L-0.414,6.093L-5.215,6.093L-5.215,10.067L0,10.067L0,11.424Z" style="fill:rgb(35,31,32);fill-rule:nonzero;"/>
        </g>
        <g transform="matrix(1,0,0,1,42.8652,360.236)">
            <path d="M0,-8.74L-3.212,-8.74L-3.212,1.342L-4.818,1.342L-4.818,-8.74L-8.046,-8.74L-8.046,-10.082L0,-10.082L0,-8.74Z" style="fill:rgb(35,31,32);fill-rule:nonzero;"/>
        </g>
        <g transform="matrix(1,0,0,1,48.5752,359.855)">
            <path d="M0,-7.978C-0.513,-8.359 -1.126,-8.392 -1.92,-8.392L-3.096,-8.392L-3.096,-4.518L-1.92,-4.518C-1.126,-4.518 -0.513,-4.551 0,-4.915C0.514,-5.296 0.729,-5.76 0.729,-6.456C0.729,-7.134 0.514,-7.614 0,-7.978M3.047,1.723L1.109,1.723L-1.871,-3.194L-3.096,-3.194L-3.096,1.723L-4.702,1.723L-4.702,-9.701L-1.474,-9.701C-0.331,-9.701 0.596,-9.435 1.275,-8.906C1.954,-8.359 2.384,-7.532 2.384,-6.489C2.384,-4.485 0.993,-3.591 -0.215,-3.359L3.047,1.723Z" style="fill:rgb(35,31,32);fill-rule:nonzero;"/>
        </g>
        <g transform="matrix(-1,0,0,1,107.233,331.732)">
            <rect x="52.814" y="18.422" width="1.605" height="11.424" style="fill:rgb(35,31,32);"/>
        </g>
        <g transform="matrix(1,0,0,1,65.542,351.678)">
            <path d="M0,8.41C-0.712,9.205 -2.003,10.099 -4.172,10.099C-7.5,10.099 -10.017,7.764 -10.017,4.205C-10.017,0.645 -7.45,-1.689 -4.172,-1.689C-2.036,-1.689 -0.745,-0.795 -0.116,-0.182L-0.795,1.109C-1.241,0.547 -2.517,-0.281 -4.105,-0.281C-6.572,-0.281 -8.36,1.49 -8.36,4.172C-8.36,6.854 -6.556,8.626 -4.105,8.626C-2.6,8.626 -1.44,8.047 -0.695,7.235L0,8.41Z" style="fill:rgb(237,50,36);fill-rule:nonzero;"/>
        </g>
        <g transform="matrix(1,0,0,1,75.4521,350.154)">
            <path d="M0,11.424L-1.953,11.424L-5.745,5.695L-6.92,6.888L-6.92,11.424L-8.526,11.424L-8.526,0L-6.92,0L-6.92,4.868L-2.268,0L-0.314,0L-4.669,4.504L0,11.424Z" style="fill:rgb(237,50,36);fill-rule:nonzero;"/>
        </g>
        <g transform="matrix(1,0,0,1,75.4521,354.658)">
            <path d="M0,6.92L-1.953,6.92L-5.745,1.191L-6.92,2.384L-6.92,6.92L-8.526,6.92L-8.526,2.361L-6.92,2.384L-5.745,1.191L-4.669,0L-4.052,0.913L-3.555,1.65L0,6.92Z" style="fill-rule:nonzero;"/>
        </g>
        <g transform="matrix(1,0,0,1,76.623,325.333)">
            <path d="M0,-45.333L-25.142,-45.333C-29.541,-45.333 -33.141,-41.733 -33.141,-37.333L-33.141,-8C-33.141,-3.6 -29.541,0 -25.142,0L0,0C4.4,0 8,-3.6 8,-8L8,-37.333C8,-41.733 4.4,-45.333 0,-45.333Z" style="fill-rule:nonzero;stroke:white;stroke-width:1px;"/>
        </g>
        <g transform="matrix(1,0,0,1,76.623,325.333)">
            <path d="M0,-273.614L-25.142,-273.614C-29.541,-273.614 -33.141,-270.014 -33.141,-265.614L-33.141,-8C-33.141,-3.599 -29.541,0 -25.142,0L0,0C4.4,0 8,-3.599 8,-8L8,-265.614C8,-270.014 4.4,-273.614 0,-273.614" style="fill-rule:nonzero;"/>
        </g>
        <g transform="matrix(18,0,0,18,27.1621,28.8369)">
            <path d="M0.076,-0.667L0.173,-0.667L0.537,-0.146L0.537,-0.667L0.631,-0.667L0.631,-0L0.535,-0L0.17,-0.522L0.17,-0L0.076,-0L0.076,-0.667Z" style="fill-rule:nonzero;"/>
        </g>
        <g transform="matrix(18,0,0,18,40.4731,28.8369)">
            <path d="M0.389,0.017C0.341,0.017 0.296,0.008 0.255,-0.011C0.214,-0.029 0.178,-0.054 0.147,-0.086C0.116,-0.117 0.092,-0.154 0.075,-0.197C0.058,-0.24 0.049,-0.285 0.049,-0.334C0.049,-0.383 0.058,-0.428 0.075,-0.47C0.092,-0.513 0.116,-0.55 0.147,-0.582C0.177,-0.613 0.213,-0.638 0.255,-0.657C0.296,-0.675 0.341,-0.684 0.389,-0.684C0.437,-0.684 0.482,-0.675 0.524,-0.657C0.565,-0.638 0.601,-0.613 0.632,-0.582C0.663,-0.55 0.687,-0.513 0.704,-0.47C0.721,-0.428 0.73,-0.383 0.73,-0.334C0.73,-0.285 0.721,-0.24 0.704,-0.197C0.687,-0.154 0.663,-0.117 0.632,-0.086C0.601,-0.054 0.565,-0.029 0.524,-0.011C0.482,0.008 0.437,0.017 0.389,0.017ZM0.389,-0.073C0.426,-0.073 0.459,-0.08 0.489,-0.094C0.518,-0.108 0.544,-0.127 0.565,-0.151C0.586,-0.175 0.602,-0.203 0.613,-0.234C0.624,-0.266 0.63,-0.3 0.63,-0.335C0.63,-0.371 0.624,-0.405 0.613,-0.437C0.602,-0.468 0.586,-0.496 0.565,-0.52C0.544,-0.544 0.518,-0.563 0.489,-0.577C0.459,-0.59 0.426,-0.597 0.389,-0.597C0.352,-0.597 0.319,-0.59 0.29,-0.577C0.261,-0.563 0.235,-0.544 0.215,-0.52C0.194,-0.496 0.177,-0.468 0.166,-0.437C0.155,-0.405 0.149,-0.371 0.149,-0.335C0.149,-0.3 0.155,-0.266 0.166,-0.234C0.177,-0.203 0.194,-0.175 0.215,-0.151C0.235,-0.127 0.261,-0.108 0.29,-0.094C0.319,-0.08 0.352,-0.073 0.389,-0.073Z" style="fill-rule:nonzero;"/>
        </g>
        <g transform="matrix(18,0,0,18,53.8201,28.8369)">
            <path d="M0.263,-0.583L0.024,-0.583L0.024,-0.667L0.597,-0.667L0.597,-0.583L0.359,-0.583L0.359,-0L0.263,-0L0.263,-0.583Z" style="fill-rule:nonzero;"/>
        </g>
        <g transform="matrix(12,0,0,12,55.5366,186)">
            <path d="M0.087,-0.118C0.104,-0.105 0.123,-0.092 0.146,-0.081C0.169,-0.069 0.197,-0.063 0.232,-0.063C0.274,-0.063 0.307,-0.074 0.332,-0.097C0.357,-0.12 0.369,-0.15 0.369,-0.188C0.369,-0.222 0.359,-0.25 0.338,-0.272C0.317,-0.294 0.286,-0.305 0.245,-0.305C0.233,-0.305 0.222,-0.304 0.212,-0.302C0.202,-0.3 0.192,-0.297 0.183,-0.294L0.154,-0.341L0.331,-0.547L0.079,-0.547L0.079,-0.63L0.441,-0.63L0.441,-0.558L0.279,-0.369C0.307,-0.369 0.332,-0.365 0.355,-0.356C0.378,-0.347 0.397,-0.335 0.413,-0.319C0.43,-0.303 0.442,-0.284 0.451,-0.262C0.46,-0.239 0.464,-0.214 0.464,-0.187C0.464,-0.154 0.458,-0.124 0.446,-0.099C0.434,-0.074 0.418,-0.053 0.397,-0.035C0.376,-0.019 0.351,-0.006 0.323,0.003C0.294,0.012 0.264,0.017 0.231,0.017C0.207,0.017 0.185,0.015 0.165,0.011C0.145,0.007 0.127,0.002 0.111,-0.005C0.095,-0.012 0.081,-0.019 0.068,-0.028C0.055,-0.036 0.044,-0.044 0.034,-0.053L0.087,-0.118Z" style="fill:white;fill-rule:nonzero;"/>
        </g>
        <g transform="matrix(12,0,0,12,55.5366,321.336)">
            <path d="M0.437,-0.534C0.435,-0.535 0.431,-0.538 0.426,-0.541C0.42,-0.544 0.412,-0.548 0.403,-0.552C0.394,-0.555 0.383,-0.559 0.371,-0.562C0.358,-0.565 0.345,-0.566 0.33,-0.566C0.302,-0.566 0.277,-0.56 0.256,-0.548C0.235,-0.536 0.217,-0.52 0.202,-0.5C0.187,-0.48 0.176,-0.457 0.168,-0.432C0.16,-0.406 0.156,-0.379 0.155,-0.352C0.17,-0.362 0.189,-0.373 0.212,-0.385C0.235,-0.396 0.265,-0.402 0.301,-0.402C0.362,-0.402 0.409,-0.384 0.444,-0.348C0.478,-0.312 0.495,-0.261 0.495,-0.195C0.495,-0.164 0.49,-0.135 0.48,-0.109C0.469,-0.083 0.455,-0.061 0.437,-0.042C0.418,-0.023 0.396,-0.009 0.371,0.001C0.346,0.012 0.318,0.017 0.288,0.017C0.217,0.017 0.162,-0.008 0.123,-0.058C0.083,-0.108 0.063,-0.184 0.063,-0.285C0.063,-0.341 0.069,-0.391 0.081,-0.436C0.092,-0.481 0.11,-0.519 0.133,-0.55C0.156,-0.581 0.184,-0.605 0.217,-0.622C0.25,-0.639 0.289,-0.647 0.333,-0.647C0.367,-0.647 0.397,-0.642 0.422,-0.632C0.447,-0.622 0.465,-0.613 0.478,-0.605L0.437,-0.534ZM0.154,-0.273C0.154,-0.207 0.164,-0.156 0.185,-0.118C0.206,-0.082 0.24,-0.063 0.287,-0.063C0.303,-0.063 0.318,-0.066 0.333,-0.072C0.348,-0.078 0.361,-0.087 0.372,-0.098C0.383,-0.109 0.392,-0.123 0.399,-0.14C0.406,-0.157 0.409,-0.176 0.409,-0.197C0.409,-0.233 0.4,-0.263 0.382,-0.286C0.363,-0.31 0.333,-0.322 0.292,-0.322C0.26,-0.322 0.233,-0.317 0.211,-0.308C0.188,-0.298 0.169,-0.286 0.154,-0.273Z" style="fill:white;fill-rule:nonzero;"/>
        </g>
        <g transform="matrix(12,0,0,12,55.5366,276)">
            <path d="M0.089,-0.118C0.108,-0.103 0.128,-0.09 0.151,-0.08C0.173,-0.069 0.201,-0.064 0.234,-0.064C0.257,-0.064 0.278,-0.068 0.295,-0.075C0.312,-0.082 0.327,-0.091 0.339,-0.103C0.35,-0.115 0.359,-0.129 0.365,-0.145C0.37,-0.161 0.373,-0.178 0.373,-0.197C0.373,-0.21 0.371,-0.223 0.367,-0.238C0.363,-0.253 0.356,-0.266 0.346,-0.279C0.336,-0.291 0.322,-0.301 0.305,-0.309C0.288,-0.317 0.266,-0.321 0.239,-0.321C0.212,-0.321 0.19,-0.318 0.174,-0.313C0.158,-0.308 0.143,-0.302 0.13,-0.295L0.084,-0.33L0.144,-0.63L0.453,-0.63L0.453,-0.546L0.207,-0.546L0.178,-0.381C0.185,-0.385 0.195,-0.389 0.21,-0.393C0.225,-0.396 0.242,-0.398 0.263,-0.398C0.293,-0.398 0.321,-0.394 0.345,-0.385C0.371,-0.376 0.392,-0.364 0.41,-0.346C0.428,-0.33 0.442,-0.309 0.452,-0.284C0.462,-0.26 0.467,-0.232 0.467,-0.2C0.467,-0.171 0.462,-0.143 0.453,-0.117C0.444,-0.091 0.429,-0.068 0.41,-0.048C0.391,-0.028 0.366,-0.012 0.336,-0.001C0.306,0.011 0.27,0.017 0.229,0.017C0.185,0.017 0.148,0.01 0.117,-0.003C0.086,-0.016 0.059,-0.033 0.038,-0.052L0.089,-0.118Z" style="fill:white;fill-rule:nonzero;"/>
        </g>
        <g transform="matrix(12,0,0,12,55.5366,231.335)">
            <path d="M0.049,-0.208L0.335,-0.631L0.426,-0.631L0.426,-0.209L0.494,-0.209L0.494,-0.131L0.426,-0.131L0.426,-0L0.339,-0L0.339,-0.131L0.049,-0.131L0.049,-0.208ZM0.339,-0.209L0.339,-0.51L0.138,-0.209L0.339,-0.209Z" style="fill:white;fill-rule:nonzero;"/>
        </g>
        <g>
            <g transform="matrix(12,0,0,12,56.4366,94.6675)">
                <path d="M0.141,-0.08L0.253,-0.08L0.253,-0.535L0.123,-0.465L0.086,-0.536L0.263,-0.633L0.344,-0.633L0.344,-0.08L0.454,-0.08L0.454,-0L0.141,-0L0.141,-0.08Z" style="fill:white;fill-rule:nonzero;"/>
            </g>
            <g transform="matrix(12,0,0,12,55.5366,140.008)">
                <path d="M0.068,-0.065C0.068,-0.1 0.076,-0.131 0.093,-0.158C0.11,-0.185 0.13,-0.21 0.153,-0.233C0.182,-0.262 0.209,-0.286 0.234,-0.307C0.26,-0.328 0.283,-0.347 0.302,-0.364C0.321,-0.381 0.337,-0.399 0.347,-0.416C0.359,-0.433 0.364,-0.452 0.364,-0.474C0.364,-0.484 0.362,-0.494 0.359,-0.505C0.355,-0.516 0.349,-0.526 0.34,-0.535C0.331,-0.544 0.32,-0.551 0.307,-0.557C0.294,-0.563 0.277,-0.566 0.257,-0.566C0.239,-0.566 0.223,-0.564 0.209,-0.559C0.195,-0.554 0.183,-0.547 0.172,-0.54C0.161,-0.533 0.152,-0.524 0.145,-0.515C0.138,-0.506 0.131,-0.497 0.125,-0.489L0.058,-0.537C0.065,-0.549 0.074,-0.562 0.086,-0.575C0.097,-0.588 0.111,-0.6 0.128,-0.611C0.144,-0.622 0.163,-0.63 0.186,-0.637C0.208,-0.645 0.234,-0.648 0.263,-0.648C0.297,-0.648 0.327,-0.643 0.352,-0.634C0.377,-0.625 0.397,-0.612 0.413,-0.597C0.429,-0.581 0.441,-0.563 0.449,-0.543C0.457,-0.523 0.461,-0.502 0.461,-0.48C0.461,-0.457 0.457,-0.435 0.449,-0.414C0.441,-0.394 0.43,-0.375 0.417,-0.358C0.404,-0.341 0.389,-0.324 0.372,-0.309C0.355,-0.293 0.337,-0.278 0.319,-0.264C0.298,-0.247 0.278,-0.231 0.26,-0.216C0.241,-0.201 0.225,-0.186 0.212,-0.171C0.198,-0.156 0.187,-0.142 0.18,-0.127C0.172,-0.112 0.168,-0.097 0.168,-0.082L0.468,-0.082L0.468,-0L0.068,-0L0.068,-0.065Z" style="fill:white;fill-rule:nonzero;"/>
            </g>
        </g>
        <g transform="matrix(12,0,0,12,17.6286,186)">
            <path d="M0.087,-0.118C0.104,-0.105 0.123,-0.092 0.146,-0.081C0.169,-0.069 0.197,-0.063 0.232,-0.063C0.274,-0.063 0.307,-0.074 0.332,-0.097C0.357,-0.12 0.369,-0.15 0.369,-0.188C0.369,-0.222 0.359,-0.25 0.338,-0.272C0.317,-0.294 0.286,-0.305 0.245,-0.305C0.233,-0.305 0.222,-0.304 0.212,-0.302C0.202,-0.3 0.192,-0.297 0.183,-0.294L0.154,-0.341L0.331,-0.547L0.079,-0.547L0.079,-0.63L0.441,-0.63L0.441,-0.558L0.279,-0.369C0.307,-0.369 0.332,-0.365 0.355,-0.356C0.378,-0.347 0.397,-0.335 0.413,-0.319C0.43,-0.303 0.442,-0.284 0.451,-0.262C0.46,-0.239 0.464,-0.214 0.464,-0.187C0.464,-0.154 0.458,-0.124 0.446,-0.099C0.434,-0.074 0.418,-0.053 0.397,-0.035C0.376,-0.019 0.351,-0.006 0.323,0.003C0.294,0.012 0.264,0.017 0.231,0.017C0.207,0.017 0.185,0.015 0.165,0.011C0.145,0.007 0.127,0.002 0.111,-0.005C0.095,-0.012 0.081,-0.019 0.068,-0.028C0.055,-0.036 0.044,-0.044 0.034,-0.053L0.087,-0.118Z" style="fill-rule:nonzero;"/>
        </g>
        <g transform="matrix(12,0,0,12,17.6286,321.336)">
            <path d="M0.437,-0.534C0.435,-0.535 0.431,-0.538 0.426,-0.541C0.42,-0.544 0.412,-0.548 0.403,-0.552C0.394,-0.555 0.383,-0.559 0.371,-0.562C0.358,-0.565 0.345,-0.566 0.33,-0.566C0.302,-0.566 0.277,-0.56 0.256,-0.548C0.235,-0.536 0.217,-0.52 0.202,-0.5C0.187,-0.48 0.176,-0.457 0.168,-0.432C0.16,-0.406 0.156,-0.379 0.155,-0.352C0.17,-0.362 0.189,-0.373 0.212,-0.385C0.235,-0.396 0.265,-0.402 0.301,-0.402C0.362,-0.402 0.409,-0.384 0.444,-0.348C0.478,-0.312 0.495,-0.261 0.495,-0.195C0.495,-0.164 0.49,-0.135 0.48,-0.109C0.469,-0.083 0.455,-0.061 0.437,-0.042C0.418,-0.023 0.396,-0.009 0.371,0.001C0.346,0.012 0.318,0.017 0.288,0.017C0.217,0.017 0.162,-0.008 0.123,-0.058C0.083,-0.108 0.063,-0.184 0.063,-0.285C0.063,-0.341 0.069,-0.391 0.081,-0.436C0.092,-0.481 0.11,-0.519 0.133,-0.55C0.156,-0.581 0.184,-0.605 0.217,-0.622C0.25,-0.639 0.289,-0.647 0.333,-0.647C0.367,-0.647 0.397,-0.642 0.422,-0.632C0.447,-0.622 0.465,-0.613 0.478,-0.605L0.437,-0.534ZM0.154,-0.273C0.154,-0.207 0.164,-0.156 0.185,-0.118C0.206,-0.082 0.24,-0.063 0.287,-0.063C0.303,-0.063 0.318,-0.066 0.333,-0.072C0.348,-0.078 0.361,-0.087 0.372,-0.098C0.383,-0.109 0.392,-0.123 0.399,-0.14C0.406,-0.157 0.409,-0.176 0.409,-0.197C0.409,-0.233 0.4,-0.263 0.382,-0.286C0.363,-0.31 0.333,-0.322 0.292,-0.322C0.26,-0.322 0.233,-0.317 0.211,-0.308C0.188,-0.298 0.169,-0.286 0.154,-0.273Z" style="fill-rule:nonzero;"/>
        </g>
        <g transform="matrix(12,0,0,12,17.6286,276)">
            <path d="M0.089,-0.118C0.108,-0.103 0.128,-0.09 0.151,-0.08C0.173,-0.069 0.201,-0.064 0.234,-0.064C0.257,-0.064 0.278,-0.068 0.295,-0.075C0.312,-0.082 0.327,-0.091 0.339,-0.103C0.35,-0.115 0.359,-0.129 0.365,-0.145C0.37,-0.161 0.373,-0.178 0.373,-0.197C0.373,-0.21 0.371,-0.223 0.367,-0.238C0.363,-0.253 0.356,-0.266 0.346,-0.279C0.336,-0.291 0.322,-0.301 0.305,-0.309C0.288,-0.317 0.266,-0.321 0.239,-0.321C0.212,-0.321 0.19,-0.318 0.174,-0.313C0.158,-0.308 0.143,-0.302 0.13,-0.295L0.084,-0.33L0.144,-0.63L0.453,-0.63L0.453,-0.546L0.207,-0.546L0.178,-0.381C0.185,-0.385 0.195,-0.389 0.21,-0.393C0.225,-0.396 0.242,-0.398 0.263,-0.398C0.293,-0.398 0.321,-0.394 0.345,-0.385C0.371,-0.376 0.392,-0.364 0.41,-0.346C0.428,-0.33 0.442,-0.309 0.452,-0.284C0.462,-0.26 0.467,-0.232 0.467,-0.2C0.467,-0.171 0.462,-0.143 0.453,-0.117C0.444,-0.091 0.429,-0.068 0.41,-0.048C0.391,-0.028 0.366,-0.012 0.336,-0.001C0.306,0.011 0.27,0.017 0.229,0.017C0.185,0.017 0.148,0.01 0.117,-0.003C0.086,-0.016 0.059,-0.033 0.038,-0.052L0.089,-0.118Z" style="fill-rule:nonzero;"/>
        </g>
        <g transform="matrix(12,0,0,12,17.6286,231.335)">
            <path d="M0.049,-0.208L0.335,-0.631L0.426,-0.631L0.426,-0.209L0.494,-0.209L0.494,-0.131L0.426,-0.131L0.426,-0L0.339,-0L0.339,-0.131L0.049,-0.131L0.049,-0.208ZM0.339,-0.209L0.339,-0.51L0.138,-0.209L0.339,-0.209Z" style="fill-rule:nonzero;"/>
        </g>
        <g>
            <g transform="matrix(12,0,0,12,18.5286,94.6675)">
                <path d="M0.141,-0.08L0.253,-0.08L0.253,-0.535L0.123,-0.465L0.086,-0.536L0.263,-0.633L0.344,-0.633L0.344,-0.08L0.454,-0.08L0.454,-0L0.141,-0L0.141,-0.08Z" style="fill-rule:nonzero;"/>
            </g>
            <g transform="matrix(12,0,0,12,17.6286,140.008)">
                <path d="M0.068,-0.065C0.068,-0.1 0.076,-0.131 0.093,-0.158C0.11,-0.185 0.13,-0.21 0.153,-0.233C0.182,-0.262 0.209,-0.286 0.234,-0.307C0.26,-0.328 0.283,-0.347 0.302,-0.364C0.321,-0.381 0.337,-0.399 0.347,-0.416C0.359,-0.433 0.364,-0.452 0.364,-0.474C0.364,-0.484 0.362,-0.494 0.359,-0.505C0.355,-0.516 0.349,-0.526 0.34,-0.535C0.331,-0.544 0.32,-0.551 0.307,-0.557C0.294,-0.563 0.277,-0.566 0.257,-0.566C0.239,-0.566 0.223,-0.564 0.209,-0.559C0.195,-0.554 0.183,-0.547 0.172,-0.54C0.161,-0.533 0.152,-0.524 0.145,-0.515C0.138,-0.506 0.131,-0.497 0.125,-0.489L0.058,-0.537C0.065,-0.549 0.074,-0.562 0.086,-0.575C0.097,-0.588 0.111,-0.6 0.128,-0.611C0.144,-0.622 0.163,-0.63 0.186,-0.637C0.208,-0.645 0.234,-0.648 0.263,-0.648C0.297,-0.648 0.327,-0.643 0.352,-0.634C0.377,-0.625 0.397,-0.612 0.413,-0.597C0.429,-0.581 0.441,-0.563 0.449,-0.543C0.457,-0.523 0.461,-0.502 0.461,-0.48C0.461,-0.457 0.457,-0.435 0.449,-0.414C0.441,-0.394 0.43,-0.375 0.417,-0.358C0.404,-0.341 0.389,-0.324 0.372,-0.309C0.355,-0.293 0.337,-0.278 0.319,-0.264C0.298,-0.247 0.278,-0.231 0.26,-0.216C0.241,-0.201 0.225,-0.186 0.212,-0.171C0.198,-0.156 0.187,-0.142 0.18,-0.127C0.172,-0.112 0.168,-0.097 0.168,-0.082L0.468,-0.082L0.468,-0L0.068,-0L0.068,-0.065Z" style="fill-rule:nonzero;"/>
            </g>
        </g>
        <g transform="matrix(-1,0,0,1,95.75,-300.666)">
            <rect x="41.5" y="333.958" width="12.75" height="12.75" style="fill:none;stroke:black;stroke-width:1px;"/>
        </g>
        <g transform="matrix(1,0,0,1,-3.627,0)">
            <g transform="matrix(12,0,0,12,49.7115,44.0415)">
                <path d="M0.067,-0.667L0.225,-0.667L0.219,-0.217L0.073,-0.217L0.067,-0.667ZM0.067,-0.154L0.224,-0.154L0.224,-0L0.067,-0L0.067,-0.154Z" style="fill-rule:nonzero;"/>
            </g>
        </g>
    </g>
</svg>
