<svg id="svg8" xmlns="http://www.w3.org/2000/svg" width="89.99999" height="380.00004" viewBox="0 0 89.99999 380.00004">
  <title>LogicCombiner</title>
  <g id="layer1">
    <path id="rect817" d="M0,0H90V380H0Z" transform="translate(0 0.00002)" style="fill: #f0f0f0"/>
  </g>
  <g>
    <path d="M25.78415,361.57842H24.17823v-5.3311H18.10212v5.3311H16.49619V350.15468h1.60593v4.71854h6.07611v-4.71854h1.60593Z" transform="translate(0 0.00002)" style="fill: #231f20"/>
    <path d="M33.99163,361.57842H27.17051V350.15468h6.68867v1.34109H28.77644v3.41053h4.8013v1.341h-4.8013v3.97347h5.21519Z" transform="translate(0 0.00002)" style="fill: #231f20"/>
    <path d="M42.86514,351.49577H39.65329v10.08265h-1.606V351.49577H34.81891v-1.34109h8.04624Z" transform="translate(0 0.00002)" style="fill: #231f20"/>
    <path d="M51.62163,361.57842H49.68452l-2.98-4.91715H45.47936v4.91715h-1.606V350.15468h3.22846a4.37325,4.37325,0,0,1,2.74834.79469A3.185,3.185,0,0,1,48.36,356.49568Zm-3.04632-9.70191a3.04673,3.04673,0,0,0-1.92045-.41389h-1.1755v3.87416h1.1755a3.15908,3.15908,0,0,0,1.92045-.39735,1.72712,1.72712,0,0,0,.72853-1.5397A1.69838,1.69838,0,0,0,48.57531,351.87651Z" transform="translate(0 0.00002)" style="fill: #231f20"/>
    <path d="M54.41922,361.57842H52.81317V350.15468h1.60605Z" transform="translate(0 0.00002)" style="fill: #231f20"/>
    <path d="M65.54207,360.08834A5.35543,5.35543,0,0,1,61.37,361.77709a5.89517,5.89517,0,1,1,4.05617-10.28133l-.67878,1.29135a4.52732,4.52732,0,0,0-3.31122-1.39071,4.45825,4.45825,0,0,0,0,8.90722,4.52188,4.52188,0,0,0,3.41059-1.39071Z" transform="translate(0 0.00002)" style="fill: #ed3224"/>
    <path d="M75.45235,361.57842H73.4987L69.70743,355.85l-1.1755,1.192v4.5364H66.92588V350.15468h1.60605v4.86753l4.65225-4.86753h1.95353l-4.35415,4.50326Z" transform="translate(0 0.00002)" style="fill: #ed3224"/>
    <path d="M75.45235,361.57842H73.4987L69.70743,355.85l-1.1755,1.192v4.5364H66.92588V357.019l1.60605.023,1.1755-1.192,1.07613-1.192.61637.91363.49748.7374Z" transform="translate(0 0.00002)"/>
  </g>
  <g>
    <path d="M40.14209,29.05225a6.172,6.172,0,0,1-6.41016-6.40967,6.172,6.172,0,0,1,6.41016-6.40967,6.17163,6.17163,0,0,1,6.40967,6.40967A6.17163,6.17163,0,0,1,40.14209,29.05225Zm0-11.30713a4.54563,4.54563,0,0,0-4.62744,4.86133,4.63309,4.63309,0,1,0,9.25488,0A4.54563,4.54563,0,0,0,40.14209,17.74512Z" transform="translate(0 0.00002)"/>
    <path d="M57.00879,28.83643H54.90234l-3.24121-5.34766h-1.332v5.34766H48.582V16.4126h3.51172a4.75445,4.75445,0,0,1,2.98828.86426,3.27394,3.27394,0,0,1,1.207,2.62891,3.30424,3.30424,0,0,1-2.82715,3.40283ZM53.69531,18.28516a3.31055,3.31055,0,0,0-2.08789-.4502H50.3291v4.21338h1.27832a3.43316,3.43316,0,0,0,2.08789-.43213,1.87786,1.87786,0,0,0,.793-1.67432A1.84676,1.84676,0,0,0,53.69531,18.28516Z" transform="translate(0 0.00002)"/>
  </g>
  <rect x="43.48173" y="143.60939" width="41.14172" height="138.36719" rx="8" ry="8" style="stroke: #fff;stroke-miterlimit: 10;stroke-width: 1.7470596358806667px"/>
  <g>
    <path d="M60.80957,186.144a4.26978,4.26978,0,1,1,4.26953-4.26953A4.11137,4.11137,0,0,1,60.80957,186.144Zm0-7.53223a3.24219,3.24219,0,1,0,3.083,3.23828A3.02806,3.02806,0,0,0,60.80957,178.61182Z" transform="translate(0 0.00002)" style="fill: #fff"/>
    <path d="M72.05273,186H70.64941l-2.1582-3.562h-.8877V186H66.44043v-8.27539h2.33789a3.16856,3.16856,0,0,1,1.99121.57568,2.307,2.307,0,0,1-1.0791,4.01758Zm-2.207-7.02832a2.20456,2.20456,0,0,0-1.39062-.2998h-.85156v2.80664h.85156a2.284,2.284,0,0,0,1.39063-.28809,1.25051,1.25051,0,0,0,.52832-1.11523A1.23067,1.23067,0,0,0,69.8457,178.97168Z" transform="translate(0 0.00002)" style="fill: #fff"/>
  </g>
  <g>
    <path d="M59.6084,231.333H58.46875l-4.77344-6.5957s.02441,1.11523.02441,2.19434V231.333H52.56836v-8.27539H53.791l4.68945,6.501s-.01172-1.01953-.01172-2.11133v-4.38965H59.6084Z" transform="translate(0 0.00002)" style="fill: #fff"/>
    <path d="M65.25,231.47754a4.27,4.27,0,1,1,4.26953-4.26953A4.11083,4.11083,0,0,1,65.25,231.47754Zm0-7.53223a3.24224,3.24224,0,1,0,3.082,3.23828A3.028,3.028,0,0,0,65.25,223.94531Z" transform="translate(0 0.00002)" style="fill: #fff"/>
    <path d="M76.49219,231.333H75.08887l-2.15918-3.56152H72.043V231.333H70.87891v-8.27539h2.33887a3.16867,3.16867,0,0,1,1.99121.57617,2.307,2.307,0,0,1-1.0791,4.01758Zm-2.207-7.02832a2.20773,2.20773,0,0,0-1.39062-.2998H72.043v2.80664h.85156a2.28051,2.28051,0,0,0,1.39063-.28809,1.25,1.25,0,0,0,.52832-1.11523A1.23174,1.23174,0,0,0,74.28516,224.30469Z" transform="translate(0 0.00002)" style="fill: #fff"/>
  </g>
  <g>
    <path d="M54.53906,268.69629H52.21289V276H51.0498v-7.30371H48.71094v-.97168h5.82813Z" transform="translate(0 0.00002)" style="fill: #fff"/>
    <path d="M61.16309,276H59.75977l-2.15918-3.56152h-.8877V276H55.5498v-8.27539h2.33887a3.17058,3.17058,0,0,1,1.99121.57617,2.30761,2.30761,0,0,1-1.08008,4.01758Zm-2.207-7.02832a2.21076,2.21076,0,0,0-1.3916-.2998h-.85156v2.80664h.85156a2.28366,2.28366,0,0,0,1.3916-.28809,1.24926,1.24926,0,0,0,.52734-1.11523A1.231,1.231,0,0,0,58.95605,268.97168Z" transform="translate(0 0.00002)" style="fill: #fff"/>
    <path d="M63.19336,276H62.03027v-8.27539h1.16309Z" transform="translate(0 0.00002)" style="fill: #fff"/>
    <path d="M72.28613,274.80078a4.50963,4.50963,0,0,1-3.51465,1.34375,4.27038,4.27038,0,0,1-.01172-8.54,4.16339,4.16339,0,0,1,3.34668,1.43945l-.792.73145a3.18571,3.18571,0,0,0-2.55469-1.1748A2.98064,2.98064,0,0,0,65.75,271.8623a3.02247,3.02247,0,0,0,3.082,3.2627,2.98454,2.98454,0,0,0,2.32617-.75586v-1.835H68.92773v-.94727h3.3584Z" transform="translate(0 0.00002)" style="fill: #fff"/>
    <path d="M78.17969,275.49609a3.13249,3.13249,0,0,1-2.02734.64844,3.46285,3.46285,0,0,1-2.67383-1.3916l.68359-.7793a2.79755,2.79755,0,0,0,2.09863,1.1875,1.44875,1.44875,0,0,0,1.61914-1.3916c0-.86328-.92383-1.19922-1.34375-1.36719-.43164-.168-1.00684-.39551-1.31934-.55176a2.66106,2.66106,0,0,1-.82715-.58789,1.988,1.988,0,0,1-.54-1.43945,2.061,2.061,0,0,1,.75586-1.59473,2.90659,2.90659,0,0,1,1.90723-.61133,3.22412,3.22412,0,0,1,2.374,1.06738l-.61133.791a2.517,2.517,0,0,0-1.82324-.8877c-.81543,0-1.43848.38379-1.43848,1.15137s.56348,1.05566,1.06738,1.25977l1.52246.63574a3.21631,3.21631,0,0,1,.93555.67188,2.13046,2.13046,0,0,1,.50391,1.39063A2.30482,2.30482,0,0,1,78.17969,275.49609Z" transform="translate(0 0.00002)" style="fill: #fff"/>
  </g>
  <g>
    <path d="M20.93506,186.12012a3.40948,3.40948,0,0,1-2.68652-1.40332l.64795-.70752a2.8789,2.8789,0,0,0,2.01465,1.16309c1.07959,0,1.85889-.53955,1.85889-1.53516a1.51686,1.51686,0,0,0-1.71484-1.499h-.61182v-.92334h.61182a1.32036,1.32036,0,0,0,1.4873-1.34326,1.392,1.392,0,0,0-1.55908-1.34326,2.74031,2.74031,0,0,0-1.979.94727l-.54-.6958a3.22657,3.22657,0,0,1,2.61475-1.17529,2.33305,2.33305,0,0,1,2.59082,2.147,1.85926,1.85926,0,0,1-1.34375,1.87109v.03564a2.00455,2.00455,0,0,1,1.59521,2.02686C23.92139,185.19629,22.61426,186.12012,20.93506,186.12012Z" transform="translate(0 0.00002)"/>
    <path d="M21.33105,321.47754a2.7814,2.7814,0,0,1-2.50684-1.42773,5.11927,5.11927,0,0,1-.57568-2.69824,5.26472,5.26472,0,0,1,.97168-3.32227,2.84016,2.84016,0,0,1,2.37451-1.0918,3.65494,3.65494,0,0,1,2.32666.83984l-.4917.7793a2.80568,2.80568,0,0,0-1.82275-.707,1.74518,1.74518,0,0,0-1.53516.76758,4.37272,4.37272,0,0,0-.70752,2.63867,2.36682,2.36682,0,0,1,2.24268-1.17578,2.48991,2.48991,0,0,1,2.54248,2.543A2.71663,2.71663,0,0,1,21.33105,321.47754Zm-.02393-4.5459a1.81373,1.81373,0,1,0,1.71484,1.81152A1.69781,1.69781,0,0,0,21.30713,316.93164Z" transform="translate(0 0.00002)"/>
    <path d="M20.88721,276.14453a3.06262,3.06262,0,0,1-2.72266-1.3916l.64795-.67187a2.406,2.406,0,0,0,2.0625,1.10352,1.8368,1.8368,0,1,0,0-3.66992,2.364,2.364,0,0,0-1.46289.44336l-.58789-.34766.71973-3.88574h4.16162v.93555H20.3833l-.43164,2.19531a2.88711,2.88711,0,0,1,1.17529-.21582,2.69333,2.69333,0,0,1,2.81836,2.71A2.84248,2.84248,0,0,1,20.88721,276.14453Z" transform="translate(0 0.00002)"/>
    <path d="M24.41309,229.52246H23.21387V231.333H22.08643v-1.81055H17.91309v-.85156l4.08936-5.66113h1.21143v5.55273h1.19922Zm-2.31445-.94727V224.377l-3.04639,4.19824Z" transform="translate(0 0.00002)"/>
    <path d="M22.01563,94.667H20.88818V87.24316H19.269V86.3916h2.74658Z" transform="translate(0 0.00002)"/>
    <path d="M24.12549,140H18.53662l-.168-.77979,2.92627-2.77051a3.45966,3.45966,0,0,0,1.34326-2.29053,1.56288,1.56288,0,0,0-1.70312-1.60693,2.45029,2.45029,0,0,0-2.02686,1.33105l-.61133-.68359a2.9484,2.9484,0,0,1,2.71045-1.59521,2.47576,2.47576,0,0,1,2.77051,2.43457,4.32331,4.32331,0,0,1-1.75146,2.97461l-2.12256,2.02686h4.22168Z" transform="translate(0 0.00002)"/>
  </g>
  <rect x="38.87325" y="33.29169" width="12.75" height="12.75" style="fill: none;stroke: #000;stroke-miterlimit: 10"/>
  <g>
    <path d="M44.123,44.83984H43.2832V34.40674H44.123Z" transform="translate(0 0.00002)"/>
    <path d="M47.53125,44.83984h-.83984V34.40674h.83984Z" transform="translate(0 0.00002)"/>
  </g>
</svg>
