<?xml version="1.0" encoding="UTF-8" standalone="no"?>
<!DOCTYPE svg PUBLIC "-//W3C//DTD SVG 1.1//EN" "http://www.w3.org/Graphics/SVG/1.1/DTD/svg11.dtd">
<svg width="100%" height="100%" viewBox="0 0 210 380" version="1.1" xmlns="http://www.w3.org/2000/svg" xmlns:xlink="http://www.w3.org/1999/xlink" xml:space="preserve" xmlns:serif="http://www.serif.com/" style="fill-rule:evenodd;clip-rule:evenodd;stroke-linecap:round;stroke-linejoin:round;stroke-miterlimit:1.5;">
    <g id="svg8">
        <rect x="0" y="0" width="210" height="380" style="fill:rgb(240,240,240);"/>
        <g id="HetrickCVLogo">
            <path d="M84.81,374.578L83.204,374.578L83.204,369.247L77.128,369.247L77.128,374.578L75.522,374.578L75.522,363.154L77.128,363.154L77.128,367.873L83.204,367.873L83.204,363.154L84.81,363.154L84.81,374.578Z" style="fill:rgb(35,31,32);fill-rule:nonzero;"/>
            <path d="M93.018,374.578L86.197,374.578L86.197,363.154L92.886,363.154L92.886,364.496L87.803,364.496L87.803,367.906L92.604,367.906L92.604,369.247L87.803,369.247L87.803,373.221L93.018,373.221L93.018,374.578Z" style="fill:rgb(35,31,32);fill-rule:nonzero;"/>
            <path d="M101.891,364.496L98.679,364.496L98.679,374.578L97.073,374.578L97.073,364.496L93.845,364.496L93.845,363.154L101.891,363.154L101.891,364.496Z" style="fill:rgb(35,31,32);fill-rule:nonzero;"/>
            <path d="M107.601,364.877C107.088,364.496 106.475,364.463 105.681,364.463L104.505,364.463L104.505,368.337L105.681,368.337C106.475,368.337 107.088,368.304 107.601,367.94C108.115,367.559 108.33,367.095 108.33,366.399C108.33,365.721 108.115,365.241 107.601,364.877M110.648,374.578L108.71,374.578L105.73,369.661L104.505,369.661L104.505,374.578L102.899,374.578L102.899,363.154L106.127,363.154C107.27,363.154 108.197,363.42 108.876,363.949C109.555,364.496 109.985,365.323 109.985,366.366C109.985,368.37 108.594,369.264 107.386,369.496L110.648,374.578Z" style="fill:rgb(35,31,32);fill-rule:nonzero;"/>
            <rect x="111.84" y="363.154" width="1.605" height="11.424" style="fill:rgb(35,31,32);"/>
            <path d="M124.568,373.088C123.856,373.883 122.565,374.777 120.396,374.777C117.068,374.777 114.551,372.442 114.551,368.883C114.551,365.323 117.118,362.989 120.396,362.989C122.532,362.989 123.823,363.883 124.452,364.496L123.773,365.787C123.327,365.225 122.051,364.397 120.463,364.397C117.996,364.397 116.208,366.168 116.208,368.85C116.208,371.532 118.012,373.304 120.463,373.304C121.968,373.304 123.128,372.725 123.873,371.913L124.568,373.088Z" style="fill:rgb(237,50,36);fill-rule:nonzero;"/>
            <path d="M134.478,374.578L132.525,374.578L128.733,368.849L127.558,370.042L127.558,374.578L125.952,374.578L125.952,363.154L127.558,363.154L127.558,368.022L132.21,363.154L134.164,363.154L129.809,367.658L134.478,374.578Z" style="fill:rgb(237,50,36);fill-rule:nonzero;"/>
            <path d="M134.478,374.578L132.525,374.578L128.733,368.849L127.558,370.042L127.558,374.578L125.952,374.578L125.952,370.019L127.558,370.042L128.733,368.849L129.809,367.658L130.426,368.571L130.923,369.308L134.478,374.578Z" style="fill-rule:nonzero;"/>
        </g>
        <path d="M198.142,46.042L154.19,46.042C149.789,46.042 146.19,49.642 146.19,54.042L146.19,351.729C146.19,356.128 149.789,359.729 154.19,359.729L198.142,359.729C202.542,359.729 206.142,356.128 206.142,351.729L206.142,54.042C206.142,49.642 202.542,46.042 198.142,46.042" style="fill-rule:nonzero;"/>
        <g transform="matrix(1,0,0,1,30,-1.13243e-14)">
            <g transform="matrix(12,0,0,12,132.384,66.1369)">
                <path d="M0.141,-0.08L0.253,-0.08L0.253,-0.535L0.123,-0.465L0.086,-0.536L0.263,-0.633L0.344,-0.633L0.344,-0.08L0.454,-0.08L0.454,-0L0.141,-0L0.141,-0.08Z" style="fill:white;fill-rule:nonzero;"/>
            </g>
            <g transform="matrix(12,0,0,12,131.484,106.177)">
                <path d="M0.068,-0.065C0.068,-0.1 0.076,-0.131 0.093,-0.158C0.11,-0.185 0.13,-0.21 0.153,-0.233C0.182,-0.262 0.209,-0.286 0.235,-0.307C0.26,-0.328 0.283,-0.347 0.302,-0.364C0.321,-0.381 0.337,-0.399 0.348,-0.416C0.359,-0.433 0.364,-0.452 0.364,-0.474C0.364,-0.484 0.362,-0.494 0.359,-0.505C0.355,-0.516 0.349,-0.526 0.34,-0.535C0.331,-0.544 0.32,-0.551 0.307,-0.557C0.294,-0.563 0.277,-0.566 0.257,-0.566C0.239,-0.566 0.223,-0.564 0.209,-0.559C0.195,-0.554 0.183,-0.547 0.172,-0.54C0.161,-0.533 0.152,-0.524 0.145,-0.515C0.138,-0.506 0.131,-0.497 0.125,-0.489L0.058,-0.537C0.065,-0.549 0.074,-0.562 0.086,-0.575C0.097,-0.588 0.111,-0.6 0.128,-0.611C0.144,-0.622 0.163,-0.631 0.186,-0.638C0.208,-0.645 0.234,-0.648 0.263,-0.648C0.297,-0.648 0.327,-0.643 0.352,-0.634C0.377,-0.625 0.397,-0.612 0.413,-0.597C0.429,-0.581 0.441,-0.563 0.449,-0.543C0.457,-0.523 0.461,-0.502 0.461,-0.48C0.461,-0.457 0.457,-0.435 0.449,-0.415C0.441,-0.394 0.43,-0.375 0.417,-0.358C0.404,-0.341 0.389,-0.324 0.372,-0.309C0.355,-0.293 0.337,-0.278 0.319,-0.264C0.298,-0.247 0.278,-0.231 0.26,-0.216C0.241,-0.201 0.225,-0.186 0.212,-0.171C0.198,-0.156 0.187,-0.142 0.18,-0.127C0.172,-0.112 0.168,-0.097 0.168,-0.082L0.468,-0.082L0.468,-0L0.068,-0L0.068,-0.065Z" style="fill:white;fill-rule:nonzero;"/>
            </g>
            <g transform="matrix(12,0,0,12,131.484,146.957)">
                <path d="M0.087,-0.118C0.104,-0.105 0.123,-0.092 0.146,-0.081C0.169,-0.069 0.197,-0.063 0.232,-0.063C0.274,-0.063 0.307,-0.074 0.332,-0.097C0.357,-0.12 0.369,-0.15 0.369,-0.188C0.369,-0.222 0.359,-0.25 0.338,-0.272C0.317,-0.294 0.286,-0.305 0.245,-0.305C0.233,-0.305 0.222,-0.304 0.212,-0.302C0.202,-0.3 0.192,-0.297 0.183,-0.294L0.154,-0.341L0.331,-0.547L0.079,-0.547L0.079,-0.63L0.441,-0.63L0.441,-0.558L0.279,-0.369C0.307,-0.369 0.332,-0.365 0.355,-0.356C0.378,-0.347 0.397,-0.335 0.414,-0.319C0.43,-0.303 0.442,-0.284 0.451,-0.262C0.46,-0.239 0.464,-0.214 0.464,-0.187C0.464,-0.154 0.458,-0.124 0.446,-0.099C0.434,-0.074 0.418,-0.053 0.397,-0.036C0.376,-0.019 0.351,-0.006 0.323,0.004C0.294,0.013 0.264,0.017 0.231,0.017C0.207,0.017 0.185,0.015 0.165,0.011C0.145,0.007 0.127,0.002 0.111,-0.005C0.095,-0.012 0.081,-0.019 0.068,-0.028C0.055,-0.036 0.044,-0.044 0.034,-0.053L0.087,-0.118Z" style="fill:white;fill-rule:nonzero;"/>
            </g>
            <g transform="matrix(12,0,0,12,131.484,186.997)">
                <path d="M0.049,-0.208L0.335,-0.631L0.426,-0.631L0.426,-0.209L0.494,-0.209L0.494,-0.131L0.426,-0.131L0.426,-0L0.339,-0L0.339,-0.131L0.049,-0.131L0.049,-0.208ZM0.339,-0.209L0.339,-0.51L0.138,-0.209L0.339,-0.209Z" style="fill:white;fill-rule:nonzero;"/>
            </g>
            <g transform="matrix(12,0,0,12,131.484,226.177)">
                <path d="M0.089,-0.118C0.108,-0.103 0.128,-0.09 0.151,-0.08C0.173,-0.069 0.201,-0.064 0.234,-0.064C0.257,-0.064 0.278,-0.068 0.295,-0.075C0.312,-0.082 0.327,-0.091 0.339,-0.103C0.35,-0.115 0.359,-0.129 0.365,-0.145C0.37,-0.161 0.373,-0.178 0.373,-0.197C0.373,-0.21 0.371,-0.223 0.367,-0.238C0.363,-0.253 0.356,-0.266 0.346,-0.279C0.336,-0.291 0.322,-0.301 0.305,-0.309C0.288,-0.317 0.266,-0.321 0.239,-0.321C0.212,-0.321 0.19,-0.318 0.174,-0.313C0.158,-0.308 0.143,-0.302 0.13,-0.295L0.084,-0.33L0.144,-0.63L0.453,-0.63L0.453,-0.546L0.207,-0.546L0.178,-0.381C0.185,-0.385 0.195,-0.389 0.21,-0.393C0.225,-0.396 0.242,-0.398 0.263,-0.398C0.293,-0.398 0.321,-0.394 0.346,-0.385C0.371,-0.376 0.392,-0.364 0.41,-0.347C0.428,-0.33 0.442,-0.309 0.452,-0.285C0.462,-0.26 0.467,-0.232 0.467,-0.2C0.467,-0.171 0.462,-0.143 0.453,-0.117C0.444,-0.091 0.429,-0.068 0.41,-0.048C0.391,-0.028 0.366,-0.012 0.336,-0.001C0.306,0.011 0.27,0.017 0.229,0.017C0.185,0.017 0.148,0.01 0.117,-0.003C0.086,-0.016 0.059,-0.033 0.038,-0.052L0.089,-0.118Z" style="fill:white;fill-rule:nonzero;"/>
            </g>
            <g transform="matrix(12,0,0,12,131.484,266.217)">
                <path d="M0.437,-0.534C0.435,-0.535 0.431,-0.538 0.426,-0.541C0.42,-0.544 0.412,-0.548 0.403,-0.552C0.394,-0.555 0.383,-0.559 0.371,-0.562C0.358,-0.565 0.345,-0.566 0.33,-0.566C0.302,-0.566 0.277,-0.56 0.256,-0.548C0.235,-0.536 0.217,-0.52 0.202,-0.5C0.187,-0.48 0.176,-0.457 0.168,-0.432C0.16,-0.406 0.156,-0.379 0.155,-0.352C0.17,-0.362 0.189,-0.373 0.212,-0.385C0.235,-0.396 0.265,-0.402 0.301,-0.402C0.362,-0.402 0.409,-0.384 0.444,-0.348C0.478,-0.312 0.495,-0.261 0.495,-0.195C0.495,-0.164 0.49,-0.135 0.48,-0.109C0.469,-0.083 0.455,-0.061 0.437,-0.042C0.418,-0.023 0.396,-0.009 0.371,0.002C0.346,0.012 0.318,0.017 0.288,0.017C0.217,0.017 0.162,-0.008 0.123,-0.058C0.083,-0.108 0.063,-0.184 0.063,-0.285C0.063,-0.341 0.069,-0.391 0.081,-0.436C0.092,-0.481 0.11,-0.519 0.133,-0.55C0.156,-0.581 0.184,-0.605 0.217,-0.622C0.25,-0.639 0.289,-0.647 0.333,-0.647C0.367,-0.647 0.397,-0.642 0.422,-0.632C0.447,-0.622 0.465,-0.613 0.478,-0.605L0.437,-0.534ZM0.154,-0.273C0.154,-0.207 0.164,-0.156 0.185,-0.119C0.206,-0.082 0.24,-0.063 0.287,-0.063C0.303,-0.063 0.318,-0.066 0.333,-0.072C0.348,-0.078 0.361,-0.087 0.372,-0.098C0.383,-0.109 0.392,-0.123 0.399,-0.14C0.406,-0.157 0.409,-0.176 0.409,-0.197C0.409,-0.233 0.4,-0.263 0.382,-0.287C0.363,-0.31 0.333,-0.322 0.292,-0.322C0.26,-0.322 0.233,-0.317 0.211,-0.308C0.188,-0.298 0.169,-0.286 0.154,-0.273Z" style="fill:white;fill-rule:nonzero;"/>
            </g>
            <g transform="matrix(12,0,0,12,131.484,306.997)">
                <path d="M0.14,-0C0.155,-0.047 0.174,-0.098 0.195,-0.152C0.216,-0.205 0.238,-0.257 0.261,-0.308C0.283,-0.359 0.305,-0.405 0.326,-0.447C0.346,-0.489 0.364,-0.522 0.379,-0.546L0.069,-0.546L0.069,-0.631L0.472,-0.631L0.472,-0.549C0.462,-0.534 0.451,-0.513 0.438,-0.487C0.424,-0.461 0.411,-0.432 0.396,-0.401C0.381,-0.369 0.365,-0.335 0.35,-0.299C0.334,-0.263 0.319,-0.227 0.305,-0.192C0.291,-0.157 0.278,-0.122 0.266,-0.089C0.254,-0.056 0.244,-0.026 0.237,-0L0.14,-0Z" style="fill:white;fill-rule:nonzero;"/>
            </g>
            <g transform="matrix(12,0,0,12,131.484,347.037)">
                <path d="M0.273,-0.379C0.305,-0.389 0.331,-0.404 0.35,-0.423C0.369,-0.442 0.379,-0.465 0.379,-0.491C0.379,-0.516 0.369,-0.536 0.35,-0.553C0.331,-0.569 0.305,-0.577 0.273,-0.577C0.241,-0.577 0.215,-0.569 0.196,-0.553C0.177,-0.536 0.167,-0.514 0.167,-0.486C0.167,-0.463 0.176,-0.442 0.195,-0.423C0.213,-0.404 0.239,-0.389 0.273,-0.379ZM0.269,-0.302C0.251,-0.297 0.234,-0.291 0.218,-0.283C0.202,-0.274 0.188,-0.265 0.176,-0.254C0.164,-0.243 0.155,-0.23 0.148,-0.217C0.14,-0.203 0.137,-0.188 0.137,-0.172C0.137,-0.152 0.141,-0.135 0.15,-0.121C0.158,-0.106 0.169,-0.095 0.182,-0.086C0.195,-0.077 0.209,-0.07 0.225,-0.066C0.241,-0.062 0.257,-0.06 0.273,-0.06C0.289,-0.06 0.305,-0.062 0.321,-0.066C0.337,-0.07 0.352,-0.077 0.365,-0.086C0.378,-0.095 0.388,-0.106 0.396,-0.121C0.404,-0.135 0.408,-0.152 0.408,-0.172C0.408,-0.188 0.404,-0.203 0.397,-0.217C0.389,-0.23 0.379,-0.243 0.366,-0.254C0.353,-0.265 0.338,-0.274 0.321,-0.283C0.304,-0.291 0.287,-0.297 0.269,-0.302ZM0.176,-0.344C0.149,-0.358 0.127,-0.377 0.108,-0.4C0.089,-0.423 0.08,-0.452 0.08,-0.486C0.08,-0.509 0.085,-0.531 0.094,-0.551C0.102,-0.571 0.115,-0.588 0.132,-0.603C0.149,-0.617 0.169,-0.628 0.193,-0.636C0.216,-0.644 0.243,-0.648 0.273,-0.648C0.304,-0.648 0.332,-0.644 0.356,-0.636C0.38,-0.628 0.4,-0.617 0.416,-0.603C0.432,-0.589 0.444,-0.572 0.453,-0.554C0.461,-0.535 0.465,-0.514 0.465,-0.492C0.465,-0.461 0.456,-0.432 0.439,-0.407C0.422,-0.382 0.397,-0.362 0.365,-0.347C0.377,-0.342 0.391,-0.334 0.407,-0.325C0.422,-0.316 0.437,-0.304 0.451,-0.289C0.465,-0.274 0.477,-0.257 0.487,-0.238C0.496,-0.218 0.501,-0.195 0.501,-0.17C0.501,-0.149 0.497,-0.127 0.489,-0.105C0.48,-0.083 0.467,-0.063 0.449,-0.045C0.43,-0.027 0.407,-0.012 0.378,-0.001C0.349,0.01 0.314,0.016 0.273,0.016C0.231,0.016 0.196,0.01 0.167,-0.001C0.137,-0.012 0.114,-0.027 0.096,-0.045C0.078,-0.063 0.065,-0.083 0.057,-0.105C0.048,-0.126 0.044,-0.148 0.044,-0.169C0.044,-0.191 0.048,-0.211 0.055,-0.229C0.062,-0.247 0.072,-0.263 0.085,-0.278C0.097,-0.293 0.111,-0.306 0.127,-0.317C0.143,-0.328 0.159,-0.337 0.176,-0.344Z" style="fill:white;fill-rule:nonzero;"/>
            </g>
        </g>
        <path d="M74.04,16.831L75.786,16.831L82.338,26.209L82.338,16.831L84.03,16.831L84.03,28.837L82.302,28.837L75.732,19.441L75.732,28.837L74.04,28.837L74.04,16.831Z" style="fill-rule:nonzero;"/>
        <path d="M90.288,29.089C89.64,29.089 89.046,28.972 88.506,28.738C87.966,28.504 87.501,28.183 87.111,27.775C86.721,27.367 86.415,26.896 86.193,26.362C85.971,25.828 85.86,25.255 85.86,24.643C85.86,24.031 85.971,23.458 86.193,22.924C86.415,22.39 86.721,21.919 87.111,21.511C87.501,21.103 87.966,20.782 88.506,20.548C89.046,20.314 89.64,20.197 90.288,20.197C90.924,20.197 91.512,20.314 92.052,20.548C92.592,20.782 93.06,21.103 93.456,21.511C93.852,21.919 94.161,22.39 94.383,22.924C94.605,23.458 94.716,24.031 94.716,24.643C94.716,25.255 94.605,25.828 94.383,26.362C94.161,26.896 93.852,27.367 93.456,27.775C93.06,28.183 92.592,28.504 92.052,28.738C91.512,28.972 90.924,29.089 90.288,29.089ZM90.288,27.685C90.72,27.685 91.11,27.598 91.458,27.424C91.806,27.25 92.1,27.022 92.34,26.74C92.58,26.458 92.763,26.134 92.889,25.768C93.015,25.402 93.078,25.027 93.078,24.643C93.078,24.271 93.015,23.902 92.889,23.536C92.763,23.17 92.577,22.843 92.331,22.555C92.085,22.267 91.791,22.036 91.449,21.862C91.107,21.688 90.72,21.601 90.288,21.601C89.856,21.601 89.466,21.688 89.118,21.862C88.77,22.036 88.476,22.264 88.236,22.546C87.996,22.828 87.813,23.152 87.687,23.518C87.561,23.884 87.498,24.259 87.498,24.643C87.498,25.027 87.561,25.399 87.687,25.759C87.813,26.119 87.999,26.443 88.245,26.731C88.491,27.019 88.785,27.25 89.127,27.424C89.469,27.598 89.856,27.685 90.288,27.685Z" style="fill-rule:nonzero;"/>
        <path d="M96.294,28.837L96.294,21.268C96.294,21.01 96.288,20.743 96.276,20.467L97.824,20.467L97.878,21.817C97.974,21.673 98.1,21.514 98.256,21.34C98.412,21.166 98.601,21.007 98.823,20.863C99.045,20.719 99.303,20.596 99.597,20.494C99.891,20.392 100.23,20.341 100.614,20.341C100.794,20.341 100.959,20.353 101.109,20.377C101.259,20.401 101.4,20.437 101.532,20.485L101.172,21.997C100.956,21.913 100.68,21.871 100.344,21.871C99.996,21.871 99.675,21.937 99.381,22.069C99.087,22.201 98.832,22.384 98.616,22.618C98.4,22.852 98.229,23.125 98.103,23.437C97.977,23.749 97.914,24.079 97.914,24.427L97.914,28.837L96.294,28.837Z" style="fill-rule:nonzero;"/>
        <path d="M102.588,28.837L102.588,21.322C102.588,21.052 102.582,20.767 102.57,20.467L104.118,20.467L104.172,21.727C104.268,21.583 104.394,21.424 104.55,21.25C104.706,21.076 104.892,20.917 105.108,20.773C105.324,20.629 105.579,20.509 105.873,20.413C106.167,20.317 106.506,20.269 106.89,20.269C107.538,20.269 108.075,20.398 108.501,20.656C108.927,20.914 109.26,21.289 109.5,21.781C109.836,21.385 110.247,21.034 110.733,20.728C111.219,20.422 111.822,20.269 112.542,20.269C113.622,20.269 114.42,20.59 114.936,21.232C115.452,21.874 115.71,22.735 115.71,23.815L115.71,28.837L114.09,28.837L114.09,23.941C114.09,23.161 113.937,22.588 113.631,22.222C113.325,21.856 112.878,21.673 112.29,21.673C111.954,21.673 111.645,21.742 111.363,21.88C111.081,22.018 110.835,22.201 110.625,22.429C110.415,22.657 110.253,22.924 110.139,23.23C110.025,23.536 109.968,23.857 109.968,24.193L109.968,28.837L108.348,28.837L108.348,23.941C108.348,23.161 108.195,22.588 107.889,22.222C107.583,21.856 107.142,21.673 106.566,21.673C106.122,21.673 105.75,21.769 105.45,21.961C105.15,22.153 104.907,22.402 104.721,22.708C104.535,23.014 104.403,23.365 104.325,23.761C104.247,24.157 104.208,24.553 104.208,24.949L104.208,28.837L102.588,28.837Z" style="fill-rule:nonzero;"/>
        <path d="M122.85,24.877C122.802,24.865 122.709,24.85 122.571,24.832C122.433,24.814 122.274,24.799 122.094,24.787C121.914,24.775 121.722,24.763 121.518,24.751C121.314,24.739 121.116,24.733 120.924,24.733C120.468,24.733 120.099,24.787 119.817,24.895C119.535,25.003 119.313,25.138 119.151,25.3C118.989,25.462 118.878,25.642 118.818,25.84C118.758,26.038 118.728,26.227 118.728,26.407C118.728,26.863 118.884,27.208 119.196,27.442C119.508,27.676 119.94,27.793 120.492,27.793C120.804,27.793 121.101,27.739 121.383,27.631C121.665,27.523 121.914,27.379 122.13,27.199C122.346,27.019 122.52,26.809 122.652,26.569C122.784,26.329 122.85,26.083 122.85,25.831L122.85,24.877ZM122.868,27.829C122.556,28.249 122.145,28.561 121.635,28.765C121.125,28.969 120.6,29.071 120.06,29.071C119.712,29.071 119.367,29.026 119.025,28.936C118.683,28.846 118.371,28.696 118.089,28.486C117.807,28.276 117.579,28.006 117.405,27.676C117.231,27.346 117.144,26.941 117.144,26.461C117.144,25.561 117.459,24.841 118.089,24.301C118.719,23.761 119.628,23.491 120.816,23.491C121.008,23.491 121.212,23.497 121.428,23.509C121.644,23.521 121.848,23.533 122.04,23.545C122.232,23.557 122.4,23.569 122.544,23.581C122.688,23.593 122.79,23.605 122.85,23.617L122.85,23.311C122.85,22.687 122.661,22.24 122.283,21.97C121.905,21.7 121.392,21.565 120.744,21.565C120.108,21.565 119.604,21.652 119.232,21.826C118.86,22 118.548,22.177 118.296,22.357L117.54,21.259C117.684,21.139 117.858,21.019 118.062,20.899C118.266,20.779 118.506,20.668 118.782,20.566C119.058,20.464 119.37,20.38 119.718,20.314C120.066,20.248 120.468,20.215 120.924,20.215C122.004,20.215 122.853,20.476 123.471,20.998C124.089,21.52 124.398,22.261 124.398,23.221L124.398,28.09C124.398,28.384 124.404,28.633 124.416,28.837L122.904,28.837L122.868,27.829Z" style="fill-rule:nonzero;"/>
        <rect x="126.354" y="16.831" width="1.62" height="12.006" style="fill-rule:nonzero;"/>
        <path d="M130.488,26.731C130.788,27.031 131.148,27.271 131.568,27.451C131.988,27.631 132.474,27.721 133.026,27.721C133.566,27.721 134.016,27.634 134.376,27.46C134.736,27.286 134.916,27.013 134.916,26.641C134.916,26.449 134.877,26.284 134.799,26.146C134.721,26.008 134.589,25.885 134.403,25.777C134.217,25.669 133.971,25.57 133.665,25.48C133.359,25.39 132.978,25.291 132.522,25.183C132.198,25.111 131.877,25.015 131.559,24.895C131.241,24.775 130.956,24.616 130.704,24.418C130.452,24.22 130.248,23.98 130.092,23.698C129.936,23.416 129.858,23.077 129.858,22.681C129.858,22.273 129.951,21.916 130.137,21.61C130.323,21.304 130.572,21.046 130.884,20.836C131.196,20.626 131.547,20.467 131.937,20.359C132.327,20.251 132.732,20.197 133.152,20.197C133.86,20.197 134.469,20.29 134.979,20.476C135.489,20.662 135.936,20.923 136.32,21.259L135.438,22.375C135.186,22.147 134.871,21.955 134.493,21.799C134.115,21.643 133.674,21.565 133.17,21.565C132.654,21.565 132.24,21.649 131.928,21.817C131.616,21.985 131.46,22.261 131.46,22.645C131.46,23.005 131.667,23.272 132.081,23.446C132.495,23.62 133.038,23.785 133.71,23.941C134.106,24.037 134.475,24.148 134.817,24.274C135.159,24.4 135.459,24.562 135.717,24.76C135.975,24.958 136.179,25.201 136.329,25.489C136.479,25.777 136.554,26.125 136.554,26.533C136.554,26.953 136.458,27.322 136.266,27.64C136.074,27.958 135.816,28.225 135.492,28.441C135.168,28.657 134.796,28.819 134.376,28.927C133.956,29.035 133.518,29.089 133.062,29.089C131.478,29.089 130.29,28.663 129.498,27.811L130.488,26.731Z" style="fill-rule:nonzero;"/>
        <g>
            <path d="M39.839,65.184L41.183,65.184L41.183,59.724L39.623,60.564L39.179,59.712L41.303,58.548L42.275,58.548L42.275,65.184L43.595,65.184L43.595,66.144L39.839,66.144L39.839,65.184Z" style="fill-rule:nonzero;"/>
            <path d="M38.063,105.404C38.063,104.98 38.163,104.608 38.363,104.288C38.563,103.968 38.803,103.668 39.083,103.388C39.427,103.044 39.753,102.748 40.061,102.5C40.369,102.252 40.639,102.024 40.871,101.816C41.103,101.608 41.285,101.402 41.417,101.198C41.549,100.994 41.615,100.76 41.615,100.496C41.615,100.376 41.593,100.252 41.549,100.124C41.505,99.996 41.431,99.878 41.327,99.77C41.223,99.662 41.091,99.572 40.931,99.5C40.771,99.428 40.571,99.392 40.331,99.392C40.115,99.392 39.923,99.422 39.755,99.482C39.587,99.542 39.439,99.616 39.311,99.704C39.183,99.792 39.075,99.892 38.987,100.004C38.899,100.116 38.819,100.22 38.747,100.316L37.943,99.74C38.023,99.596 38.133,99.446 38.273,99.29C38.413,99.134 38.581,98.99 38.777,98.858C38.973,98.726 39.205,98.618 39.473,98.534C39.741,98.45 40.051,98.408 40.403,98.408C40.811,98.408 41.165,98.464 41.465,98.576C41.765,98.688 42.011,98.838 42.203,99.026C42.395,99.214 42.539,99.428 42.635,99.668C42.731,99.908 42.779,100.16 42.779,100.424C42.779,100.704 42.731,100.966 42.635,101.21C42.539,101.454 42.411,101.68 42.251,101.888C42.091,102.096 41.909,102.294 41.705,102.482C41.501,102.67 41.291,102.848 41.075,103.016C40.819,103.216 40.581,103.408 40.361,103.592C40.141,103.776 39.949,103.956 39.785,104.132C39.621,104.308 39.493,104.484 39.401,104.66C39.309,104.836 39.263,105.016 39.263,105.2L42.863,105.2L42.863,106.184L38.063,106.184L38.063,105.404Z" style="fill-rule:nonzero;"/>
            <path d="M38.291,145.548C38.491,145.708 38.727,145.858 38.999,145.998C39.271,146.138 39.615,146.208 40.031,146.208C40.535,146.208 40.935,146.072 41.231,145.8C41.527,145.528 41.675,145.164 41.675,144.708C41.675,144.3 41.549,143.964 41.297,143.7C41.045,143.436 40.675,143.304 40.187,143.304C40.043,143.304 39.911,143.316 39.791,143.34C39.671,143.364 39.555,143.396 39.443,143.436L39.095,142.872L41.219,140.4L38.195,140.4L38.195,139.404L42.539,139.404L42.539,140.268L40.595,142.536C40.931,142.536 41.235,142.588 41.507,142.692C41.779,142.796 42.013,142.944 42.209,143.136C42.405,143.328 42.555,143.558 42.659,143.826C42.763,144.094 42.815,144.392 42.815,144.72C42.815,145.12 42.743,145.472 42.599,145.776C42.455,146.08 42.257,146.334 42.005,146.538C41.753,146.742 41.457,146.898 41.117,147.006C40.777,147.114 40.411,147.168 40.019,147.168C39.731,147.168 39.467,147.144 39.227,147.096C38.987,147.048 38.771,146.984 38.579,146.904C38.387,146.824 38.215,146.734 38.063,146.634C37.911,146.534 37.775,146.432 37.655,146.328L38.291,145.548Z" style="fill-rule:nonzero;"/>
            <path d="M37.835,184.508L41.267,179.432L42.359,179.432L42.359,184.496L43.175,184.496L43.175,185.432L42.359,185.432L42.359,187.004L41.315,187.004L41.315,185.432L37.835,185.432L37.835,184.508ZM41.315,184.496L41.315,180.884L38.903,184.496L41.315,184.496Z" style="fill-rule:nonzero;"/>
            <path d="M38.315,224.768C38.539,224.952 38.785,225.106 39.053,225.23C39.321,225.354 39.655,225.416 40.055,225.416C40.335,225.416 40.579,225.374 40.787,225.29C40.995,225.206 41.169,225.092 41.309,224.948C41.449,224.804 41.553,224.636 41.621,224.444C41.689,224.252 41.723,224.044 41.723,223.82C41.723,223.668 41.699,223.504 41.651,223.328C41.603,223.152 41.519,222.99 41.399,222.842C41.279,222.694 41.115,222.572 40.907,222.476C40.699,222.38 40.435,222.332 40.115,222.332C39.787,222.332 39.527,222.364 39.335,222.428C39.143,222.492 38.967,222.564 38.807,222.644L38.255,222.224L38.975,218.624L42.683,218.624L42.683,219.632L39.731,219.632L39.383,221.612C39.463,221.564 39.591,221.518 39.767,221.474C39.943,221.43 40.155,221.408 40.403,221.408C40.763,221.408 41.093,221.46 41.393,221.564C41.693,221.668 41.951,221.822 42.167,222.026C42.383,222.23 42.551,222.478 42.671,222.77C42.791,223.062 42.851,223.4 42.851,223.784C42.851,224.136 42.795,224.468 42.683,224.78C42.571,225.092 42.399,225.368 42.167,225.608C41.935,225.848 41.639,226.038 41.279,226.178C40.919,226.318 40.491,226.388 39.995,226.388C39.467,226.388 39.017,226.308 38.645,226.148C38.273,225.988 37.959,225.792 37.703,225.56L38.315,224.768Z" style="fill-rule:nonzero;"/>
            <path d="M42.491,259.816C42.467,259.8 42.421,259.772 42.353,259.732C42.285,259.692 42.195,259.65 42.083,259.606C41.971,259.562 41.841,259.522 41.693,259.486C41.545,259.45 41.383,259.432 41.207,259.432C40.871,259.432 40.575,259.504 40.319,259.648C40.063,259.792 39.847,259.984 39.671,260.224C39.495,260.464 39.359,260.738 39.263,261.046C39.167,261.354 39.115,261.672 39.107,262C39.283,261.88 39.511,261.75 39.791,261.61C40.071,261.47 40.427,261.4 40.859,261.4C41.587,261.4 42.157,261.616 42.569,262.048C42.981,262.48 43.187,263.092 43.187,263.884C43.187,264.26 43.125,264.604 43.001,264.916C42.877,265.228 42.705,265.496 42.485,265.72C42.265,265.944 42.003,266.118 41.699,266.242C41.395,266.366 41.063,266.428 40.703,266.428C39.855,266.428 39.193,266.128 38.717,265.528C38.241,264.928 38.003,264.02 38.003,262.804C38.003,262.132 38.073,261.528 38.213,260.992C38.353,260.456 38.561,260 38.837,259.624C39.113,259.248 39.451,258.96 39.851,258.76C40.251,258.56 40.715,258.46 41.243,258.46C41.651,258.46 42.005,258.52 42.305,258.64C42.605,258.76 42.831,258.868 42.983,258.964L42.491,259.816ZM39.095,262.948C39.095,263.74 39.219,264.358 39.467,264.802C39.715,265.246 40.123,265.468 40.691,265.468C40.883,265.468 41.067,265.432 41.243,265.36C41.419,265.288 41.575,265.184 41.711,265.048C41.847,264.912 41.955,264.744 42.035,264.544C42.115,264.344 42.155,264.116 42.155,263.86C42.155,263.428 42.045,263.07 41.825,262.786C41.605,262.502 41.247,262.36 40.751,262.36C40.367,262.36 40.041,262.418 39.773,262.534C39.505,262.65 39.279,262.788 39.095,262.948Z" style="fill-rule:nonzero;"/>
            <path d="M38.927,307.004C39.111,306.436 39.331,305.83 39.587,305.186C39.843,304.542 40.105,303.916 40.373,303.308C40.641,302.7 40.901,302.144 41.153,301.64C41.405,301.136 41.619,300.74 41.795,300.452L38.075,300.452L38.075,299.432L42.911,299.432L42.911,300.416C42.791,300.6 42.653,300.848 42.497,301.16C42.341,301.472 42.173,301.818 41.993,302.198C41.813,302.578 41.629,302.984 41.441,303.416C41.253,303.848 41.075,304.276 40.907,304.7C40.739,305.124 40.583,305.536 40.439,305.936C40.295,306.336 40.179,306.692 40.091,307.004L38.927,307.004Z" style="fill-rule:nonzero;"/>
            <path d="M40.523,342.496C40.907,342.376 41.215,342.2 41.447,341.968C41.679,341.736 41.795,341.464 41.795,341.152C41.795,340.856 41.679,340.61 41.447,340.414C41.215,340.218 40.907,340.12 40.523,340.12C40.139,340.12 39.831,340.218 39.599,340.414C39.367,340.61 39.251,340.876 39.251,341.212C39.251,341.484 39.361,341.736 39.581,341.968C39.801,342.2 40.115,342.376 40.523,342.496ZM40.475,343.42C40.259,343.476 40.055,343.554 39.863,343.654C39.671,343.754 39.503,343.87 39.359,344.002C39.215,344.134 39.101,344.282 39.017,344.446C38.933,344.61 38.891,344.788 38.891,344.98C38.891,345.22 38.941,345.426 39.041,345.598C39.141,345.77 39.269,345.91 39.425,346.018C39.581,346.126 39.755,346.204 39.947,346.252C40.139,346.3 40.331,346.324 40.523,346.324C40.715,346.324 40.907,346.3 41.099,346.252C41.291,346.204 41.465,346.126 41.621,346.018C41.777,345.91 41.903,345.77 41.999,345.598C42.095,345.426 42.143,345.22 42.143,344.98C42.143,344.788 42.097,344.61 42.005,344.446C41.913,344.282 41.789,344.134 41.633,344.002C41.477,343.87 41.299,343.754 41.099,343.654C40.899,343.554 40.691,343.476 40.475,343.42ZM39.359,342.916C39.039,342.748 38.767,342.524 38.543,342.244C38.319,341.964 38.207,341.62 38.207,341.212C38.207,340.932 38.261,340.672 38.369,340.432C38.477,340.192 38.631,339.986 38.831,339.814C39.031,339.642 39.273,339.508 39.557,339.412C39.841,339.316 40.163,339.268 40.523,339.268C40.899,339.268 41.231,339.316 41.519,339.412C41.807,339.508 42.047,339.64 42.239,339.808C42.431,339.976 42.577,340.174 42.677,340.402C42.777,340.63 42.827,340.876 42.827,341.14C42.827,341.516 42.723,341.856 42.515,342.16C42.307,342.464 42.011,342.704 41.627,342.88C41.771,342.944 41.937,343.032 42.125,343.144C42.313,343.256 42.491,343.4 42.659,343.576C42.827,343.752 42.969,343.958 43.085,344.194C43.201,344.43 43.259,344.7 43.259,345.004C43.259,345.26 43.209,345.52 43.109,345.784C43.009,346.048 42.849,346.288 42.629,346.504C42.409,346.72 42.125,346.896 41.777,347.032C41.429,347.168 41.011,347.236 40.523,347.236C40.019,347.236 39.593,347.168 39.245,347.032C38.897,346.896 38.615,346.72 38.399,346.504C38.183,346.288 38.025,346.05 37.925,345.79C37.825,345.53 37.775,345.272 37.775,345.016C37.775,344.752 37.819,344.512 37.907,344.296C37.995,344.08 38.113,343.884 38.261,343.708C38.409,343.532 38.579,343.378 38.771,343.246C38.963,343.114 39.159,343.004 39.359,342.916Z" style="fill-rule:nonzero;"/>
        </g>
        <g>
            <path d="M95.83,62.014L146.19,62.014" style="fill:none;stroke:black;stroke-width:1px;"/>
            <path d="M45.47,62.014C47.537,62.014 51.098,65.83 53.013,65.83C54.567,65.83 57.049,62.014 58.501,62.014C60.666,62.014 64.112,65.83 66.044,65.83C67.433,65.83 70.266,62.014 71.533,62.014C73.992,62.014 77.308,66.972 79.076,65.83C85.712,61.541 82.136,61.002 84.564,62.014" style="fill:none;stroke:black;stroke-width:1px;"/>
        </g>
        <g>
            <path d="M95.83,221.786L146.19,221.786" style="fill:none;stroke:black;stroke-width:1px;"/>
            <path d="M45.47,221.786C47.537,221.786 51.098,225.602 53.013,225.602C54.567,225.602 57.049,221.786 58.501,221.786C60.666,221.786 64.112,225.602 66.044,225.602C67.433,225.602 70.266,221.786 71.533,221.786C73.992,221.786 77.308,226.744 79.076,225.602C85.712,221.313 82.136,220.774 84.564,221.786" style="fill:none;stroke:black;stroke-width:1px;"/>
        </g>
        <g>
            <path d="M95.83,142.059L146.19,142.059" style="fill:none;stroke:black;stroke-width:1px;"/>
            <path d="M45.47,142.059C47.537,142.059 51.098,145.874 53.013,145.874C54.567,145.874 57.049,142.059 58.501,142.059C60.666,142.059 64.112,145.874 66.044,145.874C67.433,145.874 70.266,142.059 71.533,142.059C73.992,142.059 77.308,147.016 79.076,145.874C85.712,141.586 82.136,141.046 84.564,142.059" style="fill:none;stroke:black;stroke-width:1px;"/>
        </g>
        <g>
            <path d="M95.83,301.831L146.19,301.831" style="fill:none;stroke:black;stroke-width:1px;"/>
            <path d="M45.47,301.831C47.537,301.831 51.098,305.646 53.013,305.646C54.567,305.646 57.049,301.831 58.501,301.831C60.666,301.831 64.112,305.646 66.044,305.646C67.433,305.646 70.266,301.831 71.533,301.831C73.992,301.831 77.308,306.788 79.076,305.646C85.712,301.358 82.136,300.818 84.564,301.831" style="fill:none;stroke:black;stroke-width:1px;"/>
        </g>
        <g>
            <path d="M95.83,102.249L146.19,102.249" style="fill:none;stroke:black;stroke-width:1px;"/>
            <path d="M45.47,102.249C47.537,102.249 51.098,106.064 53.013,106.064C54.567,106.064 57.049,102.249 58.501,102.249C60.666,102.249 64.112,106.064 66.044,106.064C67.433,106.064 70.266,102.249 71.533,102.249C73.992,102.249 77.308,107.206 79.076,106.064C85.712,101.776 82.136,101.236 84.564,102.249" style="fill:none;stroke:black;stroke-width:1px;"/>
        </g>
        <g>
            <path d="M95.83,262.021L146.19,262.021" style="fill:none;stroke:black;stroke-width:1px;"/>
            <path d="M45.47,262.021C47.537,262.021 51.098,265.836 53.013,265.836C54.567,265.836 57.049,262.021 58.501,262.021C60.666,262.021 64.112,265.836 66.044,265.836C67.433,265.836 70.266,262.021 71.533,262.021C73.992,262.021 77.308,266.978 79.076,265.836C85.712,261.548 82.136,261.008 84.564,262.021" style="fill:none;stroke:black;stroke-width:1px;"/>
        </g>
        <g id="_4" serif:id="4">
            <path d="M95.83,182.293L146.19,182.293" style="fill:none;stroke:black;stroke-width:1px;"/>
            <path d="M45.47,182.293C47.537,182.293 51.098,186.109 53.013,186.109C54.567,186.109 57.049,182.293 58.501,182.293C60.666,182.293 64.112,186.109 66.044,186.109C67.433,186.109 70.266,182.293 71.533,182.293C73.992,182.293 77.308,187.251 79.076,186.109C85.712,181.82 82.136,181.281 84.564,182.293" style="fill:none;stroke:black;stroke-width:1px;"/>
        </g>
        <g id="_8" serif:id="8">
            <path d="M95.83,342.065L146.19,342.065" style="fill:none;stroke:black;stroke-width:1px;"/>
            <path d="M45.47,342.065C47.537,342.065 51.098,345.881 53.013,345.881C54.567,345.881 57.049,342.065 58.501,342.065C60.666,342.065 64.112,345.881 66.044,345.881C67.433,345.881 70.266,342.065 71.533,342.065C73.992,342.065 77.308,347.023 79.076,345.881C85.712,341.592 82.136,341.053 84.564,342.065" style="fill:none;stroke:black;stroke-width:1px;"/>
        </g>
    </g>
</svg>
