<?xml version="1.0" encoding="UTF-8" standalone="no"?>
<!DOCTYPE svg PUBLIC "-//W3C//DTD SVG 1.1//EN" "http://www.w3.org/Graphics/SVG/1.1/DTD/svg11.dtd">
<svg width="100%" height="100%" viewBox="0 0 90 380" version="1.1" xmlns="http://www.w3.org/2000/svg" xmlns:xlink="http://www.w3.org/1999/xlink" xml:space="preserve" xmlns:serif="http://www.serif.com/" style="fill-rule:evenodd;clip-rule:evenodd;stroke-miterlimit:10;">
    <g id="svg8">
        <rect x="0" y="0" width="90" height="380" style="fill:rgb(240,240,240);"/>
        <path d="M25.784,361.578L24.178,361.578L24.178,356.247L18.102,356.247L18.102,361.578L16.496,361.578L16.496,350.154L18.102,350.154L18.102,354.873L24.178,354.873L24.178,350.154L25.784,350.154L25.784,361.578Z" style="fill:rgb(35,31,32);fill-rule:nonzero;"/>
        <path d="M33.992,361.578L27.171,361.578L27.171,350.154L33.86,350.154L33.86,351.496L28.777,351.496L28.777,354.906L33.578,354.906L33.578,356.247L28.777,356.247L28.777,360.221L33.992,360.221L33.992,361.578Z" style="fill:rgb(35,31,32);fill-rule:nonzero;"/>
        <path d="M42.865,351.496L39.653,351.496L39.653,361.578L38.047,361.578L38.047,351.496L34.819,351.496L34.819,350.154L42.865,350.154L42.865,351.496Z" style="fill:rgb(35,31,32);fill-rule:nonzero;"/>
        <path d="M48.575,351.877C48.062,351.496 47.449,351.463 46.655,351.463L45.479,351.463L45.479,355.337L46.655,355.337C47.449,355.337 48.062,355.304 48.575,354.94C49.089,354.559 49.304,354.095 49.304,353.399C49.304,352.721 49.089,352.241 48.575,351.877M51.622,361.578L49.684,361.578L46.704,356.661L45.479,356.661L45.479,361.578L43.873,361.578L43.873,350.154L47.101,350.154C48.244,350.154 49.171,350.42 49.85,350.949C50.529,351.496 50.959,352.323 50.959,353.366C50.959,355.37 49.568,356.264 48.36,356.496L51.622,361.578Z" style="fill:rgb(35,31,32);fill-rule:nonzero;"/>
        <rect x="52.814" y="350.154" width="1.605" height="11.424" style="fill:rgb(35,31,32);"/>
        <path d="M65.542,360.088C64.83,360.883 63.539,361.777 61.37,361.777C58.042,361.777 55.525,359.442 55.525,355.883C55.525,352.323 58.092,349.989 61.37,349.989C63.506,349.989 64.797,350.883 65.426,351.496L64.747,352.787C64.301,352.225 63.025,351.397 61.437,351.397C58.97,351.397 57.182,353.168 57.182,355.85C57.182,358.532 58.986,360.304 61.437,360.304C62.942,360.304 64.102,359.725 64.847,358.913L65.542,360.088Z" style="fill:rgb(237,50,36);fill-rule:nonzero;"/>
        <path d="M75.452,361.578L73.499,361.578L69.707,355.849L68.532,357.042L68.532,361.578L66.926,361.578L66.926,350.154L68.532,350.154L68.532,355.022L73.184,350.154L75.138,350.154L70.783,354.658L75.452,361.578Z" style="fill:rgb(237,50,36);fill-rule:nonzero;"/>
        <path d="M75.452,361.578L73.499,361.578L69.707,355.849L68.532,357.042L68.532,361.578L66.926,361.578L66.926,357.019L68.532,357.042L69.707,355.849L70.783,354.658L71.4,355.571L71.897,356.308L75.452,361.578Z" style="fill-rule:nonzero;"/>
        <path d="M57.571,280L32.429,280C28.029,280 24.429,283.6 24.429,288L24.429,317.333C24.429,321.733 28.029,325.333 32.429,325.333L57.571,325.333C61.97,325.333 65.571,321.733 65.571,317.333L65.571,288C65.571,283.6 61.97,280 57.571,280Z" style="fill-rule:nonzero;stroke:white;stroke-width:1px;"/>
        <path d="M63.79,106.597L26.211,106.597C19.634,106.597 14.253,110.956 14.253,116.283L14.253,315.648C14.253,320.975 19.634,325.334 26.211,325.334L63.79,325.334C70.365,325.334 75.748,320.975 75.748,315.648L75.748,116.283C75.748,110.956 70.365,106.597 63.79,106.597" style="fill-rule:nonzero;"/>
        <g transform="matrix(1,0,0,1,-29.6641,3.55271e-15)">
            <g transform="matrix(18,0,0,18,48.5776,28.8369)">
                <path d="M0.076,-0.667L0.287,-0.667C0.332,-0.667 0.37,-0.661 0.4,-0.648C0.429,-0.635 0.453,-0.619 0.47,-0.6C0.488,-0.581 0.5,-0.559 0.507,-0.535C0.515,-0.511 0.518,-0.488 0.518,-0.465C0.518,-0.432 0.512,-0.402 0.501,-0.377C0.49,-0.352 0.474,-0.331 0.454,-0.314C0.434,-0.297 0.41,-0.284 0.383,-0.275C0.355,-0.266 0.325,-0.262 0.292,-0.262L0.171,-0.262L0.171,-0L0.076,-0L0.076,-0.667ZM0.291,-0.344C0.332,-0.344 0.364,-0.355 0.387,-0.376C0.409,-0.397 0.42,-0.426 0.42,-0.463C0.42,-0.501 0.408,-0.531 0.386,-0.553C0.363,-0.574 0.331,-0.585 0.291,-0.585L0.171,-0.585L0.171,-0.344L0.291,-0.344Z" style="fill-rule:nonzero;"/>
            </g>
            <g transform="matrix(18,0,0,18,58.0546,28.8369)">
                <path d="M0.061,-0.667L0.15,-0.667L0.15,-0.396C0.156,-0.404 0.163,-0.413 0.172,-0.422C0.181,-0.431 0.191,-0.44 0.204,-0.448C0.217,-0.456 0.231,-0.463 0.248,-0.468C0.265,-0.473 0.284,-0.476 0.305,-0.476C0.366,-0.476 0.411,-0.458 0.44,-0.423C0.469,-0.388 0.484,-0.34 0.484,-0.279L0.484,-0L0.394,-0L0.394,-0.272C0.394,-0.315 0.385,-0.347 0.366,-0.368C0.347,-0.388 0.321,-0.398 0.287,-0.398C0.261,-0.398 0.239,-0.393 0.222,-0.382C0.205,-0.371 0.191,-0.358 0.181,-0.341C0.17,-0.324 0.163,-0.304 0.158,-0.282C0.153,-0.261 0.151,-0.239 0.151,-0.216L0.151,-0L0.061,-0L0.061,-0.667Z" style="fill-rule:nonzero;"/>
            </g>
            <g transform="matrix(18,0,0,18,67.4776,28.8369)">
                <path d="M0.352,-0.22C0.349,-0.221 0.344,-0.222 0.337,-0.223C0.329,-0.224 0.32,-0.224 0.31,-0.225C0.3,-0.226 0.289,-0.226 0.278,-0.227C0.267,-0.228 0.256,-0.228 0.245,-0.228C0.22,-0.228 0.199,-0.225 0.184,-0.219C0.168,-0.213 0.156,-0.205 0.147,-0.197C0.138,-0.188 0.131,-0.178 0.128,-0.167C0.125,-0.156 0.123,-0.145 0.123,-0.135C0.123,-0.11 0.132,-0.091 0.149,-0.078C0.166,-0.065 0.19,-0.058 0.221,-0.058C0.238,-0.058 0.255,-0.061 0.271,-0.067C0.286,-0.073 0.3,-0.081 0.312,-0.091C0.324,-0.101 0.334,-0.113 0.341,-0.126C0.348,-0.139 0.352,-0.153 0.352,-0.167L0.352,-0.22ZM0.353,-0.056C0.336,-0.033 0.313,-0.015 0.284,-0.004C0.256,0.007 0.227,0.013 0.197,0.013C0.178,0.013 0.159,0.01 0.14,0.005C0.121,0 0.103,-0.008 0.087,-0.02C0.072,-0.031 0.059,-0.046 0.05,-0.065C0.04,-0.083 0.035,-0.105 0.035,-0.132C0.035,-0.182 0.053,-0.222 0.087,-0.252C0.123,-0.282 0.173,-0.297 0.239,-0.297C0.25,-0.297 0.261,-0.297 0.273,-0.296C0.285,-0.295 0.296,-0.295 0.307,-0.294C0.318,-0.293 0.327,-0.293 0.335,-0.292C0.343,-0.291 0.349,-0.291 0.352,-0.29L0.352,-0.307C0.352,-0.342 0.342,-0.367 0.321,-0.382C0.3,-0.397 0.271,-0.404 0.235,-0.404C0.2,-0.404 0.172,-0.399 0.151,-0.39C0.13,-0.38 0.113,-0.37 0.099,-0.36L0.057,-0.421C0.065,-0.428 0.075,-0.434 0.086,-0.441C0.097,-0.448 0.111,-0.454 0.126,-0.46C0.141,-0.465 0.159,-0.47 0.178,-0.473C0.197,-0.477 0.22,-0.479 0.245,-0.479C0.305,-0.479 0.352,-0.465 0.387,-0.436C0.421,-0.406 0.438,-0.365 0.438,-0.312L0.438,-0.042C0.438,-0.025 0.438,-0.011 0.439,-0L0.355,-0L0.353,-0.056Z" style="fill-rule:nonzero;"/>
            </g>
            <g transform="matrix(18,0,0,18,76.1086,28.8369)">
                <path d="M0.092,-0.117C0.109,-0.1 0.129,-0.087 0.152,-0.077C0.175,-0.067 0.202,-0.062 0.233,-0.062C0.263,-0.062 0.288,-0.067 0.308,-0.077C0.328,-0.086 0.338,-0.101 0.338,-0.122C0.338,-0.133 0.336,-0.142 0.332,-0.15C0.327,-0.157 0.32,-0.164 0.31,-0.17C0.299,-0.176 0.285,-0.182 0.269,-0.187C0.252,-0.192 0.23,-0.197 0.205,-0.203C0.187,-0.207 0.169,-0.212 0.152,-0.219C0.134,-0.226 0.118,-0.234 0.104,-0.246C0.09,-0.257 0.079,-0.27 0.07,-0.285C0.061,-0.301 0.057,-0.32 0.057,-0.342C0.057,-0.365 0.062,-0.385 0.073,-0.402C0.083,-0.419 0.097,-0.433 0.114,-0.445C0.131,-0.456 0.151,-0.465 0.172,-0.471C0.194,-0.477 0.217,-0.48 0.24,-0.48C0.279,-0.48 0.313,-0.475 0.342,-0.465C0.37,-0.454 0.395,-0.44 0.416,-0.421L0.367,-0.359C0.353,-0.372 0.336,-0.382 0.315,-0.391C0.294,-0.4 0.269,-0.404 0.241,-0.404C0.212,-0.404 0.189,-0.399 0.172,-0.39C0.155,-0.381 0.146,-0.365 0.146,-0.344C0.146,-0.324 0.158,-0.309 0.181,-0.3C0.203,-0.29 0.234,-0.281 0.271,-0.272C0.293,-0.267 0.314,-0.261 0.333,-0.254C0.352,-0.247 0.368,-0.237 0.383,-0.227C0.397,-0.216 0.408,-0.202 0.417,-0.186C0.425,-0.17 0.429,-0.151 0.429,-0.128C0.429,-0.105 0.424,-0.084 0.413,-0.067C0.402,-0.049 0.388,-0.034 0.37,-0.022C0.352,-0.01 0.331,-0.001 0.308,0.005C0.285,0.011 0.26,0.014 0.235,0.014C0.147,0.014 0.081,-0.01 0.037,-0.057L0.092,-0.117Z" style="fill-rule:nonzero;"/>
            </g>
            <g transform="matrix(18,0,0,18,84.2536,28.8369)">
                <path d="M0.286,0.014C0.25,0.014 0.217,0.007 0.187,-0.006C0.157,-0.019 0.131,-0.036 0.11,-0.059C0.088,-0.082 0.071,-0.108 0.059,-0.138C0.046,-0.167 0.04,-0.199 0.04,-0.233C0.04,-0.267 0.046,-0.299 0.059,-0.329C0.071,-0.358 0.088,-0.384 0.11,-0.407C0.131,-0.43 0.157,-0.448 0.187,-0.461C0.217,-0.473 0.25,-0.48 0.286,-0.48C0.321,-0.48 0.354,-0.473 0.384,-0.461C0.414,-0.448 0.44,-0.43 0.462,-0.407C0.484,-0.384 0.501,-0.358 0.514,-0.329C0.526,-0.299 0.532,-0.267 0.532,-0.233C0.532,-0.199 0.526,-0.167 0.514,-0.138C0.501,-0.108 0.484,-0.082 0.462,-0.059C0.44,-0.036 0.414,-0.019 0.384,-0.006C0.354,0.007 0.321,0.014 0.286,0.014ZM0.286,-0.064C0.31,-0.064 0.332,-0.069 0.351,-0.079C0.37,-0.088 0.387,-0.101 0.4,-0.117C0.413,-0.132 0.424,-0.15 0.431,-0.171C0.438,-0.191 0.441,-0.212 0.441,-0.233C0.441,-0.254 0.438,-0.274 0.431,-0.295C0.424,-0.315 0.413,-0.333 0.4,-0.349C0.386,-0.365 0.37,-0.378 0.35,-0.388C0.332,-0.397 0.31,-0.402 0.286,-0.402C0.262,-0.402 0.24,-0.397 0.221,-0.388C0.202,-0.378 0.185,-0.365 0.172,-0.349C0.159,-0.334 0.149,-0.316 0.141,-0.296C0.135,-0.275 0.131,-0.254 0.131,-0.233C0.131,-0.212 0.135,-0.191 0.141,-0.171C0.149,-0.151 0.159,-0.133 0.172,-0.117C0.186,-0.101 0.203,-0.088 0.222,-0.079C0.241,-0.069 0.262,-0.064 0.286,-0.064Z" style="fill-rule:nonzero;"/>
            </g>
            <g transform="matrix(18,0,0,18,94.1986,28.8369)">
                <path d="M0.062,-0L0.062,-0.421C0.062,-0.435 0.062,-0.45 0.061,-0.465L0.147,-0.465L0.15,-0.39C0.155,-0.398 0.162,-0.407 0.171,-0.417C0.18,-0.426 0.19,-0.435 0.203,-0.443C0.215,-0.451 0.229,-0.458 0.246,-0.464C0.262,-0.469 0.281,-0.472 0.302,-0.472C0.312,-0.472 0.321,-0.471 0.33,-0.47C0.338,-0.469 0.346,-0.467 0.353,-0.464L0.333,-0.38C0.321,-0.385 0.306,-0.387 0.287,-0.387C0.268,-0.387 0.25,-0.383 0.234,-0.376C0.217,-0.369 0.203,-0.359 0.191,-0.345C0.179,-0.333 0.17,-0.317 0.163,-0.3C0.156,-0.283 0.152,-0.264 0.152,-0.245L0.152,-0L0.062,-0Z" style="fill-rule:nonzero;"/>
            </g>
            <g transform="matrix(18,0,0,18,42.0436,46.8369)">
                <path d="M0.271,-0.667L0.369,-0.667L0.63,-0L0.523,-0L0.454,-0.186L0.18,-0.186L0.111,-0L0.01,-0L0.271,-0.667ZM0.425,-0.267L0.317,-0.56L0.208,-0.267L0.425,-0.267Z" style="fill-rule:nonzero;"/>
            </g>
            <g transform="matrix(18,0,0,18,53.2306,46.8369)">
                <path d="M0.062,-0L0.062,-0.418C0.062,-0.433 0.062,-0.448 0.061,-0.465L0.147,-0.465L0.15,-0.395C0.156,-0.403 0.163,-0.412 0.172,-0.422C0.181,-0.431 0.191,-0.44 0.204,-0.448C0.217,-0.456 0.232,-0.463 0.249,-0.468C0.266,-0.473 0.285,-0.476 0.306,-0.476C0.367,-0.476 0.412,-0.458 0.441,-0.423C0.47,-0.388 0.485,-0.34 0.485,-0.279L0.485,-0L0.395,-0L0.395,-0.272C0.395,-0.315 0.386,-0.347 0.367,-0.368C0.348,-0.388 0.322,-0.398 0.288,-0.398C0.262,-0.398 0.24,-0.393 0.223,-0.382C0.206,-0.371 0.192,-0.358 0.182,-0.341C0.171,-0.324 0.164,-0.304 0.159,-0.282C0.154,-0.261 0.152,-0.239 0.152,-0.216L0.152,-0L0.062,-0Z" style="fill-rule:nonzero;"/>
            </g>
            <g transform="matrix(18,0,0,18,62.6716,46.8369)">
                <path d="M0.352,-0.22C0.349,-0.221 0.344,-0.222 0.337,-0.223C0.329,-0.224 0.32,-0.224 0.31,-0.225C0.3,-0.226 0.289,-0.226 0.278,-0.227C0.267,-0.228 0.256,-0.228 0.245,-0.228C0.22,-0.228 0.199,-0.225 0.184,-0.219C0.168,-0.213 0.156,-0.205 0.147,-0.197C0.138,-0.188 0.131,-0.178 0.128,-0.167C0.125,-0.156 0.123,-0.145 0.123,-0.135C0.123,-0.11 0.132,-0.091 0.149,-0.078C0.166,-0.065 0.19,-0.058 0.221,-0.058C0.238,-0.058 0.255,-0.061 0.271,-0.067C0.286,-0.073 0.3,-0.081 0.312,-0.091C0.324,-0.101 0.334,-0.113 0.341,-0.126C0.348,-0.139 0.352,-0.153 0.352,-0.167L0.352,-0.22ZM0.353,-0.056C0.336,-0.033 0.313,-0.015 0.284,-0.004C0.256,0.007 0.227,0.013 0.197,0.013C0.178,0.013 0.159,0.01 0.14,0.005C0.121,0 0.103,-0.008 0.087,-0.02C0.072,-0.031 0.059,-0.046 0.05,-0.065C0.04,-0.083 0.035,-0.105 0.035,-0.132C0.035,-0.182 0.053,-0.222 0.087,-0.252C0.123,-0.282 0.173,-0.297 0.239,-0.297C0.25,-0.297 0.261,-0.297 0.273,-0.296C0.285,-0.295 0.296,-0.295 0.307,-0.294C0.318,-0.293 0.327,-0.293 0.335,-0.292C0.343,-0.291 0.349,-0.291 0.352,-0.29L0.352,-0.307C0.352,-0.342 0.342,-0.367 0.321,-0.382C0.3,-0.397 0.271,-0.404 0.235,-0.404C0.2,-0.404 0.172,-0.399 0.151,-0.39C0.13,-0.38 0.113,-0.37 0.099,-0.36L0.057,-0.421C0.065,-0.428 0.075,-0.434 0.086,-0.441C0.097,-0.448 0.111,-0.454 0.126,-0.46C0.141,-0.465 0.159,-0.47 0.178,-0.473C0.197,-0.477 0.22,-0.479 0.245,-0.479C0.305,-0.479 0.352,-0.465 0.387,-0.436C0.421,-0.406 0.438,-0.365 0.438,-0.312L0.438,-0.042C0.438,-0.025 0.438,-0.011 0.439,-0L0.355,-0L0.353,-0.056Z" style="fill-rule:nonzero;"/>
            </g>
            <g transform="matrix(18,0,0,18,71.3026,46.8369)">
                <rect x="0.062" y="-0.667" width="0.09" height="0.667" style="fill-rule:nonzero;"/>
            </g>
            <g transform="matrix(18,0,0,18,74.8036,46.8369)">
                <path d="M0.064,0.114C0.071,0.12 0.078,0.125 0.087,0.13C0.096,0.135 0.106,0.137 0.119,0.137C0.13,0.137 0.139,0.135 0.147,0.13C0.154,0.125 0.161,0.118 0.168,0.108C0.174,0.099 0.18,0.087 0.186,0.073C0.191,0.06 0.198,0.044 0.205,0.026L0.217,-0.004L0.009,-0.465L0.112,-0.465L0.262,-0.114L0.394,-0.465L0.492,-0.465L0.306,-0.012C0.297,0.009 0.289,0.033 0.28,0.058C0.271,0.084 0.259,0.108 0.246,0.131C0.233,0.154 0.216,0.174 0.197,0.189C0.178,0.204 0.153,0.212 0.124,0.212C0.101,0.212 0.081,0.209 0.065,0.202C0.049,0.196 0.035,0.188 0.023,0.177L0.064,0.114Z" style="fill-rule:nonzero;"/>
            </g>
            <g transform="matrix(18,0,0,18,83.2186,46.8369)">
                <path d="M0.052,-0.071L0.318,-0.389L0.061,-0.389L0.061,-0.465L0.428,-0.465L0.428,-0.393L0.157,-0.075L0.431,-0.075L0.431,-0L0.052,-0L0.052,-0.071Z" style="fill-rule:nonzero;"/>
            </g>
            <g transform="matrix(18,0,0,18,91.4356,46.8369)">
                <path d="M0.486,-0.068C0.481,-0.062 0.473,-0.054 0.462,-0.045C0.451,-0.036 0.438,-0.027 0.421,-0.018C0.404,-0.009 0.384,-0.002 0.361,0.004C0.338,0.011 0.311,0.014 0.282,0.014C0.246,0.014 0.213,0.008 0.183,-0.004C0.153,-0.016 0.127,-0.033 0.106,-0.055C0.085,-0.077 0.068,-0.103 0.057,-0.134C0.045,-0.165 0.039,-0.199 0.039,-0.236C0.039,-0.27 0.045,-0.302 0.056,-0.332C0.067,-0.361 0.083,-0.387 0.104,-0.408C0.125,-0.43 0.149,-0.447 0.178,-0.46C0.206,-0.473 0.237,-0.479 0.271,-0.479C0.311,-0.479 0.345,-0.471 0.374,-0.456C0.403,-0.441 0.426,-0.42 0.445,-0.395C0.463,-0.37 0.476,-0.341 0.485,-0.308C0.494,-0.275 0.498,-0.241 0.498,-0.206L0.131,-0.206C0.132,-0.185 0.136,-0.166 0.145,-0.149C0.153,-0.132 0.164,-0.117 0.178,-0.104C0.192,-0.091 0.208,-0.081 0.226,-0.074C0.244,-0.067 0.263,-0.063 0.283,-0.063C0.322,-0.063 0.355,-0.07 0.38,-0.083C0.405,-0.096 0.424,-0.109 0.435,-0.122L0.486,-0.068ZM0.405,-0.273C0.402,-0.309 0.39,-0.34 0.367,-0.365C0.344,-0.39 0.312,-0.403 0.271,-0.403C0.25,-0.403 0.231,-0.399 0.214,-0.392C0.197,-0.385 0.182,-0.375 0.17,-0.363C0.158,-0.351 0.149,-0.337 0.142,-0.322C0.135,-0.306 0.132,-0.29 0.131,-0.273L0.405,-0.273Z" style="fill-rule:nonzero;"/>
            </g>
            <g transform="matrix(18,0,0,18,100.733,46.8369)">
                <path d="M0.062,-0L0.062,-0.421C0.062,-0.435 0.062,-0.45 0.061,-0.465L0.147,-0.465L0.15,-0.39C0.155,-0.398 0.162,-0.407 0.171,-0.417C0.18,-0.426 0.19,-0.435 0.203,-0.443C0.215,-0.451 0.229,-0.458 0.246,-0.464C0.262,-0.469 0.281,-0.472 0.302,-0.472C0.312,-0.472 0.321,-0.471 0.33,-0.47C0.338,-0.469 0.346,-0.467 0.353,-0.464L0.333,-0.38C0.321,-0.385 0.306,-0.387 0.287,-0.387C0.268,-0.387 0.25,-0.383 0.234,-0.376C0.217,-0.369 0.203,-0.359 0.191,-0.345C0.179,-0.333 0.17,-0.317 0.163,-0.3C0.156,-0.283 0.152,-0.264 0.152,-0.245L0.152,-0L0.062,-0Z" style="fill-rule:nonzero;"/>
            </g>
        </g>
        <path d="M22.05,88.552L24.582,88.552C25.126,88.552 25.576,88.628 25.932,88.78C26.288,88.932 26.572,89.124 26.784,89.356C26.996,89.588 27.144,89.848 27.228,90.136C27.312,90.424 27.354,90.704 27.354,90.976C27.354,91.376 27.286,91.728 27.15,92.032C27.014,92.336 26.826,92.59 26.586,92.794C26.346,92.998 26.06,93.152 25.728,93.256C25.396,93.36 25.034,93.412 24.642,93.412L23.19,93.412L23.19,96.556L22.05,96.556L22.05,88.552ZM24.63,92.428C25.126,92.428 25.508,92.302 25.776,92.05C26.044,91.798 26.178,91.448 26.178,91C26.178,90.544 26.04,90.186 25.764,89.926C25.488,89.666 25.11,89.536 24.63,89.536L23.19,89.536L23.19,92.428L24.63,92.428Z" style="fill-rule:nonzero;"/>
        <path d="M28.434,88.552L29.502,88.552L29.502,91.804C29.574,91.708 29.662,91.604 29.766,91.492C29.87,91.38 29.998,91.276 30.15,91.18C30.302,91.084 30.478,91.004 30.678,90.94C30.878,90.876 31.106,90.844 31.362,90.844C32.09,90.844 32.63,91.056 32.982,91.48C33.334,91.904 33.51,92.48 33.51,93.208L33.51,96.556L32.43,96.556L32.43,93.292C32.43,92.772 32.318,92.39 32.094,92.146C31.87,91.902 31.554,91.78 31.146,91.78C30.834,91.78 30.574,91.844 30.366,91.972C30.158,92.1 29.992,92.266 29.868,92.47C29.744,92.674 29.654,92.906 29.598,93.166C29.542,93.426 29.514,93.692 29.514,93.964L29.514,96.556L28.434,96.556L28.434,88.552Z" style="fill-rule:nonzero;"/>
        <path d="M38.454,93.916C38.422,93.908 38.36,93.898 38.268,93.886C38.176,93.874 38.07,93.864 37.95,93.856C37.83,93.848 37.702,93.84 37.566,93.832C37.43,93.824 37.298,93.82 37.17,93.82C36.866,93.82 36.62,93.856 36.432,93.928C36.244,94 36.096,94.09 35.988,94.198C35.88,94.306 35.806,94.426 35.766,94.558C35.726,94.69 35.706,94.816 35.706,94.936C35.706,95.24 35.81,95.47 36.018,95.626C36.226,95.782 36.514,95.86 36.882,95.86C37.09,95.86 37.288,95.824 37.476,95.752C37.664,95.68 37.83,95.584 37.974,95.464C38.118,95.344 38.234,95.204 38.322,95.044C38.41,94.884 38.454,94.72 38.454,94.552L38.454,93.916ZM38.466,95.884C38.258,96.164 37.984,96.372 37.644,96.508C37.304,96.644 36.954,96.712 36.594,96.712C36.362,96.712 36.132,96.682 35.904,96.622C35.676,96.562 35.468,96.462 35.28,96.322C35.092,96.182 34.94,96.002 34.824,95.782C34.708,95.562 34.65,95.292 34.65,94.972C34.65,94.372 34.86,93.892 35.28,93.532C35.7,93.172 36.306,92.992 37.098,92.992C37.226,92.992 37.362,92.996 37.506,93.004C37.65,93.012 37.786,93.02 37.914,93.028C38.042,93.036 38.154,93.044 38.25,93.052C38.346,93.06 38.414,93.068 38.454,93.076L38.454,92.872C38.454,92.456 38.328,92.158 38.076,91.978C37.824,91.798 37.482,91.708 37.05,91.708C36.626,91.708 36.29,91.766 36.042,91.882C35.794,91.998 35.586,92.116 35.418,92.236L34.914,91.504C35.01,91.424 35.126,91.344 35.262,91.264C35.398,91.184 35.558,91.11 35.742,91.042C35.926,90.974 36.134,90.918 36.366,90.874C36.598,90.83 36.866,90.808 37.17,90.808C37.89,90.808 38.456,90.982 38.868,91.33C39.28,91.678 39.486,92.172 39.486,92.812L39.486,96.058C39.486,96.254 39.49,96.42 39.498,96.556L38.49,96.556L38.466,95.884Z" style="fill-rule:nonzero;"/>
        <path d="M41.334,95.152C41.534,95.352 41.774,95.512 42.054,95.632C42.334,95.752 42.658,95.812 43.026,95.812C43.386,95.812 43.686,95.754 43.926,95.638C44.166,95.522 44.286,95.34 44.286,95.092C44.286,94.964 44.26,94.854 44.208,94.762C44.156,94.67 44.068,94.588 43.944,94.516C43.82,94.444 43.656,94.378 43.452,94.318C43.248,94.258 42.994,94.192 42.69,94.12C42.474,94.072 42.26,94.008 42.048,93.928C41.836,93.848 41.646,93.742 41.478,93.61C41.31,93.478 41.174,93.318 41.07,93.13C40.966,92.942 40.914,92.716 40.914,92.452C40.914,92.18 40.976,91.942 41.1,91.738C41.224,91.534 41.39,91.362 41.598,91.222C41.806,91.082 42.04,90.976 42.3,90.904C42.56,90.832 42.83,90.796 43.11,90.796C43.582,90.796 43.988,90.858 44.328,90.982C44.668,91.106 44.966,91.28 45.222,91.504L44.634,92.248C44.466,92.096 44.256,91.968 44.004,91.864C43.752,91.76 43.458,91.708 43.122,91.708C42.778,91.708 42.502,91.764 42.294,91.876C42.086,91.988 41.982,92.172 41.982,92.428C41.982,92.668 42.12,92.846 42.396,92.962C42.672,93.078 43.034,93.188 43.482,93.292C43.746,93.356 43.992,93.43 44.22,93.514C44.448,93.598 44.648,93.706 44.82,93.838C44.992,93.97 45.128,94.132 45.228,94.324C45.328,94.516 45.378,94.748 45.378,95.02C45.378,95.3 45.314,95.546 45.186,95.758C45.058,95.97 44.886,96.148 44.67,96.292C44.454,96.436 44.206,96.544 43.926,96.616C43.646,96.688 43.354,96.724 43.05,96.724C41.994,96.724 41.202,96.44 40.674,95.872L41.334,95.152Z" style="fill-rule:nonzero;"/>
        <path d="M49.338,96.724C48.906,96.724 48.51,96.646 48.15,96.49C47.79,96.334 47.48,96.12 47.22,95.848C46.96,95.576 46.756,95.262 46.608,94.906C46.46,94.55 46.386,94.168 46.386,93.76C46.386,93.352 46.46,92.97 46.608,92.614C46.756,92.258 46.96,91.944 47.22,91.672C47.48,91.4 47.79,91.186 48.15,91.03C48.51,90.874 48.906,90.796 49.338,90.796C49.762,90.796 50.154,90.874 50.514,91.03C50.874,91.186 51.186,91.4 51.45,91.672C51.714,91.944 51.92,92.258 52.068,92.614C52.216,92.97 52.29,93.352 52.29,93.76C52.29,94.168 52.216,94.55 52.068,94.906C51.92,95.262 51.714,95.576 51.45,95.848C51.186,96.12 50.874,96.334 50.514,96.49C50.154,96.646 49.762,96.724 49.338,96.724ZM49.338,95.788C49.626,95.788 49.886,95.73 50.118,95.614C50.35,95.498 50.546,95.346 50.706,95.158C50.866,94.97 50.988,94.754 51.072,94.51C51.156,94.266 51.198,94.016 51.198,93.76C51.198,93.512 51.156,93.266 51.072,93.022C50.988,92.778 50.864,92.56 50.7,92.368C50.536,92.176 50.34,92.022 50.112,91.906C49.884,91.79 49.626,91.732 49.338,91.732C49.05,91.732 48.79,91.79 48.558,91.906C48.326,92.022 48.13,92.174 47.97,92.362C47.81,92.55 47.688,92.766 47.604,93.01C47.52,93.254 47.478,93.504 47.478,93.76C47.478,94.016 47.52,94.264 47.604,94.504C47.688,94.744 47.812,94.96 47.976,95.152C48.14,95.344 48.336,95.498 48.564,95.614C48.792,95.73 49.05,95.788 49.338,95.788Z" style="fill-rule:nonzero;"/>
        <path d="M53.526,96.556L53.526,91.51C53.526,91.338 53.522,91.16 53.514,90.976L54.546,90.976L54.582,91.876C54.646,91.78 54.73,91.674 54.834,91.558C54.938,91.442 55.064,91.336 55.212,91.24C55.36,91.144 55.532,91.062 55.728,90.994C55.924,90.926 56.15,90.892 56.406,90.892C56.526,90.892 56.636,90.9 56.736,90.916C56.836,90.932 56.93,90.956 57.018,90.988L56.778,91.996C56.634,91.94 56.45,91.912 56.226,91.912C55.994,91.912 55.78,91.956 55.584,92.044C55.388,92.132 55.218,92.254 55.074,92.41C54.93,92.566 54.816,92.748 54.732,92.956C54.648,93.164 54.606,93.384 54.606,93.616L54.606,96.556L53.526,96.556Z" style="fill-rule:nonzero;"/>
        <rect x="60.258" y="88.552" width="1.152" height="8.004" style="fill-rule:nonzero;"/>
        <path d="M63.078,96.556L63.078,91.546C63.078,91.366 63.074,91.176 63.066,90.976L64.098,90.976L64.134,91.816C64.206,91.72 64.294,91.614 64.398,91.498C64.502,91.382 64.63,91.276 64.782,91.18C64.934,91.084 65.112,91.004 65.316,90.94C65.52,90.876 65.75,90.844 66.006,90.844C66.734,90.844 67.274,91.056 67.626,91.48C67.978,91.904 68.154,92.48 68.154,93.208L68.154,96.556L67.074,96.556L67.074,93.292C67.074,92.772 66.962,92.39 66.738,92.146C66.514,91.902 66.198,91.78 65.79,91.78C65.478,91.78 65.218,91.844 65.01,91.972C64.802,92.1 64.636,92.266 64.512,92.47C64.388,92.674 64.298,92.906 64.242,93.166C64.186,93.426 64.158,93.692 64.158,93.964L64.158,96.556L63.078,96.556Z" style="fill-rule:nonzero;"/>
        <path d="M21.6,141.068L24.276,141.068C24.908,141.068 25.49,141.146 26.022,141.302C26.554,141.458 27.012,141.702 27.396,142.034C27.78,142.366 28.08,142.784 28.296,143.288C28.512,143.792 28.62,144.392 28.62,145.088C28.62,145.76 28.512,146.346 28.296,146.846C28.08,147.346 27.78,147.762 27.396,148.094C27.012,148.426 26.552,148.672 26.016,148.832C25.48,148.992 24.896,149.072 24.264,149.072L21.6,149.072L21.6,141.068ZM24.24,148.04C25.24,148.04 26.018,147.794 26.574,147.302C27.13,146.81 27.408,146.08 27.408,145.112C27.408,144.136 27.14,143.39 26.604,142.874C26.068,142.358 25.268,142.1 24.204,142.1L22.752,142.1L22.752,148.04L24.24,148.04Z" style="fill:white;fill-rule:nonzero;"/>
        <path d="M29.988,141.284L31.2,141.284L31.2,142.496L29.988,142.496L29.988,141.284ZM30.06,143.492L31.14,143.492L31.14,149.072L30.06,149.072L30.06,143.492Z" style="fill:white;fill-rule:nonzero;"/>
        <path d="M32.676,149.072L32.676,144.026C32.676,143.854 32.672,143.676 32.664,143.492L33.696,143.492L33.732,144.392C33.796,144.296 33.88,144.19 33.984,144.074C34.088,143.958 34.214,143.852 34.362,143.756C34.51,143.66 34.682,143.578 34.878,143.51C35.074,143.442 35.3,143.408 35.556,143.408C35.676,143.408 35.786,143.416 35.886,143.432C35.986,143.448 36.08,143.472 36.168,143.504L35.928,144.512C35.784,144.456 35.6,144.428 35.376,144.428C35.144,144.428 34.93,144.472 34.734,144.56C34.538,144.648 34.368,144.77 34.224,144.926C34.08,145.082 33.966,145.264 33.882,145.472C33.798,145.68 33.756,145.9 33.756,146.132L33.756,149.072L32.676,149.072Z" style="fill:white;fill-rule:nonzero;"/>
        <path d="M42.132,148.256C42.068,148.328 41.972,148.42 41.844,148.532C41.716,148.644 41.55,148.752 41.346,148.856C41.142,148.96 40.902,149.05 40.626,149.126C40.35,149.202 40.036,149.24 39.684,149.24C39.252,149.24 38.856,149.168 38.496,149.024C38.136,148.88 37.828,148.676 37.572,148.412C37.316,148.148 37.118,147.832 36.978,147.464C36.838,147.096 36.768,146.688 36.768,146.24C36.768,145.832 36.836,145.45 36.972,145.094C37.108,144.738 37.3,144.43 37.548,144.17C37.796,143.91 38.09,143.704 38.43,143.552C38.77,143.4 39.144,143.324 39.552,143.324C40.032,143.324 40.444,143.416 40.788,143.6C41.132,143.784 41.414,144.028 41.634,144.332C41.854,144.636 42.016,144.984 42.12,145.376C42.224,145.768 42.276,146.176 42.276,146.6L37.872,146.6C37.88,146.848 37.934,147.076 38.034,147.284C38.134,147.492 38.268,147.672 38.436,147.824C38.604,147.976 38.796,148.096 39.012,148.184C39.228,148.272 39.456,148.316 39.696,148.316C40.168,148.316 40.556,148.236 40.86,148.076C41.164,147.916 41.384,147.76 41.52,147.608L42.132,148.256ZM41.16,145.796C41.128,145.364 40.976,144.996 40.704,144.692C40.432,144.388 40.048,144.236 39.552,144.236C39.296,144.236 39.066,144.28 38.862,144.368C38.658,144.456 38.484,144.572 38.34,144.716C38.196,144.86 38.084,145.026 38.004,145.214C37.924,145.402 37.88,145.596 37.872,145.796L41.16,145.796Z" style="fill:white;fill-rule:nonzero;"/>
        <path d="M48.324,148.304C48.076,148.584 47.77,148.81 47.406,148.982C47.042,149.154 46.62,149.24 46.14,149.24C45.692,149.24 45.286,149.166 44.922,149.018C44.558,148.87 44.25,148.666 43.998,148.406C43.746,148.146 43.552,147.834 43.416,147.47C43.28,147.106 43.212,146.708 43.212,146.276C43.212,145.868 43.284,145.484 43.428,145.124C43.572,144.764 43.774,144.45 44.034,144.182C44.294,143.914 44.602,143.702 44.958,143.546C45.314,143.39 45.708,143.312 46.14,143.312C46.612,143.312 47.028,143.396 47.388,143.564C47.748,143.732 48.056,143.96 48.312,144.248L47.604,144.932C47.436,144.724 47.232,144.56 46.992,144.44C46.752,144.32 46.468,144.26 46.14,144.26C45.852,144.26 45.594,144.314 45.366,144.422C45.138,144.53 44.946,144.678 44.79,144.866C44.634,145.054 44.514,145.27 44.43,145.514C44.346,145.758 44.304,146.012 44.304,146.276C44.304,146.532 44.346,146.782 44.43,147.026C44.514,147.27 44.634,147.486 44.79,147.674C44.946,147.862 45.138,148.012 45.366,148.124C45.594,148.236 45.852,148.292 46.14,148.292C46.468,148.292 46.762,148.23 47.022,148.106C47.282,147.982 47.496,147.816 47.664,147.608L48.324,148.304Z" style="fill:white;fill-rule:nonzero;"/>
        <path d="M49.872,144.392L48.864,144.392L48.864,143.492L49.872,143.492L49.872,141.668L50.952,141.668L50.952,143.492L52.584,143.492L52.584,144.392L50.952,144.392L50.952,147.14C50.952,147.588 51.022,147.896 51.162,148.064C51.302,148.232 51.5,148.316 51.756,148.316C51.964,148.316 52.136,148.284 52.272,148.22C52.408,148.156 52.544,148.06 52.68,147.932L53.172,148.592C52.94,148.816 52.702,148.978 52.458,149.078C52.214,149.178 51.924,149.228 51.588,149.228C50.996,149.228 50.562,149.068 50.286,148.748C50.01,148.428 49.872,147.928 49.872,147.248L49.872,144.392Z" style="fill:white;fill-rule:nonzero;"/>
        <path d="M53.976,141.284L55.188,141.284L55.188,142.496L53.976,142.496L53.976,141.284ZM54.048,143.492L55.128,143.492L55.128,149.072L54.048,149.072L54.048,143.492Z" style="fill:white;fill-rule:nonzero;"/>
        <path d="M59.352,149.24C58.92,149.24 58.524,149.162 58.164,149.006C57.804,148.85 57.494,148.636 57.234,148.364C56.974,148.092 56.77,147.778 56.622,147.422C56.474,147.066 56.4,146.684 56.4,146.276C56.4,145.868 56.474,145.486 56.622,145.13C56.77,144.774 56.974,144.46 57.234,144.188C57.494,143.916 57.804,143.702 58.164,143.546C58.524,143.39 58.92,143.312 59.352,143.312C59.776,143.312 60.168,143.39 60.528,143.546C60.888,143.702 61.2,143.916 61.464,144.188C61.728,144.46 61.934,144.774 62.082,145.13C62.23,145.486 62.304,145.868 62.304,146.276C62.304,146.684 62.23,147.066 62.082,147.422C61.934,147.778 61.728,148.092 61.464,148.364C61.2,148.636 60.888,148.85 60.528,149.006C60.168,149.162 59.776,149.24 59.352,149.24ZM59.352,148.304C59.64,148.304 59.9,148.246 60.132,148.13C60.364,148.014 60.56,147.862 60.72,147.674C60.88,147.486 61.002,147.27 61.086,147.026C61.17,146.782 61.212,146.532 61.212,146.276C61.212,146.028 61.17,145.782 61.086,145.538C61.002,145.294 60.878,145.076 60.714,144.884C60.55,144.692 60.354,144.538 60.126,144.422C59.898,144.306 59.64,144.248 59.352,144.248C59.064,144.248 58.804,144.306 58.572,144.422C58.34,144.538 58.144,144.69 57.984,144.878C57.824,145.066 57.702,145.282 57.618,145.526C57.534,145.77 57.492,146.02 57.492,146.276C57.492,146.532 57.534,146.78 57.618,147.02C57.702,147.26 57.826,147.476 57.99,147.668C58.154,147.86 58.35,148.014 58.578,148.13C58.806,148.246 59.064,148.304 59.352,148.304Z" style="fill:white;fill-rule:nonzero;"/>
        <path d="M63.528,149.072L63.528,144.062C63.528,143.882 63.524,143.692 63.516,143.492L64.548,143.492L64.584,144.332C64.656,144.236 64.744,144.13 64.848,144.014C64.952,143.898 65.08,143.792 65.232,143.696C65.384,143.6 65.562,143.52 65.766,143.456C65.97,143.392 66.2,143.36 66.456,143.36C67.184,143.36 67.724,143.572 68.076,143.996C68.428,144.42 68.604,144.996 68.604,145.724L68.604,149.072L67.524,149.072L67.524,145.808C67.524,145.288 67.412,144.906 67.188,144.662C66.964,144.418 66.648,144.296 66.24,144.296C65.928,144.296 65.668,144.36 65.46,144.488C65.252,144.616 65.086,144.782 64.962,144.986C64.838,145.19 64.748,145.422 64.692,145.682C64.636,145.942 64.608,146.208 64.608,146.48L64.608,149.072L63.528,149.072Z" style="fill:white;fill-rule:nonzero;"/>
        <path d="M31.32,272.042C31.552,272.306 31.786,272.498 32.022,272.618C32.258,272.738 32.54,272.798 32.868,272.798C33.06,272.798 33.238,272.768 33.402,272.708C33.566,272.648 33.712,272.554 33.84,272.426C33.968,272.298 34.068,272.134 34.14,271.934C34.212,271.734 34.248,271.494 34.248,271.214L34.248,265.658L35.4,265.658L35.4,271.31C35.4,271.774 35.332,272.168 35.196,272.492C35.06,272.816 34.878,273.08 34.65,273.284C34.422,273.488 34.156,273.636 33.852,273.728C33.548,273.82 33.228,273.866 32.892,273.866C32.3,273.866 31.816,273.762 31.44,273.554C31.064,273.346 30.752,273.082 30.504,272.762L31.32,272.042Z" style="fill:white;fill-rule:nonzero;"/>
        <path d="M36.972,268.082L38.052,268.082L38.052,271.358C38.052,271.886 38.16,272.268 38.376,272.504C38.592,272.74 38.904,272.858 39.312,272.858C39.624,272.858 39.882,272.794 40.086,272.666C40.29,272.538 40.456,272.372 40.584,272.168C40.712,271.964 40.802,271.732 40.854,271.472C40.906,271.212 40.932,270.946 40.932,270.674L40.932,268.082L42.012,268.082L42.012,273.092C42.012,273.272 42.016,273.462 42.024,273.662L40.992,273.662L40.956,272.834C40.884,272.93 40.796,273.034 40.692,273.146C40.588,273.258 40.46,273.36 40.308,273.452C40.156,273.544 39.98,273.622 39.78,273.686C39.58,273.75 39.352,273.782 39.096,273.782C38.368,273.782 37.832,273.572 37.488,273.152C37.144,272.732 36.972,272.158 36.972,271.43L36.972,268.082Z" style="fill:white;fill-rule:nonzero;"/>
        <path d="M43.512,273.662L43.512,268.652C43.512,268.472 43.508,268.282 43.5,268.082L44.532,268.082L44.568,268.922C44.632,268.826 44.716,268.72 44.82,268.604C44.924,268.488 45.048,268.382 45.192,268.286C45.336,268.19 45.506,268.11 45.702,268.046C45.898,267.982 46.124,267.95 46.38,267.95C46.812,267.95 47.17,268.036 47.454,268.208C47.738,268.38 47.96,268.63 48.12,268.958C48.344,268.694 48.618,268.46 48.942,268.256C49.266,268.052 49.668,267.95 50.148,267.95C50.868,267.95 51.4,268.164 51.744,268.592C52.088,269.02 52.26,269.594 52.26,270.314L52.26,273.662L51.18,273.662L51.18,270.398C51.18,269.878 51.078,269.496 50.874,269.252C50.67,269.008 50.372,268.886 49.98,268.886C49.756,268.886 49.55,268.932 49.362,269.024C49.174,269.116 49.01,269.238 48.87,269.39C48.73,269.542 48.622,269.72 48.546,269.924C48.47,270.128 48.432,270.342 48.432,270.566L48.432,273.662L47.352,273.662L47.352,270.398C47.352,269.878 47.25,269.496 47.046,269.252C46.842,269.008 46.548,268.886 46.164,268.886C45.868,268.886 45.62,268.95 45.42,269.078C45.22,269.206 45.058,269.372 44.934,269.576C44.81,269.78 44.722,270.014 44.67,270.278C44.618,270.542 44.592,270.806 44.592,271.07L44.592,273.662L43.512,273.662Z" style="fill:white;fill-rule:nonzero;"/>
        <path d="M53.712,276.062L53.712,268.652C53.712,268.472 53.708,268.282 53.7,268.082L54.732,268.082L54.768,268.874C54.824,268.802 54.904,268.714 55.008,268.61C55.112,268.506 55.242,268.406 55.398,268.31C55.554,268.214 55.736,268.132 55.944,268.064C56.152,267.996 56.392,267.962 56.664,267.962C57.096,267.962 57.47,268.042 57.786,268.202C58.102,268.362 58.364,268.578 58.572,268.85C58.78,269.122 58.934,269.434 59.034,269.786C59.134,270.138 59.184,270.51 59.184,270.902C59.184,271.406 59.098,271.842 58.926,272.21C58.754,272.578 58.53,272.882 58.254,273.122C57.978,273.362 57.67,273.54 57.33,273.656C56.99,273.772 56.656,273.83 56.328,273.83C55.952,273.83 55.65,273.792 55.422,273.716C55.194,273.64 54.98,273.558 54.78,273.47L54.78,276.062L53.712,276.062ZM54.78,272.45C54.908,272.554 55.092,272.654 55.332,272.75C55.572,272.846 55.872,272.894 56.232,272.894C56.504,272.894 56.754,272.844 56.982,272.744C57.21,272.644 57.406,272.504 57.57,272.324C57.734,272.144 57.86,271.934 57.948,271.694C58.036,271.454 58.08,271.19 58.08,270.902C58.08,270.63 58.05,270.374 57.99,270.134C57.93,269.894 57.834,269.682 57.702,269.498C57.57,269.314 57.4,269.168 57.192,269.06C56.984,268.952 56.728,268.898 56.424,268.898C56.04,268.898 55.712,269.004 55.44,269.216C55.168,269.428 54.976,269.738 54.864,270.146C54.824,270.274 54.8,270.412 54.792,270.56C54.784,270.708 54.78,270.862 54.78,271.022L54.78,272.45Z" style="fill:white;fill-rule:nonzero;"/>
        <path d="M34.764,307.188L35.904,307.188L35.904,310.824L39.252,307.188L40.572,307.188L37.596,310.452L40.932,315.192L39.552,315.192L36.816,311.268L35.904,312.252L35.904,315.192L34.764,315.192L34.764,307.188Z" style="fill:white;fill-rule:nonzero;"/>
        <path d="M41.808,307.404L43.02,307.404L43.02,308.616L41.808,308.616L41.808,307.404ZM41.88,309.612L42.96,309.612L42.96,315.192L41.88,315.192L41.88,309.612Z" style="fill:white;fill-rule:nonzero;"/>
        <path d="M44.496,315.192L44.496,310.182C44.496,310.002 44.492,309.812 44.484,309.612L45.516,309.612L45.552,310.452C45.624,310.356 45.712,310.25 45.816,310.134C45.92,310.018 46.048,309.912 46.2,309.816C46.352,309.72 46.53,309.64 46.734,309.576C46.938,309.512 47.168,309.48 47.424,309.48C48.152,309.48 48.692,309.692 49.044,310.116C49.396,310.54 49.572,311.116 49.572,311.844L49.572,315.192L48.492,315.192L48.492,311.928C48.492,311.408 48.38,311.026 48.156,310.782C47.932,310.538 47.616,310.416 47.208,310.416C46.896,310.416 46.636,310.48 46.428,310.608C46.22,310.736 46.054,310.902 45.93,311.106C45.806,311.31 45.716,311.542 45.66,311.802C45.604,312.062 45.576,312.328 45.576,312.6L45.576,315.192L44.496,315.192Z" style="fill:white;fill-rule:nonzero;"/>
        <path d="M51.012,307.188L52.092,307.188L52.092,311.904L54.432,309.612L55.728,309.612L53.616,311.676L56.04,315.192L54.756,315.192L52.86,312.396L52.092,313.14L52.092,315.192L51.012,315.192L51.012,307.188Z" style="fill:white;fill-rule:nonzero;"/>
        <path d="M30.804,224.128L33.36,224.128C33.872,224.128 34.304,224.198 34.656,224.338C35.008,224.478 35.294,224.658 35.514,224.878C35.734,225.098 35.894,225.348 35.994,225.628C36.094,225.908 36.144,226.192 36.144,226.48C36.144,226.992 36.024,227.444 35.784,227.836C35.544,228.228 35.172,228.52 34.668,228.712L36.54,232.132L35.244,232.132L33.528,228.856L31.92,228.856L31.92,232.132L30.804,232.132L30.804,224.128ZM33.456,227.884C33.96,227.884 34.338,227.76 34.59,227.512C34.842,227.264 34.968,226.932 34.968,226.516C34.968,226.076 34.832,225.734 34.56,225.49C34.288,225.246 33.912,225.124 33.432,225.124L31.92,225.124L31.92,227.884L33.456,227.884Z" style="fill:white;fill-rule:nonzero;"/>
        <path d="M42.804,231.316C42.74,231.388 42.644,231.48 42.516,231.592C42.388,231.704 42.222,231.812 42.018,231.916C41.814,232.02 41.574,232.11 41.298,232.186C41.022,232.262 40.708,232.3 40.356,232.3C39.924,232.3 39.528,232.228 39.168,232.084C38.808,231.94 38.5,231.736 38.244,231.472C37.988,231.208 37.79,230.892 37.65,230.524C37.51,230.156 37.44,229.748 37.44,229.3C37.44,228.892 37.508,228.51 37.644,228.154C37.78,227.798 37.972,227.49 38.22,227.23C38.468,226.97 38.762,226.764 39.102,226.612C39.442,226.46 39.816,226.384 40.224,226.384C40.704,226.384 41.116,226.476 41.46,226.66C41.804,226.844 42.086,227.088 42.306,227.392C42.526,227.696 42.688,228.044 42.792,228.436C42.896,228.828 42.948,229.236 42.948,229.66L38.544,229.66C38.552,229.908 38.606,230.136 38.706,230.344C38.806,230.552 38.94,230.732 39.108,230.884C39.276,231.036 39.468,231.156 39.684,231.244C39.9,231.332 40.128,231.376 40.368,231.376C40.84,231.376 41.228,231.296 41.532,231.136C41.836,230.976 42.056,230.82 42.192,230.668L42.804,231.316ZM41.832,228.856C41.8,228.424 41.648,228.056 41.376,227.752C41.104,227.448 40.72,227.296 40.224,227.296C39.968,227.296 39.738,227.34 39.534,227.428C39.33,227.516 39.156,227.632 39.012,227.776C38.868,227.92 38.756,228.086 38.676,228.274C38.596,228.462 38.552,228.656 38.544,228.856L41.832,228.856Z" style="fill:white;fill-rule:nonzero;"/>
        <path d="M44.508,230.728C44.708,230.928 44.948,231.088 45.228,231.208C45.508,231.328 45.832,231.388 46.2,231.388C46.56,231.388 46.86,231.33 47.1,231.214C47.34,231.098 47.46,230.916 47.46,230.668C47.46,230.54 47.434,230.43 47.382,230.338C47.33,230.246 47.242,230.164 47.118,230.092C46.994,230.02 46.83,229.954 46.626,229.894C46.422,229.834 46.168,229.768 45.864,229.696C45.648,229.648 45.434,229.584 45.222,229.504C45.01,229.424 44.82,229.318 44.652,229.186C44.484,229.054 44.348,228.894 44.244,228.706C44.14,228.518 44.088,228.292 44.088,228.028C44.088,227.756 44.15,227.518 44.274,227.314C44.398,227.11 44.564,226.938 44.772,226.798C44.98,226.658 45.214,226.552 45.474,226.48C45.734,226.408 46.004,226.372 46.284,226.372C46.756,226.372 47.162,226.434 47.502,226.558C47.842,226.682 48.14,226.856 48.396,227.08L47.808,227.824C47.64,227.672 47.43,227.544 47.178,227.44C46.926,227.336 46.632,227.284 46.296,227.284C45.952,227.284 45.676,227.34 45.468,227.452C45.26,227.564 45.156,227.748 45.156,228.004C45.156,228.244 45.294,228.422 45.57,228.538C45.846,228.654 46.208,228.764 46.656,228.868C46.92,228.932 47.166,229.006 47.394,229.09C47.622,229.174 47.822,229.282 47.994,229.414C48.166,229.546 48.302,229.708 48.402,229.9C48.502,230.092 48.552,230.324 48.552,230.596C48.552,230.876 48.488,231.122 48.36,231.334C48.232,231.546 48.06,231.724 47.844,231.868C47.628,232.012 47.38,232.12 47.1,232.192C46.82,232.264 46.528,232.3 46.224,232.3C45.168,232.3 44.376,232.016 43.848,231.448L44.508,230.728Z" style="fill:white;fill-rule:nonzero;"/>
        <path d="M54.9,231.316C54.836,231.388 54.74,231.48 54.612,231.592C54.484,231.704 54.318,231.812 54.114,231.916C53.91,232.02 53.67,232.11 53.394,232.186C53.118,232.262 52.804,232.3 52.452,232.3C52.02,232.3 51.624,232.228 51.264,232.084C50.904,231.94 50.596,231.736 50.34,231.472C50.084,231.208 49.886,230.892 49.746,230.524C49.606,230.156 49.536,229.748 49.536,229.3C49.536,228.892 49.604,228.51 49.74,228.154C49.876,227.798 50.068,227.49 50.316,227.23C50.564,226.97 50.858,226.764 51.198,226.612C51.538,226.46 51.912,226.384 52.32,226.384C52.8,226.384 53.212,226.476 53.556,226.66C53.9,226.844 54.182,227.088 54.402,227.392C54.622,227.696 54.784,228.044 54.888,228.436C54.992,228.828 55.044,229.236 55.044,229.66L50.64,229.66C50.648,229.908 50.702,230.136 50.802,230.344C50.902,230.552 51.036,230.732 51.204,230.884C51.372,231.036 51.564,231.156 51.78,231.244C51.996,231.332 52.224,231.376 52.464,231.376C52.936,231.376 53.324,231.296 53.628,231.136C53.932,230.976 54.152,230.82 54.288,230.668L54.9,231.316ZM53.928,228.856C53.896,228.424 53.744,228.056 53.472,227.752C53.2,227.448 52.816,227.296 52.32,227.296C52.064,227.296 51.834,227.34 51.63,227.428C51.426,227.516 51.252,227.632 51.108,227.776C50.964,227.92 50.852,228.086 50.772,228.274C50.692,228.462 50.648,228.656 50.64,228.856L53.928,228.856Z" style="fill:white;fill-rule:nonzero;"/>
        <path d="M56.724,227.452L55.716,227.452L55.716,226.552L56.724,226.552L56.724,224.728L57.804,224.728L57.804,226.552L59.436,226.552L59.436,227.452L57.804,227.452L57.804,230.2C57.804,230.648 57.874,230.956 58.014,231.124C58.154,231.292 58.352,231.376 58.608,231.376C58.816,231.376 58.988,231.344 59.124,231.28C59.26,231.216 59.396,231.12 59.532,230.992L60.024,231.652C59.792,231.876 59.554,232.038 59.31,232.138C59.066,232.238 58.776,232.288 58.44,232.288C57.848,232.288 57.414,232.128 57.138,231.808C56.862,231.488 56.724,230.988 56.724,230.308L56.724,227.452Z" style="fill:white;fill-rule:nonzero;"/>
        <path d="M31.584,182.598L32.76,182.598L35.892,190.602L34.608,190.602L33.78,188.37L30.492,188.37L29.664,190.602L28.452,190.602L31.584,182.598ZM33.432,187.398L32.136,183.882L30.828,187.398L33.432,187.398Z" style="fill:white;fill-rule:nonzero;"/>
        <path d="M41.616,189.834C41.368,190.114 41.062,190.34 40.698,190.512C40.334,190.684 39.912,190.77 39.432,190.77C38.984,190.77 38.578,190.696 38.214,190.548C37.85,190.4 37.542,190.196 37.29,189.936C37.038,189.676 36.844,189.364 36.708,189C36.572,188.636 36.504,188.238 36.504,187.806C36.504,187.398 36.576,187.014 36.72,186.654C36.864,186.294 37.066,185.98 37.326,185.712C37.586,185.444 37.894,185.232 38.25,185.076C38.606,184.92 39,184.842 39.432,184.842C39.904,184.842 40.32,184.926 40.68,185.094C41.04,185.262 41.348,185.49 41.604,185.778L40.896,186.462C40.728,186.254 40.524,186.09 40.284,185.97C40.044,185.85 39.76,185.79 39.432,185.79C39.144,185.79 38.886,185.844 38.658,185.952C38.43,186.06 38.238,186.208 38.082,186.396C37.926,186.584 37.806,186.8 37.722,187.044C37.638,187.288 37.596,187.542 37.596,187.806C37.596,188.062 37.638,188.312 37.722,188.556C37.806,188.8 37.926,189.016 38.082,189.204C38.238,189.392 38.43,189.542 38.658,189.654C38.886,189.766 39.144,189.822 39.432,189.822C39.76,189.822 40.054,189.76 40.314,189.636C40.574,189.512 40.788,189.346 40.956,189.138L41.616,189.834Z" style="fill:white;fill-rule:nonzero;"/>
        <path d="M43.164,185.922L42.156,185.922L42.156,185.022L43.164,185.022L43.164,183.198L44.244,183.198L44.244,185.022L45.876,185.022L45.876,185.922L44.244,185.922L44.244,188.67C44.244,189.118 44.314,189.426 44.454,189.594C44.594,189.762 44.792,189.846 45.048,189.846C45.256,189.846 45.428,189.814 45.564,189.75C45.7,189.686 45.836,189.59 45.972,189.462L46.464,190.122C46.232,190.346 45.994,190.508 45.75,190.608C45.506,190.708 45.216,190.758 44.88,190.758C44.288,190.758 43.854,190.598 43.578,190.278C43.302,189.958 43.164,189.458 43.164,188.778L43.164,185.922Z" style="fill:white;fill-rule:nonzero;"/>
        <path d="M47.268,182.814L48.48,182.814L48.48,184.026L47.268,184.026L47.268,182.814ZM47.34,185.022L48.42,185.022L48.42,190.602L47.34,190.602L47.34,185.022Z" style="fill:white;fill-rule:nonzero;"/>
        <path d="M49.284,185.022L50.52,185.022L52.26,189.378L53.988,185.022L55.152,185.022L52.764,190.602L51.684,190.602L49.284,185.022Z" style="fill:white;fill-rule:nonzero;"/>
        <path d="M61.068,189.786C61.004,189.858 60.908,189.95 60.78,190.062C60.652,190.174 60.486,190.282 60.282,190.386C60.078,190.49 59.838,190.58 59.562,190.656C59.286,190.732 58.972,190.77 58.62,190.77C58.188,190.77 57.792,190.698 57.432,190.554C57.072,190.41 56.764,190.206 56.508,189.942C56.252,189.678 56.054,189.362 55.914,188.994C55.774,188.626 55.704,188.218 55.704,187.77C55.704,187.362 55.772,186.98 55.908,186.624C56.044,186.268 56.236,185.96 56.484,185.7C56.732,185.44 57.026,185.234 57.366,185.082C57.706,184.93 58.08,184.854 58.488,184.854C58.968,184.854 59.38,184.946 59.724,185.13C60.068,185.314 60.35,185.558 60.57,185.862C60.79,186.166 60.952,186.514 61.056,186.906C61.16,187.298 61.212,187.706 61.212,188.13L56.808,188.13C56.816,188.378 56.87,188.606 56.97,188.814C57.07,189.022 57.204,189.202 57.372,189.354C57.54,189.506 57.732,189.626 57.948,189.714C58.164,189.802 58.392,189.846 58.632,189.846C59.104,189.846 59.492,189.766 59.796,189.606C60.1,189.446 60.32,189.29 60.456,189.138L61.068,189.786ZM60.096,187.326C60.064,186.894 59.912,186.526 59.64,186.222C59.368,185.918 58.984,185.766 58.488,185.766C58.232,185.766 58.002,185.81 57.798,185.898C57.594,185.986 57.42,186.102 57.276,186.246C57.132,186.39 57.02,186.556 56.94,186.744C56.86,186.932 56.816,187.126 56.808,187.326L60.096,187.326Z" style="fill:white;fill-rule:nonzero;"/>
    </g>
</svg>
