<?xml version="1.0" encoding="UTF-8" standalone="no"?>
<!DOCTYPE svg PUBLIC "-//W3C//DTD SVG 1.1//EN" "http://www.w3.org/Graphics/SVG/1.1/DTD/svg11.dtd">
<svg width="100%" height="100%" viewBox="0 0 120 380" version="1.1" xmlns="http://www.w3.org/2000/svg" xmlns:xlink="http://www.w3.org/1999/xlink" xml:space="preserve" xmlns:serif="http://www.serif.com/" style="fill-rule:evenodd;clip-rule:evenodd;stroke-linecap:round;stroke-linejoin:round;stroke-miterlimit:1.5;">
    <g id="svg8">
        <rect x="0" y="0" width="120" height="380" style="fill:rgb(240,240,240);"/>
        <g id="HCV-Logo" serif:id="HCV Logo">
            <path d="M39.81,374.578L38.204,374.578L38.204,369.247L32.128,369.247L32.128,374.578L30.522,374.578L30.522,363.154L32.128,363.154L32.128,367.873L38.204,367.873L38.204,363.154L39.81,363.154L39.81,374.578Z" style="fill:rgb(35,31,32);fill-rule:nonzero;"/>
            <path d="M48.018,374.578L41.197,374.578L41.197,363.154L47.886,363.154L47.886,364.496L42.803,364.496L42.803,367.906L47.604,367.906L47.604,369.247L42.803,369.247L42.803,373.221L48.018,373.221L48.018,374.578Z" style="fill:rgb(35,31,32);fill-rule:nonzero;"/>
            <path d="M56.891,364.496L53.679,364.496L53.679,374.578L52.073,374.578L52.073,364.496L48.845,364.496L48.845,363.154L56.891,363.154L56.891,364.496Z" style="fill:rgb(35,31,32);fill-rule:nonzero;"/>
            <path d="M62.601,364.877C62.088,364.496 61.475,364.463 60.681,364.463L59.505,364.463L59.505,368.337L60.681,368.337C61.475,368.337 62.088,368.304 62.601,367.94C63.115,367.559 63.33,367.095 63.33,366.399C63.33,365.721 63.115,365.241 62.601,364.877M65.648,374.578L63.71,374.578L60.73,369.661L59.505,369.661L59.505,374.578L57.899,374.578L57.899,363.154L61.127,363.154C62.27,363.154 63.197,363.42 63.876,363.949C64.555,364.496 64.985,365.323 64.985,366.366C64.985,368.37 63.594,369.264 62.386,369.496L65.648,374.578Z" style="fill:rgb(35,31,32);fill-rule:nonzero;"/>
            <rect x="66.84" y="363.154" width="1.605" height="11.424" style="fill:rgb(35,31,32);"/>
            <path d="M79.568,373.088C78.856,373.883 77.565,374.777 75.396,374.777C72.068,374.777 69.551,372.442 69.551,368.883C69.551,365.323 72.118,362.989 75.396,362.989C77.532,362.989 78.823,363.883 79.452,364.496L78.773,365.787C78.327,365.225 77.051,364.397 75.463,364.397C72.996,364.397 71.208,366.168 71.208,368.85C71.208,371.532 73.012,373.304 75.463,373.304C76.968,373.304 78.128,372.725 78.873,371.913L79.568,373.088Z" style="fill:rgb(237,50,36);fill-rule:nonzero;"/>
            <path d="M89.478,374.578L87.525,374.578L83.733,368.849L82.558,370.042L82.558,374.578L80.952,374.578L80.952,363.154L82.558,363.154L82.558,368.022L87.21,363.154L89.164,363.154L84.809,367.658L89.478,374.578Z" style="fill:rgb(237,50,36);fill-rule:nonzero;"/>
            <path d="M89.478,374.578L87.525,374.578L83.733,368.849L82.558,370.042L82.558,374.578L80.952,374.578L80.952,370.019L82.558,370.042L83.733,368.849L84.809,367.658L85.426,368.571L85.923,369.308L89.478,374.578Z" style="fill-rule:nonzero;"/>
        </g>
        <g id="Out">
            <path d="M113.353,298.928C113.353,296.169 111.113,293.93 108.355,293.93L68.365,293.93C65.606,293.93 63.367,296.169 63.367,298.928L63.367,348.931C63.367,351.69 65.606,353.93 68.365,353.93L108.355,353.93C111.113,353.93 113.353,351.69 113.353,348.931L113.353,298.928Z"/>
            <path d="M82.822,348.134C82.246,348.134 81.71,348.024 81.214,347.804C80.718,347.584 80.286,347.284 79.918,346.904C79.55,346.524 79.262,346.078 79.054,345.566C78.846,345.054 78.742,344.506 78.742,343.922C78.742,343.338 78.846,342.792 79.054,342.284C79.262,341.776 79.548,341.332 79.912,340.952C80.276,340.572 80.708,340.272 81.208,340.052C81.708,339.832 82.246,339.722 82.822,339.722C83.398,339.722 83.936,339.832 84.436,340.052C84.936,340.272 85.37,340.572 85.738,340.952C86.106,341.332 86.394,341.776 86.602,342.284C86.81,342.792 86.914,343.338 86.914,343.922C86.914,344.506 86.81,345.054 86.602,345.566C86.394,346.078 86.106,346.524 85.738,346.904C85.37,347.284 84.936,347.584 84.436,347.804C83.936,348.024 83.398,348.134 82.822,348.134ZM82.822,347.054C83.262,347.054 83.66,346.97 84.016,346.802C84.372,346.634 84.676,346.406 84.928,346.118C85.18,345.83 85.374,345.496 85.51,345.116C85.646,344.736 85.714,344.334 85.714,343.91C85.714,343.478 85.646,343.072 85.51,342.692C85.374,342.312 85.18,341.978 84.928,341.69C84.676,341.402 84.372,341.176 84.016,341.012C83.66,340.848 83.262,340.766 82.822,340.766C82.382,340.766 81.986,340.848 81.634,341.012C81.282,341.176 80.98,341.402 80.728,341.69C80.476,341.978 80.282,342.312 80.146,342.692C80.01,343.072 79.942,343.478 79.942,343.91C79.942,344.334 80.01,344.736 80.146,345.116C80.282,345.496 80.476,345.83 80.728,346.118C80.98,346.406 81.282,346.634 81.634,346.802C81.986,346.97 82.382,347.054 82.822,347.054Z" style="fill:white;fill-rule:nonzero;"/>
            <path d="M88.186,342.35L89.266,342.35L89.266,345.626C89.266,346.154 89.374,346.536 89.59,346.772C89.806,347.008 90.118,347.126 90.526,347.126C90.838,347.126 91.096,347.062 91.3,346.934C91.504,346.806 91.67,346.64 91.798,346.436C91.926,346.232 92.016,346 92.068,345.74C92.12,345.48 92.146,345.214 92.146,344.942L92.146,342.35L93.226,342.35L93.226,347.36C93.226,347.54 93.23,347.73 93.238,347.93L92.206,347.93L92.17,347.102C92.098,347.198 92.01,347.302 91.906,347.414C91.802,347.526 91.674,347.628 91.522,347.72C91.37,347.812 91.194,347.89 90.994,347.954C90.794,348.018 90.566,348.05 90.31,348.05C89.582,348.05 89.046,347.84 88.702,347.42C88.358,347 88.186,346.426 88.186,345.698L88.186,342.35Z" style="fill:white;fill-rule:nonzero;"/>
            <path d="M95.182,343.25L94.174,343.25L94.174,342.35L95.182,342.35L95.182,340.526L96.262,340.526L96.262,342.35L97.894,342.35L97.894,343.25L96.262,343.25L96.262,345.998C96.262,346.446 96.332,346.754 96.472,346.922C96.612,347.09 96.81,347.174 97.066,347.174C97.274,347.174 97.446,347.142 97.582,347.078C97.718,347.014 97.854,346.918 97.99,346.79L98.482,347.45C98.25,347.674 98.012,347.836 97.768,347.936C97.524,348.036 97.234,348.086 96.898,348.086C96.306,348.086 95.872,347.926 95.596,347.606C95.32,347.286 95.182,346.786 95.182,346.106L95.182,343.25Z" style="fill:white;fill-rule:nonzero;"/>
        </g>
        <g transform="matrix(1,0,0,1,-33.8501,0)">
            <g transform="matrix(18,0,0,18,67.3316,28.8369)">
                <path d="M0.076,-0.667L0.287,-0.667C0.332,-0.667 0.37,-0.661 0.4,-0.648C0.429,-0.635 0.453,-0.619 0.47,-0.6C0.488,-0.581 0.5,-0.559 0.507,-0.535C0.515,-0.511 0.518,-0.488 0.518,-0.465C0.518,-0.432 0.512,-0.402 0.501,-0.377C0.49,-0.352 0.474,-0.331 0.454,-0.314C0.434,-0.297 0.41,-0.284 0.383,-0.275C0.355,-0.266 0.325,-0.262 0.292,-0.262L0.171,-0.262L0.171,-0L0.076,-0L0.076,-0.667ZM0.291,-0.344C0.332,-0.344 0.364,-0.355 0.387,-0.376C0.409,-0.397 0.42,-0.426 0.42,-0.463C0.42,-0.501 0.408,-0.531 0.386,-0.553C0.363,-0.574 0.331,-0.585 0.291,-0.585L0.171,-0.585L0.171,-0.344L0.291,-0.344Z" style="fill-rule:nonzero;"/>
            </g>
            <g transform="matrix(18,0,0,18,76.9814,28.8369)">
                <path d="M0.061,-0.667L0.15,-0.667L0.15,-0.396C0.156,-0.404 0.163,-0.413 0.172,-0.422C0.181,-0.431 0.191,-0.44 0.204,-0.448C0.217,-0.456 0.231,-0.463 0.248,-0.468C0.265,-0.473 0.284,-0.476 0.305,-0.476C0.366,-0.476 0.411,-0.458 0.44,-0.423C0.469,-0.388 0.484,-0.34 0.484,-0.279L0.484,-0L0.394,-0L0.394,-0.272C0.394,-0.315 0.385,-0.347 0.366,-0.368C0.347,-0.388 0.321,-0.398 0.287,-0.398C0.261,-0.398 0.239,-0.393 0.222,-0.382C0.205,-0.371 0.191,-0.358 0.181,-0.341C0.17,-0.324 0.163,-0.304 0.158,-0.282C0.153,-0.261 0.151,-0.239 0.151,-0.216L0.151,-0L0.061,-0L0.061,-0.667Z" style="fill-rule:nonzero;"/>
            </g>
            <g transform="matrix(18,0,0,18,86.5772,28.8369)">
                <path d="M0.352,-0.22C0.349,-0.221 0.344,-0.222 0.337,-0.223C0.329,-0.224 0.32,-0.224 0.31,-0.225C0.3,-0.226 0.289,-0.226 0.278,-0.227C0.267,-0.228 0.256,-0.228 0.245,-0.228C0.22,-0.228 0.199,-0.225 0.184,-0.219C0.168,-0.213 0.156,-0.205 0.147,-0.197C0.138,-0.188 0.131,-0.178 0.128,-0.167C0.125,-0.156 0.123,-0.145 0.123,-0.135C0.123,-0.11 0.132,-0.091 0.149,-0.078C0.166,-0.065 0.19,-0.058 0.221,-0.058C0.238,-0.058 0.255,-0.061 0.271,-0.067C0.286,-0.073 0.3,-0.081 0.312,-0.091C0.324,-0.101 0.334,-0.113 0.341,-0.126C0.348,-0.139 0.352,-0.153 0.352,-0.167L0.352,-0.22ZM0.353,-0.056C0.336,-0.033 0.313,-0.015 0.284,-0.004C0.256,0.007 0.227,0.013 0.197,0.013C0.178,0.013 0.159,0.01 0.14,0.005C0.121,0 0.103,-0.008 0.087,-0.02C0.072,-0.031 0.059,-0.046 0.05,-0.065C0.04,-0.083 0.035,-0.105 0.035,-0.132C0.035,-0.182 0.053,-0.222 0.087,-0.252C0.123,-0.282 0.173,-0.297 0.239,-0.297C0.25,-0.297 0.261,-0.297 0.273,-0.296C0.285,-0.295 0.296,-0.295 0.307,-0.294C0.318,-0.293 0.327,-0.293 0.335,-0.292C0.343,-0.291 0.349,-0.291 0.352,-0.29L0.352,-0.307C0.352,-0.342 0.342,-0.367 0.321,-0.382C0.3,-0.397 0.271,-0.404 0.235,-0.404C0.2,-0.404 0.172,-0.399 0.151,-0.39C0.13,-0.38 0.113,-0.37 0.099,-0.36L0.057,-0.421C0.065,-0.428 0.075,-0.434 0.086,-0.441C0.097,-0.448 0.111,-0.454 0.126,-0.46C0.141,-0.465 0.159,-0.47 0.178,-0.473C0.197,-0.477 0.22,-0.479 0.245,-0.479C0.305,-0.479 0.352,-0.465 0.387,-0.436C0.421,-0.406 0.438,-0.365 0.438,-0.312L0.438,-0.042C0.438,-0.025 0.438,-0.011 0.439,-0L0.355,-0L0.353,-0.056Z" style="fill-rule:nonzero;"/>
            </g>
            <g transform="matrix(18,0,0,18,95.381,28.8369)">
                <path d="M0.092,-0.117C0.109,-0.1 0.129,-0.087 0.152,-0.077C0.175,-0.067 0.202,-0.062 0.233,-0.062C0.263,-0.062 0.288,-0.067 0.308,-0.077C0.328,-0.086 0.338,-0.101 0.338,-0.122C0.338,-0.133 0.336,-0.142 0.332,-0.15C0.327,-0.157 0.32,-0.164 0.31,-0.17C0.299,-0.176 0.285,-0.182 0.269,-0.187C0.252,-0.192 0.23,-0.197 0.205,-0.203C0.187,-0.207 0.169,-0.212 0.152,-0.219C0.134,-0.226 0.118,-0.234 0.104,-0.246C0.09,-0.257 0.079,-0.27 0.07,-0.285C0.061,-0.301 0.057,-0.32 0.057,-0.342C0.057,-0.365 0.062,-0.385 0.073,-0.402C0.083,-0.419 0.097,-0.433 0.114,-0.445C0.131,-0.456 0.151,-0.465 0.172,-0.471C0.194,-0.477 0.217,-0.48 0.24,-0.48C0.279,-0.48 0.313,-0.475 0.342,-0.465C0.37,-0.454 0.395,-0.44 0.416,-0.421L0.367,-0.359C0.353,-0.372 0.336,-0.382 0.315,-0.391C0.294,-0.4 0.269,-0.404 0.241,-0.404C0.212,-0.404 0.189,-0.399 0.172,-0.39C0.155,-0.381 0.146,-0.365 0.146,-0.344C0.146,-0.324 0.158,-0.309 0.181,-0.3C0.203,-0.29 0.234,-0.281 0.271,-0.272C0.293,-0.267 0.314,-0.261 0.333,-0.254C0.352,-0.247 0.368,-0.237 0.383,-0.227C0.397,-0.216 0.408,-0.202 0.417,-0.186C0.425,-0.17 0.429,-0.151 0.429,-0.128C0.429,-0.105 0.424,-0.084 0.413,-0.067C0.402,-0.049 0.388,-0.034 0.37,-0.022C0.352,-0.01 0.331,-0.001 0.308,0.005C0.285,0.011 0.26,0.014 0.235,0.014C0.147,0.014 0.081,-0.01 0.037,-0.057L0.092,-0.117Z" style="fill-rule:nonzero;"/>
            </g>
            <g transform="matrix(18,0,0,18,103.699,28.8369)">
                <path d="M0.286,0.014C0.25,0.014 0.217,0.007 0.187,-0.006C0.157,-0.019 0.131,-0.036 0.11,-0.059C0.088,-0.082 0.071,-0.108 0.059,-0.138C0.046,-0.167 0.04,-0.199 0.04,-0.233C0.04,-0.267 0.046,-0.299 0.059,-0.329C0.071,-0.358 0.088,-0.384 0.11,-0.407C0.131,-0.43 0.157,-0.448 0.187,-0.461C0.217,-0.473 0.25,-0.48 0.286,-0.48C0.321,-0.48 0.354,-0.473 0.384,-0.461C0.414,-0.448 0.44,-0.43 0.462,-0.407C0.484,-0.384 0.501,-0.358 0.514,-0.329C0.526,-0.299 0.532,-0.267 0.532,-0.233C0.532,-0.199 0.526,-0.167 0.514,-0.138C0.501,-0.108 0.484,-0.082 0.462,-0.059C0.44,-0.036 0.414,-0.019 0.384,-0.006C0.354,0.007 0.321,0.014 0.286,0.014ZM0.286,-0.064C0.31,-0.064 0.332,-0.069 0.351,-0.079C0.37,-0.088 0.387,-0.101 0.4,-0.117C0.413,-0.132 0.424,-0.15 0.431,-0.171C0.438,-0.191 0.441,-0.212 0.441,-0.233C0.441,-0.254 0.438,-0.274 0.431,-0.295C0.424,-0.315 0.413,-0.333 0.4,-0.349C0.386,-0.365 0.37,-0.378 0.35,-0.388C0.332,-0.397 0.31,-0.402 0.286,-0.402C0.262,-0.402 0.24,-0.397 0.221,-0.388C0.202,-0.378 0.185,-0.365 0.172,-0.349C0.159,-0.334 0.149,-0.316 0.141,-0.296C0.135,-0.275 0.131,-0.254 0.131,-0.233C0.131,-0.212 0.135,-0.191 0.141,-0.171C0.149,-0.151 0.159,-0.133 0.172,-0.117C0.186,-0.101 0.203,-0.088 0.222,-0.079C0.241,-0.069 0.262,-0.064 0.286,-0.064Z" style="fill-rule:nonzero;"/>
            </g>
            <g transform="matrix(18,0,0,18,113.817,28.8369)">
                <path d="M0.062,-0L0.062,-0.421C0.062,-0.435 0.062,-0.45 0.061,-0.465L0.147,-0.465L0.15,-0.39C0.155,-0.398 0.162,-0.407 0.171,-0.417C0.18,-0.426 0.19,-0.435 0.203,-0.443C0.215,-0.451 0.229,-0.458 0.246,-0.464C0.262,-0.469 0.281,-0.472 0.302,-0.472C0.312,-0.472 0.321,-0.471 0.33,-0.47C0.338,-0.469 0.346,-0.467 0.353,-0.464L0.333,-0.38C0.321,-0.385 0.306,-0.387 0.287,-0.387C0.268,-0.387 0.25,-0.383 0.234,-0.376C0.217,-0.369 0.203,-0.359 0.191,-0.345C0.179,-0.333 0.17,-0.317 0.163,-0.3C0.156,-0.283 0.152,-0.264 0.152,-0.245L0.152,-0L0.062,-0Z" style="fill-rule:nonzero;"/>
            </g>
            <g transform="matrix(18,0,0,18,51.8849,46.8369)">
                <path d="M0.076,-0.667L0.172,-0.667L0.172,-0.388L0.537,-0.388L0.537,-0.667L0.633,-0.667L0.633,-0L0.537,-0L0.537,-0.302L0.172,-0.302L0.172,-0L0.076,-0L0.076,-0.667Z" style="fill-rule:nonzero;"/>
            </g>
            <g transform="matrix(18,0,0,18,64.4687,46.8369)">
                <path d="M0.059,-0.465L0.149,-0.465L0.149,-0.192C0.149,-0.148 0.158,-0.116 0.176,-0.097C0.194,-0.077 0.22,-0.067 0.254,-0.067C0.28,-0.067 0.302,-0.072 0.319,-0.083C0.336,-0.094 0.349,-0.108 0.36,-0.125C0.371,-0.141 0.378,-0.161 0.383,-0.183C0.387,-0.204 0.389,-0.226 0.389,-0.249L0.389,-0.465L0.479,-0.465L0.479,-0.048C0.479,-0.033 0.479,-0.017 0.48,-0L0.394,-0L0.391,-0.069C0.385,-0.061 0.378,-0.052 0.369,-0.043C0.36,-0.034 0.35,-0.025 0.337,-0.018C0.324,-0.01 0.31,-0.003 0.293,0.002C0.276,0.007 0.257,0.01 0.236,0.01C0.175,0.01 0.131,-0.008 0.102,-0.043C0.073,-0.078 0.059,-0.125 0.059,-0.186L0.059,-0.465Z" style="fill-rule:nonzero;"/>
            </g>
            <g transform="matrix(18,0,0,18,74.0465,46.8369)">
                <path d="M0.062,-0L0.062,-0.418C0.062,-0.433 0.062,-0.448 0.061,-0.465L0.147,-0.465L0.15,-0.395C0.155,-0.403 0.162,-0.412 0.171,-0.422C0.18,-0.431 0.19,-0.44 0.202,-0.448C0.214,-0.456 0.228,-0.463 0.245,-0.468C0.261,-0.473 0.28,-0.476 0.301,-0.476C0.337,-0.476 0.367,-0.469 0.391,-0.455C0.414,-0.44 0.433,-0.419 0.446,-0.392C0.465,-0.414 0.488,-0.434 0.515,-0.451C0.542,-0.468 0.575,-0.476 0.615,-0.476C0.675,-0.476 0.719,-0.458 0.748,-0.423C0.777,-0.387 0.791,-0.339 0.791,-0.279L0.791,-0L0.701,-0L0.701,-0.272C0.701,-0.315 0.693,-0.347 0.676,-0.368C0.659,-0.388 0.634,-0.398 0.601,-0.398C0.582,-0.398 0.565,-0.394 0.55,-0.387C0.534,-0.379 0.52,-0.369 0.508,-0.356C0.497,-0.343 0.488,-0.329 0.482,-0.312C0.475,-0.295 0.472,-0.277 0.472,-0.258L0.472,-0L0.382,-0L0.382,-0.272C0.382,-0.315 0.374,-0.347 0.357,-0.368C0.34,-0.388 0.315,-0.398 0.283,-0.398C0.258,-0.398 0.238,-0.393 0.221,-0.382C0.204,-0.371 0.191,-0.358 0.181,-0.341C0.17,-0.324 0.163,-0.304 0.159,-0.282C0.154,-0.26 0.152,-0.238 0.152,-0.216L0.152,-0L0.062,-0Z" style="fill-rule:nonzero;"/>
            </g>
            <g transform="matrix(18,0,0,18,89.1683,46.8369)">
                <path d="M0.352,-0.22C0.349,-0.221 0.344,-0.222 0.337,-0.223C0.329,-0.224 0.32,-0.224 0.31,-0.225C0.3,-0.226 0.289,-0.226 0.278,-0.227C0.267,-0.228 0.256,-0.228 0.245,-0.228C0.22,-0.228 0.199,-0.225 0.184,-0.219C0.168,-0.213 0.156,-0.205 0.147,-0.197C0.138,-0.188 0.131,-0.178 0.128,-0.167C0.125,-0.156 0.123,-0.145 0.123,-0.135C0.123,-0.11 0.132,-0.091 0.149,-0.078C0.166,-0.065 0.19,-0.058 0.221,-0.058C0.238,-0.058 0.255,-0.061 0.271,-0.067C0.286,-0.073 0.3,-0.081 0.312,-0.091C0.324,-0.101 0.334,-0.113 0.341,-0.126C0.348,-0.139 0.352,-0.153 0.352,-0.167L0.352,-0.22ZM0.353,-0.056C0.336,-0.033 0.313,-0.015 0.284,-0.004C0.256,0.007 0.227,0.013 0.197,0.013C0.178,0.013 0.159,0.01 0.14,0.005C0.121,0 0.103,-0.008 0.087,-0.02C0.072,-0.031 0.059,-0.046 0.05,-0.065C0.04,-0.083 0.035,-0.105 0.035,-0.132C0.035,-0.182 0.053,-0.222 0.087,-0.252C0.123,-0.282 0.173,-0.297 0.239,-0.297C0.25,-0.297 0.261,-0.297 0.273,-0.296C0.285,-0.295 0.296,-0.295 0.307,-0.294C0.318,-0.293 0.327,-0.293 0.335,-0.292C0.343,-0.291 0.349,-0.291 0.352,-0.29L0.352,-0.307C0.352,-0.342 0.342,-0.367 0.321,-0.382C0.3,-0.397 0.271,-0.404 0.235,-0.404C0.2,-0.404 0.172,-0.399 0.151,-0.39C0.13,-0.38 0.113,-0.37 0.099,-0.36L0.057,-0.421C0.065,-0.428 0.075,-0.434 0.086,-0.441C0.097,-0.448 0.111,-0.454 0.126,-0.46C0.141,-0.465 0.159,-0.47 0.178,-0.473C0.197,-0.477 0.22,-0.479 0.245,-0.479C0.305,-0.479 0.352,-0.465 0.387,-0.436C0.421,-0.406 0.438,-0.365 0.438,-0.312L0.438,-0.042C0.438,-0.025 0.438,-0.011 0.439,-0L0.355,-0L0.353,-0.056Z" style="fill-rule:nonzero;"/>
            </g>
            <g transform="matrix(18,0,0,18,97.9721,46.8369)">
                <path d="M0.062,-0L0.062,-0.418C0.062,-0.433 0.062,-0.448 0.061,-0.465L0.147,-0.465L0.15,-0.395C0.156,-0.403 0.163,-0.412 0.172,-0.422C0.181,-0.431 0.191,-0.44 0.204,-0.448C0.217,-0.456 0.232,-0.463 0.249,-0.468C0.266,-0.473 0.285,-0.476 0.306,-0.476C0.367,-0.476 0.412,-0.458 0.441,-0.423C0.47,-0.388 0.485,-0.34 0.485,-0.279L0.485,-0L0.395,-0L0.395,-0.272C0.395,-0.315 0.386,-0.347 0.367,-0.368C0.348,-0.388 0.322,-0.398 0.288,-0.398C0.262,-0.398 0.24,-0.393 0.223,-0.382C0.206,-0.371 0.192,-0.358 0.182,-0.341C0.171,-0.324 0.164,-0.304 0.159,-0.282C0.154,-0.261 0.152,-0.239 0.152,-0.216L0.152,-0L0.062,-0Z" style="fill-rule:nonzero;"/>
            </g>
            <g transform="matrix(18,0,0,18,107.586,46.8369)">
                <path d="M0.06,-0.649L0.161,-0.649L0.161,-0.548L0.06,-0.548L0.06,-0.649ZM0.066,-0.465L0.156,-0.465L0.156,-0L0.066,-0L0.066,-0.465Z" style="fill-rule:nonzero;"/>
            </g>
            <g transform="matrix(18,0,0,18,111.404,46.8369)">
                <path d="M0.052,-0.071L0.318,-0.389L0.061,-0.389L0.061,-0.465L0.428,-0.465L0.428,-0.393L0.157,-0.075L0.431,-0.075L0.431,-0L0.052,-0L0.052,-0.071Z" style="fill-rule:nonzero;"/>
            </g>
            <g transform="matrix(18,0,0,18,119.793,46.8369)">
                <path d="M0.486,-0.068C0.481,-0.062 0.473,-0.054 0.462,-0.045C0.451,-0.036 0.438,-0.027 0.421,-0.018C0.404,-0.009 0.384,-0.002 0.361,0.004C0.338,0.011 0.311,0.014 0.282,0.014C0.246,0.014 0.213,0.008 0.183,-0.004C0.153,-0.016 0.127,-0.033 0.106,-0.055C0.085,-0.077 0.068,-0.103 0.057,-0.134C0.045,-0.165 0.039,-0.199 0.039,-0.236C0.039,-0.27 0.045,-0.302 0.056,-0.332C0.067,-0.361 0.083,-0.387 0.104,-0.408C0.125,-0.43 0.149,-0.447 0.178,-0.46C0.206,-0.473 0.237,-0.479 0.271,-0.479C0.311,-0.479 0.345,-0.471 0.374,-0.456C0.403,-0.441 0.426,-0.42 0.445,-0.395C0.463,-0.37 0.476,-0.341 0.485,-0.308C0.494,-0.275 0.498,-0.241 0.498,-0.206L0.131,-0.206C0.132,-0.185 0.136,-0.166 0.145,-0.149C0.153,-0.132 0.164,-0.117 0.178,-0.104C0.192,-0.091 0.208,-0.081 0.226,-0.074C0.244,-0.067 0.263,-0.063 0.283,-0.063C0.322,-0.063 0.355,-0.07 0.38,-0.083C0.405,-0.096 0.424,-0.109 0.435,-0.122L0.486,-0.068ZM0.405,-0.273C0.402,-0.309 0.39,-0.34 0.367,-0.365C0.344,-0.39 0.312,-0.403 0.271,-0.403C0.25,-0.403 0.231,-0.399 0.214,-0.392C0.197,-0.385 0.182,-0.375 0.17,-0.363C0.158,-0.351 0.149,-0.337 0.142,-0.322C0.135,-0.306 0.132,-0.29 0.131,-0.273L0.405,-0.273Z" style="fill-rule:nonzero;"/>
            </g>
            <g transform="matrix(18,0,0,18,129.263,46.8369)">
                <path d="M0.062,-0L0.062,-0.421C0.062,-0.435 0.062,-0.45 0.061,-0.465L0.147,-0.465L0.15,-0.39C0.155,-0.398 0.162,-0.407 0.171,-0.417C0.18,-0.426 0.19,-0.435 0.203,-0.443C0.215,-0.451 0.229,-0.458 0.246,-0.464C0.262,-0.469 0.281,-0.472 0.302,-0.472C0.312,-0.472 0.321,-0.471 0.33,-0.47C0.338,-0.469 0.346,-0.467 0.353,-0.464L0.333,-0.38C0.321,-0.385 0.306,-0.387 0.287,-0.387C0.268,-0.387 0.25,-0.383 0.234,-0.376C0.217,-0.369 0.203,-0.359 0.191,-0.345C0.179,-0.333 0.17,-0.317 0.163,-0.3C0.156,-0.283 0.152,-0.264 0.152,-0.245L0.152,-0L0.062,-0Z" style="fill-rule:nonzero;"/>
            </g>
        </g>
        <rect x="28.814" y="339.926" width="1.152" height="8.004" style="fill-rule:nonzero;"/>
        <path d="M31.598,347.93L31.598,342.92C31.598,342.74 31.594,342.55 31.586,342.35L32.618,342.35L32.654,343.19C32.726,343.094 32.814,342.988 32.918,342.872C33.022,342.756 33.15,342.65 33.302,342.554C33.454,342.458 33.632,342.378 33.836,342.314C34.04,342.25 34.27,342.218 34.526,342.218C35.254,342.218 35.794,342.43 36.146,342.854C36.498,343.278 36.674,343.854 36.674,344.582L36.674,347.93L35.594,347.93L35.594,344.666C35.594,344.146 35.482,343.764 35.258,343.52C35.034,343.276 34.718,343.154 34.31,343.154C33.998,343.154 33.738,343.218 33.53,343.346C33.322,343.474 33.156,343.64 33.032,343.844C32.908,344.048 32.818,344.28 32.762,344.54C32.706,344.8 32.678,345.066 32.678,345.338L32.678,347.93L31.598,347.93Z" style="fill-rule:nonzero;"/>
        <g id="XY-Controls" serif:id="XY Controls">
            <g id="X">
                <path d="M19.806,81.501C19.918,81.629 20.044,81.759 20.184,81.891C20.324,82.023 20.482,82.141 20.658,82.245C20.834,82.349 21.03,82.433 21.246,82.497C21.462,82.561 21.698,82.593 21.954,82.593C22.482,82.593 22.894,82.473 23.19,82.233C23.486,81.993 23.634,81.669 23.634,81.261C23.634,80.821 23.466,80.491 23.13,80.271C22.794,80.051 22.31,79.873 21.678,79.737C21.334,79.665 21.022,79.565 20.742,79.437C20.462,79.309 20.22,79.149 20.016,78.957C19.812,78.765 19.654,78.543 19.542,78.291C19.43,78.039 19.374,77.753 19.374,77.433C19.374,77.137 19.43,76.857 19.542,76.593C19.654,76.329 19.822,76.097 20.046,75.897C20.27,75.697 20.55,75.537 20.886,75.417C21.222,75.297 21.61,75.237 22.05,75.237C22.442,75.237 22.78,75.279 23.064,75.363C23.348,75.447 23.59,75.549 23.79,75.669C23.99,75.789 24.15,75.913 24.27,76.041C24.39,76.169 24.482,76.273 24.546,76.353L23.778,77.061C23.73,77.005 23.658,76.931 23.562,76.839C23.466,76.747 23.344,76.657 23.196,76.569C23.048,76.481 22.876,76.407 22.68,76.347C22.484,76.287 22.258,76.257 22.002,76.257C21.746,76.257 21.526,76.291 21.342,76.359C21.158,76.427 21.006,76.515 20.886,76.623C20.766,76.731 20.678,76.853 20.622,76.989C20.566,77.125 20.538,77.261 20.538,77.397C20.538,77.597 20.58,77.767 20.664,77.907C20.748,78.047 20.87,78.171 21.03,78.279C21.19,78.387 21.388,78.479 21.624,78.555C21.86,78.631 22.13,78.705 22.434,78.777C22.73,78.849 23.02,78.943 23.304,79.059C23.588,79.175 23.842,79.331 24.066,79.527C24.29,79.723 24.468,79.963 24.6,80.247C24.732,80.531 24.798,80.877 24.798,81.285C24.798,81.629 24.726,81.945 24.582,82.233C24.438,82.521 24.24,82.771 23.988,82.983C23.736,83.195 23.438,83.359 23.094,83.475C22.75,83.591 22.378,83.649 21.978,83.649C21.602,83.649 21.26,83.605 20.952,83.517C20.644,83.429 20.364,83.317 20.112,83.181C19.86,83.045 19.64,82.895 19.452,82.731C19.264,82.567 19.11,82.405 18.99,82.245L19.806,81.501Z" style="fill-rule:nonzero;"/>
                <path d="M26.25,78.765L25.242,78.765L25.242,77.865L26.25,77.865L26.25,76.041L27.33,76.041L27.33,77.865L28.962,77.865L28.962,78.765L27.33,78.765L27.33,81.513C27.33,81.961 27.4,82.269 27.54,82.437C27.68,82.605 27.878,82.689 28.134,82.689C28.342,82.689 28.514,82.657 28.65,82.593C28.786,82.529 28.922,82.433 29.058,82.305L29.55,82.965C29.318,83.189 29.08,83.351 28.836,83.451C28.592,83.551 28.302,83.601 27.966,83.601C27.374,83.601 26.94,83.441 26.664,83.121C26.388,82.801 26.25,82.301 26.25,81.621L26.25,78.765Z" style="fill-rule:nonzero;"/>
                <path d="M35.382,82.629C35.318,82.701 35.222,82.793 35.094,82.905C34.966,83.017 34.8,83.125 34.596,83.229C34.392,83.333 34.152,83.423 33.876,83.499C33.6,83.575 33.286,83.613 32.934,83.613C32.502,83.613 32.106,83.541 31.746,83.397C31.386,83.253 31.078,83.049 30.822,82.785C30.566,82.521 30.368,82.205 30.228,81.837C30.088,81.469 30.018,81.061 30.018,80.613C30.018,80.205 30.086,79.823 30.222,79.467C30.358,79.111 30.55,78.803 30.798,78.543C31.046,78.283 31.34,78.077 31.68,77.925C32.02,77.773 32.394,77.697 32.802,77.697C33.282,77.697 33.694,77.789 34.038,77.973C34.382,78.157 34.664,78.401 34.884,78.705C35.104,79.009 35.266,79.357 35.37,79.749C35.474,80.141 35.526,80.549 35.526,80.973L31.122,80.973C31.13,81.221 31.184,81.449 31.284,81.657C31.384,81.865 31.518,82.045 31.686,82.197C31.854,82.349 32.046,82.469 32.262,82.557C32.478,82.645 32.706,82.689 32.946,82.689C33.418,82.689 33.806,82.609 34.11,82.449C34.414,82.289 34.634,82.133 34.77,81.981L35.382,82.629ZM34.41,80.169C34.378,79.737 34.226,79.369 33.954,79.065C33.682,78.761 33.298,78.609 32.802,78.609C32.546,78.609 32.316,78.653 32.112,78.741C31.908,78.829 31.734,78.945 31.59,79.089C31.446,79.233 31.334,79.399 31.254,79.587C31.174,79.775 31.13,79.969 31.122,80.169L34.41,80.169Z" style="fill-rule:nonzero;"/>
                <path d="M36.642,85.845L36.642,78.435C36.642,78.255 36.638,78.065 36.63,77.865L37.662,77.865L37.698,78.657C37.754,78.585 37.834,78.497 37.938,78.393C38.042,78.289 38.172,78.189 38.328,78.093C38.484,77.997 38.666,77.915 38.874,77.847C39.082,77.779 39.322,77.745 39.594,77.745C40.026,77.745 40.4,77.825 40.716,77.985C41.032,78.145 41.294,78.361 41.502,78.633C41.71,78.905 41.864,79.217 41.964,79.569C42.064,79.921 42.114,80.293 42.114,80.685C42.114,81.189 42.028,81.625 41.856,81.993C41.684,82.361 41.46,82.665 41.184,82.905C40.908,83.145 40.6,83.323 40.26,83.439C39.92,83.555 39.586,83.613 39.258,83.613C38.882,83.613 38.58,83.575 38.352,83.499C38.124,83.423 37.91,83.341 37.71,83.253L37.71,85.845L36.642,85.845ZM37.71,82.233C37.838,82.337 38.022,82.437 38.262,82.533C38.502,82.629 38.802,82.677 39.162,82.677C39.434,82.677 39.684,82.627 39.912,82.527C40.14,82.427 40.336,82.287 40.5,82.107C40.664,81.927 40.79,81.717 40.878,81.477C40.966,81.237 41.01,80.973 41.01,80.685C41.01,80.413 40.98,80.157 40.92,79.917C40.86,79.677 40.764,79.465 40.632,79.281C40.5,79.097 40.33,78.951 40.122,78.843C39.914,78.735 39.658,78.681 39.354,78.681C38.97,78.681 38.642,78.787 38.37,78.999C38.098,79.211 37.906,79.521 37.794,79.929C37.754,80.057 37.73,80.195 37.722,80.343C37.714,80.491 37.71,80.645 37.71,80.805L37.71,82.233Z" style="fill-rule:nonzero;"/>
                <path d="M43.614,82.041C43.814,82.241 44.054,82.401 44.334,82.521C44.614,82.641 44.938,82.701 45.306,82.701C45.666,82.701 45.966,82.643 46.206,82.527C46.446,82.411 46.566,82.229 46.566,81.981C46.566,81.853 46.54,81.743 46.488,81.651C46.436,81.559 46.348,81.477 46.224,81.405C46.1,81.333 45.936,81.267 45.732,81.207C45.528,81.147 45.274,81.081 44.97,81.009C44.754,80.961 44.54,80.897 44.328,80.817C44.116,80.737 43.926,80.631 43.758,80.499C43.59,80.367 43.454,80.207 43.35,80.019C43.246,79.831 43.194,79.605 43.194,79.341C43.194,79.069 43.256,78.831 43.38,78.627C43.504,78.423 43.67,78.251 43.878,78.111C44.086,77.971 44.32,77.865 44.58,77.793C44.84,77.721 45.11,77.685 45.39,77.685C45.862,77.685 46.268,77.747 46.608,77.871C46.948,77.995 47.246,78.169 47.502,78.393L46.914,79.137C46.746,78.985 46.536,78.857 46.284,78.753C46.032,78.649 45.738,78.597 45.402,78.597C45.058,78.597 44.782,78.653 44.574,78.765C44.366,78.877 44.262,79.061 44.262,79.317C44.262,79.557 44.4,79.735 44.676,79.851C44.952,79.967 45.314,80.077 45.762,80.181C46.026,80.245 46.272,80.319 46.5,80.403C46.728,80.487 46.928,80.595 47.1,80.727C47.272,80.859 47.408,81.021 47.508,81.213C47.608,81.405 47.658,81.637 47.658,81.909C47.658,82.189 47.594,82.435 47.466,82.647C47.338,82.859 47.166,83.037 46.95,83.181C46.734,83.325 46.486,83.433 46.206,83.505C45.926,83.577 45.634,83.613 45.33,83.613C44.274,83.613 43.482,83.329 42.954,82.761L43.614,82.041Z" style="fill-rule:nonzero;"/>
                <path d="M33.36,102.2L33.36,213.877" style="fill:none;stroke:black;stroke-width:1px;stroke-dasharray:2,2,0,0;"/>
                <rect x="19.9" y="165.031" width="2.216" height="0.943" style="fill-rule:nonzero;"/>
                <path d="M46.708,166.358L46.708,165.255L45.292,165.255L45.292,163.839L44.189,163.839L44.189,165.255L42.773,165.255L42.773,166.358L44.189,166.358L44.189,167.774L45.292,167.774L45.292,166.358L46.708,166.358Z" style="fill-rule:nonzero;"/>
            </g>
            <g id="Y">
                <path d="M63.298,75.441L64.45,75.441L64.45,78.789L68.83,78.789L68.83,75.441L69.982,75.441L69.982,83.445L68.83,83.445L68.83,79.821L64.45,79.821L64.45,83.445L63.298,83.445L63.298,75.441Z" style="fill-rule:nonzero;"/>
                <path d="M71.518,77.865L72.598,77.865L72.598,81.141C72.598,81.669 72.706,82.051 72.922,82.287C73.138,82.523 73.45,82.641 73.858,82.641C74.17,82.641 74.428,82.577 74.632,82.449C74.836,82.321 75.002,82.155 75.13,81.951C75.258,81.747 75.348,81.515 75.4,81.255C75.452,80.995 75.478,80.729 75.478,80.457L75.478,77.865L76.558,77.865L76.558,82.875C76.558,83.055 76.562,83.245 76.57,83.445L75.538,83.445L75.502,82.617C75.43,82.713 75.342,82.817 75.238,82.929C75.134,83.041 75.006,83.143 74.854,83.235C74.702,83.327 74.526,83.405 74.326,83.469C74.126,83.533 73.898,83.565 73.642,83.565C72.914,83.565 72.378,83.355 72.034,82.935C71.69,82.515 71.518,81.941 71.518,81.213L71.518,77.865Z" style="fill-rule:nonzero;"/>
                <path d="M77.974,83.445L77.974,78.435C77.974,78.255 77.97,78.065 77.962,77.865L78.994,77.865L79.03,78.705C79.094,78.609 79.178,78.503 79.282,78.387C79.386,78.271 79.51,78.165 79.654,78.069C79.798,77.973 79.968,77.893 80.164,77.829C80.36,77.765 80.586,77.733 80.842,77.733C81.274,77.733 81.632,77.819 81.916,77.991C82.2,78.163 82.422,78.413 82.582,78.741C82.806,78.477 83.08,78.243 83.404,78.039C83.728,77.835 84.13,77.733 84.61,77.733C85.33,77.733 85.862,77.947 86.206,78.375C86.55,78.803 86.722,79.377 86.722,80.097L86.722,83.445L85.642,83.445L85.642,80.181C85.642,79.661 85.54,79.279 85.336,79.035C85.132,78.791 84.834,78.669 84.442,78.669C84.218,78.669 84.012,78.715 83.824,78.807C83.636,78.899 83.472,79.021 83.332,79.173C83.192,79.325 83.084,79.503 83.008,79.707C82.932,79.911 82.894,80.125 82.894,80.349L82.894,83.445L81.814,83.445L81.814,80.181C81.814,79.661 81.712,79.279 81.508,79.035C81.304,78.791 81.01,78.669 80.626,78.669C80.33,78.669 80.082,78.733 79.882,78.861C79.682,78.989 79.52,79.155 79.396,79.359C79.272,79.563 79.184,79.797 79.132,80.061C79.08,80.325 79.054,80.589 79.054,80.853L79.054,83.445L77.974,83.445Z" style="fill-rule:nonzero;"/>
                <path d="M91.57,80.805C91.538,80.797 91.476,80.787 91.384,80.775C91.292,80.763 91.186,80.753 91.066,80.745C90.946,80.737 90.818,80.729 90.682,80.721C90.546,80.713 90.414,80.709 90.286,80.709C89.982,80.709 89.736,80.745 89.548,80.817C89.36,80.889 89.212,80.979 89.104,81.087C88.996,81.195 88.922,81.315 88.882,81.447C88.842,81.579 88.822,81.705 88.822,81.825C88.822,82.129 88.926,82.359 89.134,82.515C89.342,82.671 89.63,82.749 89.998,82.749C90.206,82.749 90.404,82.713 90.592,82.641C90.78,82.569 90.946,82.473 91.09,82.353C91.234,82.233 91.35,82.093 91.438,81.933C91.526,81.773 91.57,81.609 91.57,81.441L91.57,80.805ZM91.582,82.773C91.374,83.053 91.1,83.261 90.76,83.397C90.42,83.533 90.07,83.601 89.71,83.601C89.478,83.601 89.248,83.571 89.02,83.511C88.792,83.451 88.584,83.351 88.396,83.211C88.208,83.071 88.056,82.891 87.94,82.671C87.824,82.451 87.766,82.181 87.766,81.861C87.766,81.261 87.976,80.781 88.396,80.421C88.816,80.061 89.422,79.881 90.214,79.881C90.342,79.881 90.478,79.885 90.622,79.893C90.766,79.901 90.902,79.909 91.03,79.917C91.158,79.925 91.27,79.933 91.366,79.941C91.462,79.949 91.53,79.957 91.57,79.965L91.57,79.761C91.57,79.345 91.444,79.047 91.192,78.867C90.94,78.687 90.598,78.597 90.166,78.597C89.742,78.597 89.406,78.655 89.158,78.771C88.91,78.887 88.702,79.005 88.534,79.125L88.03,78.393C88.126,78.313 88.242,78.233 88.378,78.153C88.514,78.073 88.674,77.999 88.858,77.931C89.042,77.863 89.25,77.807 89.482,77.763C89.714,77.719 89.982,77.697 90.286,77.697C91.006,77.697 91.572,77.871 91.984,78.219C92.396,78.567 92.602,79.061 92.602,79.701L92.602,82.947C92.602,83.143 92.606,83.309 92.614,83.445L91.606,83.445L91.582,82.773Z" style="fill-rule:nonzero;"/>
                <path d="M93.994,83.445L93.994,78.435C93.994,78.255 93.99,78.065 93.982,77.865L95.014,77.865L95.05,78.705C95.122,78.609 95.21,78.503 95.314,78.387C95.418,78.271 95.546,78.165 95.698,78.069C95.85,77.973 96.028,77.893 96.232,77.829C96.436,77.765 96.666,77.733 96.922,77.733C97.65,77.733 98.19,77.945 98.542,78.369C98.894,78.793 99.07,79.369 99.07,80.097L99.07,83.445L97.99,83.445L97.99,80.181C97.99,79.661 97.878,79.279 97.654,79.035C97.43,78.791 97.114,78.669 96.706,78.669C96.394,78.669 96.134,78.733 95.926,78.861C95.718,78.989 95.552,79.155 95.428,79.359C95.304,79.563 95.214,79.795 95.158,80.055C95.102,80.315 95.074,80.581 95.074,80.853L95.074,83.445L93.994,83.445Z" style="fill-rule:nonzero;"/>
                <path d="M100.414,75.657L101.626,75.657L101.626,76.869L100.414,76.869L100.414,75.657ZM100.486,77.865L101.566,77.865L101.566,83.445L100.486,83.445L100.486,77.865Z" style="fill-rule:nonzero;"/>
                <path d="M102.898,82.593L106.09,78.777L103.006,78.777L103.006,77.865L107.41,77.865L107.41,78.729L104.158,82.545L107.446,82.545L107.446,83.445L102.898,83.445L102.898,82.593Z" style="fill-rule:nonzero;"/>
                <path d="M113.734,82.629C113.67,82.701 113.574,82.793 113.446,82.905C113.318,83.017 113.152,83.125 112.948,83.229C112.744,83.333 112.504,83.423 112.228,83.499C111.952,83.575 111.638,83.613 111.286,83.613C110.854,83.613 110.458,83.541 110.098,83.397C109.738,83.253 109.43,83.049 109.174,82.785C108.918,82.521 108.72,82.205 108.58,81.837C108.44,81.469 108.37,81.061 108.37,80.613C108.37,80.205 108.438,79.823 108.574,79.467C108.71,79.111 108.902,78.803 109.15,78.543C109.398,78.283 109.692,78.077 110.032,77.925C110.372,77.773 110.746,77.697 111.154,77.697C111.634,77.697 112.046,77.789 112.39,77.973C112.734,78.157 113.016,78.401 113.236,78.705C113.456,79.009 113.618,79.357 113.722,79.749C113.826,80.141 113.878,80.549 113.878,80.973L109.474,80.973C109.482,81.221 109.536,81.449 109.636,81.657C109.736,81.865 109.87,82.045 110.038,82.197C110.206,82.349 110.398,82.469 110.614,82.557C110.83,82.645 111.058,82.689 111.298,82.689C111.77,82.689 112.158,82.609 112.462,82.449C112.766,82.289 112.986,82.133 113.122,81.981L113.734,82.629ZM112.762,80.169C112.73,79.737 112.578,79.369 112.306,79.065C112.034,78.761 111.65,78.609 111.154,78.609C110.898,78.609 110.668,78.653 110.464,78.741C110.26,78.829 110.086,78.945 109.942,79.089C109.798,79.233 109.686,79.399 109.606,79.587C109.526,79.775 109.482,79.969 109.474,80.169L112.762,80.169Z" style="fill-rule:nonzero;"/>
                <path d="M88.36,102.2L88.36,213.877" style="fill:none;stroke:black;stroke-width:1px;stroke-dasharray:2,2,0,0;"/>
                <rect x="74.9" y="165.031" width="2.216" height="0.943" style="fill-rule:nonzero;"/>
                <path d="M101.708,166.358L101.708,165.255L100.292,165.255L100.292,163.839L99.189,163.839L99.189,165.255L97.773,165.255L97.773,166.358L99.189,166.358L99.189,167.774L100.292,167.774L100.292,166.358L101.708,166.358Z" style="fill-rule:nonzero;"/>
            </g>
        </g>
    </g>
</svg>
