<?xml version="1.0" encoding="UTF-8" standalone="no"?>
<!DOCTYPE svg PUBLIC "-//W3C//DTD SVG 1.1//EN" "http://www.w3.org/Graphics/SVG/1.1/DTD/svg11.dtd">
<svg width="100%" height="100%" viewBox="0 0 360 380" version="1.1" xmlns="http://www.w3.org/2000/svg" xmlns:xlink="http://www.w3.org/1999/xlink" xml:space="preserve" xmlns:serif="http://www.serif.com/" style="fill-rule:evenodd;clip-rule:evenodd;stroke-linecap:round;stroke-linejoin:round;stroke-miterlimit:1.5;">
    <g id="svg8">
        <g transform="matrix(2,0,0,1,0,0)">
            <rect x="0" y="0" width="180" height="380" style="fill:rgb(240,240,240);"/>
        </g>
        <g id="HCV-Logo" serif:id="HCV Logo" transform="matrix(1,0,0,1,89.0259,0)">
            <g transform="matrix(1,0,0,1,70.7842,363.154)">
                <path d="M0,11.424L-1.606,11.424L-1.606,6.093L-7.682,6.093L-7.682,11.424L-9.288,11.424L-9.288,0L-7.682,0L-7.682,4.719L-1.606,4.719L-1.606,0L0,0L0,11.424Z" style="fill:rgb(35,31,32);fill-rule:nonzero;"/>
            </g>
            <g transform="matrix(1,0,0,1,78.9917,363.154)">
                <path d="M0,11.424L-6.821,11.424L-6.821,0L-0.132,0L-0.132,1.342L-5.215,1.342L-5.215,4.752L-0.414,4.752L-0.414,6.093L-5.215,6.093L-5.215,10.067L0,10.067L0,11.424Z" style="fill:rgb(35,31,32);fill-rule:nonzero;"/>
            </g>
            <g transform="matrix(1,0,0,1,87.8652,373.236)">
                <path d="M0,-8.74L-3.212,-8.74L-3.212,1.342L-4.818,1.342L-4.818,-8.74L-8.046,-8.74L-8.046,-10.082L0,-10.082L0,-8.74Z" style="fill:rgb(35,31,32);fill-rule:nonzero;"/>
            </g>
            <g transform="matrix(1,0,0,1,93.5752,372.855)">
                <path d="M0,-7.978C-0.513,-8.359 -1.126,-8.392 -1.92,-8.392L-3.096,-8.392L-3.096,-4.518L-1.92,-4.518C-1.126,-4.518 -0.513,-4.551 0,-4.915C0.514,-5.296 0.729,-5.76 0.729,-6.456C0.729,-7.134 0.514,-7.614 0,-7.978M3.047,1.723L1.109,1.723L-1.871,-3.194L-3.096,-3.194L-3.096,1.723L-4.702,1.723L-4.702,-9.701L-1.474,-9.701C-0.331,-9.701 0.596,-9.435 1.275,-8.906C1.954,-8.359 2.384,-7.532 2.384,-6.489C2.384,-4.485 0.993,-3.591 -0.215,-3.359L3.047,1.723Z" style="fill:rgb(35,31,32);fill-rule:nonzero;"/>
            </g>
            <g transform="matrix(-1,0,0,1,197.233,357.732)">
                <rect x="97.814" y="5.422" width="1.605" height="11.424" style="fill:rgb(35,31,32);"/>
            </g>
            <g transform="matrix(1,0,0,1,110.542,364.678)">
                <path d="M0,8.41C-0.712,9.205 -2.003,10.099 -4.172,10.099C-7.5,10.099 -10.017,7.764 -10.017,4.205C-10.017,0.645 -7.45,-1.689 -4.172,-1.689C-2.036,-1.689 -0.745,-0.795 -0.116,-0.182L-0.795,1.109C-1.241,0.547 -2.517,-0.281 -4.105,-0.281C-6.572,-0.281 -8.36,1.49 -8.36,4.172C-8.36,6.854 -6.556,8.626 -4.105,8.626C-2.6,8.626 -1.44,8.047 -0.695,7.235L0,8.41Z" style="fill:rgb(237,50,36);fill-rule:nonzero;"/>
            </g>
            <g transform="matrix(1,0,0,1,120.452,363.154)">
                <path d="M0,11.424L-1.953,11.424L-5.745,5.695L-6.92,6.888L-6.92,11.424L-8.526,11.424L-8.526,0L-6.92,0L-6.92,4.868L-2.268,0L-0.314,0L-4.669,4.504L0,11.424Z" style="fill:rgb(237,50,36);fill-rule:nonzero;"/>
            </g>
            <g transform="matrix(1,0,0,1,120.452,367.658)">
                <path d="M0,6.92L-1.953,6.92L-5.745,1.191L-6.92,2.384L-6.92,6.92L-8.526,6.92L-8.526,2.361L-6.92,2.384L-5.745,1.191L-4.669,0L-4.052,0.913L-3.555,1.65L0,6.92Z" style="fill-rule:nonzero;"/>
            </g>
        </g>
        <g transform="matrix(1,0,0,1,-33.8501,0)">
            <g transform="matrix(18,0,0,18,157.624,28.8369)">
                <path d="M0.076,-0.667L0.287,-0.667C0.332,-0.667 0.37,-0.661 0.4,-0.648C0.429,-0.635 0.453,-0.619 0.471,-0.6C0.488,-0.581 0.501,-0.559 0.508,-0.535C0.515,-0.511 0.518,-0.488 0.518,-0.465C0.518,-0.432 0.512,-0.402 0.501,-0.377C0.49,-0.352 0.474,-0.331 0.454,-0.314C0.434,-0.297 0.41,-0.284 0.383,-0.275C0.355,-0.266 0.325,-0.262 0.292,-0.262L0.171,-0.262L0.171,-0L0.076,-0L0.076,-0.667ZM0.291,-0.344C0.332,-0.344 0.364,-0.355 0.387,-0.376C0.409,-0.397 0.42,-0.426 0.42,-0.463C0.42,-0.501 0.409,-0.531 0.386,-0.553C0.363,-0.574 0.331,-0.585 0.291,-0.585L0.171,-0.585L0.171,-0.344L0.291,-0.344Z" style="fill-rule:nonzero;"/>
            </g>
            <g transform="matrix(18,0,0,18,167.273,28.8369)">
                <path d="M0.061,-0.667L0.15,-0.667L0.15,-0.396C0.156,-0.404 0.163,-0.413 0.172,-0.422C0.181,-0.431 0.191,-0.44 0.204,-0.448C0.217,-0.456 0.231,-0.463 0.248,-0.468C0.265,-0.473 0.284,-0.476 0.305,-0.476C0.366,-0.476 0.411,-0.458 0.44,-0.423C0.469,-0.388 0.484,-0.34 0.484,-0.279L0.484,-0L0.394,-0L0.394,-0.272C0.394,-0.315 0.385,-0.347 0.366,-0.368C0.347,-0.388 0.321,-0.398 0.287,-0.398C0.261,-0.398 0.239,-0.393 0.222,-0.382C0.205,-0.371 0.191,-0.358 0.181,-0.341C0.17,-0.324 0.163,-0.304 0.158,-0.283C0.153,-0.261 0.151,-0.239 0.151,-0.216L0.151,-0L0.061,-0L0.061,-0.667Z" style="fill-rule:nonzero;"/>
            </g>
            <g transform="matrix(18,0,0,18,176.869,28.8369)">
                <path d="M0.352,-0.22C0.349,-0.221 0.344,-0.222 0.337,-0.223C0.329,-0.224 0.32,-0.224 0.31,-0.225C0.3,-0.226 0.289,-0.226 0.278,-0.227C0.267,-0.228 0.256,-0.228 0.245,-0.228C0.22,-0.228 0.199,-0.225 0.184,-0.219C0.168,-0.213 0.156,-0.206 0.147,-0.197C0.137,-0.188 0.131,-0.178 0.128,-0.167C0.125,-0.156 0.123,-0.145 0.123,-0.135C0.123,-0.11 0.132,-0.091 0.149,-0.078C0.166,-0.065 0.19,-0.058 0.221,-0.058C0.238,-0.058 0.255,-0.061 0.271,-0.067C0.286,-0.073 0.3,-0.081 0.312,-0.091C0.324,-0.101 0.334,-0.113 0.341,-0.126C0.348,-0.139 0.352,-0.153 0.352,-0.167L0.352,-0.22ZM0.353,-0.056C0.336,-0.033 0.313,-0.015 0.285,-0.004C0.256,0.007 0.227,0.013 0.197,0.013C0.178,0.013 0.159,0.011 0.14,0.006C0.121,0 0.103,-0.008 0.088,-0.02C0.072,-0.031 0.059,-0.046 0.05,-0.065C0.04,-0.083 0.035,-0.105 0.035,-0.132C0.035,-0.182 0.053,-0.222 0.088,-0.252C0.123,-0.282 0.173,-0.297 0.239,-0.297C0.25,-0.297 0.261,-0.297 0.273,-0.296C0.285,-0.295 0.296,-0.295 0.307,-0.294C0.318,-0.293 0.327,-0.293 0.335,-0.292C0.343,-0.291 0.349,-0.291 0.352,-0.29L0.352,-0.307C0.352,-0.342 0.341,-0.367 0.321,-0.382C0.3,-0.397 0.271,-0.404 0.235,-0.404C0.2,-0.404 0.172,-0.399 0.151,-0.39C0.13,-0.38 0.113,-0.37 0.099,-0.36L0.057,-0.421C0.065,-0.428 0.075,-0.434 0.086,-0.441C0.097,-0.448 0.111,-0.454 0.126,-0.46C0.141,-0.465 0.159,-0.47 0.178,-0.474C0.197,-0.477 0.22,-0.479 0.245,-0.479C0.305,-0.479 0.352,-0.464 0.387,-0.436C0.421,-0.407 0.438,-0.365 0.438,-0.312L0.438,-0.042C0.438,-0.025 0.438,-0.011 0.439,-0L0.355,-0L0.353,-0.056Z" style="fill-rule:nonzero;"/>
            </g>
            <g transform="matrix(18,0,0,18,185.673,28.8369)">
                <path d="M0.092,-0.117C0.109,-0.1 0.129,-0.087 0.152,-0.077C0.175,-0.067 0.202,-0.062 0.233,-0.062C0.263,-0.062 0.288,-0.067 0.308,-0.077C0.328,-0.086 0.338,-0.101 0.338,-0.122C0.338,-0.133 0.336,-0.142 0.332,-0.15C0.327,-0.157 0.32,-0.164 0.31,-0.17C0.299,-0.176 0.286,-0.182 0.269,-0.187C0.252,-0.192 0.23,-0.197 0.205,-0.203C0.187,-0.207 0.169,-0.212 0.152,-0.219C0.134,-0.226 0.118,-0.235 0.104,-0.246C0.09,-0.257 0.079,-0.27 0.07,-0.286C0.061,-0.301 0.057,-0.32 0.057,-0.342C0.057,-0.365 0.062,-0.385 0.073,-0.402C0.083,-0.419 0.097,-0.433 0.114,-0.445C0.131,-0.456 0.151,-0.465 0.173,-0.471C0.194,-0.477 0.217,-0.48 0.24,-0.48C0.279,-0.48 0.313,-0.475 0.342,-0.465C0.37,-0.454 0.395,-0.44 0.416,-0.421L0.367,-0.359C0.353,-0.372 0.335,-0.382 0.315,-0.391C0.294,-0.4 0.269,-0.404 0.241,-0.404C0.212,-0.404 0.189,-0.399 0.172,-0.39C0.155,-0.381 0.146,-0.365 0.146,-0.344C0.146,-0.324 0.158,-0.309 0.181,-0.3C0.204,-0.29 0.234,-0.281 0.271,-0.272C0.293,-0.267 0.314,-0.261 0.333,-0.254C0.352,-0.247 0.368,-0.238 0.383,-0.227C0.397,-0.216 0.408,-0.202 0.417,-0.186C0.425,-0.17 0.429,-0.151 0.429,-0.128C0.429,-0.105 0.424,-0.084 0.413,-0.067C0.402,-0.049 0.388,-0.034 0.37,-0.022C0.352,-0.01 0.331,-0.001 0.308,0.005C0.285,0.011 0.26,0.014 0.235,0.014C0.147,0.014 0.081,-0.01 0.037,-0.057L0.092,-0.117Z" style="fill-rule:nonzero;"/>
            </g>
            <g transform="matrix(18,0,0,18,193.991,28.8369)">
                <path d="M0.286,0.014C0.25,0.014 0.217,0.008 0.187,-0.006C0.157,-0.019 0.131,-0.036 0.11,-0.059C0.088,-0.082 0.071,-0.108 0.059,-0.138C0.046,-0.167 0.04,-0.199 0.04,-0.233C0.04,-0.267 0.046,-0.299 0.059,-0.329C0.071,-0.358 0.088,-0.384 0.11,-0.407C0.131,-0.43 0.157,-0.448 0.187,-0.461C0.217,-0.474 0.25,-0.48 0.286,-0.48C0.321,-0.48 0.354,-0.474 0.384,-0.461C0.414,-0.448 0.44,-0.43 0.462,-0.407C0.484,-0.384 0.501,-0.358 0.514,-0.329C0.526,-0.299 0.532,-0.267 0.532,-0.233C0.532,-0.199 0.526,-0.167 0.514,-0.138C0.501,-0.108 0.484,-0.082 0.462,-0.059C0.44,-0.036 0.414,-0.019 0.384,-0.006C0.354,0.008 0.321,0.014 0.286,0.014ZM0.286,-0.064C0.31,-0.064 0.332,-0.069 0.351,-0.079C0.37,-0.088 0.387,-0.101 0.4,-0.117C0.413,-0.132 0.424,-0.15 0.431,-0.171C0.438,-0.191 0.441,-0.212 0.441,-0.233C0.441,-0.254 0.438,-0.274 0.431,-0.295C0.424,-0.315 0.413,-0.333 0.4,-0.349C0.386,-0.365 0.37,-0.378 0.351,-0.388C0.332,-0.397 0.31,-0.402 0.286,-0.402C0.262,-0.402 0.24,-0.397 0.221,-0.388C0.202,-0.378 0.185,-0.365 0.172,-0.35C0.159,-0.334 0.149,-0.316 0.142,-0.296C0.135,-0.275 0.131,-0.254 0.131,-0.233C0.131,-0.212 0.135,-0.191 0.142,-0.171C0.149,-0.151 0.159,-0.133 0.173,-0.117C0.186,-0.101 0.203,-0.088 0.222,-0.079C0.241,-0.069 0.262,-0.064 0.286,-0.064Z" style="fill-rule:nonzero;"/>
            </g>
            <g transform="matrix(18,0,0,18,204.109,28.8369)">
                <path d="M0.062,-0L0.062,-0.421C0.062,-0.435 0.062,-0.45 0.061,-0.465L0.147,-0.465L0.15,-0.39C0.155,-0.398 0.162,-0.407 0.171,-0.417C0.18,-0.426 0.19,-0.435 0.203,-0.443C0.215,-0.451 0.229,-0.458 0.246,-0.464C0.262,-0.469 0.281,-0.472 0.302,-0.472C0.312,-0.472 0.321,-0.471 0.33,-0.47C0.338,-0.469 0.346,-0.467 0.353,-0.464L0.333,-0.38C0.321,-0.385 0.306,-0.387 0.287,-0.387C0.268,-0.387 0.25,-0.383 0.234,-0.376C0.217,-0.369 0.203,-0.359 0.191,-0.346C0.179,-0.333 0.17,-0.317 0.163,-0.3C0.156,-0.283 0.152,-0.264 0.152,-0.245L0.152,-0L0.062,-0Z" style="fill-rule:nonzero;"/>
            </g>
            <g transform="matrix(18,0,0,18,213.562,28.8369)">
                <path d="M0.105,-0.162C0.114,-0.151 0.125,-0.14 0.137,-0.13C0.148,-0.119 0.161,-0.109 0.176,-0.1C0.191,-0.091 0.207,-0.084 0.225,-0.079C0.243,-0.074 0.263,-0.071 0.284,-0.071C0.328,-0.071 0.362,-0.081 0.387,-0.101C0.412,-0.121 0.424,-0.148 0.424,-0.182C0.424,-0.219 0.41,-0.246 0.382,-0.265C0.354,-0.283 0.314,-0.298 0.261,-0.309C0.232,-0.315 0.206,-0.323 0.183,-0.334C0.16,-0.345 0.139,-0.358 0.123,-0.374C0.106,-0.39 0.092,-0.409 0.083,-0.43C0.074,-0.451 0.069,-0.474 0.069,-0.501C0.069,-0.526 0.074,-0.549 0.083,-0.571C0.092,-0.593 0.106,-0.612 0.125,-0.629C0.144,-0.646 0.167,-0.659 0.195,-0.669C0.223,-0.679 0.255,-0.684 0.292,-0.684C0.325,-0.684 0.353,-0.681 0.377,-0.674C0.4,-0.667 0.42,-0.658 0.437,-0.648C0.454,-0.638 0.467,-0.628 0.477,-0.617C0.487,-0.606 0.495,-0.598 0.5,-0.591L0.436,-0.532C0.432,-0.537 0.426,-0.543 0.418,-0.551C0.41,-0.558 0.4,-0.566 0.388,-0.573C0.375,-0.58 0.361,-0.587 0.345,-0.592C0.328,-0.596 0.309,-0.599 0.288,-0.599C0.267,-0.599 0.248,-0.596 0.233,-0.591C0.218,-0.585 0.205,-0.578 0.195,-0.569C0.185,-0.56 0.178,-0.549 0.173,-0.538C0.168,-0.527 0.166,-0.515 0.166,-0.504C0.166,-0.487 0.169,-0.473 0.177,-0.462C0.184,-0.45 0.194,-0.44 0.207,-0.431C0.22,-0.422 0.237,-0.414 0.257,-0.408C0.276,-0.401 0.299,-0.395 0.324,-0.389C0.349,-0.383 0.373,-0.375 0.397,-0.366C0.42,-0.356 0.441,-0.343 0.46,-0.327C0.479,-0.31 0.494,-0.29 0.505,-0.267C0.516,-0.243 0.521,-0.214 0.521,-0.18C0.521,-0.151 0.515,-0.125 0.503,-0.101C0.491,-0.077 0.474,-0.056 0.454,-0.039C0.432,-0.021 0.408,-0.007 0.379,0.003C0.35,0.012 0.319,0.017 0.286,0.017C0.255,0.017 0.226,0.013 0.201,0.006C0.175,-0.001 0.152,-0.011 0.131,-0.022C0.11,-0.033 0.091,-0.046 0.076,-0.06C0.06,-0.073 0.047,-0.087 0.037,-0.1L0.105,-0.162Z" style="fill-rule:nonzero;"/>
            </g>
            <g transform="matrix(18,0,0,18,223.5,28.8369)">
                <path d="M0.062,0.2L0.062,-0.418C0.062,-0.432 0.062,-0.448 0.061,-0.465L0.147,-0.465L0.15,-0.399C0.155,-0.405 0.161,-0.412 0.17,-0.421C0.179,-0.43 0.19,-0.438 0.203,-0.446C0.216,-0.454 0.231,-0.461 0.248,-0.467C0.265,-0.472 0.285,-0.475 0.308,-0.475C0.344,-0.475 0.375,-0.468 0.402,-0.455C0.428,-0.442 0.45,-0.424 0.467,-0.401C0.484,-0.378 0.497,-0.352 0.506,-0.323C0.514,-0.294 0.518,-0.263 0.518,-0.23C0.518,-0.188 0.511,-0.152 0.497,-0.121C0.482,-0.09 0.464,-0.065 0.441,-0.045C0.418,-0.025 0.392,-0.01 0.364,-0.001C0.335,0.009 0.307,0.014 0.28,0.014C0.249,0.014 0.224,0.011 0.205,0.005C0.186,-0.002 0.168,-0.009 0.151,-0.016L0.151,0.2L0.062,0.2ZM0.151,-0.101C0.162,-0.092 0.177,-0.084 0.197,-0.076C0.217,-0.068 0.242,-0.064 0.272,-0.064C0.295,-0.064 0.316,-0.068 0.335,-0.077C0.354,-0.085 0.37,-0.096 0.384,-0.112C0.397,-0.127 0.408,-0.144 0.415,-0.164C0.422,-0.184 0.426,-0.206 0.426,-0.23C0.426,-0.253 0.424,-0.274 0.419,-0.294C0.413,-0.314 0.406,-0.332 0.395,-0.347C0.384,-0.362 0.369,-0.375 0.352,-0.384C0.335,-0.393 0.313,-0.397 0.288,-0.397C0.256,-0.397 0.229,-0.388 0.206,-0.371C0.183,-0.353 0.167,-0.327 0.158,-0.293C0.155,-0.282 0.153,-0.271 0.152,-0.259C0.151,-0.246 0.151,-0.233 0.151,-0.22L0.151,-0.101Z" style="fill-rule:nonzero;"/>
            </g>
            <g transform="matrix(18,0,0,18,233.366,28.8369)">
                <rect x="0.062" y="-0.667" width="0.09" height="0.667" style="fill-rule:nonzero;"/>
            </g>
            <g transform="matrix(18,0,0,18,237.04,28.8369)">
                <path d="M0.06,-0.649L0.161,-0.649L0.161,-0.548L0.06,-0.548L0.06,-0.649ZM0.066,-0.465L0.156,-0.465L0.156,-0L0.066,-0L0.066,-0.465Z" style="fill-rule:nonzero;"/>
            </g>
            <g transform="matrix(18,0,0,18,240.857,28.8369)">
                <path d="M0.102,-0.39L0.018,-0.39L0.018,-0.465L0.102,-0.465L0.102,-0.617L0.192,-0.617L0.192,-0.465L0.328,-0.465L0.328,-0.39L0.192,-0.39L0.192,-0.161C0.192,-0.124 0.198,-0.098 0.21,-0.084C0.221,-0.07 0.238,-0.063 0.259,-0.063C0.276,-0.063 0.291,-0.066 0.302,-0.071C0.313,-0.076 0.325,-0.084 0.336,-0.095L0.377,-0.04C0.358,-0.021 0.338,-0.008 0.318,0.001C0.297,0.009 0.273,0.013 0.245,0.013C0.196,0.013 0.16,-0 0.137,-0.027C0.114,-0.054 0.102,-0.095 0.102,-0.152L0.102,-0.39Z" style="fill-rule:nonzero;"/>
            </g>
            <g transform="matrix(18,0,0,18,247.321,28.8369)">
                <path d="M0.102,-0.39L0.018,-0.39L0.018,-0.465L0.102,-0.465L0.102,-0.617L0.192,-0.617L0.192,-0.465L0.328,-0.465L0.328,-0.39L0.192,-0.39L0.192,-0.161C0.192,-0.124 0.198,-0.098 0.21,-0.084C0.221,-0.07 0.238,-0.063 0.259,-0.063C0.276,-0.063 0.291,-0.066 0.302,-0.071C0.313,-0.076 0.325,-0.084 0.336,-0.095L0.377,-0.04C0.358,-0.021 0.338,-0.008 0.318,0.001C0.297,0.009 0.273,0.013 0.245,0.013C0.196,0.013 0.16,-0 0.137,-0.027C0.114,-0.054 0.102,-0.095 0.102,-0.152L0.102,-0.39Z" style="fill-rule:nonzero;"/>
            </g>
            <g transform="matrix(18,0,0,18,254.055,28.8369)">
                <path d="M0.486,-0.068C0.481,-0.062 0.473,-0.054 0.462,-0.045C0.451,-0.036 0.438,-0.027 0.421,-0.018C0.404,-0.009 0.384,-0.002 0.361,0.005C0.337,0.011 0.311,0.014 0.282,0.014C0.246,0.014 0.213,0.008 0.183,-0.004C0.153,-0.016 0.127,-0.033 0.106,-0.055C0.085,-0.077 0.068,-0.103 0.057,-0.134C0.045,-0.165 0.039,-0.199 0.039,-0.236C0.039,-0.27 0.045,-0.302 0.056,-0.332C0.067,-0.361 0.083,-0.387 0.104,-0.409C0.125,-0.43 0.149,-0.447 0.178,-0.46C0.206,-0.473 0.237,-0.479 0.271,-0.479C0.311,-0.479 0.345,-0.471 0.374,-0.456C0.403,-0.441 0.426,-0.42 0.445,-0.395C0.463,-0.37 0.476,-0.341 0.485,-0.308C0.494,-0.275 0.498,-0.241 0.498,-0.206L0.131,-0.206C0.132,-0.185 0.136,-0.166 0.145,-0.149C0.153,-0.132 0.164,-0.117 0.178,-0.104C0.192,-0.091 0.208,-0.081 0.226,-0.074C0.244,-0.067 0.263,-0.063 0.283,-0.063C0.322,-0.063 0.355,-0.07 0.38,-0.083C0.405,-0.096 0.424,-0.109 0.435,-0.122L0.486,-0.068ZM0.405,-0.273C0.402,-0.309 0.39,-0.34 0.367,-0.365C0.344,-0.39 0.312,-0.403 0.271,-0.403C0.25,-0.403 0.231,-0.399 0.214,-0.392C0.197,-0.385 0.182,-0.375 0.17,-0.363C0.158,-0.351 0.149,-0.337 0.142,-0.322C0.135,-0.306 0.132,-0.29 0.131,-0.273L0.405,-0.273Z" style="fill-rule:nonzero;"/>
            </g>
            <g transform="matrix(18,0,0,18,263.525,28.8369)">
                <path d="M0.062,-0L0.062,-0.421C0.062,-0.435 0.062,-0.45 0.061,-0.465L0.147,-0.465L0.15,-0.39C0.155,-0.398 0.162,-0.407 0.171,-0.417C0.18,-0.426 0.19,-0.435 0.203,-0.443C0.215,-0.451 0.229,-0.458 0.246,-0.464C0.262,-0.469 0.281,-0.472 0.302,-0.472C0.312,-0.472 0.321,-0.471 0.33,-0.47C0.338,-0.469 0.346,-0.467 0.353,-0.464L0.333,-0.38C0.321,-0.385 0.306,-0.387 0.287,-0.387C0.268,-0.387 0.25,-0.383 0.234,-0.376C0.217,-0.369 0.203,-0.359 0.191,-0.346C0.179,-0.333 0.17,-0.317 0.163,-0.3C0.156,-0.283 0.152,-0.264 0.152,-0.245L0.152,-0L0.062,-0Z" style="fill-rule:nonzero;"/>
            </g>
        </g>
        <g transform="matrix(1,0,0,1,-80.5599,249.121)">
            <g transform="matrix(12,0,0,12,87.4205,106.183)">
                <path d="M0.076,-0.667L0.287,-0.667C0.332,-0.667 0.37,-0.661 0.4,-0.648C0.429,-0.635 0.453,-0.619 0.471,-0.6C0.488,-0.581 0.501,-0.559 0.508,-0.535C0.515,-0.511 0.518,-0.488 0.518,-0.465C0.518,-0.432 0.512,-0.402 0.501,-0.377C0.49,-0.352 0.474,-0.331 0.454,-0.314C0.434,-0.297 0.41,-0.284 0.383,-0.275C0.355,-0.266 0.325,-0.262 0.292,-0.262L0.171,-0.262L0.171,-0L0.076,-0L0.076,-0.667ZM0.291,-0.344C0.332,-0.344 0.364,-0.355 0.387,-0.376C0.409,-0.397 0.42,-0.426 0.42,-0.463C0.42,-0.501 0.409,-0.531 0.386,-0.553C0.363,-0.574 0.331,-0.585 0.291,-0.585L0.171,-0.585L0.171,-0.344L0.291,-0.344Z" style="fill-rule:nonzero;"/>
            </g>
            <g transform="matrix(12,0,0,12,93.9485,106.183)">
                <path d="M0.061,-0.667L0.15,-0.667L0.15,-0.396C0.156,-0.404 0.163,-0.413 0.172,-0.422C0.181,-0.431 0.191,-0.44 0.204,-0.448C0.217,-0.456 0.231,-0.463 0.248,-0.468C0.265,-0.473 0.284,-0.476 0.305,-0.476C0.366,-0.476 0.411,-0.458 0.44,-0.423C0.469,-0.388 0.484,-0.34 0.484,-0.279L0.484,-0L0.394,-0L0.394,-0.272C0.394,-0.315 0.385,-0.347 0.366,-0.368C0.347,-0.388 0.321,-0.398 0.287,-0.398C0.261,-0.398 0.239,-0.393 0.222,-0.382C0.205,-0.371 0.191,-0.358 0.181,-0.341C0.17,-0.324 0.163,-0.304 0.158,-0.283C0.153,-0.261 0.151,-0.239 0.151,-0.216L0.151,-0L0.061,-0L0.061,-0.667Z" style="fill-rule:nonzero;"/>
            </g>
            <g transform="matrix(12,0,0,12,100.44,106.183)">
                <path d="M0.352,-0.22C0.349,-0.221 0.344,-0.222 0.337,-0.223C0.329,-0.224 0.32,-0.224 0.31,-0.225C0.3,-0.226 0.289,-0.226 0.278,-0.227C0.267,-0.228 0.256,-0.228 0.245,-0.228C0.22,-0.228 0.199,-0.225 0.184,-0.219C0.168,-0.213 0.156,-0.206 0.147,-0.197C0.137,-0.188 0.131,-0.178 0.128,-0.167C0.125,-0.156 0.123,-0.145 0.123,-0.135C0.123,-0.11 0.132,-0.091 0.149,-0.078C0.166,-0.065 0.19,-0.058 0.221,-0.058C0.238,-0.058 0.255,-0.061 0.271,-0.067C0.286,-0.073 0.3,-0.081 0.312,-0.091C0.324,-0.101 0.334,-0.113 0.341,-0.126C0.348,-0.139 0.352,-0.153 0.352,-0.167L0.352,-0.22ZM0.353,-0.056C0.336,-0.033 0.313,-0.015 0.285,-0.004C0.256,0.007 0.227,0.013 0.197,0.013C0.178,0.013 0.159,0.011 0.14,0.006C0.121,0 0.103,-0.008 0.088,-0.02C0.072,-0.031 0.059,-0.046 0.05,-0.065C0.04,-0.083 0.035,-0.105 0.035,-0.132C0.035,-0.182 0.053,-0.222 0.088,-0.252C0.123,-0.282 0.173,-0.297 0.239,-0.297C0.25,-0.297 0.261,-0.297 0.273,-0.296C0.285,-0.295 0.296,-0.295 0.307,-0.294C0.318,-0.293 0.327,-0.293 0.335,-0.292C0.343,-0.291 0.349,-0.291 0.352,-0.29L0.352,-0.307C0.352,-0.342 0.341,-0.367 0.321,-0.382C0.3,-0.397 0.271,-0.404 0.235,-0.404C0.2,-0.404 0.172,-0.399 0.151,-0.39C0.13,-0.38 0.113,-0.37 0.099,-0.36L0.057,-0.421C0.065,-0.428 0.075,-0.434 0.086,-0.441C0.097,-0.448 0.111,-0.454 0.126,-0.46C0.141,-0.465 0.159,-0.47 0.178,-0.474C0.197,-0.477 0.22,-0.479 0.245,-0.479C0.305,-0.479 0.352,-0.464 0.387,-0.436C0.421,-0.407 0.438,-0.365 0.438,-0.312L0.438,-0.042C0.438,-0.025 0.438,-0.011 0.439,-0L0.355,-0L0.353,-0.056Z" style="fill-rule:nonzero;"/>
            </g>
            <g transform="matrix(12,0,0,12,106.404,106.183)">
                <path d="M0.092,-0.117C0.109,-0.1 0.129,-0.087 0.152,-0.077C0.175,-0.067 0.202,-0.062 0.233,-0.062C0.263,-0.062 0.288,-0.067 0.308,-0.077C0.328,-0.086 0.338,-0.101 0.338,-0.122C0.338,-0.133 0.336,-0.142 0.332,-0.15C0.327,-0.157 0.32,-0.164 0.31,-0.17C0.299,-0.176 0.286,-0.182 0.269,-0.187C0.252,-0.192 0.23,-0.197 0.205,-0.203C0.187,-0.207 0.169,-0.212 0.152,-0.219C0.134,-0.226 0.118,-0.235 0.104,-0.246C0.09,-0.257 0.079,-0.27 0.07,-0.286C0.061,-0.301 0.057,-0.32 0.057,-0.342C0.057,-0.365 0.062,-0.385 0.073,-0.402C0.083,-0.419 0.097,-0.433 0.114,-0.445C0.131,-0.456 0.151,-0.465 0.173,-0.471C0.194,-0.477 0.217,-0.48 0.24,-0.48C0.279,-0.48 0.313,-0.475 0.342,-0.465C0.37,-0.454 0.395,-0.44 0.416,-0.421L0.367,-0.359C0.353,-0.372 0.335,-0.382 0.315,-0.391C0.294,-0.4 0.269,-0.404 0.241,-0.404C0.212,-0.404 0.189,-0.399 0.172,-0.39C0.155,-0.381 0.146,-0.365 0.146,-0.344C0.146,-0.324 0.158,-0.309 0.181,-0.3C0.204,-0.29 0.234,-0.281 0.271,-0.272C0.293,-0.267 0.314,-0.261 0.333,-0.254C0.352,-0.247 0.368,-0.238 0.383,-0.227C0.397,-0.216 0.408,-0.202 0.417,-0.186C0.425,-0.17 0.429,-0.151 0.429,-0.128C0.429,-0.105 0.424,-0.084 0.413,-0.067C0.402,-0.049 0.388,-0.034 0.37,-0.022C0.352,-0.01 0.331,-0.001 0.308,0.005C0.285,0.011 0.26,0.014 0.235,0.014C0.147,0.014 0.081,-0.01 0.037,-0.057L0.092,-0.117Z" style="fill-rule:nonzero;"/>
            </g>
            <g transform="matrix(12,0,0,12,112.044,106.183)">
                <path d="M0.286,0.014C0.25,0.014 0.217,0.008 0.187,-0.006C0.157,-0.019 0.131,-0.036 0.11,-0.059C0.088,-0.082 0.071,-0.108 0.059,-0.138C0.046,-0.167 0.04,-0.199 0.04,-0.233C0.04,-0.267 0.046,-0.299 0.059,-0.329C0.071,-0.358 0.088,-0.384 0.11,-0.407C0.131,-0.43 0.157,-0.448 0.187,-0.461C0.217,-0.474 0.25,-0.48 0.286,-0.48C0.321,-0.48 0.354,-0.474 0.384,-0.461C0.414,-0.448 0.44,-0.43 0.462,-0.407C0.484,-0.384 0.501,-0.358 0.514,-0.329C0.526,-0.299 0.532,-0.267 0.532,-0.233C0.532,-0.199 0.526,-0.167 0.514,-0.138C0.501,-0.108 0.484,-0.082 0.462,-0.059C0.44,-0.036 0.414,-0.019 0.384,-0.006C0.354,0.008 0.321,0.014 0.286,0.014ZM0.286,-0.064C0.31,-0.064 0.332,-0.069 0.351,-0.079C0.37,-0.088 0.387,-0.101 0.4,-0.117C0.413,-0.132 0.424,-0.15 0.431,-0.171C0.438,-0.191 0.441,-0.212 0.441,-0.233C0.441,-0.254 0.438,-0.274 0.431,-0.295C0.424,-0.315 0.413,-0.333 0.4,-0.349C0.386,-0.365 0.37,-0.378 0.351,-0.388C0.332,-0.397 0.31,-0.402 0.286,-0.402C0.262,-0.402 0.24,-0.397 0.221,-0.388C0.202,-0.378 0.185,-0.365 0.172,-0.35C0.159,-0.334 0.149,-0.316 0.142,-0.296C0.135,-0.275 0.131,-0.254 0.131,-0.233C0.131,-0.212 0.135,-0.191 0.142,-0.171C0.149,-0.151 0.159,-0.133 0.173,-0.117C0.186,-0.101 0.203,-0.088 0.222,-0.079C0.241,-0.069 0.262,-0.064 0.286,-0.064Z" style="fill-rule:nonzero;"/>
            </g>
            <g transform="matrix(12,0,0,12,118.884,106.183)">
                <path d="M0.062,-0L0.062,-0.421C0.062,-0.435 0.062,-0.45 0.061,-0.465L0.147,-0.465L0.15,-0.39C0.155,-0.398 0.162,-0.407 0.171,-0.417C0.18,-0.426 0.19,-0.435 0.203,-0.443C0.215,-0.451 0.229,-0.458 0.246,-0.464C0.262,-0.469 0.281,-0.472 0.302,-0.472C0.312,-0.472 0.321,-0.471 0.33,-0.47C0.338,-0.469 0.346,-0.467 0.353,-0.464L0.333,-0.38C0.321,-0.385 0.306,-0.387 0.287,-0.387C0.268,-0.387 0.25,-0.383 0.234,-0.376C0.217,-0.369 0.203,-0.359 0.191,-0.346C0.179,-0.333 0.17,-0.317 0.163,-0.3C0.156,-0.283 0.152,-0.264 0.152,-0.245L0.152,-0L0.062,-0Z" style="fill-rule:nonzero;"/>
            </g>
            <g transform="matrix(12,0,0,12,125.376,106.183)">
                <rect x="0.076" y="-0.667" width="0.096" height="0.667" style="fill-rule:nonzero;"/>
            </g>
            <g transform="matrix(12,0,0,12,128.328,106.183)">
                <path d="M0.062,-0L0.062,-0.418C0.062,-0.432 0.062,-0.448 0.061,-0.465L0.147,-0.465L0.15,-0.395C0.156,-0.403 0.163,-0.412 0.172,-0.422C0.181,-0.431 0.191,-0.44 0.204,-0.448C0.217,-0.456 0.232,-0.463 0.249,-0.468C0.266,-0.473 0.285,-0.476 0.306,-0.476C0.367,-0.476 0.412,-0.458 0.441,-0.423C0.47,-0.388 0.485,-0.34 0.485,-0.279L0.485,-0L0.395,-0L0.395,-0.272C0.395,-0.315 0.386,-0.347 0.367,-0.368C0.348,-0.388 0.322,-0.398 0.288,-0.398C0.262,-0.398 0.24,-0.393 0.223,-0.382C0.206,-0.371 0.192,-0.358 0.182,-0.341C0.171,-0.324 0.164,-0.304 0.159,-0.283C0.154,-0.261 0.152,-0.239 0.152,-0.216L0.152,-0L0.062,-0Z" style="fill-rule:nonzero;"/>
            </g>
        </g>
        <g id="XY-Controls" serif:id="XY Controls" transform="matrix(1,0,0,1,5.98219,-31.4012)">
            <g id="X" transform="matrix(1,0,0,1,0,-32)">
                <g transform="matrix(1,0,0,1,-24.4502,-78.4866)">
                    <g transform="matrix(12,0,0,12,37.3439,193.333)">
                        <path d="M0.099,-0.667L0.191,-0.667L0.394,-0.32L0.597,-0.667L0.687,-0.667L0.718,-0L0.624,-0L0.602,-0.512L0.414,-0.197L0.366,-0.197L0.181,-0.508L0.158,-0L0.068,-0L0.099,-0.667Z" style="fill-rule:nonzero;"/>
                    </g>
                    <g transform="matrix(12,0,0,12,46.5839,193.333)">
                        <path d="M0.286,0.014C0.25,0.014 0.217,0.008 0.187,-0.006C0.157,-0.019 0.131,-0.036 0.11,-0.059C0.088,-0.082 0.071,-0.108 0.059,-0.138C0.046,-0.167 0.04,-0.199 0.04,-0.233C0.04,-0.267 0.046,-0.299 0.059,-0.329C0.071,-0.358 0.088,-0.384 0.11,-0.407C0.131,-0.43 0.157,-0.448 0.187,-0.461C0.217,-0.474 0.25,-0.48 0.286,-0.48C0.321,-0.48 0.354,-0.474 0.384,-0.461C0.414,-0.448 0.44,-0.43 0.462,-0.407C0.484,-0.384 0.501,-0.358 0.514,-0.329C0.526,-0.299 0.532,-0.267 0.532,-0.233C0.532,-0.199 0.526,-0.167 0.514,-0.138C0.501,-0.108 0.484,-0.082 0.462,-0.059C0.44,-0.036 0.414,-0.019 0.384,-0.006C0.354,0.008 0.321,0.014 0.286,0.014ZM0.286,-0.064C0.31,-0.064 0.332,-0.069 0.351,-0.079C0.37,-0.088 0.387,-0.101 0.4,-0.117C0.413,-0.132 0.424,-0.15 0.431,-0.171C0.438,-0.191 0.441,-0.212 0.441,-0.233C0.441,-0.254 0.438,-0.274 0.431,-0.295C0.424,-0.315 0.413,-0.333 0.4,-0.349C0.386,-0.365 0.37,-0.378 0.351,-0.388C0.332,-0.397 0.31,-0.402 0.286,-0.402C0.262,-0.402 0.24,-0.397 0.221,-0.388C0.202,-0.378 0.185,-0.365 0.172,-0.35C0.159,-0.334 0.149,-0.316 0.142,-0.296C0.135,-0.275 0.131,-0.254 0.131,-0.233C0.131,-0.212 0.135,-0.191 0.142,-0.171C0.149,-0.151 0.159,-0.133 0.173,-0.117C0.186,-0.101 0.203,-0.088 0.222,-0.079C0.241,-0.069 0.262,-0.064 0.286,-0.064Z" style="fill-rule:nonzero;"/>
                    </g>
                    <g transform="matrix(12,0,0,12,53.3639,193.333)">
                        <path d="M0.397,-0.362C0.39,-0.367 0.378,-0.375 0.36,-0.384C0.342,-0.393 0.316,-0.397 0.283,-0.397C0.261,-0.397 0.241,-0.393 0.223,-0.385C0.204,-0.377 0.188,-0.366 0.175,-0.351C0.161,-0.336 0.15,-0.318 0.143,-0.297C0.135,-0.276 0.131,-0.252 0.131,-0.225C0.131,-0.203 0.134,-0.182 0.139,-0.163C0.144,-0.143 0.153,-0.126 0.164,-0.111C0.174,-0.096 0.189,-0.085 0.206,-0.077C0.223,-0.068 0.243,-0.064 0.266,-0.064C0.289,-0.064 0.309,-0.068 0.326,-0.077C0.343,-0.086 0.356,-0.096 0.367,-0.11C0.377,-0.123 0.385,-0.137 0.39,-0.153C0.395,-0.168 0.397,-0.183 0.397,-0.196L0.397,-0.362ZM0.397,-0.059C0.394,-0.055 0.388,-0.049 0.381,-0.041C0.373,-0.032 0.363,-0.024 0.35,-0.016C0.337,-0.008 0.323,-0.001 0.306,0.005C0.289,0.011 0.269,0.014 0.246,0.014C0.217,0.014 0.189,0.008 0.164,-0.003C0.139,-0.014 0.117,-0.03 0.098,-0.051C0.079,-0.072 0.065,-0.097 0.055,-0.127C0.044,-0.156 0.039,-0.189 0.039,-0.226C0.039,-0.27 0.047,-0.308 0.062,-0.34C0.077,-0.371 0.097,-0.397 0.121,-0.418C0.144,-0.438 0.17,-0.453 0.198,-0.462C0.225,-0.471 0.251,-0.476 0.276,-0.476C0.309,-0.476 0.335,-0.472 0.354,-0.464C0.373,-0.456 0.387,-0.45 0.397,-0.446L0.397,-0.667L0.487,-0.667L0.487,-0.048C0.487,-0.033 0.487,-0.017 0.488,-0L0.4,-0L0.397,-0.059Z" style="fill-rule:nonzero;"/>
                    </g>
                    <g transform="matrix(12,0,0,12,59.8799,193.333)">
                        <path d="M0.486,-0.068C0.481,-0.062 0.473,-0.054 0.462,-0.045C0.451,-0.036 0.438,-0.027 0.421,-0.018C0.404,-0.009 0.384,-0.002 0.361,0.005C0.337,0.011 0.311,0.014 0.282,0.014C0.246,0.014 0.213,0.008 0.183,-0.004C0.153,-0.016 0.127,-0.033 0.106,-0.055C0.085,-0.077 0.068,-0.103 0.057,-0.134C0.045,-0.165 0.039,-0.199 0.039,-0.236C0.039,-0.27 0.045,-0.302 0.056,-0.332C0.067,-0.361 0.083,-0.387 0.104,-0.409C0.125,-0.43 0.149,-0.447 0.178,-0.46C0.206,-0.473 0.237,-0.479 0.271,-0.479C0.311,-0.479 0.345,-0.471 0.374,-0.456C0.403,-0.441 0.426,-0.42 0.445,-0.395C0.463,-0.37 0.476,-0.341 0.485,-0.308C0.494,-0.275 0.498,-0.241 0.498,-0.206L0.131,-0.206C0.132,-0.185 0.136,-0.166 0.145,-0.149C0.153,-0.132 0.164,-0.117 0.178,-0.104C0.192,-0.091 0.208,-0.081 0.226,-0.074C0.244,-0.067 0.263,-0.063 0.283,-0.063C0.322,-0.063 0.355,-0.07 0.38,-0.083C0.405,-0.096 0.424,-0.109 0.435,-0.122L0.486,-0.068ZM0.405,-0.273C0.402,-0.309 0.39,-0.34 0.367,-0.365C0.344,-0.39 0.312,-0.403 0.271,-0.403C0.25,-0.403 0.231,-0.399 0.214,-0.392C0.197,-0.385 0.182,-0.375 0.17,-0.363C0.158,-0.351 0.149,-0.337 0.142,-0.322C0.135,-0.306 0.132,-0.29 0.131,-0.273L0.405,-0.273Z" style="fill-rule:nonzero;"/>
                    </g>
                </g>
                <g transform="matrix(1.19028,0,0,1.45671,-17.2576,19.5074)">
                    <path d="M37.5,78.323L37.5,154.987" style="fill:none;stroke:black;stroke-width:0.75px;stroke-dasharray:1.5,1.5,0,0;"/>
                </g>
                <g transform="matrix(1,0,0,1,-63.324,112.354)">
                    <g transform="matrix(8,0,0,8,76.6499,86.8535)">
                        <rect x="0.074" y="-0.347" width="0.277" height="0.118" style="fill-rule:nonzero;"/>
                    </g>
                    <g transform="matrix(8,0,0,8,99.6824,86.8535)">
                        <path d="M0.546,-0.181L0.546,-0.319L0.369,-0.319L0.369,-0.496L0.231,-0.496L0.231,-0.319L0.054,-0.319L0.054,-0.181L0.231,-0.181L0.231,-0.004L0.369,-0.004L0.369,-0.181L0.546,-0.181Z" style="fill-rule:nonzero;"/>
                    </g>
                </g>
            </g>
            <g id="Y" transform="matrix(1,0,0,1,-10,-32)">
                <g transform="matrix(1,0,0,1,40.5498,-78.4866)">
                    <g transform="matrix(12,0,0,12,37.0139,193.333)">
                        <path d="M0.105,-0.162C0.114,-0.151 0.125,-0.14 0.137,-0.13C0.148,-0.119 0.161,-0.109 0.176,-0.1C0.191,-0.091 0.207,-0.084 0.225,-0.079C0.243,-0.074 0.263,-0.071 0.284,-0.071C0.328,-0.071 0.362,-0.081 0.387,-0.101C0.412,-0.121 0.424,-0.148 0.424,-0.182C0.424,-0.219 0.41,-0.246 0.382,-0.265C0.354,-0.283 0.314,-0.298 0.261,-0.309C0.232,-0.315 0.206,-0.323 0.183,-0.334C0.16,-0.345 0.139,-0.358 0.123,-0.374C0.106,-0.39 0.092,-0.409 0.083,-0.43C0.074,-0.451 0.069,-0.474 0.069,-0.501C0.069,-0.526 0.074,-0.549 0.083,-0.571C0.092,-0.593 0.106,-0.612 0.125,-0.629C0.144,-0.646 0.167,-0.659 0.195,-0.669C0.223,-0.679 0.255,-0.684 0.292,-0.684C0.325,-0.684 0.353,-0.681 0.377,-0.674C0.4,-0.667 0.42,-0.658 0.437,-0.648C0.454,-0.638 0.467,-0.628 0.477,-0.617C0.487,-0.606 0.495,-0.598 0.5,-0.591L0.436,-0.532C0.432,-0.537 0.426,-0.543 0.418,-0.551C0.41,-0.558 0.4,-0.566 0.388,-0.573C0.375,-0.58 0.361,-0.587 0.345,-0.592C0.328,-0.596 0.309,-0.599 0.288,-0.599C0.267,-0.599 0.248,-0.596 0.233,-0.591C0.218,-0.585 0.205,-0.578 0.195,-0.569C0.185,-0.56 0.178,-0.549 0.173,-0.538C0.168,-0.527 0.166,-0.515 0.166,-0.504C0.166,-0.487 0.169,-0.473 0.177,-0.462C0.184,-0.45 0.194,-0.44 0.207,-0.431C0.22,-0.422 0.237,-0.414 0.257,-0.408C0.276,-0.401 0.299,-0.395 0.324,-0.389C0.349,-0.383 0.373,-0.375 0.397,-0.366C0.42,-0.356 0.441,-0.343 0.46,-0.327C0.479,-0.31 0.494,-0.29 0.505,-0.267C0.516,-0.243 0.521,-0.214 0.521,-0.18C0.521,-0.151 0.515,-0.125 0.503,-0.101C0.491,-0.077 0.474,-0.056 0.454,-0.039C0.432,-0.021 0.408,-0.007 0.379,0.003C0.35,0.012 0.319,0.017 0.286,0.017C0.255,0.017 0.226,0.013 0.201,0.006C0.175,-0.001 0.152,-0.011 0.131,-0.022C0.11,-0.033 0.091,-0.046 0.076,-0.06C0.06,-0.073 0.047,-0.087 0.037,-0.1L0.105,-0.162Z" style="fill-rule:nonzero;"/>
                    </g>
                    <g transform="matrix(12,0,0,12,43.4939,193.333)">
                        <path d="M0.102,-0.39L0.018,-0.39L0.018,-0.465L0.102,-0.465L0.102,-0.617L0.192,-0.617L0.192,-0.465L0.328,-0.465L0.328,-0.39L0.192,-0.39L0.192,-0.161C0.192,-0.124 0.198,-0.098 0.21,-0.084C0.221,-0.07 0.238,-0.063 0.259,-0.063C0.276,-0.063 0.291,-0.066 0.302,-0.071C0.313,-0.076 0.325,-0.084 0.336,-0.095L0.377,-0.04C0.358,-0.021 0.338,-0.008 0.318,0.001C0.297,0.009 0.273,0.013 0.245,0.013C0.196,0.013 0.16,-0 0.137,-0.027C0.114,-0.054 0.102,-0.095 0.102,-0.152L0.102,-0.39Z" style="fill-rule:nonzero;"/>
                    </g>
                    <g transform="matrix(12,0,0,12,48.0179,193.333)">
                        <path d="M0.486,-0.068C0.481,-0.062 0.473,-0.054 0.462,-0.045C0.451,-0.036 0.438,-0.027 0.421,-0.018C0.404,-0.009 0.384,-0.002 0.361,0.005C0.337,0.011 0.311,0.014 0.282,0.014C0.246,0.014 0.213,0.008 0.183,-0.004C0.153,-0.016 0.127,-0.033 0.106,-0.055C0.085,-0.077 0.068,-0.103 0.057,-0.134C0.045,-0.165 0.039,-0.199 0.039,-0.236C0.039,-0.27 0.045,-0.302 0.056,-0.332C0.067,-0.361 0.083,-0.387 0.104,-0.409C0.125,-0.43 0.149,-0.447 0.178,-0.46C0.206,-0.473 0.237,-0.479 0.271,-0.479C0.311,-0.479 0.345,-0.471 0.374,-0.456C0.403,-0.441 0.426,-0.42 0.445,-0.395C0.463,-0.37 0.476,-0.341 0.485,-0.308C0.494,-0.275 0.498,-0.241 0.498,-0.206L0.131,-0.206C0.132,-0.185 0.136,-0.166 0.145,-0.149C0.153,-0.132 0.164,-0.117 0.178,-0.104C0.192,-0.091 0.208,-0.081 0.226,-0.074C0.244,-0.067 0.263,-0.063 0.283,-0.063C0.322,-0.063 0.355,-0.07 0.38,-0.083C0.405,-0.096 0.424,-0.109 0.435,-0.122L0.486,-0.068ZM0.405,-0.273C0.402,-0.309 0.39,-0.34 0.367,-0.365C0.344,-0.39 0.312,-0.403 0.271,-0.403C0.25,-0.403 0.231,-0.399 0.214,-0.392C0.197,-0.385 0.182,-0.375 0.17,-0.363C0.158,-0.351 0.149,-0.337 0.142,-0.322C0.135,-0.306 0.132,-0.29 0.131,-0.273L0.405,-0.273Z" style="fill-rule:nonzero;"/>
                    </g>
                    <g transform="matrix(12,0,0,12,54.3659,193.333)">
                        <path d="M0.062,0.2L0.062,-0.418C0.062,-0.432 0.062,-0.448 0.061,-0.465L0.147,-0.465L0.15,-0.399C0.155,-0.405 0.161,-0.412 0.17,-0.421C0.179,-0.43 0.19,-0.438 0.203,-0.446C0.216,-0.454 0.231,-0.461 0.248,-0.467C0.265,-0.472 0.285,-0.475 0.308,-0.475C0.344,-0.475 0.375,-0.468 0.402,-0.455C0.428,-0.442 0.45,-0.424 0.467,-0.401C0.484,-0.378 0.497,-0.352 0.506,-0.323C0.514,-0.294 0.518,-0.263 0.518,-0.23C0.518,-0.188 0.511,-0.152 0.497,-0.121C0.482,-0.09 0.464,-0.065 0.441,-0.045C0.418,-0.025 0.392,-0.01 0.364,-0.001C0.335,0.009 0.307,0.014 0.28,0.014C0.249,0.014 0.224,0.011 0.205,0.005C0.186,-0.002 0.168,-0.009 0.151,-0.016L0.151,0.2L0.062,0.2ZM0.151,-0.101C0.162,-0.092 0.177,-0.084 0.197,-0.076C0.217,-0.068 0.242,-0.064 0.272,-0.064C0.295,-0.064 0.316,-0.068 0.335,-0.077C0.354,-0.085 0.37,-0.096 0.384,-0.112C0.397,-0.127 0.408,-0.144 0.415,-0.164C0.422,-0.184 0.426,-0.206 0.426,-0.23C0.426,-0.253 0.424,-0.274 0.419,-0.294C0.413,-0.314 0.406,-0.332 0.395,-0.347C0.384,-0.362 0.369,-0.375 0.352,-0.384C0.335,-0.393 0.313,-0.397 0.288,-0.397C0.256,-0.397 0.229,-0.388 0.206,-0.371C0.183,-0.353 0.167,-0.327 0.158,-0.293C0.155,-0.282 0.153,-0.271 0.152,-0.259C0.151,-0.246 0.151,-0.233 0.151,-0.22L0.151,-0.101Z" style="fill-rule:nonzero;"/>
                    </g>
                    <g transform="matrix(12,0,0,12,60.9779,193.333)">
                        <path d="M0.092,-0.117C0.109,-0.1 0.129,-0.087 0.152,-0.077C0.175,-0.067 0.202,-0.062 0.233,-0.062C0.263,-0.062 0.288,-0.067 0.308,-0.077C0.328,-0.086 0.338,-0.101 0.338,-0.122C0.338,-0.133 0.336,-0.142 0.332,-0.15C0.327,-0.157 0.32,-0.164 0.31,-0.17C0.299,-0.176 0.286,-0.182 0.269,-0.187C0.252,-0.192 0.23,-0.197 0.205,-0.203C0.187,-0.207 0.169,-0.212 0.152,-0.219C0.134,-0.226 0.118,-0.235 0.104,-0.246C0.09,-0.257 0.079,-0.27 0.07,-0.286C0.061,-0.301 0.057,-0.32 0.057,-0.342C0.057,-0.365 0.062,-0.385 0.073,-0.402C0.083,-0.419 0.097,-0.433 0.114,-0.445C0.131,-0.456 0.151,-0.465 0.173,-0.471C0.194,-0.477 0.217,-0.48 0.24,-0.48C0.279,-0.48 0.313,-0.475 0.342,-0.465C0.37,-0.454 0.395,-0.44 0.416,-0.421L0.367,-0.359C0.353,-0.372 0.335,-0.382 0.315,-0.391C0.294,-0.4 0.269,-0.404 0.241,-0.404C0.212,-0.404 0.189,-0.399 0.172,-0.39C0.155,-0.381 0.146,-0.365 0.146,-0.344C0.146,-0.324 0.158,-0.309 0.181,-0.3C0.204,-0.29 0.234,-0.281 0.271,-0.272C0.293,-0.267 0.314,-0.261 0.333,-0.254C0.352,-0.247 0.368,-0.238 0.383,-0.227C0.397,-0.216 0.408,-0.202 0.417,-0.186C0.425,-0.17 0.429,-0.151 0.429,-0.128C0.429,-0.105 0.424,-0.084 0.413,-0.067C0.402,-0.049 0.388,-0.034 0.37,-0.022C0.352,-0.01 0.331,-0.001 0.308,0.005C0.285,0.011 0.26,0.014 0.235,0.014C0.147,0.014 0.081,-0.01 0.037,-0.057L0.092,-0.117Z" style="fill-rule:nonzero;"/>
                    </g>
                </g>
                <g transform="matrix(1.19028,0,0,1.45671,47.7424,19.5074)">
                    <path d="M37.5,78.323L37.5,154.987" style="fill:none;stroke:black;stroke-width:0.75px;stroke-dasharray:1.5,1.5,0,0;"/>
                </g>
                <g transform="matrix(1,0,0,1,1.676,112.354)">
                    <g transform="matrix(8,0,0,8,76.6499,86.8535)">
                        <rect x="0.074" y="-0.347" width="0.277" height="0.118" style="fill-rule:nonzero;"/>
                    </g>
                    <g transform="matrix(8,0,0,8,99.6824,86.8535)">
                        <path d="M0.546,-0.181L0.546,-0.319L0.369,-0.319L0.369,-0.496L0.231,-0.496L0.231,-0.319L0.054,-0.319L0.054,-0.181L0.231,-0.181L0.231,-0.004L0.369,-0.004L0.369,-0.181L0.546,-0.181Z" style="fill-rule:nonzero;"/>
                    </g>
                </g>
            </g>
        </g>
        <g transform="matrix(1,0,0,1,-13.3566,249.121)">
            <g transform="matrix(12,0,0,12,92.2107,106.183)">
                <path d="M0.076,-0.667L0.289,-0.667C0.332,-0.667 0.368,-0.661 0.397,-0.65C0.426,-0.638 0.45,-0.623 0.469,-0.605C0.487,-0.586 0.5,-0.565 0.509,-0.542C0.517,-0.519 0.521,-0.495 0.521,-0.471C0.521,-0.428 0.511,-0.391 0.491,-0.358C0.471,-0.325 0.44,-0.301 0.398,-0.285L0.554,-0L0.446,-0L0.303,-0.273L0.169,-0.273L0.169,-0L0.076,-0L0.076,-0.667ZM0.297,-0.354C0.339,-0.354 0.371,-0.364 0.392,-0.385C0.413,-0.406 0.423,-0.433 0.423,-0.468C0.423,-0.505 0.412,-0.533 0.389,-0.554C0.366,-0.574 0.335,-0.584 0.295,-0.584L0.169,-0.584L0.169,-0.354L0.297,-0.354Z" style="fill-rule:nonzero;"/>
            </g>
            <g transform="matrix(12,0,0,12,99.2667,106.183)">
                <path d="M0.059,-0.465L0.149,-0.465L0.149,-0.192C0.149,-0.148 0.158,-0.116 0.176,-0.097C0.194,-0.077 0.22,-0.067 0.254,-0.067C0.28,-0.067 0.302,-0.072 0.319,-0.083C0.335,-0.094 0.349,-0.108 0.36,-0.125C0.371,-0.141 0.378,-0.161 0.383,-0.183C0.387,-0.204 0.389,-0.226 0.389,-0.249L0.389,-0.465L0.479,-0.465L0.479,-0.048C0.479,-0.033 0.479,-0.017 0.48,-0L0.394,-0L0.391,-0.069C0.385,-0.061 0.378,-0.052 0.369,-0.043C0.36,-0.034 0.35,-0.025 0.337,-0.018C0.324,-0.01 0.31,-0.003 0.293,0.002C0.276,0.007 0.257,0.01 0.236,0.01C0.175,0.01 0.131,-0.008 0.102,-0.043C0.073,-0.078 0.059,-0.125 0.059,-0.186L0.059,-0.465Z" style="fill-rule:nonzero;"/>
            </g>
            <g transform="matrix(12,0,0,12,105.747,106.183)">
                <path d="M0.062,-0L0.062,-0.418C0.062,-0.432 0.062,-0.448 0.061,-0.465L0.147,-0.465L0.15,-0.395C0.156,-0.403 0.163,-0.412 0.172,-0.422C0.181,-0.431 0.191,-0.44 0.204,-0.448C0.217,-0.456 0.232,-0.463 0.249,-0.468C0.266,-0.473 0.285,-0.476 0.306,-0.476C0.367,-0.476 0.412,-0.458 0.441,-0.423C0.47,-0.388 0.485,-0.34 0.485,-0.279L0.485,-0L0.395,-0L0.395,-0.272C0.395,-0.315 0.386,-0.347 0.367,-0.368C0.348,-0.388 0.322,-0.398 0.288,-0.398C0.262,-0.398 0.24,-0.393 0.223,-0.382C0.206,-0.371 0.192,-0.358 0.182,-0.341C0.171,-0.324 0.164,-0.304 0.159,-0.283C0.154,-0.261 0.152,-0.239 0.152,-0.216L0.152,-0L0.062,-0Z" style="fill-rule:nonzero;"/>
            </g>
        </g>
        <g transform="matrix(1,0,0,1,-93.7079,34.9849)">
            <g transform="matrix(8,0,0,8,130.562,202.426)">
                <path d="M0.105,-0.162C0.114,-0.151 0.125,-0.14 0.137,-0.13C0.148,-0.119 0.161,-0.109 0.176,-0.1C0.191,-0.091 0.207,-0.084 0.225,-0.079C0.243,-0.074 0.263,-0.071 0.284,-0.071C0.328,-0.071 0.362,-0.081 0.387,-0.101C0.412,-0.121 0.424,-0.148 0.424,-0.182C0.424,-0.219 0.41,-0.246 0.382,-0.265C0.354,-0.283 0.314,-0.298 0.261,-0.309C0.232,-0.315 0.206,-0.323 0.183,-0.334C0.16,-0.345 0.139,-0.358 0.123,-0.374C0.106,-0.39 0.092,-0.409 0.083,-0.43C0.074,-0.451 0.069,-0.474 0.069,-0.501C0.069,-0.526 0.074,-0.549 0.083,-0.571C0.092,-0.593 0.106,-0.612 0.125,-0.629C0.144,-0.646 0.167,-0.659 0.195,-0.669C0.223,-0.679 0.255,-0.684 0.292,-0.684C0.325,-0.684 0.353,-0.681 0.377,-0.674C0.4,-0.667 0.42,-0.658 0.437,-0.648C0.454,-0.638 0.467,-0.628 0.477,-0.617C0.487,-0.606 0.495,-0.598 0.5,-0.591L0.436,-0.532C0.432,-0.537 0.426,-0.543 0.418,-0.551C0.41,-0.558 0.4,-0.566 0.388,-0.573C0.375,-0.58 0.361,-0.587 0.345,-0.592C0.328,-0.596 0.309,-0.599 0.288,-0.599C0.267,-0.599 0.248,-0.596 0.233,-0.591C0.218,-0.585 0.205,-0.578 0.195,-0.569C0.185,-0.56 0.178,-0.549 0.173,-0.538C0.168,-0.527 0.166,-0.515 0.166,-0.504C0.166,-0.487 0.169,-0.473 0.177,-0.462C0.184,-0.45 0.194,-0.44 0.207,-0.431C0.22,-0.422 0.237,-0.414 0.257,-0.408C0.276,-0.401 0.299,-0.395 0.324,-0.389C0.349,-0.383 0.373,-0.375 0.397,-0.366C0.42,-0.356 0.441,-0.343 0.46,-0.327C0.479,-0.31 0.494,-0.29 0.505,-0.267C0.516,-0.243 0.521,-0.214 0.521,-0.18C0.521,-0.151 0.515,-0.125 0.503,-0.101C0.491,-0.077 0.474,-0.056 0.454,-0.039C0.432,-0.021 0.408,-0.007 0.379,0.003C0.35,0.012 0.319,0.017 0.286,0.017C0.255,0.017 0.226,0.013 0.201,0.006C0.175,-0.001 0.152,-0.011 0.131,-0.022C0.11,-0.033 0.091,-0.046 0.076,-0.06C0.06,-0.073 0.047,-0.087 0.037,-0.1L0.105,-0.162Z" style="fill-rule:nonzero;"/>
            </g>
            <g transform="matrix(8,0,0,8,135.218,202.426)">
                <path d="M0.466,-0.064C0.445,-0.041 0.42,-0.022 0.39,-0.008C0.359,0.007 0.324,0.014 0.284,0.014C0.247,0.014 0.213,0.008 0.183,-0.005C0.152,-0.017 0.127,-0.034 0.106,-0.056C0.085,-0.077 0.068,-0.103 0.057,-0.134C0.046,-0.164 0.04,-0.197 0.04,-0.233C0.04,-0.267 0.046,-0.299 0.058,-0.329C0.07,-0.359 0.087,-0.385 0.109,-0.408C0.13,-0.43 0.156,-0.448 0.186,-0.461C0.215,-0.474 0.248,-0.48 0.284,-0.48C0.323,-0.48 0.358,-0.473 0.388,-0.459C0.418,-0.445 0.444,-0.426 0.465,-0.402L0.406,-0.345C0.392,-0.362 0.375,-0.376 0.355,-0.386C0.335,-0.396 0.311,-0.401 0.284,-0.401C0.26,-0.401 0.239,-0.397 0.22,-0.388C0.201,-0.379 0.185,-0.366 0.172,-0.351C0.159,-0.335 0.149,-0.317 0.142,-0.297C0.135,-0.276 0.131,-0.255 0.131,-0.233C0.131,-0.212 0.135,-0.191 0.142,-0.171C0.149,-0.15 0.159,-0.132 0.172,-0.117C0.185,-0.101 0.201,-0.088 0.22,-0.079C0.239,-0.07 0.26,-0.065 0.284,-0.065C0.311,-0.065 0.336,-0.07 0.358,-0.081C0.379,-0.091 0.397,-0.105 0.411,-0.122L0.466,-0.064Z" style="fill-rule:nonzero;"/>
            </g>
            <g transform="matrix(8,0,0,8,139.162,202.426)">
                <path d="M0.352,-0.22C0.349,-0.221 0.344,-0.222 0.337,-0.223C0.329,-0.224 0.32,-0.224 0.31,-0.225C0.3,-0.226 0.289,-0.226 0.278,-0.227C0.267,-0.228 0.256,-0.228 0.245,-0.228C0.22,-0.228 0.199,-0.225 0.184,-0.219C0.168,-0.213 0.156,-0.206 0.147,-0.197C0.137,-0.188 0.131,-0.178 0.128,-0.167C0.125,-0.156 0.123,-0.145 0.123,-0.135C0.123,-0.11 0.132,-0.091 0.149,-0.078C0.166,-0.065 0.19,-0.058 0.221,-0.058C0.238,-0.058 0.255,-0.061 0.271,-0.067C0.286,-0.073 0.3,-0.081 0.312,-0.091C0.324,-0.101 0.334,-0.113 0.341,-0.126C0.348,-0.139 0.352,-0.153 0.352,-0.167L0.352,-0.22ZM0.353,-0.056C0.336,-0.033 0.313,-0.015 0.285,-0.004C0.256,0.007 0.227,0.013 0.197,0.013C0.178,0.013 0.159,0.011 0.14,0.006C0.121,0 0.103,-0.008 0.088,-0.02C0.072,-0.031 0.059,-0.046 0.05,-0.065C0.04,-0.083 0.035,-0.105 0.035,-0.132C0.035,-0.182 0.053,-0.222 0.088,-0.252C0.123,-0.282 0.173,-0.297 0.239,-0.297C0.25,-0.297 0.261,-0.297 0.273,-0.296C0.285,-0.295 0.296,-0.295 0.307,-0.294C0.318,-0.293 0.327,-0.293 0.335,-0.292C0.343,-0.291 0.349,-0.291 0.352,-0.29L0.352,-0.307C0.352,-0.342 0.341,-0.367 0.321,-0.382C0.3,-0.397 0.271,-0.404 0.235,-0.404C0.2,-0.404 0.172,-0.399 0.151,-0.39C0.13,-0.38 0.113,-0.37 0.099,-0.36L0.057,-0.421C0.065,-0.428 0.075,-0.434 0.086,-0.441C0.097,-0.448 0.111,-0.454 0.126,-0.46C0.141,-0.465 0.159,-0.47 0.178,-0.474C0.197,-0.477 0.22,-0.479 0.245,-0.479C0.305,-0.479 0.352,-0.464 0.387,-0.436C0.421,-0.407 0.438,-0.365 0.438,-0.312L0.438,-0.042C0.438,-0.025 0.438,-0.011 0.439,-0L0.355,-0L0.353,-0.056Z" style="fill-rule:nonzero;"/>
            </g>
            <g transform="matrix(8,0,0,8,143.154,202.426)">
                <path d="M0.062,-0L0.062,-0.418C0.062,-0.432 0.062,-0.448 0.061,-0.465L0.147,-0.465L0.15,-0.395C0.156,-0.403 0.163,-0.412 0.172,-0.422C0.181,-0.431 0.191,-0.44 0.204,-0.448C0.217,-0.456 0.232,-0.463 0.249,-0.468C0.266,-0.473 0.285,-0.476 0.306,-0.476C0.367,-0.476 0.412,-0.458 0.441,-0.423C0.47,-0.388 0.485,-0.34 0.485,-0.279L0.485,-0L0.395,-0L0.395,-0.272C0.395,-0.315 0.386,-0.347 0.367,-0.368C0.348,-0.388 0.322,-0.398 0.288,-0.398C0.262,-0.398 0.24,-0.393 0.223,-0.382C0.206,-0.371 0.192,-0.358 0.182,-0.341C0.171,-0.324 0.164,-0.304 0.159,-0.283C0.154,-0.261 0.152,-0.239 0.152,-0.216L0.152,-0L0.062,-0Z" style="fill-rule:nonzero;"/>
            </g>
            <g transform="matrix(8,0,0,8,130.562,212.026)">
                <path d="M0.076,-0.667L0.299,-0.667C0.352,-0.667 0.4,-0.661 0.445,-0.648C0.489,-0.634 0.527,-0.614 0.559,-0.587C0.591,-0.559 0.616,-0.524 0.634,-0.482C0.652,-0.44 0.661,-0.39 0.661,-0.332C0.661,-0.276 0.652,-0.227 0.634,-0.186C0.616,-0.144 0.591,-0.109 0.559,-0.082C0.527,-0.054 0.489,-0.033 0.444,-0.02C0.399,-0.007 0.351,-0 0.298,-0L0.076,-0L0.076,-0.667ZM0.296,-0.086C0.379,-0.086 0.444,-0.107 0.491,-0.148C0.537,-0.189 0.56,-0.249 0.56,-0.33C0.56,-0.411 0.538,-0.474 0.493,-0.517C0.448,-0.56 0.382,-0.581 0.293,-0.581L0.172,-0.581L0.172,-0.086L0.296,-0.086Z" style="fill-rule:nonzero;"/>
            </g>
            <g transform="matrix(8,0,0,8,136.282,212.026)">
                <path d="M0.06,-0.649L0.161,-0.649L0.161,-0.548L0.06,-0.548L0.06,-0.649ZM0.066,-0.465L0.156,-0.465L0.156,-0L0.066,-0L0.066,-0.465Z" style="fill-rule:nonzero;"/>
            </g>
            <g transform="matrix(8,0,0,8,138.058,212.026)">
                <path d="M0.006,-0.465L0.109,-0.465L0.254,-0.102L0.398,-0.465L0.495,-0.465L0.296,-0L0.206,-0L0.006,-0.465Z" style="fill-rule:nonzero;"/>
            </g>
            <g transform="matrix(8,0,0,8,142.074,212.026)">
                <path d="M0.06,-0.649L0.161,-0.649L0.161,-0.548L0.06,-0.548L0.06,-0.649ZM0.066,-0.465L0.156,-0.465L0.156,-0L0.066,-0L0.066,-0.465Z" style="fill-rule:nonzero;"/>
            </g>
            <g transform="matrix(8,0,0,8,143.85,212.026)">
                <path d="M0.397,-0.362C0.39,-0.367 0.378,-0.375 0.36,-0.384C0.342,-0.393 0.316,-0.397 0.283,-0.397C0.261,-0.397 0.241,-0.393 0.223,-0.385C0.204,-0.377 0.188,-0.366 0.175,-0.351C0.161,-0.336 0.15,-0.318 0.143,-0.297C0.135,-0.276 0.131,-0.252 0.131,-0.225C0.131,-0.203 0.134,-0.182 0.139,-0.163C0.144,-0.143 0.153,-0.126 0.164,-0.111C0.174,-0.096 0.189,-0.085 0.206,-0.077C0.223,-0.068 0.243,-0.064 0.266,-0.064C0.289,-0.064 0.309,-0.068 0.326,-0.077C0.343,-0.086 0.356,-0.096 0.367,-0.11C0.377,-0.123 0.385,-0.137 0.39,-0.153C0.395,-0.168 0.397,-0.183 0.397,-0.196L0.397,-0.362ZM0.397,-0.059C0.394,-0.055 0.388,-0.049 0.381,-0.041C0.373,-0.032 0.363,-0.024 0.35,-0.016C0.337,-0.008 0.323,-0.001 0.306,0.005C0.289,0.011 0.269,0.014 0.246,0.014C0.217,0.014 0.189,0.008 0.164,-0.003C0.139,-0.014 0.117,-0.03 0.098,-0.051C0.079,-0.072 0.065,-0.097 0.055,-0.127C0.044,-0.156 0.039,-0.189 0.039,-0.226C0.039,-0.27 0.047,-0.308 0.062,-0.34C0.077,-0.371 0.097,-0.397 0.121,-0.418C0.144,-0.438 0.17,-0.453 0.198,-0.462C0.225,-0.471 0.251,-0.476 0.276,-0.476C0.309,-0.476 0.335,-0.472 0.354,-0.464C0.373,-0.456 0.387,-0.45 0.397,-0.446L0.397,-0.667L0.487,-0.667L0.487,-0.048C0.487,-0.033 0.487,-0.017 0.488,-0L0.4,-0L0.397,-0.059Z" style="fill-rule:nonzero;"/>
            </g>
            <g transform="matrix(8,0,0,8,148.25,212.026)">
                <path d="M0.486,-0.068C0.481,-0.062 0.473,-0.054 0.462,-0.045C0.451,-0.036 0.438,-0.027 0.421,-0.018C0.404,-0.009 0.384,-0.002 0.361,0.005C0.337,0.011 0.311,0.014 0.282,0.014C0.246,0.014 0.213,0.008 0.183,-0.004C0.153,-0.016 0.127,-0.033 0.106,-0.055C0.085,-0.077 0.068,-0.103 0.057,-0.134C0.045,-0.165 0.039,-0.199 0.039,-0.236C0.039,-0.27 0.045,-0.302 0.056,-0.332C0.067,-0.361 0.083,-0.387 0.104,-0.409C0.125,-0.43 0.149,-0.447 0.178,-0.46C0.206,-0.473 0.237,-0.479 0.271,-0.479C0.311,-0.479 0.345,-0.471 0.374,-0.456C0.403,-0.441 0.426,-0.42 0.445,-0.395C0.463,-0.37 0.476,-0.341 0.485,-0.308C0.494,-0.275 0.498,-0.241 0.498,-0.206L0.131,-0.206C0.132,-0.185 0.136,-0.166 0.145,-0.149C0.153,-0.132 0.164,-0.117 0.178,-0.104C0.192,-0.091 0.208,-0.081 0.226,-0.074C0.244,-0.067 0.263,-0.063 0.283,-0.063C0.322,-0.063 0.355,-0.07 0.38,-0.083C0.405,-0.096 0.424,-0.109 0.435,-0.122L0.486,-0.068ZM0.405,-0.273C0.402,-0.309 0.39,-0.34 0.367,-0.365C0.344,-0.39 0.312,-0.403 0.271,-0.403C0.25,-0.403 0.231,-0.399 0.214,-0.392C0.197,-0.385 0.182,-0.375 0.17,-0.363C0.158,-0.351 0.149,-0.337 0.142,-0.322C0.135,-0.306 0.132,-0.29 0.131,-0.273L0.405,-0.273Z" style="fill-rule:nonzero;"/>
            </g>
            <g transform="matrix(8,0,0,8,153.986,212.026)">
                <path d="M0.073,-0.36L0.234,-0.36L0.234,-0.517L0.312,-0.517L0.312,-0.36L0.472,-0.36L0.472,-0.282L0.313,-0.282L0.313,-0.125L0.234,-0.125L0.234,-0.282L0.073,-0.282L0.073,-0.36Z" style="fill-rule:nonzero;"/>
            </g>
            <g transform="matrix(8,0,0,8,159.794,212.026)">
                <path d="M0.105,-0.162C0.114,-0.151 0.125,-0.14 0.137,-0.13C0.148,-0.119 0.161,-0.109 0.176,-0.1C0.191,-0.091 0.207,-0.084 0.225,-0.079C0.243,-0.074 0.263,-0.071 0.284,-0.071C0.328,-0.071 0.362,-0.081 0.387,-0.101C0.412,-0.121 0.424,-0.148 0.424,-0.182C0.424,-0.219 0.41,-0.246 0.382,-0.265C0.354,-0.283 0.314,-0.298 0.261,-0.309C0.232,-0.315 0.206,-0.323 0.183,-0.334C0.16,-0.345 0.139,-0.358 0.123,-0.374C0.106,-0.39 0.092,-0.409 0.083,-0.43C0.074,-0.451 0.069,-0.474 0.069,-0.501C0.069,-0.526 0.074,-0.549 0.083,-0.571C0.092,-0.593 0.106,-0.612 0.125,-0.629C0.144,-0.646 0.167,-0.659 0.195,-0.669C0.223,-0.679 0.255,-0.684 0.292,-0.684C0.325,-0.684 0.353,-0.681 0.377,-0.674C0.4,-0.667 0.42,-0.658 0.437,-0.648C0.454,-0.638 0.467,-0.628 0.477,-0.617C0.487,-0.606 0.495,-0.598 0.5,-0.591L0.436,-0.532C0.432,-0.537 0.426,-0.543 0.418,-0.551C0.41,-0.558 0.4,-0.566 0.388,-0.573C0.375,-0.58 0.361,-0.587 0.345,-0.592C0.328,-0.596 0.309,-0.599 0.288,-0.599C0.267,-0.599 0.248,-0.596 0.233,-0.591C0.218,-0.585 0.205,-0.578 0.195,-0.569C0.185,-0.56 0.178,-0.549 0.173,-0.538C0.168,-0.527 0.166,-0.515 0.166,-0.504C0.166,-0.487 0.169,-0.473 0.177,-0.462C0.184,-0.45 0.194,-0.44 0.207,-0.431C0.22,-0.422 0.237,-0.414 0.257,-0.408C0.276,-0.401 0.299,-0.395 0.324,-0.389C0.349,-0.383 0.373,-0.375 0.397,-0.366C0.42,-0.356 0.441,-0.343 0.46,-0.327C0.479,-0.31 0.494,-0.29 0.505,-0.267C0.516,-0.243 0.521,-0.214 0.521,-0.18C0.521,-0.151 0.515,-0.125 0.503,-0.101C0.491,-0.077 0.474,-0.056 0.454,-0.039C0.432,-0.021 0.408,-0.007 0.379,0.003C0.35,0.012 0.319,0.017 0.286,0.017C0.255,0.017 0.226,0.013 0.201,0.006C0.175,-0.001 0.152,-0.011 0.131,-0.022C0.11,-0.033 0.091,-0.046 0.076,-0.06C0.06,-0.073 0.047,-0.087 0.037,-0.1L0.105,-0.162Z" style="fill-rule:nonzero;"/>
            </g>
            <g transform="matrix(8,0,0,8,164.45,212.026)">
                <path d="M0.466,-0.064C0.445,-0.041 0.42,-0.022 0.39,-0.008C0.359,0.007 0.324,0.014 0.284,0.014C0.247,0.014 0.213,0.008 0.183,-0.005C0.152,-0.017 0.127,-0.034 0.106,-0.056C0.085,-0.077 0.068,-0.103 0.057,-0.134C0.046,-0.164 0.04,-0.197 0.04,-0.233C0.04,-0.267 0.046,-0.299 0.058,-0.329C0.07,-0.359 0.087,-0.385 0.109,-0.408C0.13,-0.43 0.156,-0.448 0.186,-0.461C0.215,-0.474 0.248,-0.48 0.284,-0.48C0.323,-0.48 0.358,-0.473 0.388,-0.459C0.418,-0.445 0.444,-0.426 0.465,-0.402L0.406,-0.345C0.392,-0.362 0.375,-0.376 0.355,-0.386C0.335,-0.396 0.311,-0.401 0.284,-0.401C0.26,-0.401 0.239,-0.397 0.22,-0.388C0.201,-0.379 0.185,-0.366 0.172,-0.351C0.159,-0.335 0.149,-0.317 0.142,-0.297C0.135,-0.276 0.131,-0.255 0.131,-0.233C0.131,-0.212 0.135,-0.191 0.142,-0.171C0.149,-0.15 0.159,-0.132 0.172,-0.117C0.185,-0.101 0.201,-0.088 0.22,-0.079C0.239,-0.07 0.26,-0.065 0.284,-0.065C0.311,-0.065 0.336,-0.07 0.358,-0.081C0.379,-0.091 0.397,-0.105 0.411,-0.122L0.466,-0.064Z" style="fill-rule:nonzero;"/>
            </g>
            <g transform="matrix(8,0,0,8,168.394,212.026)">
                <path d="M0.352,-0.22C0.349,-0.221 0.344,-0.222 0.337,-0.223C0.329,-0.224 0.32,-0.224 0.31,-0.225C0.3,-0.226 0.289,-0.226 0.278,-0.227C0.267,-0.228 0.256,-0.228 0.245,-0.228C0.22,-0.228 0.199,-0.225 0.184,-0.219C0.168,-0.213 0.156,-0.206 0.147,-0.197C0.137,-0.188 0.131,-0.178 0.128,-0.167C0.125,-0.156 0.123,-0.145 0.123,-0.135C0.123,-0.11 0.132,-0.091 0.149,-0.078C0.166,-0.065 0.19,-0.058 0.221,-0.058C0.238,-0.058 0.255,-0.061 0.271,-0.067C0.286,-0.073 0.3,-0.081 0.312,-0.091C0.324,-0.101 0.334,-0.113 0.341,-0.126C0.348,-0.139 0.352,-0.153 0.352,-0.167L0.352,-0.22ZM0.353,-0.056C0.336,-0.033 0.313,-0.015 0.285,-0.004C0.256,0.007 0.227,0.013 0.197,0.013C0.178,0.013 0.159,0.011 0.14,0.006C0.121,0 0.103,-0.008 0.088,-0.02C0.072,-0.031 0.059,-0.046 0.05,-0.065C0.04,-0.083 0.035,-0.105 0.035,-0.132C0.035,-0.182 0.053,-0.222 0.088,-0.252C0.123,-0.282 0.173,-0.297 0.239,-0.297C0.25,-0.297 0.261,-0.297 0.273,-0.296C0.285,-0.295 0.296,-0.295 0.307,-0.294C0.318,-0.293 0.327,-0.293 0.335,-0.292C0.343,-0.291 0.349,-0.291 0.352,-0.29L0.352,-0.307C0.352,-0.342 0.341,-0.367 0.321,-0.382C0.3,-0.397 0.271,-0.404 0.235,-0.404C0.2,-0.404 0.172,-0.399 0.151,-0.39C0.13,-0.38 0.113,-0.37 0.099,-0.36L0.057,-0.421C0.065,-0.428 0.075,-0.434 0.086,-0.441C0.097,-0.448 0.111,-0.454 0.126,-0.46C0.141,-0.465 0.159,-0.47 0.178,-0.474C0.197,-0.477 0.22,-0.479 0.245,-0.479C0.305,-0.479 0.352,-0.464 0.387,-0.436C0.421,-0.407 0.438,-0.365 0.438,-0.312L0.438,-0.042C0.438,-0.025 0.438,-0.011 0.439,-0L0.355,-0L0.353,-0.056Z" style="fill-rule:nonzero;"/>
            </g>
            <g transform="matrix(8,0,0,8,172.386,212.026)">
                <path d="M0.062,-0L0.062,-0.418C0.062,-0.432 0.062,-0.448 0.061,-0.465L0.147,-0.465L0.15,-0.395C0.156,-0.403 0.163,-0.412 0.172,-0.422C0.181,-0.431 0.191,-0.44 0.204,-0.448C0.217,-0.456 0.232,-0.463 0.249,-0.468C0.266,-0.473 0.285,-0.476 0.306,-0.476C0.367,-0.476 0.412,-0.458 0.441,-0.423C0.47,-0.388 0.485,-0.34 0.485,-0.279L0.485,-0L0.395,-0L0.395,-0.272C0.395,-0.315 0.386,-0.347 0.367,-0.368C0.348,-0.388 0.322,-0.398 0.288,-0.398C0.262,-0.398 0.24,-0.393 0.223,-0.382C0.206,-0.371 0.192,-0.358 0.182,-0.341C0.171,-0.324 0.164,-0.304 0.159,-0.283C0.154,-0.261 0.152,-0.239 0.152,-0.216L0.152,-0L0.062,-0Z" style="fill-rule:nonzero;"/>
            </g>
            <g transform="matrix(8,0,0,8,130.562,221.626)">
                <path d="M0.105,-0.162C0.114,-0.151 0.125,-0.14 0.137,-0.13C0.148,-0.119 0.161,-0.109 0.176,-0.1C0.191,-0.091 0.207,-0.084 0.225,-0.079C0.243,-0.074 0.263,-0.071 0.284,-0.071C0.328,-0.071 0.362,-0.081 0.387,-0.101C0.412,-0.121 0.424,-0.148 0.424,-0.182C0.424,-0.219 0.41,-0.246 0.382,-0.265C0.354,-0.283 0.314,-0.298 0.261,-0.309C0.232,-0.315 0.206,-0.323 0.183,-0.334C0.16,-0.345 0.139,-0.358 0.123,-0.374C0.106,-0.39 0.092,-0.409 0.083,-0.43C0.074,-0.451 0.069,-0.474 0.069,-0.501C0.069,-0.526 0.074,-0.549 0.083,-0.571C0.092,-0.593 0.106,-0.612 0.125,-0.629C0.144,-0.646 0.167,-0.659 0.195,-0.669C0.223,-0.679 0.255,-0.684 0.292,-0.684C0.325,-0.684 0.353,-0.681 0.377,-0.674C0.4,-0.667 0.42,-0.658 0.437,-0.648C0.454,-0.638 0.467,-0.628 0.477,-0.617C0.487,-0.606 0.495,-0.598 0.5,-0.591L0.436,-0.532C0.432,-0.537 0.426,-0.543 0.418,-0.551C0.41,-0.558 0.4,-0.566 0.388,-0.573C0.375,-0.58 0.361,-0.587 0.345,-0.592C0.328,-0.596 0.309,-0.599 0.288,-0.599C0.267,-0.599 0.248,-0.596 0.233,-0.591C0.218,-0.585 0.205,-0.578 0.195,-0.569C0.185,-0.56 0.178,-0.549 0.173,-0.538C0.168,-0.527 0.166,-0.515 0.166,-0.504C0.166,-0.487 0.169,-0.473 0.177,-0.462C0.184,-0.45 0.194,-0.44 0.207,-0.431C0.22,-0.422 0.237,-0.414 0.257,-0.408C0.276,-0.401 0.299,-0.395 0.324,-0.389C0.349,-0.383 0.373,-0.375 0.397,-0.366C0.42,-0.356 0.441,-0.343 0.46,-0.327C0.479,-0.31 0.494,-0.29 0.505,-0.267C0.516,-0.243 0.521,-0.214 0.521,-0.18C0.521,-0.151 0.515,-0.125 0.503,-0.101C0.491,-0.077 0.474,-0.056 0.454,-0.039C0.432,-0.021 0.408,-0.007 0.379,0.003C0.35,0.012 0.319,0.017 0.286,0.017C0.255,0.017 0.226,0.013 0.201,0.006C0.175,-0.001 0.152,-0.011 0.131,-0.022C0.11,-0.033 0.091,-0.046 0.076,-0.06C0.06,-0.073 0.047,-0.087 0.037,-0.1L0.105,-0.162Z" style="fill-rule:nonzero;"/>
            </g>
            <g transform="matrix(8,0,0,8,134.938,221.626)">
                <path d="M0.102,-0.39L0.018,-0.39L0.018,-0.465L0.102,-0.465L0.102,-0.617L0.192,-0.617L0.192,-0.465L0.328,-0.465L0.328,-0.39L0.192,-0.39L0.192,-0.161C0.192,-0.124 0.198,-0.098 0.21,-0.084C0.221,-0.07 0.238,-0.063 0.259,-0.063C0.276,-0.063 0.291,-0.066 0.302,-0.071C0.313,-0.076 0.325,-0.084 0.336,-0.095L0.377,-0.04C0.358,-0.021 0.338,-0.008 0.318,0.001C0.297,0.009 0.273,0.013 0.245,0.013C0.196,0.013 0.16,-0 0.137,-0.027C0.114,-0.054 0.102,-0.095 0.102,-0.152L0.102,-0.39Z" style="fill-rule:nonzero;"/>
            </g>
            <g transform="matrix(8,0,0,8,138.01,221.626)">
                <path d="M0.486,-0.068C0.481,-0.062 0.473,-0.054 0.462,-0.045C0.451,-0.036 0.438,-0.027 0.421,-0.018C0.404,-0.009 0.384,-0.002 0.361,0.005C0.337,0.011 0.311,0.014 0.282,0.014C0.246,0.014 0.213,0.008 0.183,-0.004C0.153,-0.016 0.127,-0.033 0.106,-0.055C0.085,-0.077 0.068,-0.103 0.057,-0.134C0.045,-0.165 0.039,-0.199 0.039,-0.236C0.039,-0.27 0.045,-0.302 0.056,-0.332C0.067,-0.361 0.083,-0.387 0.104,-0.409C0.125,-0.43 0.149,-0.447 0.178,-0.46C0.206,-0.473 0.237,-0.479 0.271,-0.479C0.311,-0.479 0.345,-0.471 0.374,-0.456C0.403,-0.441 0.426,-0.42 0.445,-0.395C0.463,-0.37 0.476,-0.341 0.485,-0.308C0.494,-0.275 0.498,-0.241 0.498,-0.206L0.131,-0.206C0.132,-0.185 0.136,-0.166 0.145,-0.149C0.153,-0.132 0.164,-0.117 0.178,-0.104C0.192,-0.091 0.208,-0.081 0.226,-0.074C0.244,-0.067 0.263,-0.063 0.283,-0.063C0.322,-0.063 0.355,-0.07 0.38,-0.083C0.405,-0.096 0.424,-0.109 0.435,-0.122L0.486,-0.068ZM0.405,-0.273C0.402,-0.309 0.39,-0.34 0.367,-0.365C0.344,-0.39 0.312,-0.403 0.271,-0.403C0.25,-0.403 0.231,-0.399 0.214,-0.392C0.197,-0.385 0.182,-0.375 0.17,-0.363C0.158,-0.351 0.149,-0.337 0.142,-0.322C0.135,-0.306 0.132,-0.29 0.131,-0.273L0.405,-0.273Z" style="fill-rule:nonzero;"/>
            </g>
            <g transform="matrix(8,0,0,8,142.298,221.626)">
                <path d="M0.062,0.2L0.062,-0.418C0.062,-0.432 0.062,-0.448 0.061,-0.465L0.147,-0.465L0.15,-0.399C0.155,-0.405 0.161,-0.412 0.17,-0.421C0.179,-0.43 0.19,-0.438 0.203,-0.446C0.216,-0.454 0.231,-0.461 0.248,-0.467C0.265,-0.472 0.285,-0.475 0.308,-0.475C0.344,-0.475 0.375,-0.468 0.402,-0.455C0.428,-0.442 0.45,-0.424 0.467,-0.401C0.484,-0.378 0.497,-0.352 0.506,-0.323C0.514,-0.294 0.518,-0.263 0.518,-0.23C0.518,-0.188 0.511,-0.152 0.497,-0.121C0.482,-0.09 0.464,-0.065 0.441,-0.045C0.418,-0.025 0.392,-0.01 0.364,-0.001C0.335,0.009 0.307,0.014 0.28,0.014C0.249,0.014 0.224,0.011 0.205,0.005C0.186,-0.002 0.168,-0.009 0.151,-0.016L0.151,0.2L0.062,0.2ZM0.151,-0.101C0.162,-0.092 0.177,-0.084 0.197,-0.076C0.217,-0.068 0.242,-0.064 0.272,-0.064C0.295,-0.064 0.316,-0.068 0.335,-0.077C0.354,-0.085 0.37,-0.096 0.384,-0.112C0.397,-0.127 0.408,-0.144 0.415,-0.164C0.422,-0.184 0.426,-0.206 0.426,-0.23C0.426,-0.253 0.424,-0.274 0.419,-0.294C0.413,-0.314 0.406,-0.332 0.395,-0.347C0.384,-0.362 0.369,-0.375 0.352,-0.384C0.335,-0.393 0.313,-0.397 0.288,-0.397C0.256,-0.397 0.229,-0.388 0.206,-0.371C0.183,-0.353 0.167,-0.327 0.158,-0.293C0.155,-0.282 0.153,-0.271 0.152,-0.259C0.151,-0.246 0.151,-0.233 0.151,-0.22L0.151,-0.101Z" style="fill-rule:nonzero;"/>
            </g>
            <g transform="matrix(8,0,0,8,148.21,221.626)">
                <path d="M0.076,-0.667L0.495,-0.667L0.495,-0.581L0.172,-0.581L0.172,-0.377L0.418,-0.377L0.418,-0.292L0.172,-0.292L0.172,-0L0.076,-0L0.076,-0.667Z" style="fill-rule:nonzero;"/>
            </g>
            <g transform="matrix(8,0,0,8,151.882,221.626)">
                <path d="M0.286,0.014C0.25,0.014 0.217,0.008 0.187,-0.006C0.157,-0.019 0.131,-0.036 0.11,-0.059C0.088,-0.082 0.071,-0.108 0.059,-0.138C0.046,-0.167 0.04,-0.199 0.04,-0.233C0.04,-0.267 0.046,-0.299 0.059,-0.329C0.071,-0.358 0.088,-0.384 0.11,-0.407C0.131,-0.43 0.157,-0.448 0.187,-0.461C0.217,-0.474 0.25,-0.48 0.286,-0.48C0.321,-0.48 0.354,-0.474 0.384,-0.461C0.414,-0.448 0.44,-0.43 0.462,-0.407C0.484,-0.384 0.501,-0.358 0.514,-0.329C0.526,-0.299 0.532,-0.267 0.532,-0.233C0.532,-0.199 0.526,-0.167 0.514,-0.138C0.501,-0.108 0.484,-0.082 0.462,-0.059C0.44,-0.036 0.414,-0.019 0.384,-0.006C0.354,0.008 0.321,0.014 0.286,0.014ZM0.286,-0.064C0.31,-0.064 0.332,-0.069 0.351,-0.079C0.37,-0.088 0.387,-0.101 0.4,-0.117C0.413,-0.132 0.424,-0.15 0.431,-0.171C0.438,-0.191 0.441,-0.212 0.441,-0.233C0.441,-0.254 0.438,-0.274 0.431,-0.295C0.424,-0.315 0.413,-0.333 0.4,-0.349C0.386,-0.365 0.37,-0.378 0.351,-0.388C0.332,-0.397 0.31,-0.402 0.286,-0.402C0.262,-0.402 0.24,-0.397 0.221,-0.388C0.202,-0.378 0.185,-0.365 0.172,-0.35C0.159,-0.334 0.149,-0.316 0.142,-0.296C0.135,-0.275 0.131,-0.254 0.131,-0.233C0.131,-0.212 0.135,-0.191 0.142,-0.171C0.149,-0.151 0.159,-0.133 0.173,-0.117C0.186,-0.101 0.203,-0.088 0.222,-0.079C0.241,-0.069 0.262,-0.064 0.286,-0.064Z" style="fill-rule:nonzero;"/>
            </g>
            <g transform="matrix(8,0,0,8,156.458,221.626)">
                <path d="M0.062,-0L0.062,-0.421C0.062,-0.435 0.062,-0.45 0.061,-0.465L0.147,-0.465L0.15,-0.39C0.155,-0.398 0.162,-0.407 0.171,-0.417C0.18,-0.426 0.19,-0.435 0.203,-0.443C0.215,-0.451 0.229,-0.458 0.246,-0.464C0.262,-0.469 0.281,-0.472 0.302,-0.472C0.312,-0.472 0.321,-0.471 0.33,-0.47C0.338,-0.469 0.346,-0.467 0.353,-0.464L0.333,-0.38C0.321,-0.385 0.306,-0.387 0.287,-0.387C0.268,-0.387 0.25,-0.383 0.234,-0.376C0.217,-0.369 0.203,-0.359 0.191,-0.346C0.179,-0.333 0.17,-0.317 0.163,-0.3C0.156,-0.283 0.152,-0.264 0.152,-0.245L0.152,-0L0.062,-0Z" style="fill-rule:nonzero;"/>
            </g>
            <g transform="matrix(8,0,0,8,159.37,221.626)">
                <path d="M0.011,-0.465L0.11,-0.465L0.214,-0.11L0.326,-0.465L0.403,-0.465L0.515,-0.107L0.617,-0.465L0.71,-0.465L0.556,-0L0.467,-0L0.359,-0.325L0.252,-0L0.168,-0L0.011,-0.465Z" style="fill-rule:nonzero;"/>
            </g>
            <g transform="matrix(8,0,0,8,165.066,221.626)">
                <path d="M0.352,-0.22C0.349,-0.221 0.344,-0.222 0.337,-0.223C0.329,-0.224 0.32,-0.224 0.31,-0.225C0.3,-0.226 0.289,-0.226 0.278,-0.227C0.267,-0.228 0.256,-0.228 0.245,-0.228C0.22,-0.228 0.199,-0.225 0.184,-0.219C0.168,-0.213 0.156,-0.206 0.147,-0.197C0.137,-0.188 0.131,-0.178 0.128,-0.167C0.125,-0.156 0.123,-0.145 0.123,-0.135C0.123,-0.11 0.132,-0.091 0.149,-0.078C0.166,-0.065 0.19,-0.058 0.221,-0.058C0.238,-0.058 0.255,-0.061 0.271,-0.067C0.286,-0.073 0.3,-0.081 0.312,-0.091C0.324,-0.101 0.334,-0.113 0.341,-0.126C0.348,-0.139 0.352,-0.153 0.352,-0.167L0.352,-0.22ZM0.353,-0.056C0.336,-0.033 0.313,-0.015 0.285,-0.004C0.256,0.007 0.227,0.013 0.197,0.013C0.178,0.013 0.159,0.011 0.14,0.006C0.121,0 0.103,-0.008 0.088,-0.02C0.072,-0.031 0.059,-0.046 0.05,-0.065C0.04,-0.083 0.035,-0.105 0.035,-0.132C0.035,-0.182 0.053,-0.222 0.088,-0.252C0.123,-0.282 0.173,-0.297 0.239,-0.297C0.25,-0.297 0.261,-0.297 0.273,-0.296C0.285,-0.295 0.296,-0.295 0.307,-0.294C0.318,-0.293 0.327,-0.293 0.335,-0.292C0.343,-0.291 0.349,-0.291 0.352,-0.29L0.352,-0.307C0.352,-0.342 0.341,-0.367 0.321,-0.382C0.3,-0.397 0.271,-0.404 0.235,-0.404C0.2,-0.404 0.172,-0.399 0.151,-0.39C0.13,-0.38 0.113,-0.37 0.099,-0.36L0.057,-0.421C0.065,-0.428 0.075,-0.434 0.086,-0.441C0.097,-0.448 0.111,-0.454 0.126,-0.46C0.141,-0.465 0.159,-0.47 0.178,-0.474C0.197,-0.477 0.22,-0.479 0.245,-0.479C0.305,-0.479 0.352,-0.464 0.387,-0.436C0.421,-0.407 0.438,-0.365 0.438,-0.312L0.438,-0.042C0.438,-0.025 0.438,-0.011 0.439,-0L0.355,-0L0.353,-0.056Z" style="fill-rule:nonzero;"/>
            </g>
            <g transform="matrix(8,0,0,8,169.058,221.626)">
                <path d="M0.062,-0L0.062,-0.421C0.062,-0.435 0.062,-0.45 0.061,-0.465L0.147,-0.465L0.15,-0.39C0.155,-0.398 0.162,-0.407 0.171,-0.417C0.18,-0.426 0.19,-0.435 0.203,-0.443C0.215,-0.451 0.229,-0.458 0.246,-0.464C0.262,-0.469 0.281,-0.472 0.302,-0.472C0.312,-0.472 0.321,-0.471 0.33,-0.47C0.338,-0.469 0.346,-0.467 0.353,-0.464L0.333,-0.38C0.321,-0.385 0.306,-0.387 0.287,-0.387C0.268,-0.387 0.25,-0.383 0.234,-0.376C0.217,-0.369 0.203,-0.359 0.191,-0.346C0.179,-0.333 0.17,-0.317 0.163,-0.3C0.156,-0.283 0.152,-0.264 0.152,-0.245L0.152,-0L0.062,-0Z" style="fill-rule:nonzero;"/>
            </g>
            <g transform="matrix(8,0,0,8,171.97,221.626)">
                <path d="M0.397,-0.362C0.39,-0.367 0.378,-0.375 0.36,-0.384C0.342,-0.393 0.316,-0.397 0.283,-0.397C0.261,-0.397 0.241,-0.393 0.223,-0.385C0.204,-0.377 0.188,-0.366 0.175,-0.351C0.161,-0.336 0.15,-0.318 0.143,-0.297C0.135,-0.276 0.131,-0.252 0.131,-0.225C0.131,-0.203 0.134,-0.182 0.139,-0.163C0.144,-0.143 0.153,-0.126 0.164,-0.111C0.174,-0.096 0.189,-0.085 0.206,-0.077C0.223,-0.068 0.243,-0.064 0.266,-0.064C0.289,-0.064 0.309,-0.068 0.326,-0.077C0.343,-0.086 0.356,-0.096 0.367,-0.11C0.377,-0.123 0.385,-0.137 0.39,-0.153C0.395,-0.168 0.397,-0.183 0.397,-0.196L0.397,-0.362ZM0.397,-0.059C0.394,-0.055 0.388,-0.049 0.381,-0.041C0.373,-0.032 0.363,-0.024 0.35,-0.016C0.337,-0.008 0.323,-0.001 0.306,0.005C0.289,0.011 0.269,0.014 0.246,0.014C0.217,0.014 0.189,0.008 0.164,-0.003C0.139,-0.014 0.117,-0.03 0.098,-0.051C0.079,-0.072 0.065,-0.097 0.055,-0.127C0.044,-0.156 0.039,-0.189 0.039,-0.226C0.039,-0.27 0.047,-0.308 0.062,-0.34C0.077,-0.371 0.097,-0.397 0.121,-0.418C0.144,-0.438 0.17,-0.453 0.198,-0.462C0.225,-0.471 0.251,-0.476 0.276,-0.476C0.309,-0.476 0.335,-0.472 0.354,-0.464C0.373,-0.456 0.387,-0.45 0.397,-0.446L0.397,-0.667L0.487,-0.667L0.487,-0.048C0.487,-0.033 0.487,-0.017 0.488,-0L0.4,-0L0.397,-0.059Z" style="fill-rule:nonzero;"/>
            </g>
            <g transform="matrix(8,0,0,8,176.37,221.626)">
                <path d="M0.092,-0.117C0.109,-0.1 0.129,-0.087 0.152,-0.077C0.175,-0.067 0.202,-0.062 0.233,-0.062C0.263,-0.062 0.288,-0.067 0.308,-0.077C0.328,-0.086 0.338,-0.101 0.338,-0.122C0.338,-0.133 0.336,-0.142 0.332,-0.15C0.327,-0.157 0.32,-0.164 0.31,-0.17C0.299,-0.176 0.286,-0.182 0.269,-0.187C0.252,-0.192 0.23,-0.197 0.205,-0.203C0.187,-0.207 0.169,-0.212 0.152,-0.219C0.134,-0.226 0.118,-0.235 0.104,-0.246C0.09,-0.257 0.079,-0.27 0.07,-0.286C0.061,-0.301 0.057,-0.32 0.057,-0.342C0.057,-0.365 0.062,-0.385 0.073,-0.402C0.083,-0.419 0.097,-0.433 0.114,-0.445C0.131,-0.456 0.151,-0.465 0.173,-0.471C0.194,-0.477 0.217,-0.48 0.24,-0.48C0.279,-0.48 0.313,-0.475 0.342,-0.465C0.37,-0.454 0.395,-0.44 0.416,-0.421L0.367,-0.359C0.353,-0.372 0.335,-0.382 0.315,-0.391C0.294,-0.4 0.269,-0.404 0.241,-0.404C0.212,-0.404 0.189,-0.399 0.172,-0.39C0.155,-0.381 0.146,-0.365 0.146,-0.344C0.146,-0.324 0.158,-0.309 0.181,-0.3C0.204,-0.29 0.234,-0.281 0.271,-0.272C0.293,-0.267 0.314,-0.261 0.333,-0.254C0.352,-0.247 0.368,-0.238 0.383,-0.227C0.397,-0.216 0.408,-0.202 0.417,-0.186C0.425,-0.17 0.429,-0.151 0.429,-0.128C0.429,-0.105 0.424,-0.084 0.413,-0.067C0.402,-0.049 0.388,-0.034 0.37,-0.022C0.352,-0.01 0.331,-0.001 0.308,0.005C0.285,0.011 0.26,0.014 0.235,0.014C0.147,0.014 0.081,-0.01 0.037,-0.057L0.092,-0.117Z" style="fill-rule:nonzero;"/>
            </g>
            <g transform="matrix(8,0,0,8,130.562,231.226)">
                <path d="M0.105,-0.162C0.114,-0.151 0.125,-0.14 0.137,-0.13C0.148,-0.119 0.161,-0.109 0.176,-0.1C0.191,-0.091 0.207,-0.084 0.225,-0.079C0.243,-0.074 0.263,-0.071 0.284,-0.071C0.328,-0.071 0.362,-0.081 0.387,-0.101C0.412,-0.121 0.424,-0.148 0.424,-0.182C0.424,-0.219 0.41,-0.246 0.382,-0.265C0.354,-0.283 0.314,-0.298 0.261,-0.309C0.232,-0.315 0.206,-0.323 0.183,-0.334C0.16,-0.345 0.139,-0.358 0.123,-0.374C0.106,-0.39 0.092,-0.409 0.083,-0.43C0.074,-0.451 0.069,-0.474 0.069,-0.501C0.069,-0.526 0.074,-0.549 0.083,-0.571C0.092,-0.593 0.106,-0.612 0.125,-0.629C0.144,-0.646 0.167,-0.659 0.195,-0.669C0.223,-0.679 0.255,-0.684 0.292,-0.684C0.325,-0.684 0.353,-0.681 0.377,-0.674C0.4,-0.667 0.42,-0.658 0.437,-0.648C0.454,-0.638 0.467,-0.628 0.477,-0.617C0.487,-0.606 0.495,-0.598 0.5,-0.591L0.436,-0.532C0.432,-0.537 0.426,-0.543 0.418,-0.551C0.41,-0.558 0.4,-0.566 0.388,-0.573C0.375,-0.58 0.361,-0.587 0.345,-0.592C0.328,-0.596 0.309,-0.599 0.288,-0.599C0.267,-0.599 0.248,-0.596 0.233,-0.591C0.218,-0.585 0.205,-0.578 0.195,-0.569C0.185,-0.56 0.178,-0.549 0.173,-0.538C0.168,-0.527 0.166,-0.515 0.166,-0.504C0.166,-0.487 0.169,-0.473 0.177,-0.462C0.184,-0.45 0.194,-0.44 0.207,-0.431C0.22,-0.422 0.237,-0.414 0.257,-0.408C0.276,-0.401 0.299,-0.395 0.324,-0.389C0.349,-0.383 0.373,-0.375 0.397,-0.366C0.42,-0.356 0.441,-0.343 0.46,-0.327C0.479,-0.31 0.494,-0.29 0.505,-0.267C0.516,-0.243 0.521,-0.214 0.521,-0.18C0.521,-0.151 0.515,-0.125 0.503,-0.101C0.491,-0.077 0.474,-0.056 0.454,-0.039C0.432,-0.021 0.408,-0.007 0.379,0.003C0.35,0.012 0.319,0.017 0.286,0.017C0.255,0.017 0.226,0.013 0.201,0.006C0.175,-0.001 0.152,-0.011 0.131,-0.022C0.11,-0.033 0.091,-0.046 0.076,-0.06C0.06,-0.073 0.047,-0.087 0.037,-0.1L0.105,-0.162Z" style="fill-rule:nonzero;"/>
            </g>
            <g transform="matrix(8,0,0,8,134.938,231.226)">
                <path d="M0.102,-0.39L0.018,-0.39L0.018,-0.465L0.102,-0.465L0.102,-0.617L0.192,-0.617L0.192,-0.465L0.328,-0.465L0.328,-0.39L0.192,-0.39L0.192,-0.161C0.192,-0.124 0.198,-0.098 0.21,-0.084C0.221,-0.07 0.238,-0.063 0.259,-0.063C0.276,-0.063 0.291,-0.066 0.302,-0.071C0.313,-0.076 0.325,-0.084 0.336,-0.095L0.377,-0.04C0.358,-0.021 0.338,-0.008 0.318,0.001C0.297,0.009 0.273,0.013 0.245,0.013C0.196,0.013 0.16,-0 0.137,-0.027C0.114,-0.054 0.102,-0.095 0.102,-0.152L0.102,-0.39Z" style="fill-rule:nonzero;"/>
            </g>
            <g transform="matrix(8,0,0,8,138.01,231.226)">
                <path d="M0.486,-0.068C0.481,-0.062 0.473,-0.054 0.462,-0.045C0.451,-0.036 0.438,-0.027 0.421,-0.018C0.404,-0.009 0.384,-0.002 0.361,0.005C0.337,0.011 0.311,0.014 0.282,0.014C0.246,0.014 0.213,0.008 0.183,-0.004C0.153,-0.016 0.127,-0.033 0.106,-0.055C0.085,-0.077 0.068,-0.103 0.057,-0.134C0.045,-0.165 0.039,-0.199 0.039,-0.236C0.039,-0.27 0.045,-0.302 0.056,-0.332C0.067,-0.361 0.083,-0.387 0.104,-0.409C0.125,-0.43 0.149,-0.447 0.178,-0.46C0.206,-0.473 0.237,-0.479 0.271,-0.479C0.311,-0.479 0.345,-0.471 0.374,-0.456C0.403,-0.441 0.426,-0.42 0.445,-0.395C0.463,-0.37 0.476,-0.341 0.485,-0.308C0.494,-0.275 0.498,-0.241 0.498,-0.206L0.131,-0.206C0.132,-0.185 0.136,-0.166 0.145,-0.149C0.153,-0.132 0.164,-0.117 0.178,-0.104C0.192,-0.091 0.208,-0.081 0.226,-0.074C0.244,-0.067 0.263,-0.063 0.283,-0.063C0.322,-0.063 0.355,-0.07 0.38,-0.083C0.405,-0.096 0.424,-0.109 0.435,-0.122L0.486,-0.068ZM0.405,-0.273C0.402,-0.309 0.39,-0.34 0.367,-0.365C0.344,-0.39 0.312,-0.403 0.271,-0.403C0.25,-0.403 0.231,-0.399 0.214,-0.392C0.197,-0.385 0.182,-0.375 0.17,-0.363C0.158,-0.351 0.149,-0.337 0.142,-0.322C0.135,-0.306 0.132,-0.29 0.131,-0.273L0.405,-0.273Z" style="fill-rule:nonzero;"/>
            </g>
            <g transform="matrix(8,0,0,8,142.298,231.226)">
                <path d="M0.062,0.2L0.062,-0.418C0.062,-0.432 0.062,-0.448 0.061,-0.465L0.147,-0.465L0.15,-0.399C0.155,-0.405 0.161,-0.412 0.17,-0.421C0.179,-0.43 0.19,-0.438 0.203,-0.446C0.216,-0.454 0.231,-0.461 0.248,-0.467C0.265,-0.472 0.285,-0.475 0.308,-0.475C0.344,-0.475 0.375,-0.468 0.402,-0.455C0.428,-0.442 0.45,-0.424 0.467,-0.401C0.484,-0.378 0.497,-0.352 0.506,-0.323C0.514,-0.294 0.518,-0.263 0.518,-0.23C0.518,-0.188 0.511,-0.152 0.497,-0.121C0.482,-0.09 0.464,-0.065 0.441,-0.045C0.418,-0.025 0.392,-0.01 0.364,-0.001C0.335,0.009 0.307,0.014 0.28,0.014C0.249,0.014 0.224,0.011 0.205,0.005C0.186,-0.002 0.168,-0.009 0.151,-0.016L0.151,0.2L0.062,0.2ZM0.151,-0.101C0.162,-0.092 0.177,-0.084 0.197,-0.076C0.217,-0.068 0.242,-0.064 0.272,-0.064C0.295,-0.064 0.316,-0.068 0.335,-0.077C0.354,-0.085 0.37,-0.096 0.384,-0.112C0.397,-0.127 0.408,-0.144 0.415,-0.164C0.422,-0.184 0.426,-0.206 0.426,-0.23C0.426,-0.253 0.424,-0.274 0.419,-0.294C0.413,-0.314 0.406,-0.332 0.395,-0.347C0.384,-0.362 0.369,-0.375 0.352,-0.384C0.335,-0.393 0.313,-0.397 0.288,-0.397C0.256,-0.397 0.229,-0.388 0.206,-0.371C0.183,-0.353 0.167,-0.327 0.158,-0.293C0.155,-0.282 0.153,-0.271 0.152,-0.259C0.151,-0.246 0.151,-0.233 0.151,-0.22L0.151,-0.101Z" style="fill-rule:nonzero;"/>
            </g>
            <g transform="matrix(8,0,0,8,148.21,231.226)">
                <path d="M0.076,-0.667L0.302,-0.667C0.337,-0.667 0.367,-0.663 0.392,-0.654C0.417,-0.645 0.438,-0.632 0.455,-0.617C0.472,-0.602 0.484,-0.584 0.493,-0.563C0.501,-0.542 0.505,-0.52 0.505,-0.497C0.505,-0.476 0.501,-0.456 0.494,-0.439C0.486,-0.422 0.476,-0.407 0.466,-0.395C0.455,-0.383 0.443,-0.373 0.43,-0.366C0.417,-0.359 0.405,-0.354 0.394,-0.353C0.408,-0.351 0.424,-0.347 0.441,-0.341C0.458,-0.334 0.473,-0.325 0.488,-0.312C0.503,-0.299 0.515,-0.283 0.525,-0.263C0.535,-0.242 0.54,-0.217 0.54,-0.187C0.54,-0.151 0.534,-0.121 0.521,-0.098C0.507,-0.074 0.49,-0.055 0.468,-0.04C0.445,-0.025 0.419,-0.015 0.388,-0.009C0.357,-0.003 0.325,-0 0.29,-0L0.076,-0L0.076,-0.667ZM0.288,-0.389C0.303,-0.389 0.317,-0.391 0.332,-0.395C0.347,-0.398 0.36,-0.404 0.372,-0.412C0.384,-0.42 0.394,-0.43 0.401,-0.443C0.408,-0.456 0.412,-0.471 0.412,-0.489C0.412,-0.509 0.408,-0.525 0.401,-0.538C0.394,-0.55 0.384,-0.56 0.372,-0.567C0.36,-0.574 0.347,-0.578 0.332,-0.581C0.317,-0.583 0.303,-0.584 0.288,-0.584L0.169,-0.584L0.169,-0.389L0.288,-0.389ZM0.285,-0.083C0.302,-0.083 0.32,-0.084 0.339,-0.086C0.358,-0.088 0.375,-0.093 0.391,-0.1C0.406,-0.107 0.419,-0.118 0.429,-0.133C0.439,-0.147 0.444,-0.167 0.444,-0.192C0.444,-0.216 0.439,-0.235 0.43,-0.25C0.42,-0.265 0.408,-0.276 0.393,-0.285C0.378,-0.294 0.361,-0.3 0.343,-0.303C0.325,-0.306 0.308,-0.307 0.291,-0.307L0.169,-0.307L0.169,-0.083L0.285,-0.083Z" style="fill-rule:nonzero;"/>
            </g>
            <g transform="matrix(8,0,0,8,152.89,231.226)">
                <path d="M0.352,-0.22C0.349,-0.221 0.344,-0.222 0.337,-0.223C0.329,-0.224 0.32,-0.224 0.31,-0.225C0.3,-0.226 0.289,-0.226 0.278,-0.227C0.267,-0.228 0.256,-0.228 0.245,-0.228C0.22,-0.228 0.199,-0.225 0.184,-0.219C0.168,-0.213 0.156,-0.206 0.147,-0.197C0.137,-0.188 0.131,-0.178 0.128,-0.167C0.125,-0.156 0.123,-0.145 0.123,-0.135C0.123,-0.11 0.132,-0.091 0.149,-0.078C0.166,-0.065 0.19,-0.058 0.221,-0.058C0.238,-0.058 0.255,-0.061 0.271,-0.067C0.286,-0.073 0.3,-0.081 0.312,-0.091C0.324,-0.101 0.334,-0.113 0.341,-0.126C0.348,-0.139 0.352,-0.153 0.352,-0.167L0.352,-0.22ZM0.353,-0.056C0.336,-0.033 0.313,-0.015 0.285,-0.004C0.256,0.007 0.227,0.013 0.197,0.013C0.178,0.013 0.159,0.011 0.14,0.006C0.121,0 0.103,-0.008 0.088,-0.02C0.072,-0.031 0.059,-0.046 0.05,-0.065C0.04,-0.083 0.035,-0.105 0.035,-0.132C0.035,-0.182 0.053,-0.222 0.088,-0.252C0.123,-0.282 0.173,-0.297 0.239,-0.297C0.25,-0.297 0.261,-0.297 0.273,-0.296C0.285,-0.295 0.296,-0.295 0.307,-0.294C0.318,-0.293 0.327,-0.293 0.335,-0.292C0.343,-0.291 0.349,-0.291 0.352,-0.29L0.352,-0.307C0.352,-0.342 0.341,-0.367 0.321,-0.382C0.3,-0.397 0.271,-0.404 0.235,-0.404C0.2,-0.404 0.172,-0.399 0.151,-0.39C0.13,-0.38 0.113,-0.37 0.099,-0.36L0.057,-0.421C0.065,-0.428 0.075,-0.434 0.086,-0.441C0.097,-0.448 0.111,-0.454 0.126,-0.46C0.141,-0.465 0.159,-0.47 0.178,-0.474C0.197,-0.477 0.22,-0.479 0.245,-0.479C0.305,-0.479 0.352,-0.464 0.387,-0.436C0.421,-0.407 0.438,-0.365 0.438,-0.312L0.438,-0.042C0.438,-0.025 0.438,-0.011 0.439,-0L0.355,-0L0.353,-0.056Z" style="fill-rule:nonzero;"/>
            </g>
            <g transform="matrix(8,0,0,8,156.882,231.226)">
                <path d="M0.466,-0.064C0.445,-0.041 0.42,-0.022 0.39,-0.008C0.359,0.007 0.324,0.014 0.284,0.014C0.247,0.014 0.213,0.008 0.183,-0.005C0.152,-0.017 0.127,-0.034 0.106,-0.056C0.085,-0.077 0.068,-0.103 0.057,-0.134C0.046,-0.164 0.04,-0.197 0.04,-0.233C0.04,-0.267 0.046,-0.299 0.058,-0.329C0.07,-0.359 0.087,-0.385 0.109,-0.408C0.13,-0.43 0.156,-0.448 0.186,-0.461C0.215,-0.474 0.248,-0.48 0.284,-0.48C0.323,-0.48 0.358,-0.473 0.388,-0.459C0.418,-0.445 0.444,-0.426 0.465,-0.402L0.406,-0.345C0.392,-0.362 0.375,-0.376 0.355,-0.386C0.335,-0.396 0.311,-0.401 0.284,-0.401C0.26,-0.401 0.239,-0.397 0.22,-0.388C0.201,-0.379 0.185,-0.366 0.172,-0.351C0.159,-0.335 0.149,-0.317 0.142,-0.297C0.135,-0.276 0.131,-0.255 0.131,-0.233C0.131,-0.212 0.135,-0.191 0.142,-0.171C0.149,-0.15 0.159,-0.132 0.172,-0.117C0.185,-0.101 0.201,-0.088 0.22,-0.079C0.239,-0.07 0.26,-0.065 0.284,-0.065C0.311,-0.065 0.336,-0.07 0.358,-0.081C0.379,-0.091 0.397,-0.105 0.411,-0.122L0.466,-0.064Z" style="fill-rule:nonzero;"/>
            </g>
            <g transform="matrix(8,0,0,8,160.826,231.226)">
                <path d="M0.061,-0.667L0.151,-0.667L0.151,-0.274L0.346,-0.465L0.454,-0.465L0.278,-0.293L0.48,-0L0.373,-0L0.215,-0.233L0.151,-0.171L0.151,-0L0.061,-0L0.061,-0.667Z" style="fill-rule:nonzero;"/>
            </g>
            <g transform="matrix(8,0,0,8,164.738,231.226)">
                <path d="M0.011,-0.465L0.11,-0.465L0.214,-0.11L0.326,-0.465L0.403,-0.465L0.515,-0.107L0.617,-0.465L0.71,-0.465L0.556,-0L0.467,-0L0.359,-0.325L0.252,-0L0.168,-0L0.011,-0.465Z" style="fill-rule:nonzero;"/>
            </g>
            <g transform="matrix(8,0,0,8,170.434,231.226)">
                <path d="M0.352,-0.22C0.349,-0.221 0.344,-0.222 0.337,-0.223C0.329,-0.224 0.32,-0.224 0.31,-0.225C0.3,-0.226 0.289,-0.226 0.278,-0.227C0.267,-0.228 0.256,-0.228 0.245,-0.228C0.22,-0.228 0.199,-0.225 0.184,-0.219C0.168,-0.213 0.156,-0.206 0.147,-0.197C0.137,-0.188 0.131,-0.178 0.128,-0.167C0.125,-0.156 0.123,-0.145 0.123,-0.135C0.123,-0.11 0.132,-0.091 0.149,-0.078C0.166,-0.065 0.19,-0.058 0.221,-0.058C0.238,-0.058 0.255,-0.061 0.271,-0.067C0.286,-0.073 0.3,-0.081 0.312,-0.091C0.324,-0.101 0.334,-0.113 0.341,-0.126C0.348,-0.139 0.352,-0.153 0.352,-0.167L0.352,-0.22ZM0.353,-0.056C0.336,-0.033 0.313,-0.015 0.285,-0.004C0.256,0.007 0.227,0.013 0.197,0.013C0.178,0.013 0.159,0.011 0.14,0.006C0.121,0 0.103,-0.008 0.088,-0.02C0.072,-0.031 0.059,-0.046 0.05,-0.065C0.04,-0.083 0.035,-0.105 0.035,-0.132C0.035,-0.182 0.053,-0.222 0.088,-0.252C0.123,-0.282 0.173,-0.297 0.239,-0.297C0.25,-0.297 0.261,-0.297 0.273,-0.296C0.285,-0.295 0.296,-0.295 0.307,-0.294C0.318,-0.293 0.327,-0.293 0.335,-0.292C0.343,-0.291 0.349,-0.291 0.352,-0.29L0.352,-0.307C0.352,-0.342 0.341,-0.367 0.321,-0.382C0.3,-0.397 0.271,-0.404 0.235,-0.404C0.2,-0.404 0.172,-0.399 0.151,-0.39C0.13,-0.38 0.113,-0.37 0.099,-0.36L0.057,-0.421C0.065,-0.428 0.075,-0.434 0.086,-0.441C0.097,-0.448 0.111,-0.454 0.126,-0.46C0.141,-0.465 0.159,-0.47 0.178,-0.474C0.197,-0.477 0.22,-0.479 0.245,-0.479C0.305,-0.479 0.352,-0.464 0.387,-0.436C0.421,-0.407 0.438,-0.365 0.438,-0.312L0.438,-0.042C0.438,-0.025 0.438,-0.011 0.439,-0L0.355,-0L0.353,-0.056Z" style="fill-rule:nonzero;"/>
            </g>
            <g transform="matrix(8,0,0,8,174.426,231.226)">
                <path d="M0.062,-0L0.062,-0.421C0.062,-0.435 0.062,-0.45 0.061,-0.465L0.147,-0.465L0.15,-0.39C0.155,-0.398 0.162,-0.407 0.171,-0.417C0.18,-0.426 0.19,-0.435 0.203,-0.443C0.215,-0.451 0.229,-0.458 0.246,-0.464C0.262,-0.469 0.281,-0.472 0.302,-0.472C0.312,-0.472 0.321,-0.471 0.33,-0.47C0.338,-0.469 0.346,-0.467 0.353,-0.464L0.333,-0.38C0.321,-0.385 0.306,-0.387 0.287,-0.387C0.268,-0.387 0.25,-0.383 0.234,-0.376C0.217,-0.369 0.203,-0.359 0.191,-0.346C0.179,-0.333 0.17,-0.317 0.163,-0.3C0.156,-0.283 0.152,-0.264 0.152,-0.245L0.152,-0L0.062,-0Z" style="fill-rule:nonzero;"/>
            </g>
            <g transform="matrix(8,0,0,8,177.338,231.226)">
                <path d="M0.397,-0.362C0.39,-0.367 0.378,-0.375 0.36,-0.384C0.342,-0.393 0.316,-0.397 0.283,-0.397C0.261,-0.397 0.241,-0.393 0.223,-0.385C0.204,-0.377 0.188,-0.366 0.175,-0.351C0.161,-0.336 0.15,-0.318 0.143,-0.297C0.135,-0.276 0.131,-0.252 0.131,-0.225C0.131,-0.203 0.134,-0.182 0.139,-0.163C0.144,-0.143 0.153,-0.126 0.164,-0.111C0.174,-0.096 0.189,-0.085 0.206,-0.077C0.223,-0.068 0.243,-0.064 0.266,-0.064C0.289,-0.064 0.309,-0.068 0.326,-0.077C0.343,-0.086 0.356,-0.096 0.367,-0.11C0.377,-0.123 0.385,-0.137 0.39,-0.153C0.395,-0.168 0.397,-0.183 0.397,-0.196L0.397,-0.362ZM0.397,-0.059C0.394,-0.055 0.388,-0.049 0.381,-0.041C0.373,-0.032 0.363,-0.024 0.35,-0.016C0.337,-0.008 0.323,-0.001 0.306,0.005C0.289,0.011 0.269,0.014 0.246,0.014C0.217,0.014 0.189,0.008 0.164,-0.003C0.139,-0.014 0.117,-0.03 0.098,-0.051C0.079,-0.072 0.065,-0.097 0.055,-0.127C0.044,-0.156 0.039,-0.189 0.039,-0.226C0.039,-0.27 0.047,-0.308 0.062,-0.34C0.077,-0.371 0.097,-0.397 0.121,-0.418C0.144,-0.438 0.17,-0.453 0.198,-0.462C0.225,-0.471 0.251,-0.476 0.276,-0.476C0.309,-0.476 0.335,-0.472 0.354,-0.464C0.373,-0.456 0.387,-0.45 0.397,-0.446L0.397,-0.667L0.487,-0.667L0.487,-0.048C0.487,-0.033 0.487,-0.017 0.488,-0L0.4,-0L0.397,-0.059Z" style="fill-rule:nonzero;"/>
            </g>
            <g transform="matrix(8,0,0,8,181.738,231.226)">
                <path d="M0.092,-0.117C0.109,-0.1 0.129,-0.087 0.152,-0.077C0.175,-0.067 0.202,-0.062 0.233,-0.062C0.263,-0.062 0.288,-0.067 0.308,-0.077C0.328,-0.086 0.338,-0.101 0.338,-0.122C0.338,-0.133 0.336,-0.142 0.332,-0.15C0.327,-0.157 0.32,-0.164 0.31,-0.17C0.299,-0.176 0.286,-0.182 0.269,-0.187C0.252,-0.192 0.23,-0.197 0.205,-0.203C0.187,-0.207 0.169,-0.212 0.152,-0.219C0.134,-0.226 0.118,-0.235 0.104,-0.246C0.09,-0.257 0.079,-0.27 0.07,-0.286C0.061,-0.301 0.057,-0.32 0.057,-0.342C0.057,-0.365 0.062,-0.385 0.073,-0.402C0.083,-0.419 0.097,-0.433 0.114,-0.445C0.131,-0.456 0.151,-0.465 0.173,-0.471C0.194,-0.477 0.217,-0.48 0.24,-0.48C0.279,-0.48 0.313,-0.475 0.342,-0.465C0.37,-0.454 0.395,-0.44 0.416,-0.421L0.367,-0.359C0.353,-0.372 0.335,-0.382 0.315,-0.391C0.294,-0.4 0.269,-0.404 0.241,-0.404C0.212,-0.404 0.189,-0.399 0.172,-0.39C0.155,-0.381 0.146,-0.365 0.146,-0.344C0.146,-0.324 0.158,-0.309 0.181,-0.3C0.204,-0.29 0.234,-0.281 0.271,-0.272C0.293,-0.267 0.314,-0.261 0.333,-0.254C0.352,-0.247 0.368,-0.238 0.383,-0.227C0.397,-0.216 0.408,-0.202 0.417,-0.186C0.425,-0.17 0.429,-0.151 0.429,-0.128C0.429,-0.105 0.424,-0.084 0.413,-0.067C0.402,-0.049 0.388,-0.034 0.37,-0.022C0.352,-0.01 0.331,-0.001 0.308,0.005C0.285,0.011 0.26,0.014 0.235,0.014C0.147,0.014 0.081,-0.01 0.037,-0.057L0.092,-0.117Z" style="fill-rule:nonzero;"/>
            </g>
            <g transform="matrix(8,0,0,8,130.562,240.826)">
                <path d="M0.105,-0.162C0.114,-0.151 0.125,-0.14 0.137,-0.13C0.148,-0.119 0.161,-0.109 0.176,-0.1C0.191,-0.091 0.207,-0.084 0.225,-0.079C0.243,-0.074 0.263,-0.071 0.284,-0.071C0.328,-0.071 0.362,-0.081 0.387,-0.101C0.412,-0.121 0.424,-0.148 0.424,-0.182C0.424,-0.219 0.41,-0.246 0.382,-0.265C0.354,-0.283 0.314,-0.298 0.261,-0.309C0.232,-0.315 0.206,-0.323 0.183,-0.334C0.16,-0.345 0.139,-0.358 0.123,-0.374C0.106,-0.39 0.092,-0.409 0.083,-0.43C0.074,-0.451 0.069,-0.474 0.069,-0.501C0.069,-0.526 0.074,-0.549 0.083,-0.571C0.092,-0.593 0.106,-0.612 0.125,-0.629C0.144,-0.646 0.167,-0.659 0.195,-0.669C0.223,-0.679 0.255,-0.684 0.292,-0.684C0.325,-0.684 0.353,-0.681 0.377,-0.674C0.4,-0.667 0.42,-0.658 0.437,-0.648C0.454,-0.638 0.467,-0.628 0.477,-0.617C0.487,-0.606 0.495,-0.598 0.5,-0.591L0.436,-0.532C0.432,-0.537 0.426,-0.543 0.418,-0.551C0.41,-0.558 0.4,-0.566 0.388,-0.573C0.375,-0.58 0.361,-0.587 0.345,-0.592C0.328,-0.596 0.309,-0.599 0.288,-0.599C0.267,-0.599 0.248,-0.596 0.233,-0.591C0.218,-0.585 0.205,-0.578 0.195,-0.569C0.185,-0.56 0.178,-0.549 0.173,-0.538C0.168,-0.527 0.166,-0.515 0.166,-0.504C0.166,-0.487 0.169,-0.473 0.177,-0.462C0.184,-0.45 0.194,-0.44 0.207,-0.431C0.22,-0.422 0.237,-0.414 0.257,-0.408C0.276,-0.401 0.299,-0.395 0.324,-0.389C0.349,-0.383 0.373,-0.375 0.397,-0.366C0.42,-0.356 0.441,-0.343 0.46,-0.327C0.479,-0.31 0.494,-0.29 0.505,-0.267C0.516,-0.243 0.521,-0.214 0.521,-0.18C0.521,-0.151 0.515,-0.125 0.503,-0.101C0.491,-0.077 0.474,-0.056 0.454,-0.039C0.432,-0.021 0.408,-0.007 0.379,0.003C0.35,0.012 0.319,0.017 0.286,0.017C0.255,0.017 0.226,0.013 0.201,0.006C0.175,-0.001 0.152,-0.011 0.131,-0.022C0.11,-0.033 0.091,-0.046 0.076,-0.06C0.06,-0.073 0.047,-0.087 0.037,-0.1L0.105,-0.162Z" style="fill-rule:nonzero;"/>
            </g>
            <g transform="matrix(8,0,0,8,134.938,240.826)">
                <path d="M0.102,-0.39L0.018,-0.39L0.018,-0.465L0.102,-0.465L0.102,-0.617L0.192,-0.617L0.192,-0.465L0.328,-0.465L0.328,-0.39L0.192,-0.39L0.192,-0.161C0.192,-0.124 0.198,-0.098 0.21,-0.084C0.221,-0.07 0.238,-0.063 0.259,-0.063C0.276,-0.063 0.291,-0.066 0.302,-0.071C0.313,-0.076 0.325,-0.084 0.336,-0.095L0.377,-0.04C0.358,-0.021 0.338,-0.008 0.318,0.001C0.297,0.009 0.273,0.013 0.245,0.013C0.196,0.013 0.16,-0 0.137,-0.027C0.114,-0.054 0.102,-0.095 0.102,-0.152L0.102,-0.39Z" style="fill-rule:nonzero;"/>
            </g>
            <g transform="matrix(8,0,0,8,138.01,240.826)">
                <path d="M0.486,-0.068C0.481,-0.062 0.473,-0.054 0.462,-0.045C0.451,-0.036 0.438,-0.027 0.421,-0.018C0.404,-0.009 0.384,-0.002 0.361,0.005C0.337,0.011 0.311,0.014 0.282,0.014C0.246,0.014 0.213,0.008 0.183,-0.004C0.153,-0.016 0.127,-0.033 0.106,-0.055C0.085,-0.077 0.068,-0.103 0.057,-0.134C0.045,-0.165 0.039,-0.199 0.039,-0.236C0.039,-0.27 0.045,-0.302 0.056,-0.332C0.067,-0.361 0.083,-0.387 0.104,-0.409C0.125,-0.43 0.149,-0.447 0.178,-0.46C0.206,-0.473 0.237,-0.479 0.271,-0.479C0.311,-0.479 0.345,-0.471 0.374,-0.456C0.403,-0.441 0.426,-0.42 0.445,-0.395C0.463,-0.37 0.476,-0.341 0.485,-0.308C0.494,-0.275 0.498,-0.241 0.498,-0.206L0.131,-0.206C0.132,-0.185 0.136,-0.166 0.145,-0.149C0.153,-0.132 0.164,-0.117 0.178,-0.104C0.192,-0.091 0.208,-0.081 0.226,-0.074C0.244,-0.067 0.263,-0.063 0.283,-0.063C0.322,-0.063 0.355,-0.07 0.38,-0.083C0.405,-0.096 0.424,-0.109 0.435,-0.122L0.486,-0.068ZM0.405,-0.273C0.402,-0.309 0.39,-0.34 0.367,-0.365C0.344,-0.39 0.312,-0.403 0.271,-0.403C0.25,-0.403 0.231,-0.399 0.214,-0.392C0.197,-0.385 0.182,-0.375 0.17,-0.363C0.158,-0.351 0.149,-0.337 0.142,-0.322C0.135,-0.306 0.132,-0.29 0.131,-0.273L0.405,-0.273Z" style="fill-rule:nonzero;"/>
            </g>
            <g transform="matrix(8,0,0,8,142.298,240.826)">
                <path d="M0.062,0.2L0.062,-0.418C0.062,-0.432 0.062,-0.448 0.061,-0.465L0.147,-0.465L0.15,-0.399C0.155,-0.405 0.161,-0.412 0.17,-0.421C0.179,-0.43 0.19,-0.438 0.203,-0.446C0.216,-0.454 0.231,-0.461 0.248,-0.467C0.265,-0.472 0.285,-0.475 0.308,-0.475C0.344,-0.475 0.375,-0.468 0.402,-0.455C0.428,-0.442 0.45,-0.424 0.467,-0.401C0.484,-0.378 0.497,-0.352 0.506,-0.323C0.514,-0.294 0.518,-0.263 0.518,-0.23C0.518,-0.188 0.511,-0.152 0.497,-0.121C0.482,-0.09 0.464,-0.065 0.441,-0.045C0.418,-0.025 0.392,-0.01 0.364,-0.001C0.335,0.009 0.307,0.014 0.28,0.014C0.249,0.014 0.224,0.011 0.205,0.005C0.186,-0.002 0.168,-0.009 0.151,-0.016L0.151,0.2L0.062,0.2ZM0.151,-0.101C0.162,-0.092 0.177,-0.084 0.197,-0.076C0.217,-0.068 0.242,-0.064 0.272,-0.064C0.295,-0.064 0.316,-0.068 0.335,-0.077C0.354,-0.085 0.37,-0.096 0.384,-0.112C0.397,-0.127 0.408,-0.144 0.415,-0.164C0.422,-0.184 0.426,-0.206 0.426,-0.23C0.426,-0.253 0.424,-0.274 0.419,-0.294C0.413,-0.314 0.406,-0.332 0.395,-0.347C0.384,-0.362 0.369,-0.375 0.352,-0.384C0.335,-0.393 0.313,-0.397 0.288,-0.397C0.256,-0.397 0.229,-0.388 0.206,-0.371C0.183,-0.353 0.167,-0.327 0.158,-0.293C0.155,-0.282 0.153,-0.271 0.152,-0.259C0.151,-0.246 0.151,-0.233 0.151,-0.22L0.151,-0.101Z" style="fill-rule:nonzero;"/>
            </g>
            <g transform="matrix(8,0,0,8,148.21,240.826)">
                <path d="M0.076,-0.667L0.289,-0.667C0.332,-0.667 0.368,-0.661 0.397,-0.65C0.426,-0.638 0.45,-0.623 0.469,-0.605C0.487,-0.586 0.5,-0.565 0.509,-0.542C0.517,-0.519 0.521,-0.495 0.521,-0.471C0.521,-0.428 0.511,-0.391 0.491,-0.358C0.471,-0.325 0.44,-0.301 0.398,-0.285L0.554,-0L0.446,-0L0.303,-0.273L0.169,-0.273L0.169,-0L0.076,-0L0.076,-0.667ZM0.297,-0.354C0.339,-0.354 0.371,-0.364 0.392,-0.385C0.413,-0.406 0.423,-0.433 0.423,-0.468C0.423,-0.505 0.412,-0.533 0.389,-0.554C0.366,-0.574 0.335,-0.584 0.295,-0.584L0.169,-0.584L0.169,-0.354L0.297,-0.354Z" style="fill-rule:nonzero;"/>
            </g>
            <g transform="matrix(8,0,0,8,152.77,240.826)">
                <path d="M0.352,-0.22C0.349,-0.221 0.344,-0.222 0.337,-0.223C0.329,-0.224 0.32,-0.224 0.31,-0.225C0.3,-0.226 0.289,-0.226 0.278,-0.227C0.267,-0.228 0.256,-0.228 0.245,-0.228C0.22,-0.228 0.199,-0.225 0.184,-0.219C0.168,-0.213 0.156,-0.206 0.147,-0.197C0.137,-0.188 0.131,-0.178 0.128,-0.167C0.125,-0.156 0.123,-0.145 0.123,-0.135C0.123,-0.11 0.132,-0.091 0.149,-0.078C0.166,-0.065 0.19,-0.058 0.221,-0.058C0.238,-0.058 0.255,-0.061 0.271,-0.067C0.286,-0.073 0.3,-0.081 0.312,-0.091C0.324,-0.101 0.334,-0.113 0.341,-0.126C0.348,-0.139 0.352,-0.153 0.352,-0.167L0.352,-0.22ZM0.353,-0.056C0.336,-0.033 0.313,-0.015 0.285,-0.004C0.256,0.007 0.227,0.013 0.197,0.013C0.178,0.013 0.159,0.011 0.14,0.006C0.121,0 0.103,-0.008 0.088,-0.02C0.072,-0.031 0.059,-0.046 0.05,-0.065C0.04,-0.083 0.035,-0.105 0.035,-0.132C0.035,-0.182 0.053,-0.222 0.088,-0.252C0.123,-0.282 0.173,-0.297 0.239,-0.297C0.25,-0.297 0.261,-0.297 0.273,-0.296C0.285,-0.295 0.296,-0.295 0.307,-0.294C0.318,-0.293 0.327,-0.293 0.335,-0.292C0.343,-0.291 0.349,-0.291 0.352,-0.29L0.352,-0.307C0.352,-0.342 0.341,-0.367 0.321,-0.382C0.3,-0.397 0.271,-0.404 0.235,-0.404C0.2,-0.404 0.172,-0.399 0.151,-0.39C0.13,-0.38 0.113,-0.37 0.099,-0.36L0.057,-0.421C0.065,-0.428 0.075,-0.434 0.086,-0.441C0.097,-0.448 0.111,-0.454 0.126,-0.46C0.141,-0.465 0.159,-0.47 0.178,-0.474C0.197,-0.477 0.22,-0.479 0.245,-0.479C0.305,-0.479 0.352,-0.464 0.387,-0.436C0.421,-0.407 0.438,-0.365 0.438,-0.312L0.438,-0.042C0.438,-0.025 0.438,-0.011 0.439,-0L0.355,-0L0.353,-0.056Z" style="fill-rule:nonzero;"/>
            </g>
            <g transform="matrix(8,0,0,8,156.762,240.826)">
                <path d="M0.062,-0L0.062,-0.418C0.062,-0.432 0.062,-0.448 0.061,-0.465L0.147,-0.465L0.15,-0.395C0.156,-0.403 0.163,-0.412 0.172,-0.422C0.181,-0.431 0.191,-0.44 0.204,-0.448C0.217,-0.456 0.232,-0.463 0.249,-0.468C0.266,-0.473 0.285,-0.476 0.306,-0.476C0.367,-0.476 0.412,-0.458 0.441,-0.423C0.47,-0.388 0.485,-0.34 0.485,-0.279L0.485,-0L0.395,-0L0.395,-0.272C0.395,-0.315 0.386,-0.347 0.367,-0.368C0.348,-0.388 0.322,-0.398 0.288,-0.398C0.262,-0.398 0.24,-0.393 0.223,-0.382C0.206,-0.371 0.192,-0.358 0.182,-0.341C0.171,-0.324 0.164,-0.304 0.159,-0.283C0.154,-0.261 0.152,-0.239 0.152,-0.216L0.152,-0L0.062,-0Z" style="fill-rule:nonzero;"/>
            </g>
            <g transform="matrix(8,0,0,8,161.114,240.826)">
                <path d="M0.397,-0.362C0.39,-0.367 0.378,-0.375 0.36,-0.384C0.342,-0.393 0.316,-0.397 0.283,-0.397C0.261,-0.397 0.241,-0.393 0.223,-0.385C0.204,-0.377 0.188,-0.366 0.175,-0.351C0.161,-0.336 0.15,-0.318 0.143,-0.297C0.135,-0.276 0.131,-0.252 0.131,-0.225C0.131,-0.203 0.134,-0.182 0.139,-0.163C0.144,-0.143 0.153,-0.126 0.164,-0.111C0.174,-0.096 0.189,-0.085 0.206,-0.077C0.223,-0.068 0.243,-0.064 0.266,-0.064C0.289,-0.064 0.309,-0.068 0.326,-0.077C0.343,-0.086 0.356,-0.096 0.367,-0.11C0.377,-0.123 0.385,-0.137 0.39,-0.153C0.395,-0.168 0.397,-0.183 0.397,-0.196L0.397,-0.362ZM0.397,-0.059C0.394,-0.055 0.388,-0.049 0.381,-0.041C0.373,-0.032 0.363,-0.024 0.35,-0.016C0.337,-0.008 0.323,-0.001 0.306,0.005C0.289,0.011 0.269,0.014 0.246,0.014C0.217,0.014 0.189,0.008 0.164,-0.003C0.139,-0.014 0.117,-0.03 0.098,-0.051C0.079,-0.072 0.065,-0.097 0.055,-0.127C0.044,-0.156 0.039,-0.189 0.039,-0.226C0.039,-0.27 0.047,-0.308 0.062,-0.34C0.077,-0.371 0.097,-0.397 0.121,-0.418C0.144,-0.438 0.17,-0.453 0.198,-0.462C0.225,-0.471 0.251,-0.476 0.276,-0.476C0.309,-0.476 0.335,-0.472 0.354,-0.464C0.373,-0.456 0.387,-0.45 0.397,-0.446L0.397,-0.667L0.487,-0.667L0.487,-0.048C0.487,-0.033 0.487,-0.017 0.488,-0L0.4,-0L0.397,-0.059Z" style="fill-rule:nonzero;"/>
            </g>
            <g transform="matrix(8,0,0,8,165.514,240.826)">
                <path d="M0.286,0.014C0.25,0.014 0.217,0.008 0.187,-0.006C0.157,-0.019 0.131,-0.036 0.11,-0.059C0.088,-0.082 0.071,-0.108 0.059,-0.138C0.046,-0.167 0.04,-0.199 0.04,-0.233C0.04,-0.267 0.046,-0.299 0.059,-0.329C0.071,-0.358 0.088,-0.384 0.11,-0.407C0.131,-0.43 0.157,-0.448 0.187,-0.461C0.217,-0.474 0.25,-0.48 0.286,-0.48C0.321,-0.48 0.354,-0.474 0.384,-0.461C0.414,-0.448 0.44,-0.43 0.462,-0.407C0.484,-0.384 0.501,-0.358 0.514,-0.329C0.526,-0.299 0.532,-0.267 0.532,-0.233C0.532,-0.199 0.526,-0.167 0.514,-0.138C0.501,-0.108 0.484,-0.082 0.462,-0.059C0.44,-0.036 0.414,-0.019 0.384,-0.006C0.354,0.008 0.321,0.014 0.286,0.014ZM0.286,-0.064C0.31,-0.064 0.332,-0.069 0.351,-0.079C0.37,-0.088 0.387,-0.101 0.4,-0.117C0.413,-0.132 0.424,-0.15 0.431,-0.171C0.438,-0.191 0.441,-0.212 0.441,-0.233C0.441,-0.254 0.438,-0.274 0.431,-0.295C0.424,-0.315 0.413,-0.333 0.4,-0.349C0.386,-0.365 0.37,-0.378 0.351,-0.388C0.332,-0.397 0.31,-0.402 0.286,-0.402C0.262,-0.402 0.24,-0.397 0.221,-0.388C0.202,-0.378 0.185,-0.365 0.172,-0.35C0.159,-0.334 0.149,-0.316 0.142,-0.296C0.135,-0.275 0.131,-0.254 0.131,-0.233C0.131,-0.212 0.135,-0.191 0.142,-0.171C0.149,-0.151 0.159,-0.133 0.173,-0.117C0.186,-0.101 0.203,-0.088 0.222,-0.079C0.241,-0.069 0.262,-0.064 0.286,-0.064Z" style="fill-rule:nonzero;"/>
            </g>
            <g transform="matrix(8,0,0,8,170.09,240.826)">
                <path d="M0.062,-0L0.062,-0.418C0.062,-0.432 0.062,-0.448 0.061,-0.465L0.147,-0.465L0.15,-0.395C0.155,-0.403 0.162,-0.412 0.171,-0.422C0.18,-0.431 0.19,-0.44 0.202,-0.448C0.214,-0.456 0.228,-0.463 0.245,-0.468C0.261,-0.473 0.28,-0.476 0.301,-0.476C0.337,-0.476 0.367,-0.469 0.391,-0.455C0.414,-0.44 0.433,-0.419 0.446,-0.392C0.465,-0.414 0.488,-0.434 0.515,-0.451C0.542,-0.468 0.575,-0.476 0.615,-0.476C0.675,-0.476 0.719,-0.458 0.748,-0.423C0.777,-0.387 0.791,-0.339 0.791,-0.279L0.791,-0L0.701,-0L0.701,-0.272C0.701,-0.315 0.693,-0.347 0.676,-0.368C0.659,-0.388 0.634,-0.398 0.601,-0.398C0.582,-0.398 0.565,-0.394 0.55,-0.387C0.534,-0.379 0.52,-0.369 0.509,-0.356C0.497,-0.343 0.488,-0.329 0.482,-0.312C0.475,-0.295 0.472,-0.277 0.472,-0.258L0.472,-0L0.382,-0L0.382,-0.272C0.382,-0.315 0.374,-0.347 0.357,-0.368C0.339,-0.388 0.315,-0.398 0.283,-0.398C0.258,-0.398 0.238,-0.393 0.221,-0.382C0.204,-0.371 0.191,-0.358 0.181,-0.341C0.17,-0.324 0.163,-0.304 0.159,-0.282C0.154,-0.26 0.152,-0.238 0.152,-0.216L0.152,-0L0.062,-0Z" style="fill-rule:nonzero;"/>
            </g>
        </g>
    </g>
</svg>
