<?xml version="1.0" encoding="UTF-8" standalone="no"?>
<!DOCTYPE svg PUBLIC "-//W3C//DTD SVG 1.1//EN" "http://www.w3.org/Graphics/SVG/1.1/DTD/svg11.dtd">
<svg width="100%" height="100%" viewBox="0 0 90 380" version="1.1" xmlns="http://www.w3.org/2000/svg" xmlns:xlink="http://www.w3.org/1999/xlink" xml:space="preserve" xmlns:serif="http://www.serif.com/" style="fill-rule:evenodd;clip-rule:evenodd;stroke-linejoin:round;stroke-miterlimit:2;">
    <g id="svg8">
        <rect x="0" y="0" width="90" height="380" style="fill:rgb(240,240,240);"/>
        <path d="M25.784,361.578L24.178,361.578L24.178,356.247L18.102,356.247L18.102,361.578L16.496,361.578L16.496,350.154L18.102,350.154L18.102,354.873L24.178,354.873L24.178,350.154L25.784,350.154L25.784,361.578Z" style="fill:rgb(35,31,32);fill-rule:nonzero;"/>
        <path d="M33.992,361.578L27.171,361.578L27.171,350.154L33.86,350.154L33.86,351.496L28.777,351.496L28.777,354.906L33.578,354.906L33.578,356.247L28.777,356.247L28.777,360.221L33.992,360.221L33.992,361.578Z" style="fill:rgb(35,31,32);fill-rule:nonzero;"/>
        <path d="M42.865,351.496L39.653,351.496L39.653,361.578L38.047,361.578L38.047,351.496L34.819,351.496L34.819,350.154L42.865,350.154L42.865,351.496Z" style="fill:rgb(35,31,32);fill-rule:nonzero;"/>
        <path d="M48.575,351.877C48.062,351.496 47.449,351.463 46.655,351.463L45.479,351.463L45.479,355.337L46.655,355.337C47.449,355.337 48.062,355.304 48.575,354.94C49.089,354.559 49.304,354.095 49.304,353.399C49.304,352.721 49.089,352.241 48.575,351.877M51.622,361.578L49.684,361.578L46.704,356.661L45.479,356.661L45.479,361.578L43.873,361.578L43.873,350.154L47.101,350.154C48.244,350.154 49.171,350.42 49.85,350.949C50.529,351.496 50.959,352.323 50.959,353.366C50.959,355.37 49.568,356.264 48.36,356.496L51.622,361.578Z" style="fill:rgb(35,31,32);fill-rule:nonzero;"/>
        <rect x="52.814" y="350.154" width="1.605" height="11.424" style="fill:rgb(35,31,32);"/>
        <path d="M65.542,360.088C64.83,360.883 63.539,361.777 61.37,361.777C58.042,361.777 55.525,359.442 55.525,355.883C55.525,352.323 58.092,349.989 61.37,349.989C63.506,349.989 64.797,350.883 65.426,351.496L64.747,352.787C64.301,352.225 63.025,351.397 61.437,351.397C58.97,351.397 57.182,353.168 57.182,355.85C57.182,358.532 58.986,360.304 61.437,360.304C62.942,360.304 64.102,359.725 64.847,358.913L65.542,360.088Z" style="fill:rgb(237,50,36);fill-rule:nonzero;"/>
        <path d="M75.452,361.578L73.499,361.578L69.707,355.849L68.532,357.042L68.532,361.578L66.926,361.578L66.926,350.154L68.532,350.154L68.532,355.022L73.184,350.154L75.138,350.154L70.783,354.658L75.452,361.578Z" style="fill:rgb(237,50,36);fill-rule:nonzero;"/>
        <path d="M75.452,361.578L73.499,361.578L69.707,355.849L68.532,357.042L68.532,361.578L66.926,361.578L66.926,357.019L68.532,357.042L69.707,355.849L70.783,354.658L71.4,355.571L71.897,356.308L75.452,361.578Z" style="fill-rule:nonzero;"/>
        <g>
            <path d="M69.685,124.597L20.315,124.597C11.675,124.597 4.606,128.956 4.606,134.283L4.606,333.648C4.606,338.975 11.675,343.334 20.315,343.334L69.685,343.334C78.323,343.334 85.394,338.975 85.394,333.648L85.394,134.283C85.394,128.956 78.323,124.597 69.685,124.597" style="fill-rule:nonzero;"/>
            <path d="M43.002,167.24C42.53,167.24 42.116,167.144 41.76,166.952C41.404,166.76 41.104,166.488 40.86,166.136C40.616,165.784 40.432,165.36 40.308,164.864C40.184,164.368 40.122,163.816 40.122,163.208C40.122,162.608 40.184,162.068 40.308,161.588C40.432,161.108 40.618,160.698 40.866,160.358C41.114,160.018 41.416,159.756 41.772,159.572C42.128,159.388 42.542,159.296 43.014,159.296C43.478,159.296 43.89,159.388 44.25,159.572C44.61,159.756 44.912,160.018 45.156,160.358C45.4,160.698 45.584,161.108 45.708,161.588C45.832,162.068 45.894,162.608 45.894,163.208C45.894,163.816 45.832,164.368 45.708,164.864C45.584,165.36 45.398,165.784 45.15,166.136C44.902,166.488 44.598,166.76 44.238,166.952C43.878,167.144 43.466,167.24 43.002,167.24ZM43.002,166.244C43.29,166.244 43.544,166.17 43.764,166.022C43.984,165.874 44.168,165.666 44.316,165.398C44.464,165.13 44.576,164.81 44.652,164.438C44.728,164.066 44.766,163.656 44.766,163.208C44.766,162.768 44.728,162.368 44.652,162.008C44.576,161.648 44.462,161.342 44.31,161.09C44.158,160.838 43.974,160.644 43.758,160.508C43.542,160.372 43.29,160.304 43.002,160.304C42.714,160.304 42.462,160.372 42.246,160.508C42.03,160.644 41.848,160.838 41.7,161.09C41.552,161.342 41.44,161.648 41.364,162.008C41.288,162.368 41.25,162.768 41.25,163.208C41.25,163.656 41.288,164.066 41.364,164.438C41.44,164.81 41.552,165.13 41.7,165.398C41.848,165.666 42.03,165.874 42.246,166.022C42.462,166.17 42.714,166.244 43.002,166.244Z" style="fill:white;fill-rule:nonzero;"/>
            <path d="M46.626,160.76C46.626,160.528 46.668,160.314 46.752,160.118C46.836,159.922 46.952,159.752 47.1,159.608C47.248,159.464 47.42,159.352 47.616,159.272C47.812,159.192 48.026,159.152 48.258,159.152C48.49,159.152 48.706,159.192 48.906,159.272C49.106,159.352 49.28,159.464 49.428,159.608C49.576,159.752 49.692,159.922 49.776,160.118C49.86,160.314 49.902,160.524 49.902,160.748C49.902,160.98 49.86,161.194 49.776,161.39C49.692,161.586 49.576,161.756 49.428,161.9C49.28,162.044 49.106,162.156 48.906,162.236C48.706,162.316 48.494,162.356 48.27,162.356C48.038,162.356 47.822,162.316 47.622,162.236C47.422,162.156 47.248,162.044 47.1,161.9C46.952,161.756 46.836,161.588 46.752,161.396C46.668,161.204 46.626,160.992 46.626,160.76ZM48.27,161.636C48.518,161.636 48.724,161.552 48.888,161.384C49.052,161.216 49.134,161.004 49.134,160.748C49.134,160.508 49.052,160.304 48.888,160.136C48.724,159.968 48.514,159.884 48.258,159.884C48.018,159.884 47.816,159.968 47.652,160.136C47.488,160.304 47.406,160.512 47.406,160.76C47.406,161.008 47.488,161.216 47.652,161.384C47.816,161.552 48.022,161.636 48.27,161.636Z" style="fill:white;fill-rule:nonzero;"/>
            <path d="M34.014,290.882C34.014,290.458 34.114,290.086 34.314,289.766C34.514,289.446 34.754,289.146 35.034,288.866C35.378,288.522 35.704,288.226 36.012,287.978C36.32,287.73 36.59,287.502 36.822,287.294C37.054,287.086 37.236,286.88 37.368,286.676C37.5,286.472 37.566,286.238 37.566,285.974C37.566,285.854 37.544,285.73 37.5,285.602C37.456,285.474 37.382,285.356 37.278,285.248C37.174,285.14 37.042,285.05 36.882,284.978C36.722,284.906 36.522,284.87 36.282,284.87C36.066,284.87 35.874,284.9 35.706,284.96C35.538,285.02 35.39,285.094 35.262,285.182C35.134,285.27 35.026,285.37 34.938,285.482C34.85,285.594 34.77,285.698 34.698,285.794L33.894,285.218C33.974,285.074 34.084,284.924 34.224,284.768C34.364,284.612 34.532,284.468 34.728,284.336C34.924,284.204 35.156,284.096 35.424,284.012C35.692,283.928 36.002,283.886 36.354,283.886C36.762,283.886 37.116,283.942 37.416,284.054C37.716,284.166 37.962,284.316 38.154,284.504C38.346,284.692 38.49,284.906 38.586,285.146C38.682,285.386 38.73,285.638 38.73,285.902C38.73,286.182 38.682,286.444 38.586,286.688C38.49,286.932 38.362,287.158 38.202,287.366C38.042,287.574 37.86,287.772 37.656,287.96C37.452,288.148 37.242,288.326 37.026,288.494C36.77,288.694 36.532,288.886 36.312,289.07C36.092,289.254 35.9,289.434 35.736,289.61C35.572,289.786 35.444,289.962 35.352,290.138C35.26,290.314 35.214,290.494 35.214,290.678L38.814,290.678L38.814,291.662L34.014,291.662L34.014,290.882Z" style="fill:white;fill-rule:nonzero;"/>
            <path d="M41.418,291.662C41.602,291.094 41.822,290.488 42.078,289.844C42.334,289.2 42.596,288.574 42.864,287.966C43.132,287.358 43.392,286.802 43.644,286.298C43.896,285.794 44.11,285.398 44.286,285.11L40.566,285.11L40.566,284.09L45.402,284.09L45.402,285.074C45.282,285.258 45.144,285.506 44.988,285.818C44.832,286.13 44.664,286.476 44.484,286.856C44.304,287.236 44.12,287.642 43.932,288.074C43.744,288.506 43.566,288.934 43.398,289.358C43.23,289.782 43.074,290.194 42.93,290.594C42.786,290.994 42.67,291.35 42.582,291.662L41.418,291.662Z" style="fill:white;fill-rule:nonzero;"/>
            <path d="M49.542,291.83C49.07,291.83 48.656,291.734 48.3,291.542C47.944,291.35 47.644,291.078 47.4,290.726C47.156,290.374 46.972,289.95 46.848,289.454C46.724,288.958 46.662,288.406 46.662,287.798C46.662,287.198 46.724,286.658 46.848,286.178C46.972,285.698 47.158,285.288 47.406,284.948C47.654,284.608 47.956,284.346 48.312,284.162C48.668,283.978 49.082,283.886 49.554,283.886C50.018,283.886 50.43,283.978 50.79,284.162C51.15,284.346 51.452,284.608 51.696,284.948C51.94,285.288 52.124,285.698 52.248,286.178C52.372,286.658 52.434,287.198 52.434,287.798C52.434,288.406 52.372,288.958 52.248,289.454C52.124,289.95 51.938,290.374 51.69,290.726C51.442,291.078 51.138,291.35 50.778,291.542C50.418,291.734 50.006,291.83 49.542,291.83ZM49.542,290.834C49.83,290.834 50.084,290.76 50.304,290.612C50.524,290.464 50.708,290.256 50.856,289.988C51.004,289.72 51.116,289.4 51.192,289.028C51.268,288.656 51.306,288.246 51.306,287.798C51.306,287.358 51.268,286.958 51.192,286.598C51.116,286.238 51.002,285.932 50.85,285.68C50.698,285.428 50.514,285.234 50.298,285.098C50.082,284.962 49.83,284.894 49.542,284.894C49.254,284.894 49.002,284.962 48.786,285.098C48.57,285.234 48.388,285.428 48.24,285.68C48.092,285.932 47.98,286.238 47.904,286.598C47.828,286.958 47.79,287.358 47.79,287.798C47.79,288.246 47.828,288.656 47.904,289.028C47.98,289.4 48.092,289.72 48.24,289.988C48.388,290.256 48.57,290.464 48.786,290.612C49.002,290.76 49.254,290.834 49.542,290.834Z" style="fill:white;fill-rule:nonzero;"/>
            <path d="M53.166,285.35C53.166,285.118 53.208,284.904 53.292,284.708C53.376,284.512 53.492,284.342 53.64,284.198C53.788,284.054 53.96,283.942 54.156,283.862C54.352,283.782 54.566,283.742 54.798,283.742C55.03,283.742 55.246,283.782 55.446,283.862C55.646,283.942 55.82,284.054 55.968,284.198C56.116,284.342 56.232,284.512 56.316,284.708C56.4,284.904 56.442,285.114 56.442,285.338C56.442,285.57 56.4,285.784 56.316,285.98C56.232,286.176 56.116,286.346 55.968,286.49C55.82,286.634 55.646,286.746 55.446,286.826C55.246,286.906 55.034,286.946 54.81,286.946C54.578,286.946 54.362,286.906 54.162,286.826C53.962,286.746 53.788,286.634 53.64,286.49C53.492,286.346 53.376,286.178 53.292,285.986C53.208,285.794 53.166,285.582 53.166,285.35ZM54.81,286.226C55.058,286.226 55.264,286.142 55.428,285.974C55.592,285.806 55.674,285.594 55.674,285.338C55.674,285.098 55.592,284.894 55.428,284.726C55.264,284.558 55.054,284.474 54.798,284.474C54.558,284.474 54.356,284.558 54.192,284.726C54.028,284.894 53.946,285.102 53.946,285.35C53.946,285.598 54.028,285.806 54.192,285.974C54.356,286.142 54.562,286.226 54.81,286.226Z" style="fill:white;fill-rule:nonzero;"/>
            <path d="M20.052,333.36C19.58,333.36 19.166,333.264 18.81,333.072C18.454,332.88 18.154,332.608 17.91,332.256C17.666,331.904 17.482,331.48 17.358,330.984C17.234,330.488 17.172,329.936 17.172,329.328C17.172,328.728 17.234,328.188 17.358,327.708C17.482,327.228 17.668,326.818 17.916,326.478C18.164,326.138 18.466,325.876 18.822,325.692C19.178,325.508 19.592,325.416 20.064,325.416C20.528,325.416 20.94,325.508 21.3,325.692C21.66,325.876 21.962,326.138 22.206,326.478C22.45,326.818 22.634,327.228 22.758,327.708C22.882,328.188 22.944,328.728 22.944,329.328C22.944,329.936 22.882,330.488 22.758,330.984C22.634,331.48 22.448,331.904 22.2,332.256C21.952,332.608 21.648,332.88 21.288,333.072C20.928,333.264 20.516,333.36 20.052,333.36ZM20.052,332.364C20.34,332.364 20.594,332.29 20.814,332.142C21.034,331.994 21.218,331.786 21.366,331.518C21.514,331.25 21.626,330.93 21.702,330.558C21.778,330.186 21.816,329.776 21.816,329.328C21.816,328.888 21.778,328.488 21.702,328.128C21.626,327.768 21.512,327.462 21.36,327.21C21.208,326.958 21.024,326.764 20.808,326.628C20.592,326.492 20.34,326.424 20.052,326.424C19.764,326.424 19.512,326.492 19.296,326.628C19.08,326.764 18.898,326.958 18.75,327.21C18.602,327.462 18.49,327.768 18.414,328.128C18.338,328.488 18.3,328.888 18.3,329.328C18.3,329.776 18.338,330.186 18.414,330.558C18.49,330.93 18.602,331.25 18.75,331.518C18.898,331.786 19.08,331.994 19.296,332.142C19.512,332.29 19.764,332.364 20.052,332.364Z" style="fill:white;fill-rule:nonzero;"/>
            <path d="M23.676,326.88C23.676,326.648 23.718,326.434 23.802,326.238C23.886,326.042 24.002,325.872 24.15,325.728C24.298,325.584 24.47,325.472 24.666,325.392C24.862,325.312 25.076,325.272 25.308,325.272C25.54,325.272 25.756,325.312 25.956,325.392C26.156,325.472 26.33,325.584 26.478,325.728C26.626,325.872 26.742,326.042 26.826,326.238C26.91,326.434 26.952,326.644 26.952,326.868C26.952,327.1 26.91,327.314 26.826,327.51C26.742,327.706 26.626,327.876 26.478,328.02C26.33,328.164 26.156,328.276 25.956,328.356C25.756,328.436 25.544,328.476 25.32,328.476C25.088,328.476 24.872,328.436 24.672,328.356C24.472,328.276 24.298,328.164 24.15,328.02C24.002,327.876 23.886,327.708 23.802,327.516C23.718,327.324 23.676,327.112 23.676,326.88ZM25.32,327.756C25.568,327.756 25.774,327.672 25.938,327.504C26.102,327.336 26.184,327.124 26.184,326.868C26.184,326.628 26.102,326.424 25.938,326.256C25.774,326.088 25.564,326.004 25.308,326.004C25.068,326.004 24.866,326.088 24.702,326.256C24.538,326.424 24.456,326.632 24.456,326.88C24.456,327.128 24.538,327.336 24.702,327.504C24.866,327.672 25.072,327.756 25.32,327.756Z" style="fill:white;fill-rule:nonzero;"/>
            <rect x="30.396" y="325.188" width="1.152" height="8.004" style="fill:white;fill-rule:nonzero;"/>
            <path d="M33.204,333.192L33.204,328.182C33.204,328.002 33.2,327.812 33.192,327.612L34.224,327.612L34.26,328.452C34.332,328.356 34.42,328.25 34.524,328.134C34.628,328.018 34.756,327.912 34.908,327.816C35.06,327.72 35.238,327.64 35.442,327.576C35.646,327.512 35.876,327.48 36.132,327.48C36.86,327.48 37.4,327.692 37.752,328.116C38.104,328.54 38.28,329.116 38.28,329.844L38.28,333.192L37.2,333.192L37.2,329.928C37.2,329.408 37.088,329.026 36.864,328.782C36.64,328.538 36.324,328.416 35.916,328.416C35.604,328.416 35.344,328.48 35.136,328.608C34.928,328.736 34.762,328.902 34.638,329.106C34.514,329.31 34.424,329.542 34.368,329.802C34.312,330.062 34.284,330.328 34.284,330.6L34.284,333.192L33.204,333.192Z" style="fill:white;fill-rule:nonzero;"/>
            <path d="M38.82,327.612L40.056,327.612L41.796,331.968L43.524,327.612L44.688,327.612L42.3,333.192L41.22,333.192L38.82,327.612Z" style="fill:white;fill-rule:nonzero;"/>
            <path d="M50.604,332.376C50.54,332.448 50.444,332.54 50.316,332.652C50.188,332.764 50.022,332.872 49.818,332.976C49.614,333.08 49.374,333.17 49.098,333.246C48.822,333.322 48.508,333.36 48.156,333.36C47.724,333.36 47.328,333.288 46.968,333.144C46.608,333 46.3,332.796 46.044,332.532C45.788,332.268 45.59,331.952 45.45,331.584C45.31,331.216 45.24,330.808 45.24,330.36C45.24,329.952 45.308,329.57 45.444,329.214C45.58,328.858 45.772,328.55 46.02,328.29C46.268,328.03 46.562,327.824 46.902,327.672C47.242,327.52 47.616,327.444 48.024,327.444C48.504,327.444 48.916,327.536 49.26,327.72C49.604,327.904 49.886,328.148 50.106,328.452C50.326,328.756 50.488,329.104 50.592,329.496C50.696,329.888 50.748,330.296 50.748,330.72L46.344,330.72C46.352,330.968 46.406,331.196 46.506,331.404C46.606,331.612 46.74,331.792 46.908,331.944C47.076,332.096 47.268,332.216 47.484,332.304C47.7,332.392 47.928,332.436 48.168,332.436C48.64,332.436 49.028,332.356 49.332,332.196C49.636,332.036 49.856,331.88 49.992,331.728L50.604,332.376ZM49.632,329.916C49.6,329.484 49.448,329.116 49.176,328.812C48.904,328.508 48.52,328.356 48.024,328.356C47.768,328.356 47.538,328.4 47.334,328.488C47.13,328.576 46.956,328.692 46.812,328.836C46.668,328.98 46.556,329.146 46.476,329.334C46.396,329.522 46.352,329.716 46.344,329.916L49.632,329.916Z" style="fill:white;fill-rule:nonzero;"/>
            <path d="M51.948,333.192L51.948,328.146C51.948,327.974 51.944,327.796 51.936,327.612L52.968,327.612L53.004,328.512C53.068,328.416 53.152,328.31 53.256,328.194C53.36,328.078 53.486,327.972 53.634,327.876C53.782,327.78 53.954,327.698 54.15,327.63C54.346,327.562 54.572,327.528 54.828,327.528C54.948,327.528 55.058,327.536 55.158,327.552C55.258,327.568 55.352,327.592 55.44,327.624L55.2,328.632C55.056,328.576 54.872,328.548 54.648,328.548C54.416,328.548 54.202,328.592 54.006,328.68C53.81,328.768 53.64,328.89 53.496,329.046C53.352,329.202 53.238,329.384 53.154,329.592C53.07,329.8 53.028,330.02 53.028,330.252L53.028,333.192L51.948,333.192Z" style="fill:white;fill-rule:nonzero;"/>
            <path d="M56.796,328.512L55.788,328.512L55.788,327.612L56.796,327.612L56.796,325.788L57.876,325.788L57.876,327.612L59.508,327.612L59.508,328.512L57.876,328.512L57.876,331.26C57.876,331.708 57.946,332.016 58.086,332.184C58.226,332.352 58.424,332.436 58.68,332.436C58.888,332.436 59.06,332.404 59.196,332.34C59.332,332.276 59.468,332.18 59.604,332.052L60.096,332.712C59.864,332.936 59.626,333.098 59.382,333.198C59.138,333.298 58.848,333.348 58.512,333.348C57.92,333.348 57.486,333.188 57.21,332.868C56.934,332.548 56.796,332.048 56.796,331.368L56.796,328.512Z" style="fill:white;fill-rule:nonzero;"/>
            <path d="M66.012,332.376C65.948,332.448 65.852,332.54 65.724,332.652C65.596,332.764 65.43,332.872 65.226,332.976C65.022,333.08 64.782,333.17 64.506,333.246C64.23,333.322 63.916,333.36 63.564,333.36C63.132,333.36 62.736,333.288 62.376,333.144C62.016,333 61.708,332.796 61.452,332.532C61.196,332.268 60.998,331.952 60.858,331.584C60.718,331.216 60.648,330.808 60.648,330.36C60.648,329.952 60.716,329.57 60.852,329.214C60.988,328.858 61.18,328.55 61.428,328.29C61.676,328.03 61.97,327.824 62.31,327.672C62.65,327.52 63.024,327.444 63.432,327.444C63.912,327.444 64.324,327.536 64.668,327.72C65.012,327.904 65.294,328.148 65.514,328.452C65.734,328.756 65.896,329.104 66,329.496C66.104,329.888 66.156,330.296 66.156,330.72L61.752,330.72C61.76,330.968 61.814,331.196 61.914,331.404C62.014,331.612 62.148,331.792 62.316,331.944C62.484,332.096 62.676,332.216 62.892,332.304C63.108,332.392 63.336,332.436 63.576,332.436C64.048,332.436 64.436,332.356 64.74,332.196C65.044,332.036 65.264,331.88 65.4,331.728L66.012,332.376ZM65.04,329.916C65.008,329.484 64.856,329.116 64.584,328.812C64.312,328.508 63.928,328.356 63.432,328.356C63.176,328.356 62.946,328.4 62.742,328.488C62.538,328.576 62.364,328.692 62.22,328.836C62.076,328.98 61.964,329.146 61.884,329.334C61.804,329.522 61.76,329.716 61.752,329.916L65.04,329.916Z" style="fill:white;fill-rule:nonzero;"/>
            <path d="M71.376,328.848C71.296,328.784 71.148,328.698 70.932,328.59C70.716,328.482 70.408,328.428 70.008,328.428C69.744,328.428 69.502,328.476 69.282,328.572C69.062,328.668 68.87,328.804 68.706,328.98C68.542,329.156 68.414,329.372 68.322,329.628C68.23,329.884 68.184,330.172 68.184,330.492C68.184,330.756 68.216,331.006 68.28,331.242C68.344,331.478 68.442,331.684 68.574,331.86C68.706,332.036 68.874,332.174 69.078,332.274C69.282,332.374 69.524,332.424 69.804,332.424C70.084,332.424 70.324,332.372 70.524,332.268C70.724,332.164 70.886,332.034 71.01,331.878C71.134,331.722 71.226,331.55 71.286,331.362C71.346,331.174 71.376,331 71.376,330.84L71.376,328.848ZM71.376,332.484C71.336,332.532 71.27,332.606 71.178,332.706C71.086,332.806 70.964,332.904 70.812,333C70.66,333.096 70.482,333.18 70.278,333.252C70.074,333.324 69.836,333.36 69.564,333.36C69.212,333.36 68.884,333.292 68.58,333.156C68.276,333.02 68.012,332.828 67.788,332.58C67.564,332.332 67.39,332.03 67.266,331.674C67.142,331.318 67.08,330.92 67.08,330.48C67.08,329.952 67.172,329.498 67.356,329.118C67.54,328.738 67.774,328.426 68.058,328.182C68.342,327.938 68.65,327.76 68.982,327.648C69.314,327.536 69.628,327.48 69.924,327.48C70.324,327.48 70.636,327.528 70.86,327.624C71.084,327.72 71.256,327.792 71.376,327.84L71.376,325.188L72.456,325.188L72.456,332.622C72.456,332.802 72.46,332.992 72.468,333.192L71.412,333.192L71.376,332.484Z" style="fill:white;fill-rule:nonzero;"/>
            <path d="M34.89,249.172L36.234,249.172L36.234,243.712L34.674,244.552L34.23,243.7L36.354,242.536L37.326,242.536L37.326,249.172L38.646,249.172L38.646,250.132L34.89,250.132L34.89,249.172Z" style="fill:white;fill-rule:nonzero;"/>
            <path d="M43.014,245.584C43.398,245.464 43.706,245.288 43.938,245.056C44.17,244.824 44.286,244.552 44.286,244.24C44.286,243.944 44.17,243.698 43.938,243.502C43.706,243.306 43.398,243.208 43.014,243.208C42.63,243.208 42.322,243.306 42.09,243.502C41.858,243.698 41.742,243.964 41.742,244.3C41.742,244.572 41.852,244.824 42.072,245.056C42.292,245.288 42.606,245.464 43.014,245.584ZM42.966,246.508C42.75,246.564 42.546,246.642 42.354,246.742C42.162,246.842 41.994,246.958 41.85,247.09C41.706,247.222 41.592,247.37 41.508,247.534C41.424,247.698 41.382,247.876 41.382,248.068C41.382,248.308 41.432,248.514 41.532,248.686C41.632,248.858 41.76,248.998 41.916,249.106C42.072,249.214 42.246,249.292 42.438,249.34C42.63,249.388 42.822,249.412 43.014,249.412C43.206,249.412 43.398,249.388 43.59,249.34C43.782,249.292 43.956,249.214 44.112,249.106C44.268,248.998 44.394,248.858 44.49,248.686C44.586,248.514 44.634,248.308 44.634,248.068C44.634,247.876 44.588,247.698 44.496,247.534C44.404,247.37 44.28,247.222 44.124,247.09C43.968,246.958 43.79,246.842 43.59,246.742C43.39,246.642 43.182,246.564 42.966,246.508ZM41.85,246.004C41.53,245.836 41.258,245.612 41.034,245.332C40.81,245.052 40.698,244.708 40.698,244.3C40.698,244.02 40.752,243.76 40.86,243.52C40.968,243.28 41.122,243.074 41.322,242.902C41.522,242.73 41.764,242.596 42.048,242.5C42.332,242.404 42.654,242.356 43.014,242.356C43.39,242.356 43.722,242.404 44.01,242.5C44.298,242.596 44.538,242.728 44.73,242.896C44.922,243.064 45.068,243.262 45.168,243.49C45.268,243.718 45.318,243.964 45.318,244.228C45.318,244.604 45.214,244.944 45.006,245.248C44.798,245.552 44.502,245.792 44.118,245.968C44.262,246.032 44.428,246.12 44.616,246.232C44.804,246.344 44.982,246.488 45.15,246.664C45.318,246.84 45.46,247.046 45.576,247.282C45.692,247.518 45.75,247.788 45.75,248.092C45.75,248.348 45.7,248.608 45.6,248.872C45.5,249.136 45.34,249.376 45.12,249.592C44.9,249.808 44.616,249.984 44.268,250.12C43.92,250.256 43.502,250.324 43.014,250.324C42.51,250.324 42.084,250.256 41.736,250.12C41.388,249.984 41.106,249.808 40.89,249.592C40.674,249.376 40.516,249.138 40.416,248.878C40.316,248.618 40.266,248.36 40.266,248.104C40.266,247.84 40.31,247.6 40.398,247.384C40.486,247.168 40.604,246.972 40.752,246.796C40.9,246.62 41.07,246.466 41.262,246.334C41.454,246.202 41.65,246.092 41.85,246.004Z" style="fill:white;fill-rule:nonzero;"/>
            <path d="M49.542,250.3C49.07,250.3 48.656,250.204 48.3,250.012C47.944,249.82 47.644,249.548 47.4,249.196C47.156,248.844 46.972,248.42 46.848,247.924C46.724,247.428 46.662,246.876 46.662,246.268C46.662,245.668 46.724,245.128 46.848,244.648C46.972,244.168 47.158,243.758 47.406,243.418C47.654,243.078 47.956,242.816 48.312,242.632C48.668,242.448 49.082,242.356 49.554,242.356C50.018,242.356 50.43,242.448 50.79,242.632C51.15,242.816 51.452,243.078 51.696,243.418C51.94,243.758 52.124,244.168 52.248,244.648C52.372,245.128 52.434,245.668 52.434,246.268C52.434,246.876 52.372,247.428 52.248,247.924C52.124,248.42 51.938,248.844 51.69,249.196C51.442,249.548 51.138,249.82 50.778,250.012C50.418,250.204 50.006,250.3 49.542,250.3ZM49.542,249.304C49.83,249.304 50.084,249.23 50.304,249.082C50.524,248.934 50.708,248.726 50.856,248.458C51.004,248.19 51.116,247.87 51.192,247.498C51.268,247.126 51.306,246.716 51.306,246.268C51.306,245.828 51.268,245.428 51.192,245.068C51.116,244.708 51.002,244.402 50.85,244.15C50.698,243.898 50.514,243.704 50.298,243.568C50.082,243.432 49.83,243.364 49.542,243.364C49.254,243.364 49.002,243.432 48.786,243.568C48.57,243.704 48.388,243.898 48.24,244.15C48.092,244.402 47.98,244.708 47.904,245.068C47.828,245.428 47.79,245.828 47.79,246.268C47.79,246.716 47.828,247.126 47.904,247.498C47.98,247.87 48.092,248.19 48.24,248.458C48.388,248.726 48.57,248.934 48.786,249.082C49.002,249.23 49.254,249.304 49.542,249.304Z" style="fill:white;fill-rule:nonzero;"/>
            <path d="M53.166,243.82C53.166,243.588 53.208,243.374 53.292,243.178C53.376,242.982 53.492,242.812 53.64,242.668C53.788,242.524 53.96,242.412 54.156,242.332C54.352,242.252 54.566,242.212 54.798,242.212C55.03,242.212 55.246,242.252 55.446,242.332C55.646,242.412 55.82,242.524 55.968,242.668C56.116,242.812 56.232,242.982 56.316,243.178C56.4,243.374 56.442,243.584 56.442,243.808C56.442,244.04 56.4,244.254 56.316,244.45C56.232,244.646 56.116,244.816 55.968,244.96C55.82,245.104 55.646,245.216 55.446,245.296C55.246,245.376 55.034,245.416 54.81,245.416C54.578,245.416 54.362,245.376 54.162,245.296C53.962,245.216 53.788,245.104 53.64,244.96C53.492,244.816 53.376,244.648 53.292,244.456C53.208,244.264 53.166,244.052 53.166,243.82ZM54.81,244.696C55.058,244.696 55.264,244.612 55.428,244.444C55.592,244.276 55.674,244.064 55.674,243.808C55.674,243.568 55.592,243.364 55.428,243.196C55.264,243.028 55.054,242.944 54.798,242.944C54.558,242.944 54.356,243.028 54.192,243.196C54.028,243.364 53.946,243.572 53.946,243.82C53.946,244.068 54.028,244.276 54.192,244.444C54.356,244.612 54.562,244.696 54.81,244.696Z" style="fill:white;fill-rule:nonzero;"/>
            <path d="M37.74,207.414C37.764,207.43 37.816,207.46 37.896,207.504C37.976,207.548 38.078,207.594 38.202,207.642C38.326,207.69 38.466,207.732 38.622,207.768C38.778,207.804 38.944,207.822 39.12,207.822C39.456,207.822 39.748,207.752 39.996,207.612C40.244,207.472 40.45,207.286 40.614,207.054C40.778,206.822 40.902,206.552 40.986,206.244C41.07,205.936 41.12,205.618 41.136,205.29C40.992,205.41 40.778,205.538 40.494,205.674C40.21,205.81 39.832,205.878 39.36,205.878C39,205.878 38.676,205.816 38.388,205.692C38.1,205.568 37.854,205.396 37.65,205.176C37.446,204.956 37.29,204.694 37.182,204.39C37.074,204.086 37.02,203.75 37.02,203.382C37.02,203.006 37.084,202.662 37.212,202.35C37.34,202.038 37.516,201.768 37.74,201.54C37.964,201.312 38.23,201.136 38.538,201.012C38.846,200.888 39.18,200.826 39.54,200.826C40.388,200.826 41.05,201.128 41.526,201.732C42.002,202.336 42.24,203.246 42.24,204.462C42.24,205.126 42.174,205.724 42.042,206.256C41.91,206.788 41.712,207.24 41.448,207.612C41.184,207.984 40.856,208.272 40.464,208.476C40.072,208.68 39.616,208.782 39.096,208.782C38.888,208.782 38.69,208.764 38.502,208.728C38.314,208.692 38.14,208.65 37.98,208.602C37.82,208.554 37.68,208.502 37.56,208.446C37.44,208.39 37.344,208.338 37.272,208.29L37.74,207.414ZM41.148,204.318C41.148,203.534 41.022,202.918 40.77,202.47C40.518,202.022 40.112,201.798 39.552,201.798C39.36,201.798 39.174,201.832 38.994,201.9C38.814,201.968 38.656,202.07 38.52,202.206C38.384,202.342 38.272,202.51 38.184,202.71C38.096,202.91 38.052,203.138 38.052,203.394C38.052,203.602 38.08,203.796 38.136,203.976C38.192,204.156 38.278,204.314 38.394,204.45C38.51,204.586 38.66,204.694 38.844,204.774C39.028,204.854 39.252,204.894 39.516,204.894C39.916,204.894 40.242,204.838 40.494,204.726C40.746,204.614 40.964,204.478 41.148,204.318Z" style="fill:white;fill-rule:nonzero;"/>
            <path d="M46.272,208.77C45.8,208.77 45.386,208.674 45.03,208.482C44.674,208.29 44.374,208.018 44.13,207.666C43.886,207.314 43.702,206.89 43.578,206.394C43.454,205.898 43.392,205.346 43.392,204.738C43.392,204.138 43.454,203.598 43.578,203.118C43.702,202.638 43.888,202.228 44.136,201.888C44.384,201.548 44.686,201.286 45.042,201.102C45.398,200.918 45.812,200.826 46.284,200.826C46.748,200.826 47.16,200.918 47.52,201.102C47.88,201.286 48.182,201.548 48.426,201.888C48.67,202.228 48.854,202.638 48.978,203.118C49.102,203.598 49.164,204.138 49.164,204.738C49.164,205.346 49.102,205.898 48.978,206.394C48.854,206.89 48.668,207.314 48.42,207.666C48.172,208.018 47.868,208.29 47.508,208.482C47.148,208.674 46.736,208.77 46.272,208.77ZM46.272,207.774C46.56,207.774 46.814,207.7 47.034,207.552C47.254,207.404 47.438,207.196 47.586,206.928C47.734,206.66 47.846,206.34 47.922,205.968C47.998,205.596 48.036,205.186 48.036,204.738C48.036,204.298 47.998,203.898 47.922,203.538C47.846,203.178 47.732,202.872 47.58,202.62C47.428,202.368 47.244,202.174 47.028,202.038C46.812,201.902 46.56,201.834 46.272,201.834C45.984,201.834 45.732,201.902 45.516,202.038C45.3,202.174 45.118,202.368 44.97,202.62C44.822,202.872 44.71,203.178 44.634,203.538C44.558,203.898 44.52,204.298 44.52,204.738C44.52,205.186 44.558,205.596 44.634,205.968C44.71,206.34 44.822,206.66 44.97,206.928C45.118,207.196 45.3,207.404 45.516,207.552C45.732,207.7 45.984,207.774 46.272,207.774Z" style="fill:white;fill-rule:nonzero;"/>
            <path d="M49.896,202.29C49.896,202.058 49.938,201.844 50.022,201.648C50.106,201.452 50.222,201.282 50.37,201.138C50.518,200.994 50.69,200.882 50.886,200.802C51.082,200.722 51.296,200.682 51.528,200.682C51.76,200.682 51.976,200.722 52.176,200.802C52.376,200.882 52.55,200.994 52.698,201.138C52.846,201.282 52.962,201.452 53.046,201.648C53.13,201.844 53.172,202.054 53.172,202.278C53.172,202.51 53.13,202.724 53.046,202.92C52.962,203.116 52.846,203.286 52.698,203.43C52.55,203.574 52.376,203.686 52.176,203.766C51.976,203.846 51.764,203.886 51.54,203.886C51.308,203.886 51.092,203.846 50.892,203.766C50.692,203.686 50.518,203.574 50.37,203.43C50.222,203.286 50.106,203.118 50.022,202.926C49.938,202.734 49.896,202.522 49.896,202.29ZM51.54,203.166C51.788,203.166 51.994,203.082 52.158,202.914C52.322,202.746 52.404,202.534 52.404,202.278C52.404,202.038 52.322,201.834 52.158,201.666C51.994,201.498 51.784,201.414 51.528,201.414C51.288,201.414 51.086,201.498 50.922,201.666C50.758,201.834 50.676,202.042 50.676,202.29C50.676,202.538 50.758,202.746 50.922,202.914C51.086,203.082 51.292,203.166 51.54,203.166Z" style="fill:white;fill-rule:nonzero;"/>
        </g>
        <g transform="matrix(1,0,0,1,-29.6641,3.55271e-15)">
            <g transform="matrix(18,0,0,18,48.5776,28.8369)">
                <path d="M0.076,-0.667L0.287,-0.667C0.332,-0.667 0.37,-0.661 0.4,-0.648C0.429,-0.635 0.453,-0.619 0.47,-0.6C0.488,-0.581 0.5,-0.559 0.507,-0.535C0.515,-0.511 0.518,-0.488 0.518,-0.465C0.518,-0.432 0.512,-0.402 0.501,-0.377C0.49,-0.352 0.474,-0.331 0.454,-0.314C0.434,-0.297 0.41,-0.284 0.383,-0.275C0.355,-0.266 0.325,-0.262 0.292,-0.262L0.171,-0.262L0.171,-0L0.076,-0L0.076,-0.667ZM0.291,-0.344C0.332,-0.344 0.364,-0.355 0.387,-0.376C0.409,-0.397 0.42,-0.426 0.42,-0.463C0.42,-0.501 0.408,-0.531 0.386,-0.553C0.363,-0.574 0.331,-0.585 0.291,-0.585L0.171,-0.585L0.171,-0.344L0.291,-0.344Z" style="fill-rule:nonzero;"/>
            </g>
            <g transform="matrix(18,0,0,18,58.0546,28.8369)">
                <path d="M0.061,-0.667L0.15,-0.667L0.15,-0.396C0.156,-0.404 0.163,-0.413 0.172,-0.422C0.181,-0.431 0.191,-0.44 0.204,-0.448C0.217,-0.456 0.231,-0.463 0.248,-0.468C0.265,-0.473 0.284,-0.476 0.305,-0.476C0.366,-0.476 0.411,-0.458 0.44,-0.423C0.469,-0.388 0.484,-0.34 0.484,-0.279L0.484,-0L0.394,-0L0.394,-0.272C0.394,-0.315 0.385,-0.347 0.366,-0.368C0.347,-0.388 0.321,-0.398 0.287,-0.398C0.261,-0.398 0.239,-0.393 0.222,-0.382C0.205,-0.371 0.191,-0.358 0.181,-0.341C0.17,-0.324 0.163,-0.304 0.158,-0.282C0.153,-0.261 0.151,-0.239 0.151,-0.216L0.151,-0L0.061,-0L0.061,-0.667Z" style="fill-rule:nonzero;"/>
            </g>
            <g transform="matrix(18,0,0,18,67.4776,28.8369)">
                <path d="M0.352,-0.22C0.349,-0.221 0.344,-0.222 0.337,-0.223C0.329,-0.224 0.32,-0.224 0.31,-0.225C0.3,-0.226 0.289,-0.226 0.278,-0.227C0.267,-0.228 0.256,-0.228 0.245,-0.228C0.22,-0.228 0.199,-0.225 0.184,-0.219C0.168,-0.213 0.156,-0.205 0.147,-0.197C0.138,-0.188 0.131,-0.178 0.128,-0.167C0.125,-0.156 0.123,-0.145 0.123,-0.135C0.123,-0.11 0.132,-0.091 0.149,-0.078C0.166,-0.065 0.19,-0.058 0.221,-0.058C0.238,-0.058 0.255,-0.061 0.271,-0.067C0.286,-0.073 0.3,-0.081 0.312,-0.091C0.324,-0.101 0.334,-0.113 0.341,-0.126C0.348,-0.139 0.352,-0.153 0.352,-0.167L0.352,-0.22ZM0.353,-0.056C0.336,-0.033 0.313,-0.015 0.284,-0.004C0.256,0.007 0.227,0.013 0.197,0.013C0.178,0.013 0.159,0.01 0.14,0.005C0.121,0 0.103,-0.008 0.087,-0.02C0.072,-0.031 0.059,-0.046 0.05,-0.065C0.04,-0.083 0.035,-0.105 0.035,-0.132C0.035,-0.182 0.053,-0.222 0.087,-0.252C0.123,-0.282 0.173,-0.297 0.239,-0.297C0.25,-0.297 0.261,-0.297 0.273,-0.296C0.285,-0.295 0.296,-0.295 0.307,-0.294C0.318,-0.293 0.327,-0.293 0.335,-0.292C0.343,-0.291 0.349,-0.291 0.352,-0.29L0.352,-0.307C0.352,-0.342 0.342,-0.367 0.321,-0.382C0.3,-0.397 0.271,-0.404 0.235,-0.404C0.2,-0.404 0.172,-0.399 0.151,-0.39C0.13,-0.38 0.113,-0.37 0.099,-0.36L0.057,-0.421C0.065,-0.428 0.075,-0.434 0.086,-0.441C0.097,-0.448 0.111,-0.454 0.126,-0.46C0.141,-0.465 0.159,-0.47 0.178,-0.473C0.197,-0.477 0.22,-0.479 0.245,-0.479C0.305,-0.479 0.352,-0.465 0.387,-0.436C0.421,-0.406 0.438,-0.365 0.438,-0.312L0.438,-0.042C0.438,-0.025 0.438,-0.011 0.439,-0L0.355,-0L0.353,-0.056Z" style="fill-rule:nonzero;"/>
            </g>
            <g transform="matrix(18,0,0,18,76.1086,28.8369)">
                <path d="M0.092,-0.117C0.109,-0.1 0.129,-0.087 0.152,-0.077C0.175,-0.067 0.202,-0.062 0.233,-0.062C0.263,-0.062 0.288,-0.067 0.308,-0.077C0.328,-0.086 0.338,-0.101 0.338,-0.122C0.338,-0.133 0.336,-0.142 0.332,-0.15C0.327,-0.157 0.32,-0.164 0.31,-0.17C0.299,-0.176 0.285,-0.182 0.269,-0.187C0.252,-0.192 0.23,-0.197 0.205,-0.203C0.187,-0.207 0.169,-0.212 0.152,-0.219C0.134,-0.226 0.118,-0.234 0.104,-0.246C0.09,-0.257 0.079,-0.27 0.07,-0.285C0.061,-0.301 0.057,-0.32 0.057,-0.342C0.057,-0.365 0.062,-0.385 0.073,-0.402C0.083,-0.419 0.097,-0.433 0.114,-0.445C0.131,-0.456 0.151,-0.465 0.172,-0.471C0.194,-0.477 0.217,-0.48 0.24,-0.48C0.279,-0.48 0.313,-0.475 0.342,-0.465C0.37,-0.454 0.395,-0.44 0.416,-0.421L0.367,-0.359C0.353,-0.372 0.336,-0.382 0.315,-0.391C0.294,-0.4 0.269,-0.404 0.241,-0.404C0.212,-0.404 0.189,-0.399 0.172,-0.39C0.155,-0.381 0.146,-0.365 0.146,-0.344C0.146,-0.324 0.158,-0.309 0.181,-0.3C0.203,-0.29 0.234,-0.281 0.271,-0.272C0.293,-0.267 0.314,-0.261 0.333,-0.254C0.352,-0.247 0.368,-0.237 0.383,-0.227C0.397,-0.216 0.408,-0.202 0.417,-0.186C0.425,-0.17 0.429,-0.151 0.429,-0.128C0.429,-0.105 0.424,-0.084 0.413,-0.067C0.402,-0.049 0.388,-0.034 0.37,-0.022C0.352,-0.01 0.331,-0.001 0.308,0.005C0.285,0.011 0.26,0.014 0.235,0.014C0.147,0.014 0.081,-0.01 0.037,-0.057L0.092,-0.117Z" style="fill-rule:nonzero;"/>
            </g>
            <g transform="matrix(18,0,0,18,84.2536,28.8369)">
                <path d="M0.286,0.014C0.25,0.014 0.217,0.007 0.187,-0.006C0.157,-0.019 0.131,-0.036 0.11,-0.059C0.088,-0.082 0.071,-0.108 0.059,-0.138C0.046,-0.167 0.04,-0.199 0.04,-0.233C0.04,-0.267 0.046,-0.299 0.059,-0.329C0.071,-0.358 0.088,-0.384 0.11,-0.407C0.131,-0.43 0.157,-0.448 0.187,-0.461C0.217,-0.473 0.25,-0.48 0.286,-0.48C0.321,-0.48 0.354,-0.473 0.384,-0.461C0.414,-0.448 0.44,-0.43 0.462,-0.407C0.484,-0.384 0.501,-0.358 0.514,-0.329C0.526,-0.299 0.532,-0.267 0.532,-0.233C0.532,-0.199 0.526,-0.167 0.514,-0.138C0.501,-0.108 0.484,-0.082 0.462,-0.059C0.44,-0.036 0.414,-0.019 0.384,-0.006C0.354,0.007 0.321,0.014 0.286,0.014ZM0.286,-0.064C0.31,-0.064 0.332,-0.069 0.351,-0.079C0.37,-0.088 0.387,-0.101 0.4,-0.117C0.413,-0.132 0.424,-0.15 0.431,-0.171C0.438,-0.191 0.441,-0.212 0.441,-0.233C0.441,-0.254 0.438,-0.274 0.431,-0.295C0.424,-0.315 0.413,-0.333 0.4,-0.349C0.386,-0.365 0.37,-0.378 0.35,-0.388C0.332,-0.397 0.31,-0.402 0.286,-0.402C0.262,-0.402 0.24,-0.397 0.221,-0.388C0.202,-0.378 0.185,-0.365 0.172,-0.349C0.159,-0.334 0.149,-0.316 0.141,-0.296C0.135,-0.275 0.131,-0.254 0.131,-0.233C0.131,-0.212 0.135,-0.191 0.141,-0.171C0.149,-0.151 0.159,-0.133 0.172,-0.117C0.186,-0.101 0.203,-0.088 0.222,-0.079C0.241,-0.069 0.262,-0.064 0.286,-0.064Z" style="fill-rule:nonzero;"/>
            </g>
            <g transform="matrix(18,0,0,18,94.1986,28.8369)">
                <path d="M0.062,-0L0.062,-0.421C0.062,-0.435 0.062,-0.45 0.061,-0.465L0.147,-0.465L0.15,-0.39C0.155,-0.398 0.162,-0.407 0.171,-0.417C0.18,-0.426 0.19,-0.435 0.203,-0.443C0.215,-0.451 0.229,-0.458 0.246,-0.464C0.262,-0.469 0.281,-0.472 0.302,-0.472C0.312,-0.472 0.321,-0.471 0.33,-0.47C0.338,-0.469 0.346,-0.467 0.353,-0.464L0.333,-0.38C0.321,-0.385 0.306,-0.387 0.287,-0.387C0.268,-0.387 0.25,-0.383 0.234,-0.376C0.217,-0.369 0.203,-0.359 0.191,-0.345C0.179,-0.333 0.17,-0.317 0.163,-0.3C0.156,-0.283 0.152,-0.264 0.152,-0.245L0.152,-0L0.062,-0Z" style="fill-rule:nonzero;"/>
            </g>
            <g transform="matrix(18,0,0,18,31.0276,46.8369)">
                <path d="M0.549,-0.022C0.526,-0.01 0.5,-0.001 0.473,0.006C0.447,0.013 0.418,0.017 0.389,0.017C0.341,0.017 0.296,0.008 0.255,-0.011C0.213,-0.029 0.177,-0.054 0.146,-0.085C0.115,-0.116 0.091,-0.153 0.074,-0.196C0.057,-0.239 0.048,-0.284 0.048,-0.333C0.048,-0.382 0.057,-0.427 0.074,-0.47C0.091,-0.513 0.115,-0.55 0.146,-0.582C0.177,-0.613 0.213,-0.638 0.255,-0.657C0.296,-0.675 0.341,-0.684 0.389,-0.684C0.437,-0.684 0.482,-0.675 0.524,-0.657C0.565,-0.638 0.601,-0.613 0.632,-0.582C0.663,-0.55 0.687,-0.513 0.704,-0.47C0.721,-0.427 0.73,-0.382 0.73,-0.333C0.73,-0.279 0.72,-0.229 0.699,-0.184C0.678,-0.138 0.649,-0.099 0.612,-0.067L0.692,0.03L0.633,0.08L0.549,-0.022ZM0.408,-0.197L0.468,-0.247L0.553,-0.141C0.577,-0.164 0.596,-0.193 0.609,-0.227C0.622,-0.26 0.629,-0.296 0.629,-0.335C0.629,-0.371 0.623,-0.405 0.612,-0.437C0.601,-0.468 0.585,-0.496 0.564,-0.52C0.543,-0.543 0.517,-0.562 0.488,-0.576C0.459,-0.59 0.426,-0.597 0.389,-0.597C0.352,-0.597 0.319,-0.59 0.29,-0.576C0.261,-0.562 0.235,-0.543 0.215,-0.52C0.194,-0.496 0.177,-0.468 0.166,-0.437C0.155,-0.405 0.149,-0.371 0.149,-0.335C0.149,-0.299 0.155,-0.265 0.166,-0.234C0.177,-0.202 0.194,-0.174 0.215,-0.15C0.235,-0.126 0.261,-0.107 0.29,-0.093C0.319,-0.079 0.352,-0.072 0.389,-0.072C0.426,-0.072 0.46,-0.079 0.491,-0.094L0.408,-0.197Z" style="fill-rule:nonzero;"/>
            </g>
            <g transform="matrix(18,0,0,18,44.6986,46.8369)">
                <path d="M0.059,-0.465L0.149,-0.465L0.149,-0.192C0.149,-0.148 0.158,-0.116 0.176,-0.097C0.194,-0.077 0.22,-0.067 0.254,-0.067C0.28,-0.067 0.302,-0.072 0.319,-0.083C0.336,-0.094 0.349,-0.108 0.36,-0.125C0.371,-0.141 0.378,-0.161 0.383,-0.183C0.387,-0.204 0.389,-0.226 0.389,-0.249L0.389,-0.465L0.479,-0.465L0.479,-0.048C0.479,-0.033 0.479,-0.017 0.48,-0L0.394,-0L0.391,-0.069C0.385,-0.061 0.378,-0.052 0.369,-0.043C0.36,-0.034 0.35,-0.025 0.337,-0.018C0.324,-0.01 0.31,-0.003 0.293,0.002C0.276,0.007 0.257,0.01 0.236,0.01C0.175,0.01 0.131,-0.008 0.102,-0.043C0.073,-0.078 0.059,-0.125 0.059,-0.186L0.059,-0.465Z" style="fill-rule:nonzero;"/>
            </g>
            <g transform="matrix(18,0,0,18,54.1036,46.8369)">
                <path d="M0.352,-0.22C0.349,-0.221 0.344,-0.222 0.337,-0.223C0.329,-0.224 0.32,-0.224 0.31,-0.225C0.3,-0.226 0.289,-0.226 0.278,-0.227C0.267,-0.228 0.256,-0.228 0.245,-0.228C0.22,-0.228 0.199,-0.225 0.184,-0.219C0.168,-0.213 0.156,-0.205 0.147,-0.197C0.138,-0.188 0.131,-0.178 0.128,-0.167C0.125,-0.156 0.123,-0.145 0.123,-0.135C0.123,-0.11 0.132,-0.091 0.149,-0.078C0.166,-0.065 0.19,-0.058 0.221,-0.058C0.238,-0.058 0.255,-0.061 0.271,-0.067C0.286,-0.073 0.3,-0.081 0.312,-0.091C0.324,-0.101 0.334,-0.113 0.341,-0.126C0.348,-0.139 0.352,-0.153 0.352,-0.167L0.352,-0.22ZM0.353,-0.056C0.336,-0.033 0.313,-0.015 0.284,-0.004C0.256,0.007 0.227,0.013 0.197,0.013C0.178,0.013 0.159,0.01 0.14,0.005C0.121,0 0.103,-0.008 0.087,-0.02C0.072,-0.031 0.059,-0.046 0.05,-0.065C0.04,-0.083 0.035,-0.105 0.035,-0.132C0.035,-0.182 0.053,-0.222 0.087,-0.252C0.123,-0.282 0.173,-0.297 0.239,-0.297C0.25,-0.297 0.261,-0.297 0.273,-0.296C0.285,-0.295 0.296,-0.295 0.307,-0.294C0.318,-0.293 0.327,-0.293 0.335,-0.292C0.343,-0.291 0.349,-0.291 0.352,-0.29L0.352,-0.307C0.352,-0.342 0.342,-0.367 0.321,-0.382C0.3,-0.397 0.271,-0.404 0.235,-0.404C0.2,-0.404 0.172,-0.399 0.151,-0.39C0.13,-0.38 0.113,-0.37 0.099,-0.36L0.057,-0.421C0.065,-0.428 0.075,-0.434 0.086,-0.441C0.097,-0.448 0.111,-0.454 0.126,-0.46C0.141,-0.465 0.159,-0.47 0.178,-0.473C0.197,-0.477 0.22,-0.479 0.245,-0.479C0.305,-0.479 0.352,-0.465 0.387,-0.436C0.421,-0.406 0.438,-0.365 0.438,-0.312L0.438,-0.042C0.438,-0.025 0.438,-0.011 0.439,-0L0.355,-0L0.353,-0.056Z" style="fill-rule:nonzero;"/>
            </g>
            <g transform="matrix(18,0,0,18,62.7346,46.8369)">
                <path d="M0.397,-0.362C0.39,-0.367 0.378,-0.375 0.36,-0.384C0.342,-0.393 0.316,-0.397 0.283,-0.397C0.261,-0.397 0.241,-0.393 0.223,-0.385C0.204,-0.377 0.188,-0.366 0.174,-0.351C0.161,-0.336 0.15,-0.318 0.142,-0.297C0.135,-0.276 0.131,-0.252 0.131,-0.225C0.131,-0.203 0.134,-0.182 0.139,-0.163C0.144,-0.143 0.153,-0.126 0.164,-0.111C0.174,-0.096 0.189,-0.085 0.205,-0.077C0.223,-0.068 0.243,-0.064 0.266,-0.064C0.289,-0.064 0.309,-0.068 0.326,-0.077C0.343,-0.086 0.356,-0.097 0.367,-0.11C0.377,-0.123 0.385,-0.137 0.39,-0.153C0.395,-0.168 0.397,-0.183 0.397,-0.196L0.397,-0.362ZM0.397,-0.059C0.394,-0.055 0.388,-0.049 0.381,-0.041C0.373,-0.032 0.363,-0.024 0.35,-0.016C0.337,-0.008 0.323,-0.001 0.306,0.005C0.289,0.011 0.269,0.014 0.246,0.014C0.217,0.014 0.189,0.008 0.164,-0.003C0.139,-0.014 0.117,-0.03 0.098,-0.051C0.079,-0.072 0.065,-0.097 0.055,-0.127C0.044,-0.156 0.039,-0.189 0.039,-0.226C0.039,-0.27 0.047,-0.308 0.062,-0.34C0.077,-0.371 0.097,-0.397 0.121,-0.418C0.144,-0.438 0.17,-0.453 0.198,-0.462C0.225,-0.471 0.251,-0.476 0.276,-0.476C0.309,-0.476 0.335,-0.472 0.354,-0.464C0.373,-0.456 0.387,-0.45 0.397,-0.446L0.397,-0.667L0.487,-0.667L0.487,-0.048C0.487,-0.033 0.487,-0.017 0.488,-0L0.4,-0L0.397,-0.059Z" style="fill-rule:nonzero;"/>
            </g>
            <g transform="matrix(18,0,0,18,72.2836,46.8369)">
                <path d="M0.062,-0L0.062,-0.421C0.062,-0.435 0.062,-0.45 0.061,-0.465L0.147,-0.465L0.15,-0.39C0.155,-0.398 0.162,-0.407 0.171,-0.417C0.18,-0.426 0.19,-0.435 0.203,-0.443C0.215,-0.451 0.229,-0.458 0.246,-0.464C0.262,-0.469 0.281,-0.472 0.302,-0.472C0.312,-0.472 0.321,-0.471 0.33,-0.47C0.338,-0.469 0.346,-0.467 0.353,-0.464L0.333,-0.38C0.321,-0.385 0.306,-0.387 0.287,-0.387C0.268,-0.387 0.25,-0.383 0.234,-0.376C0.217,-0.369 0.203,-0.359 0.191,-0.345C0.179,-0.333 0.17,-0.317 0.163,-0.3C0.156,-0.283 0.152,-0.264 0.152,-0.245L0.152,-0L0.062,-0Z" style="fill-rule:nonzero;"/>
            </g>
            <g transform="matrix(18,0,0,18,78.0346,46.8369)">
                <path d="M0.352,-0.22C0.349,-0.221 0.344,-0.222 0.337,-0.223C0.329,-0.224 0.32,-0.224 0.31,-0.225C0.3,-0.226 0.289,-0.226 0.278,-0.227C0.267,-0.228 0.256,-0.228 0.245,-0.228C0.22,-0.228 0.199,-0.225 0.184,-0.219C0.168,-0.213 0.156,-0.205 0.147,-0.197C0.138,-0.188 0.131,-0.178 0.128,-0.167C0.125,-0.156 0.123,-0.145 0.123,-0.135C0.123,-0.11 0.132,-0.091 0.149,-0.078C0.166,-0.065 0.19,-0.058 0.221,-0.058C0.238,-0.058 0.255,-0.061 0.271,-0.067C0.286,-0.073 0.3,-0.081 0.312,-0.091C0.324,-0.101 0.334,-0.113 0.341,-0.126C0.348,-0.139 0.352,-0.153 0.352,-0.167L0.352,-0.22ZM0.353,-0.056C0.336,-0.033 0.313,-0.015 0.284,-0.004C0.256,0.007 0.227,0.013 0.197,0.013C0.178,0.013 0.159,0.01 0.14,0.005C0.121,0 0.103,-0.008 0.087,-0.02C0.072,-0.031 0.059,-0.046 0.05,-0.065C0.04,-0.083 0.035,-0.105 0.035,-0.132C0.035,-0.182 0.053,-0.222 0.087,-0.252C0.123,-0.282 0.173,-0.297 0.239,-0.297C0.25,-0.297 0.261,-0.297 0.273,-0.296C0.285,-0.295 0.296,-0.295 0.307,-0.294C0.318,-0.293 0.327,-0.293 0.335,-0.292C0.343,-0.291 0.349,-0.291 0.352,-0.29L0.352,-0.307C0.352,-0.342 0.342,-0.367 0.321,-0.382C0.3,-0.397 0.271,-0.404 0.235,-0.404C0.2,-0.404 0.172,-0.399 0.151,-0.39C0.13,-0.38 0.113,-0.37 0.099,-0.36L0.057,-0.421C0.065,-0.428 0.075,-0.434 0.086,-0.441C0.097,-0.448 0.111,-0.454 0.126,-0.46C0.141,-0.465 0.159,-0.47 0.178,-0.473C0.197,-0.477 0.22,-0.479 0.245,-0.479C0.305,-0.479 0.352,-0.465 0.387,-0.436C0.421,-0.406 0.438,-0.365 0.438,-0.312L0.438,-0.042C0.438,-0.025 0.438,-0.011 0.439,-0L0.355,-0L0.353,-0.056Z" style="fill-rule:nonzero;"/>
            </g>
            <g transform="matrix(18,0,0,18,86.6656,46.8369)">
                <path d="M0.102,-0.39L0.018,-0.39L0.018,-0.465L0.102,-0.465L0.102,-0.617L0.192,-0.617L0.192,-0.465L0.328,-0.465L0.328,-0.39L0.192,-0.39L0.192,-0.161C0.192,-0.124 0.198,-0.098 0.21,-0.084C0.221,-0.07 0.238,-0.063 0.259,-0.063C0.276,-0.063 0.291,-0.066 0.302,-0.071C0.313,-0.076 0.325,-0.084 0.336,-0.095L0.377,-0.04C0.358,-0.021 0.338,-0.008 0.318,0C0.297,0.009 0.273,0.013 0.245,0.013C0.196,0.013 0.16,-0 0.137,-0.027C0.114,-0.054 0.102,-0.095 0.102,-0.152L0.102,-0.39Z" style="fill-rule:nonzero;"/>
            </g>
            <g transform="matrix(18,0,0,18,93.0466,46.8369)">
                <path d="M0.059,-0.465L0.149,-0.465L0.149,-0.192C0.149,-0.148 0.158,-0.116 0.176,-0.097C0.194,-0.077 0.22,-0.067 0.254,-0.067C0.28,-0.067 0.302,-0.072 0.319,-0.083C0.336,-0.094 0.349,-0.108 0.36,-0.125C0.371,-0.141 0.378,-0.161 0.383,-0.183C0.387,-0.204 0.389,-0.226 0.389,-0.249L0.389,-0.465L0.479,-0.465L0.479,-0.048C0.479,-0.033 0.479,-0.017 0.48,-0L0.394,-0L0.391,-0.069C0.385,-0.061 0.378,-0.052 0.369,-0.043C0.36,-0.034 0.35,-0.025 0.337,-0.018C0.324,-0.01 0.31,-0.003 0.293,0.002C0.276,0.007 0.257,0.01 0.236,0.01C0.175,0.01 0.131,-0.008 0.102,-0.043C0.073,-0.078 0.059,-0.125 0.059,-0.186L0.059,-0.465Z" style="fill-rule:nonzero;"/>
            </g>
            <g transform="matrix(18,0,0,18,102.452,46.8369)">
                <path d="M0.062,-0L0.062,-0.421C0.062,-0.435 0.062,-0.45 0.061,-0.465L0.147,-0.465L0.15,-0.39C0.155,-0.398 0.162,-0.407 0.171,-0.417C0.18,-0.426 0.19,-0.435 0.203,-0.443C0.215,-0.451 0.229,-0.458 0.246,-0.464C0.262,-0.469 0.281,-0.472 0.302,-0.472C0.312,-0.472 0.321,-0.471 0.33,-0.47C0.338,-0.469 0.346,-0.467 0.353,-0.464L0.333,-0.38C0.321,-0.385 0.306,-0.387 0.287,-0.387C0.268,-0.387 0.25,-0.383 0.234,-0.376C0.217,-0.369 0.203,-0.359 0.191,-0.345C0.179,-0.333 0.17,-0.317 0.163,-0.3C0.156,-0.283 0.152,-0.264 0.152,-0.245L0.152,-0L0.062,-0Z" style="fill-rule:nonzero;"/>
            </g>
            <g transform="matrix(18,0,0,18,108.653,46.8369)">
                <path d="M0.486,-0.068C0.481,-0.062 0.473,-0.054 0.462,-0.045C0.451,-0.036 0.438,-0.027 0.421,-0.018C0.404,-0.009 0.384,-0.002 0.361,0.004C0.338,0.011 0.311,0.014 0.282,0.014C0.246,0.014 0.213,0.008 0.183,-0.004C0.153,-0.016 0.127,-0.033 0.106,-0.055C0.085,-0.077 0.068,-0.103 0.057,-0.134C0.045,-0.165 0.039,-0.199 0.039,-0.236C0.039,-0.27 0.045,-0.302 0.056,-0.332C0.067,-0.361 0.083,-0.387 0.104,-0.408C0.125,-0.43 0.149,-0.447 0.178,-0.46C0.206,-0.473 0.237,-0.479 0.271,-0.479C0.311,-0.479 0.345,-0.471 0.374,-0.456C0.403,-0.441 0.426,-0.42 0.445,-0.395C0.463,-0.37 0.476,-0.341 0.485,-0.308C0.494,-0.275 0.498,-0.241 0.498,-0.206L0.131,-0.206C0.132,-0.185 0.136,-0.166 0.145,-0.149C0.153,-0.132 0.164,-0.117 0.178,-0.104C0.192,-0.091 0.208,-0.081 0.226,-0.074C0.244,-0.067 0.263,-0.063 0.283,-0.063C0.322,-0.063 0.355,-0.07 0.38,-0.083C0.405,-0.096 0.424,-0.109 0.435,-0.122L0.486,-0.068ZM0.405,-0.273C0.402,-0.309 0.39,-0.34 0.367,-0.365C0.344,-0.39 0.312,-0.403 0.271,-0.403C0.25,-0.403 0.231,-0.399 0.214,-0.392C0.197,-0.385 0.182,-0.375 0.17,-0.363C0.158,-0.351 0.149,-0.337 0.142,-0.322C0.135,-0.306 0.132,-0.29 0.131,-0.273L0.405,-0.273Z" style="fill-rule:nonzero;"/>
            </g>
        </g>
        <rect x="41.154" y="88.552" width="1.152" height="8.004" style="fill-rule:nonzero;"/>
        <path d="M43.974,96.556L43.974,91.546C43.974,91.366 43.97,91.176 43.962,90.976L44.994,90.976L45.03,91.816C45.102,91.72 45.19,91.614 45.294,91.498C45.398,91.382 45.526,91.276 45.678,91.18C45.83,91.084 46.008,91.004 46.212,90.94C46.416,90.876 46.646,90.844 46.902,90.844C47.63,90.844 48.17,91.056 48.522,91.48C48.874,91.904 49.05,92.48 49.05,93.208L49.05,96.556L47.97,96.556L47.97,93.292C47.97,92.772 47.858,92.39 47.634,92.146C47.41,91.902 47.094,91.78 46.686,91.78C46.374,91.78 46.114,91.844 45.906,91.972C45.698,92.1 45.532,92.266 45.408,92.47C45.284,92.674 45.194,92.906 45.138,93.166C45.082,93.426 45.054,93.692 45.054,93.964L45.054,96.556L43.974,96.556Z" style="fill-rule:nonzero;"/>
        <path d="M9.269,108.694L11.825,108.694C12.337,108.694 12.769,108.764 13.121,108.904C13.473,109.044 13.759,109.224 13.979,109.444C14.199,109.664 14.359,109.914 14.459,110.194C14.559,110.474 14.609,110.758 14.609,111.046C14.609,111.558 14.489,112.01 14.249,112.402C14.009,112.794 13.637,113.086 13.133,113.278L15.005,116.698L13.709,116.698L11.993,113.422L10.385,113.422L10.385,116.698L9.269,116.698L9.269,108.694ZM11.921,112.45C12.425,112.45 12.803,112.326 13.055,112.078C13.307,111.83 13.433,111.498 13.433,111.082C13.433,110.642 13.297,110.3 13.025,110.056C12.753,109.812 12.377,109.69 11.897,109.69L10.385,109.69L10.385,112.45L11.921,112.45Z" style="fill-rule:nonzero;"/>
        <path d="M19.433,114.058C19.401,114.05 19.339,114.04 19.247,114.028C19.155,114.016 19.049,114.006 18.929,113.998C18.809,113.99 18.681,113.982 18.545,113.974C18.409,113.966 18.277,113.962 18.149,113.962C17.845,113.962 17.599,113.998 17.411,114.07C17.223,114.142 17.075,114.232 16.967,114.34C16.859,114.448 16.785,114.568 16.745,114.7C16.705,114.832 16.685,114.958 16.685,115.078C16.685,115.382 16.789,115.612 16.997,115.768C17.205,115.924 17.493,116.002 17.861,116.002C18.069,116.002 18.267,115.966 18.455,115.894C18.643,115.822 18.809,115.726 18.953,115.606C19.097,115.486 19.213,115.346 19.301,115.186C19.389,115.026 19.433,114.862 19.433,114.694L19.433,114.058ZM19.445,116.026C19.237,116.306 18.963,116.514 18.623,116.65C18.283,116.786 17.933,116.854 17.573,116.854C17.341,116.854 17.111,116.824 16.883,116.764C16.655,116.704 16.447,116.604 16.259,116.464C16.071,116.324 15.919,116.144 15.803,115.924C15.687,115.704 15.629,115.434 15.629,115.114C15.629,114.514 15.839,114.034 16.259,113.674C16.679,113.314 17.285,113.134 18.077,113.134C18.205,113.134 18.341,113.138 18.485,113.146C18.629,113.154 18.765,113.162 18.893,113.17C19.021,113.178 19.133,113.186 19.229,113.194C19.325,113.202 19.393,113.21 19.433,113.218L19.433,113.014C19.433,112.598 19.307,112.3 19.055,112.12C18.803,111.94 18.461,111.85 18.029,111.85C17.605,111.85 17.269,111.908 17.021,112.024C16.773,112.14 16.565,112.258 16.397,112.378L15.893,111.646C15.989,111.566 16.105,111.486 16.241,111.406C16.377,111.326 16.537,111.252 16.721,111.184C16.905,111.116 17.113,111.06 17.345,111.016C17.577,110.972 17.845,110.95 18.149,110.95C18.869,110.95 19.435,111.124 19.847,111.472C20.259,111.82 20.465,112.314 20.465,112.954L20.465,116.2C20.465,116.396 20.469,116.562 20.477,116.698L19.469,116.698L19.445,116.026Z" style="fill-rule:nonzero;"/>
        <path d="M21.953,116.698L21.953,111.688C21.953,111.508 21.949,111.318 21.941,111.118L22.973,111.118L23.009,111.958C23.073,111.862 23.157,111.756 23.261,111.64C23.365,111.524 23.489,111.418 23.633,111.322C23.777,111.226 23.947,111.146 24.143,111.082C24.339,111.018 24.565,110.986 24.821,110.986C25.253,110.986 25.611,111.072 25.895,111.244C26.179,111.416 26.401,111.666 26.561,111.994C26.785,111.73 27.059,111.496 27.383,111.292C27.707,111.088 28.109,110.986 28.589,110.986C29.309,110.986 29.841,111.2 30.185,111.628C30.529,112.056 30.701,112.63 30.701,113.35L30.701,116.698L29.621,116.698L29.621,113.434C29.621,112.914 29.519,112.532 29.315,112.288C29.111,112.044 28.813,111.922 28.421,111.922C28.197,111.922 27.991,111.968 27.803,112.06C27.615,112.152 27.451,112.274 27.311,112.426C27.171,112.578 27.063,112.756 26.987,112.96C26.911,113.164 26.873,113.378 26.873,113.602L26.873,116.698L25.793,116.698L25.793,113.434C25.793,112.914 25.691,112.532 25.487,112.288C25.283,112.044 24.989,111.922 24.605,111.922C24.309,111.922 24.061,111.986 23.861,112.114C23.661,112.242 23.499,112.408 23.375,112.612C23.251,112.816 23.163,113.05 23.111,113.314C23.059,113.578 23.033,113.842 23.033,114.106L23.033,116.698L21.953,116.698Z" style="fill-rule:nonzero;"/>
        <path d="M32.165,119.098L32.165,111.688C32.165,111.508 32.161,111.318 32.153,111.118L33.185,111.118L33.221,111.91C33.277,111.838 33.357,111.75 33.461,111.646C33.565,111.542 33.695,111.442 33.851,111.346C34.007,111.25 34.189,111.168 34.397,111.1C34.605,111.032 34.845,110.998 35.117,110.998C35.549,110.998 35.923,111.078 36.239,111.238C36.555,111.398 36.817,111.614 37.025,111.886C37.233,112.158 37.387,112.47 37.487,112.822C37.587,113.174 37.637,113.546 37.637,113.938C37.637,114.442 37.551,114.878 37.379,115.246C37.207,115.614 36.983,115.918 36.707,116.158C36.431,116.398 36.123,116.576 35.783,116.692C35.443,116.808 35.109,116.866 34.781,116.866C34.405,116.866 34.103,116.828 33.875,116.752C33.647,116.676 33.433,116.594 33.233,116.506L33.233,119.098L32.165,119.098ZM33.233,115.486C33.361,115.59 33.545,115.69 33.785,115.786C34.025,115.882 34.325,115.93 34.685,115.93C34.957,115.93 35.207,115.88 35.435,115.78C35.663,115.68 35.859,115.54 36.023,115.36C36.187,115.18 36.313,114.97 36.401,114.73C36.489,114.49 36.533,114.226 36.533,113.938C36.533,113.666 36.503,113.41 36.443,113.17C36.383,112.93 36.287,112.718 36.155,112.534C36.023,112.35 35.853,112.204 35.645,112.096C35.437,111.988 35.181,111.934 34.877,111.934C34.493,111.934 34.165,112.04 33.893,112.252C33.621,112.464 33.429,112.774 33.317,113.182C33.277,113.31 33.253,113.448 33.245,113.596C33.237,113.744 33.233,113.898 33.233,114.058L33.233,115.486Z" style="fill-rule:nonzero;"/>
        <path d="M56.479,114.754C56.591,114.882 56.717,115.012 56.857,115.144C56.997,115.276 57.155,115.394 57.331,115.498C57.507,115.602 57.703,115.686 57.919,115.75C58.135,115.814 58.371,115.846 58.627,115.846C59.155,115.846 59.567,115.726 59.863,115.486C60.159,115.246 60.307,114.922 60.307,114.514C60.307,114.074 60.139,113.744 59.803,113.524C59.467,113.304 58.983,113.126 58.351,112.99C58.007,112.918 57.695,112.818 57.415,112.69C57.135,112.562 56.893,112.402 56.689,112.21C56.485,112.018 56.327,111.796 56.215,111.544C56.103,111.292 56.047,111.006 56.047,110.686C56.047,110.39 56.103,110.11 56.215,109.846C56.327,109.582 56.495,109.35 56.719,109.15C56.943,108.95 57.223,108.79 57.559,108.67C57.895,108.55 58.283,108.49 58.723,108.49C59.115,108.49 59.453,108.532 59.737,108.616C60.021,108.7 60.263,108.802 60.463,108.922C60.663,109.042 60.823,109.166 60.943,109.294C61.063,109.422 61.155,109.526 61.219,109.606L60.451,110.314C60.403,110.258 60.331,110.184 60.235,110.092C60.139,110 60.017,109.91 59.869,109.822C59.721,109.734 59.549,109.66 59.353,109.6C59.157,109.54 58.931,109.51 58.675,109.51C58.419,109.51 58.199,109.544 58.015,109.612C57.831,109.68 57.679,109.768 57.559,109.876C57.439,109.984 57.351,110.106 57.295,110.242C57.239,110.378 57.211,110.514 57.211,110.65C57.211,110.85 57.253,111.02 57.337,111.16C57.421,111.3 57.543,111.424 57.703,111.532C57.863,111.64 58.061,111.732 58.297,111.808C58.533,111.884 58.803,111.958 59.107,112.03C59.403,112.102 59.693,112.196 59.977,112.312C60.261,112.428 60.515,112.584 60.739,112.78C60.963,112.976 61.141,113.216 61.273,113.5C61.405,113.784 61.471,114.13 61.471,114.538C61.471,114.882 61.399,115.198 61.255,115.486C61.111,115.774 60.913,116.024 60.661,116.236C60.409,116.448 60.111,116.612 59.767,116.728C59.423,116.844 59.051,116.902 58.651,116.902C58.275,116.902 57.933,116.858 57.625,116.77C57.317,116.682 57.037,116.57 56.785,116.434C56.533,116.298 56.313,116.148 56.125,115.984C55.937,115.82 55.783,115.658 55.663,115.498L56.479,114.754Z" style="fill-rule:nonzero;"/>
        <path d="M62.935,108.91L64.147,108.91L64.147,110.122L62.935,110.122L62.935,108.91ZM63.007,111.118L64.087,111.118L64.087,116.698L63.007,116.698L63.007,111.118Z" style="fill-rule:nonzero;"/>
        <path d="M65.635,116.698L65.635,111.688C65.635,111.508 65.631,111.318 65.623,111.118L66.655,111.118L66.691,111.958C66.763,111.862 66.851,111.756 66.955,111.64C67.059,111.524 67.187,111.418 67.339,111.322C67.491,111.226 67.669,111.146 67.873,111.082C68.077,111.018 68.307,110.986 68.563,110.986C69.291,110.986 69.831,111.198 70.183,111.622C70.535,112.046 70.711,112.622 70.711,113.35L70.711,116.698L69.631,116.698L69.631,113.434C69.631,112.914 69.519,112.532 69.295,112.288C69.071,112.044 68.755,111.922 68.347,111.922C68.035,111.922 67.775,111.986 67.567,112.114C67.359,112.242 67.193,112.408 67.069,112.612C66.945,112.816 66.855,113.048 66.799,113.308C66.743,113.568 66.715,113.834 66.715,114.106L66.715,116.698L65.635,116.698Z" style="fill-rule:nonzero;"/>
        <path d="M77.263,115.882C77.199,115.954 77.103,116.046 76.975,116.158C76.847,116.27 76.681,116.378 76.477,116.482C76.273,116.586 76.033,116.676 75.757,116.752C75.481,116.828 75.167,116.866 74.815,116.866C74.383,116.866 73.987,116.794 73.627,116.65C73.267,116.506 72.959,116.302 72.703,116.038C72.447,115.774 72.249,115.458 72.109,115.09C71.969,114.722 71.899,114.314 71.899,113.866C71.899,113.458 71.967,113.076 72.103,112.72C72.239,112.364 72.431,112.056 72.679,111.796C72.927,111.536 73.221,111.33 73.561,111.178C73.901,111.026 74.275,110.95 74.683,110.95C75.163,110.95 75.575,111.042 75.919,111.226C76.263,111.41 76.545,111.654 76.765,111.958C76.985,112.262 77.147,112.61 77.251,113.002C77.355,113.394 77.407,113.802 77.407,114.226L73.003,114.226C73.011,114.474 73.065,114.702 73.165,114.91C73.265,115.118 73.399,115.298 73.567,115.45C73.735,115.602 73.927,115.722 74.143,115.81C74.359,115.898 74.587,115.942 74.827,115.942C75.299,115.942 75.687,115.862 75.991,115.702C76.295,115.542 76.515,115.386 76.651,115.234L77.263,115.882ZM76.291,113.422C76.259,112.99 76.107,112.622 75.835,112.318C75.563,112.014 75.179,111.862 74.683,111.862C74.427,111.862 74.197,111.906 73.993,111.994C73.789,112.082 73.615,112.198 73.471,112.342C73.327,112.486 73.215,112.652 73.135,112.84C73.055,113.028 73.011,113.222 73.003,113.422L76.291,113.422Z" style="fill-rule:nonzero;"/>
    </g>
</svg>
