<?xml version="1.0" encoding="UTF-8" standalone="no"?>
<!DOCTYPE svg PUBLIC "-//W3C//DTD SVG 1.1//EN" "http://www.w3.org/Graphics/SVG/1.1/DTD/svg11.dtd">
<svg width="100%" height="100%" viewBox="0 0 240 380" version="1.1" xmlns="http://www.w3.org/2000/svg" xmlns:xlink="http://www.w3.org/1999/xlink" xml:space="preserve" xmlns:serif="http://www.serif.com/" style="fill-rule:evenodd;clip-rule:evenodd;stroke-linecap:round;stroke-linejoin:round;stroke-miterlimit:1.5;">
    <g id="svg8">
        <rect x="0" y="0" width="240" height="380" style="fill:rgb(240,240,240);"/>
        <g id="HCV-Logo" serif:id="HCV Logo">
            <path d="M95.548,374.578L93.942,374.578L93.942,369.247L87.866,369.247L87.866,374.578L86.26,374.578L86.26,363.154L87.866,363.154L87.866,367.873L93.942,367.873L93.942,363.154L95.548,363.154L95.548,374.578Z" style="fill:rgb(35,31,32);fill-rule:nonzero;"/>
            <path d="M103.755,374.578L96.934,374.578L96.934,363.154L103.623,363.154L103.623,364.496L98.54,364.496L98.54,367.906L103.341,367.906L103.341,369.247L98.54,369.247L98.54,373.221L103.755,373.221L103.755,374.578Z" style="fill:rgb(35,31,32);fill-rule:nonzero;"/>
            <path d="M112.629,364.496L109.417,364.496L109.417,374.578L107.811,374.578L107.811,364.496L104.583,364.496L104.583,363.154L112.629,363.154L112.629,364.496Z" style="fill:rgb(35,31,32);fill-rule:nonzero;"/>
            <path d="M118.339,364.877C117.826,364.496 117.213,364.463 116.419,364.463L115.243,364.463L115.243,368.337L116.419,368.337C117.213,368.337 117.826,368.304 118.339,367.94C118.853,367.559 119.068,367.095 119.068,366.399C119.068,365.721 118.853,365.241 118.339,364.877M121.386,374.578L119.448,374.578L116.468,369.661L115.243,369.661L115.243,374.578L113.637,374.578L113.637,363.154L116.865,363.154C118.008,363.154 118.935,363.42 119.614,363.949C120.293,364.496 120.723,365.323 120.723,366.366C120.723,368.37 119.332,369.264 118.124,369.496L121.386,374.578Z" style="fill:rgb(35,31,32);fill-rule:nonzero;"/>
            <rect x="122.578" y="363.154" width="1.605" height="11.424" style="fill:rgb(35,31,32);"/>
            <path d="M135.306,373.088C134.594,373.883 133.303,374.777 131.134,374.777C127.805,374.777 125.289,372.442 125.289,368.883C125.289,365.323 127.855,362.989 131.134,362.989C133.27,362.989 134.561,363.883 135.189,364.496L134.511,365.787C134.064,365.225 132.789,364.397 131.201,364.397C128.733,364.397 126.946,366.168 126.946,368.85C126.946,371.532 128.749,373.304 131.201,373.304C132.706,373.304 133.866,372.725 134.611,371.913L135.306,373.088Z" style="fill:rgb(237,50,36);fill-rule:nonzero;"/>
            <path d="M145.216,374.578L143.263,374.578L139.471,368.849L138.296,370.042L138.296,374.578L136.69,374.578L136.69,363.154L138.296,363.154L138.296,368.022L142.948,363.154L144.902,363.154L140.547,367.658L145.216,374.578Z" style="fill:rgb(237,50,36);fill-rule:nonzero;"/>
            <path d="M145.216,374.578L143.263,374.578L139.471,368.849L138.296,370.042L138.296,374.578L136.69,374.578L136.69,370.019L138.296,370.042L139.471,368.849L140.547,367.658L141.164,368.571L141.661,369.308L145.216,374.578Z" style="fill-rule:nonzero;"/>
        </g>
        <g id="Out">
            <path d="M234.096,302.052C234.096,298.741 231.407,296.052 228.096,296.052L11.904,296.052C8.593,296.052 5.904,298.741 5.904,302.052L5.904,350.052C5.904,353.364 8.593,356.052 11.904,356.052L228.096,356.052C231.407,356.052 234.096,353.364 234.096,350.052L234.096,302.052Z"/>
            <path d="M154.951,344.163L157.759,344.163L157.759,347.355C157.607,347.491 157.433,347.623 157.237,347.751C157.041,347.879 156.813,347.993 156.553,348.093C156.293,348.193 156.003,348.273 155.683,348.333C155.363,348.393 155.003,348.423 154.603,348.423C153.979,348.423 153.417,348.317 152.917,348.105C152.417,347.893 151.989,347.601 151.633,347.229C151.277,346.857 151.005,346.417 150.817,345.909C150.629,345.401 150.535,344.847 150.535,344.247C150.535,343.663 150.633,343.115 150.829,342.603C151.025,342.091 151.299,341.645 151.651,341.265C152.003,340.885 152.425,340.585 152.917,340.365C153.409,340.145 153.955,340.035 154.555,340.035C154.979,340.035 155.359,340.085 155.695,340.185C156.031,340.285 156.325,340.413 156.577,340.569C156.829,340.725 157.043,340.895 157.219,341.079C157.395,341.263 157.543,341.439 157.663,341.607L156.847,342.303C156.751,342.167 156.635,342.025 156.499,341.877C156.363,341.729 156.203,341.595 156.019,341.475C155.835,341.355 155.625,341.255 155.389,341.175C155.153,341.095 154.883,341.055 154.579,341.055C154.139,341.055 153.743,341.139 153.391,341.307C153.039,341.475 152.741,341.703 152.497,341.991C152.253,342.279 152.065,342.617 151.933,343.005C151.801,343.393 151.735,343.803 151.735,344.235C151.735,344.699 151.807,345.123 151.951,345.507C152.095,345.891 152.297,346.221 152.557,346.497C152.817,346.773 153.123,346.989 153.475,347.145C153.827,347.301 154.215,347.379 154.639,347.379C155.103,347.379 155.497,347.327 155.821,347.223C156.145,347.119 156.423,346.975 156.655,346.791L156.655,345.159L154.951,345.159L154.951,344.163Z" style="fill:white;fill-rule:nonzero;"/>
            <path d="M162.799,345.591C162.767,345.583 162.705,345.573 162.613,345.561C162.521,345.549 162.415,345.539 162.295,345.531C162.175,345.523 162.047,345.515 161.911,345.507C161.775,345.499 161.643,345.495 161.515,345.495C161.211,345.495 160.965,345.531 160.777,345.603C160.589,345.675 160.441,345.765 160.333,345.873C160.225,345.981 160.151,346.101 160.111,346.233C160.071,346.365 160.051,346.491 160.051,346.611C160.051,346.915 160.155,347.145 160.363,347.301C160.571,347.457 160.859,347.535 161.227,347.535C161.435,347.535 161.633,347.499 161.821,347.427C162.009,347.355 162.175,347.259 162.319,347.139C162.463,347.019 162.579,346.879 162.667,346.719C162.755,346.559 162.799,346.395 162.799,346.227L162.799,345.591ZM162.811,347.559C162.603,347.839 162.329,348.047 161.989,348.183C161.649,348.319 161.299,348.387 160.939,348.387C160.707,348.387 160.477,348.357 160.249,348.297C160.021,348.237 159.813,348.137 159.625,347.997C159.437,347.857 159.285,347.677 159.169,347.457C159.053,347.237 158.995,346.967 158.995,346.647C158.995,346.047 159.205,345.567 159.625,345.207C160.045,344.847 160.651,344.667 161.443,344.667C161.571,344.667 161.707,344.671 161.851,344.679C161.995,344.687 162.131,344.695 162.259,344.703C162.387,344.711 162.499,344.719 162.595,344.727C162.691,344.735 162.759,344.743 162.799,344.751L162.799,344.547C162.799,344.131 162.673,343.833 162.421,343.653C162.169,343.473 161.827,343.383 161.395,343.383C160.971,343.383 160.635,343.441 160.387,343.557C160.139,343.673 159.931,343.791 159.763,343.911L159.259,343.179C159.355,343.099 159.471,343.019 159.607,342.939C159.743,342.859 159.903,342.785 160.087,342.717C160.271,342.649 160.479,342.593 160.711,342.549C160.943,342.505 161.211,342.483 161.515,342.483C162.235,342.483 162.801,342.657 163.213,343.005C163.625,343.353 163.831,343.847 163.831,344.487L163.831,347.733C163.831,347.929 163.835,348.095 163.843,348.231L162.835,348.231L162.811,347.559Z" style="fill:white;fill-rule:nonzero;"/>
            <path d="M165.763,343.551L164.755,343.551L164.755,342.651L165.763,342.651L165.763,340.827L166.843,340.827L166.843,342.651L168.475,342.651L168.475,343.551L166.843,343.551L166.843,346.299C166.843,346.747 166.913,347.055 167.053,347.223C167.193,347.391 167.391,347.475 167.647,347.475C167.855,347.475 168.027,347.443 168.163,347.379C168.299,347.315 168.435,347.219 168.571,347.091L169.063,347.751C168.831,347.975 168.593,348.137 168.349,348.237C168.105,348.337 167.815,348.387 167.479,348.387C166.887,348.387 166.453,348.227 166.177,347.907C165.901,347.587 165.763,347.087 165.763,346.407L165.763,343.551Z" style="fill:white;fill-rule:nonzero;"/>
            <path d="M174.955,347.415C174.891,347.487 174.795,347.579 174.667,347.691C174.539,347.803 174.373,347.911 174.169,348.015C173.965,348.119 173.725,348.209 173.449,348.285C173.173,348.361 172.859,348.399 172.507,348.399C172.075,348.399 171.679,348.327 171.319,348.183C170.959,348.039 170.651,347.835 170.395,347.571C170.139,347.307 169.941,346.991 169.801,346.623C169.661,346.255 169.591,345.847 169.591,345.399C169.591,344.991 169.659,344.609 169.795,344.253C169.931,343.897 170.123,343.589 170.371,343.329C170.619,343.069 170.913,342.863 171.253,342.711C171.593,342.559 171.967,342.483 172.375,342.483C172.855,342.483 173.267,342.575 173.611,342.759C173.955,342.943 174.237,343.187 174.457,343.491C174.677,343.795 174.839,344.143 174.943,344.535C175.047,344.927 175.099,345.335 175.099,345.759L170.695,345.759C170.703,346.007 170.757,346.235 170.857,346.443C170.957,346.651 171.091,346.831 171.259,346.983C171.427,347.135 171.619,347.255 171.835,347.343C172.051,347.431 172.279,347.475 172.519,347.475C172.991,347.475 173.379,347.395 173.683,347.235C173.987,347.075 174.207,346.919 174.343,346.767L174.955,347.415ZM173.983,344.955C173.951,344.523 173.799,344.155 173.527,343.851C173.255,343.547 172.871,343.395 172.375,343.395C172.119,343.395 171.889,343.439 171.685,343.527C171.481,343.615 171.307,343.731 171.163,343.875C171.019,344.019 170.907,344.185 170.827,344.373C170.747,344.561 170.703,344.755 170.695,344.955L173.983,344.955Z" style="fill:white;fill-rule:nonzero;"/>
            <path d="M176.635,346.827C176.835,347.027 177.075,347.187 177.355,347.307C177.635,347.427 177.959,347.487 178.327,347.487C178.687,347.487 178.987,347.429 179.227,347.313C179.467,347.197 179.587,347.015 179.587,346.767C179.587,346.639 179.561,346.529 179.509,346.437C179.457,346.345 179.369,346.263 179.245,346.191C179.121,346.119 178.957,346.053 178.753,345.993C178.549,345.933 178.295,345.867 177.991,345.795C177.775,345.747 177.561,345.683 177.349,345.603C177.137,345.523 176.947,345.417 176.779,345.285C176.611,345.153 176.475,344.993 176.371,344.805C176.267,344.617 176.215,344.391 176.215,344.127C176.215,343.855 176.277,343.617 176.401,343.413C176.525,343.209 176.691,343.037 176.899,342.897C177.107,342.757 177.341,342.651 177.601,342.579C177.861,342.507 178.131,342.471 178.411,342.471C178.883,342.471 179.289,342.533 179.629,342.657C179.969,342.781 180.267,342.955 180.523,343.179L179.935,343.923C179.767,343.771 179.557,343.643 179.305,343.539C179.053,343.435 178.759,343.383 178.423,343.383C178.079,343.383 177.803,343.439 177.595,343.551C177.387,343.663 177.283,343.847 177.283,344.103C177.283,344.343 177.421,344.521 177.697,344.637C177.973,344.753 178.335,344.863 178.783,344.967C179.047,345.031 179.293,345.105 179.521,345.189C179.749,345.273 179.949,345.381 180.121,345.513C180.293,345.645 180.429,345.807 180.529,345.999C180.629,346.191 180.679,346.423 180.679,346.695C180.679,346.975 180.615,347.221 180.487,347.433C180.359,347.645 180.187,347.823 179.971,347.967C179.755,348.111 179.507,348.219 179.227,348.291C178.947,348.363 178.655,348.399 178.351,348.399C177.295,348.399 176.503,348.115 175.975,347.547L176.635,346.827Z" style="fill:white;fill-rule:nonzero;"/>
            <path d="M15.651,346.287C15.763,346.415 15.889,346.545 16.029,346.677C16.169,346.809 16.327,346.927 16.503,347.031C16.679,347.135 16.875,347.219 17.091,347.283C17.307,347.347 17.543,347.379 17.799,347.379C18.327,347.379 18.739,347.259 19.035,347.019C19.331,346.779 19.479,346.455 19.479,346.047C19.479,345.607 19.311,345.277 18.975,345.057C18.639,344.837 18.155,344.659 17.523,344.523C17.179,344.451 16.867,344.351 16.587,344.223C16.307,344.095 16.065,343.935 15.861,343.743C15.657,343.551 15.499,343.329 15.387,343.077C15.275,342.825 15.219,342.539 15.219,342.219C15.219,341.923 15.275,341.643 15.387,341.379C15.499,341.115 15.667,340.883 15.891,340.683C16.115,340.483 16.395,340.323 16.731,340.203C17.067,340.083 17.455,340.023 17.895,340.023C18.287,340.023 18.625,340.065 18.909,340.149C19.193,340.233 19.435,340.335 19.635,340.455C19.835,340.575 19.995,340.699 20.115,340.827C20.235,340.955 20.327,341.059 20.391,341.139L19.623,341.847C19.575,341.791 19.503,341.717 19.407,341.625C19.311,341.533 19.189,341.443 19.041,341.355C18.893,341.267 18.721,341.193 18.525,341.133C18.329,341.073 18.103,341.043 17.847,341.043C17.591,341.043 17.371,341.077 17.187,341.145C17.003,341.213 16.851,341.301 16.731,341.409C16.611,341.517 16.523,341.639 16.467,341.775C16.411,341.911 16.383,342.047 16.383,342.183C16.383,342.383 16.425,342.553 16.509,342.693C16.593,342.833 16.715,342.957 16.875,343.065C17.035,343.173 17.233,343.265 17.469,343.341C17.705,343.417 17.975,343.491 18.279,343.563C18.575,343.635 18.865,343.729 19.149,343.845C19.433,343.961 19.687,344.117 19.911,344.313C20.135,344.509 20.313,344.749 20.445,345.033C20.577,345.317 20.643,345.663 20.643,346.071C20.643,346.415 20.571,346.731 20.427,347.019C20.283,347.307 20.085,347.557 19.833,347.769C19.581,347.981 19.283,348.145 18.939,348.261C18.595,348.377 18.223,348.435 17.823,348.435C17.447,348.435 17.105,348.391 16.797,348.303C16.489,348.215 16.209,348.103 15.957,347.967C15.705,347.831 15.485,347.681 15.297,347.517C15.109,347.353 14.955,347.191 14.835,347.031L15.651,346.287Z" style="fill:white;fill-rule:nonzero;"/>
            <path d="M22.155,343.551L21.147,343.551L21.147,342.651L22.155,342.651L22.155,340.827L23.235,340.827L23.235,342.651L24.867,342.651L24.867,343.551L23.235,343.551L23.235,346.299C23.235,346.747 23.305,347.055 23.445,347.223C23.585,347.391 23.783,347.475 24.039,347.475C24.247,347.475 24.419,347.443 24.555,347.379C24.691,347.315 24.827,347.219 24.963,347.091L25.455,347.751C25.223,347.975 24.985,348.137 24.741,348.237C24.497,348.337 24.207,348.387 23.871,348.387C23.279,348.387 22.845,348.227 22.569,347.907C22.293,347.587 22.155,347.087 22.155,346.407L22.155,343.551Z" style="fill:white;fill-rule:nonzero;"/>
            <path d="M31.347,347.415C31.283,347.487 31.187,347.579 31.059,347.691C30.931,347.803 30.765,347.911 30.561,348.015C30.357,348.119 30.117,348.209 29.841,348.285C29.565,348.361 29.251,348.399 28.899,348.399C28.467,348.399 28.071,348.327 27.711,348.183C27.351,348.039 27.043,347.835 26.787,347.571C26.531,347.307 26.333,346.991 26.193,346.623C26.053,346.255 25.983,345.847 25.983,345.399C25.983,344.991 26.051,344.609 26.187,344.253C26.323,343.897 26.515,343.589 26.763,343.329C27.011,343.069 27.305,342.863 27.645,342.711C27.985,342.559 28.359,342.483 28.767,342.483C29.247,342.483 29.659,342.575 30.003,342.759C30.347,342.943 30.629,343.187 30.849,343.491C31.069,343.795 31.231,344.143 31.335,344.535C31.439,344.927 31.491,345.335 31.491,345.759L27.087,345.759C27.095,346.007 27.149,346.235 27.249,346.443C27.349,346.651 27.483,346.831 27.651,346.983C27.819,347.135 28.011,347.255 28.227,347.343C28.443,347.431 28.671,347.475 28.911,347.475C29.383,347.475 29.771,347.395 30.075,347.235C30.379,347.075 30.599,346.919 30.735,346.767L31.347,347.415ZM30.375,344.955C30.343,344.523 30.191,344.155 29.919,343.851C29.647,343.547 29.263,343.395 28.767,343.395C28.511,343.395 28.281,343.439 28.077,343.527C27.873,343.615 27.699,343.731 27.555,343.875C27.411,344.019 27.299,344.185 27.219,344.373C27.139,344.561 27.095,344.755 27.087,344.955L30.375,344.955Z" style="fill:white;fill-rule:nonzero;"/>
            <path d="M32.667,350.631L32.667,343.221C32.667,343.041 32.663,342.851 32.655,342.651L33.687,342.651L33.723,343.443C33.779,343.371 33.859,343.283 33.963,343.179C34.067,343.075 34.197,342.975 34.353,342.879C34.509,342.783 34.691,342.701 34.899,342.633C35.107,342.565 35.347,342.531 35.619,342.531C36.051,342.531 36.425,342.611 36.741,342.771C37.057,342.931 37.319,343.147 37.527,343.419C37.735,343.691 37.889,344.003 37.989,344.355C38.089,344.707 38.139,345.079 38.139,345.471C38.139,345.975 38.053,346.411 37.881,346.779C37.709,347.147 37.485,347.451 37.209,347.691C36.933,347.931 36.625,348.109 36.285,348.225C35.945,348.341 35.611,348.399 35.283,348.399C34.907,348.399 34.605,348.361 34.377,348.285C34.149,348.209 33.935,348.127 33.735,348.039L33.735,350.631L32.667,350.631ZM33.735,347.019C33.863,347.123 34.047,347.223 34.287,347.319C34.527,347.415 34.827,347.463 35.187,347.463C35.459,347.463 35.709,347.413 35.937,347.313C36.165,347.213 36.361,347.073 36.525,346.893C36.689,346.713 36.815,346.503 36.903,346.263C36.991,346.023 37.035,345.759 37.035,345.471C37.035,345.199 37.005,344.943 36.945,344.703C36.885,344.463 36.789,344.251 36.657,344.067C36.525,343.883 36.355,343.737 36.147,343.629C35.939,343.521 35.683,343.467 35.379,343.467C34.995,343.467 34.667,343.573 34.395,343.785C34.123,343.997 33.931,344.307 33.819,344.715C33.779,344.843 33.755,344.981 33.747,345.129C33.739,345.277 33.735,345.431 33.735,345.591L33.735,347.019Z" style="fill:white;fill-rule:nonzero;"/>
            <path d="M39.699,346.827C39.899,347.027 40.139,347.187 40.419,347.307C40.699,347.427 41.023,347.487 41.391,347.487C41.751,347.487 42.051,347.429 42.291,347.313C42.531,347.197 42.651,347.015 42.651,346.767C42.651,346.639 42.625,346.529 42.573,346.437C42.521,346.345 42.433,346.263 42.309,346.191C42.185,346.119 42.021,346.053 41.817,345.993C41.613,345.933 41.359,345.867 41.055,345.795C40.839,345.747 40.625,345.683 40.413,345.603C40.201,345.523 40.011,345.417 39.843,345.285C39.675,345.153 39.539,344.993 39.435,344.805C39.331,344.617 39.279,344.391 39.279,344.127C39.279,343.855 39.341,343.617 39.465,343.413C39.589,343.209 39.755,343.037 39.963,342.897C40.171,342.757 40.405,342.651 40.665,342.579C40.925,342.507 41.195,342.471 41.475,342.471C41.947,342.471 42.353,342.533 42.693,342.657C43.033,342.781 43.331,342.955 43.587,343.179L42.999,343.923C42.831,343.771 42.621,343.643 42.369,343.539C42.117,343.435 41.823,343.383 41.487,343.383C41.143,343.383 40.867,343.439 40.659,343.551C40.451,343.663 40.347,343.847 40.347,344.103C40.347,344.343 40.485,344.521 40.761,344.637C41.037,344.753 41.399,344.863 41.847,344.967C42.111,345.031 42.357,345.105 42.585,345.189C42.813,345.273 43.013,345.381 43.185,345.513C43.357,345.645 43.493,345.807 43.593,345.999C43.693,346.191 43.743,346.423 43.743,346.695C43.743,346.975 43.679,347.221 43.551,347.433C43.423,347.645 43.251,347.823 43.035,347.967C42.819,348.111 42.571,348.219 42.291,348.291C42.011,348.363 41.719,348.399 41.415,348.399C40.359,348.399 39.567,348.115 39.039,347.547L39.699,346.827Z" style="fill:white;fill-rule:nonzero;"/>
            <path d="M63.784,346.287C63.896,346.415 64.022,346.545 64.162,346.677C64.302,346.809 64.46,346.927 64.636,347.031C64.812,347.135 65.008,347.219 65.224,347.283C65.44,347.347 65.676,347.379 65.932,347.379C66.46,347.379 66.872,347.259 67.168,347.019C67.464,346.779 67.612,346.455 67.612,346.047C67.612,345.607 67.444,345.277 67.108,345.057C66.772,344.837 66.288,344.659 65.656,344.523C65.312,344.451 65,344.351 64.72,344.223C64.44,344.095 64.198,343.935 63.994,343.743C63.79,343.551 63.632,343.329 63.52,343.077C63.408,342.825 63.352,342.539 63.352,342.219C63.352,341.923 63.408,341.643 63.52,341.379C63.632,341.115 63.8,340.883 64.024,340.683C64.248,340.483 64.528,340.323 64.864,340.203C65.2,340.083 65.588,340.023 66.028,340.023C66.42,340.023 66.758,340.065 67.042,340.149C67.326,340.233 67.568,340.335 67.768,340.455C67.968,340.575 68.128,340.699 68.248,340.827C68.368,340.955 68.46,341.059 68.524,341.139L67.756,341.847C67.708,341.791 67.636,341.717 67.54,341.625C67.444,341.533 67.322,341.443 67.174,341.355C67.026,341.267 66.854,341.193 66.658,341.133C66.462,341.073 66.236,341.043 65.98,341.043C65.724,341.043 65.504,341.077 65.32,341.145C65.136,341.213 64.984,341.301 64.864,341.409C64.744,341.517 64.656,341.639 64.6,341.775C64.544,341.911 64.516,342.047 64.516,342.183C64.516,342.383 64.558,342.553 64.642,342.693C64.726,342.833 64.848,342.957 65.008,343.065C65.168,343.173 65.366,343.265 65.602,343.341C65.838,343.417 66.108,343.491 66.412,343.563C66.708,343.635 66.998,343.729 67.282,343.845C67.566,343.961 67.82,344.117 68.044,344.313C68.268,344.509 68.446,344.749 68.578,345.033C68.71,345.317 68.776,345.663 68.776,346.071C68.776,346.415 68.704,346.731 68.56,347.019C68.416,347.307 68.218,347.557 67.966,347.769C67.714,347.981 67.416,348.145 67.072,348.261C66.728,348.377 66.356,348.435 65.956,348.435C65.58,348.435 65.238,348.391 64.93,348.303C64.622,348.215 64.342,348.103 64.09,347.967C63.838,347.831 63.618,347.681 63.43,347.517C63.242,347.353 63.088,347.191 62.968,347.031L63.784,346.287Z" style="fill:white;fill-rule:nonzero;"/>
            <rect x="70.228" y="340.227" width="1.08" height="8.004" style="fill:white;fill-rule:nonzero;"/>
            <path d="M77.86,347.415C77.796,347.487 77.7,347.579 77.572,347.691C77.444,347.803 77.278,347.911 77.074,348.015C76.87,348.119 76.63,348.209 76.354,348.285C76.078,348.361 75.764,348.399 75.412,348.399C74.98,348.399 74.584,348.327 74.224,348.183C73.864,348.039 73.556,347.835 73.3,347.571C73.044,347.307 72.846,346.991 72.706,346.623C72.566,346.255 72.496,345.847 72.496,345.399C72.496,344.991 72.564,344.609 72.7,344.253C72.836,343.897 73.028,343.589 73.276,343.329C73.524,343.069 73.818,342.863 74.158,342.711C74.498,342.559 74.872,342.483 75.28,342.483C75.76,342.483 76.172,342.575 76.516,342.759C76.86,342.943 77.142,343.187 77.362,343.491C77.582,343.795 77.744,344.143 77.848,344.535C77.952,344.927 78.004,345.335 78.004,345.759L73.6,345.759C73.608,346.007 73.662,346.235 73.762,346.443C73.862,346.651 73.996,346.831 74.164,346.983C74.332,347.135 74.524,347.255 74.74,347.343C74.956,347.431 75.184,347.475 75.424,347.475C75.896,347.475 76.284,347.395 76.588,347.235C76.892,347.075 77.112,346.919 77.248,346.767L77.86,347.415ZM76.888,344.955C76.856,344.523 76.704,344.155 76.432,343.851C76.16,343.547 75.776,343.395 75.28,343.395C75.024,343.395 74.794,343.439 74.59,343.527C74.386,343.615 74.212,343.731 74.068,343.875C73.924,344.019 73.812,344.185 73.732,344.373C73.652,344.561 73.608,344.755 73.6,344.955L76.888,344.955Z" style="fill:white;fill-rule:nonzero;"/>
            <path d="M78.424,342.651L79.612,342.651L80.86,346.911L82.204,342.651L83.128,342.651L84.472,346.947L85.696,342.651L86.812,342.651L84.964,348.231L83.896,348.231L82.6,344.331L81.316,348.231L80.308,348.231L78.424,342.651Z" style="fill:white;fill-rule:nonzero;"/>
            <path d="M109.865,346.287C109.977,346.415 110.103,346.545 110.243,346.677C110.383,346.809 110.541,346.927 110.717,347.031C110.893,347.135 111.089,347.219 111.305,347.283C111.521,347.347 111.757,347.379 112.013,347.379C112.541,347.379 112.953,347.259 113.249,347.019C113.545,346.779 113.693,346.455 113.693,346.047C113.693,345.607 113.525,345.277 113.189,345.057C112.853,344.837 112.369,344.659 111.737,344.523C111.393,344.451 111.081,344.351 110.801,344.223C110.521,344.095 110.279,343.935 110.075,343.743C109.871,343.551 109.713,343.329 109.601,343.077C109.489,342.825 109.433,342.539 109.433,342.219C109.433,341.923 109.489,341.643 109.601,341.379C109.713,341.115 109.881,340.883 110.105,340.683C110.329,340.483 110.609,340.323 110.945,340.203C111.281,340.083 111.669,340.023 112.109,340.023C112.501,340.023 112.839,340.065 113.123,340.149C113.407,340.233 113.649,340.335 113.849,340.455C114.049,340.575 114.209,340.699 114.329,340.827C114.449,340.955 114.541,341.059 114.605,341.139L113.837,341.847C113.789,341.791 113.717,341.717 113.621,341.625C113.525,341.533 113.403,341.443 113.255,341.355C113.107,341.267 112.935,341.193 112.739,341.133C112.543,341.073 112.317,341.043 112.061,341.043C111.805,341.043 111.585,341.077 111.401,341.145C111.217,341.213 111.065,341.301 110.945,341.409C110.825,341.517 110.737,341.639 110.681,341.775C110.625,341.911 110.597,342.047 110.597,342.183C110.597,342.383 110.639,342.553 110.723,342.693C110.807,342.833 110.929,342.957 111.089,343.065C111.249,343.173 111.447,343.265 111.683,343.341C111.919,343.417 112.189,343.491 112.493,343.563C112.789,343.635 113.079,343.729 113.363,343.845C113.647,343.961 113.901,344.117 114.125,344.313C114.349,344.509 114.527,344.749 114.659,345.033C114.791,345.317 114.857,345.663 114.857,346.071C114.857,346.415 114.785,346.731 114.641,347.019C114.497,347.307 114.299,347.557 114.047,347.769C113.795,347.981 113.497,348.145 113.153,348.261C112.809,348.377 112.437,348.435 112.037,348.435C111.661,348.435 111.319,348.391 111.011,348.303C110.703,348.215 110.423,348.103 110.171,347.967C109.919,347.831 109.699,347.681 109.511,347.517C109.323,347.353 109.169,347.191 109.049,347.031L109.865,346.287Z" style="fill:white;fill-rule:nonzero;"/>
            <path d="M120.857,347.355C120.577,347.651 120.255,347.903 119.891,348.111C119.527,348.319 119.073,348.423 118.529,348.423C118.121,348.423 117.759,348.365 117.443,348.249C117.127,348.133 116.863,347.973 116.651,347.769C116.439,347.565 116.279,347.329 116.171,347.061C116.063,346.793 116.009,346.507 116.009,346.203C116.009,345.699 116.145,345.243 116.417,344.835C116.689,344.427 117.105,344.031 117.665,343.647L117.521,343.467C117.329,343.227 117.181,342.979 117.077,342.723C116.973,342.467 116.921,342.195 116.921,341.907C116.921,341.667 116.969,341.433 117.065,341.205C117.161,340.977 117.299,340.775 117.479,340.599C117.659,340.423 117.881,340.283 118.145,340.179C118.409,340.075 118.709,340.023 119.045,340.023C119.349,340.023 119.611,340.061 119.831,340.137C120.051,340.213 120.243,340.313 120.407,340.437C120.571,340.561 120.707,340.701 120.815,340.857C120.923,341.013 121.017,341.175 121.097,341.343L120.293,341.859C120.085,341.499 119.887,341.261 119.699,341.145C119.511,341.029 119.313,340.971 119.105,340.971C118.761,340.971 118.501,341.063 118.325,341.247C118.149,341.431 118.061,341.647 118.061,341.895C118.061,342.111 118.119,342.321 118.235,342.525C118.351,342.729 118.505,342.943 118.697,343.167L120.881,345.723L121.925,344.391L122.741,345.039L121.553,346.527L123.017,348.231L121.625,348.231L120.857,347.355ZM118.301,344.403C117.885,344.691 117.591,344.965 117.419,345.225C117.247,345.485 117.161,345.791 117.161,346.143C117.161,346.503 117.281,346.803 117.521,347.043C117.761,347.283 118.113,347.403 118.577,347.403C118.945,347.403 119.255,347.321 119.507,347.157C119.759,346.993 119.985,346.795 120.185,346.563L118.301,344.403Z" style="fill:white;fill-rule:nonzero;"/>
            <path d="M124.109,340.227L125.261,340.227L125.261,343.575L129.641,343.575L129.641,340.227L130.793,340.227L130.793,348.231L129.641,348.231L129.641,344.607L125.261,344.607L125.261,348.231L124.109,348.231L124.109,340.227Z" style="fill:white;fill-rule:nonzero;"/>
            <path d="M201.674,341.235L198.806,341.235L198.806,340.227L205.682,340.227L205.682,341.235L202.826,341.235L202.826,348.231L201.674,348.231L201.674,341.235Z" style="fill:white;fill-rule:nonzero;"/>
            <path d="M205.01,348.231L205.01,343.185C205.01,343.013 205.006,342.835 204.998,342.651L206.03,342.651L206.066,343.551C206.13,343.455 206.214,343.349 206.318,343.233C206.422,343.117 206.548,343.011 206.696,342.915C206.844,342.819 207.016,342.737 207.212,342.669C207.408,342.601 207.634,342.567 207.89,342.567C208.01,342.567 208.12,342.575 208.22,342.591C208.32,342.607 208.414,342.631 208.502,342.663L208.262,343.671C208.118,343.615 207.934,343.587 207.71,343.587C207.478,343.587 207.264,343.631 207.068,343.719C206.872,343.807 206.702,343.929 206.558,344.085C206.414,344.241 206.3,344.423 206.216,344.631C206.132,344.839 206.09,345.059 206.09,345.291L206.09,348.231L205.01,348.231Z" style="fill:white;fill-rule:nonzero;"/>
            <path d="M209.33,340.443L210.542,340.443L210.542,341.655L209.33,341.655L209.33,340.443ZM209.402,342.651L210.482,342.651L210.482,348.231L209.402,348.231L209.402,342.651Z" style="fill:white;fill-rule:nonzero;"/>
            <path d="M216.002,343.635C215.93,343.611 215.808,343.577 215.636,343.533C215.464,343.489 215.206,343.467 214.862,343.467C214.558,343.467 214.282,343.517 214.034,343.617C213.786,343.717 213.572,343.857 213.392,344.037C213.212,344.217 213.072,344.431 212.972,344.679C212.872,344.927 212.822,345.199 212.822,345.495C212.822,345.751 212.852,345.991 212.912,346.215C212.972,346.439 213.068,346.635 213.2,346.803C213.332,346.971 213.498,347.103 213.698,347.199C213.898,347.295 214.142,347.343 214.43,347.343C214.694,347.343 214.926,347.303 215.126,347.223C215.326,347.143 215.49,347.037 215.618,346.905C215.746,346.773 215.842,346.625 215.906,346.461C215.97,346.297 216.002,346.127 216.002,345.951L216.002,343.635ZM212.738,349.371C212.922,349.499 213.148,349.609 213.416,349.701C213.684,349.793 214.01,349.839 214.394,349.839C214.93,349.839 215.33,349.691 215.594,349.395C215.858,349.099 215.99,348.711 215.99,348.231L215.99,347.547C215.934,347.595 215.86,347.661 215.768,347.745C215.676,347.829 215.56,347.909 215.42,347.985C215.28,348.061 215.114,348.129 214.922,348.189C214.73,348.249 214.51,348.279 214.262,348.279C213.854,348.279 213.492,348.209 213.176,348.069C212.86,347.929 212.594,347.737 212.378,347.493C212.162,347.249 211.998,346.957 211.886,346.617C211.774,346.277 211.718,345.907 211.718,345.507C211.718,345.075 211.794,344.677 211.946,344.313C212.098,343.949 212.312,343.633 212.588,343.365C212.864,343.097 213.194,342.889 213.578,342.741C213.962,342.593 214.39,342.519 214.862,342.519C215.318,342.519 215.742,342.559 216.134,342.639C216.526,342.719 216.842,342.807 217.082,342.903L217.082,348.231C217.082,349.039 216.848,349.665 216.38,350.109C215.912,350.553 215.254,350.775 214.406,350.775C213.838,350.775 213.386,350.713 213.05,350.589C212.714,350.465 212.442,350.323 212.234,350.163L212.738,349.371Z" style="fill:white;fill-rule:nonzero;"/>
            <path d="M218.894,346.827C219.094,347.027 219.334,347.187 219.614,347.307C219.894,347.427 220.218,347.487 220.586,347.487C220.946,347.487 221.246,347.429 221.486,347.313C221.726,347.197 221.846,347.015 221.846,346.767C221.846,346.639 221.82,346.529 221.768,346.437C221.716,346.345 221.628,346.263 221.504,346.191C221.38,346.119 221.216,346.053 221.012,345.993C220.808,345.933 220.554,345.867 220.25,345.795C220.034,345.747 219.82,345.683 219.608,345.603C219.396,345.523 219.206,345.417 219.038,345.285C218.87,345.153 218.734,344.993 218.63,344.805C218.526,344.617 218.474,344.391 218.474,344.127C218.474,343.855 218.536,343.617 218.66,343.413C218.784,343.209 218.95,343.037 219.158,342.897C219.366,342.757 219.6,342.651 219.86,342.579C220.12,342.507 220.39,342.471 220.67,342.471C221.142,342.471 221.548,342.533 221.888,342.657C222.228,342.781 222.526,342.955 222.782,343.179L222.194,343.923C222.026,343.771 221.816,343.643 221.564,343.539C221.312,343.435 221.018,343.383 220.682,343.383C220.338,343.383 220.062,343.439 219.854,343.551C219.646,343.663 219.542,343.847 219.542,344.103C219.542,344.343 219.68,344.521 219.956,344.637C220.232,344.753 220.594,344.863 221.042,344.967C221.306,345.031 221.552,345.105 221.78,345.189C222.008,345.273 222.208,345.381 222.38,345.513C222.552,345.645 222.688,345.807 222.788,345.999C222.888,346.191 222.938,346.423 222.938,346.695C222.938,346.975 222.874,347.221 222.746,347.433C222.618,347.645 222.446,347.823 222.23,347.967C222.014,348.111 221.766,348.219 221.486,348.291C221.206,348.363 220.914,348.399 220.61,348.399C219.554,348.399 218.762,348.115 218.234,347.547L218.894,346.827Z" style="fill:white;fill-rule:nonzero;"/>
        </g>
        <path d="M28.541,16.831L32.339,16.831C33.155,16.831 33.83,16.945 34.364,17.173C34.898,17.401 35.324,17.689 35.642,18.037C35.96,18.385 36.182,18.775 36.308,19.207C36.434,19.639 36.497,20.059 36.497,20.467C36.497,21.067 36.395,21.595 36.191,22.051C35.987,22.507 35.705,22.888 35.345,23.194C34.985,23.5 34.556,23.731 34.058,23.887C33.56,24.043 33.017,24.121 32.429,24.121L30.251,24.121L30.251,28.837L28.541,28.837L28.541,16.831ZM32.411,22.645C33.155,22.645 33.728,22.456 34.13,22.078C34.532,21.7 34.733,21.175 34.733,20.503C34.733,19.819 34.526,19.282 34.112,18.892C33.698,18.502 33.131,18.307 32.411,18.307L30.251,18.307L30.251,22.645L32.411,22.645Z" style="fill-rule:nonzero;"/>
        <path d="M37.921,16.831L39.523,16.831L39.523,21.709C39.631,21.565 39.763,21.409 39.919,21.241C40.075,21.073 40.267,20.917 40.495,20.773C40.723,20.629 40.987,20.509 41.287,20.413C41.587,20.317 41.929,20.269 42.313,20.269C43.405,20.269 44.215,20.587 44.743,21.223C45.271,21.859 45.535,22.723 45.535,23.815L45.535,28.837L43.915,28.837L43.915,23.941C43.915,23.161 43.747,22.588 43.411,22.222C43.075,21.856 42.601,21.673 41.989,21.673C41.521,21.673 41.131,21.769 40.819,21.961C40.507,22.153 40.258,22.402 40.072,22.708C39.886,23.014 39.751,23.362 39.667,23.752C39.583,24.142 39.541,24.541 39.541,24.949L39.541,28.837L37.921,28.837L37.921,16.831Z" style="fill-rule:nonzero;"/>
        <path d="M52.755,24.877C52.707,24.865 52.614,24.85 52.476,24.832C52.338,24.814 52.179,24.799 51.999,24.787C51.819,24.775 51.627,24.763 51.423,24.751C51.219,24.739 51.021,24.733 50.829,24.733C50.373,24.733 50.004,24.787 49.722,24.895C49.44,25.003 49.218,25.138 49.056,25.3C48.894,25.462 48.783,25.642 48.723,25.84C48.663,26.038 48.633,26.227 48.633,26.407C48.633,26.863 48.789,27.208 49.101,27.442C49.413,27.676 49.845,27.793 50.397,27.793C50.709,27.793 51.006,27.739 51.288,27.631C51.57,27.523 51.819,27.379 52.035,27.199C52.251,27.019 52.425,26.809 52.557,26.569C52.689,26.329 52.755,26.083 52.755,25.831L52.755,24.877ZM52.773,27.829C52.461,28.249 52.05,28.561 51.54,28.765C51.03,28.969 50.505,29.071 49.965,29.071C49.617,29.071 49.272,29.026 48.93,28.936C48.588,28.846 48.276,28.696 47.994,28.486C47.712,28.276 47.484,28.006 47.31,27.676C47.136,27.346 47.049,26.941 47.049,26.461C47.049,25.561 47.364,24.841 47.994,24.301C48.624,23.761 49.533,23.491 50.721,23.491C50.913,23.491 51.117,23.497 51.333,23.509C51.549,23.521 51.753,23.533 51.945,23.545C52.137,23.557 52.305,23.569 52.449,23.581C52.593,23.593 52.695,23.605 52.755,23.617L52.755,23.311C52.755,22.687 52.566,22.24 52.188,21.97C51.81,21.7 51.297,21.565 50.649,21.565C50.013,21.565 49.509,21.652 49.137,21.826C48.765,22 48.453,22.177 48.201,22.357L47.445,21.259C47.589,21.139 47.763,21.019 47.967,20.899C48.171,20.779 48.411,20.668 48.687,20.566C48.963,20.464 49.275,20.38 49.623,20.314C49.971,20.248 50.373,20.215 50.829,20.215C51.909,20.215 52.758,20.476 53.376,20.998C53.994,21.52 54.303,22.261 54.303,23.221L54.303,28.09C54.303,28.384 54.309,28.633 54.321,28.837L52.809,28.837L52.773,27.829Z" style="fill-rule:nonzero;"/>
        <path d="M56.878,26.731C57.179,27.031 57.539,27.271 57.958,27.451C58.379,27.631 58.865,27.721 59.416,27.721C59.956,27.721 60.406,27.634 60.766,27.46C61.126,27.286 61.306,27.013 61.306,26.641C61.306,26.449 61.268,26.284 61.189,26.146C61.112,26.008 60.98,25.885 60.793,25.777C60.608,25.669 60.361,25.57 60.055,25.48C59.749,25.39 59.369,25.291 58.912,25.183C58.588,25.111 58.268,25.015 57.949,24.895C57.632,24.775 57.346,24.616 57.094,24.418C56.842,24.22 56.639,23.98 56.482,23.698C56.327,23.416 56.248,23.077 56.248,22.681C56.248,22.273 56.342,21.916 56.527,21.61C56.714,21.304 56.963,21.046 57.274,20.836C57.587,20.626 57.938,20.467 58.327,20.359C58.718,20.251 59.123,20.197 59.542,20.197C60.251,20.197 60.86,20.29 61.369,20.476C61.88,20.662 62.327,20.923 62.71,21.259L61.828,22.375C61.576,22.147 61.261,21.955 60.883,21.799C60.505,21.643 60.064,21.565 59.56,21.565C59.045,21.565 58.631,21.649 58.318,21.817C58.007,21.985 57.85,22.261 57.85,22.645C57.85,23.005 58.057,23.272 58.471,23.446C58.885,23.62 59.429,23.785 60.1,23.941C60.496,24.037 60.865,24.148 61.207,24.274C61.549,24.4 61.85,24.562 62.107,24.76C62.366,24.958 62.57,25.201 62.719,25.489C62.87,25.777 62.944,26.125 62.944,26.533C62.944,26.953 62.849,27.322 62.656,27.64C62.465,27.958 62.206,28.225 61.882,28.441C61.558,28.657 61.187,28.819 60.766,28.927C60.347,29.035 59.909,29.089 59.452,29.089C57.868,29.089 56.68,28.663 55.888,27.811L56.878,26.731Z" style="fill-rule:nonzero;"/>
        <path d="M72.288,27.613C72.192,27.721 72.048,27.859 71.856,28.027C71.664,28.195 71.415,28.357 71.109,28.513C70.803,28.669 70.443,28.804 70.029,28.918C69.615,29.032 69.144,29.089 68.616,29.089C67.968,29.089 67.374,28.981 66.834,28.765C66.294,28.549 65.832,28.243 65.448,27.847C65.064,27.451 64.767,26.977 64.557,26.425C64.347,25.873 64.242,25.261 64.242,24.589C64.242,23.977 64.344,23.404 64.548,22.87C64.752,22.336 65.04,21.874 65.412,21.484C65.784,21.094 66.225,20.785 66.735,20.557C67.245,20.329 67.806,20.215 68.418,20.215C69.138,20.215 69.756,20.353 70.272,20.629C70.788,20.905 71.211,21.271 71.541,21.727C71.871,22.183 72.114,22.705 72.27,23.293C72.426,23.881 72.504,24.493 72.504,25.129L65.898,25.129C65.91,25.501 65.991,25.843 66.141,26.155C66.291,26.467 66.492,26.737 66.744,26.965C66.996,27.193 67.284,27.373 67.608,27.505C67.932,27.637 68.274,27.703 68.634,27.703C69.342,27.703 69.924,27.583 70.38,27.343C70.836,27.103 71.166,26.869 71.37,26.641L72.288,27.613ZM70.83,23.923C70.782,23.275 70.554,22.723 70.146,22.267C69.738,21.811 69.162,21.583 68.418,21.583C68.034,21.583 67.689,21.649 67.383,21.781C67.077,21.913 66.816,22.087 66.6,22.303C66.384,22.519 66.216,22.768 66.096,23.05C65.976,23.332 65.91,23.623 65.898,23.923L70.83,23.923Z" style="fill-rule:nonzero;"/>
        <path d="M77.458,16.831L81.472,16.831C82.42,16.831 83.293,16.948 84.091,17.182C84.889,17.416 85.576,17.782 86.152,18.28C86.728,18.778 87.178,19.405 87.502,20.161C87.826,20.917 87.988,21.817 87.988,22.861C87.988,23.869 87.826,24.748 87.502,25.498C87.178,26.248 86.728,26.872 86.152,27.37C85.576,27.868 84.886,28.237 84.082,28.477C83.278,28.717 82.402,28.837 81.454,28.837L77.458,28.837L77.458,16.831ZM81.418,27.289C82.918,27.289 84.085,26.92 84.919,26.182C85.753,25.444 86.17,24.349 86.17,22.897C86.17,21.433 85.768,20.314 84.964,19.54C84.16,18.766 82.96,18.379 81.364,18.379L79.186,18.379L79.186,27.289L81.418,27.289Z" style="fill-rule:nonzero;"/>
        <path d="M89.898,28.837L89.898,21.268C89.898,21.01 89.892,20.743 89.88,20.467L91.428,20.467L91.482,21.817C91.578,21.673 91.704,21.514 91.86,21.34C92.016,21.166 92.205,21.007 92.427,20.863C92.649,20.719 92.907,20.596 93.201,20.494C93.495,20.392 93.834,20.341 94.218,20.341C94.398,20.341 94.563,20.353 94.713,20.377C94.863,20.401 95.004,20.437 95.136,20.485L94.776,21.997C94.56,21.913 94.284,21.871 93.948,21.871C93.6,21.871 93.279,21.937 92.985,22.069C92.691,22.201 92.436,22.384 92.22,22.618C92.004,22.852 91.833,23.125 91.707,23.437C91.581,23.749 91.518,24.079 91.518,24.427L91.518,28.837L89.898,28.837Z" style="fill-rule:nonzero;"/>
        <path d="M96.235,17.155L98.053,17.155L98.053,18.973L96.235,18.973L96.235,17.155ZM96.343,20.467L97.963,20.467L97.963,28.837L96.343,28.837L96.343,20.467Z" style="fill-rule:nonzero;"/>
        <path d="M99.081,20.467L100.935,20.467L103.545,27.001L106.137,20.467L107.883,20.467L104.301,28.837L102.681,28.837L99.081,20.467Z" style="fill-rule:nonzero;"/>
        <path d="M116.579,27.613C116.483,27.721 116.339,27.859 116.147,28.027C115.955,28.195 115.706,28.357 115.4,28.513C115.094,28.669 114.734,28.804 114.32,28.918C113.906,29.032 113.435,29.089 112.907,29.089C112.259,29.089 111.665,28.981 111.125,28.765C110.585,28.549 110.123,28.243 109.739,27.847C109.355,27.451 109.058,26.977 108.848,26.425C108.638,25.873 108.533,25.261 108.533,24.589C108.533,23.977 108.635,23.404 108.839,22.87C109.043,22.336 109.331,21.874 109.703,21.484C110.075,21.094 110.516,20.785 111.026,20.557C111.536,20.329 112.097,20.215 112.709,20.215C113.429,20.215 114.047,20.353 114.563,20.629C115.079,20.905 115.502,21.271 115.832,21.727C116.162,22.183 116.405,22.705 116.561,23.293C116.717,23.881 116.795,24.493 116.795,25.129L110.189,25.129C110.201,25.501 110.282,25.843 110.432,26.155C110.582,26.467 110.783,26.737 111.035,26.965C111.287,27.193 111.575,27.373 111.899,27.505C112.223,27.637 112.565,27.703 112.925,27.703C113.633,27.703 114.215,27.583 114.671,27.343C115.127,27.103 115.457,26.869 115.661,26.641L116.579,27.613ZM115.121,23.923C115.073,23.275 114.845,22.723 114.437,22.267C114.029,21.811 113.453,21.583 112.709,21.583C112.325,21.583 111.98,21.649 111.674,21.781C111.368,21.913 111.107,22.087 110.891,22.303C110.675,22.519 110.507,22.768 110.387,23.05C110.267,23.332 110.201,23.623 110.189,23.923L115.121,23.923Z" style="fill-rule:nonzero;"/>
        <path d="M118.417,28.837L118.417,21.322C118.417,21.052 118.411,20.767 118.399,20.467L119.947,20.467L120.001,21.727C120.109,21.583 120.241,21.424 120.397,21.25C120.553,21.076 120.745,20.917 120.973,20.773C121.201,20.629 121.468,20.509 121.774,20.413C122.08,20.317 122.425,20.269 122.809,20.269C123.901,20.269 124.711,20.587 125.239,21.223C125.767,21.859 126.031,22.723 126.031,23.815L126.031,28.837L124.411,28.837L124.411,23.941C124.411,23.161 124.243,22.588 123.907,22.222C123.571,21.856 123.097,21.673 122.485,21.673C122.017,21.673 121.627,21.769 121.315,21.961C121.003,22.153 120.754,22.402 120.568,22.708C120.382,23.014 120.247,23.362 120.163,23.752C120.079,24.142 120.037,24.541 120.037,24.949L120.037,28.837L118.417,28.837Z" style="fill-rule:nonzero;"/>
        <path d="M131.884,25.921C132.053,26.113 132.242,26.308 132.451,26.506C132.662,26.704 132.899,26.881 133.162,27.037C133.427,27.193 133.72,27.319 134.044,27.415C134.368,27.511 134.723,27.559 135.106,27.559C135.898,27.559 136.517,27.379 136.96,27.019C137.405,26.659 137.626,26.173 137.626,25.561C137.626,24.901 137.374,24.406 136.87,24.076C136.366,23.746 135.641,23.479 134.692,23.275C134.177,23.167 133.709,23.017 133.288,22.825C132.869,22.633 132.505,22.393 132.199,22.105C131.893,21.817 131.657,21.484 131.488,21.106C131.321,20.728 131.236,20.299 131.236,19.819C131.236,19.375 131.321,18.955 131.488,18.559C131.657,18.163 131.909,17.815 132.244,17.515C132.581,17.215 133,16.975 133.504,16.795C134.008,16.615 134.591,16.525 135.25,16.525C135.839,16.525 136.346,16.588 136.771,16.714C137.198,16.84 137.561,16.993 137.86,17.173C138.161,17.353 138.4,17.539 138.58,17.731C138.76,17.923 138.899,18.079 138.994,18.199L137.842,19.261C137.77,19.177 137.662,19.066 137.518,18.928C137.374,18.79 137.192,18.655 136.969,18.523C136.748,18.391 136.49,18.28 136.195,18.19C135.902,18.1 135.563,18.055 135.178,18.055C134.795,18.055 134.465,18.106 134.188,18.208C133.913,18.31 133.684,18.442 133.504,18.604C133.324,18.766 133.193,18.949 133.108,19.153C133.025,19.357 132.982,19.561 132.982,19.765C132.982,20.065 133.045,20.32 133.171,20.53C133.297,20.74 133.481,20.926 133.72,21.088C133.961,21.25 134.258,21.388 134.611,21.502C134.966,21.616 135.371,21.727 135.826,21.835C136.271,21.943 136.706,22.084 137.131,22.258C137.558,22.432 137.939,22.666 138.274,22.96C138.611,23.254 138.877,23.614 139.075,24.04C139.273,24.466 139.372,24.985 139.372,25.597C139.372,26.113 139.264,26.587 139.048,27.019C138.832,27.451 138.535,27.826 138.157,28.144C137.779,28.462 137.333,28.708 136.816,28.882C136.301,29.056 135.743,29.143 135.142,29.143C134.579,29.143 134.066,29.077 133.603,28.945C133.142,28.813 132.721,28.645 132.343,28.441C131.965,28.237 131.636,28.012 131.353,27.766C131.072,27.52 130.84,27.277 130.66,27.037L131.884,25.921Z" style="fill-rule:nonzero;"/>
        <path d="M149.04,27.613C148.944,27.721 148.8,27.859 148.608,28.027C148.416,28.195 148.167,28.357 147.861,28.513C147.555,28.669 147.195,28.804 146.781,28.918C146.367,29.032 145.896,29.089 145.368,29.089C144.72,29.089 144.126,28.981 143.586,28.765C143.046,28.549 142.584,28.243 142.2,27.847C141.816,27.451 141.519,26.977 141.309,26.425C141.099,25.873 140.994,25.261 140.994,24.589C140.994,23.977 141.096,23.404 141.3,22.87C141.504,22.336 141.792,21.874 142.164,21.484C142.536,21.094 142.977,20.785 143.487,20.557C143.997,20.329 144.558,20.215 145.17,20.215C145.89,20.215 146.508,20.353 147.024,20.629C147.54,20.905 147.963,21.271 148.293,21.727C148.623,22.183 148.866,22.705 149.022,23.293C149.178,23.881 149.256,24.493 149.256,25.129L142.65,25.129C142.662,25.501 142.743,25.843 142.893,26.155C143.043,26.467 143.244,26.737 143.496,26.965C143.748,27.193 144.036,27.373 144.36,27.505C144.684,27.637 145.026,27.703 145.386,27.703C146.094,27.703 146.676,27.583 147.132,27.343C147.588,27.103 147.918,26.869 148.122,26.641L149.04,27.613ZM147.582,23.923C147.534,23.275 147.306,22.723 146.898,22.267C146.49,21.811 145.914,21.583 145.17,21.583C144.786,21.583 144.441,21.649 144.135,21.781C143.829,21.913 143.568,22.087 143.352,22.303C143.136,22.519 142.968,22.768 142.848,23.05C142.728,23.332 142.662,23.623 142.65,23.923L147.582,23.923Z" style="fill-rule:nonzero;"/>
        <path d="M156.872,28.009C156.824,28.069 156.737,28.156 156.611,28.27C156.485,28.384 156.32,28.504 156.116,28.63C155.912,28.756 155.669,28.864 155.387,28.954C155.105,29.044 154.778,29.089 154.406,29.089C153.758,29.089 153.188,28.975 152.696,28.747C152.204,28.519 151.793,28.21 151.463,27.82C151.133,27.43 150.884,26.971 150.716,26.443C150.548,25.915 150.464,25.351 150.464,24.751C150.464,24.103 150.578,23.506 150.806,22.96C151.034,22.414 151.355,21.94 151.769,21.538C152.183,21.136 152.678,20.824 153.254,20.602C153.83,20.38 154.472,20.269 155.18,20.269C155.864,20.269 156.497,20.329 157.079,20.449C157.661,20.569 158.132,20.701 158.492,20.845L158.492,32.437L156.872,32.437L156.872,28.009ZM156.89,21.943C156.782,21.907 156.599,21.856 156.341,21.79C156.083,21.724 155.696,21.691 155.18,21.691C154.22,21.691 153.47,21.97 152.93,22.528C152.39,23.086 152.12,23.821 152.12,24.733C152.12,25.117 152.165,25.486 152.255,25.84C152.345,26.194 152.489,26.506 152.687,26.776C152.885,27.046 153.134,27.265 153.434,27.433C153.734,27.601 154.1,27.685 154.532,27.685C154.94,27.685 155.291,27.625 155.585,27.505C155.879,27.385 156.122,27.223 156.314,27.019C156.506,26.815 156.65,26.578 156.746,26.308C156.842,26.038 156.89,25.753 156.89,25.453L156.89,21.943Z" style="fill-rule:nonzero;"/>
        <path d="M160.51,20.467L162.13,20.467L162.13,25.381C162.13,26.173 162.292,26.746 162.616,27.1C162.94,27.454 163.408,27.631 164.02,27.631C164.488,27.631 164.875,27.535 165.181,27.343C165.487,27.151 165.736,26.902 165.928,26.596C166.12,26.29 166.255,25.942 166.333,25.552C166.411,25.162 166.45,24.763 166.45,24.355L166.45,20.467L168.07,20.467L168.07,27.982C168.07,28.252 168.076,28.537 168.088,28.837L166.54,28.837L166.486,27.595C166.378,27.739 166.246,27.895 166.09,28.063C165.934,28.231 165.742,28.384 165.514,28.522C165.286,28.66 165.022,28.777 164.722,28.873C164.422,28.969 164.08,29.017 163.696,29.017C162.604,29.017 161.8,28.702 161.284,28.072C160.768,27.442 160.51,26.581 160.51,25.489L160.51,20.467Z" style="fill-rule:nonzero;"/>
        <path d="M177.774,27.613C177.678,27.721 177.534,27.859 177.342,28.027C177.15,28.195 176.901,28.357 176.595,28.513C176.289,28.669 175.929,28.804 175.515,28.918C175.101,29.032 174.63,29.089 174.102,29.089C173.454,29.089 172.86,28.981 172.32,28.765C171.78,28.549 171.318,28.243 170.934,27.847C170.55,27.451 170.253,26.977 170.043,26.425C169.833,25.873 169.728,25.261 169.728,24.589C169.728,23.977 169.83,23.404 170.034,22.87C170.238,22.336 170.526,21.874 170.898,21.484C171.27,21.094 171.711,20.785 172.221,20.557C172.731,20.329 173.292,20.215 173.904,20.215C174.624,20.215 175.242,20.353 175.758,20.629C176.274,20.905 176.697,21.271 177.027,21.727C177.357,22.183 177.6,22.705 177.756,23.293C177.912,23.881 177.99,24.493 177.99,25.129L171.384,25.129C171.396,25.501 171.477,25.843 171.627,26.155C171.777,26.467 171.978,26.737 172.23,26.965C172.482,27.193 172.77,27.373 173.094,27.505C173.418,27.637 173.76,27.703 174.12,27.703C174.828,27.703 175.41,27.583 175.866,27.343C176.322,27.103 176.652,26.869 176.856,26.641L177.774,27.613ZM176.316,23.923C176.268,23.275 176.04,22.723 175.632,22.267C175.224,21.811 174.648,21.583 173.904,21.583C173.52,21.583 173.175,21.649 172.869,21.781C172.563,21.913 172.302,22.087 172.086,22.303C171.87,22.519 171.702,22.768 171.582,23.05C171.462,23.332 171.396,23.623 171.384,23.923L176.316,23.923Z" style="fill-rule:nonzero;"/>
        <path d="M179.611,28.837L179.611,21.322C179.611,21.052 179.606,20.767 179.593,20.467L181.141,20.467L181.195,21.727C181.303,21.583 181.436,21.424 181.591,21.25C181.748,21.076 181.94,20.917 182.167,20.773C182.396,20.629 182.662,20.509 182.968,20.413C183.274,20.317 183.62,20.269 184.003,20.269C185.096,20.269 185.906,20.587 186.433,21.223C186.962,21.859 187.225,22.723 187.225,23.815L187.225,28.837L185.605,28.837L185.605,23.941C185.605,23.161 185.438,22.588 185.101,22.222C184.766,21.856 184.291,21.673 183.679,21.673C183.211,21.673 182.822,21.769 182.509,21.961C182.198,22.153 181.949,22.402 181.762,22.708C181.577,23.014 181.442,23.362 181.357,23.752C181.274,24.142 181.231,24.541 181.231,24.949L181.231,28.837L179.611,28.837Z" style="fill-rule:nonzero;"/>
        <path d="M196.497,27.685C196.125,28.105 195.666,28.444 195.12,28.702C194.574,28.96 193.941,29.089 193.221,29.089C192.549,29.089 191.94,28.978 191.394,28.756C190.848,28.534 190.386,28.228 190.008,27.838C189.63,27.448 189.339,26.98 189.135,26.434C188.931,25.888 188.829,25.291 188.829,24.643C188.829,24.031 188.937,23.455 189.153,22.915C189.369,22.375 189.672,21.904 190.062,21.502C190.452,21.1 190.914,20.782 191.448,20.548C191.982,20.314 192.573,20.197 193.221,20.197C193.929,20.197 194.553,20.323 195.093,20.575C195.633,20.827 196.095,21.169 196.479,21.601L195.417,22.627C195.165,22.315 194.859,22.069 194.499,21.889C194.139,21.709 193.713,21.619 193.221,21.619C192.789,21.619 192.402,21.7 192.06,21.862C191.718,22.024 191.43,22.246 191.196,22.528C190.962,22.81 190.782,23.134 190.656,23.5C190.53,23.866 190.467,24.247 190.467,24.643C190.467,25.027 190.53,25.402 190.656,25.768C190.782,26.134 190.962,26.458 191.196,26.74C191.43,27.022 191.718,27.247 192.06,27.415C192.402,27.583 192.789,27.667 193.221,27.667C193.713,27.667 194.154,27.574 194.544,27.388C194.934,27.202 195.255,26.953 195.507,26.641L196.497,27.685Z" style="fill-rule:nonzero;"/>
        <path d="M205.553,27.613C205.457,27.721 205.313,27.859 205.121,28.027C204.929,28.195 204.68,28.357 204.374,28.513C204.068,28.669 203.708,28.804 203.294,28.918C202.88,29.032 202.409,29.089 201.881,29.089C201.233,29.089 200.639,28.981 200.099,28.765C199.559,28.549 199.097,28.243 198.713,27.847C198.329,27.451 198.032,26.977 197.822,26.425C197.612,25.873 197.507,25.261 197.507,24.589C197.507,23.977 197.609,23.404 197.813,22.87C198.017,22.336 198.305,21.874 198.677,21.484C199.049,21.094 199.49,20.785 200,20.557C200.51,20.329 201.071,20.215 201.683,20.215C202.403,20.215 203.021,20.353 203.537,20.629C204.053,20.905 204.476,21.271 204.806,21.727C205.136,22.183 205.379,22.705 205.535,23.293C205.691,23.881 205.769,24.493 205.769,25.129L199.163,25.129C199.175,25.501 199.256,25.843 199.406,26.155C199.556,26.467 199.757,26.737 200.009,26.965C200.261,27.193 200.549,27.373 200.873,27.505C201.197,27.637 201.539,27.703 201.899,27.703C202.607,27.703 203.189,27.583 203.645,27.343C204.101,27.103 204.431,26.869 204.635,26.641L205.553,27.613ZM204.095,23.923C204.047,23.275 203.819,22.723 203.411,22.267C203.003,21.811 202.427,21.583 201.683,21.583C201.299,21.583 200.954,21.649 200.648,21.781C200.342,21.913 200.081,22.087 199.865,22.303C199.649,22.519 199.481,22.768 199.361,23.05C199.241,23.332 199.175,23.623 199.163,23.923L204.095,23.923Z" style="fill-rule:nonzero;"/>
        <path d="M207.391,28.837L207.391,21.268C207.391,21.01 207.385,20.743 207.373,20.467L208.921,20.467L208.975,21.817C209.071,21.673 209.197,21.514 209.353,21.34C209.509,21.166 209.698,21.007 209.92,20.863C210.142,20.719 210.4,20.596 210.694,20.494C210.988,20.392 211.327,20.341 211.711,20.341C211.891,20.341 212.056,20.353 212.206,20.377C212.356,20.401 212.497,20.437 212.629,20.485L212.269,21.997C212.053,21.913 211.777,21.871 211.441,21.871C211.093,21.871 210.772,21.937 210.478,22.069C210.184,22.201 209.929,22.384 209.713,22.618C209.497,22.852 209.326,23.125 209.2,23.437C209.074,23.749 209.011,24.079 209.011,24.427L209.011,28.837L207.391,28.837Z" style="fill-rule:nonzero;"/>
        <path d="M8.317,276.745L10.849,276.745C11.393,276.745 11.843,276.821 12.199,276.973C12.555,277.125 12.839,277.317 13.051,277.549C13.263,277.781 13.411,278.041 13.495,278.329C13.579,278.617 13.621,278.897 13.621,279.169C13.621,279.569 13.553,279.921 13.417,280.225C13.281,280.529 13.093,280.783 12.853,280.987C12.613,281.191 12.327,281.345 11.995,281.449C11.663,281.553 11.301,281.605 10.909,281.605L9.457,281.605L9.457,284.749L8.317,284.749L8.317,276.745ZM10.897,280.621C11.393,280.621 11.775,280.495 12.043,280.243C12.311,279.991 12.445,279.641 12.445,279.193C12.445,278.737 12.307,278.379 12.031,278.119C11.755,277.859 11.377,277.729 10.897,277.729L9.457,277.729L9.457,280.621L10.897,280.621Z" style="fill-rule:nonzero;"/>
        <path d="M14.665,276.745L15.733,276.745L15.733,279.997C15.805,279.901 15.893,279.797 15.997,279.685C16.101,279.573 16.229,279.469 16.381,279.373C16.533,279.277 16.709,279.197 16.909,279.133C17.109,279.069 17.337,279.037 17.593,279.037C18.321,279.037 18.861,279.249 19.213,279.673C19.565,280.097 19.741,280.673 19.741,281.401L19.741,284.749L18.661,284.749L18.661,281.485C18.661,280.965 18.549,280.583 18.325,280.339C18.101,280.095 17.785,279.973 17.377,279.973C17.065,279.973 16.805,280.037 16.597,280.165C16.389,280.293 16.223,280.459 16.099,280.663C15.975,280.867 15.885,281.099 15.829,281.359C15.773,281.619 15.745,281.885 15.745,282.157L15.745,284.749L14.665,284.749L14.665,276.745Z" style="fill-rule:nonzero;"/>
        <path d="M24.649,282.109C24.617,282.101 24.555,282.091 24.463,282.079C24.371,282.067 24.265,282.057 24.145,282.049C24.025,282.041 23.897,282.033 23.761,282.025C23.625,282.017 23.493,282.013 23.365,282.013C23.061,282.013 22.815,282.049 22.627,282.121C22.439,282.193 22.291,282.283 22.183,282.391C22.075,282.499 22.001,282.619 21.961,282.751C21.921,282.883 21.901,283.009 21.901,283.129C21.901,283.433 22.005,283.663 22.213,283.819C22.421,283.975 22.709,284.053 23.077,284.053C23.285,284.053 23.483,284.017 23.671,283.945C23.859,283.873 24.025,283.777 24.169,283.657C24.313,283.537 24.429,283.397 24.517,283.237C24.605,283.077 24.649,282.913 24.649,282.745L24.649,282.109ZM24.661,284.077C24.453,284.357 24.179,284.565 23.839,284.701C23.499,284.837 23.149,284.905 22.789,284.905C22.557,284.905 22.327,284.875 22.099,284.815C21.871,284.755 21.663,284.655 21.475,284.515C21.287,284.375 21.135,284.195 21.019,283.975C20.903,283.755 20.845,283.485 20.845,283.165C20.845,282.565 21.055,282.085 21.475,281.725C21.895,281.365 22.501,281.185 23.293,281.185C23.421,281.185 23.557,281.189 23.701,281.197C23.845,281.205 23.981,281.213 24.109,281.221C24.237,281.229 24.349,281.237 24.445,281.245C24.541,281.253 24.609,281.261 24.649,281.269L24.649,281.065C24.649,280.649 24.523,280.351 24.271,280.171C24.019,279.991 23.677,279.901 23.245,279.901C22.821,279.901 22.485,279.959 22.237,280.075C21.989,280.191 21.781,280.309 21.613,280.429L21.109,279.697C21.205,279.617 21.321,279.537 21.457,279.457C21.593,279.377 21.753,279.303 21.937,279.235C22.121,279.167 22.329,279.111 22.561,279.067C22.793,279.023 23.061,279.001 23.365,279.001C24.085,279.001 24.651,279.175 25.063,279.523C25.475,279.871 25.681,280.365 25.681,281.005L25.681,284.251C25.681,284.447 25.685,284.613 25.693,284.749L24.685,284.749L24.661,284.077Z" style="fill-rule:nonzero;"/>
        <path d="M27.493,283.345C27.693,283.545 27.933,283.705 28.213,283.825C28.493,283.945 28.817,284.005 29.185,284.005C29.545,284.005 29.845,283.947 30.085,283.831C30.325,283.715 30.445,283.533 30.445,283.285C30.445,283.157 30.419,283.047 30.367,282.955C30.315,282.863 30.227,282.781 30.103,282.709C29.979,282.637 29.815,282.571 29.611,282.511C29.407,282.451 29.153,282.385 28.849,282.313C28.633,282.265 28.419,282.201 28.207,282.121C27.995,282.041 27.805,281.935 27.637,281.803C27.469,281.671 27.333,281.511 27.229,281.323C27.125,281.135 27.073,280.909 27.073,280.645C27.073,280.373 27.135,280.135 27.259,279.931C27.383,279.727 27.549,279.555 27.757,279.415C27.965,279.275 28.199,279.169 28.459,279.097C28.719,279.025 28.989,278.989 29.269,278.989C29.741,278.989 30.147,279.051 30.487,279.175C30.827,279.299 31.125,279.473 31.381,279.697L30.793,280.441C30.625,280.289 30.415,280.161 30.163,280.057C29.911,279.953 29.617,279.901 29.281,279.901C28.937,279.901 28.661,279.957 28.453,280.069C28.245,280.181 28.141,280.365 28.141,280.621C28.141,280.861 28.279,281.039 28.555,281.155C28.831,281.271 29.193,281.381 29.641,281.485C29.905,281.549 30.151,281.623 30.379,281.707C30.607,281.791 30.807,281.899 30.979,282.031C31.151,282.163 31.287,282.325 31.387,282.517C31.487,282.709 31.537,282.941 31.537,283.213C31.537,283.493 31.473,283.739 31.345,283.951C31.217,284.163 31.045,284.341 30.829,284.485C30.613,284.629 30.365,284.737 30.085,284.809C29.805,284.881 29.513,284.917 29.209,284.917C28.153,284.917 27.361,284.633 26.833,284.065L27.493,283.345Z" style="fill-rule:nonzero;"/>
        <path d="M35.461,284.917C35.029,284.917 34.633,284.839 34.273,284.683C33.913,284.527 33.603,284.313 33.343,284.041C33.083,283.769 32.879,283.455 32.731,283.099C32.583,282.743 32.509,282.361 32.509,281.953C32.509,281.545 32.583,281.163 32.731,280.807C32.879,280.451 33.083,280.137 33.343,279.865C33.603,279.593 33.913,279.379 34.273,279.223C34.633,279.067 35.029,278.989 35.461,278.989C35.885,278.989 36.277,279.067 36.637,279.223C36.997,279.379 37.309,279.593 37.573,279.865C37.837,280.137 38.043,280.451 38.191,280.807C38.339,281.163 38.413,281.545 38.413,281.953C38.413,282.361 38.339,282.743 38.191,283.099C38.043,283.455 37.837,283.769 37.573,284.041C37.309,284.313 36.997,284.527 36.637,284.683C36.277,284.839 35.885,284.917 35.461,284.917ZM35.461,283.981C35.749,283.981 36.009,283.923 36.241,283.807C36.473,283.691 36.669,283.539 36.829,283.351C36.989,283.163 37.111,282.947 37.195,282.703C37.279,282.459 37.321,282.209 37.321,281.953C37.321,281.705 37.279,281.459 37.195,281.215C37.111,280.971 36.987,280.753 36.823,280.561C36.659,280.369 36.463,280.215 36.235,280.099C36.007,279.983 35.749,279.925 35.461,279.925C35.173,279.925 34.913,279.983 34.681,280.099C34.449,280.215 34.253,280.367 34.093,280.555C33.933,280.743 33.811,280.959 33.727,281.203C33.643,281.447 33.601,281.697 33.601,281.953C33.601,282.209 33.643,282.457 33.727,282.697C33.811,282.937 33.935,283.153 34.099,283.345C34.263,283.537 34.459,283.691 34.687,283.807C34.915,283.923 35.173,283.981 35.461,283.981Z" style="fill-rule:nonzero;"/>
        <path d="M39.613,284.749L39.613,279.703C39.613,279.531 39.609,279.353 39.601,279.169L40.633,279.169L40.669,280.069C40.733,279.973 40.817,279.867 40.921,279.751C41.025,279.635 41.151,279.529 41.299,279.433C41.447,279.337 41.619,279.255 41.815,279.187C42.011,279.119 42.237,279.085 42.493,279.085C42.613,279.085 42.723,279.093 42.823,279.109C42.923,279.125 43.017,279.149 43.105,279.181L42.865,280.189C42.721,280.133 42.537,280.105 42.313,280.105C42.081,280.105 41.867,280.149 41.671,280.237C41.475,280.325 41.305,280.447 41.161,280.603C41.017,280.759 40.903,280.941 40.819,281.149C40.735,281.357 40.693,281.577 40.693,281.809L40.693,284.749L39.613,284.749Z" style="fill-rule:nonzero;"/>
        <rect x="46.273" y="276.745" width="1.152" height="8.004" style="fill-rule:nonzero;"/>
        <path d="M49.057,284.749L49.057,279.739C49.057,279.559 49.053,279.369 49.045,279.169L50.077,279.169L50.113,280.009C50.185,279.913 50.273,279.807 50.377,279.691C50.481,279.575 50.609,279.469 50.761,279.373C50.913,279.277 51.091,279.197 51.295,279.133C51.499,279.069 51.729,279.037 51.985,279.037C52.713,279.037 53.253,279.249 53.605,279.673C53.957,280.097 54.133,280.673 54.133,281.401L54.133,284.749L53.053,284.749L53.053,281.485C53.053,280.965 52.941,280.583 52.717,280.339C52.493,280.095 52.177,279.973 51.769,279.973C51.457,279.973 51.197,280.037 50.989,280.165C50.781,280.293 50.615,280.459 50.491,280.663C50.367,280.867 50.277,281.099 50.221,281.359C50.165,281.619 50.137,281.885 50.137,282.157L50.137,284.749L49.057,284.749Z" style="fill-rule:nonzero;"/>
        <g id="XY-Controls" serif:id="XY Controls">
            <g id="X">
                <path d="M18.27,43.441L19.542,43.441L21.078,49.897L22.818,43.681L23.934,43.681L25.638,49.885L27.174,43.441L28.374,43.441L26.226,51.445L25.002,51.445L23.334,45.529L21.618,51.445L20.406,51.445L18.27,43.441Z" style="fill-rule:nonzero;"/>
                <path d="M29.238,43.657L30.45,43.657L30.45,44.869L29.238,44.869L29.238,43.657ZM29.31,45.865L30.39,45.865L30.39,51.445L29.31,51.445L29.31,45.865Z" style="fill-rule:nonzero;"/>
                <path d="M35.862,47.101C35.782,47.037 35.634,46.951 35.418,46.843C35.202,46.735 34.894,46.681 34.494,46.681C34.23,46.681 33.988,46.729 33.768,46.825C33.548,46.921 33.356,47.057 33.192,47.233C33.028,47.409 32.9,47.625 32.808,47.881C32.716,48.137 32.67,48.425 32.67,48.745C32.67,49.009 32.702,49.259 32.766,49.495C32.83,49.731 32.928,49.937 33.06,50.113C33.192,50.289 33.36,50.427 33.564,50.527C33.768,50.627 34.01,50.677 34.29,50.677C34.57,50.677 34.81,50.625 35.01,50.521C35.21,50.417 35.372,50.287 35.496,50.131C35.62,49.975 35.712,49.803 35.772,49.615C35.832,49.427 35.862,49.253 35.862,49.093L35.862,47.101ZM35.862,50.737C35.822,50.785 35.756,50.859 35.664,50.959C35.572,51.059 35.45,51.157 35.298,51.253C35.146,51.349 34.968,51.433 34.764,51.505C34.56,51.577 34.322,51.613 34.05,51.613C33.698,51.613 33.37,51.545 33.066,51.409C32.762,51.273 32.498,51.081 32.274,50.833C32.05,50.585 31.876,50.283 31.752,49.927C31.628,49.571 31.566,49.173 31.566,48.733C31.566,48.205 31.658,47.751 31.842,47.371C32.026,46.991 32.26,46.679 32.544,46.435C32.828,46.191 33.136,46.013 33.468,45.901C33.8,45.789 34.114,45.733 34.41,45.733C34.81,45.733 35.122,45.781 35.346,45.877C35.57,45.973 35.742,46.045 35.862,46.093L35.862,43.441L36.942,43.441L36.942,50.875C36.942,51.055 36.946,51.245 36.954,51.445L35.898,51.445L35.862,50.737Z" style="fill-rule:nonzero;"/>
                <path d="M38.838,46.765L37.83,46.765L37.83,45.865L38.838,45.865L38.838,44.041L39.918,44.041L39.918,45.865L41.55,45.865L41.55,46.765L39.918,46.765L39.918,49.513C39.918,49.961 39.988,50.269 40.128,50.437C40.268,50.605 40.466,50.689 40.722,50.689C40.93,50.689 41.102,50.657 41.238,50.593C41.374,50.529 41.51,50.433 41.646,50.305L42.138,50.965C41.906,51.189 41.668,51.351 41.424,51.451C41.18,51.551 40.89,51.601 40.554,51.601C39.962,51.601 39.528,51.441 39.252,51.121C38.976,50.801 38.838,50.301 38.838,49.621L38.838,46.765Z" style="fill-rule:nonzero;"/>
                <path d="M42.87,43.441L43.938,43.441L43.938,46.693C44.01,46.597 44.098,46.493 44.202,46.381C44.306,46.269 44.434,46.165 44.586,46.069C44.738,45.973 44.914,45.893 45.114,45.829C45.314,45.765 45.542,45.733 45.798,45.733C46.526,45.733 47.066,45.945 47.418,46.369C47.77,46.793 47.946,47.369 47.946,48.097L47.946,51.445L46.866,51.445L46.866,48.181C46.866,47.661 46.754,47.279 46.53,47.035C46.306,46.791 45.99,46.669 45.582,46.669C45.27,46.669 45.01,46.733 44.802,46.861C44.594,46.989 44.428,47.155 44.304,47.359C44.18,47.563 44.09,47.795 44.034,48.055C43.978,48.315 43.95,48.581 43.95,48.853L43.95,51.445L42.87,51.445L42.87,43.441Z" style="fill-rule:nonzero;"/>
                <path d="M33.36,70.2L33.36,181.877" style="fill:none;stroke:black;stroke-width:1px;stroke-dasharray:2,2,0,0;"/>
                <rect x="19.9" y="133.031" width="2.216" height="0.943" style="fill-rule:nonzero;"/>
                <path d="M46.708,134.358L46.708,133.255L45.292,133.255L45.292,131.839L44.189,131.839L44.189,133.255L42.773,133.255L42.773,134.358L44.189,134.358L44.189,135.774L45.292,135.774L45.292,134.358L46.708,134.358Z" style="fill-rule:nonzero;"/>
            </g>
            <g id="Y">
                <path d="M74.806,49.501C74.918,49.629 75.044,49.759 75.184,49.891C75.324,50.023 75.482,50.141 75.658,50.245C75.834,50.349 76.03,50.433 76.246,50.497C76.462,50.561 76.698,50.593 76.954,50.593C77.482,50.593 77.894,50.473 78.19,50.233C78.486,49.993 78.634,49.669 78.634,49.261C78.634,48.821 78.466,48.491 78.13,48.271C77.794,48.051 77.31,47.873 76.678,47.737C76.334,47.665 76.022,47.565 75.742,47.437C75.462,47.309 75.22,47.149 75.016,46.957C74.812,46.765 74.654,46.543 74.542,46.291C74.43,46.039 74.374,45.753 74.374,45.433C74.374,45.137 74.43,44.857 74.542,44.593C74.654,44.329 74.822,44.097 75.046,43.897C75.27,43.697 75.55,43.537 75.886,43.417C76.222,43.297 76.61,43.237 77.05,43.237C77.442,43.237 77.78,43.279 78.064,43.363C78.348,43.447 78.59,43.549 78.79,43.669C78.99,43.789 79.15,43.913 79.27,44.041C79.39,44.169 79.482,44.273 79.546,44.353L78.778,45.061C78.73,45.005 78.658,44.931 78.562,44.839C78.466,44.747 78.344,44.657 78.196,44.569C78.048,44.481 77.876,44.407 77.68,44.347C77.484,44.287 77.258,44.257 77.002,44.257C76.746,44.257 76.526,44.291 76.342,44.359C76.158,44.427 76.006,44.515 75.886,44.623C75.766,44.731 75.678,44.853 75.622,44.989C75.566,45.125 75.538,45.261 75.538,45.397C75.538,45.597 75.58,45.767 75.664,45.907C75.748,46.047 75.87,46.171 76.03,46.279C76.19,46.387 76.388,46.479 76.624,46.555C76.86,46.631 77.13,46.705 77.434,46.777C77.73,46.849 78.02,46.943 78.304,47.059C78.588,47.175 78.842,47.331 79.066,47.527C79.29,47.723 79.468,47.963 79.6,48.247C79.732,48.531 79.798,48.877 79.798,49.285C79.798,49.629 79.726,49.945 79.582,50.233C79.438,50.521 79.24,50.771 78.988,50.983C78.736,51.195 78.438,51.359 78.094,51.475C77.75,51.591 77.378,51.649 76.978,51.649C76.602,51.649 76.26,51.605 75.952,51.517C75.644,51.429 75.364,51.317 75.112,51.181C74.86,51.045 74.64,50.895 74.452,50.731C74.264,50.567 74.11,50.405 73.99,50.245L74.806,49.501Z" style="fill-rule:nonzero;"/>
                <path d="M81.25,46.765L80.242,46.765L80.242,45.865L81.25,45.865L81.25,44.041L82.33,44.041L82.33,45.865L83.962,45.865L83.962,46.765L82.33,46.765L82.33,49.513C82.33,49.961 82.4,50.269 82.54,50.437C82.68,50.605 82.878,50.689 83.134,50.689C83.342,50.689 83.514,50.657 83.65,50.593C83.786,50.529 83.922,50.433 84.058,50.305L84.55,50.965C84.318,51.189 84.08,51.351 83.836,51.451C83.592,51.551 83.302,51.601 82.966,51.601C82.374,51.601 81.94,51.441 81.664,51.121C81.388,50.801 81.25,50.301 81.25,49.621L81.25,46.765Z" style="fill-rule:nonzero;"/>
                <path d="M90.382,50.629C90.318,50.701 90.222,50.793 90.094,50.905C89.966,51.017 89.8,51.125 89.596,51.229C89.392,51.333 89.152,51.423 88.876,51.499C88.6,51.575 88.286,51.613 87.934,51.613C87.502,51.613 87.106,51.541 86.746,51.397C86.386,51.253 86.078,51.049 85.822,50.785C85.566,50.521 85.368,50.205 85.228,49.837C85.088,49.469 85.018,49.061 85.018,48.613C85.018,48.205 85.086,47.823 85.222,47.467C85.358,47.111 85.55,46.803 85.798,46.543C86.046,46.283 86.34,46.077 86.68,45.925C87.02,45.773 87.394,45.697 87.802,45.697C88.282,45.697 88.694,45.789 89.038,45.973C89.382,46.157 89.664,46.401 89.884,46.705C90.104,47.009 90.266,47.357 90.37,47.749C90.474,48.141 90.526,48.549 90.526,48.973L86.122,48.973C86.13,49.221 86.184,49.449 86.284,49.657C86.384,49.865 86.518,50.045 86.686,50.197C86.854,50.349 87.046,50.469 87.262,50.557C87.478,50.645 87.706,50.689 87.946,50.689C88.418,50.689 88.806,50.609 89.11,50.449C89.414,50.289 89.634,50.133 89.77,49.981L90.382,50.629ZM89.41,48.169C89.378,47.737 89.226,47.369 88.954,47.065C88.682,46.761 88.298,46.609 87.802,46.609C87.546,46.609 87.316,46.653 87.112,46.741C86.908,46.829 86.734,46.945 86.59,47.089C86.446,47.233 86.334,47.399 86.254,47.587C86.174,47.775 86.13,47.969 86.122,48.169L89.41,48.169Z" style="fill-rule:nonzero;"/>
                <path d="M91.642,53.845L91.642,46.435C91.642,46.255 91.638,46.065 91.63,45.865L92.662,45.865L92.698,46.657C92.754,46.585 92.834,46.497 92.938,46.393C93.042,46.289 93.172,46.189 93.328,46.093C93.484,45.997 93.666,45.915 93.874,45.847C94.082,45.779 94.322,45.745 94.594,45.745C95.026,45.745 95.4,45.825 95.716,45.985C96.032,46.145 96.294,46.361 96.502,46.633C96.71,46.905 96.864,47.217 96.964,47.569C97.064,47.921 97.114,48.293 97.114,48.685C97.114,49.189 97.028,49.625 96.856,49.993C96.684,50.361 96.46,50.665 96.184,50.905C95.908,51.145 95.6,51.323 95.26,51.439C94.92,51.555 94.586,51.613 94.258,51.613C93.882,51.613 93.58,51.575 93.352,51.499C93.124,51.423 92.91,51.341 92.71,51.253L92.71,53.845L91.642,53.845ZM92.71,50.233C92.838,50.337 93.022,50.437 93.262,50.533C93.502,50.629 93.802,50.677 94.162,50.677C94.434,50.677 94.684,50.627 94.912,50.527C95.14,50.427 95.336,50.287 95.5,50.107C95.664,49.927 95.79,49.717 95.878,49.477C95.966,49.237 96.01,48.973 96.01,48.685C96.01,48.413 95.98,48.157 95.92,47.917C95.86,47.677 95.764,47.465 95.632,47.281C95.5,47.097 95.33,46.951 95.122,46.843C94.914,46.735 94.658,46.681 94.354,46.681C93.97,46.681 93.642,46.787 93.37,46.999C93.098,47.211 92.906,47.521 92.794,47.929C92.754,48.057 92.73,48.195 92.722,48.343C92.714,48.491 92.71,48.645 92.71,48.805L92.71,50.233Z" style="fill-rule:nonzero;"/>
                <path d="M98.614,50.041C98.814,50.241 99.054,50.401 99.334,50.521C99.614,50.641 99.938,50.701 100.306,50.701C100.666,50.701 100.966,50.643 101.206,50.527C101.446,50.411 101.566,50.229 101.566,49.981C101.566,49.853 101.54,49.743 101.488,49.651C101.436,49.559 101.348,49.477 101.224,49.405C101.1,49.333 100.936,49.267 100.732,49.207C100.528,49.147 100.274,49.081 99.97,49.009C99.754,48.961 99.54,48.897 99.328,48.817C99.116,48.737 98.926,48.631 98.758,48.499C98.59,48.367 98.454,48.207 98.35,48.019C98.246,47.831 98.194,47.605 98.194,47.341C98.194,47.069 98.256,46.831 98.38,46.627C98.504,46.423 98.67,46.251 98.878,46.111C99.086,45.971 99.32,45.865 99.58,45.793C99.84,45.721 100.11,45.685 100.39,45.685C100.862,45.685 101.268,45.747 101.608,45.871C101.948,45.995 102.246,46.169 102.502,46.393L101.914,47.137C101.746,46.985 101.536,46.857 101.284,46.753C101.032,46.649 100.738,46.597 100.402,46.597C100.058,46.597 99.782,46.653 99.574,46.765C99.366,46.877 99.262,47.061 99.262,47.317C99.262,47.557 99.4,47.735 99.676,47.851C99.952,47.967 100.314,48.077 100.762,48.181C101.026,48.245 101.272,48.319 101.5,48.403C101.728,48.487 101.928,48.595 102.1,48.727C102.272,48.859 102.408,49.021 102.508,49.213C102.608,49.405 102.658,49.637 102.658,49.909C102.658,50.189 102.594,50.435 102.466,50.647C102.338,50.859 102.166,51.037 101.95,51.181C101.734,51.325 101.486,51.433 101.206,51.505C100.926,51.577 100.634,51.613 100.33,51.613C99.274,51.613 98.482,51.329 97.954,50.761L98.614,50.041Z" style="fill-rule:nonzero;"/>
                <path d="M88.36,70.2L88.36,181.877" style="fill:none;stroke:black;stroke-width:1px;stroke-dasharray:2,2,0,0;"/>
                <rect x="74.9" y="133.031" width="2.216" height="0.943" style="fill-rule:nonzero;"/>
                <path d="M101.708,134.358L101.708,133.255L100.292,133.255L100.292,131.839L99.189,131.839L99.189,133.255L97.773,133.255L97.773,134.358L99.189,134.358L99.189,135.774L100.292,135.774L100.292,134.358L101.708,134.358Z" style="fill-rule:nonzero;"/>
            </g>
        </g>
        <path d="M80.311,276.745L82.867,276.745C83.379,276.745 83.811,276.815 84.163,276.955C84.515,277.095 84.801,277.275 85.021,277.495C85.241,277.715 85.401,277.965 85.501,278.245C85.601,278.525 85.651,278.809 85.651,279.097C85.651,279.609 85.531,280.061 85.291,280.453C85.051,280.845 84.679,281.137 84.175,281.329L86.047,284.749L84.751,284.749L83.035,281.473L81.427,281.473L81.427,284.749L80.311,284.749L80.311,276.745ZM82.963,280.501C83.467,280.501 83.845,280.377 84.097,280.129C84.349,279.881 84.475,279.549 84.475,279.133C84.475,278.693 84.339,278.351 84.067,278.107C83.795,277.863 83.419,277.741 82.939,277.741L81.427,277.741L81.427,280.501L82.963,280.501Z" style="fill-rule:nonzero;"/>
        <path d="M87.163,279.169L88.243,279.169L88.243,282.445C88.243,282.973 88.351,283.355 88.567,283.591C88.783,283.827 89.095,283.945 89.503,283.945C89.815,283.945 90.073,283.881 90.277,283.753C90.481,283.625 90.647,283.459 90.775,283.255C90.903,283.051 90.993,282.819 91.045,282.559C91.097,282.299 91.123,282.033 91.123,281.761L91.123,279.169L92.203,279.169L92.203,284.179C92.203,284.359 92.207,284.549 92.215,284.749L91.183,284.749L91.147,283.921C91.075,284.017 90.987,284.121 90.883,284.233C90.779,284.345 90.651,284.447 90.499,284.539C90.347,284.631 90.171,284.709 89.971,284.773C89.771,284.837 89.543,284.869 89.287,284.869C88.559,284.869 88.023,284.659 87.679,284.239C87.335,283.819 87.163,283.245 87.163,282.517L87.163,279.169Z" style="fill-rule:nonzero;"/>
        <path d="M93.679,284.749L93.679,279.739C93.679,279.559 93.675,279.369 93.667,279.169L94.699,279.169L94.735,280.009C94.807,279.913 94.895,279.807 94.999,279.691C95.103,279.575 95.231,279.469 95.383,279.373C95.535,279.277 95.713,279.197 95.917,279.133C96.121,279.069 96.351,279.037 96.607,279.037C97.335,279.037 97.875,279.249 98.227,279.673C98.579,280.097 98.755,280.673 98.755,281.401L98.755,284.749L97.675,284.749L97.675,281.485C97.675,280.965 97.563,280.583 97.339,280.339C97.115,280.095 96.799,279.973 96.391,279.973C96.079,279.973 95.819,280.037 95.611,280.165C95.403,280.293 95.237,280.459 95.113,280.663C94.989,280.867 94.899,281.099 94.843,281.359C94.787,281.619 94.759,281.885 94.759,282.157L94.759,284.749L93.679,284.749Z" style="fill-rule:nonzero;"/>
        <g>
            <path d="M53.271,232.899L54.975,232.899C55.317,232.899 55.605,232.946 55.839,233.039C56.074,233.132 56.265,233.252 56.411,233.399C56.558,233.546 56.665,233.712 56.731,233.899C56.798,234.086 56.831,234.275 56.831,234.467C56.831,234.808 56.751,235.11 56.591,235.371C56.431,235.632 56.183,235.827 55.847,235.955L57.095,238.235L56.231,238.235L55.087,236.051L54.015,236.051L54.015,238.235L53.271,238.235L53.271,232.899ZM55.039,235.403C55.375,235.403 55.627,235.32 55.795,235.155C55.963,234.99 56.047,234.768 56.047,234.491C56.047,234.198 55.957,233.97 55.775,233.807C55.594,233.644 55.343,233.563 55.023,233.563L54.015,233.563L54.015,235.403L55.039,235.403Z" style="fill-rule:nonzero;"/>
            <path d="M60.299,236.475C60.278,236.47 60.237,236.463 60.175,236.455C60.114,236.447 60.043,236.44 59.963,236.435C59.883,236.43 59.798,236.424 59.707,236.419C59.617,236.414 59.529,236.411 59.443,236.411C59.241,236.411 59.077,236.435 58.951,236.483C58.826,236.531 58.727,236.591 58.655,236.663C58.583,236.735 58.534,236.815 58.507,236.903C58.481,236.991 58.467,237.075 58.467,237.155C58.467,237.358 58.537,237.511 58.675,237.615C58.814,237.719 59.006,237.771 59.251,237.771C59.39,237.771 59.522,237.747 59.647,237.699C59.773,237.651 59.883,237.587 59.979,237.507C60.075,237.427 60.153,237.334 60.211,237.227C60.27,237.12 60.299,237.011 60.299,236.899L60.299,236.475ZM60.307,237.787C60.169,237.974 59.986,238.112 59.759,238.203C59.533,238.294 59.299,238.339 59.059,238.339C58.905,238.339 58.751,238.319 58.599,238.279C58.447,238.239 58.309,238.172 58.183,238.079C58.058,237.986 57.957,237.866 57.879,237.719C57.802,237.572 57.763,237.392 57.763,237.179C57.763,236.779 57.903,236.459 58.183,236.219C58.463,235.979 58.867,235.859 59.395,235.859C59.481,235.859 59.571,235.862 59.667,235.867C59.763,235.872 59.854,235.878 59.939,235.883C60.025,235.888 60.099,235.894 60.163,235.899C60.227,235.904 60.273,235.91 60.299,235.915L60.299,235.779C60.299,235.502 60.215,235.303 60.047,235.183C59.879,235.063 59.651,235.003 59.363,235.003C59.081,235.003 58.857,235.042 58.691,235.119C58.526,235.196 58.387,235.275 58.275,235.355L57.939,234.867C58.003,234.814 58.081,234.76 58.171,234.707C58.262,234.654 58.369,234.604 58.491,234.559C58.614,234.514 58.753,234.476 58.907,234.447C59.062,234.418 59.241,234.403 59.443,234.403C59.923,234.403 60.301,234.519 60.575,234.751C60.85,234.983 60.987,235.312 60.987,235.739L60.987,237.903C60.987,238.034 60.99,238.144 60.995,238.235L60.323,238.235L60.307,237.787Z" style="fill-rule:nonzero;"/>
            <path d="M61.743,234.515L62.535,234.515L63.367,237.355L64.263,234.515L64.879,234.515L65.775,237.379L66.591,234.515L67.335,234.515L66.103,238.235L65.391,238.235L64.527,235.635L63.671,238.235L62.999,238.235L61.743,234.515Z" style="fill-rule:nonzero;"/>
            <path d="M49.731,201.713C49.806,201.798 49.89,201.885 49.983,201.973C50.077,202.061 50.182,202.139 50.299,202.209C50.417,202.278 50.547,202.334 50.691,202.377C50.835,202.419 50.993,202.441 51.163,202.441C51.515,202.441 51.79,202.361 51.987,202.201C52.185,202.041 52.283,201.825 52.283,201.553C52.283,201.259 52.171,201.039 51.947,200.893C51.723,200.746 51.401,200.627 50.979,200.537C50.75,200.489 50.542,200.422 50.355,200.337C50.169,200.251 50.007,200.145 49.871,200.017C49.735,199.889 49.63,199.741 49.555,199.573C49.481,199.405 49.443,199.214 49.443,199.001C49.443,198.803 49.481,198.617 49.555,198.441C49.63,198.265 49.742,198.11 49.891,197.977C50.041,197.843 50.227,197.737 50.451,197.657C50.675,197.577 50.934,197.537 51.227,197.537C51.489,197.537 51.714,197.565 51.903,197.621C52.093,197.677 52.254,197.745 52.387,197.825C52.521,197.905 52.627,197.987 52.707,198.073C52.787,198.158 52.849,198.227 52.891,198.281L52.379,198.753C52.347,198.715 52.299,198.666 52.235,198.605C52.171,198.543 52.09,198.483 51.991,198.425C51.893,198.366 51.778,198.317 51.647,198.277C51.517,198.237 51.366,198.217 51.195,198.217C51.025,198.217 50.878,198.239 50.755,198.285C50.633,198.33 50.531,198.389 50.451,198.461C50.371,198.533 50.313,198.614 50.275,198.705C50.238,198.795 50.219,198.886 50.219,198.977C50.219,199.11 50.247,199.223 50.303,199.317C50.359,199.41 50.441,199.493 50.547,199.565C50.654,199.637 50.786,199.698 50.943,199.749C51.101,199.799 51.281,199.849 51.483,199.897C51.681,199.945 51.874,200.007 52.063,200.085C52.253,200.162 52.422,200.266 52.571,200.397C52.721,200.527 52.839,200.687 52.927,200.877C53.015,201.066 53.059,201.297 53.059,201.569C53.059,201.798 53.011,202.009 52.915,202.201C52.819,202.393 52.687,202.559 52.519,202.701C52.351,202.842 52.153,202.951 51.923,203.029C51.694,203.106 51.446,203.145 51.179,203.145C50.929,203.145 50.701,203.115 50.495,203.057C50.29,202.998 50.103,202.923 49.935,202.833C49.767,202.742 49.621,202.642 49.495,202.533C49.37,202.423 49.267,202.315 49.187,202.209L49.731,201.713Z" style="fill-rule:nonzero;"/>
            <path d="M54.143,203.009L54.143,199.669C54.143,199.549 54.141,199.422 54.135,199.289L54.823,199.289L54.847,199.849C54.89,199.785 54.946,199.714 55.015,199.637C55.085,199.559 55.167,199.489 55.263,199.425C55.359,199.361 55.473,199.307 55.603,199.265C55.734,199.222 55.885,199.201 56.055,199.201C56.343,199.201 56.582,199.258 56.771,199.373C56.961,199.487 57.109,199.654 57.215,199.873C57.365,199.697 57.547,199.541 57.763,199.405C57.979,199.269 58.247,199.201 58.567,199.201C59.047,199.201 59.402,199.343 59.631,199.629C59.861,199.914 59.975,200.297 59.975,200.777L59.975,203.009L59.255,203.009L59.255,200.833C59.255,200.486 59.187,200.231 59.051,200.069C58.915,199.906 58.717,199.825 58.455,199.825C58.306,199.825 58.169,199.855 58.043,199.917C57.918,199.978 57.809,200.059 57.715,200.161C57.622,200.262 57.55,200.381 57.499,200.517C57.449,200.653 57.423,200.795 57.423,200.945L57.423,203.009L56.703,203.009L56.703,200.833C56.703,200.486 56.635,200.231 56.499,200.069C56.363,199.906 56.167,199.825 55.911,199.825C55.714,199.825 55.549,199.867 55.415,199.953C55.282,200.038 55.174,200.149 55.091,200.285C55.009,200.421 54.95,200.577 54.915,200.753C54.881,200.929 54.863,201.105 54.863,201.281L54.863,203.009L54.143,203.009Z" style="fill-rule:nonzero;"/>
            <path d="M63.523,201.249C63.502,201.243 63.461,201.237 63.399,201.229C63.338,201.221 63.267,201.214 63.187,201.209C63.107,201.203 63.022,201.198 62.931,201.193C62.841,201.187 62.753,201.185 62.667,201.185C62.465,201.185 62.301,201.209 62.175,201.257C62.05,201.305 61.951,201.365 61.879,201.437C61.807,201.509 61.758,201.589 61.731,201.677C61.705,201.765 61.691,201.849 61.691,201.929C61.691,202.131 61.761,202.285 61.899,202.389C62.038,202.493 62.23,202.545 62.475,202.545C62.614,202.545 62.746,202.521 62.871,202.473C62.997,202.425 63.107,202.361 63.203,202.281C63.299,202.201 63.377,202.107 63.435,202.001C63.494,201.894 63.523,201.785 63.523,201.673L63.523,201.249ZM63.531,202.561C63.393,202.747 63.21,202.886 62.983,202.977C62.757,203.067 62.523,203.113 62.283,203.113C62.129,203.113 61.975,203.093 61.823,203.053C61.671,203.013 61.533,202.946 61.407,202.853C61.282,202.759 61.181,202.639 61.103,202.493C61.026,202.346 60.987,202.166 60.987,201.953C60.987,201.553 61.127,201.233 61.407,200.993C61.687,200.753 62.091,200.633 62.619,200.633C62.705,200.633 62.795,200.635 62.891,200.641C62.987,200.646 63.078,200.651 63.163,200.657C63.249,200.662 63.323,200.667 63.387,200.673C63.451,200.678 63.497,200.683 63.523,200.689L63.523,200.553C63.523,200.275 63.439,200.077 63.271,199.957C63.103,199.837 62.875,199.777 62.587,199.777C62.305,199.777 62.081,199.815 61.915,199.893C61.75,199.97 61.611,200.049 61.499,200.129L61.163,199.641C61.227,199.587 61.305,199.534 61.395,199.481C61.486,199.427 61.593,199.378 61.715,199.333C61.838,199.287 61.977,199.25 62.131,199.221C62.286,199.191 62.465,199.177 62.667,199.177C63.147,199.177 63.525,199.293 63.799,199.525C64.074,199.757 64.211,200.086 64.211,200.513L64.211,202.677C64.211,202.807 64.214,202.918 64.219,203.009L63.547,203.009L63.531,202.561Z" style="fill-rule:nonzero;"/>
            <path d="M65.455,203.009L65.455,199.645C65.455,199.53 65.453,199.411 65.447,199.289L66.135,199.289L66.159,199.889C66.202,199.825 66.258,199.754 66.327,199.677C66.397,199.599 66.481,199.529 66.579,199.465C66.678,199.401 66.793,199.346 66.923,199.301C67.054,199.255 67.205,199.233 67.375,199.233C67.455,199.233 67.529,199.238 67.595,199.249C67.662,199.259 67.725,199.275 67.783,199.297L67.623,199.969C67.527,199.931 67.405,199.913 67.255,199.913C67.101,199.913 66.958,199.942 66.827,200.001C66.697,200.059 66.583,200.141 66.487,200.245C66.391,200.349 66.315,200.47 66.259,200.609C66.203,200.747 66.175,200.894 66.175,201.049L66.175,203.009L65.455,203.009Z" style="fill-rule:nonzero;"/>
            <path d="M68.947,199.889L68.275,199.889L68.275,199.289L68.947,199.289L68.947,198.073L69.667,198.073L69.667,199.289L70.755,199.289L70.755,199.889L69.667,199.889L69.667,201.721C69.667,202.019 69.714,202.225 69.807,202.337C69.901,202.449 70.033,202.505 70.203,202.505C70.342,202.505 70.457,202.483 70.547,202.441C70.638,202.398 70.729,202.334 70.819,202.249L71.147,202.689C70.993,202.838 70.834,202.946 70.671,203.013C70.509,203.079 70.315,203.113 70.091,203.113C69.697,203.113 69.407,203.006 69.223,202.793C69.039,202.579 68.947,202.246 68.947,201.793L68.947,199.889Z" style="fill-rule:nonzero;"/>
            <g transform="matrix(1,0,0,1,-16.9183,18.9185)">
                <g transform="matrix(8,0,0,8,47.9766,197.497)">
                    <path d="M0.417,-0.339L0.651,-0.339L0.651,-0.073C0.638,-0.062 0.624,-0.051 0.608,-0.04C0.591,-0.029 0.572,-0.02 0.551,-0.012C0.529,-0.003 0.505,0.003 0.478,0.008C0.451,0.013 0.421,0.016 0.388,0.016C0.336,0.016 0.289,0.007 0.248,-0.011C0.206,-0.028 0.17,-0.053 0.141,-0.084C0.111,-0.115 0.088,-0.151 0.073,-0.194C0.057,-0.236 0.049,-0.282 0.049,-0.332C0.049,-0.381 0.057,-0.426 0.074,-0.469C0.09,-0.512 0.113,-0.549 0.142,-0.581C0.171,-0.612 0.206,-0.637 0.248,-0.656C0.289,-0.674 0.334,-0.683 0.384,-0.683C0.419,-0.683 0.451,-0.679 0.479,-0.671C0.507,-0.662 0.532,-0.652 0.553,-0.639C0.574,-0.625 0.591,-0.611 0.606,-0.596C0.621,-0.581 0.633,-0.566 0.643,-0.552L0.575,-0.494C0.567,-0.505 0.557,-0.517 0.546,-0.53C0.535,-0.542 0.521,-0.553 0.506,-0.563C0.491,-0.573 0.473,-0.581 0.454,-0.588C0.434,-0.595 0.411,-0.598 0.386,-0.598C0.349,-0.598 0.316,-0.591 0.287,-0.577C0.258,-0.563 0.233,-0.544 0.213,-0.52C0.192,-0.496 0.177,-0.468 0.166,-0.436C0.155,-0.403 0.149,-0.369 0.149,-0.333C0.149,-0.294 0.155,-0.259 0.167,-0.227C0.179,-0.195 0.196,-0.168 0.218,-0.145C0.239,-0.122 0.265,-0.103 0.294,-0.091C0.323,-0.078 0.356,-0.071 0.391,-0.071C0.43,-0.071 0.463,-0.075 0.49,-0.084C0.517,-0.093 0.54,-0.105 0.559,-0.12L0.559,-0.256L0.417,-0.256L0.417,-0.339Z" style="fill-rule:nonzero;"/>
                </g>
                <g transform="matrix(8,0,0,8,53.7566,197.497)">
                    <path d="M0.352,-0.22C0.349,-0.221 0.344,-0.222 0.337,-0.223C0.329,-0.224 0.32,-0.224 0.31,-0.225C0.3,-0.226 0.289,-0.226 0.278,-0.227C0.267,-0.228 0.256,-0.228 0.245,-0.228C0.22,-0.228 0.199,-0.225 0.184,-0.219C0.168,-0.213 0.156,-0.205 0.147,-0.197C0.138,-0.188 0.131,-0.178 0.128,-0.167C0.125,-0.156 0.123,-0.145 0.123,-0.135C0.123,-0.11 0.132,-0.091 0.149,-0.078C0.166,-0.065 0.19,-0.058 0.221,-0.058C0.238,-0.058 0.255,-0.061 0.271,-0.067C0.286,-0.073 0.3,-0.081 0.312,-0.091C0.324,-0.101 0.334,-0.113 0.341,-0.126C0.348,-0.139 0.352,-0.153 0.352,-0.167L0.352,-0.22ZM0.353,-0.056C0.336,-0.033 0.313,-0.015 0.284,-0.004C0.256,0.007 0.227,0.013 0.197,0.013C0.178,0.013 0.159,0.01 0.14,0.005C0.121,0 0.103,-0.008 0.087,-0.02C0.072,-0.031 0.059,-0.046 0.05,-0.065C0.04,-0.083 0.035,-0.105 0.035,-0.132C0.035,-0.182 0.053,-0.222 0.087,-0.252C0.123,-0.282 0.173,-0.297 0.239,-0.297C0.25,-0.297 0.261,-0.297 0.273,-0.296C0.285,-0.295 0.296,-0.295 0.307,-0.294C0.318,-0.293 0.327,-0.293 0.335,-0.292C0.343,-0.291 0.349,-0.291 0.352,-0.29L0.352,-0.307C0.352,-0.342 0.342,-0.367 0.321,-0.382C0.3,-0.397 0.271,-0.404 0.235,-0.404C0.2,-0.404 0.172,-0.399 0.151,-0.39C0.13,-0.38 0.113,-0.37 0.099,-0.36L0.057,-0.421C0.065,-0.428 0.075,-0.434 0.086,-0.441C0.097,-0.448 0.111,-0.454 0.126,-0.46C0.141,-0.465 0.159,-0.47 0.178,-0.473C0.197,-0.477 0.22,-0.479 0.245,-0.479C0.305,-0.479 0.352,-0.465 0.387,-0.436C0.421,-0.406 0.438,-0.365 0.438,-0.312L0.438,-0.042C0.438,-0.025 0.438,-0.011 0.439,-0L0.355,-0L0.353,-0.056Z" style="fill-rule:nonzero;"/>
                </g>
                <g transform="matrix(8,0,0,8,57.7606,197.497)">
                    <path d="M0.102,-0.39L0.018,-0.39L0.018,-0.465L0.102,-0.465L0.102,-0.617L0.192,-0.617L0.192,-0.465L0.328,-0.465L0.328,-0.39L0.192,-0.39L0.192,-0.161C0.192,-0.124 0.198,-0.098 0.21,-0.084C0.221,-0.07 0.238,-0.063 0.259,-0.063C0.276,-0.063 0.291,-0.066 0.302,-0.071C0.313,-0.076 0.325,-0.084 0.336,-0.095L0.377,-0.04C0.358,-0.021 0.338,-0.008 0.318,0C0.297,0.009 0.273,0.013 0.245,0.013C0.196,0.013 0.16,-0 0.137,-0.027C0.114,-0.054 0.102,-0.095 0.102,-0.152L0.102,-0.39Z" style="fill-rule:nonzero;"/>
                </g>
                <g transform="matrix(8,0,0,8,60.8446,197.497)">
                    <path d="M0.486,-0.068C0.481,-0.062 0.473,-0.054 0.462,-0.045C0.451,-0.036 0.438,-0.027 0.421,-0.018C0.404,-0.009 0.384,-0.002 0.361,0.004C0.338,0.011 0.311,0.014 0.282,0.014C0.246,0.014 0.213,0.008 0.183,-0.004C0.153,-0.016 0.127,-0.033 0.106,-0.055C0.085,-0.077 0.068,-0.103 0.057,-0.134C0.045,-0.165 0.039,-0.199 0.039,-0.236C0.039,-0.27 0.045,-0.302 0.056,-0.332C0.067,-0.361 0.083,-0.387 0.104,-0.408C0.125,-0.43 0.149,-0.447 0.178,-0.46C0.206,-0.473 0.237,-0.479 0.271,-0.479C0.311,-0.479 0.345,-0.471 0.374,-0.456C0.403,-0.441 0.426,-0.42 0.445,-0.395C0.463,-0.37 0.476,-0.341 0.485,-0.308C0.494,-0.275 0.498,-0.241 0.498,-0.206L0.131,-0.206C0.132,-0.185 0.136,-0.166 0.145,-0.149C0.153,-0.132 0.164,-0.117 0.178,-0.104C0.192,-0.091 0.208,-0.081 0.226,-0.074C0.244,-0.067 0.263,-0.063 0.283,-0.063C0.322,-0.063 0.355,-0.07 0.38,-0.083C0.405,-0.096 0.424,-0.109 0.435,-0.122L0.486,-0.068ZM0.405,-0.273C0.402,-0.309 0.39,-0.34 0.367,-0.365C0.344,-0.39 0.312,-0.403 0.271,-0.403C0.25,-0.403 0.231,-0.399 0.214,-0.392C0.197,-0.385 0.182,-0.375 0.17,-0.363C0.158,-0.351 0.149,-0.337 0.142,-0.322C0.135,-0.306 0.132,-0.29 0.131,-0.273L0.405,-0.273Z" style="fill-rule:nonzero;"/>
                </g>
                <g transform="matrix(8,0,0,8,39.5606,207.247)">
                    <path d="M0.389,0.017C0.341,0.017 0.296,0.008 0.255,-0.011C0.214,-0.029 0.178,-0.054 0.147,-0.086C0.116,-0.117 0.092,-0.154 0.075,-0.197C0.058,-0.24 0.049,-0.285 0.049,-0.334C0.049,-0.383 0.058,-0.428 0.075,-0.47C0.092,-0.513 0.116,-0.55 0.147,-0.582C0.177,-0.613 0.213,-0.638 0.255,-0.657C0.296,-0.675 0.341,-0.684 0.389,-0.684C0.437,-0.684 0.482,-0.675 0.524,-0.657C0.565,-0.638 0.601,-0.613 0.632,-0.582C0.663,-0.55 0.687,-0.513 0.704,-0.47C0.721,-0.428 0.73,-0.383 0.73,-0.334C0.73,-0.285 0.721,-0.24 0.704,-0.197C0.687,-0.154 0.663,-0.117 0.632,-0.086C0.601,-0.054 0.565,-0.029 0.524,-0.011C0.482,0.008 0.437,0.017 0.389,0.017ZM0.389,-0.073C0.426,-0.073 0.459,-0.08 0.489,-0.094C0.518,-0.108 0.544,-0.127 0.565,-0.151C0.586,-0.175 0.602,-0.203 0.613,-0.234C0.624,-0.266 0.63,-0.3 0.63,-0.335C0.63,-0.371 0.624,-0.405 0.613,-0.437C0.602,-0.468 0.586,-0.496 0.565,-0.52C0.544,-0.544 0.518,-0.563 0.489,-0.577C0.459,-0.59 0.426,-0.597 0.389,-0.597C0.352,-0.597 0.319,-0.59 0.29,-0.577C0.261,-0.563 0.235,-0.544 0.215,-0.52C0.194,-0.496 0.177,-0.468 0.166,-0.437C0.155,-0.405 0.149,-0.371 0.149,-0.335C0.149,-0.3 0.155,-0.266 0.166,-0.234C0.177,-0.203 0.194,-0.175 0.215,-0.151C0.235,-0.127 0.261,-0.108 0.29,-0.094C0.319,-0.08 0.352,-0.073 0.389,-0.073Z" style="fill-rule:nonzero;"/>
                </g>
                <g transform="matrix(8,0,0,8,45.8046,207.247)">
                    <path d="M0.059,-0.465L0.149,-0.465L0.149,-0.192C0.149,-0.148 0.158,-0.116 0.176,-0.097C0.194,-0.077 0.22,-0.067 0.254,-0.067C0.28,-0.067 0.302,-0.072 0.319,-0.083C0.336,-0.094 0.349,-0.108 0.36,-0.125C0.371,-0.141 0.378,-0.161 0.383,-0.183C0.387,-0.204 0.389,-0.226 0.389,-0.249L0.389,-0.465L0.479,-0.465L0.479,-0.048C0.479,-0.033 0.479,-0.017 0.48,-0L0.394,-0L0.391,-0.069C0.385,-0.061 0.378,-0.052 0.369,-0.043C0.36,-0.034 0.35,-0.025 0.337,-0.018C0.324,-0.01 0.31,-0.003 0.293,0.002C0.276,0.007 0.257,0.01 0.236,0.01C0.175,0.01 0.131,-0.008 0.102,-0.043C0.073,-0.078 0.059,-0.125 0.059,-0.186L0.059,-0.465Z" style="fill-rule:nonzero;"/>
                </g>
                <g transform="matrix(8,0,0,8,50.1526,207.247)">
                    <path d="M0.102,-0.39L0.018,-0.39L0.018,-0.465L0.102,-0.465L0.102,-0.617L0.192,-0.617L0.192,-0.465L0.328,-0.465L0.328,-0.39L0.192,-0.39L0.192,-0.161C0.192,-0.124 0.198,-0.098 0.21,-0.084C0.221,-0.07 0.238,-0.063 0.259,-0.063C0.276,-0.063 0.291,-0.066 0.302,-0.071C0.313,-0.076 0.325,-0.084 0.336,-0.095L0.377,-0.04C0.358,-0.021 0.338,-0.008 0.318,0C0.297,0.009 0.273,0.013 0.245,0.013C0.196,0.013 0.16,-0 0.137,-0.027C0.114,-0.054 0.102,-0.095 0.102,-0.152L0.102,-0.39Z" style="fill-rule:nonzero;"/>
                </g>
                <g transform="matrix(8,0,0,8,53.2366,207.247)">
                    <path d="M0.062,0.2L0.062,-0.418C0.062,-0.433 0.062,-0.448 0.061,-0.465L0.147,-0.465L0.15,-0.399C0.155,-0.405 0.161,-0.412 0.17,-0.421C0.179,-0.43 0.19,-0.438 0.203,-0.446C0.216,-0.454 0.231,-0.461 0.248,-0.467C0.265,-0.472 0.285,-0.475 0.308,-0.475C0.344,-0.475 0.375,-0.468 0.402,-0.455C0.428,-0.442 0.45,-0.424 0.467,-0.401C0.484,-0.378 0.497,-0.352 0.505,-0.323C0.514,-0.294 0.518,-0.263 0.518,-0.23C0.518,-0.188 0.511,-0.152 0.497,-0.121C0.482,-0.09 0.464,-0.065 0.441,-0.045C0.418,-0.025 0.392,-0.01 0.364,-0.001C0.335,0.009 0.307,0.014 0.28,0.014C0.249,0.014 0.224,0.011 0.204,0.004C0.186,-0.002 0.168,-0.009 0.151,-0.016L0.151,0.2L0.062,0.2ZM0.151,-0.101C0.162,-0.092 0.177,-0.084 0.197,-0.076C0.217,-0.068 0.242,-0.064 0.272,-0.064C0.295,-0.064 0.316,-0.068 0.335,-0.077C0.354,-0.085 0.37,-0.097 0.384,-0.112C0.397,-0.127 0.408,-0.144 0.415,-0.164C0.422,-0.184 0.426,-0.206 0.426,-0.23C0.426,-0.253 0.424,-0.274 0.419,-0.294C0.413,-0.314 0.406,-0.332 0.395,-0.347C0.384,-0.362 0.369,-0.375 0.352,-0.384C0.335,-0.393 0.313,-0.397 0.288,-0.397C0.256,-0.397 0.229,-0.388 0.206,-0.371C0.183,-0.353 0.167,-0.327 0.158,-0.293C0.155,-0.282 0.153,-0.271 0.152,-0.259C0.151,-0.246 0.151,-0.233 0.151,-0.22L0.151,-0.101Z" style="fill-rule:nonzero;"/>
                </g>
                <g transform="matrix(8,0,0,8,57.7126,207.247)">
                    <path d="M0.059,-0.465L0.149,-0.465L0.149,-0.192C0.149,-0.148 0.158,-0.116 0.176,-0.097C0.194,-0.077 0.22,-0.067 0.254,-0.067C0.28,-0.067 0.302,-0.072 0.319,-0.083C0.336,-0.094 0.349,-0.108 0.36,-0.125C0.371,-0.141 0.378,-0.161 0.383,-0.183C0.387,-0.204 0.389,-0.226 0.389,-0.249L0.389,-0.465L0.479,-0.465L0.479,-0.048C0.479,-0.033 0.479,-0.017 0.48,-0L0.394,-0L0.391,-0.069C0.385,-0.061 0.378,-0.052 0.369,-0.043C0.36,-0.034 0.35,-0.025 0.337,-0.018C0.324,-0.01 0.31,-0.003 0.293,0.002C0.276,0.007 0.257,0.01 0.236,0.01C0.175,0.01 0.131,-0.008 0.102,-0.043C0.073,-0.078 0.059,-0.125 0.059,-0.186L0.059,-0.465Z" style="fill-rule:nonzero;"/>
                </g>
                <g transform="matrix(8,0,0,8,62.0606,207.247)">
                    <path d="M0.102,-0.39L0.018,-0.39L0.018,-0.465L0.102,-0.465L0.102,-0.617L0.192,-0.617L0.192,-0.465L0.328,-0.465L0.328,-0.39L0.192,-0.39L0.192,-0.161C0.192,-0.124 0.198,-0.098 0.21,-0.084C0.221,-0.07 0.238,-0.063 0.259,-0.063C0.276,-0.063 0.291,-0.066 0.302,-0.071C0.313,-0.076 0.325,-0.084 0.336,-0.095L0.377,-0.04C0.358,-0.021 0.338,-0.008 0.318,0C0.297,0.009 0.273,0.013 0.245,0.013C0.196,0.013 0.16,-0 0.137,-0.027C0.114,-0.054 0.102,-0.095 0.102,-0.152L0.102,-0.39Z" style="fill-rule:nonzero;"/>
                </g>
            </g>
        </g>
    </g>
</svg>
