<?xml version="1.0" encoding="UTF-8" standalone="no"?>
<!DOCTYPE svg PUBLIC "-//W3C//DTD SVG 1.1//EN" "http://www.w3.org/Graphics/SVG/1.1/DTD/svg11.dtd">
<svg width="100%" height="100%" viewBox="0 0 90 380" version="1.1" xmlns="http://www.w3.org/2000/svg" xmlns:xlink="http://www.w3.org/1999/xlink" xml:space="preserve" xmlns:serif="http://www.serif.com/" style="fill-rule:evenodd;clip-rule:evenodd;stroke-linejoin:round;stroke-miterlimit:2;">
    <g id="svg8">
        <rect x="0" y="0" width="90" height="380" style="fill:rgb(240,240,240);"/>
        <path d="M25.784,361.578L24.178,361.578L24.178,356.247L18.102,356.247L18.102,361.578L16.496,361.578L16.496,350.154L18.102,350.154L18.102,354.873L24.178,354.873L24.178,350.154L25.784,350.154L25.784,361.578Z" style="fill:rgb(35,31,32);fill-rule:nonzero;"/>
        <path d="M33.992,361.578L27.171,361.578L27.171,350.154L33.86,350.154L33.86,351.496L28.777,351.496L28.777,354.906L33.578,354.906L33.578,356.247L28.777,356.247L28.777,360.221L33.992,360.221L33.992,361.578Z" style="fill:rgb(35,31,32);fill-rule:nonzero;"/>
        <path d="M42.865,351.496L39.653,351.496L39.653,361.578L38.047,361.578L38.047,351.496L34.819,351.496L34.819,350.154L42.865,350.154L42.865,351.496Z" style="fill:rgb(35,31,32);fill-rule:nonzero;"/>
        <path d="M48.575,351.877C48.062,351.496 47.449,351.463 46.655,351.463L45.479,351.463L45.479,355.337L46.655,355.337C47.449,355.337 48.062,355.304 48.575,354.94C49.089,354.559 49.304,354.095 49.304,353.399C49.304,352.721 49.089,352.241 48.575,351.877M51.622,361.578L49.684,361.578L46.704,356.661L45.479,356.661L45.479,361.578L43.873,361.578L43.873,350.154L47.101,350.154C48.244,350.154 49.171,350.42 49.85,350.949C50.529,351.496 50.959,352.323 50.959,353.366C50.959,355.37 49.568,356.264 48.36,356.496L51.622,361.578Z" style="fill:rgb(35,31,32);fill-rule:nonzero;"/>
        <rect x="52.814" y="350.154" width="1.605" height="11.424" style="fill:rgb(35,31,32);"/>
        <path d="M65.542,360.088C64.83,360.883 63.539,361.777 61.37,361.777C58.042,361.777 55.525,359.442 55.525,355.883C55.525,352.323 58.092,349.989 61.37,349.989C63.506,349.989 64.797,350.883 65.426,351.496L64.747,352.787C64.301,352.225 63.025,351.397 61.437,351.397C58.97,351.397 57.182,353.168 57.182,355.85C57.182,358.532 58.986,360.304 61.437,360.304C62.942,360.304 64.102,359.725 64.847,358.913L65.542,360.088Z" style="fill:rgb(237,50,36);fill-rule:nonzero;"/>
        <path d="M75.452,361.578L73.499,361.578L69.707,355.849L68.532,357.042L68.532,361.578L66.926,361.578L66.926,350.154L68.532,350.154L68.532,355.022L73.184,350.154L75.138,350.154L70.783,354.658L75.452,361.578Z" style="fill:rgb(237,50,36);fill-rule:nonzero;"/>
        <path d="M75.452,361.578L73.499,361.578L69.707,355.849L68.532,357.042L68.532,361.578L66.926,361.578L66.926,357.019L68.532,357.042L69.707,355.849L70.783,354.658L71.4,355.571L71.897,356.308L75.452,361.578Z" style="fill-rule:nonzero;"/>
        <g>
            <path d="M69.685,124.597L20.315,124.597C11.675,124.597 4.606,128.956 4.606,134.283L4.606,333.648C4.606,338.975 11.675,343.334 20.315,343.334L69.685,343.334C78.323,343.334 85.394,338.975 85.394,333.648L85.394,134.283C85.394,128.956 78.323,124.597 69.685,124.597" style="fill-rule:nonzero;"/>
            <path d="M34.956,165.128C35.068,165.256 35.194,165.386 35.334,165.518C35.474,165.65 35.632,165.768 35.808,165.872C35.984,165.976 36.18,166.06 36.396,166.124C36.612,166.188 36.848,166.22 37.104,166.22C37.632,166.22 38.044,166.1 38.34,165.86C38.636,165.62 38.784,165.296 38.784,164.888C38.784,164.448 38.616,164.118 38.28,163.898C37.944,163.678 37.46,163.5 36.828,163.364C36.484,163.292 36.172,163.192 35.892,163.064C35.612,162.936 35.37,162.776 35.166,162.584C34.962,162.392 34.804,162.17 34.692,161.918C34.58,161.666 34.524,161.38 34.524,161.06C34.524,160.764 34.58,160.484 34.692,160.22C34.804,159.956 34.972,159.724 35.196,159.524C35.42,159.324 35.7,159.164 36.036,159.044C36.372,158.924 36.76,158.864 37.2,158.864C37.592,158.864 37.93,158.906 38.214,158.99C38.498,159.074 38.74,159.176 38.94,159.296C39.14,159.416 39.3,159.54 39.42,159.668C39.54,159.796 39.632,159.9 39.696,159.98L38.928,160.688C38.88,160.632 38.808,160.558 38.712,160.466C38.616,160.374 38.494,160.284 38.346,160.196C38.198,160.108 38.026,160.034 37.83,159.974C37.634,159.914 37.408,159.884 37.152,159.884C36.896,159.884 36.676,159.918 36.492,159.986C36.308,160.054 36.156,160.142 36.036,160.25C35.916,160.358 35.828,160.48 35.772,160.616C35.716,160.752 35.688,160.888 35.688,161.024C35.688,161.224 35.73,161.394 35.814,161.534C35.898,161.674 36.02,161.798 36.18,161.906C36.34,162.014 36.538,162.106 36.774,162.182C37.01,162.258 37.28,162.332 37.584,162.404C37.88,162.476 38.17,162.57 38.454,162.686C38.738,162.802 38.992,162.958 39.216,163.154C39.44,163.35 39.618,163.59 39.75,163.874C39.882,164.158 39.948,164.504 39.948,164.912C39.948,165.256 39.876,165.572 39.732,165.86C39.588,166.148 39.39,166.398 39.138,166.61C38.886,166.822 38.588,166.986 38.244,167.102C37.9,167.218 37.528,167.276 37.128,167.276C36.752,167.276 36.41,167.232 36.102,167.144C35.794,167.056 35.514,166.944 35.262,166.808C35.01,166.672 34.79,166.522 34.602,166.358C34.414,166.194 34.26,166.032 34.14,165.872L34.956,165.128Z" style="fill:white;fill-rule:nonzero;"/>
            <path d="M41.4,159.284L42.612,159.284L42.612,160.496L41.4,160.496L41.4,159.284ZM41.472,161.492L42.552,161.492L42.552,167.072L41.472,167.072L41.472,161.492Z" style="fill:white;fill-rule:nonzero;"/>
            <path d="M44.088,167.072L44.088,162.062C44.088,161.882 44.084,161.692 44.076,161.492L45.108,161.492L45.144,162.332C45.216,162.236 45.304,162.13 45.408,162.014C45.512,161.898 45.64,161.792 45.792,161.696C45.944,161.6 46.122,161.52 46.326,161.456C46.53,161.392 46.76,161.36 47.016,161.36C47.744,161.36 48.284,161.572 48.636,161.996C48.988,162.42 49.164,162.996 49.164,163.724L49.164,167.072L48.084,167.072L48.084,163.808C48.084,163.288 47.972,162.906 47.748,162.662C47.524,162.418 47.208,162.296 46.8,162.296C46.488,162.296 46.228,162.36 46.02,162.488C45.812,162.616 45.646,162.782 45.522,162.986C45.398,163.19 45.308,163.422 45.252,163.682C45.196,163.942 45.168,164.208 45.168,164.48L45.168,167.072L44.088,167.072Z" style="fill:white;fill-rule:nonzero;"/>
            <path d="M55.704,166.256C55.64,166.328 55.544,166.42 55.416,166.532C55.288,166.644 55.122,166.752 54.918,166.856C54.714,166.96 54.474,167.05 54.198,167.126C53.922,167.202 53.608,167.24 53.256,167.24C52.824,167.24 52.428,167.168 52.068,167.024C51.708,166.88 51.4,166.676 51.144,166.412C50.888,166.148 50.69,165.832 50.55,165.464C50.41,165.096 50.34,164.688 50.34,164.24C50.34,163.832 50.408,163.45 50.544,163.094C50.68,162.738 50.872,162.43 51.12,162.17C51.368,161.91 51.662,161.704 52.002,161.552C52.342,161.4 52.716,161.324 53.124,161.324C53.604,161.324 54.016,161.416 54.36,161.6C54.704,161.784 54.986,162.028 55.206,162.332C55.426,162.636 55.588,162.984 55.692,163.376C55.796,163.768 55.848,164.176 55.848,164.6L51.444,164.6C51.452,164.848 51.506,165.076 51.606,165.284C51.706,165.492 51.84,165.672 52.008,165.824C52.176,165.976 52.368,166.096 52.584,166.184C52.8,166.272 53.028,166.316 53.268,166.316C53.74,166.316 54.128,166.236 54.432,166.076C54.736,165.916 54.956,165.76 55.092,165.608L55.704,166.256ZM54.732,163.796C54.7,163.364 54.548,162.996 54.276,162.692C54.004,162.388 53.62,162.236 53.124,162.236C52.868,162.236 52.638,162.28 52.434,162.368C52.23,162.456 52.056,162.572 51.912,162.716C51.768,162.86 51.656,163.026 51.576,163.214C51.496,163.402 51.452,163.596 51.444,163.796L54.732,163.796Z" style="fill:white;fill-rule:nonzero;"/>
            <path d="M31.05,283.658L33.606,283.658C34.118,283.658 34.55,283.728 34.902,283.868C35.254,284.008 35.54,284.188 35.76,284.408C35.98,284.628 36.14,284.878 36.24,285.158C36.34,285.438 36.39,285.722 36.39,286.01C36.39,286.522 36.27,286.974 36.03,287.366C35.79,287.758 35.418,288.05 34.914,288.242L36.786,291.662L35.49,291.662L33.774,288.386L32.166,288.386L32.166,291.662L31.05,291.662L31.05,283.658ZM33.702,287.414C34.206,287.414 34.584,287.29 34.836,287.042C35.088,286.794 35.214,286.462 35.214,286.046C35.214,285.606 35.078,285.264 34.806,285.02C34.534,284.776 34.158,284.654 33.678,284.654L32.166,284.654L32.166,287.414L33.702,287.414Z" style="fill:white;fill-rule:nonzero;"/>
            <path d="M41.202,289.022C41.17,289.014 41.108,289.004 41.016,288.992C40.924,288.98 40.818,288.97 40.698,288.962C40.578,288.954 40.45,288.946 40.314,288.938C40.178,288.93 40.046,288.926 39.918,288.926C39.614,288.926 39.368,288.962 39.18,289.034C38.992,289.106 38.844,289.196 38.736,289.304C38.628,289.412 38.554,289.532 38.514,289.664C38.474,289.796 38.454,289.922 38.454,290.042C38.454,290.346 38.558,290.576 38.766,290.732C38.974,290.888 39.262,290.966 39.63,290.966C39.838,290.966 40.036,290.93 40.224,290.858C40.412,290.786 40.578,290.69 40.722,290.57C40.866,290.45 40.982,290.31 41.07,290.15C41.158,289.99 41.202,289.826 41.202,289.658L41.202,289.022ZM41.214,290.99C41.006,291.27 40.732,291.478 40.392,291.614C40.052,291.75 39.702,291.818 39.342,291.818C39.11,291.818 38.88,291.788 38.652,291.728C38.424,291.668 38.216,291.568 38.028,291.428C37.84,291.288 37.688,291.108 37.572,290.888C37.456,290.668 37.398,290.398 37.398,290.078C37.398,289.478 37.608,288.998 38.028,288.638C38.448,288.278 39.054,288.098 39.846,288.098C39.974,288.098 40.11,288.102 40.254,288.11C40.398,288.118 40.534,288.126 40.662,288.134C40.79,288.142 40.902,288.15 40.998,288.158C41.094,288.166 41.162,288.174 41.202,288.182L41.202,287.978C41.202,287.562 41.076,287.264 40.824,287.084C40.572,286.904 40.23,286.814 39.798,286.814C39.374,286.814 39.038,286.872 38.79,286.988C38.542,287.104 38.334,287.222 38.166,287.342L37.662,286.61C37.758,286.53 37.874,286.45 38.01,286.37C38.146,286.29 38.306,286.216 38.49,286.148C38.674,286.08 38.882,286.024 39.114,285.98C39.346,285.936 39.614,285.914 39.918,285.914C40.638,285.914 41.204,286.088 41.616,286.436C42.028,286.784 42.234,287.278 42.234,287.918L42.234,291.164C42.234,291.36 42.238,291.526 42.246,291.662L41.238,291.662L41.214,290.99Z" style="fill:white;fill-rule:nonzero;"/>
            <path d="M43.71,291.662L43.71,286.652C43.71,286.472 43.706,286.282 43.698,286.082L44.73,286.082L44.766,286.922C44.83,286.826 44.914,286.72 45.018,286.604C45.122,286.488 45.246,286.382 45.39,286.286C45.534,286.19 45.704,286.11 45.9,286.046C46.096,285.982 46.322,285.95 46.578,285.95C47.01,285.95 47.368,286.036 47.652,286.208C47.936,286.38 48.158,286.63 48.318,286.958C48.542,286.694 48.816,286.46 49.14,286.256C49.464,286.052 49.866,285.95 50.346,285.95C51.066,285.95 51.598,286.164 51.942,286.592C52.286,287.02 52.458,287.594 52.458,288.314L52.458,291.662L51.378,291.662L51.378,288.398C51.378,287.878 51.276,287.496 51.072,287.252C50.868,287.008 50.57,286.886 50.178,286.886C49.954,286.886 49.748,286.932 49.56,287.024C49.372,287.116 49.208,287.238 49.068,287.39C48.928,287.542 48.82,287.72 48.744,287.924C48.668,288.128 48.63,288.342 48.63,288.566L48.63,291.662L47.55,291.662L47.55,288.398C47.55,287.878 47.448,287.496 47.244,287.252C47.04,287.008 46.746,286.886 46.362,286.886C46.066,286.886 45.818,286.95 45.618,287.078C45.418,287.206 45.256,287.372 45.132,287.576C45.008,287.78 44.92,288.014 44.868,288.278C44.816,288.542 44.79,288.806 44.79,289.07L44.79,291.662L43.71,291.662Z" style="fill:white;fill-rule:nonzero;"/>
            <path d="M53.91,294.062L53.91,286.652C53.91,286.472 53.906,286.282 53.898,286.082L54.93,286.082L54.966,286.874C55.022,286.802 55.102,286.714 55.206,286.61C55.31,286.506 55.44,286.406 55.596,286.31C55.752,286.214 55.934,286.132 56.142,286.064C56.35,285.996 56.59,285.962 56.862,285.962C57.294,285.962 57.668,286.042 57.984,286.202C58.3,286.362 58.562,286.578 58.77,286.85C58.978,287.122 59.132,287.434 59.232,287.786C59.332,288.138 59.382,288.51 59.382,288.902C59.382,289.406 59.296,289.842 59.124,290.21C58.952,290.578 58.728,290.882 58.452,291.122C58.176,291.362 57.868,291.54 57.528,291.656C57.188,291.772 56.854,291.83 56.526,291.83C56.15,291.83 55.848,291.792 55.62,291.716C55.392,291.64 55.178,291.558 54.978,291.47L54.978,294.062L53.91,294.062ZM54.978,290.45C55.106,290.554 55.29,290.654 55.53,290.75C55.77,290.846 56.07,290.894 56.43,290.894C56.702,290.894 56.952,290.844 57.18,290.744C57.408,290.644 57.604,290.504 57.768,290.324C57.932,290.144 58.058,289.934 58.146,289.694C58.234,289.454 58.278,289.19 58.278,288.902C58.278,288.63 58.248,288.374 58.188,288.134C58.128,287.894 58.032,287.682 57.9,287.498C57.768,287.314 57.598,287.168 57.39,287.06C57.182,286.952 56.926,286.898 56.622,286.898C56.238,286.898 55.91,287.004 55.638,287.216C55.366,287.428 55.174,287.738 55.062,288.146C55.022,288.274 54.998,288.412 54.99,288.56C54.982,288.708 54.978,288.862 54.978,289.022L54.978,290.45Z" style="fill:white;fill-rule:nonzero;"/>
            <path d="M27.834,331.248C27.946,331.376 28.072,331.506 28.212,331.638C28.352,331.77 28.51,331.888 28.686,331.992C28.862,332.096 29.058,332.18 29.274,332.244C29.49,332.308 29.726,332.34 29.982,332.34C30.51,332.34 30.922,332.22 31.218,331.98C31.514,331.74 31.662,331.416 31.662,331.008C31.662,330.568 31.494,330.238 31.158,330.018C30.822,329.798 30.338,329.62 29.706,329.484C29.362,329.412 29.05,329.312 28.77,329.184C28.49,329.056 28.248,328.896 28.044,328.704C27.84,328.512 27.682,328.29 27.57,328.038C27.458,327.786 27.402,327.5 27.402,327.18C27.402,326.884 27.458,326.604 27.57,326.34C27.682,326.076 27.85,325.844 28.074,325.644C28.298,325.444 28.578,325.284 28.914,325.164C29.25,325.044 29.638,324.984 30.078,324.984C30.47,324.984 30.808,325.026 31.092,325.11C31.376,325.194 31.618,325.296 31.818,325.416C32.018,325.536 32.178,325.66 32.298,325.788C32.418,325.916 32.51,326.02 32.574,326.1L31.806,326.808C31.758,326.752 31.686,326.678 31.59,326.586C31.494,326.494 31.372,326.404 31.224,326.316C31.076,326.228 30.904,326.154 30.708,326.094C30.512,326.034 30.286,326.004 30.03,326.004C29.774,326.004 29.554,326.038 29.37,326.106C29.186,326.174 29.034,326.262 28.914,326.37C28.794,326.478 28.706,326.6 28.65,326.736C28.594,326.872 28.566,327.008 28.566,327.144C28.566,327.344 28.608,327.514 28.692,327.654C28.776,327.794 28.898,327.918 29.058,328.026C29.218,328.134 29.416,328.226 29.652,328.302C29.888,328.378 30.158,328.452 30.462,328.524C30.758,328.596 31.048,328.69 31.332,328.806C31.616,328.922 31.87,329.078 32.094,329.274C32.318,329.47 32.496,329.71 32.628,329.994C32.76,330.278 32.826,330.624 32.826,331.032C32.826,331.376 32.754,331.692 32.61,331.98C32.466,332.268 32.268,332.518 32.016,332.73C31.764,332.942 31.466,333.106 31.122,333.222C30.778,333.338 30.406,333.396 30.006,333.396C29.63,333.396 29.288,333.352 28.98,333.264C28.672,333.176 28.392,333.064 28.14,332.928C27.888,332.792 27.668,332.642 27.48,332.478C27.292,332.314 27.138,332.152 27.018,331.992L27.834,331.248Z" style="fill:white;fill-rule:nonzero;"/>
            <path d="M38.298,332.64C38.266,332.68 38.208,332.738 38.124,332.814C38.04,332.89 37.93,332.97 37.794,333.054C37.658,333.138 37.496,333.21 37.308,333.27C37.12,333.33 36.902,333.36 36.654,333.36C36.222,333.36 35.842,333.284 35.514,333.132C35.186,332.98 34.912,332.774 34.692,332.514C34.472,332.254 34.306,331.948 34.194,331.596C34.082,331.244 34.026,330.868 34.026,330.468C34.026,330.036 34.102,329.638 34.254,329.274C34.406,328.91 34.62,328.594 34.896,328.326C35.172,328.058 35.502,327.85 35.886,327.702C36.27,327.554 36.698,327.48 37.17,327.48C37.626,327.48 38.048,327.52 38.436,327.6C38.824,327.68 39.138,327.768 39.378,327.864L39.378,335.592L38.298,335.592L38.298,332.64ZM38.31,328.596C38.238,328.572 38.116,328.538 37.944,328.494C37.772,328.45 37.514,328.428 37.17,328.428C36.53,328.428 36.03,328.614 35.67,328.986C35.31,329.358 35.13,329.848 35.13,330.456C35.13,330.712 35.16,330.958 35.22,331.194C35.28,331.43 35.376,331.638 35.508,331.818C35.64,331.998 35.806,332.144 36.006,332.256C36.206,332.368 36.45,332.424 36.738,332.424C37.01,332.424 37.244,332.384 37.44,332.304C37.636,332.224 37.798,332.116 37.926,331.98C38.054,331.844 38.15,331.686 38.214,331.506C38.278,331.326 38.31,331.136 38.31,330.936L38.31,328.596Z" style="fill:white;fill-rule:nonzero;"/>
            <path d="M40.842,327.612L41.922,327.612L41.922,330.888C41.922,331.416 42.03,331.798 42.246,332.034C42.462,332.27 42.774,332.388 43.182,332.388C43.494,332.388 43.752,332.324 43.956,332.196C44.16,332.068 44.326,331.902 44.454,331.698C44.582,331.494 44.672,331.262 44.724,331.002C44.776,330.742 44.802,330.476 44.802,330.204L44.802,327.612L45.882,327.612L45.882,332.622C45.882,332.802 45.886,332.992 45.894,333.192L44.862,333.192L44.826,332.364C44.754,332.46 44.666,332.564 44.562,332.676C44.458,332.788 44.33,332.89 44.178,332.982C44.026,333.074 43.85,333.152 43.65,333.216C43.45,333.28 43.222,333.312 42.966,333.312C42.238,333.312 41.702,333.102 41.358,332.682C41.014,332.262 40.842,331.688 40.842,330.96L40.842,327.612Z" style="fill:white;fill-rule:nonzero;"/>
            <path d="M50.862,330.552C50.83,330.544 50.768,330.534 50.676,330.522C50.584,330.51 50.478,330.5 50.358,330.492C50.238,330.484 50.11,330.476 49.974,330.468C49.838,330.46 49.706,330.456 49.578,330.456C49.274,330.456 49.028,330.492 48.84,330.564C48.652,330.636 48.504,330.726 48.396,330.834C48.288,330.942 48.214,331.062 48.174,331.194C48.134,331.326 48.114,331.452 48.114,331.572C48.114,331.876 48.218,332.106 48.426,332.262C48.634,332.418 48.922,332.496 49.29,332.496C49.498,332.496 49.696,332.46 49.884,332.388C50.072,332.316 50.238,332.22 50.382,332.1C50.526,331.98 50.642,331.84 50.73,331.68C50.818,331.52 50.862,331.356 50.862,331.188L50.862,330.552ZM50.874,332.52C50.666,332.8 50.392,333.008 50.052,333.144C49.712,333.28 49.362,333.348 49.002,333.348C48.77,333.348 48.54,333.318 48.312,333.258C48.084,333.198 47.876,333.098 47.688,332.958C47.5,332.818 47.348,332.638 47.232,332.418C47.116,332.198 47.058,331.928 47.058,331.608C47.058,331.008 47.268,330.528 47.688,330.168C48.108,329.808 48.714,329.628 49.506,329.628C49.634,329.628 49.77,329.632 49.914,329.64C50.058,329.648 50.194,329.656 50.322,329.664C50.45,329.672 50.562,329.68 50.658,329.688C50.754,329.696 50.822,329.704 50.862,329.712L50.862,329.508C50.862,329.092 50.736,328.794 50.484,328.614C50.232,328.434 49.89,328.344 49.458,328.344C49.034,328.344 48.698,328.402 48.45,328.518C48.202,328.634 47.994,328.752 47.826,328.872L47.322,328.14C47.418,328.06 47.534,327.98 47.67,327.9C47.806,327.82 47.966,327.746 48.15,327.678C48.334,327.61 48.542,327.554 48.774,327.51C49.006,327.466 49.274,327.444 49.578,327.444C50.298,327.444 50.864,327.618 51.276,327.966C51.688,328.314 51.894,328.808 51.894,329.448L51.894,332.694C51.894,332.89 51.898,333.056 51.906,333.192L50.898,333.192L50.874,332.52Z" style="fill:white;fill-rule:nonzero;"/>
            <path d="M53.37,333.192L53.37,328.146C53.37,327.974 53.366,327.796 53.358,327.612L54.39,327.612L54.426,328.512C54.49,328.416 54.574,328.31 54.678,328.194C54.782,328.078 54.908,327.972 55.056,327.876C55.204,327.78 55.376,327.698 55.572,327.63C55.768,327.562 55.994,327.528 56.25,327.528C56.37,327.528 56.48,327.536 56.58,327.552C56.68,327.568 56.774,327.592 56.862,327.624L56.622,328.632C56.478,328.576 56.294,328.548 56.07,328.548C55.838,328.548 55.624,328.592 55.428,328.68C55.232,328.768 55.062,328.89 54.918,329.046C54.774,329.202 54.66,329.384 54.576,329.592C54.492,329.8 54.45,330.02 54.45,330.252L54.45,333.192L53.37,333.192Z" style="fill:white;fill-rule:nonzero;"/>
            <path d="M62.826,332.376C62.762,332.448 62.666,332.54 62.538,332.652C62.41,332.764 62.244,332.872 62.04,332.976C61.836,333.08 61.596,333.17 61.32,333.246C61.044,333.322 60.73,333.36 60.378,333.36C59.946,333.36 59.55,333.288 59.19,333.144C58.83,333 58.522,332.796 58.266,332.532C58.01,332.268 57.812,331.952 57.672,331.584C57.532,331.216 57.462,330.808 57.462,330.36C57.462,329.952 57.53,329.57 57.666,329.214C57.802,328.858 57.994,328.55 58.242,328.29C58.49,328.03 58.784,327.824 59.124,327.672C59.464,327.52 59.838,327.444 60.246,327.444C60.726,327.444 61.138,327.536 61.482,327.72C61.826,327.904 62.108,328.148 62.328,328.452C62.548,328.756 62.71,329.104 62.814,329.496C62.918,329.888 62.97,330.296 62.97,330.72L58.566,330.72C58.574,330.968 58.628,331.196 58.728,331.404C58.828,331.612 58.962,331.792 59.13,331.944C59.298,332.096 59.49,332.216 59.706,332.304C59.922,332.392 60.15,332.436 60.39,332.436C60.862,332.436 61.25,332.356 61.554,332.196C61.858,332.036 62.078,331.88 62.214,331.728L62.826,332.376ZM61.854,329.916C61.822,329.484 61.67,329.116 61.398,328.812C61.126,328.508 60.742,328.356 60.246,328.356C59.99,328.356 59.76,328.4 59.556,328.488C59.352,328.576 59.178,328.692 59.034,328.836C58.89,328.98 58.778,329.146 58.698,329.334C58.618,329.522 58.574,329.716 58.566,329.916L61.854,329.916Z" style="fill:white;fill-rule:nonzero;"/>
            <path d="M35.502,248.188C35.614,248.316 35.74,248.446 35.88,248.578C36.02,248.71 36.178,248.828 36.354,248.932C36.53,249.036 36.726,249.12 36.942,249.184C37.158,249.248 37.394,249.28 37.65,249.28C38.178,249.28 38.59,249.16 38.886,248.92C39.182,248.68 39.33,248.356 39.33,247.948C39.33,247.508 39.162,247.178 38.826,246.958C38.49,246.738 38.006,246.56 37.374,246.424C37.03,246.352 36.718,246.252 36.438,246.124C36.158,245.996 35.916,245.836 35.712,245.644C35.508,245.452 35.35,245.23 35.238,244.978C35.126,244.726 35.07,244.44 35.07,244.12C35.07,243.824 35.126,243.544 35.238,243.28C35.35,243.016 35.518,242.784 35.742,242.584C35.966,242.384 36.246,242.224 36.582,242.104C36.918,241.984 37.306,241.924 37.746,241.924C38.138,241.924 38.476,241.966 38.76,242.05C39.044,242.134 39.286,242.236 39.486,242.356C39.686,242.476 39.846,242.6 39.966,242.728C40.086,242.856 40.178,242.96 40.242,243.04L39.474,243.748C39.426,243.692 39.354,243.618 39.258,243.526C39.162,243.434 39.04,243.344 38.892,243.256C38.744,243.168 38.572,243.094 38.376,243.034C38.18,242.974 37.954,242.944 37.698,242.944C37.442,242.944 37.222,242.978 37.038,243.046C36.854,243.114 36.702,243.202 36.582,243.31C36.462,243.418 36.374,243.54 36.318,243.676C36.262,243.812 36.234,243.948 36.234,244.084C36.234,244.284 36.276,244.454 36.36,244.594C36.444,244.734 36.566,244.858 36.726,244.966C36.886,245.074 37.084,245.166 37.32,245.242C37.556,245.318 37.826,245.392 38.13,245.464C38.426,245.536 38.716,245.63 39,245.746C39.284,245.862 39.538,246.018 39.762,246.214C39.986,246.41 40.164,246.65 40.296,246.934C40.428,247.218 40.494,247.564 40.494,247.972C40.494,248.316 40.422,248.632 40.278,248.92C40.134,249.208 39.936,249.458 39.684,249.67C39.432,249.882 39.134,250.046 38.79,250.162C38.446,250.278 38.074,250.336 37.674,250.336C37.298,250.336 36.956,250.292 36.648,250.204C36.34,250.116 36.06,250.004 35.808,249.868C35.556,249.732 35.336,249.582 35.148,249.418C34.96,249.254 34.806,249.092 34.686,248.932L35.502,248.188Z" style="fill:white;fill-rule:nonzero;"/>
            <path d="M45.45,247.492C45.418,247.484 45.356,247.474 45.264,247.462C45.172,247.45 45.066,247.44 44.946,247.432C44.826,247.424 44.698,247.416 44.562,247.408C44.426,247.4 44.294,247.396 44.166,247.396C43.862,247.396 43.616,247.432 43.428,247.504C43.24,247.576 43.092,247.666 42.984,247.774C42.876,247.882 42.802,248.002 42.762,248.134C42.722,248.266 42.702,248.392 42.702,248.512C42.702,248.816 42.806,249.046 43.014,249.202C43.222,249.358 43.51,249.436 43.878,249.436C44.086,249.436 44.284,249.4 44.472,249.328C44.66,249.256 44.826,249.16 44.97,249.04C45.114,248.92 45.23,248.78 45.318,248.62C45.406,248.46 45.45,248.296 45.45,248.128L45.45,247.492ZM45.462,249.46C45.254,249.74 44.98,249.948 44.64,250.084C44.3,250.22 43.95,250.288 43.59,250.288C43.358,250.288 43.128,250.258 42.9,250.198C42.672,250.138 42.464,250.038 42.276,249.898C42.088,249.758 41.936,249.578 41.82,249.358C41.704,249.138 41.646,248.868 41.646,248.548C41.646,247.948 41.856,247.468 42.276,247.108C42.696,246.748 43.302,246.568 44.094,246.568C44.222,246.568 44.358,246.572 44.502,246.58C44.646,246.588 44.782,246.596 44.91,246.604C45.038,246.612 45.15,246.62 45.246,246.628C45.342,246.636 45.41,246.644 45.45,246.652L45.45,246.448C45.45,246.032 45.324,245.734 45.072,245.554C44.82,245.374 44.478,245.284 44.046,245.284C43.622,245.284 43.286,245.342 43.038,245.458C42.79,245.574 42.582,245.692 42.414,245.812L41.91,245.08C42.006,245 42.122,244.92 42.258,244.84C42.394,244.76 42.554,244.686 42.738,244.618C42.922,244.55 43.13,244.494 43.362,244.45C43.594,244.406 43.862,244.384 44.166,244.384C44.886,244.384 45.452,244.558 45.864,244.906C46.276,245.254 46.482,245.748 46.482,246.388L46.482,249.634C46.482,249.83 46.486,249.996 46.494,250.132L45.486,250.132L45.462,249.46Z" style="fill:white;fill-rule:nonzero;"/>
            <path d="M47.226,244.552L48.414,244.552L49.662,248.812L51.006,244.552L51.93,244.552L53.274,248.848L54.498,244.552L55.614,244.552L53.766,250.132L52.698,250.132L51.402,246.232L50.118,250.132L49.11,250.132L47.226,244.552Z" style="fill:white;fill-rule:nonzero;"/>
            <path d="M27.714,201.606L24.846,201.606L24.846,200.598L31.722,200.598L31.722,201.606L28.866,201.606L28.866,208.602L27.714,208.602L27.714,201.606Z" style="fill:white;fill-rule:nonzero;"/>
            <path d="M31.074,208.602L31.074,203.556C31.074,203.384 31.07,203.206 31.062,203.022L32.094,203.022L32.13,203.922C32.194,203.826 32.278,203.72 32.382,203.604C32.486,203.488 32.612,203.382 32.76,203.286C32.908,203.19 33.08,203.108 33.276,203.04C33.472,202.972 33.698,202.938 33.954,202.938C34.074,202.938 34.184,202.946 34.284,202.962C34.384,202.978 34.478,203.002 34.566,203.034L34.326,204.042C34.182,203.986 33.998,203.958 33.774,203.958C33.542,203.958 33.328,204.002 33.132,204.09C32.936,204.178 32.766,204.3 32.622,204.456C32.478,204.612 32.364,204.794 32.28,205.002C32.196,205.21 32.154,205.43 32.154,205.662L32.154,208.602L31.074,208.602Z" style="fill:white;fill-rule:nonzero;"/>
            <path d="M35.418,200.814L36.63,200.814L36.63,202.026L35.418,202.026L35.418,200.814ZM35.49,203.022L36.57,203.022L36.57,208.602L35.49,208.602L35.49,203.022Z" style="fill:white;fill-rule:nonzero;"/>
            <path d="M41.586,205.962C41.554,205.954 41.492,205.944 41.4,205.932C41.308,205.92 41.202,205.91 41.082,205.902C40.962,205.894 40.834,205.886 40.698,205.878C40.562,205.87 40.43,205.866 40.302,205.866C39.998,205.866 39.752,205.902 39.564,205.974C39.376,206.046 39.228,206.136 39.12,206.244C39.012,206.352 38.938,206.472 38.898,206.604C38.858,206.736 38.838,206.862 38.838,206.982C38.838,207.286 38.942,207.516 39.15,207.672C39.358,207.828 39.646,207.906 40.014,207.906C40.222,207.906 40.42,207.87 40.608,207.798C40.796,207.726 40.962,207.63 41.106,207.51C41.25,207.39 41.366,207.25 41.454,207.09C41.542,206.93 41.586,206.766 41.586,206.598L41.586,205.962ZM41.598,207.93C41.39,208.21 41.116,208.418 40.776,208.554C40.436,208.69 40.086,208.758 39.726,208.758C39.494,208.758 39.264,208.728 39.036,208.668C38.808,208.608 38.6,208.508 38.412,208.368C38.224,208.228 38.072,208.048 37.956,207.828C37.84,207.608 37.782,207.338 37.782,207.018C37.782,206.418 37.992,205.938 38.412,205.578C38.832,205.218 39.438,205.038 40.23,205.038C40.358,205.038 40.494,205.042 40.638,205.05C40.782,205.058 40.918,205.066 41.046,205.074C41.174,205.082 41.286,205.09 41.382,205.098C41.478,205.106 41.546,205.114 41.586,205.122L41.586,204.918C41.586,204.502 41.46,204.204 41.208,204.024C40.956,203.844 40.614,203.754 40.182,203.754C39.758,203.754 39.422,203.812 39.174,203.928C38.926,204.044 38.718,204.162 38.55,204.282L38.046,203.55C38.142,203.47 38.258,203.39 38.394,203.31C38.53,203.23 38.69,203.156 38.874,203.088C39.058,203.02 39.266,202.964 39.498,202.92C39.73,202.876 39.998,202.854 40.302,202.854C41.022,202.854 41.588,203.028 42,203.376C42.412,203.724 42.618,204.218 42.618,204.858L42.618,208.104C42.618,208.3 42.622,208.466 42.63,208.602L41.622,208.602L41.598,207.93Z" style="fill:white;fill-rule:nonzero;"/>
            <path d="M44.094,208.602L44.094,203.592C44.094,203.412 44.09,203.222 44.082,203.022L45.114,203.022L45.15,203.862C45.222,203.766 45.31,203.66 45.414,203.544C45.518,203.428 45.646,203.322 45.798,203.226C45.95,203.13 46.128,203.05 46.332,202.986C46.536,202.922 46.766,202.89 47.022,202.89C47.75,202.89 48.29,203.102 48.642,203.526C48.994,203.95 49.17,204.526 49.17,205.254L49.17,208.602L48.09,208.602L48.09,205.338C48.09,204.818 47.978,204.436 47.754,204.192C47.53,203.948 47.214,203.826 46.806,203.826C46.494,203.826 46.234,203.89 46.026,204.018C45.818,204.146 45.652,204.312 45.528,204.516C45.404,204.72 45.314,204.952 45.258,205.212C45.202,205.472 45.174,205.738 45.174,206.01L45.174,208.602L44.094,208.602Z" style="fill:white;fill-rule:nonzero;"/>
            <path d="M54.63,204.006C54.558,203.982 54.436,203.948 54.264,203.904C54.092,203.86 53.834,203.838 53.49,203.838C53.186,203.838 52.91,203.888 52.662,203.988C52.414,204.088 52.2,204.228 52.02,204.408C51.84,204.588 51.7,204.802 51.6,205.05C51.5,205.298 51.45,205.57 51.45,205.866C51.45,206.122 51.48,206.362 51.54,206.586C51.6,206.81 51.696,207.006 51.828,207.174C51.96,207.342 52.126,207.474 52.326,207.57C52.526,207.666 52.77,207.714 53.058,207.714C53.322,207.714 53.554,207.674 53.754,207.594C53.954,207.514 54.118,207.408 54.246,207.276C54.374,207.144 54.47,206.996 54.534,206.832C54.598,206.668 54.63,206.498 54.63,206.322L54.63,204.006ZM51.366,209.742C51.55,209.87 51.776,209.98 52.044,210.072C52.312,210.164 52.638,210.21 53.022,210.21C53.558,210.21 53.958,210.062 54.222,209.766C54.486,209.47 54.618,209.082 54.618,208.602L54.618,207.918C54.562,207.966 54.488,208.032 54.396,208.116C54.304,208.2 54.188,208.28 54.048,208.356C53.908,208.432 53.742,208.5 53.55,208.56C53.358,208.62 53.138,208.65 52.89,208.65C52.482,208.65 52.12,208.58 51.804,208.44C51.488,208.3 51.222,208.108 51.006,207.864C50.79,207.62 50.626,207.328 50.514,206.988C50.402,206.648 50.346,206.278 50.346,205.878C50.346,205.446 50.422,205.048 50.574,204.684C50.726,204.32 50.94,204.004 51.216,203.736C51.492,203.468 51.822,203.26 52.206,203.112C52.59,202.964 53.018,202.89 53.49,202.89C53.946,202.89 54.37,202.93 54.762,203.01C55.154,203.09 55.47,203.178 55.71,203.274L55.71,208.602C55.71,209.41 55.476,210.036 55.008,210.48C54.54,210.924 53.882,211.146 53.034,211.146C52.466,211.146 52.014,211.084 51.678,210.96C51.342,210.836 51.07,210.694 50.862,210.534L51.366,209.742Z" style="fill:white;fill-rule:nonzero;"/>
            <rect x="57.186" y="200.598" width="1.08" height="8.004" style="fill:white;fill-rule:nonzero;"/>
            <path d="M64.842,207.786C64.778,207.858 64.682,207.95 64.554,208.062C64.426,208.174 64.26,208.282 64.056,208.386C63.852,208.49 63.612,208.58 63.336,208.656C63.06,208.732 62.746,208.77 62.394,208.77C61.962,208.77 61.566,208.698 61.206,208.554C60.846,208.41 60.538,208.206 60.282,207.942C60.026,207.678 59.828,207.362 59.688,206.994C59.548,206.626 59.478,206.218 59.478,205.77C59.478,205.362 59.546,204.98 59.682,204.624C59.818,204.268 60.01,203.96 60.258,203.7C60.506,203.44 60.8,203.234 61.14,203.082C61.48,202.93 61.854,202.854 62.262,202.854C62.742,202.854 63.154,202.946 63.498,203.13C63.842,203.314 64.124,203.558 64.344,203.862C64.564,204.166 64.726,204.514 64.83,204.906C64.934,205.298 64.986,205.706 64.986,206.13L60.582,206.13C60.59,206.378 60.644,206.606 60.744,206.814C60.844,207.022 60.978,207.202 61.146,207.354C61.314,207.506 61.506,207.626 61.722,207.714C61.938,207.802 62.166,207.846 62.406,207.846C62.878,207.846 63.266,207.766 63.57,207.606C63.874,207.446 64.094,207.29 64.23,207.138L64.842,207.786ZM63.87,205.326C63.838,204.894 63.686,204.526 63.414,204.222C63.142,203.918 62.758,203.766 62.262,203.766C62.006,203.766 61.776,203.81 61.572,203.898C61.368,203.986 61.194,204.102 61.05,204.246C60.906,204.39 60.794,204.556 60.714,204.744C60.634,204.932 60.59,205.126 60.582,205.326L63.87,205.326Z" style="fill:white;fill-rule:nonzero;"/>
        </g>
        <g transform="matrix(1,0,0,1,-29.6641,3.55271e-15)">
            <g transform="matrix(18,0,0,18,40.4326,28.8369)">
                <path d="M0.076,-0.667L0.287,-0.667C0.332,-0.667 0.37,-0.661 0.4,-0.648C0.429,-0.635 0.453,-0.619 0.47,-0.6C0.488,-0.581 0.5,-0.559 0.507,-0.535C0.515,-0.511 0.518,-0.488 0.518,-0.465C0.518,-0.432 0.512,-0.402 0.501,-0.377C0.49,-0.352 0.474,-0.331 0.454,-0.314C0.434,-0.297 0.41,-0.284 0.383,-0.275C0.355,-0.266 0.325,-0.262 0.292,-0.262L0.171,-0.262L0.171,-0L0.076,-0L0.076,-0.667ZM0.291,-0.344C0.332,-0.344 0.364,-0.355 0.387,-0.376C0.409,-0.397 0.42,-0.426 0.42,-0.463C0.42,-0.501 0.408,-0.531 0.386,-0.553C0.363,-0.574 0.331,-0.585 0.291,-0.585L0.171,-0.585L0.171,-0.344L0.291,-0.344Z" style="fill-rule:nonzero;"/>
            </g>
            <g transform="matrix(18,0,0,18,49.9096,28.8369)">
                <path d="M0.061,-0.667L0.15,-0.667L0.15,-0.396C0.156,-0.404 0.163,-0.413 0.172,-0.422C0.181,-0.431 0.191,-0.44 0.204,-0.448C0.217,-0.456 0.231,-0.463 0.248,-0.468C0.265,-0.473 0.284,-0.476 0.305,-0.476C0.366,-0.476 0.411,-0.458 0.44,-0.423C0.469,-0.388 0.484,-0.34 0.484,-0.279L0.484,-0L0.394,-0L0.394,-0.272C0.394,-0.315 0.385,-0.347 0.366,-0.368C0.347,-0.388 0.321,-0.398 0.287,-0.398C0.261,-0.398 0.239,-0.393 0.222,-0.382C0.205,-0.371 0.191,-0.358 0.181,-0.341C0.17,-0.324 0.163,-0.304 0.158,-0.282C0.153,-0.261 0.151,-0.239 0.151,-0.216L0.151,-0L0.061,-0L0.061,-0.667Z" style="fill-rule:nonzero;"/>
            </g>
            <g transform="matrix(18,0,0,18,59.3326,28.8369)">
                <path d="M0.352,-0.22C0.349,-0.221 0.344,-0.222 0.337,-0.223C0.329,-0.224 0.32,-0.224 0.31,-0.225C0.3,-0.226 0.289,-0.226 0.278,-0.227C0.267,-0.228 0.256,-0.228 0.245,-0.228C0.22,-0.228 0.199,-0.225 0.184,-0.219C0.168,-0.213 0.156,-0.205 0.147,-0.197C0.138,-0.188 0.131,-0.178 0.128,-0.167C0.125,-0.156 0.123,-0.145 0.123,-0.135C0.123,-0.11 0.132,-0.091 0.149,-0.078C0.166,-0.065 0.19,-0.058 0.221,-0.058C0.238,-0.058 0.255,-0.061 0.271,-0.067C0.286,-0.073 0.3,-0.081 0.312,-0.091C0.324,-0.101 0.334,-0.113 0.341,-0.126C0.348,-0.139 0.352,-0.153 0.352,-0.167L0.352,-0.22ZM0.353,-0.056C0.336,-0.033 0.313,-0.015 0.284,-0.004C0.256,0.007 0.227,0.013 0.197,0.013C0.178,0.013 0.159,0.01 0.14,0.005C0.121,0 0.103,-0.008 0.087,-0.02C0.072,-0.031 0.059,-0.046 0.05,-0.065C0.04,-0.083 0.035,-0.105 0.035,-0.132C0.035,-0.182 0.053,-0.222 0.087,-0.252C0.123,-0.282 0.173,-0.297 0.239,-0.297C0.25,-0.297 0.261,-0.297 0.273,-0.296C0.285,-0.295 0.296,-0.295 0.307,-0.294C0.318,-0.293 0.327,-0.293 0.335,-0.292C0.343,-0.291 0.349,-0.291 0.352,-0.29L0.352,-0.307C0.352,-0.342 0.342,-0.367 0.321,-0.382C0.3,-0.397 0.271,-0.404 0.235,-0.404C0.2,-0.404 0.172,-0.399 0.151,-0.39C0.13,-0.38 0.113,-0.37 0.099,-0.36L0.057,-0.421C0.065,-0.428 0.075,-0.434 0.086,-0.441C0.097,-0.448 0.111,-0.454 0.126,-0.46C0.141,-0.465 0.159,-0.47 0.178,-0.473C0.197,-0.477 0.22,-0.479 0.245,-0.479C0.305,-0.479 0.352,-0.465 0.387,-0.436C0.421,-0.406 0.438,-0.365 0.438,-0.312L0.438,-0.042C0.438,-0.025 0.438,-0.011 0.439,-0L0.355,-0L0.353,-0.056Z" style="fill-rule:nonzero;"/>
            </g>
            <g transform="matrix(18,0,0,18,67.9636,28.8369)">
                <path d="M0.092,-0.117C0.109,-0.1 0.129,-0.087 0.152,-0.077C0.175,-0.067 0.202,-0.062 0.233,-0.062C0.263,-0.062 0.288,-0.067 0.308,-0.077C0.328,-0.086 0.338,-0.101 0.338,-0.122C0.338,-0.133 0.336,-0.142 0.332,-0.15C0.327,-0.157 0.32,-0.164 0.31,-0.17C0.299,-0.176 0.285,-0.182 0.269,-0.187C0.252,-0.192 0.23,-0.197 0.205,-0.203C0.187,-0.207 0.169,-0.212 0.152,-0.219C0.134,-0.226 0.118,-0.234 0.104,-0.246C0.09,-0.257 0.079,-0.27 0.07,-0.285C0.061,-0.301 0.057,-0.32 0.057,-0.342C0.057,-0.365 0.062,-0.385 0.073,-0.402C0.083,-0.419 0.097,-0.433 0.114,-0.445C0.131,-0.456 0.151,-0.465 0.172,-0.471C0.194,-0.477 0.217,-0.48 0.24,-0.48C0.279,-0.48 0.313,-0.475 0.342,-0.465C0.37,-0.454 0.395,-0.44 0.416,-0.421L0.367,-0.359C0.353,-0.372 0.336,-0.382 0.315,-0.391C0.294,-0.4 0.269,-0.404 0.241,-0.404C0.212,-0.404 0.189,-0.399 0.172,-0.39C0.155,-0.381 0.146,-0.365 0.146,-0.344C0.146,-0.324 0.158,-0.309 0.181,-0.3C0.203,-0.29 0.234,-0.281 0.271,-0.272C0.293,-0.267 0.314,-0.261 0.333,-0.254C0.352,-0.247 0.368,-0.237 0.383,-0.227C0.397,-0.216 0.408,-0.202 0.417,-0.186C0.425,-0.17 0.429,-0.151 0.429,-0.128C0.429,-0.105 0.424,-0.084 0.413,-0.067C0.402,-0.049 0.388,-0.034 0.37,-0.022C0.352,-0.01 0.331,-0.001 0.308,0.005C0.285,0.011 0.26,0.014 0.235,0.014C0.147,0.014 0.081,-0.01 0.037,-0.057L0.092,-0.117Z" style="fill-rule:nonzero;"/>
            </g>
            <g transform="matrix(18,0,0,18,76.1086,28.8369)">
                <path d="M0.286,0.014C0.25,0.014 0.217,0.007 0.187,-0.006C0.157,-0.019 0.131,-0.036 0.11,-0.059C0.088,-0.082 0.071,-0.108 0.059,-0.138C0.046,-0.167 0.04,-0.199 0.04,-0.233C0.04,-0.267 0.046,-0.299 0.059,-0.329C0.071,-0.358 0.088,-0.384 0.11,-0.407C0.131,-0.43 0.157,-0.448 0.187,-0.461C0.217,-0.473 0.25,-0.48 0.286,-0.48C0.321,-0.48 0.354,-0.473 0.384,-0.461C0.414,-0.448 0.44,-0.43 0.462,-0.407C0.484,-0.384 0.501,-0.358 0.514,-0.329C0.526,-0.299 0.532,-0.267 0.532,-0.233C0.532,-0.199 0.526,-0.167 0.514,-0.138C0.501,-0.108 0.484,-0.082 0.462,-0.059C0.44,-0.036 0.414,-0.019 0.384,-0.006C0.354,0.007 0.321,0.014 0.286,0.014ZM0.286,-0.064C0.31,-0.064 0.332,-0.069 0.351,-0.079C0.37,-0.088 0.387,-0.101 0.4,-0.117C0.413,-0.132 0.424,-0.15 0.431,-0.171C0.438,-0.191 0.441,-0.212 0.441,-0.233C0.441,-0.254 0.438,-0.274 0.431,-0.295C0.424,-0.315 0.413,-0.333 0.4,-0.349C0.386,-0.365 0.37,-0.378 0.35,-0.388C0.332,-0.397 0.31,-0.402 0.286,-0.402C0.262,-0.402 0.24,-0.397 0.221,-0.388C0.202,-0.378 0.185,-0.365 0.172,-0.349C0.159,-0.334 0.149,-0.316 0.141,-0.296C0.135,-0.275 0.131,-0.254 0.131,-0.233C0.131,-0.212 0.135,-0.191 0.141,-0.171C0.149,-0.151 0.159,-0.133 0.172,-0.117C0.186,-0.101 0.203,-0.088 0.222,-0.079C0.241,-0.069 0.262,-0.064 0.286,-0.064Z" style="fill-rule:nonzero;"/>
            </g>
            <g transform="matrix(18,0,0,18,86.0536,28.8369)">
                <path d="M0.062,-0L0.062,-0.421C0.062,-0.435 0.062,-0.45 0.061,-0.465L0.147,-0.465L0.15,-0.39C0.155,-0.398 0.162,-0.407 0.171,-0.417C0.18,-0.426 0.19,-0.435 0.203,-0.443C0.215,-0.451 0.229,-0.458 0.246,-0.464C0.262,-0.469 0.281,-0.472 0.302,-0.472C0.312,-0.472 0.321,-0.471 0.33,-0.47C0.338,-0.469 0.346,-0.467 0.353,-0.464L0.333,-0.38C0.321,-0.385 0.306,-0.387 0.287,-0.387C0.268,-0.387 0.25,-0.383 0.234,-0.376C0.217,-0.369 0.203,-0.359 0.191,-0.345C0.179,-0.333 0.17,-0.317 0.163,-0.3C0.156,-0.283 0.152,-0.264 0.152,-0.245L0.152,-0L0.062,-0Z" style="fill-rule:nonzero;"/>
            </g>
            <g transform="matrix(18,0,0,18,91.5346,28.8369)">
                <rect x="0.073" y="-0.323" width="0.293" height="0.086" style="fill-rule:nonzero;"/>
            </g>
            <g transform="matrix(18,0,0,18,99.0856,28.8369)">
                <path d="M0.073,-0.167L0.368,-0.32L0.073,-0.473L0.107,-0.541L0.473,-0.349L0.473,-0.291L0.107,-0.099L0.073,-0.167Z" style="fill-rule:nonzero;"/>
            </g>
            <g transform="matrix(18,0,0,18,31.8061,46.8369)">
                <path d="M0.017,-0.667L0.123,-0.667L0.251,-0.129L0.396,-0.647L0.489,-0.647L0.631,-0.13L0.759,-0.667L0.859,-0.667L0.68,-0L0.578,-0L0.439,-0.493L0.296,-0L0.195,-0L0.017,-0.667Z" style="fill-rule:nonzero;"/>
            </g>
            <g transform="matrix(18,0,0,18,46.5391,46.8369)">
                <path d="M0.352,-0.22C0.349,-0.221 0.344,-0.222 0.337,-0.223C0.329,-0.224 0.32,-0.224 0.31,-0.225C0.3,-0.226 0.289,-0.226 0.278,-0.227C0.267,-0.228 0.256,-0.228 0.245,-0.228C0.22,-0.228 0.199,-0.225 0.184,-0.219C0.168,-0.213 0.156,-0.205 0.147,-0.197C0.138,-0.188 0.131,-0.178 0.128,-0.167C0.125,-0.156 0.123,-0.145 0.123,-0.135C0.123,-0.11 0.132,-0.091 0.149,-0.078C0.166,-0.065 0.19,-0.058 0.221,-0.058C0.238,-0.058 0.255,-0.061 0.271,-0.067C0.286,-0.073 0.3,-0.081 0.312,-0.091C0.324,-0.101 0.334,-0.113 0.341,-0.126C0.348,-0.139 0.352,-0.153 0.352,-0.167L0.352,-0.22ZM0.353,-0.056C0.336,-0.033 0.313,-0.015 0.284,-0.004C0.256,0.007 0.227,0.013 0.197,0.013C0.178,0.013 0.159,0.01 0.14,0.005C0.121,0 0.103,-0.008 0.087,-0.02C0.072,-0.031 0.059,-0.046 0.05,-0.065C0.04,-0.083 0.035,-0.105 0.035,-0.132C0.035,-0.182 0.053,-0.222 0.087,-0.252C0.123,-0.282 0.173,-0.297 0.239,-0.297C0.25,-0.297 0.261,-0.297 0.273,-0.296C0.285,-0.295 0.296,-0.295 0.307,-0.294C0.318,-0.293 0.327,-0.293 0.335,-0.292C0.343,-0.291 0.349,-0.291 0.352,-0.29L0.352,-0.307C0.352,-0.342 0.342,-0.367 0.321,-0.382C0.3,-0.397 0.271,-0.404 0.235,-0.404C0.2,-0.404 0.172,-0.399 0.151,-0.39C0.13,-0.38 0.113,-0.37 0.099,-0.36L0.057,-0.421C0.065,-0.428 0.075,-0.434 0.086,-0.441C0.097,-0.448 0.111,-0.454 0.126,-0.46C0.141,-0.465 0.159,-0.47 0.178,-0.473C0.197,-0.477 0.22,-0.479 0.245,-0.479C0.305,-0.479 0.352,-0.465 0.387,-0.436C0.421,-0.406 0.438,-0.365 0.438,-0.312L0.438,-0.042C0.438,-0.025 0.438,-0.011 0.439,-0L0.355,-0L0.353,-0.056Z" style="fill-rule:nonzero;"/>
            </g>
            <g transform="matrix(18,0,0,18,54.8101,46.8369)">
                <path d="M0.006,-0.465L0.109,-0.465L0.254,-0.102L0.398,-0.465L0.495,-0.465L0.296,-0L0.206,-0L0.006,-0.465Z" style="fill-rule:nonzero;"/>
            </g>
            <g transform="matrix(18,0,0,18,63.4951,46.8369)">
                <path d="M0.486,-0.068C0.481,-0.062 0.473,-0.054 0.462,-0.045C0.451,-0.036 0.438,-0.027 0.421,-0.018C0.404,-0.009 0.384,-0.002 0.361,0.004C0.338,0.011 0.311,0.014 0.282,0.014C0.246,0.014 0.213,0.008 0.183,-0.004C0.153,-0.016 0.127,-0.033 0.106,-0.055C0.085,-0.077 0.068,-0.103 0.057,-0.134C0.045,-0.165 0.039,-0.199 0.039,-0.236C0.039,-0.27 0.045,-0.302 0.056,-0.332C0.067,-0.361 0.083,-0.387 0.104,-0.408C0.125,-0.43 0.149,-0.447 0.178,-0.46C0.206,-0.473 0.237,-0.479 0.271,-0.479C0.311,-0.479 0.345,-0.471 0.374,-0.456C0.403,-0.441 0.426,-0.42 0.445,-0.395C0.463,-0.37 0.476,-0.341 0.485,-0.308C0.494,-0.275 0.498,-0.241 0.498,-0.206L0.131,-0.206C0.132,-0.185 0.136,-0.166 0.145,-0.149C0.153,-0.132 0.164,-0.117 0.178,-0.104C0.192,-0.091 0.208,-0.081 0.226,-0.074C0.244,-0.067 0.263,-0.063 0.283,-0.063C0.322,-0.063 0.355,-0.07 0.38,-0.083C0.405,-0.096 0.424,-0.109 0.435,-0.122L0.486,-0.068ZM0.405,-0.273C0.402,-0.309 0.39,-0.34 0.367,-0.365C0.344,-0.39 0.312,-0.403 0.271,-0.403C0.25,-0.403 0.231,-0.399 0.214,-0.392C0.197,-0.385 0.182,-0.375 0.17,-0.363C0.158,-0.351 0.149,-0.337 0.142,-0.322C0.135,-0.306 0.132,-0.29 0.131,-0.273L0.405,-0.273Z" style="fill-rule:nonzero;"/>
            </g>
            <g transform="matrix(18,0,0,18,72.7921,46.8369)">
                <path d="M0.097,-0.39L0.013,-0.39L0.013,-0.465L0.097,-0.465L0.097,-0.503C0.097,-0.534 0.102,-0.562 0.111,-0.585C0.119,-0.608 0.132,-0.626 0.147,-0.641C0.162,-0.656 0.179,-0.667 0.198,-0.674C0.217,-0.681 0.238,-0.684 0.259,-0.684C0.284,-0.684 0.308,-0.68 0.332,-0.673C0.355,-0.665 0.377,-0.652 0.397,-0.633L0.352,-0.575C0.327,-0.596 0.301,-0.606 0.273,-0.606C0.247,-0.606 0.226,-0.598 0.211,-0.581C0.195,-0.564 0.187,-0.536 0.187,-0.495L0.187,-0.465L0.32,-0.465L0.32,-0.39L0.187,-0.39L0.187,-0L0.097,-0L0.097,-0.39Z" style="fill-rule:nonzero;"/>
            </g>
            <g transform="matrix(18,0,0,18,77.9311,46.8369)">
                <path d="M0.286,0.014C0.25,0.014 0.217,0.007 0.187,-0.006C0.157,-0.019 0.131,-0.036 0.11,-0.059C0.088,-0.082 0.071,-0.108 0.059,-0.138C0.046,-0.167 0.04,-0.199 0.04,-0.233C0.04,-0.267 0.046,-0.299 0.059,-0.329C0.071,-0.358 0.088,-0.384 0.11,-0.407C0.131,-0.43 0.157,-0.448 0.187,-0.461C0.217,-0.473 0.25,-0.48 0.286,-0.48C0.321,-0.48 0.354,-0.473 0.384,-0.461C0.414,-0.448 0.44,-0.43 0.462,-0.407C0.484,-0.384 0.501,-0.358 0.514,-0.329C0.526,-0.299 0.532,-0.267 0.532,-0.233C0.532,-0.199 0.526,-0.167 0.514,-0.138C0.501,-0.108 0.484,-0.082 0.462,-0.059C0.44,-0.036 0.414,-0.019 0.384,-0.006C0.354,0.007 0.321,0.014 0.286,0.014ZM0.286,-0.064C0.31,-0.064 0.332,-0.069 0.351,-0.079C0.37,-0.088 0.387,-0.101 0.4,-0.117C0.413,-0.132 0.424,-0.15 0.431,-0.171C0.438,-0.191 0.441,-0.212 0.441,-0.233C0.441,-0.254 0.438,-0.274 0.431,-0.295C0.424,-0.315 0.413,-0.333 0.4,-0.349C0.386,-0.365 0.37,-0.378 0.35,-0.388C0.332,-0.397 0.31,-0.402 0.286,-0.402C0.262,-0.402 0.24,-0.397 0.221,-0.388C0.202,-0.378 0.185,-0.365 0.172,-0.349C0.159,-0.334 0.149,-0.316 0.141,-0.296C0.135,-0.275 0.131,-0.254 0.131,-0.233C0.131,-0.212 0.135,-0.191 0.141,-0.171C0.149,-0.151 0.159,-0.133 0.172,-0.117C0.186,-0.101 0.203,-0.088 0.222,-0.079C0.241,-0.069 0.262,-0.064 0.286,-0.064Z" style="fill-rule:nonzero;"/>
            </g>
            <g transform="matrix(18,0,0,18,87.8761,46.8369)">
                <path d="M0.062,-0L0.062,-0.421C0.062,-0.435 0.062,-0.45 0.061,-0.465L0.147,-0.465L0.15,-0.39C0.155,-0.398 0.162,-0.407 0.171,-0.417C0.18,-0.426 0.19,-0.435 0.203,-0.443C0.215,-0.451 0.229,-0.458 0.246,-0.464C0.262,-0.469 0.281,-0.472 0.302,-0.472C0.312,-0.472 0.321,-0.471 0.33,-0.47C0.338,-0.469 0.346,-0.467 0.353,-0.464L0.333,-0.38C0.321,-0.385 0.306,-0.387 0.287,-0.387C0.268,-0.387 0.25,-0.383 0.234,-0.376C0.217,-0.369 0.203,-0.359 0.191,-0.345C0.179,-0.333 0.17,-0.317 0.163,-0.3C0.156,-0.283 0.152,-0.264 0.152,-0.245L0.152,-0L0.062,-0Z" style="fill-rule:nonzero;"/>
            </g>
            <g transform="matrix(18,0,0,18,94.0771,46.8369)">
                <path d="M0.062,-0L0.062,-0.418C0.062,-0.433 0.062,-0.448 0.061,-0.465L0.147,-0.465L0.15,-0.395C0.155,-0.403 0.162,-0.412 0.171,-0.422C0.18,-0.431 0.19,-0.44 0.202,-0.448C0.214,-0.456 0.228,-0.463 0.245,-0.468C0.261,-0.473 0.28,-0.476 0.301,-0.476C0.337,-0.476 0.367,-0.469 0.391,-0.455C0.414,-0.44 0.433,-0.419 0.446,-0.392C0.465,-0.414 0.488,-0.434 0.515,-0.451C0.542,-0.468 0.575,-0.476 0.615,-0.476C0.675,-0.476 0.719,-0.458 0.748,-0.423C0.777,-0.387 0.791,-0.339 0.791,-0.279L0.791,-0L0.701,-0L0.701,-0.272C0.701,-0.315 0.693,-0.347 0.676,-0.368C0.659,-0.388 0.634,-0.398 0.601,-0.398C0.582,-0.398 0.565,-0.394 0.55,-0.387C0.534,-0.379 0.52,-0.369 0.508,-0.356C0.497,-0.343 0.488,-0.329 0.482,-0.312C0.475,-0.295 0.472,-0.277 0.472,-0.258L0.472,-0L0.382,-0L0.382,-0.272C0.382,-0.315 0.374,-0.347 0.357,-0.368C0.34,-0.388 0.315,-0.398 0.283,-0.398C0.258,-0.398 0.238,-0.393 0.221,-0.382C0.204,-0.371 0.191,-0.358 0.181,-0.341C0.17,-0.324 0.163,-0.304 0.159,-0.282C0.154,-0.26 0.152,-0.238 0.152,-0.216L0.152,-0L0.062,-0Z" style="fill-rule:nonzero;"/>
            </g>
            <g transform="matrix(18,0,0,18,109.026,46.8369)">
                <path d="M0.092,-0.117C0.109,-0.1 0.129,-0.087 0.152,-0.077C0.175,-0.067 0.202,-0.062 0.233,-0.062C0.263,-0.062 0.288,-0.067 0.308,-0.077C0.328,-0.086 0.338,-0.101 0.338,-0.122C0.338,-0.133 0.336,-0.142 0.332,-0.15C0.327,-0.157 0.32,-0.164 0.31,-0.17C0.299,-0.176 0.285,-0.182 0.269,-0.187C0.252,-0.192 0.23,-0.197 0.205,-0.203C0.187,-0.207 0.169,-0.212 0.152,-0.219C0.134,-0.226 0.118,-0.234 0.104,-0.246C0.09,-0.257 0.079,-0.27 0.07,-0.285C0.061,-0.301 0.057,-0.32 0.057,-0.342C0.057,-0.365 0.062,-0.385 0.073,-0.402C0.083,-0.419 0.097,-0.433 0.114,-0.445C0.131,-0.456 0.151,-0.465 0.172,-0.471C0.194,-0.477 0.217,-0.48 0.24,-0.48C0.279,-0.48 0.313,-0.475 0.342,-0.465C0.37,-0.454 0.395,-0.44 0.416,-0.421L0.367,-0.359C0.353,-0.372 0.336,-0.382 0.315,-0.391C0.294,-0.4 0.269,-0.404 0.241,-0.404C0.212,-0.404 0.189,-0.399 0.172,-0.39C0.155,-0.381 0.146,-0.365 0.146,-0.344C0.146,-0.324 0.158,-0.309 0.181,-0.3C0.203,-0.29 0.234,-0.281 0.271,-0.272C0.293,-0.267 0.314,-0.261 0.333,-0.254C0.352,-0.247 0.368,-0.237 0.383,-0.227C0.397,-0.216 0.408,-0.202 0.417,-0.186C0.425,-0.17 0.429,-0.151 0.429,-0.128C0.429,-0.105 0.424,-0.084 0.413,-0.067C0.402,-0.049 0.388,-0.034 0.37,-0.022C0.352,-0.01 0.331,-0.001 0.308,0.005C0.285,0.011 0.26,0.014 0.235,0.014C0.147,0.014 0.081,-0.01 0.037,-0.057L0.092,-0.117Z" style="fill-rule:nonzero;"/>
            </g>
        </g>
        <path d="M22.05,88.552L24.582,88.552C25.126,88.552 25.576,88.628 25.932,88.78C26.288,88.932 26.572,89.124 26.784,89.356C26.996,89.588 27.144,89.848 27.228,90.136C27.312,90.424 27.354,90.704 27.354,90.976C27.354,91.376 27.286,91.728 27.15,92.032C27.014,92.336 26.826,92.59 26.586,92.794C26.346,92.998 26.06,93.152 25.728,93.256C25.396,93.36 25.034,93.412 24.642,93.412L23.19,93.412L23.19,96.556L22.05,96.556L22.05,88.552ZM24.63,92.428C25.126,92.428 25.508,92.302 25.776,92.05C26.044,91.798 26.178,91.448 26.178,91C26.178,90.544 26.04,90.186 25.764,89.926C25.488,89.666 25.11,89.536 24.63,89.536L23.19,89.536L23.19,92.428L24.63,92.428Z" style="fill-rule:nonzero;"/>
        <path d="M28.434,88.552L29.502,88.552L29.502,91.804C29.574,91.708 29.662,91.604 29.766,91.492C29.87,91.38 29.998,91.276 30.15,91.18C30.302,91.084 30.478,91.004 30.678,90.94C30.878,90.876 31.106,90.844 31.362,90.844C32.09,90.844 32.63,91.056 32.982,91.48C33.334,91.904 33.51,92.48 33.51,93.208L33.51,96.556L32.43,96.556L32.43,93.292C32.43,92.772 32.318,92.39 32.094,92.146C31.87,91.902 31.554,91.78 31.146,91.78C30.834,91.78 30.574,91.844 30.366,91.972C30.158,92.1 29.992,92.266 29.868,92.47C29.744,92.674 29.654,92.906 29.598,93.166C29.542,93.426 29.514,93.692 29.514,93.964L29.514,96.556L28.434,96.556L28.434,88.552Z" style="fill-rule:nonzero;"/>
        <path d="M38.454,93.916C38.422,93.908 38.36,93.898 38.268,93.886C38.176,93.874 38.07,93.864 37.95,93.856C37.83,93.848 37.702,93.84 37.566,93.832C37.43,93.824 37.298,93.82 37.17,93.82C36.866,93.82 36.62,93.856 36.432,93.928C36.244,94 36.096,94.09 35.988,94.198C35.88,94.306 35.806,94.426 35.766,94.558C35.726,94.69 35.706,94.816 35.706,94.936C35.706,95.24 35.81,95.47 36.018,95.626C36.226,95.782 36.514,95.86 36.882,95.86C37.09,95.86 37.288,95.824 37.476,95.752C37.664,95.68 37.83,95.584 37.974,95.464C38.118,95.344 38.234,95.204 38.322,95.044C38.41,94.884 38.454,94.72 38.454,94.552L38.454,93.916ZM38.466,95.884C38.258,96.164 37.984,96.372 37.644,96.508C37.304,96.644 36.954,96.712 36.594,96.712C36.362,96.712 36.132,96.682 35.904,96.622C35.676,96.562 35.468,96.462 35.28,96.322C35.092,96.182 34.94,96.002 34.824,95.782C34.708,95.562 34.65,95.292 34.65,94.972C34.65,94.372 34.86,93.892 35.28,93.532C35.7,93.172 36.306,92.992 37.098,92.992C37.226,92.992 37.362,92.996 37.506,93.004C37.65,93.012 37.786,93.02 37.914,93.028C38.042,93.036 38.154,93.044 38.25,93.052C38.346,93.06 38.414,93.068 38.454,93.076L38.454,92.872C38.454,92.456 38.328,92.158 38.076,91.978C37.824,91.798 37.482,91.708 37.05,91.708C36.626,91.708 36.29,91.766 36.042,91.882C35.794,91.998 35.586,92.116 35.418,92.236L34.914,91.504C35.01,91.424 35.126,91.344 35.262,91.264C35.398,91.184 35.558,91.11 35.742,91.042C35.926,90.974 36.134,90.918 36.366,90.874C36.598,90.83 36.866,90.808 37.17,90.808C37.89,90.808 38.456,90.982 38.868,91.33C39.28,91.678 39.486,92.172 39.486,92.812L39.486,96.058C39.486,96.254 39.49,96.42 39.498,96.556L38.49,96.556L38.466,95.884Z" style="fill-rule:nonzero;"/>
        <path d="M41.334,95.152C41.534,95.352 41.774,95.512 42.054,95.632C42.334,95.752 42.658,95.812 43.026,95.812C43.386,95.812 43.686,95.754 43.926,95.638C44.166,95.522 44.286,95.34 44.286,95.092C44.286,94.964 44.26,94.854 44.208,94.762C44.156,94.67 44.068,94.588 43.944,94.516C43.82,94.444 43.656,94.378 43.452,94.318C43.248,94.258 42.994,94.192 42.69,94.12C42.474,94.072 42.26,94.008 42.048,93.928C41.836,93.848 41.646,93.742 41.478,93.61C41.31,93.478 41.174,93.318 41.07,93.13C40.966,92.942 40.914,92.716 40.914,92.452C40.914,92.18 40.976,91.942 41.1,91.738C41.224,91.534 41.39,91.362 41.598,91.222C41.806,91.082 42.04,90.976 42.3,90.904C42.56,90.832 42.83,90.796 43.11,90.796C43.582,90.796 43.988,90.858 44.328,90.982C44.668,91.106 44.966,91.28 45.222,91.504L44.634,92.248C44.466,92.096 44.256,91.968 44.004,91.864C43.752,91.76 43.458,91.708 43.122,91.708C42.778,91.708 42.502,91.764 42.294,91.876C42.086,91.988 41.982,92.172 41.982,92.428C41.982,92.668 42.12,92.846 42.396,92.962C42.672,93.078 43.034,93.188 43.482,93.292C43.746,93.356 43.992,93.43 44.22,93.514C44.448,93.598 44.648,93.706 44.82,93.838C44.992,93.97 45.128,94.132 45.228,94.324C45.328,94.516 45.378,94.748 45.378,95.02C45.378,95.3 45.314,95.546 45.186,95.758C45.058,95.97 44.886,96.148 44.67,96.292C44.454,96.436 44.206,96.544 43.926,96.616C43.646,96.688 43.354,96.724 43.05,96.724C41.994,96.724 41.202,96.44 40.674,95.872L41.334,95.152Z" style="fill-rule:nonzero;"/>
        <path d="M49.338,96.724C48.906,96.724 48.51,96.646 48.15,96.49C47.79,96.334 47.48,96.12 47.22,95.848C46.96,95.576 46.756,95.262 46.608,94.906C46.46,94.55 46.386,94.168 46.386,93.76C46.386,93.352 46.46,92.97 46.608,92.614C46.756,92.258 46.96,91.944 47.22,91.672C47.48,91.4 47.79,91.186 48.15,91.03C48.51,90.874 48.906,90.796 49.338,90.796C49.762,90.796 50.154,90.874 50.514,91.03C50.874,91.186 51.186,91.4 51.45,91.672C51.714,91.944 51.92,92.258 52.068,92.614C52.216,92.97 52.29,93.352 52.29,93.76C52.29,94.168 52.216,94.55 52.068,94.906C51.92,95.262 51.714,95.576 51.45,95.848C51.186,96.12 50.874,96.334 50.514,96.49C50.154,96.646 49.762,96.724 49.338,96.724ZM49.338,95.788C49.626,95.788 49.886,95.73 50.118,95.614C50.35,95.498 50.546,95.346 50.706,95.158C50.866,94.97 50.988,94.754 51.072,94.51C51.156,94.266 51.198,94.016 51.198,93.76C51.198,93.512 51.156,93.266 51.072,93.022C50.988,92.778 50.864,92.56 50.7,92.368C50.536,92.176 50.34,92.022 50.112,91.906C49.884,91.79 49.626,91.732 49.338,91.732C49.05,91.732 48.79,91.79 48.558,91.906C48.326,92.022 48.13,92.174 47.97,92.362C47.81,92.55 47.688,92.766 47.604,93.01C47.52,93.254 47.478,93.504 47.478,93.76C47.478,94.016 47.52,94.264 47.604,94.504C47.688,94.744 47.812,94.96 47.976,95.152C48.14,95.344 48.336,95.498 48.564,95.614C48.792,95.73 49.05,95.788 49.338,95.788Z" style="fill-rule:nonzero;"/>
        <path d="M53.526,96.556L53.526,91.51C53.526,91.338 53.522,91.16 53.514,90.976L54.546,90.976L54.582,91.876C54.646,91.78 54.73,91.674 54.834,91.558C54.938,91.442 55.064,91.336 55.212,91.24C55.36,91.144 55.532,91.062 55.728,90.994C55.924,90.926 56.15,90.892 56.406,90.892C56.526,90.892 56.636,90.9 56.736,90.916C56.836,90.932 56.93,90.956 57.018,90.988L56.778,91.996C56.634,91.94 56.45,91.912 56.226,91.912C55.994,91.912 55.78,91.956 55.584,92.044C55.388,92.132 55.218,92.254 55.074,92.41C54.93,92.566 54.816,92.748 54.732,92.956C54.648,93.164 54.606,93.384 54.606,93.616L54.606,96.556L53.526,96.556Z" style="fill-rule:nonzero;"/>
        <rect x="60.258" y="88.552" width="1.152" height="8.004" style="fill-rule:nonzero;"/>
        <path d="M63.078,96.556L63.078,91.546C63.078,91.366 63.074,91.176 63.066,90.976L64.098,90.976L64.134,91.816C64.206,91.72 64.294,91.614 64.398,91.498C64.502,91.382 64.63,91.276 64.782,91.18C64.934,91.084 65.112,91.004 65.316,90.94C65.52,90.876 65.75,90.844 66.006,90.844C66.734,90.844 67.274,91.056 67.626,91.48C67.978,91.904 68.154,92.48 68.154,93.208L68.154,96.556L67.074,96.556L67.074,93.292C67.074,92.772 66.962,92.39 66.738,92.146C66.514,91.902 66.198,91.78 65.79,91.78C65.478,91.78 65.218,91.844 65.01,91.972C64.802,92.1 64.636,92.266 64.512,92.47C64.388,92.674 64.298,92.906 64.242,93.166C64.186,93.426 64.158,93.692 64.158,93.964L64.158,96.556L63.078,96.556Z" style="fill-rule:nonzero;"/>
        <path d="M12.699,116.866C12.227,116.866 11.813,116.77 11.457,116.578C11.101,116.386 10.801,116.114 10.557,115.762C10.313,115.41 10.129,114.986 10.005,114.49C9.881,113.994 9.819,113.442 9.819,112.834C9.819,112.234 9.881,111.694 10.005,111.214C10.129,110.734 10.315,110.324 10.563,109.984C10.811,109.644 11.113,109.382 11.469,109.198C11.825,109.014 12.239,108.922 12.711,108.922C13.175,108.922 13.587,109.014 13.947,109.198C14.307,109.382 14.609,109.644 14.853,109.984C15.097,110.324 15.281,110.734 15.405,111.214C15.529,111.694 15.591,112.234 15.591,112.834C15.591,113.442 15.529,113.994 15.405,114.49C15.281,114.986 15.095,115.41 14.847,115.762C14.599,116.114 14.295,116.386 13.935,116.578C13.575,116.77 13.163,116.866 12.699,116.866ZM12.699,115.87C12.987,115.87 13.241,115.796 13.461,115.648C13.681,115.5 13.865,115.292 14.013,115.024C14.161,114.756 14.273,114.436 14.349,114.064C14.425,113.692 14.463,113.282 14.463,112.834C14.463,112.394 14.425,111.994 14.349,111.634C14.273,111.274 14.159,110.968 14.007,110.716C13.855,110.464 13.671,110.27 13.455,110.134C13.239,109.998 12.987,109.93 12.699,109.93C12.411,109.93 12.159,109.998 11.943,110.134C11.727,110.27 11.545,110.464 11.397,110.716C11.249,110.968 11.137,111.274 11.061,111.634C10.985,111.994 10.947,112.394 10.947,112.834C10.947,113.282 10.985,113.692 11.061,114.064C11.137,114.436 11.249,114.756 11.397,115.024C11.545,115.292 11.727,115.5 11.943,115.648C12.159,115.796 12.411,115.87 12.699,115.87Z" style="fill-rule:nonzero;"/>
        <rect x="16.863" y="112.822" width="3.516" height="1.032" style="fill-rule:nonzero;"/>
        <path d="M22.959,115.738L24.303,115.738L24.303,110.278L22.743,111.118L22.299,110.266L24.423,109.102L25.395,109.102L25.395,115.738L26.715,115.738L26.715,116.698L22.959,116.698L22.959,115.738Z" style="fill-rule:nonzero;"/>
        <path d="M31.083,116.866C30.611,116.866 30.197,116.77 29.841,116.578C29.485,116.386 29.185,116.114 28.941,115.762C28.697,115.41 28.513,114.986 28.389,114.49C28.265,113.994 28.203,113.442 28.203,112.834C28.203,112.234 28.265,111.694 28.389,111.214C28.513,110.734 28.699,110.324 28.947,109.984C29.195,109.644 29.497,109.382 29.853,109.198C30.209,109.014 30.623,108.922 31.095,108.922C31.559,108.922 31.971,109.014 32.331,109.198C32.691,109.382 32.993,109.644 33.237,109.984C33.481,110.324 33.665,110.734 33.789,111.214C33.913,111.694 33.975,112.234 33.975,112.834C33.975,113.442 33.913,113.994 33.789,114.49C33.665,114.986 33.479,115.41 33.231,115.762C32.983,116.114 32.679,116.386 32.319,116.578C31.959,116.77 31.547,116.866 31.083,116.866ZM31.083,115.87C31.371,115.87 31.625,115.796 31.845,115.648C32.065,115.5 32.249,115.292 32.397,115.024C32.545,114.756 32.657,114.436 32.733,114.064C32.809,113.692 32.847,113.282 32.847,112.834C32.847,112.394 32.809,111.994 32.733,111.634C32.657,111.274 32.543,110.968 32.391,110.716C32.239,110.464 32.055,110.27 31.839,110.134C31.623,109.998 31.371,109.93 31.083,109.93C30.795,109.93 30.543,109.998 30.327,110.134C30.111,110.27 29.929,110.464 29.781,110.716C29.633,110.968 29.521,111.274 29.445,111.634C29.369,111.994 29.331,112.394 29.331,112.834C29.331,113.282 29.369,113.692 29.445,114.064C29.521,114.436 29.633,114.756 29.781,115.024C29.929,115.292 30.111,115.5 30.327,115.648C30.543,115.796 30.795,115.87 31.083,115.87Z" style="fill-rule:nonzero;"/>
        <path d="M34.491,108.694L35.775,108.694L38.211,115.27L40.647,108.694L41.859,108.694L38.763,116.698L37.587,116.698L34.491,108.694Z" style="fill-rule:nonzero;"/>
        <path d="M48.675,112.378L50.607,112.378L50.607,110.494L51.543,110.494L51.543,112.378L53.463,112.378L53.463,113.314L51.555,113.314L51.555,115.198L50.607,115.198L50.607,113.314L48.675,113.314L48.675,112.378Z" style="fill-rule:nonzero;"/>
        <path d="M57.843,108.478L58.911,108.478L55.743,116.89L54.651,116.89L57.843,108.478Z" style="fill-rule:nonzero;"/>
        <rect x="60.111" y="112.822" width="3.516" height="1.032" style="fill-rule:nonzero;"/>
        <path d="M67.767,115.282C67.991,115.466 68.237,115.62 68.505,115.744C68.773,115.868 69.107,115.93 69.507,115.93C69.787,115.93 70.031,115.888 70.239,115.804C70.447,115.72 70.621,115.606 70.761,115.462C70.901,115.318 71.005,115.15 71.073,114.958C71.141,114.766 71.175,114.558 71.175,114.334C71.175,114.182 71.151,114.018 71.103,113.842C71.055,113.666 70.971,113.504 70.851,113.356C70.731,113.208 70.567,113.086 70.359,112.99C70.151,112.894 69.887,112.846 69.567,112.846C69.239,112.846 68.979,112.878 68.787,112.942C68.595,113.006 68.419,113.078 68.259,113.158L67.707,112.738L68.427,109.138L72.135,109.138L72.135,110.146L69.183,110.146L68.835,112.126C68.915,112.078 69.043,112.032 69.219,111.988C69.395,111.944 69.607,111.922 69.855,111.922C70.215,111.922 70.545,111.974 70.845,112.078C71.145,112.182 71.403,112.336 71.619,112.54C71.835,112.744 72.003,112.992 72.123,113.284C72.243,113.576 72.303,113.914 72.303,114.298C72.303,114.65 72.247,114.982 72.135,115.294C72.023,115.606 71.851,115.882 71.619,116.122C71.387,116.362 71.091,116.552 70.731,116.692C70.371,116.832 69.943,116.902 69.447,116.902C68.919,116.902 68.469,116.822 68.097,116.662C67.725,116.502 67.411,116.306 67.155,116.074L67.767,115.282Z" style="fill-rule:nonzero;"/>
        <path d="M73.371,108.694L74.655,108.694L77.091,115.27L79.527,108.694L80.739,108.694L77.643,116.698L76.467,116.698L73.371,108.694Z" style="fill-rule:nonzero;"/>
    </g>
</svg>
