<?xml version="1.0" encoding="UTF-8" standalone="no"?>
<!DOCTYPE svg PUBLIC "-//W3C//DTD SVG 1.1//EN" "http://www.w3.org/Graphics/SVG/1.1/DTD/svg11.dtd">
<svg width="100%" height="100%" viewBox="0 0 360 380" version="1.1" xmlns="http://www.w3.org/2000/svg" xmlns:xlink="http://www.w3.org/1999/xlink" xml:space="preserve" xmlns:serif="http://www.serif.com/" style="fill-rule:evenodd;clip-rule:evenodd;stroke-linecap:round;stroke-linejoin:round;stroke-miterlimit:1.5;">
    <g id="svg8">
        <rect x="0" y="0" width="360" height="380" style="fill:rgb(240,240,240);"/>
        <g id="HCV-Logo" serif:id="HCV Logo">
            <path d="M159.81,374.578L158.204,374.578L158.204,369.247L152.128,369.247L152.128,374.578L150.522,374.578L150.522,363.154L152.128,363.154L152.128,367.873L158.204,367.873L158.204,363.154L159.81,363.154L159.81,374.578Z" style="fill:rgb(35,31,32);fill-rule:nonzero;"/>
            <path d="M168.018,374.578L161.197,374.578L161.197,363.154L167.886,363.154L167.886,364.496L162.803,364.496L162.803,367.906L167.604,367.906L167.604,369.247L162.803,369.247L162.803,373.221L168.018,373.221L168.018,374.578Z" style="fill:rgb(35,31,32);fill-rule:nonzero;"/>
            <path d="M176.891,364.496L173.679,364.496L173.679,374.578L172.073,374.578L172.073,364.496L168.845,364.496L168.845,363.154L176.891,363.154L176.891,364.496Z" style="fill:rgb(35,31,32);fill-rule:nonzero;"/>
            <path d="M182.601,364.877C182.088,364.496 181.475,364.463 180.681,364.463L179.505,364.463L179.505,368.337L180.681,368.337C181.475,368.337 182.088,368.304 182.601,367.94C183.115,367.559 183.33,367.095 183.33,366.399C183.33,365.721 183.115,365.241 182.601,364.877M185.648,374.578L183.71,374.578L180.73,369.661L179.505,369.661L179.505,374.578L177.899,374.578L177.899,363.154L181.127,363.154C182.27,363.154 183.197,363.42 183.876,363.949C184.555,364.496 184.985,365.323 184.985,366.366C184.985,368.37 183.594,369.264 182.386,369.496L185.648,374.578Z" style="fill:rgb(35,31,32);fill-rule:nonzero;"/>
            <rect x="186.84" y="363.154" width="1.605" height="11.424" style="fill:rgb(35,31,32);"/>
            <path d="M199.568,373.088C198.856,373.883 197.565,374.777 195.396,374.777C192.068,374.777 189.551,372.442 189.551,368.883C189.551,365.323 192.118,362.989 195.396,362.989C197.532,362.989 198.823,363.883 199.452,364.496L198.773,365.787C198.327,365.225 197.051,364.397 195.463,364.397C192.996,364.397 191.208,366.168 191.208,368.85C191.208,371.532 193.012,373.304 195.463,373.304C196.968,373.304 198.128,372.725 198.873,371.913L199.568,373.088Z" style="fill:rgb(237,50,36);fill-rule:nonzero;"/>
            <path d="M209.478,374.578L207.525,374.578L203.733,368.849L202.558,370.042L202.558,374.578L200.952,374.578L200.952,363.154L202.558,363.154L202.558,368.022L207.21,363.154L209.164,363.154L204.809,367.658L209.478,374.578Z" style="fill:rgb(237,50,36);fill-rule:nonzero;"/>
            <path d="M209.478,374.578L207.525,374.578L203.733,368.849L202.558,370.042L202.558,374.578L200.952,374.578L200.952,370.019L202.558,370.042L203.733,368.849L204.809,367.658L205.426,368.571L205.923,369.308L209.478,374.578Z" style="fill-rule:nonzero;"/>
        </g>
        <path d="M112.298,16.831L116.096,16.831C116.912,16.831 117.587,16.945 118.121,17.173C118.655,17.401 119.081,17.689 119.399,18.037C119.717,18.385 119.939,18.775 120.065,19.207C120.191,19.639 120.254,20.059 120.254,20.467C120.254,21.067 120.152,21.595 119.948,22.051C119.744,22.507 119.462,22.888 119.102,23.194C118.742,23.5 118.313,23.731 117.815,23.887C117.317,24.043 116.774,24.121 116.186,24.121L114.008,24.121L114.008,28.837L112.298,28.837L112.298,16.831ZM116.168,22.645C116.912,22.645 117.485,22.456 117.887,22.078C118.289,21.7 118.49,21.175 118.49,20.503C118.49,19.819 118.283,19.282 117.869,18.892C117.455,18.502 116.888,18.307 116.168,18.307L114.008,18.307L114.008,22.645L116.168,22.645Z" style="fill-rule:nonzero;"/>
        <path d="M121.677,16.831L123.279,16.831L123.279,21.709C123.387,21.565 123.519,21.409 123.675,21.241C123.831,21.073 124.023,20.917 124.251,20.773C124.479,20.629 124.743,20.509 125.043,20.413C125.343,20.317 125.685,20.269 126.069,20.269C127.161,20.269 127.971,20.587 128.499,21.223C129.027,21.859 129.291,22.723 129.291,23.815L129.291,28.837L127.671,28.837L127.671,23.941C127.671,23.161 127.503,22.588 127.167,22.222C126.831,21.856 126.357,21.673 125.745,21.673C125.277,21.673 124.887,21.769 124.575,21.961C124.263,22.153 124.014,22.402 123.828,22.708C123.642,23.014 123.507,23.362 123.423,23.752C123.339,24.142 123.297,24.541 123.297,24.949L123.297,28.837L121.677,28.837L121.677,16.831Z" style="fill-rule:nonzero;"/>
        <path d="M136.511,24.877C136.463,24.865 136.37,24.85 136.232,24.832C136.094,24.814 135.935,24.799 135.755,24.787C135.575,24.775 135.383,24.763 135.179,24.751C134.975,24.739 134.777,24.733 134.585,24.733C134.129,24.733 133.76,24.787 133.478,24.895C133.196,25.003 132.974,25.138 132.812,25.3C132.65,25.462 132.539,25.642 132.479,25.84C132.419,26.038 132.389,26.227 132.389,26.407C132.389,26.863 132.545,27.208 132.857,27.442C133.169,27.676 133.601,27.793 134.153,27.793C134.465,27.793 134.762,27.739 135.044,27.631C135.326,27.523 135.575,27.379 135.791,27.199C136.007,27.019 136.181,26.809 136.313,26.569C136.445,26.329 136.511,26.083 136.511,25.831L136.511,24.877ZM136.529,27.829C136.217,28.249 135.806,28.561 135.296,28.765C134.786,28.969 134.261,29.071 133.721,29.071C133.373,29.071 133.028,29.026 132.686,28.936C132.344,28.846 132.032,28.696 131.75,28.486C131.468,28.276 131.24,28.006 131.066,27.676C130.892,27.346 130.805,26.941 130.805,26.461C130.805,25.561 131.12,24.841 131.75,24.301C132.38,23.761 133.289,23.491 134.477,23.491C134.669,23.491 134.873,23.497 135.089,23.509C135.305,23.521 135.509,23.533 135.701,23.545C135.893,23.557 136.061,23.569 136.205,23.581C136.349,23.593 136.451,23.605 136.511,23.617L136.511,23.311C136.511,22.687 136.322,22.24 135.944,21.97C135.566,21.7 135.053,21.565 134.405,21.565C133.769,21.565 133.265,21.652 132.893,21.826C132.521,22 132.209,22.177 131.957,22.357L131.201,21.259C131.345,21.139 131.519,21.019 131.723,20.899C131.927,20.779 132.167,20.668 132.443,20.566C132.719,20.464 133.031,20.38 133.379,20.314C133.727,20.248 134.129,20.215 134.585,20.215C135.665,20.215 136.514,20.476 137.132,20.998C137.75,21.52 138.059,22.261 138.059,23.221L138.059,28.09C138.059,28.384 138.065,28.633 138.077,28.837L136.565,28.837L136.529,27.829Z" style="fill-rule:nonzero;"/>
        <path d="M140.635,26.731C140.935,27.031 141.295,27.271 141.715,27.451C142.135,27.631 142.621,27.721 143.173,27.721C143.713,27.721 144.163,27.634 144.523,27.46C144.883,27.286 145.063,27.013 145.063,26.641C145.063,26.449 145.024,26.284 144.946,26.146C144.868,26.008 144.736,25.885 144.55,25.777C144.364,25.669 144.118,25.57 143.812,25.48C143.506,25.39 143.125,25.291 142.669,25.183C142.345,25.111 142.024,25.015 141.706,24.895C141.388,24.775 141.103,24.616 140.851,24.418C140.599,24.22 140.395,23.98 140.239,23.698C140.083,23.416 140.005,23.077 140.005,22.681C140.005,22.273 140.098,21.916 140.284,21.61C140.47,21.304 140.719,21.046 141.031,20.836C141.343,20.626 141.694,20.467 142.084,20.359C142.474,20.251 142.879,20.197 143.299,20.197C144.007,20.197 144.616,20.29 145.126,20.476C145.636,20.662 146.083,20.923 146.467,21.259L145.585,22.375C145.333,22.147 145.018,21.955 144.64,21.799C144.262,21.643 143.821,21.565 143.317,21.565C142.801,21.565 142.387,21.649 142.075,21.817C141.763,21.985 141.607,22.261 141.607,22.645C141.607,23.005 141.814,23.272 142.228,23.446C142.642,23.62 143.185,23.785 143.857,23.941C144.253,24.037 144.622,24.148 144.964,24.274C145.306,24.4 145.606,24.562 145.864,24.76C146.122,24.958 146.326,25.201 146.476,25.489C146.626,25.777 146.701,26.125 146.701,26.533C146.701,26.953 146.605,27.322 146.413,27.64C146.221,27.958 145.963,28.225 145.639,28.441C145.315,28.657 144.943,28.819 144.523,28.927C144.103,29.035 143.665,29.089 143.209,29.089C141.625,29.089 140.437,28.663 139.645,27.811L140.635,26.731Z" style="fill-rule:nonzero;"/>
        <path d="M152.445,29.089C151.797,29.089 151.203,28.972 150.663,28.738C150.123,28.504 149.658,28.183 149.268,27.775C148.878,27.367 148.572,26.896 148.35,26.362C148.128,25.828 148.017,25.255 148.017,24.643C148.017,24.031 148.128,23.458 148.35,22.924C148.572,22.39 148.878,21.919 149.268,21.511C149.658,21.103 150.123,20.782 150.663,20.548C151.203,20.314 151.797,20.197 152.445,20.197C153.081,20.197 153.669,20.314 154.209,20.548C154.749,20.782 155.217,21.103 155.613,21.511C156.009,21.919 156.318,22.39 156.54,22.924C156.762,23.458 156.873,24.031 156.873,24.643C156.873,25.255 156.762,25.828 156.54,26.362C156.318,26.896 156.009,27.367 155.613,27.775C155.217,28.183 154.749,28.504 154.209,28.738C153.669,28.972 153.081,29.089 152.445,29.089ZM152.445,27.685C152.877,27.685 153.267,27.598 153.615,27.424C153.963,27.25 154.257,27.022 154.497,26.74C154.737,26.458 154.92,26.134 155.046,25.768C155.172,25.402 155.235,25.027 155.235,24.643C155.235,24.271 155.172,23.902 155.046,23.536C154.92,23.17 154.734,22.843 154.488,22.555C154.242,22.267 153.948,22.036 153.606,21.862C153.264,21.688 152.877,21.601 152.445,21.601C152.013,21.601 151.623,21.688 151.275,21.862C150.927,22.036 150.633,22.264 150.393,22.546C150.153,22.828 149.97,23.152 149.844,23.518C149.718,23.884 149.655,24.259 149.655,24.643C149.655,25.027 149.718,25.399 149.844,25.759C149.97,26.119 150.156,26.443 150.402,26.731C150.648,27.019 150.942,27.25 151.284,27.424C151.626,27.598 152.013,27.685 152.445,27.685Z" style="fill-rule:nonzero;"/>
        <path d="M158.531,28.837L158.531,21.268C158.531,21.01 158.525,20.743 158.513,20.467L160.061,20.467L160.115,21.817C160.211,21.673 160.337,21.514 160.493,21.34C160.649,21.166 160.838,21.007 161.06,20.863C161.282,20.719 161.54,20.596 161.834,20.494C162.128,20.392 162.467,20.341 162.851,20.341C163.031,20.341 163.196,20.353 163.346,20.377C163.496,20.401 163.637,20.437 163.769,20.485L163.409,21.997C163.193,21.913 162.917,21.871 162.581,21.871C162.233,21.871 161.912,21.937 161.618,22.069C161.324,22.201 161.069,22.384 160.853,22.618C160.637,22.852 160.466,23.125 160.34,23.437C160.214,23.749 160.151,24.079 160.151,24.427L160.151,28.837L158.531,28.837Z" style="fill-rule:nonzero;"/>
        <rect x="164.382" y="23.023" width="5.274" height="1.548" style="fill-rule:nonzero;"/>
        <path d="M172.106,25.831L177.416,23.077L172.106,20.323L172.718,19.099L179.306,22.555L179.306,23.599L172.718,27.055L172.106,25.831Z" style="fill-rule:nonzero;"/>
        <path d="M187.93,22.735L192.142,22.735L192.142,27.523C191.914,27.727 191.653,27.925 191.359,28.117C191.065,28.309 190.723,28.48 190.333,28.63C189.943,28.78 189.508,28.9 189.028,28.99C188.548,29.08 188.008,29.125 187.408,29.125C186.472,29.125 185.629,28.966 184.879,28.648C184.129,28.33 183.487,27.892 182.953,27.334C182.419,26.776 182.011,26.116 181.729,25.354C181.447,24.592 181.306,23.761 181.306,22.861C181.306,21.985 181.453,21.163 181.747,20.395C182.041,19.627 182.452,18.958 182.98,18.388C183.508,17.818 184.141,17.368 184.879,17.038C185.617,16.708 186.436,16.543 187.336,16.543C187.972,16.543 188.542,16.618 189.046,16.768C189.55,16.918 189.991,17.11 190.369,17.344C190.747,17.578 191.068,17.833 191.332,18.109C191.596,18.385 191.818,18.649 191.998,18.901L190.774,19.945C190.63,19.741 190.456,19.528 190.252,19.306C190.048,19.084 189.808,18.883 189.532,18.703C189.256,18.523 188.941,18.373 188.587,18.253C188.233,18.133 187.828,18.073 187.372,18.073C186.712,18.073 186.118,18.199 185.59,18.451C185.062,18.703 184.615,19.045 184.249,19.477C183.883,19.909 183.601,20.416 183.403,20.998C183.205,21.58 183.106,22.195 183.106,22.843C183.106,23.539 183.214,24.175 183.43,24.751C183.646,25.327 183.949,25.822 184.339,26.236C184.729,26.65 185.188,26.974 185.716,27.208C186.244,27.442 186.826,27.559 187.462,27.559C188.158,27.559 188.749,27.481 189.235,27.325C189.721,27.169 190.138,26.953 190.486,26.677L190.486,24.229L187.93,24.229L187.93,22.735Z" style="fill-rule:nonzero;"/>
        <path d="M199.56,24.877C199.512,24.865 199.419,24.85 199.281,24.832C199.143,24.814 198.984,24.799 198.804,24.787C198.624,24.775 198.432,24.763 198.228,24.751C198.024,24.739 197.826,24.733 197.634,24.733C197.178,24.733 196.809,24.787 196.527,24.895C196.245,25.003 196.023,25.138 195.861,25.3C195.699,25.462 195.588,25.642 195.528,25.84C195.468,26.038 195.438,26.227 195.438,26.407C195.438,26.863 195.594,27.208 195.906,27.442C196.218,27.676 196.65,27.793 197.202,27.793C197.514,27.793 197.811,27.739 198.093,27.631C198.375,27.523 198.624,27.379 198.84,27.199C199.056,27.019 199.23,26.809 199.362,26.569C199.494,26.329 199.56,26.083 199.56,25.831L199.56,24.877ZM199.578,27.829C199.266,28.249 198.855,28.561 198.345,28.765C197.835,28.969 197.31,29.071 196.77,29.071C196.422,29.071 196.077,29.026 195.735,28.936C195.393,28.846 195.081,28.696 194.799,28.486C194.517,28.276 194.289,28.006 194.115,27.676C193.941,27.346 193.854,26.941 193.854,26.461C193.854,25.561 194.169,24.841 194.799,24.301C195.429,23.761 196.338,23.491 197.526,23.491C197.718,23.491 197.922,23.497 198.138,23.509C198.354,23.521 198.558,23.533 198.75,23.545C198.942,23.557 199.11,23.569 199.254,23.581C199.398,23.593 199.5,23.605 199.56,23.617L199.56,23.311C199.56,22.687 199.371,22.24 198.993,21.97C198.615,21.7 198.102,21.565 197.454,21.565C196.818,21.565 196.314,21.652 195.942,21.826C195.57,22 195.258,22.177 195.006,22.357L194.25,21.259C194.394,21.139 194.568,21.019 194.772,20.899C194.976,20.779 195.216,20.668 195.492,20.566C195.768,20.464 196.08,20.38 196.428,20.314C196.776,20.248 197.178,20.215 197.634,20.215C198.714,20.215 199.563,20.476 200.181,20.998C200.799,21.52 201.108,22.261 201.108,23.221L201.108,28.09C201.108,28.384 201.114,28.633 201.126,28.837L199.614,28.837L199.578,27.829Z" style="fill-rule:nonzero;"/>
        <path d="M203.864,21.817L202.352,21.817L202.352,20.467L203.864,20.467L203.864,17.731L205.484,17.731L205.484,20.467L207.932,20.467L207.932,21.817L205.484,21.817L205.484,25.939C205.484,26.611 205.589,27.073 205.799,27.325C206.009,27.577 206.306,27.703 206.69,27.703C207.002,27.703 207.26,27.655 207.464,27.559C207.668,27.463 207.872,27.319 208.076,27.127L208.814,28.117C208.466,28.453 208.109,28.696 207.743,28.846C207.377,28.996 206.942,29.071 206.438,29.071C205.55,29.071 204.899,28.831 204.485,28.351C204.071,27.871 203.864,27.121 203.864,26.101L203.864,21.817Z" style="fill-rule:nonzero;"/>
        <path d="M217.509,27.613C217.413,27.721 217.269,27.859 217.077,28.027C216.885,28.195 216.636,28.357 216.33,28.513C216.024,28.669 215.664,28.804 215.25,28.918C214.836,29.032 214.365,29.089 213.837,29.089C213.189,29.089 212.595,28.981 212.055,28.765C211.515,28.549 211.053,28.243 210.669,27.847C210.285,27.451 209.988,26.977 209.778,26.425C209.568,25.873 209.463,25.261 209.463,24.589C209.463,23.977 209.565,23.404 209.769,22.87C209.973,22.336 210.261,21.874 210.633,21.484C211.005,21.094 211.446,20.785 211.956,20.557C212.466,20.329 213.027,20.215 213.639,20.215C214.359,20.215 214.977,20.353 215.493,20.629C216.009,20.905 216.432,21.271 216.762,21.727C217.092,22.183 217.335,22.705 217.491,23.293C217.647,23.881 217.725,24.493 217.725,25.129L211.119,25.129C211.131,25.501 211.212,25.843 211.362,26.155C211.512,26.467 211.713,26.737 211.965,26.965C212.217,27.193 212.505,27.373 212.829,27.505C213.153,27.637 213.495,27.703 213.855,27.703C214.563,27.703 215.145,27.583 215.601,27.343C216.057,27.103 216.387,26.869 216.591,26.641L217.509,27.613ZM216.051,23.923C216.003,23.275 215.775,22.723 215.367,22.267C214.959,21.811 214.383,21.583 213.639,21.583C213.255,21.583 212.91,21.649 212.604,21.781C212.298,21.913 212.037,22.087 211.821,22.303C211.605,22.519 211.437,22.768 211.317,23.05C211.197,23.332 211.131,23.623 211.119,23.923L216.051,23.923Z" style="fill-rule:nonzero;"/>
        <path d="M219.887,26.731C220.187,27.031 220.547,27.271 220.967,27.451C221.387,27.631 221.873,27.721 222.425,27.721C222.965,27.721 223.415,27.634 223.775,27.46C224.135,27.286 224.315,27.013 224.315,26.641C224.315,26.449 224.276,26.284 224.198,26.146C224.12,26.008 223.988,25.885 223.802,25.777C223.616,25.669 223.37,25.57 223.064,25.48C222.758,25.39 222.377,25.291 221.921,25.183C221.597,25.111 221.276,25.015 220.958,24.895C220.64,24.775 220.355,24.616 220.103,24.418C219.851,24.22 219.647,23.98 219.491,23.698C219.335,23.416 219.257,23.077 219.257,22.681C219.257,22.273 219.35,21.916 219.536,21.61C219.722,21.304 219.971,21.046 220.283,20.836C220.595,20.626 220.946,20.467 221.336,20.359C221.726,20.251 222.131,20.197 222.551,20.197C223.259,20.197 223.868,20.29 224.378,20.476C224.888,20.662 225.335,20.923 225.719,21.259L224.837,22.375C224.585,22.147 224.27,21.955 223.892,21.799C223.514,21.643 223.073,21.565 222.569,21.565C222.053,21.565 221.639,21.649 221.327,21.817C221.015,21.985 220.859,22.261 220.859,22.645C220.859,23.005 221.066,23.272 221.48,23.446C221.894,23.62 222.437,23.785 223.109,23.941C223.505,24.037 223.874,24.148 224.216,24.274C224.558,24.4 224.858,24.562 225.116,24.76C225.374,24.958 225.578,25.201 225.728,25.489C225.878,25.777 225.953,26.125 225.953,26.533C225.953,26.953 225.857,27.322 225.665,27.64C225.473,27.958 225.215,28.225 224.891,28.441C224.567,28.657 224.195,28.819 223.775,28.927C223.355,29.035 222.917,29.089 222.461,29.089C220.877,29.089 219.689,28.663 218.897,27.811L219.887,26.731Z" style="fill-rule:nonzero;"/>
        <path d="M237.495,19.225C237.459,19.201 237.39,19.159 237.288,19.099C237.186,19.039 237.051,18.976 236.883,18.91C236.715,18.844 236.52,18.784 236.298,18.73C236.076,18.676 235.833,18.649 235.569,18.649C235.065,18.649 234.621,18.757 234.237,18.973C233.853,19.189 233.529,19.477 233.265,19.837C233.001,20.197 232.797,20.608 232.653,21.07C232.509,21.532 232.431,22.009 232.419,22.501C232.683,22.321 233.025,22.126 233.445,21.916C233.865,21.706 234.399,21.601 235.047,21.601C236.139,21.601 236.994,21.925 237.612,22.573C238.23,23.221 238.539,24.139 238.539,25.327C238.539,25.891 238.446,26.407 238.26,26.875C238.074,27.343 237.816,27.745 237.486,28.081C237.156,28.417 236.763,28.678 236.307,28.864C235.851,29.05 235.353,29.143 234.813,29.143C233.541,29.143 232.548,28.693 231.834,27.793C231.12,26.893 230.763,25.531 230.763,23.707C230.763,22.699 230.868,21.793 231.078,20.989C231.288,20.185 231.6,19.501 232.014,18.937C232.428,18.373 232.935,17.941 233.535,17.641C234.135,17.341 234.831,17.191 235.623,17.191C236.235,17.191 236.766,17.281 237.216,17.461C237.666,17.641 238.005,17.803 238.233,17.947L237.495,19.225ZM232.401,23.923C232.401,25.111 232.587,26.038 232.959,26.704C233.331,27.37 233.943,27.703 234.795,27.703C235.083,27.703 235.359,27.649 235.623,27.541C235.887,27.433 236.121,27.277 236.325,27.073C236.529,26.869 236.691,26.617 236.811,26.317C236.931,26.017 236.991,25.675 236.991,25.291C236.991,24.643 236.826,24.106 236.496,23.68C236.166,23.254 235.629,23.041 234.885,23.041C234.309,23.041 233.82,23.128 233.418,23.302C233.016,23.476 232.677,23.683 232.401,23.923Z" style="fill-rule:nonzero;"/>
        <path d="M240.142,25.093L245.29,17.479L246.928,17.479L246.928,25.075L248.152,25.075L248.152,26.479L246.928,26.479L246.928,28.837L245.362,28.837L245.362,26.479L240.142,26.479L240.142,25.093ZM245.362,25.075L245.362,19.657L241.744,25.075L245.362,25.075Z" style="fill-rule:nonzero;"/>
        <path d="M8.317,276.745L10.849,276.745C11.393,276.745 11.843,276.821 12.199,276.973C12.555,277.125 12.839,277.317 13.051,277.549C13.263,277.781 13.411,278.041 13.495,278.329C13.579,278.617 13.621,278.897 13.621,279.169C13.621,279.569 13.553,279.921 13.417,280.225C13.281,280.529 13.093,280.783 12.853,280.987C12.613,281.191 12.327,281.345 11.995,281.449C11.663,281.553 11.301,281.605 10.909,281.605L9.457,281.605L9.457,284.749L8.317,284.749L8.317,276.745ZM10.897,280.621C11.393,280.621 11.775,280.495 12.043,280.243C12.311,279.991 12.445,279.641 12.445,279.193C12.445,278.737 12.307,278.379 12.031,278.119C11.755,277.859 11.377,277.729 10.897,277.729L9.457,277.729L9.457,280.621L10.897,280.621Z" style="fill-rule:nonzero;"/>
        <path d="M14.665,276.745L15.733,276.745L15.733,279.997C15.805,279.901 15.893,279.797 15.997,279.685C16.101,279.573 16.229,279.469 16.381,279.373C16.533,279.277 16.709,279.197 16.909,279.133C17.109,279.069 17.337,279.037 17.593,279.037C18.321,279.037 18.861,279.249 19.213,279.673C19.565,280.097 19.741,280.673 19.741,281.401L19.741,284.749L18.661,284.749L18.661,281.485C18.661,280.965 18.549,280.583 18.325,280.339C18.101,280.095 17.785,279.973 17.377,279.973C17.065,279.973 16.805,280.037 16.597,280.165C16.389,280.293 16.223,280.459 16.099,280.663C15.975,280.867 15.885,281.099 15.829,281.359C15.773,281.619 15.745,281.885 15.745,282.157L15.745,284.749L14.665,284.749L14.665,276.745Z" style="fill-rule:nonzero;"/>
        <path d="M24.649,282.109C24.617,282.101 24.555,282.091 24.463,282.079C24.371,282.067 24.265,282.057 24.145,282.049C24.025,282.041 23.897,282.033 23.761,282.025C23.625,282.017 23.493,282.013 23.365,282.013C23.061,282.013 22.815,282.049 22.627,282.121C22.439,282.193 22.291,282.283 22.183,282.391C22.075,282.499 22.001,282.619 21.961,282.751C21.921,282.883 21.901,283.009 21.901,283.129C21.901,283.433 22.005,283.663 22.213,283.819C22.421,283.975 22.709,284.053 23.077,284.053C23.285,284.053 23.483,284.017 23.671,283.945C23.859,283.873 24.025,283.777 24.169,283.657C24.313,283.537 24.429,283.397 24.517,283.237C24.605,283.077 24.649,282.913 24.649,282.745L24.649,282.109ZM24.661,284.077C24.453,284.357 24.179,284.565 23.839,284.701C23.499,284.837 23.149,284.905 22.789,284.905C22.557,284.905 22.327,284.875 22.099,284.815C21.871,284.755 21.663,284.655 21.475,284.515C21.287,284.375 21.135,284.195 21.019,283.975C20.903,283.755 20.845,283.485 20.845,283.165C20.845,282.565 21.055,282.085 21.475,281.725C21.895,281.365 22.501,281.185 23.293,281.185C23.421,281.185 23.557,281.189 23.701,281.197C23.845,281.205 23.981,281.213 24.109,281.221C24.237,281.229 24.349,281.237 24.445,281.245C24.541,281.253 24.609,281.261 24.649,281.269L24.649,281.065C24.649,280.649 24.523,280.351 24.271,280.171C24.019,279.991 23.677,279.901 23.245,279.901C22.821,279.901 22.485,279.959 22.237,280.075C21.989,280.191 21.781,280.309 21.613,280.429L21.109,279.697C21.205,279.617 21.321,279.537 21.457,279.457C21.593,279.377 21.753,279.303 21.937,279.235C22.121,279.167 22.329,279.111 22.561,279.067C22.793,279.023 23.061,279.001 23.365,279.001C24.085,279.001 24.651,279.175 25.063,279.523C25.475,279.871 25.681,280.365 25.681,281.005L25.681,284.251C25.681,284.447 25.685,284.613 25.693,284.749L24.685,284.749L24.661,284.077Z" style="fill-rule:nonzero;"/>
        <path d="M27.493,283.345C27.693,283.545 27.933,283.705 28.213,283.825C28.493,283.945 28.817,284.005 29.185,284.005C29.545,284.005 29.845,283.947 30.085,283.831C30.325,283.715 30.445,283.533 30.445,283.285C30.445,283.157 30.419,283.047 30.367,282.955C30.315,282.863 30.227,282.781 30.103,282.709C29.979,282.637 29.815,282.571 29.611,282.511C29.407,282.451 29.153,282.385 28.849,282.313C28.633,282.265 28.419,282.201 28.207,282.121C27.995,282.041 27.805,281.935 27.637,281.803C27.469,281.671 27.333,281.511 27.229,281.323C27.125,281.135 27.073,280.909 27.073,280.645C27.073,280.373 27.135,280.135 27.259,279.931C27.383,279.727 27.549,279.555 27.757,279.415C27.965,279.275 28.199,279.169 28.459,279.097C28.719,279.025 28.989,278.989 29.269,278.989C29.741,278.989 30.147,279.051 30.487,279.175C30.827,279.299 31.125,279.473 31.381,279.697L30.793,280.441C30.625,280.289 30.415,280.161 30.163,280.057C29.911,279.953 29.617,279.901 29.281,279.901C28.937,279.901 28.661,279.957 28.453,280.069C28.245,280.181 28.141,280.365 28.141,280.621C28.141,280.861 28.279,281.039 28.555,281.155C28.831,281.271 29.193,281.381 29.641,281.485C29.905,281.549 30.151,281.623 30.379,281.707C30.607,281.791 30.807,281.899 30.979,282.031C31.151,282.163 31.287,282.325 31.387,282.517C31.487,282.709 31.537,282.941 31.537,283.213C31.537,283.493 31.473,283.739 31.345,283.951C31.217,284.163 31.045,284.341 30.829,284.485C30.613,284.629 30.365,284.737 30.085,284.809C29.805,284.881 29.513,284.917 29.209,284.917C28.153,284.917 27.361,284.633 26.833,284.065L27.493,283.345Z" style="fill-rule:nonzero;"/>
        <path d="M35.461,284.917C35.029,284.917 34.633,284.839 34.273,284.683C33.913,284.527 33.603,284.313 33.343,284.041C33.083,283.769 32.879,283.455 32.731,283.099C32.583,282.743 32.509,282.361 32.509,281.953C32.509,281.545 32.583,281.163 32.731,280.807C32.879,280.451 33.083,280.137 33.343,279.865C33.603,279.593 33.913,279.379 34.273,279.223C34.633,279.067 35.029,278.989 35.461,278.989C35.885,278.989 36.277,279.067 36.637,279.223C36.997,279.379 37.309,279.593 37.573,279.865C37.837,280.137 38.043,280.451 38.191,280.807C38.339,281.163 38.413,281.545 38.413,281.953C38.413,282.361 38.339,282.743 38.191,283.099C38.043,283.455 37.837,283.769 37.573,284.041C37.309,284.313 36.997,284.527 36.637,284.683C36.277,284.839 35.885,284.917 35.461,284.917ZM35.461,283.981C35.749,283.981 36.009,283.923 36.241,283.807C36.473,283.691 36.669,283.539 36.829,283.351C36.989,283.163 37.111,282.947 37.195,282.703C37.279,282.459 37.321,282.209 37.321,281.953C37.321,281.705 37.279,281.459 37.195,281.215C37.111,280.971 36.987,280.753 36.823,280.561C36.659,280.369 36.463,280.215 36.235,280.099C36.007,279.983 35.749,279.925 35.461,279.925C35.173,279.925 34.913,279.983 34.681,280.099C34.449,280.215 34.253,280.367 34.093,280.555C33.933,280.743 33.811,280.959 33.727,281.203C33.643,281.447 33.601,281.697 33.601,281.953C33.601,282.209 33.643,282.457 33.727,282.697C33.811,282.937 33.935,283.153 34.099,283.345C34.263,283.537 34.459,283.691 34.687,283.807C34.915,283.923 35.173,283.981 35.461,283.981Z" style="fill-rule:nonzero;"/>
        <path d="M39.613,284.749L39.613,279.703C39.613,279.531 39.609,279.353 39.601,279.169L40.633,279.169L40.669,280.069C40.733,279.973 40.817,279.867 40.921,279.751C41.025,279.635 41.151,279.529 41.299,279.433C41.447,279.337 41.619,279.255 41.815,279.187C42.011,279.119 42.237,279.085 42.493,279.085C42.613,279.085 42.723,279.093 42.823,279.109C42.923,279.125 43.017,279.149 43.105,279.181L42.865,280.189C42.721,280.133 42.537,280.105 42.313,280.105C42.081,280.105 41.867,280.149 41.671,280.237C41.475,280.325 41.305,280.447 41.161,280.603C41.017,280.759 40.903,280.941 40.819,281.149C40.735,281.357 40.693,281.577 40.693,281.809L40.693,284.749L39.613,284.749Z" style="fill-rule:nonzero;"/>
        <rect x="46.273" y="276.745" width="1.152" height="8.004" style="fill-rule:nonzero;"/>
        <path d="M49.057,284.749L49.057,279.739C49.057,279.559 49.053,279.369 49.045,279.169L50.077,279.169L50.113,280.009C50.185,279.913 50.273,279.807 50.377,279.691C50.481,279.575 50.609,279.469 50.761,279.373C50.913,279.277 51.091,279.197 51.295,279.133C51.499,279.069 51.729,279.037 51.985,279.037C52.713,279.037 53.253,279.249 53.605,279.673C53.957,280.097 54.133,280.673 54.133,281.401L54.133,284.749L53.053,284.749L53.053,281.485C53.053,280.965 52.941,280.583 52.717,280.339C52.493,280.095 52.177,279.973 51.769,279.973C51.457,279.973 51.197,280.037 50.989,280.165C50.781,280.293 50.615,280.459 50.491,280.663C50.367,280.867 50.277,281.099 50.221,281.359C50.165,281.619 50.137,281.885 50.137,282.157L50.137,284.749L49.057,284.749Z" style="fill-rule:nonzero;"/>
        <g id="XY-Controls" serif:id="XY Controls">
            <g id="X">
                <path d="M18.27,43.441L19.542,43.441L21.078,49.897L22.818,43.681L23.934,43.681L25.638,49.885L27.174,43.441L28.374,43.441L26.226,51.445L25.002,51.445L23.334,45.529L21.618,51.445L20.406,51.445L18.27,43.441Z" style="fill-rule:nonzero;"/>
                <path d="M29.238,43.657L30.45,43.657L30.45,44.869L29.238,44.869L29.238,43.657ZM29.31,45.865L30.39,45.865L30.39,51.445L29.31,51.445L29.31,45.865Z" style="fill-rule:nonzero;"/>
                <path d="M35.862,47.101C35.782,47.037 35.634,46.951 35.418,46.843C35.202,46.735 34.894,46.681 34.494,46.681C34.23,46.681 33.988,46.729 33.768,46.825C33.548,46.921 33.356,47.057 33.192,47.233C33.028,47.409 32.9,47.625 32.808,47.881C32.716,48.137 32.67,48.425 32.67,48.745C32.67,49.009 32.702,49.259 32.766,49.495C32.83,49.731 32.928,49.937 33.06,50.113C33.192,50.289 33.36,50.427 33.564,50.527C33.768,50.627 34.01,50.677 34.29,50.677C34.57,50.677 34.81,50.625 35.01,50.521C35.21,50.417 35.372,50.287 35.496,50.131C35.62,49.975 35.712,49.803 35.772,49.615C35.832,49.427 35.862,49.253 35.862,49.093L35.862,47.101ZM35.862,50.737C35.822,50.785 35.756,50.859 35.664,50.959C35.572,51.059 35.45,51.157 35.298,51.253C35.146,51.349 34.968,51.433 34.764,51.505C34.56,51.577 34.322,51.613 34.05,51.613C33.698,51.613 33.37,51.545 33.066,51.409C32.762,51.273 32.498,51.081 32.274,50.833C32.05,50.585 31.876,50.283 31.752,49.927C31.628,49.571 31.566,49.173 31.566,48.733C31.566,48.205 31.658,47.751 31.842,47.371C32.026,46.991 32.26,46.679 32.544,46.435C32.828,46.191 33.136,46.013 33.468,45.901C33.8,45.789 34.114,45.733 34.41,45.733C34.81,45.733 35.122,45.781 35.346,45.877C35.57,45.973 35.742,46.045 35.862,46.093L35.862,43.441L36.942,43.441L36.942,50.875C36.942,51.055 36.946,51.245 36.954,51.445L35.898,51.445L35.862,50.737Z" style="fill-rule:nonzero;"/>
                <path d="M38.838,46.765L37.83,46.765L37.83,45.865L38.838,45.865L38.838,44.041L39.918,44.041L39.918,45.865L41.55,45.865L41.55,46.765L39.918,46.765L39.918,49.513C39.918,49.961 39.988,50.269 40.128,50.437C40.268,50.605 40.466,50.689 40.722,50.689C40.93,50.689 41.102,50.657 41.238,50.593C41.374,50.529 41.51,50.433 41.646,50.305L42.138,50.965C41.906,51.189 41.668,51.351 41.424,51.451C41.18,51.551 40.89,51.601 40.554,51.601C39.962,51.601 39.528,51.441 39.252,51.121C38.976,50.801 38.838,50.301 38.838,49.621L38.838,46.765Z" style="fill-rule:nonzero;"/>
                <path d="M42.87,43.441L43.938,43.441L43.938,46.693C44.01,46.597 44.098,46.493 44.202,46.381C44.306,46.269 44.434,46.165 44.586,46.069C44.738,45.973 44.914,45.893 45.114,45.829C45.314,45.765 45.542,45.733 45.798,45.733C46.526,45.733 47.066,45.945 47.418,46.369C47.77,46.793 47.946,47.369 47.946,48.097L47.946,51.445L46.866,51.445L46.866,48.181C46.866,47.661 46.754,47.279 46.53,47.035C46.306,46.791 45.99,46.669 45.582,46.669C45.27,46.669 45.01,46.733 44.802,46.861C44.594,46.989 44.428,47.155 44.304,47.359C44.18,47.563 44.09,47.795 44.034,48.055C43.978,48.315 43.95,48.581 43.95,48.853L43.95,51.445L42.87,51.445L42.87,43.441Z" style="fill-rule:nonzero;"/>
                <path d="M33.36,70.2L33.36,181.877" style="fill:none;stroke:black;stroke-width:1px;stroke-dasharray:2,2,0,0;"/>
                <rect x="19.9" y="133.031" width="2.216" height="0.943" style="fill-rule:nonzero;"/>
                <path d="M46.708,134.358L46.708,133.255L45.292,133.255L45.292,131.839L44.189,131.839L44.189,133.255L42.773,133.255L42.773,134.358L44.189,134.358L44.189,135.774L45.292,135.774L45.292,134.358L46.708,134.358Z" style="fill-rule:nonzero;"/>
            </g>
            <g id="Y">
                <path d="M74.806,49.501C74.918,49.629 75.044,49.759 75.184,49.891C75.324,50.023 75.482,50.141 75.658,50.245C75.834,50.349 76.03,50.433 76.246,50.497C76.462,50.561 76.698,50.593 76.954,50.593C77.482,50.593 77.894,50.473 78.19,50.233C78.486,49.993 78.634,49.669 78.634,49.261C78.634,48.821 78.466,48.491 78.13,48.271C77.794,48.051 77.31,47.873 76.678,47.737C76.334,47.665 76.022,47.565 75.742,47.437C75.462,47.309 75.22,47.149 75.016,46.957C74.812,46.765 74.654,46.543 74.542,46.291C74.43,46.039 74.374,45.753 74.374,45.433C74.374,45.137 74.43,44.857 74.542,44.593C74.654,44.329 74.822,44.097 75.046,43.897C75.27,43.697 75.55,43.537 75.886,43.417C76.222,43.297 76.61,43.237 77.05,43.237C77.442,43.237 77.78,43.279 78.064,43.363C78.348,43.447 78.59,43.549 78.79,43.669C78.99,43.789 79.15,43.913 79.27,44.041C79.39,44.169 79.482,44.273 79.546,44.353L78.778,45.061C78.73,45.005 78.658,44.931 78.562,44.839C78.466,44.747 78.344,44.657 78.196,44.569C78.048,44.481 77.876,44.407 77.68,44.347C77.484,44.287 77.258,44.257 77.002,44.257C76.746,44.257 76.526,44.291 76.342,44.359C76.158,44.427 76.006,44.515 75.886,44.623C75.766,44.731 75.678,44.853 75.622,44.989C75.566,45.125 75.538,45.261 75.538,45.397C75.538,45.597 75.58,45.767 75.664,45.907C75.748,46.047 75.87,46.171 76.03,46.279C76.19,46.387 76.388,46.479 76.624,46.555C76.86,46.631 77.13,46.705 77.434,46.777C77.73,46.849 78.02,46.943 78.304,47.059C78.588,47.175 78.842,47.331 79.066,47.527C79.29,47.723 79.468,47.963 79.6,48.247C79.732,48.531 79.798,48.877 79.798,49.285C79.798,49.629 79.726,49.945 79.582,50.233C79.438,50.521 79.24,50.771 78.988,50.983C78.736,51.195 78.438,51.359 78.094,51.475C77.75,51.591 77.378,51.649 76.978,51.649C76.602,51.649 76.26,51.605 75.952,51.517C75.644,51.429 75.364,51.317 75.112,51.181C74.86,51.045 74.64,50.895 74.452,50.731C74.264,50.567 74.11,50.405 73.99,50.245L74.806,49.501Z" style="fill-rule:nonzero;"/>
                <path d="M81.25,46.765L80.242,46.765L80.242,45.865L81.25,45.865L81.25,44.041L82.33,44.041L82.33,45.865L83.962,45.865L83.962,46.765L82.33,46.765L82.33,49.513C82.33,49.961 82.4,50.269 82.54,50.437C82.68,50.605 82.878,50.689 83.134,50.689C83.342,50.689 83.514,50.657 83.65,50.593C83.786,50.529 83.922,50.433 84.058,50.305L84.55,50.965C84.318,51.189 84.08,51.351 83.836,51.451C83.592,51.551 83.302,51.601 82.966,51.601C82.374,51.601 81.94,51.441 81.664,51.121C81.388,50.801 81.25,50.301 81.25,49.621L81.25,46.765Z" style="fill-rule:nonzero;"/>
                <path d="M90.382,50.629C90.318,50.701 90.222,50.793 90.094,50.905C89.966,51.017 89.8,51.125 89.596,51.229C89.392,51.333 89.152,51.423 88.876,51.499C88.6,51.575 88.286,51.613 87.934,51.613C87.502,51.613 87.106,51.541 86.746,51.397C86.386,51.253 86.078,51.049 85.822,50.785C85.566,50.521 85.368,50.205 85.228,49.837C85.088,49.469 85.018,49.061 85.018,48.613C85.018,48.205 85.086,47.823 85.222,47.467C85.358,47.111 85.55,46.803 85.798,46.543C86.046,46.283 86.34,46.077 86.68,45.925C87.02,45.773 87.394,45.697 87.802,45.697C88.282,45.697 88.694,45.789 89.038,45.973C89.382,46.157 89.664,46.401 89.884,46.705C90.104,47.009 90.266,47.357 90.37,47.749C90.474,48.141 90.526,48.549 90.526,48.973L86.122,48.973C86.13,49.221 86.184,49.449 86.284,49.657C86.384,49.865 86.518,50.045 86.686,50.197C86.854,50.349 87.046,50.469 87.262,50.557C87.478,50.645 87.706,50.689 87.946,50.689C88.418,50.689 88.806,50.609 89.11,50.449C89.414,50.289 89.634,50.133 89.77,49.981L90.382,50.629ZM89.41,48.169C89.378,47.737 89.226,47.369 88.954,47.065C88.682,46.761 88.298,46.609 87.802,46.609C87.546,46.609 87.316,46.653 87.112,46.741C86.908,46.829 86.734,46.945 86.59,47.089C86.446,47.233 86.334,47.399 86.254,47.587C86.174,47.775 86.13,47.969 86.122,48.169L89.41,48.169Z" style="fill-rule:nonzero;"/>
                <path d="M91.642,53.845L91.642,46.435C91.642,46.255 91.638,46.065 91.63,45.865L92.662,45.865L92.698,46.657C92.754,46.585 92.834,46.497 92.938,46.393C93.042,46.289 93.172,46.189 93.328,46.093C93.484,45.997 93.666,45.915 93.874,45.847C94.082,45.779 94.322,45.745 94.594,45.745C95.026,45.745 95.4,45.825 95.716,45.985C96.032,46.145 96.294,46.361 96.502,46.633C96.71,46.905 96.864,47.217 96.964,47.569C97.064,47.921 97.114,48.293 97.114,48.685C97.114,49.189 97.028,49.625 96.856,49.993C96.684,50.361 96.46,50.665 96.184,50.905C95.908,51.145 95.6,51.323 95.26,51.439C94.92,51.555 94.586,51.613 94.258,51.613C93.882,51.613 93.58,51.575 93.352,51.499C93.124,51.423 92.91,51.341 92.71,51.253L92.71,53.845L91.642,53.845ZM92.71,50.233C92.838,50.337 93.022,50.437 93.262,50.533C93.502,50.629 93.802,50.677 94.162,50.677C94.434,50.677 94.684,50.627 94.912,50.527C95.14,50.427 95.336,50.287 95.5,50.107C95.664,49.927 95.79,49.717 95.878,49.477C95.966,49.237 96.01,48.973 96.01,48.685C96.01,48.413 95.98,48.157 95.92,47.917C95.86,47.677 95.764,47.465 95.632,47.281C95.5,47.097 95.33,46.951 95.122,46.843C94.914,46.735 94.658,46.681 94.354,46.681C93.97,46.681 93.642,46.787 93.37,46.999C93.098,47.211 92.906,47.521 92.794,47.929C92.754,48.057 92.73,48.195 92.722,48.343C92.714,48.491 92.71,48.645 92.71,48.805L92.71,50.233Z" style="fill-rule:nonzero;"/>
                <path d="M98.614,50.041C98.814,50.241 99.054,50.401 99.334,50.521C99.614,50.641 99.938,50.701 100.306,50.701C100.666,50.701 100.966,50.643 101.206,50.527C101.446,50.411 101.566,50.229 101.566,49.981C101.566,49.853 101.54,49.743 101.488,49.651C101.436,49.559 101.348,49.477 101.224,49.405C101.1,49.333 100.936,49.267 100.732,49.207C100.528,49.147 100.274,49.081 99.97,49.009C99.754,48.961 99.54,48.897 99.328,48.817C99.116,48.737 98.926,48.631 98.758,48.499C98.59,48.367 98.454,48.207 98.35,48.019C98.246,47.831 98.194,47.605 98.194,47.341C98.194,47.069 98.256,46.831 98.38,46.627C98.504,46.423 98.67,46.251 98.878,46.111C99.086,45.971 99.32,45.865 99.58,45.793C99.84,45.721 100.11,45.685 100.39,45.685C100.862,45.685 101.268,45.747 101.608,45.871C101.948,45.995 102.246,46.169 102.502,46.393L101.914,47.137C101.746,46.985 101.536,46.857 101.284,46.753C101.032,46.649 100.738,46.597 100.402,46.597C100.058,46.597 99.782,46.653 99.574,46.765C99.366,46.877 99.262,47.061 99.262,47.317C99.262,47.557 99.4,47.735 99.676,47.851C99.952,47.967 100.314,48.077 100.762,48.181C101.026,48.245 101.272,48.319 101.5,48.403C101.728,48.487 101.928,48.595 102.1,48.727C102.272,48.859 102.408,49.021 102.508,49.213C102.608,49.405 102.658,49.637 102.658,49.909C102.658,50.189 102.594,50.435 102.466,50.647C102.338,50.859 102.166,51.037 101.95,51.181C101.734,51.325 101.486,51.433 101.206,51.505C100.926,51.577 100.634,51.613 100.33,51.613C99.274,51.613 98.482,51.329 97.954,50.761L98.614,50.041Z" style="fill-rule:nonzero;"/>
                <path d="M88.36,70.2L88.36,181.877" style="fill:none;stroke:black;stroke-width:1px;stroke-dasharray:2,2,0,0;"/>
                <rect x="74.9" y="133.031" width="2.216" height="0.943" style="fill-rule:nonzero;"/>
                <path d="M101.708,134.358L101.708,133.255L100.292,133.255L100.292,131.839L99.189,131.839L99.189,133.255L97.773,133.255L97.773,134.358L99.189,134.358L99.189,135.774L100.292,135.774L100.292,134.358L101.708,134.358Z" style="fill-rule:nonzero;"/>
            </g>
        </g>
        <path d="M80.311,276.745L82.867,276.745C83.379,276.745 83.811,276.815 84.163,276.955C84.515,277.095 84.801,277.275 85.021,277.495C85.241,277.715 85.401,277.965 85.501,278.245C85.601,278.525 85.651,278.809 85.651,279.097C85.651,279.609 85.531,280.061 85.291,280.453C85.051,280.845 84.679,281.137 84.175,281.329L86.047,284.749L84.751,284.749L83.035,281.473L81.427,281.473L81.427,284.749L80.311,284.749L80.311,276.745ZM82.963,280.501C83.467,280.501 83.845,280.377 84.097,280.129C84.349,279.881 84.475,279.549 84.475,279.133C84.475,278.693 84.339,278.351 84.067,278.107C83.795,277.863 83.419,277.741 82.939,277.741L81.427,277.741L81.427,280.501L82.963,280.501Z" style="fill-rule:nonzero;"/>
        <path d="M87.163,279.169L88.243,279.169L88.243,282.445C88.243,282.973 88.351,283.355 88.567,283.591C88.783,283.827 89.095,283.945 89.503,283.945C89.815,283.945 90.073,283.881 90.277,283.753C90.481,283.625 90.647,283.459 90.775,283.255C90.903,283.051 90.993,282.819 91.045,282.559C91.097,282.299 91.123,282.033 91.123,281.761L91.123,279.169L92.203,279.169L92.203,284.179C92.203,284.359 92.207,284.549 92.215,284.749L91.183,284.749L91.147,283.921C91.075,284.017 90.987,284.121 90.883,284.233C90.779,284.345 90.651,284.447 90.499,284.539C90.347,284.631 90.171,284.709 89.971,284.773C89.771,284.837 89.543,284.869 89.287,284.869C88.559,284.869 88.023,284.659 87.679,284.239C87.335,283.819 87.163,283.245 87.163,282.517L87.163,279.169Z" style="fill-rule:nonzero;"/>
        <path d="M93.679,284.749L93.679,279.739C93.679,279.559 93.675,279.369 93.667,279.169L94.699,279.169L94.735,280.009C94.807,279.913 94.895,279.807 94.999,279.691C95.103,279.575 95.231,279.469 95.383,279.373C95.535,279.277 95.713,279.197 95.917,279.133C96.121,279.069 96.351,279.037 96.607,279.037C97.335,279.037 97.875,279.249 98.227,279.673C98.579,280.097 98.755,280.673 98.755,281.401L98.755,284.749L97.675,284.749L97.675,281.485C97.675,280.965 97.563,280.583 97.339,280.339C97.115,280.095 96.799,279.973 96.391,279.973C96.079,279.973 95.819,280.037 95.611,280.165C95.403,280.293 95.237,280.459 95.113,280.663C94.989,280.867 94.899,281.099 94.843,281.359C94.787,281.619 94.759,281.885 94.759,282.157L94.759,284.749L93.679,284.749Z" style="fill-rule:nonzero;"/>
        <g>
            <path d="M53.271,232.899L54.975,232.899C55.317,232.899 55.605,232.946 55.839,233.039C56.074,233.132 56.265,233.252 56.411,233.399C56.558,233.546 56.665,233.712 56.731,233.899C56.798,234.086 56.831,234.275 56.831,234.467C56.831,234.808 56.751,235.11 56.591,235.371C56.431,235.632 56.183,235.827 55.847,235.955L57.095,238.235L56.231,238.235L55.087,236.051L54.015,236.051L54.015,238.235L53.271,238.235L53.271,232.899ZM55.039,235.403C55.375,235.403 55.627,235.32 55.795,235.155C55.963,234.99 56.047,234.768 56.047,234.491C56.047,234.198 55.957,233.97 55.775,233.807C55.594,233.644 55.343,233.563 55.023,233.563L54.015,233.563L54.015,235.403L55.039,235.403Z" style="fill-rule:nonzero;"/>
            <path d="M60.299,236.475C60.278,236.47 60.237,236.463 60.175,236.455C60.114,236.447 60.043,236.44 59.963,236.435C59.883,236.43 59.798,236.424 59.707,236.419C59.617,236.414 59.529,236.411 59.443,236.411C59.241,236.411 59.077,236.435 58.951,236.483C58.826,236.531 58.727,236.591 58.655,236.663C58.583,236.735 58.534,236.815 58.507,236.903C58.481,236.991 58.467,237.075 58.467,237.155C58.467,237.358 58.537,237.511 58.675,237.615C58.814,237.719 59.006,237.771 59.251,237.771C59.39,237.771 59.522,237.747 59.647,237.699C59.773,237.651 59.883,237.587 59.979,237.507C60.075,237.427 60.153,237.334 60.211,237.227C60.27,237.12 60.299,237.011 60.299,236.899L60.299,236.475ZM60.307,237.787C60.169,237.974 59.986,238.112 59.759,238.203C59.533,238.294 59.299,238.339 59.059,238.339C58.905,238.339 58.751,238.319 58.599,238.279C58.447,238.239 58.309,238.172 58.183,238.079C58.058,237.986 57.957,237.866 57.879,237.719C57.802,237.572 57.763,237.392 57.763,237.179C57.763,236.779 57.903,236.459 58.183,236.219C58.463,235.979 58.867,235.859 59.395,235.859C59.481,235.859 59.571,235.862 59.667,235.867C59.763,235.872 59.854,235.878 59.939,235.883C60.025,235.888 60.099,235.894 60.163,235.899C60.227,235.904 60.273,235.91 60.299,235.915L60.299,235.779C60.299,235.502 60.215,235.303 60.047,235.183C59.879,235.063 59.651,235.003 59.363,235.003C59.081,235.003 58.857,235.042 58.691,235.119C58.526,235.196 58.387,235.275 58.275,235.355L57.939,234.867C58.003,234.814 58.081,234.76 58.171,234.707C58.262,234.654 58.369,234.604 58.491,234.559C58.614,234.514 58.753,234.476 58.907,234.447C59.062,234.418 59.241,234.403 59.443,234.403C59.923,234.403 60.301,234.519 60.575,234.751C60.85,234.983 60.987,235.312 60.987,235.739L60.987,237.903C60.987,238.034 60.99,238.144 60.995,238.235L60.323,238.235L60.307,237.787Z" style="fill-rule:nonzero;"/>
            <path d="M61.743,234.515L62.535,234.515L63.367,237.355L64.263,234.515L64.879,234.515L65.775,237.379L66.591,234.515L67.335,234.515L66.103,238.235L65.391,238.235L64.527,235.635L63.671,238.235L62.999,238.235L61.743,234.515Z" style="fill-rule:nonzero;"/>
            <path d="M49.731,201.713C49.806,201.798 49.89,201.885 49.983,201.973C50.077,202.061 50.182,202.139 50.299,202.209C50.417,202.278 50.547,202.334 50.691,202.377C50.835,202.419 50.993,202.441 51.163,202.441C51.515,202.441 51.79,202.361 51.987,202.201C52.185,202.041 52.283,201.825 52.283,201.553C52.283,201.259 52.171,201.039 51.947,200.893C51.723,200.746 51.401,200.627 50.979,200.537C50.75,200.489 50.542,200.422 50.355,200.337C50.169,200.251 50.007,200.145 49.871,200.017C49.735,199.889 49.63,199.741 49.555,199.573C49.481,199.405 49.443,199.214 49.443,199.001C49.443,198.803 49.481,198.617 49.555,198.441C49.63,198.265 49.742,198.11 49.891,197.977C50.041,197.843 50.227,197.737 50.451,197.657C50.675,197.577 50.934,197.537 51.227,197.537C51.489,197.537 51.714,197.565 51.903,197.621C52.093,197.677 52.254,197.745 52.387,197.825C52.521,197.905 52.627,197.987 52.707,198.073C52.787,198.158 52.849,198.227 52.891,198.281L52.379,198.753C52.347,198.715 52.299,198.666 52.235,198.605C52.171,198.543 52.09,198.483 51.991,198.425C51.893,198.366 51.778,198.317 51.647,198.277C51.517,198.237 51.366,198.217 51.195,198.217C51.025,198.217 50.878,198.239 50.755,198.285C50.633,198.33 50.531,198.389 50.451,198.461C50.371,198.533 50.313,198.614 50.275,198.705C50.238,198.795 50.219,198.886 50.219,198.977C50.219,199.11 50.247,199.223 50.303,199.317C50.359,199.41 50.441,199.493 50.547,199.565C50.654,199.637 50.786,199.698 50.943,199.749C51.101,199.799 51.281,199.849 51.483,199.897C51.681,199.945 51.874,200.007 52.063,200.085C52.253,200.162 52.422,200.266 52.571,200.397C52.721,200.527 52.839,200.687 52.927,200.877C53.015,201.066 53.059,201.297 53.059,201.569C53.059,201.798 53.011,202.009 52.915,202.201C52.819,202.393 52.687,202.559 52.519,202.701C52.351,202.842 52.153,202.951 51.923,203.029C51.694,203.106 51.446,203.145 51.179,203.145C50.929,203.145 50.701,203.115 50.495,203.057C50.29,202.998 50.103,202.923 49.935,202.833C49.767,202.742 49.621,202.642 49.495,202.533C49.37,202.423 49.267,202.315 49.187,202.209L49.731,201.713Z" style="fill-rule:nonzero;"/>
            <path d="M54.143,203.009L54.143,199.669C54.143,199.549 54.141,199.422 54.135,199.289L54.823,199.289L54.847,199.849C54.89,199.785 54.946,199.714 55.015,199.637C55.085,199.559 55.167,199.489 55.263,199.425C55.359,199.361 55.473,199.307 55.603,199.265C55.734,199.222 55.885,199.201 56.055,199.201C56.343,199.201 56.582,199.258 56.771,199.373C56.961,199.487 57.109,199.654 57.215,199.873C57.365,199.697 57.547,199.541 57.763,199.405C57.979,199.269 58.247,199.201 58.567,199.201C59.047,199.201 59.402,199.343 59.631,199.629C59.861,199.914 59.975,200.297 59.975,200.777L59.975,203.009L59.255,203.009L59.255,200.833C59.255,200.486 59.187,200.231 59.051,200.069C58.915,199.906 58.717,199.825 58.455,199.825C58.306,199.825 58.169,199.855 58.043,199.917C57.918,199.978 57.809,200.059 57.715,200.161C57.622,200.262 57.55,200.381 57.499,200.517C57.449,200.653 57.423,200.795 57.423,200.945L57.423,203.009L56.703,203.009L56.703,200.833C56.703,200.486 56.635,200.231 56.499,200.069C56.363,199.906 56.167,199.825 55.911,199.825C55.714,199.825 55.549,199.867 55.415,199.953C55.282,200.038 55.174,200.149 55.091,200.285C55.009,200.421 54.95,200.577 54.915,200.753C54.881,200.929 54.863,201.105 54.863,201.281L54.863,203.009L54.143,203.009Z" style="fill-rule:nonzero;"/>
            <path d="M63.523,201.249C63.502,201.243 63.461,201.237 63.399,201.229C63.338,201.221 63.267,201.214 63.187,201.209C63.107,201.203 63.022,201.198 62.931,201.193C62.841,201.187 62.753,201.185 62.667,201.185C62.465,201.185 62.301,201.209 62.175,201.257C62.05,201.305 61.951,201.365 61.879,201.437C61.807,201.509 61.758,201.589 61.731,201.677C61.705,201.765 61.691,201.849 61.691,201.929C61.691,202.131 61.761,202.285 61.899,202.389C62.038,202.493 62.23,202.545 62.475,202.545C62.614,202.545 62.746,202.521 62.871,202.473C62.997,202.425 63.107,202.361 63.203,202.281C63.299,202.201 63.377,202.107 63.435,202.001C63.494,201.894 63.523,201.785 63.523,201.673L63.523,201.249ZM63.531,202.561C63.393,202.747 63.21,202.886 62.983,202.977C62.757,203.067 62.523,203.113 62.283,203.113C62.129,203.113 61.975,203.093 61.823,203.053C61.671,203.013 61.533,202.946 61.407,202.853C61.282,202.759 61.181,202.639 61.103,202.493C61.026,202.346 60.987,202.166 60.987,201.953C60.987,201.553 61.127,201.233 61.407,200.993C61.687,200.753 62.091,200.633 62.619,200.633C62.705,200.633 62.795,200.635 62.891,200.641C62.987,200.646 63.078,200.651 63.163,200.657C63.249,200.662 63.323,200.667 63.387,200.673C63.451,200.678 63.497,200.683 63.523,200.689L63.523,200.553C63.523,200.275 63.439,200.077 63.271,199.957C63.103,199.837 62.875,199.777 62.587,199.777C62.305,199.777 62.081,199.815 61.915,199.893C61.75,199.97 61.611,200.049 61.499,200.129L61.163,199.641C61.227,199.587 61.305,199.534 61.395,199.481C61.486,199.427 61.593,199.378 61.715,199.333C61.838,199.287 61.977,199.25 62.131,199.221C62.286,199.191 62.465,199.177 62.667,199.177C63.147,199.177 63.525,199.293 63.799,199.525C64.074,199.757 64.211,200.086 64.211,200.513L64.211,202.677C64.211,202.807 64.214,202.918 64.219,203.009L63.547,203.009L63.531,202.561Z" style="fill-rule:nonzero;"/>
            <path d="M65.455,203.009L65.455,199.645C65.455,199.53 65.453,199.411 65.447,199.289L66.135,199.289L66.159,199.889C66.202,199.825 66.258,199.754 66.327,199.677C66.397,199.599 66.481,199.529 66.579,199.465C66.678,199.401 66.793,199.346 66.923,199.301C67.054,199.255 67.205,199.233 67.375,199.233C67.455,199.233 67.529,199.238 67.595,199.249C67.662,199.259 67.725,199.275 67.783,199.297L67.623,199.969C67.527,199.931 67.405,199.913 67.255,199.913C67.101,199.913 66.958,199.942 66.827,200.001C66.697,200.059 66.583,200.141 66.487,200.245C66.391,200.349 66.315,200.47 66.259,200.609C66.203,200.747 66.175,200.894 66.175,201.049L66.175,203.009L65.455,203.009Z" style="fill-rule:nonzero;"/>
            <path d="M68.947,199.889L68.275,199.889L68.275,199.289L68.947,199.289L68.947,198.073L69.667,198.073L69.667,199.289L70.755,199.289L70.755,199.889L69.667,199.889L69.667,201.721C69.667,202.019 69.714,202.225 69.807,202.337C69.901,202.449 70.033,202.505 70.203,202.505C70.342,202.505 70.457,202.483 70.547,202.441C70.638,202.398 70.729,202.334 70.819,202.249L71.147,202.689C70.993,202.838 70.834,202.946 70.671,203.013C70.509,203.079 70.315,203.113 70.091,203.113C69.697,203.113 69.407,203.006 69.223,202.793C69.039,202.579 68.947,202.246 68.947,201.793L68.947,199.889Z" style="fill-rule:nonzero;"/>
            <g transform="matrix(1,0,0,1,-16.9183,18.9185)">
                <g transform="matrix(8,0,0,8,47.9766,197.497)">
                    <path d="M0.417,-0.339L0.651,-0.339L0.651,-0.073C0.638,-0.062 0.624,-0.051 0.608,-0.04C0.591,-0.029 0.572,-0.02 0.551,-0.012C0.529,-0.003 0.505,0.003 0.478,0.008C0.451,0.013 0.421,0.016 0.388,0.016C0.336,0.016 0.289,0.007 0.248,-0.011C0.206,-0.028 0.17,-0.053 0.141,-0.084C0.111,-0.115 0.088,-0.151 0.073,-0.194C0.057,-0.236 0.049,-0.282 0.049,-0.332C0.049,-0.381 0.057,-0.426 0.074,-0.469C0.09,-0.512 0.113,-0.549 0.142,-0.581C0.171,-0.612 0.206,-0.637 0.248,-0.656C0.289,-0.674 0.334,-0.683 0.384,-0.683C0.419,-0.683 0.451,-0.679 0.479,-0.671C0.507,-0.662 0.532,-0.652 0.553,-0.639C0.574,-0.625 0.591,-0.611 0.606,-0.596C0.621,-0.581 0.633,-0.566 0.643,-0.552L0.575,-0.494C0.567,-0.505 0.557,-0.517 0.546,-0.53C0.535,-0.542 0.521,-0.553 0.506,-0.563C0.491,-0.573 0.473,-0.581 0.454,-0.588C0.434,-0.595 0.411,-0.598 0.386,-0.598C0.349,-0.598 0.316,-0.591 0.287,-0.577C0.258,-0.563 0.233,-0.544 0.213,-0.52C0.192,-0.496 0.177,-0.468 0.166,-0.436C0.155,-0.403 0.149,-0.369 0.149,-0.333C0.149,-0.294 0.155,-0.259 0.167,-0.227C0.179,-0.195 0.196,-0.168 0.218,-0.145C0.239,-0.122 0.265,-0.103 0.294,-0.091C0.323,-0.078 0.356,-0.071 0.391,-0.071C0.43,-0.071 0.463,-0.075 0.49,-0.084C0.517,-0.093 0.54,-0.105 0.559,-0.12L0.559,-0.256L0.417,-0.256L0.417,-0.339Z" style="fill-rule:nonzero;"/>
                </g>
                <g transform="matrix(8,0,0,8,53.7566,197.497)">
                    <path d="M0.352,-0.22C0.349,-0.221 0.344,-0.222 0.337,-0.223C0.329,-0.224 0.32,-0.224 0.31,-0.225C0.3,-0.226 0.289,-0.226 0.278,-0.227C0.267,-0.228 0.256,-0.228 0.245,-0.228C0.22,-0.228 0.199,-0.225 0.184,-0.219C0.168,-0.213 0.156,-0.205 0.147,-0.197C0.138,-0.188 0.131,-0.178 0.128,-0.167C0.125,-0.156 0.123,-0.145 0.123,-0.135C0.123,-0.11 0.132,-0.091 0.149,-0.078C0.166,-0.065 0.19,-0.058 0.221,-0.058C0.238,-0.058 0.255,-0.061 0.271,-0.067C0.286,-0.073 0.3,-0.081 0.312,-0.091C0.324,-0.101 0.334,-0.113 0.341,-0.126C0.348,-0.139 0.352,-0.153 0.352,-0.167L0.352,-0.22ZM0.353,-0.056C0.336,-0.033 0.313,-0.015 0.284,-0.004C0.256,0.007 0.227,0.013 0.197,0.013C0.178,0.013 0.159,0.01 0.14,0.005C0.121,0 0.103,-0.008 0.087,-0.02C0.072,-0.031 0.059,-0.046 0.05,-0.065C0.04,-0.083 0.035,-0.105 0.035,-0.132C0.035,-0.182 0.053,-0.222 0.087,-0.252C0.123,-0.282 0.173,-0.297 0.239,-0.297C0.25,-0.297 0.261,-0.297 0.273,-0.296C0.285,-0.295 0.296,-0.295 0.307,-0.294C0.318,-0.293 0.327,-0.293 0.335,-0.292C0.343,-0.291 0.349,-0.291 0.352,-0.29L0.352,-0.307C0.352,-0.342 0.342,-0.367 0.321,-0.382C0.3,-0.397 0.271,-0.404 0.235,-0.404C0.2,-0.404 0.172,-0.399 0.151,-0.39C0.13,-0.38 0.113,-0.37 0.099,-0.36L0.057,-0.421C0.065,-0.428 0.075,-0.434 0.086,-0.441C0.097,-0.448 0.111,-0.454 0.126,-0.46C0.141,-0.465 0.159,-0.47 0.178,-0.473C0.197,-0.477 0.22,-0.479 0.245,-0.479C0.305,-0.479 0.352,-0.465 0.387,-0.436C0.421,-0.406 0.438,-0.365 0.438,-0.312L0.438,-0.042C0.438,-0.025 0.438,-0.011 0.439,-0L0.355,-0L0.353,-0.056Z" style="fill-rule:nonzero;"/>
                </g>
                <g transform="matrix(8,0,0,8,57.7606,197.497)">
                    <path d="M0.102,-0.39L0.018,-0.39L0.018,-0.465L0.102,-0.465L0.102,-0.617L0.192,-0.617L0.192,-0.465L0.328,-0.465L0.328,-0.39L0.192,-0.39L0.192,-0.161C0.192,-0.124 0.198,-0.098 0.21,-0.084C0.221,-0.07 0.238,-0.063 0.259,-0.063C0.276,-0.063 0.291,-0.066 0.302,-0.071C0.313,-0.076 0.325,-0.084 0.336,-0.095L0.377,-0.04C0.358,-0.021 0.338,-0.008 0.318,0C0.297,0.009 0.273,0.013 0.245,0.013C0.196,0.013 0.16,-0 0.137,-0.027C0.114,-0.054 0.102,-0.095 0.102,-0.152L0.102,-0.39Z" style="fill-rule:nonzero;"/>
                </g>
                <g transform="matrix(8,0,0,8,60.8446,197.497)">
                    <path d="M0.486,-0.068C0.481,-0.062 0.473,-0.054 0.462,-0.045C0.451,-0.036 0.438,-0.027 0.421,-0.018C0.404,-0.009 0.384,-0.002 0.361,0.004C0.338,0.011 0.311,0.014 0.282,0.014C0.246,0.014 0.213,0.008 0.183,-0.004C0.153,-0.016 0.127,-0.033 0.106,-0.055C0.085,-0.077 0.068,-0.103 0.057,-0.134C0.045,-0.165 0.039,-0.199 0.039,-0.236C0.039,-0.27 0.045,-0.302 0.056,-0.332C0.067,-0.361 0.083,-0.387 0.104,-0.408C0.125,-0.43 0.149,-0.447 0.178,-0.46C0.206,-0.473 0.237,-0.479 0.271,-0.479C0.311,-0.479 0.345,-0.471 0.374,-0.456C0.403,-0.441 0.426,-0.42 0.445,-0.395C0.463,-0.37 0.476,-0.341 0.485,-0.308C0.494,-0.275 0.498,-0.241 0.498,-0.206L0.131,-0.206C0.132,-0.185 0.136,-0.166 0.145,-0.149C0.153,-0.132 0.164,-0.117 0.178,-0.104C0.192,-0.091 0.208,-0.081 0.226,-0.074C0.244,-0.067 0.263,-0.063 0.283,-0.063C0.322,-0.063 0.355,-0.07 0.38,-0.083C0.405,-0.096 0.424,-0.109 0.435,-0.122L0.486,-0.068ZM0.405,-0.273C0.402,-0.309 0.39,-0.34 0.367,-0.365C0.344,-0.39 0.312,-0.403 0.271,-0.403C0.25,-0.403 0.231,-0.399 0.214,-0.392C0.197,-0.385 0.182,-0.375 0.17,-0.363C0.158,-0.351 0.149,-0.337 0.142,-0.322C0.135,-0.306 0.132,-0.29 0.131,-0.273L0.405,-0.273Z" style="fill-rule:nonzero;"/>
                </g>
                <g transform="matrix(8,0,0,8,39.5606,207.247)">
                    <path d="M0.389,0.017C0.341,0.017 0.296,0.008 0.255,-0.011C0.214,-0.029 0.178,-0.054 0.147,-0.086C0.116,-0.117 0.092,-0.154 0.075,-0.197C0.058,-0.24 0.049,-0.285 0.049,-0.334C0.049,-0.383 0.058,-0.428 0.075,-0.47C0.092,-0.513 0.116,-0.55 0.147,-0.582C0.177,-0.613 0.213,-0.638 0.255,-0.657C0.296,-0.675 0.341,-0.684 0.389,-0.684C0.437,-0.684 0.482,-0.675 0.524,-0.657C0.565,-0.638 0.601,-0.613 0.632,-0.582C0.663,-0.55 0.687,-0.513 0.704,-0.47C0.721,-0.428 0.73,-0.383 0.73,-0.334C0.73,-0.285 0.721,-0.24 0.704,-0.197C0.687,-0.154 0.663,-0.117 0.632,-0.086C0.601,-0.054 0.565,-0.029 0.524,-0.011C0.482,0.008 0.437,0.017 0.389,0.017ZM0.389,-0.073C0.426,-0.073 0.459,-0.08 0.489,-0.094C0.518,-0.108 0.544,-0.127 0.565,-0.151C0.586,-0.175 0.602,-0.203 0.613,-0.234C0.624,-0.266 0.63,-0.3 0.63,-0.335C0.63,-0.371 0.624,-0.405 0.613,-0.437C0.602,-0.468 0.586,-0.496 0.565,-0.52C0.544,-0.544 0.518,-0.563 0.489,-0.577C0.459,-0.59 0.426,-0.597 0.389,-0.597C0.352,-0.597 0.319,-0.59 0.29,-0.577C0.261,-0.563 0.235,-0.544 0.215,-0.52C0.194,-0.496 0.177,-0.468 0.166,-0.437C0.155,-0.405 0.149,-0.371 0.149,-0.335C0.149,-0.3 0.155,-0.266 0.166,-0.234C0.177,-0.203 0.194,-0.175 0.215,-0.151C0.235,-0.127 0.261,-0.108 0.29,-0.094C0.319,-0.08 0.352,-0.073 0.389,-0.073Z" style="fill-rule:nonzero;"/>
                </g>
                <g transform="matrix(8,0,0,8,45.8046,207.247)">
                    <path d="M0.059,-0.465L0.149,-0.465L0.149,-0.192C0.149,-0.148 0.158,-0.116 0.176,-0.097C0.194,-0.077 0.22,-0.067 0.254,-0.067C0.28,-0.067 0.302,-0.072 0.319,-0.083C0.336,-0.094 0.349,-0.108 0.36,-0.125C0.371,-0.141 0.378,-0.161 0.383,-0.183C0.387,-0.204 0.389,-0.226 0.389,-0.249L0.389,-0.465L0.479,-0.465L0.479,-0.048C0.479,-0.033 0.479,-0.017 0.48,-0L0.394,-0L0.391,-0.069C0.385,-0.061 0.378,-0.052 0.369,-0.043C0.36,-0.034 0.35,-0.025 0.337,-0.018C0.324,-0.01 0.31,-0.003 0.293,0.002C0.276,0.007 0.257,0.01 0.236,0.01C0.175,0.01 0.131,-0.008 0.102,-0.043C0.073,-0.078 0.059,-0.125 0.059,-0.186L0.059,-0.465Z" style="fill-rule:nonzero;"/>
                </g>
                <g transform="matrix(8,0,0,8,50.1526,207.247)">
                    <path d="M0.102,-0.39L0.018,-0.39L0.018,-0.465L0.102,-0.465L0.102,-0.617L0.192,-0.617L0.192,-0.465L0.328,-0.465L0.328,-0.39L0.192,-0.39L0.192,-0.161C0.192,-0.124 0.198,-0.098 0.21,-0.084C0.221,-0.07 0.238,-0.063 0.259,-0.063C0.276,-0.063 0.291,-0.066 0.302,-0.071C0.313,-0.076 0.325,-0.084 0.336,-0.095L0.377,-0.04C0.358,-0.021 0.338,-0.008 0.318,0C0.297,0.009 0.273,0.013 0.245,0.013C0.196,0.013 0.16,-0 0.137,-0.027C0.114,-0.054 0.102,-0.095 0.102,-0.152L0.102,-0.39Z" style="fill-rule:nonzero;"/>
                </g>
                <g transform="matrix(8,0,0,8,53.2366,207.247)">
                    <path d="M0.062,0.2L0.062,-0.418C0.062,-0.433 0.062,-0.448 0.061,-0.465L0.147,-0.465L0.15,-0.399C0.155,-0.405 0.161,-0.412 0.17,-0.421C0.179,-0.43 0.19,-0.438 0.203,-0.446C0.216,-0.454 0.231,-0.461 0.248,-0.467C0.265,-0.472 0.285,-0.475 0.308,-0.475C0.344,-0.475 0.375,-0.468 0.402,-0.455C0.428,-0.442 0.45,-0.424 0.467,-0.401C0.484,-0.378 0.497,-0.352 0.505,-0.323C0.514,-0.294 0.518,-0.263 0.518,-0.23C0.518,-0.188 0.511,-0.152 0.497,-0.121C0.482,-0.09 0.464,-0.065 0.441,-0.045C0.418,-0.025 0.392,-0.01 0.364,-0.001C0.335,0.009 0.307,0.014 0.28,0.014C0.249,0.014 0.224,0.011 0.204,0.004C0.186,-0.002 0.168,-0.009 0.151,-0.016L0.151,0.2L0.062,0.2ZM0.151,-0.101C0.162,-0.092 0.177,-0.084 0.197,-0.076C0.217,-0.068 0.242,-0.064 0.272,-0.064C0.295,-0.064 0.316,-0.068 0.335,-0.077C0.354,-0.085 0.37,-0.097 0.384,-0.112C0.397,-0.127 0.408,-0.144 0.415,-0.164C0.422,-0.184 0.426,-0.206 0.426,-0.23C0.426,-0.253 0.424,-0.274 0.419,-0.294C0.413,-0.314 0.406,-0.332 0.395,-0.347C0.384,-0.362 0.369,-0.375 0.352,-0.384C0.335,-0.393 0.313,-0.397 0.288,-0.397C0.256,-0.397 0.229,-0.388 0.206,-0.371C0.183,-0.353 0.167,-0.327 0.158,-0.293C0.155,-0.282 0.153,-0.271 0.152,-0.259C0.151,-0.246 0.151,-0.233 0.151,-0.22L0.151,-0.101Z" style="fill-rule:nonzero;"/>
                </g>
                <g transform="matrix(8,0,0,8,57.7126,207.247)">
                    <path d="M0.059,-0.465L0.149,-0.465L0.149,-0.192C0.149,-0.148 0.158,-0.116 0.176,-0.097C0.194,-0.077 0.22,-0.067 0.254,-0.067C0.28,-0.067 0.302,-0.072 0.319,-0.083C0.336,-0.094 0.349,-0.108 0.36,-0.125C0.371,-0.141 0.378,-0.161 0.383,-0.183C0.387,-0.204 0.389,-0.226 0.389,-0.249L0.389,-0.465L0.479,-0.465L0.479,-0.048C0.479,-0.033 0.479,-0.017 0.48,-0L0.394,-0L0.391,-0.069C0.385,-0.061 0.378,-0.052 0.369,-0.043C0.36,-0.034 0.35,-0.025 0.337,-0.018C0.324,-0.01 0.31,-0.003 0.293,0.002C0.276,0.007 0.257,0.01 0.236,0.01C0.175,0.01 0.131,-0.008 0.102,-0.043C0.073,-0.078 0.059,-0.125 0.059,-0.186L0.059,-0.465Z" style="fill-rule:nonzero;"/>
                </g>
                <g transform="matrix(8,0,0,8,62.0606,207.247)">
                    <path d="M0.102,-0.39L0.018,-0.39L0.018,-0.465L0.102,-0.465L0.102,-0.617L0.192,-0.617L0.192,-0.465L0.328,-0.465L0.328,-0.39L0.192,-0.39L0.192,-0.161C0.192,-0.124 0.198,-0.098 0.21,-0.084C0.221,-0.07 0.238,-0.063 0.259,-0.063C0.276,-0.063 0.291,-0.066 0.302,-0.071C0.313,-0.076 0.325,-0.084 0.336,-0.095L0.377,-0.04C0.358,-0.021 0.338,-0.008 0.318,0C0.297,0.009 0.273,0.013 0.245,0.013C0.196,0.013 0.16,-0 0.137,-0.027C0.114,-0.054 0.102,-0.095 0.102,-0.152L0.102,-0.39Z" style="fill-rule:nonzero;"/>
                </g>
            </g>
        </g>
        <g id="Out">
            <path d="M293.854,301.853C293.854,298.542 291.165,295.853 287.854,295.853L72.146,295.853C68.835,295.853 66.146,298.542 66.146,301.853L66.146,349.853C66.146,353.165 68.835,355.853 72.146,355.853L287.854,355.853C291.165,355.853 293.854,353.165 293.854,349.853L293.854,301.853Z"/>
            <path d="M80.919,343.964L83.727,343.964L83.727,347.156C83.575,347.292 83.401,347.424 83.205,347.552C83.009,347.68 82.781,347.794 82.521,347.894C82.261,347.994 81.971,348.074 81.651,348.134C81.331,348.194 80.971,348.224 80.571,348.224C79.947,348.224 79.385,348.118 78.885,347.906C78.385,347.694 77.957,347.402 77.601,347.03C77.245,346.658 76.973,346.218 76.785,345.71C76.597,345.202 76.503,344.648 76.503,344.048C76.503,343.464 76.601,342.916 76.797,342.404C76.993,341.892 77.267,341.446 77.619,341.066C77.971,340.686 78.393,340.386 78.885,340.166C79.377,339.946 79.923,339.836 80.523,339.836C80.947,339.836 81.327,339.886 81.663,339.986C81.999,340.086 82.293,340.214 82.545,340.37C82.797,340.526 83.011,340.696 83.187,340.88C83.363,341.064 83.511,341.24 83.631,341.408L82.815,342.104C82.719,341.968 82.603,341.826 82.467,341.678C82.331,341.53 82.171,341.396 81.987,341.276C81.803,341.156 81.593,341.056 81.357,340.976C81.121,340.896 80.851,340.856 80.547,340.856C80.107,340.856 79.711,340.94 79.359,341.108C79.007,341.276 78.709,341.504 78.465,341.792C78.221,342.08 78.033,342.418 77.901,342.806C77.769,343.194 77.703,343.604 77.703,344.036C77.703,344.5 77.775,344.924 77.919,345.308C78.063,345.692 78.265,346.022 78.525,346.298C78.785,346.574 79.091,346.79 79.443,346.946C79.795,347.102 80.183,347.18 80.607,347.18C81.071,347.18 81.465,347.128 81.789,347.024C82.113,346.92 82.391,346.776 82.623,346.592L82.623,344.96L80.919,344.96L80.919,343.964Z" style="fill:white;fill-rule:nonzero;"/>
            <path d="M88.767,345.392C88.735,345.384 88.673,345.374 88.581,345.362C88.489,345.35 88.383,345.34 88.263,345.332C88.143,345.324 88.015,345.316 87.879,345.308C87.743,345.3 87.611,345.296 87.483,345.296C87.179,345.296 86.933,345.332 86.745,345.404C86.557,345.476 86.409,345.566 86.301,345.674C86.193,345.782 86.119,345.902 86.079,346.034C86.039,346.166 86.019,346.292 86.019,346.412C86.019,346.716 86.123,346.946 86.331,347.102C86.539,347.258 86.827,347.336 87.195,347.336C87.403,347.336 87.601,347.3 87.789,347.228C87.977,347.156 88.143,347.06 88.287,346.94C88.431,346.82 88.547,346.68 88.635,346.52C88.723,346.36 88.767,346.196 88.767,346.028L88.767,345.392ZM88.779,347.36C88.571,347.64 88.297,347.848 87.957,347.984C87.617,348.12 87.267,348.188 86.907,348.188C86.675,348.188 86.445,348.158 86.217,348.098C85.989,348.038 85.781,347.938 85.593,347.798C85.405,347.658 85.253,347.478 85.137,347.258C85.021,347.038 84.963,346.768 84.963,346.448C84.963,345.848 85.173,345.368 85.593,345.008C86.013,344.648 86.619,344.468 87.411,344.468C87.539,344.468 87.675,344.472 87.819,344.48C87.963,344.488 88.099,344.496 88.227,344.504C88.355,344.512 88.467,344.52 88.563,344.528C88.659,344.536 88.727,344.544 88.767,344.552L88.767,344.348C88.767,343.932 88.641,343.634 88.389,343.454C88.137,343.274 87.795,343.184 87.363,343.184C86.939,343.184 86.603,343.242 86.355,343.358C86.107,343.474 85.899,343.592 85.731,343.712L85.227,342.98C85.323,342.9 85.439,342.82 85.575,342.74C85.711,342.66 85.871,342.586 86.055,342.518C86.239,342.45 86.447,342.394 86.679,342.35C86.911,342.306 87.179,342.284 87.483,342.284C88.203,342.284 88.769,342.458 89.181,342.806C89.593,343.154 89.799,343.648 89.799,344.288L89.799,347.534C89.799,347.73 89.803,347.896 89.811,348.032L88.803,348.032L88.779,347.36Z" style="fill:white;fill-rule:nonzero;"/>
            <path d="M91.731,343.352L90.723,343.352L90.723,342.452L91.731,342.452L91.731,340.628L92.811,340.628L92.811,342.452L94.443,342.452L94.443,343.352L92.811,343.352L92.811,346.1C92.811,346.548 92.881,346.856 93.021,347.024C93.161,347.192 93.359,347.276 93.615,347.276C93.823,347.276 93.995,347.244 94.131,347.18C94.267,347.116 94.403,347.02 94.539,346.892L95.031,347.552C94.799,347.776 94.561,347.938 94.317,348.038C94.073,348.138 93.783,348.188 93.447,348.188C92.855,348.188 92.421,348.028 92.145,347.708C91.869,347.388 91.731,346.888 91.731,346.208L91.731,343.352Z" style="fill:white;fill-rule:nonzero;"/>
            <path d="M100.923,347.216C100.859,347.288 100.763,347.38 100.635,347.492C100.507,347.604 100.341,347.712 100.137,347.816C99.933,347.92 99.693,348.01 99.417,348.086C99.141,348.162 98.827,348.2 98.475,348.2C98.043,348.2 97.647,348.128 97.287,347.984C96.927,347.84 96.619,347.636 96.363,347.372C96.107,347.108 95.909,346.792 95.769,346.424C95.629,346.056 95.559,345.648 95.559,345.2C95.559,344.792 95.627,344.41 95.763,344.054C95.899,343.698 96.091,343.39 96.339,343.13C96.587,342.87 96.881,342.664 97.221,342.512C97.561,342.36 97.935,342.284 98.343,342.284C98.823,342.284 99.235,342.376 99.579,342.56C99.923,342.744 100.205,342.988 100.425,343.292C100.645,343.596 100.807,343.944 100.911,344.336C101.015,344.728 101.067,345.136 101.067,345.56L96.663,345.56C96.671,345.808 96.725,346.036 96.825,346.244C96.925,346.452 97.059,346.632 97.227,346.784C97.395,346.936 97.587,347.056 97.803,347.144C98.019,347.232 98.247,347.276 98.487,347.276C98.959,347.276 99.347,347.196 99.651,347.036C99.955,346.876 100.175,346.72 100.311,346.568L100.923,347.216ZM99.951,344.756C99.919,344.324 99.767,343.956 99.495,343.652C99.223,343.348 98.839,343.196 98.343,343.196C98.087,343.196 97.857,343.24 97.653,343.328C97.449,343.416 97.275,343.532 97.131,343.676C96.987,343.82 96.875,343.986 96.795,344.174C96.715,344.362 96.671,344.556 96.663,344.756L99.951,344.756Z" style="fill:white;fill-rule:nonzero;"/>
            <path d="M102.603,346.628C102.803,346.828 103.043,346.988 103.323,347.108C103.603,347.228 103.927,347.288 104.295,347.288C104.655,347.288 104.955,347.23 105.195,347.114C105.435,346.998 105.555,346.816 105.555,346.568C105.555,346.44 105.529,346.33 105.477,346.238C105.425,346.146 105.337,346.064 105.213,345.992C105.089,345.92 104.925,345.854 104.721,345.794C104.517,345.734 104.263,345.668 103.959,345.596C103.743,345.548 103.529,345.484 103.317,345.404C103.105,345.324 102.915,345.218 102.747,345.086C102.579,344.954 102.443,344.794 102.339,344.606C102.235,344.418 102.183,344.192 102.183,343.928C102.183,343.656 102.245,343.418 102.369,343.214C102.493,343.01 102.659,342.838 102.867,342.698C103.075,342.558 103.309,342.452 103.569,342.38C103.829,342.308 104.099,342.272 104.379,342.272C104.851,342.272 105.257,342.334 105.597,342.458C105.937,342.582 106.235,342.756 106.491,342.98L105.903,343.724C105.735,343.572 105.525,343.444 105.273,343.34C105.021,343.236 104.727,343.184 104.391,343.184C104.047,343.184 103.771,343.24 103.563,343.352C103.355,343.464 103.251,343.648 103.251,343.904C103.251,344.144 103.389,344.322 103.665,344.438C103.941,344.554 104.303,344.664 104.751,344.768C105.015,344.832 105.261,344.906 105.489,344.99C105.717,345.074 105.917,345.182 106.089,345.314C106.261,345.446 106.397,345.608 106.497,345.8C106.597,345.992 106.647,346.224 106.647,346.496C106.647,346.776 106.583,347.022 106.455,347.234C106.327,347.446 106.155,347.624 105.939,347.768C105.723,347.912 105.475,348.02 105.195,348.092C104.915,348.164 104.623,348.2 104.319,348.2C103.263,348.2 102.471,347.916 101.943,347.348L102.603,346.628Z" style="fill:white;fill-rule:nonzero;"/>
            <path d="M140.534,341.036L137.666,341.036L137.666,340.028L144.542,340.028L144.542,341.036L141.686,341.036L141.686,348.032L140.534,348.032L140.534,341.036Z" style="fill:white;fill-rule:nonzero;"/>
            <path d="M143.87,348.032L143.87,342.986C143.87,342.814 143.866,342.636 143.858,342.452L144.89,342.452L144.926,343.352C144.99,343.256 145.074,343.15 145.178,343.034C145.282,342.918 145.408,342.812 145.556,342.716C145.704,342.62 145.876,342.538 146.072,342.47C146.268,342.402 146.494,342.368 146.75,342.368C146.87,342.368 146.98,342.376 147.08,342.392C147.18,342.408 147.274,342.432 147.362,342.464L147.122,343.472C146.978,343.416 146.794,343.388 146.57,343.388C146.338,343.388 146.124,343.432 145.928,343.52C145.732,343.608 145.562,343.73 145.418,343.886C145.274,344.042 145.16,344.224 145.076,344.432C144.992,344.64 144.95,344.86 144.95,345.092L144.95,348.032L143.87,348.032Z" style="fill:white;fill-rule:nonzero;"/>
            <path d="M148.19,340.244L149.402,340.244L149.402,341.456L148.19,341.456L148.19,340.244ZM148.262,342.452L149.342,342.452L149.342,348.032L148.262,348.032L148.262,342.452Z" style="fill:white;fill-rule:nonzero;"/>
            <path d="M154.862,343.436C154.79,343.412 154.668,343.378 154.496,343.334C154.324,343.29 154.066,343.268 153.722,343.268C153.418,343.268 153.142,343.318 152.894,343.418C152.646,343.518 152.432,343.658 152.252,343.838C152.072,344.018 151.932,344.232 151.832,344.48C151.732,344.728 151.682,345 151.682,345.296C151.682,345.552 151.712,345.792 151.772,346.016C151.832,346.24 151.928,346.436 152.06,346.604C152.192,346.772 152.358,346.904 152.558,347C152.758,347.096 153.002,347.144 153.29,347.144C153.554,347.144 153.786,347.104 153.986,347.024C154.186,346.944 154.35,346.838 154.478,346.706C154.606,346.574 154.702,346.426 154.766,346.262C154.83,346.098 154.862,345.928 154.862,345.752L154.862,343.436ZM151.598,349.172C151.782,349.3 152.008,349.41 152.276,349.502C152.544,349.594 152.87,349.64 153.254,349.64C153.79,349.64 154.19,349.492 154.454,349.196C154.718,348.9 154.85,348.512 154.85,348.032L154.85,347.348C154.794,347.396 154.72,347.462 154.628,347.546C154.536,347.63 154.42,347.71 154.28,347.786C154.14,347.862 153.974,347.93 153.782,347.99C153.59,348.05 153.37,348.08 153.122,348.08C152.714,348.08 152.352,348.01 152.036,347.87C151.72,347.73 151.454,347.538 151.238,347.294C151.022,347.05 150.858,346.758 150.746,346.418C150.634,346.078 150.578,345.708 150.578,345.308C150.578,344.876 150.654,344.478 150.806,344.114C150.958,343.75 151.172,343.434 151.448,343.166C151.724,342.898 152.054,342.69 152.438,342.542C152.822,342.394 153.25,342.32 153.722,342.32C154.178,342.32 154.602,342.36 154.994,342.44C155.386,342.52 155.702,342.608 155.942,342.704L155.942,348.032C155.942,348.84 155.708,349.466 155.24,349.91C154.772,350.354 154.114,350.576 153.266,350.576C152.698,350.576 152.246,350.514 151.91,350.39C151.574,350.266 151.302,350.124 151.094,349.964L151.598,349.172Z" style="fill:white;fill-rule:nonzero;"/>
            <path d="M157.754,346.628C157.954,346.828 158.194,346.988 158.474,347.108C158.754,347.228 159.078,347.288 159.446,347.288C159.806,347.288 160.106,347.23 160.346,347.114C160.586,346.998 160.706,346.816 160.706,346.568C160.706,346.44 160.68,346.33 160.628,346.238C160.576,346.146 160.488,346.064 160.364,345.992C160.24,345.92 160.076,345.854 159.872,345.794C159.668,345.734 159.414,345.668 159.11,345.596C158.894,345.548 158.68,345.484 158.468,345.404C158.256,345.324 158.066,345.218 157.898,345.086C157.73,344.954 157.594,344.794 157.49,344.606C157.386,344.418 157.334,344.192 157.334,343.928C157.334,343.656 157.396,343.418 157.52,343.214C157.644,343.01 157.81,342.838 158.018,342.698C158.226,342.558 158.46,342.452 158.72,342.38C158.98,342.308 159.25,342.272 159.53,342.272C160.002,342.272 160.408,342.334 160.748,342.458C161.088,342.582 161.386,342.756 161.642,342.98L161.054,343.724C160.886,343.572 160.676,343.444 160.424,343.34C160.172,343.236 159.878,343.184 159.542,343.184C159.198,343.184 158.922,343.24 158.714,343.352C158.506,343.464 158.402,343.648 158.402,343.904C158.402,344.144 158.54,344.322 158.816,344.438C159.092,344.554 159.454,344.664 159.902,344.768C160.166,344.832 160.412,344.906 160.64,344.99C160.868,345.074 161.068,345.182 161.24,345.314C161.412,345.446 161.548,345.608 161.648,345.8C161.748,345.992 161.798,346.224 161.798,346.496C161.798,346.776 161.734,347.022 161.606,347.234C161.478,347.446 161.306,347.624 161.09,347.768C160.874,347.912 160.626,348.02 160.346,348.092C160.066,348.164 159.774,348.2 159.47,348.2C158.414,348.2 157.622,347.916 157.094,347.348L157.754,346.628Z" style="fill:white;fill-rule:nonzero;"/>
            <path d="M189.421,340.028L191.953,340.028C192.497,340.028 192.947,340.104 193.303,340.256C193.659,340.408 193.943,340.6 194.155,340.832C194.367,341.064 194.515,341.324 194.599,341.612C194.683,341.9 194.725,342.18 194.725,342.452C194.725,342.852 194.657,343.204 194.521,343.508C194.385,343.812 194.197,344.066 193.957,344.27C193.717,344.474 193.431,344.628 193.099,344.732C192.767,344.836 192.405,344.888 192.013,344.888L190.561,344.888L190.561,348.032L189.421,348.032L189.421,340.028ZM192.001,343.904C192.497,343.904 192.879,343.778 193.147,343.526C193.415,343.274 193.549,342.924 193.549,342.476C193.549,342.02 193.411,341.662 193.135,341.402C192.859,341.142 192.481,341.012 192.001,341.012L190.561,341.012L190.561,343.904L192.001,343.904Z" style="fill:white;fill-rule:nonzero;"/>
            <path d="M195.769,340.028L196.837,340.028L196.837,343.28C196.909,343.184 196.997,343.08 197.101,342.968C197.205,342.856 197.333,342.752 197.485,342.656C197.637,342.56 197.813,342.48 198.013,342.416C198.213,342.352 198.441,342.32 198.697,342.32C199.425,342.32 199.965,342.532 200.317,342.956C200.669,343.38 200.845,343.956 200.845,344.684L200.845,348.032L199.765,348.032L199.765,344.768C199.765,344.248 199.653,343.866 199.429,343.622C199.205,343.378 198.889,343.256 198.481,343.256C198.169,343.256 197.909,343.32 197.701,343.448C197.493,343.576 197.327,343.742 197.203,343.946C197.079,344.15 196.989,344.382 196.933,344.642C196.877,344.902 196.849,345.168 196.849,345.44L196.849,348.032L195.769,348.032L195.769,340.028Z" style="fill:white;fill-rule:nonzero;"/>
            <path d="M205.753,345.392C205.721,345.384 205.659,345.374 205.567,345.362C205.475,345.35 205.369,345.34 205.249,345.332C205.129,345.324 205.001,345.316 204.865,345.308C204.729,345.3 204.597,345.296 204.469,345.296C204.165,345.296 203.919,345.332 203.731,345.404C203.543,345.476 203.395,345.566 203.287,345.674C203.179,345.782 203.105,345.902 203.065,346.034C203.025,346.166 203.005,346.292 203.005,346.412C203.005,346.716 203.109,346.946 203.317,347.102C203.525,347.258 203.813,347.336 204.181,347.336C204.389,347.336 204.587,347.3 204.775,347.228C204.963,347.156 205.129,347.06 205.273,346.94C205.417,346.82 205.533,346.68 205.621,346.52C205.709,346.36 205.753,346.196 205.753,346.028L205.753,345.392ZM205.765,347.36C205.557,347.64 205.283,347.848 204.943,347.984C204.603,348.12 204.253,348.188 203.893,348.188C203.661,348.188 203.431,348.158 203.203,348.098C202.975,348.038 202.767,347.938 202.579,347.798C202.391,347.658 202.239,347.478 202.123,347.258C202.007,347.038 201.949,346.768 201.949,346.448C201.949,345.848 202.159,345.368 202.579,345.008C202.999,344.648 203.605,344.468 204.397,344.468C204.525,344.468 204.661,344.472 204.805,344.48C204.949,344.488 205.085,344.496 205.213,344.504C205.341,344.512 205.453,344.52 205.549,344.528C205.645,344.536 205.713,344.544 205.753,344.552L205.753,344.348C205.753,343.932 205.627,343.634 205.375,343.454C205.123,343.274 204.781,343.184 204.349,343.184C203.925,343.184 203.589,343.242 203.341,343.358C203.093,343.474 202.885,343.592 202.717,343.712L202.213,342.98C202.309,342.9 202.425,342.82 202.561,342.74C202.697,342.66 202.857,342.586 203.041,342.518C203.225,342.45 203.433,342.394 203.665,342.35C203.897,342.306 204.165,342.284 204.469,342.284C205.189,342.284 205.755,342.458 206.167,342.806C206.579,343.154 206.785,343.648 206.785,344.288L206.785,347.534C206.785,347.73 206.789,347.896 206.797,348.032L205.789,348.032L205.765,347.36Z" style="fill:white;fill-rule:nonzero;"/>
            <path d="M208.597,346.628C208.797,346.828 209.037,346.988 209.317,347.108C209.597,347.228 209.921,347.288 210.289,347.288C210.649,347.288 210.949,347.23 211.189,347.114C211.429,346.998 211.549,346.816 211.549,346.568C211.549,346.44 211.523,346.33 211.471,346.238C211.419,346.146 211.331,346.064 211.207,345.992C211.083,345.92 210.919,345.854 210.715,345.794C210.511,345.734 210.257,345.668 209.953,345.596C209.737,345.548 209.523,345.484 209.311,345.404C209.099,345.324 208.909,345.218 208.741,345.086C208.573,344.954 208.437,344.794 208.333,344.606C208.229,344.418 208.177,344.192 208.177,343.928C208.177,343.656 208.239,343.418 208.363,343.214C208.487,343.01 208.653,342.838 208.861,342.698C209.069,342.558 209.303,342.452 209.563,342.38C209.823,342.308 210.093,342.272 210.373,342.272C210.845,342.272 211.251,342.334 211.591,342.458C211.931,342.582 212.229,342.756 212.485,342.98L211.897,343.724C211.729,343.572 211.519,343.444 211.267,343.34C211.015,343.236 210.721,343.184 210.385,343.184C210.041,343.184 209.765,343.24 209.557,343.352C209.349,343.464 209.245,343.648 209.245,343.904C209.245,344.144 209.383,344.322 209.659,344.438C209.935,344.554 210.297,344.664 210.745,344.768C211.009,344.832 211.255,344.906 211.483,344.99C211.711,345.074 211.911,345.182 212.083,345.314C212.255,345.446 212.391,345.608 212.491,345.8C212.591,345.992 212.641,346.224 212.641,346.496C212.641,346.776 212.577,347.022 212.449,347.234C212.321,347.446 212.149,347.624 211.933,347.768C211.717,347.912 211.469,348.02 211.189,348.092C210.909,348.164 210.617,348.2 210.313,348.2C209.257,348.2 208.465,347.916 207.937,347.348L208.597,346.628Z" style="fill:white;fill-rule:nonzero;"/>
            <path d="M216.565,348.2C216.133,348.2 215.737,348.122 215.377,347.966C215.017,347.81 214.707,347.596 214.447,347.324C214.187,347.052 213.983,346.738 213.835,346.382C213.687,346.026 213.613,345.644 213.613,345.236C213.613,344.828 213.687,344.446 213.835,344.09C213.983,343.734 214.187,343.42 214.447,343.148C214.707,342.876 215.017,342.662 215.377,342.506C215.737,342.35 216.133,342.272 216.565,342.272C216.989,342.272 217.381,342.35 217.741,342.506C218.101,342.662 218.413,342.876 218.677,343.148C218.941,343.42 219.147,343.734 219.295,344.09C219.443,344.446 219.517,344.828 219.517,345.236C219.517,345.644 219.443,346.026 219.295,346.382C219.147,346.738 218.941,347.052 218.677,347.324C218.413,347.596 218.101,347.81 217.741,347.966C217.381,348.122 216.989,348.2 216.565,348.2ZM216.565,347.264C216.853,347.264 217.113,347.206 217.345,347.09C217.577,346.974 217.773,346.822 217.933,346.634C218.093,346.446 218.215,346.23 218.299,345.986C218.383,345.742 218.425,345.492 218.425,345.236C218.425,344.988 218.383,344.742 218.299,344.498C218.215,344.254 218.091,344.036 217.927,343.844C217.763,343.652 217.567,343.498 217.339,343.382C217.111,343.266 216.853,343.208 216.565,343.208C216.277,343.208 216.017,343.266 215.785,343.382C215.553,343.498 215.357,343.65 215.197,343.838C215.037,344.026 214.915,344.242 214.831,344.486C214.747,344.73 214.705,344.98 214.705,345.236C214.705,345.492 214.747,345.74 214.831,345.98C214.915,346.22 215.039,346.436 215.203,346.628C215.367,346.82 215.563,346.974 215.791,347.09C216.019,347.206 216.277,347.264 216.565,347.264Z" style="fill:white;fill-rule:nonzero;"/>
            <path d="M220.717,348.032L220.717,342.986C220.717,342.814 220.713,342.636 220.705,342.452L221.737,342.452L221.773,343.352C221.837,343.256 221.921,343.15 222.025,343.034C222.129,342.918 222.255,342.812 222.403,342.716C222.551,342.62 222.723,342.538 222.919,342.47C223.115,342.402 223.341,342.368 223.597,342.368C223.717,342.368 223.827,342.376 223.927,342.392C224.027,342.408 224.121,342.432 224.209,342.464L223.969,343.472C223.825,343.416 223.641,343.388 223.417,343.388C223.185,343.388 222.971,343.432 222.775,343.52C222.579,343.608 222.409,343.73 222.265,343.886C222.121,344.042 222.007,344.224 221.923,344.432C221.839,344.64 221.797,344.86 221.797,345.092L221.797,348.032L220.717,348.032Z" style="fill:white;fill-rule:nonzero;"/>
            <path d="M225.121,346.628C225.321,346.828 225.561,346.988 225.841,347.108C226.121,347.228 226.445,347.288 226.813,347.288C227.173,347.288 227.473,347.23 227.713,347.114C227.953,346.998 228.073,346.816 228.073,346.568C228.073,346.44 228.047,346.33 227.995,346.238C227.943,346.146 227.855,346.064 227.731,345.992C227.607,345.92 227.443,345.854 227.239,345.794C227.035,345.734 226.781,345.668 226.477,345.596C226.261,345.548 226.047,345.484 225.835,345.404C225.623,345.324 225.433,345.218 225.265,345.086C225.097,344.954 224.961,344.794 224.857,344.606C224.753,344.418 224.701,344.192 224.701,343.928C224.701,343.656 224.763,343.418 224.887,343.214C225.011,343.01 225.177,342.838 225.385,342.698C225.593,342.558 225.827,342.452 226.087,342.38C226.347,342.308 226.617,342.272 226.897,342.272C227.369,342.272 227.775,342.334 228.115,342.458C228.455,342.582 228.753,342.756 229.009,342.98L228.421,343.724C228.253,343.572 228.043,343.444 227.791,343.34C227.539,343.236 227.245,343.184 226.909,343.184C226.565,343.184 226.289,343.24 226.081,343.352C225.873,343.464 225.769,343.648 225.769,343.904C225.769,344.144 225.907,344.322 226.183,344.438C226.459,344.554 226.821,344.664 227.269,344.768C227.533,344.832 227.779,344.906 228.007,344.99C228.235,345.074 228.435,345.182 228.607,345.314C228.779,345.446 228.915,345.608 229.015,345.8C229.115,345.992 229.165,346.224 229.165,346.496C229.165,346.776 229.101,347.022 228.973,347.234C228.845,347.446 228.673,347.624 228.457,347.768C228.241,347.912 227.993,348.02 227.713,348.092C227.433,348.164 227.141,348.2 226.837,348.2C225.781,348.2 224.989,347.916 224.461,347.348L225.121,346.628Z" style="fill:white;fill-rule:nonzero;"/>
            <path d="M248.917,340.028L250.117,340.028L250.093,345.728L248.953,345.728L248.917,340.028ZM248.845,346.724L250.189,346.724L250.189,348.032L248.845,348.032L248.845,346.724Z" style="fill:white;fill-rule:nonzero;"/>
            <path d="M256.057,343.964L258.865,343.964L258.865,347.156C258.713,347.292 258.539,347.424 258.343,347.552C258.147,347.68 257.919,347.794 257.659,347.894C257.399,347.994 257.109,348.074 256.789,348.134C256.469,348.194 256.109,348.224 255.709,348.224C255.085,348.224 254.523,348.118 254.023,347.906C253.523,347.694 253.095,347.402 252.739,347.03C252.383,346.658 252.111,346.218 251.923,345.71C251.735,345.202 251.641,344.648 251.641,344.048C251.641,343.464 251.739,342.916 251.935,342.404C252.131,341.892 252.405,341.446 252.757,341.066C253.109,340.686 253.531,340.386 254.023,340.166C254.515,339.946 255.061,339.836 255.661,339.836C256.085,339.836 256.465,339.886 256.801,339.986C257.137,340.086 257.431,340.214 257.683,340.37C257.935,340.526 258.149,340.696 258.325,340.88C258.501,341.064 258.649,341.24 258.769,341.408L257.953,342.104C257.857,341.968 257.741,341.826 257.605,341.678C257.469,341.53 257.309,341.396 257.125,341.276C256.941,341.156 256.731,341.056 256.495,340.976C256.259,340.896 255.989,340.856 255.685,340.856C255.245,340.856 254.849,340.94 254.497,341.108C254.145,341.276 253.847,341.504 253.603,341.792C253.359,342.08 253.171,342.418 253.039,342.806C252.907,343.194 252.841,343.604 252.841,344.036C252.841,344.5 252.913,344.924 253.057,345.308C253.201,345.692 253.403,346.022 253.663,346.298C253.923,346.574 254.229,346.79 254.581,346.946C254.933,347.102 255.321,347.18 255.745,347.18C256.209,347.18 256.603,347.128 256.927,347.024C257.251,346.92 257.529,346.776 257.761,346.592L257.761,344.96L256.057,344.96L256.057,343.964Z" style="fill:white;fill-rule:nonzero;"/>
            <path d="M263.905,345.392C263.873,345.384 263.811,345.374 263.719,345.362C263.627,345.35 263.521,345.34 263.401,345.332C263.281,345.324 263.153,345.316 263.017,345.308C262.881,345.3 262.749,345.296 262.621,345.296C262.317,345.296 262.071,345.332 261.883,345.404C261.695,345.476 261.547,345.566 261.439,345.674C261.331,345.782 261.257,345.902 261.217,346.034C261.177,346.166 261.157,346.292 261.157,346.412C261.157,346.716 261.261,346.946 261.469,347.102C261.677,347.258 261.965,347.336 262.333,347.336C262.541,347.336 262.739,347.3 262.927,347.228C263.115,347.156 263.281,347.06 263.425,346.94C263.569,346.82 263.685,346.68 263.773,346.52C263.861,346.36 263.905,346.196 263.905,346.028L263.905,345.392ZM263.917,347.36C263.709,347.64 263.435,347.848 263.095,347.984C262.755,348.12 262.405,348.188 262.045,348.188C261.813,348.188 261.583,348.158 261.355,348.098C261.127,348.038 260.919,347.938 260.731,347.798C260.543,347.658 260.391,347.478 260.275,347.258C260.159,347.038 260.101,346.768 260.101,346.448C260.101,345.848 260.311,345.368 260.731,345.008C261.151,344.648 261.757,344.468 262.549,344.468C262.677,344.468 262.813,344.472 262.957,344.48C263.101,344.488 263.237,344.496 263.365,344.504C263.493,344.512 263.605,344.52 263.701,344.528C263.797,344.536 263.865,344.544 263.905,344.552L263.905,344.348C263.905,343.932 263.779,343.634 263.527,343.454C263.275,343.274 262.933,343.184 262.501,343.184C262.077,343.184 261.741,343.242 261.493,343.358C261.245,343.474 261.037,343.592 260.869,343.712L260.365,342.98C260.461,342.9 260.577,342.82 260.713,342.74C260.849,342.66 261.009,342.586 261.193,342.518C261.377,342.45 261.585,342.394 261.817,342.35C262.049,342.306 262.317,342.284 262.621,342.284C263.341,342.284 263.907,342.458 264.319,342.806C264.731,343.154 264.937,343.648 264.937,344.288L264.937,347.534C264.937,347.73 264.941,347.896 264.949,348.032L263.941,348.032L263.917,347.36Z" style="fill:white;fill-rule:nonzero;"/>
            <path d="M266.869,343.352L265.861,343.352L265.861,342.452L266.869,342.452L266.869,340.628L267.949,340.628L267.949,342.452L269.581,342.452L269.581,343.352L267.949,343.352L267.949,346.1C267.949,346.548 268.019,346.856 268.159,347.024C268.299,347.192 268.497,347.276 268.753,347.276C268.961,347.276 269.133,347.244 269.269,347.18C269.405,347.116 269.541,347.02 269.677,346.892L270.169,347.552C269.937,347.776 269.699,347.938 269.455,348.038C269.211,348.138 268.921,348.188 268.585,348.188C267.993,348.188 267.559,348.028 267.283,347.708C267.007,347.388 266.869,346.888 266.869,346.208L266.869,343.352Z" style="fill:white;fill-rule:nonzero;"/>
            <path d="M276.061,347.216C275.997,347.288 275.901,347.38 275.773,347.492C275.645,347.604 275.479,347.712 275.275,347.816C275.071,347.92 274.831,348.01 274.555,348.086C274.279,348.162 273.965,348.2 273.613,348.2C273.181,348.2 272.785,348.128 272.425,347.984C272.065,347.84 271.757,347.636 271.501,347.372C271.245,347.108 271.047,346.792 270.907,346.424C270.767,346.056 270.697,345.648 270.697,345.2C270.697,344.792 270.765,344.41 270.901,344.054C271.037,343.698 271.229,343.39 271.477,343.13C271.725,342.87 272.019,342.664 272.359,342.512C272.699,342.36 273.073,342.284 273.481,342.284C273.961,342.284 274.373,342.376 274.717,342.56C275.061,342.744 275.343,342.988 275.563,343.292C275.783,343.596 275.945,343.944 276.049,344.336C276.153,344.728 276.205,345.136 276.205,345.56L271.801,345.56C271.809,345.808 271.863,346.036 271.963,346.244C272.063,346.452 272.197,346.632 272.365,346.784C272.533,346.936 272.725,347.056 272.941,347.144C273.157,347.232 273.385,347.276 273.625,347.276C274.097,347.276 274.485,347.196 274.789,347.036C275.093,346.876 275.313,346.72 275.449,346.568L276.061,347.216ZM275.089,344.756C275.057,344.324 274.905,343.956 274.633,343.652C274.361,343.348 273.977,343.196 273.481,343.196C273.225,343.196 272.995,343.24 272.791,343.328C272.587,343.416 272.413,343.532 272.269,343.676C272.125,343.82 272.013,343.986 271.933,344.174C271.853,344.362 271.809,344.556 271.801,344.756L275.089,344.756Z" style="fill:white;fill-rule:nonzero;"/>
            <path d="M277.741,346.628C277.941,346.828 278.181,346.988 278.461,347.108C278.741,347.228 279.065,347.288 279.433,347.288C279.793,347.288 280.093,347.23 280.333,347.114C280.573,346.998 280.693,346.816 280.693,346.568C280.693,346.44 280.667,346.33 280.615,346.238C280.563,346.146 280.475,346.064 280.351,345.992C280.227,345.92 280.063,345.854 279.859,345.794C279.655,345.734 279.401,345.668 279.097,345.596C278.881,345.548 278.667,345.484 278.455,345.404C278.243,345.324 278.053,345.218 277.885,345.086C277.717,344.954 277.581,344.794 277.477,344.606C277.373,344.418 277.321,344.192 277.321,343.928C277.321,343.656 277.383,343.418 277.507,343.214C277.631,343.01 277.797,342.838 278.005,342.698C278.213,342.558 278.447,342.452 278.707,342.38C278.967,342.308 279.237,342.272 279.517,342.272C279.989,342.272 280.395,342.334 280.735,342.458C281.075,342.582 281.373,342.756 281.629,342.98L281.041,343.724C280.873,343.572 280.663,343.444 280.411,343.34C280.159,343.236 279.865,343.184 279.529,343.184C279.185,343.184 278.909,343.24 278.701,343.352C278.493,343.464 278.389,343.648 278.389,343.904C278.389,344.144 278.527,344.322 278.803,344.438C279.079,344.554 279.441,344.664 279.889,344.768C280.153,344.832 280.399,344.906 280.627,344.99C280.855,345.074 281.055,345.182 281.227,345.314C281.399,345.446 281.535,345.608 281.635,345.8C281.735,345.992 281.785,346.224 281.785,346.496C281.785,346.776 281.721,347.022 281.593,347.234C281.465,347.446 281.293,347.624 281.077,347.768C280.861,347.912 280.613,348.02 280.333,348.092C280.053,348.164 279.761,348.2 279.457,348.2C278.401,348.2 277.609,347.916 277.081,347.348L277.741,346.628Z" style="fill:white;fill-rule:nonzero;"/>
        </g>
    </g>
</svg>
