<?xml version="1.0" encoding="UTF-8" standalone="no"?>
<!DOCTYPE svg PUBLIC "-//W3C//DTD SVG 1.1//EN" "http://www.w3.org/Graphics/SVG/1.1/DTD/svg11.dtd">
<svg width="100%" height="100%" viewBox="0 0 120 380" version="1.1" xmlns="http://www.w3.org/2000/svg" xmlns:xlink="http://www.w3.org/1999/xlink" xml:space="preserve" xmlns:serif="http://www.serif.com/" style="fill-rule:evenodd;clip-rule:evenodd;stroke-linecap:round;stroke-linejoin:round;stroke-miterlimit:1.5;">
    <g id="svg8">
        <rect x="0" y="0" width="120" height="380" style="fill:rgb(240,240,240);"/>
        <g id="HCV-Logo" serif:id="HCV Logo">
            <path d="M39.81,374.578L38.204,374.578L38.204,369.247L32.128,369.247L32.128,374.578L30.522,374.578L30.522,363.154L32.128,363.154L32.128,367.873L38.204,367.873L38.204,363.154L39.81,363.154L39.81,374.578Z" style="fill:rgb(35,31,32);fill-rule:nonzero;"/>
            <path d="M48.018,374.578L41.197,374.578L41.197,363.154L47.886,363.154L47.886,364.496L42.803,364.496L42.803,367.906L47.604,367.906L47.604,369.247L42.803,369.247L42.803,373.221L48.018,373.221L48.018,374.578Z" style="fill:rgb(35,31,32);fill-rule:nonzero;"/>
            <path d="M56.891,364.496L53.679,364.496L53.679,374.578L52.073,374.578L52.073,364.496L48.845,364.496L48.845,363.154L56.891,363.154L56.891,364.496Z" style="fill:rgb(35,31,32);fill-rule:nonzero;"/>
            <path d="M62.601,364.877C62.088,364.496 61.475,364.463 60.681,364.463L59.505,364.463L59.505,368.337L60.681,368.337C61.475,368.337 62.088,368.304 62.601,367.94C63.115,367.559 63.33,367.095 63.33,366.399C63.33,365.721 63.115,365.241 62.601,364.877M65.648,374.578L63.71,374.578L60.73,369.661L59.505,369.661L59.505,374.578L57.899,374.578L57.899,363.154L61.127,363.154C62.27,363.154 63.197,363.42 63.876,363.949C64.555,364.496 64.985,365.323 64.985,366.366C64.985,368.37 63.594,369.264 62.386,369.496L65.648,374.578Z" style="fill:rgb(35,31,32);fill-rule:nonzero;"/>
            <rect x="66.84" y="363.154" width="1.605" height="11.424" style="fill:rgb(35,31,32);"/>
            <path d="M79.568,373.088C78.856,373.883 77.565,374.777 75.396,374.777C72.068,374.777 69.551,372.442 69.551,368.883C69.551,365.323 72.118,362.989 75.396,362.989C77.532,362.989 78.823,363.883 79.452,364.496L78.773,365.787C78.327,365.225 77.051,364.397 75.463,364.397C72.996,364.397 71.208,366.168 71.208,368.85C71.208,371.532 73.012,373.304 75.463,373.304C76.968,373.304 78.128,372.725 78.873,371.913L79.568,373.088Z" style="fill:rgb(237,50,36);fill-rule:nonzero;"/>
            <path d="M89.478,374.578L87.525,374.578L83.733,368.849L82.558,370.042L82.558,374.578L80.952,374.578L80.952,363.154L82.558,363.154L82.558,368.022L87.21,363.154L89.164,363.154L84.809,367.658L89.478,374.578Z" style="fill:rgb(237,50,36);fill-rule:nonzero;"/>
            <path d="M89.478,374.578L87.525,374.578L83.733,368.849L82.558,370.042L82.558,374.578L80.952,374.578L80.952,370.019L82.558,370.042L83.733,368.849L84.809,367.658L85.426,368.571L85.923,369.308L89.478,374.578Z" style="fill-rule:nonzero;"/>
        </g>
        <g id="Out">
            <path d="M114.634,300.534C114.634,297.223 111.945,294.534 108.634,294.534L11.366,294.534C8.055,294.534 5.366,297.223 5.366,300.534L5.366,348.534C5.366,351.846 8.055,354.534 11.366,354.534L108.634,354.534C111.945,354.534 114.634,351.846 114.634,348.534L114.634,300.534Z"/>
            <path d="M25.765,347.13C25.677,347.274 25.541,347.438 25.357,347.622C25.173,347.806 24.949,347.98 24.685,348.144C24.421,348.308 24.117,348.446 23.773,348.558C23.429,348.67 23.049,348.726 22.633,348.726C22.041,348.726 21.501,348.622 21.013,348.414C20.525,348.206 20.105,347.916 19.753,347.544C19.401,347.172 19.127,346.732 18.931,346.224C18.735,345.716 18.637,345.162 18.637,344.562C18.637,343.978 18.735,343.43 18.931,342.918C19.127,342.406 19.401,341.958 19.753,341.574C20.105,341.19 20.527,340.888 21.019,340.668C21.511,340.448 22.057,340.338 22.657,340.338C23.081,340.338 23.461,340.39 23.797,340.494C24.133,340.598 24.427,340.728 24.679,340.884C24.931,341.04 25.147,341.21 25.327,341.394C25.507,341.578 25.653,341.754 25.765,341.922L24.949,342.618C24.853,342.482 24.739,342.34 24.607,342.192C24.475,342.044 24.317,341.91 24.133,341.79C23.949,341.67 23.737,341.57 23.497,341.49C23.257,341.41 22.981,341.37 22.669,341.37C22.229,341.37 21.835,341.454 21.487,341.622C21.139,341.79 20.843,342.018 20.599,342.306C20.355,342.594 20.169,342.93 20.041,343.314C19.913,343.698 19.849,344.106 19.849,344.538C19.849,344.97 19.915,345.376 20.047,345.756C20.179,346.136 20.365,346.466 20.605,346.746C20.845,347.026 21.137,347.246 21.481,347.406C21.825,347.566 22.209,347.646 22.633,347.646C22.993,347.646 23.303,347.6 23.563,347.508C23.823,347.416 24.043,347.306 24.223,347.178C24.403,347.05 24.551,346.92 24.667,346.788C24.783,346.656 24.881,346.546 24.961,346.458L25.765,347.13Z" style="fill:white;fill-rule:nonzero;"/>
            <rect x="26.905" y="340.53" width="1.08" height="8.004" style="fill:white;fill-rule:nonzero;"/>
            <path d="M32.137,348.702C31.705,348.702 31.309,348.624 30.949,348.468C30.589,348.312 30.279,348.098 30.019,347.826C29.759,347.554 29.555,347.24 29.407,346.884C29.259,346.528 29.185,346.146 29.185,345.738C29.185,345.33 29.259,344.948 29.407,344.592C29.555,344.236 29.759,343.922 30.019,343.65C30.279,343.378 30.589,343.164 30.949,343.008C31.309,342.852 31.705,342.774 32.137,342.774C32.561,342.774 32.953,342.852 33.313,343.008C33.673,343.164 33.985,343.378 34.249,343.65C34.513,343.922 34.719,344.236 34.867,344.592C35.015,344.948 35.089,345.33 35.089,345.738C35.089,346.146 35.015,346.528 34.867,346.884C34.719,347.24 34.513,347.554 34.249,347.826C33.985,348.098 33.673,348.312 33.313,348.468C32.953,348.624 32.561,348.702 32.137,348.702ZM32.137,347.766C32.425,347.766 32.685,347.708 32.917,347.592C33.149,347.476 33.345,347.324 33.505,347.136C33.665,346.948 33.787,346.732 33.871,346.488C33.955,346.244 33.997,345.994 33.997,345.738C33.997,345.49 33.955,345.244 33.871,345C33.787,344.756 33.663,344.538 33.499,344.346C33.335,344.154 33.139,344 32.911,343.884C32.683,343.768 32.425,343.71 32.137,343.71C31.849,343.71 31.589,343.768 31.357,343.884C31.125,344 30.929,344.152 30.769,344.34C30.609,344.528 30.487,344.744 30.403,344.988C30.319,345.232 30.277,345.482 30.277,345.738C30.277,345.994 30.319,346.242 30.403,346.482C30.487,346.722 30.611,346.938 30.775,347.13C30.939,347.322 31.135,347.476 31.363,347.592C31.591,347.708 31.849,347.766 32.137,347.766Z" style="fill:white;fill-rule:nonzero;"/>
            <path d="M41.137,347.766C40.889,348.046 40.583,348.272 40.219,348.444C39.855,348.616 39.433,348.702 38.953,348.702C38.505,348.702 38.099,348.628 37.735,348.48C37.371,348.332 37.063,348.128 36.811,347.868C36.559,347.608 36.365,347.296 36.229,346.932C36.093,346.568 36.025,346.17 36.025,345.738C36.025,345.33 36.097,344.946 36.241,344.586C36.385,344.226 36.587,343.912 36.847,343.644C37.107,343.376 37.415,343.164 37.771,343.008C38.127,342.852 38.521,342.774 38.953,342.774C39.425,342.774 39.841,342.858 40.201,343.026C40.561,343.194 40.869,343.422 41.125,343.71L40.417,344.394C40.249,344.186 40.045,344.022 39.805,343.902C39.565,343.782 39.281,343.722 38.953,343.722C38.665,343.722 38.407,343.776 38.179,343.884C37.951,343.992 37.759,344.14 37.603,344.328C37.447,344.516 37.327,344.732 37.243,344.976C37.159,345.22 37.117,345.474 37.117,345.738C37.117,345.994 37.159,346.244 37.243,346.488C37.327,346.732 37.447,346.948 37.603,347.136C37.759,347.324 37.951,347.474 38.179,347.586C38.407,347.698 38.665,347.754 38.953,347.754C39.281,347.754 39.575,347.692 39.835,347.568C40.095,347.444 40.309,347.278 40.477,347.07L41.137,347.766Z" style="fill:white;fill-rule:nonzero;"/>
            <path d="M42.169,340.53L43.249,340.53L43.249,345.246L45.589,342.954L46.885,342.954L44.773,345.018L47.197,348.534L45.913,348.534L44.017,345.738L43.249,346.482L43.249,348.534L42.169,348.534L42.169,340.53Z" style="fill:white;fill-rule:nonzero;"/>
            <path d="M67.643,340.53L70.175,340.53C70.719,340.53 71.169,340.606 71.525,340.758C71.881,340.91 72.165,341.102 72.377,341.334C72.589,341.566 72.737,341.826 72.821,342.114C72.905,342.402 72.947,342.682 72.947,342.954C72.947,343.354 72.879,343.706 72.743,344.01C72.607,344.314 72.419,344.568 72.179,344.772C71.939,344.976 71.653,345.13 71.321,345.234C70.989,345.338 70.627,345.39 70.235,345.39L68.783,345.39L68.783,348.534L67.643,348.534L67.643,340.53ZM70.223,344.406C70.719,344.406 71.101,344.28 71.369,344.028C71.637,343.776 71.771,343.426 71.771,342.978C71.771,342.522 71.633,342.164 71.357,341.904C71.081,341.644 70.703,341.514 70.223,341.514L68.783,341.514L68.783,344.406L70.223,344.406Z" style="fill:white;fill-rule:nonzero;"/>
            <path d="M73.991,340.53L75.059,340.53L75.059,343.782C75.131,343.686 75.219,343.582 75.323,343.47C75.427,343.358 75.555,343.254 75.707,343.158C75.859,343.062 76.035,342.982 76.235,342.918C76.435,342.854 76.663,342.822 76.919,342.822C77.647,342.822 78.187,343.034 78.539,343.458C78.891,343.882 79.067,344.458 79.067,345.186L79.067,348.534L77.987,348.534L77.987,345.27C77.987,344.75 77.875,344.368 77.651,344.124C77.427,343.88 77.111,343.758 76.703,343.758C76.391,343.758 76.131,343.822 75.923,343.95C75.715,344.078 75.549,344.244 75.425,344.448C75.301,344.652 75.211,344.884 75.155,345.144C75.099,345.404 75.071,345.67 75.071,345.942L75.071,348.534L73.991,348.534L73.991,340.53Z" style="fill:white;fill-rule:nonzero;"/>
            <path d="M83.975,345.894C83.943,345.886 83.881,345.876 83.789,345.864C83.697,345.852 83.591,345.842 83.471,345.834C83.351,345.826 83.223,345.818 83.087,345.81C82.951,345.802 82.819,345.798 82.691,345.798C82.387,345.798 82.141,345.834 81.953,345.906C81.765,345.978 81.617,346.068 81.509,346.176C81.401,346.284 81.327,346.404 81.287,346.536C81.247,346.668 81.227,346.794 81.227,346.914C81.227,347.218 81.331,347.448 81.539,347.604C81.747,347.76 82.035,347.838 82.403,347.838C82.611,347.838 82.809,347.802 82.997,347.73C83.185,347.658 83.351,347.562 83.495,347.442C83.639,347.322 83.755,347.182 83.843,347.022C83.931,346.862 83.975,346.698 83.975,346.53L83.975,345.894ZM83.987,347.862C83.779,348.142 83.505,348.35 83.165,348.486C82.825,348.622 82.475,348.69 82.115,348.69C81.883,348.69 81.653,348.66 81.425,348.6C81.197,348.54 80.989,348.44 80.801,348.3C80.613,348.16 80.461,347.98 80.345,347.76C80.229,347.54 80.171,347.27 80.171,346.95C80.171,346.35 80.381,345.87 80.801,345.51C81.221,345.15 81.827,344.97 82.619,344.97C82.747,344.97 82.883,344.974 83.027,344.982C83.171,344.99 83.307,344.998 83.435,345.006C83.563,345.014 83.675,345.022 83.771,345.03C83.867,345.038 83.935,345.046 83.975,345.054L83.975,344.85C83.975,344.434 83.849,344.136 83.597,343.956C83.345,343.776 83.003,343.686 82.571,343.686C82.147,343.686 81.811,343.744 81.563,343.86C81.315,343.976 81.107,344.094 80.939,344.214L80.435,343.482C80.531,343.402 80.647,343.322 80.783,343.242C80.919,343.162 81.079,343.088 81.263,343.02C81.447,342.952 81.655,342.896 81.887,342.852C82.119,342.808 82.387,342.786 82.691,342.786C83.411,342.786 83.977,342.96 84.389,343.308C84.801,343.656 85.007,344.15 85.007,344.79L85.007,348.036C85.007,348.232 85.011,348.398 85.019,348.534L84.011,348.534L83.987,347.862Z" style="fill:white;fill-rule:nonzero;"/>
            <path d="M86.819,347.13C87.019,347.33 87.259,347.49 87.539,347.61C87.819,347.73 88.143,347.79 88.511,347.79C88.871,347.79 89.171,347.732 89.411,347.616C89.651,347.5 89.771,347.318 89.771,347.07C89.771,346.942 89.745,346.832 89.693,346.74C89.641,346.648 89.553,346.566 89.429,346.494C89.305,346.422 89.141,346.356 88.937,346.296C88.733,346.236 88.479,346.17 88.175,346.098C87.959,346.05 87.745,345.986 87.533,345.906C87.321,345.826 87.131,345.72 86.963,345.588C86.795,345.456 86.659,345.296 86.555,345.108C86.451,344.92 86.399,344.694 86.399,344.43C86.399,344.158 86.461,343.92 86.585,343.716C86.709,343.512 86.875,343.34 87.083,343.2C87.291,343.06 87.525,342.954 87.785,342.882C88.045,342.81 88.315,342.774 88.595,342.774C89.067,342.774 89.473,342.836 89.813,342.96C90.153,343.084 90.451,343.258 90.707,343.482L90.119,344.226C89.951,344.074 89.741,343.946 89.489,343.842C89.237,343.738 88.943,343.686 88.607,343.686C88.263,343.686 87.987,343.742 87.779,343.854C87.571,343.966 87.467,344.15 87.467,344.406C87.467,344.646 87.605,344.824 87.881,344.94C88.157,345.056 88.519,345.166 88.967,345.27C89.231,345.334 89.477,345.408 89.705,345.492C89.933,345.576 90.133,345.684 90.305,345.816C90.477,345.948 90.613,346.11 90.713,346.302C90.813,346.494 90.863,346.726 90.863,346.998C90.863,347.278 90.799,347.524 90.671,347.736C90.543,347.948 90.371,348.126 90.155,348.27C89.939,348.414 89.691,348.522 89.411,348.594C89.131,348.666 88.839,348.702 88.535,348.702C87.479,348.702 86.687,348.418 86.159,347.85L86.819,347.13Z" style="fill:white;fill-rule:nonzero;"/>
            <path d="M94.787,348.702C94.355,348.702 93.959,348.624 93.599,348.468C93.239,348.312 92.929,348.098 92.669,347.826C92.409,347.554 92.205,347.24 92.057,346.884C91.909,346.528 91.835,346.146 91.835,345.738C91.835,345.33 91.909,344.948 92.057,344.592C92.205,344.236 92.409,343.922 92.669,343.65C92.929,343.378 93.239,343.164 93.599,343.008C93.959,342.852 94.355,342.774 94.787,342.774C95.211,342.774 95.603,342.852 95.963,343.008C96.323,343.164 96.635,343.378 96.899,343.65C97.163,343.922 97.369,344.236 97.517,344.592C97.665,344.948 97.739,345.33 97.739,345.738C97.739,346.146 97.665,346.528 97.517,346.884C97.369,347.24 97.163,347.554 96.899,347.826C96.635,348.098 96.323,348.312 95.963,348.468C95.603,348.624 95.211,348.702 94.787,348.702ZM94.787,347.766C95.075,347.766 95.335,347.708 95.567,347.592C95.799,347.476 95.995,347.324 96.155,347.136C96.315,346.948 96.437,346.732 96.521,346.488C96.605,346.244 96.647,345.994 96.647,345.738C96.647,345.49 96.605,345.244 96.521,345C96.437,344.756 96.313,344.538 96.149,344.346C95.985,344.154 95.789,344 95.561,343.884C95.333,343.768 95.075,343.71 94.787,343.71C94.499,343.71 94.239,343.768 94.007,343.884C93.775,344 93.579,344.152 93.419,344.34C93.259,344.528 93.137,344.744 93.053,344.988C92.969,345.232 92.927,345.482 92.927,345.738C92.927,345.994 92.969,346.242 93.053,346.482C93.137,346.722 93.261,346.938 93.425,347.13C93.589,347.322 93.785,347.476 94.013,347.592C94.241,347.708 94.499,347.766 94.787,347.766Z" style="fill:white;fill-rule:nonzero;"/>
            <path d="M98.939,348.534L98.939,343.488C98.939,343.316 98.935,343.138 98.927,342.954L99.959,342.954L99.995,343.854C100.059,343.758 100.143,343.652 100.247,343.536C100.351,343.42 100.477,343.314 100.625,343.218C100.773,343.122 100.945,343.04 101.141,342.972C101.337,342.904 101.563,342.87 101.819,342.87C101.939,342.87 102.049,342.878 102.149,342.894C102.249,342.91 102.343,342.934 102.431,342.966L102.191,343.974C102.047,343.918 101.863,343.89 101.639,343.89C101.407,343.89 101.193,343.934 100.997,344.022C100.801,344.11 100.631,344.232 100.487,344.388C100.343,344.544 100.229,344.726 100.145,344.934C100.061,345.142 100.019,345.362 100.019,345.594L100.019,348.534L98.939,348.534Z" style="fill:white;fill-rule:nonzero;"/>
            <path d="M103.343,347.13C103.543,347.33 103.783,347.49 104.063,347.61C104.343,347.73 104.667,347.79 105.035,347.79C105.395,347.79 105.695,347.732 105.935,347.616C106.175,347.5 106.295,347.318 106.295,347.07C106.295,346.942 106.269,346.832 106.217,346.74C106.165,346.648 106.077,346.566 105.953,346.494C105.829,346.422 105.665,346.356 105.461,346.296C105.257,346.236 105.003,346.17 104.699,346.098C104.483,346.05 104.269,345.986 104.057,345.906C103.845,345.826 103.655,345.72 103.487,345.588C103.319,345.456 103.183,345.296 103.079,345.108C102.975,344.92 102.923,344.694 102.923,344.43C102.923,344.158 102.985,343.92 103.109,343.716C103.233,343.512 103.399,343.34 103.607,343.2C103.815,343.06 104.049,342.954 104.309,342.882C104.569,342.81 104.839,342.774 105.119,342.774C105.591,342.774 105.997,342.836 106.337,342.96C106.677,343.084 106.975,343.258 107.231,343.482L106.643,344.226C106.475,344.074 106.265,343.946 106.013,343.842C105.761,343.738 105.467,343.686 105.131,343.686C104.787,343.686 104.511,343.742 104.303,343.854C104.095,343.966 103.991,344.15 103.991,344.406C103.991,344.646 104.129,344.824 104.405,344.94C104.681,345.056 105.043,345.166 105.491,345.27C105.755,345.334 106.001,345.408 106.229,345.492C106.457,345.576 106.657,345.684 106.829,345.816C107.001,345.948 107.137,346.11 107.237,346.302C107.337,346.494 107.387,346.726 107.387,346.998C107.387,347.278 107.323,347.524 107.195,347.736C107.067,347.948 106.895,348.126 106.679,348.27C106.463,348.414 106.215,348.522 105.935,348.594C105.655,348.666 105.363,348.702 105.059,348.702C104.003,348.702 103.211,348.418 102.683,347.85L103.343,347.13Z" style="fill:white;fill-rule:nonzero;"/>
        </g>
        <path d="M4.972,16.831L8.77,16.831C9.586,16.831 10.261,16.945 10.795,17.173C11.329,17.401 11.755,17.689 12.073,18.037C12.391,18.385 12.613,18.775 12.739,19.207C12.865,19.639 12.928,20.059 12.928,20.467C12.928,21.067 12.826,21.595 12.622,22.051C12.418,22.507 12.136,22.888 11.776,23.194C11.416,23.5 10.987,23.731 10.489,23.887C9.991,24.043 9.448,24.121 8.86,24.121L6.682,24.121L6.682,28.837L4.972,28.837L4.972,16.831ZM8.842,22.645C9.586,22.645 10.159,22.456 10.561,22.078C10.963,21.7 11.164,21.175 11.164,20.503C11.164,19.819 10.957,19.282 10.543,18.892C10.129,18.502 9.562,18.307 8.842,18.307L6.682,18.307L6.682,22.645L8.842,22.645Z" style="fill-rule:nonzero;"/>
        <path d="M14.352,16.831L15.954,16.831L15.954,21.709C16.062,21.565 16.194,21.409 16.35,21.241C16.506,21.073 16.698,20.917 16.926,20.773C17.154,20.629 17.418,20.509 17.718,20.413C18.018,20.317 18.36,20.269 18.744,20.269C19.836,20.269 20.646,20.587 21.174,21.223C21.702,21.859 21.966,22.723 21.966,23.815L21.966,28.837L20.346,28.837L20.346,23.941C20.346,23.161 20.178,22.588 19.842,22.222C19.506,21.856 19.032,21.673 18.42,21.673C17.952,21.673 17.562,21.769 17.25,21.961C16.938,22.153 16.689,22.402 16.503,22.708C16.317,23.014 16.182,23.362 16.098,23.752C16.014,24.142 15.972,24.541 15.972,24.949L15.972,28.837L14.352,28.837L14.352,16.831Z" style="fill-rule:nonzero;"/>
        <path d="M29.186,24.877C29.138,24.865 29.045,24.85 28.907,24.832C28.769,24.814 28.61,24.799 28.43,24.787C28.25,24.775 28.058,24.763 27.854,24.751C27.65,24.739 27.452,24.733 27.26,24.733C26.804,24.733 26.435,24.787 26.153,24.895C25.871,25.003 25.649,25.138 25.487,25.3C25.325,25.462 25.214,25.642 25.154,25.84C25.094,26.038 25.064,26.227 25.064,26.407C25.064,26.863 25.22,27.208 25.532,27.442C25.844,27.676 26.276,27.793 26.828,27.793C27.14,27.793 27.437,27.739 27.719,27.631C28.001,27.523 28.25,27.379 28.466,27.199C28.682,27.019 28.856,26.809 28.988,26.569C29.12,26.329 29.186,26.083 29.186,25.831L29.186,24.877ZM29.204,27.829C28.892,28.249 28.481,28.561 27.971,28.765C27.461,28.969 26.936,29.071 26.396,29.071C26.048,29.071 25.703,29.026 25.361,28.936C25.019,28.846 24.707,28.696 24.425,28.486C24.143,28.276 23.915,28.006 23.741,27.676C23.567,27.346 23.48,26.941 23.48,26.461C23.48,25.561 23.795,24.841 24.425,24.301C25.055,23.761 25.964,23.491 27.152,23.491C27.344,23.491 27.548,23.497 27.764,23.509C27.98,23.521 28.184,23.533 28.376,23.545C28.568,23.557 28.736,23.569 28.88,23.581C29.024,23.593 29.126,23.605 29.186,23.617L29.186,23.311C29.186,22.687 28.997,22.24 28.619,21.97C28.241,21.7 27.728,21.565 27.08,21.565C26.444,21.565 25.94,21.652 25.568,21.826C25.196,22 24.884,22.177 24.632,22.357L23.876,21.259C24.02,21.139 24.194,21.019 24.398,20.899C24.602,20.779 24.842,20.668 25.118,20.566C25.394,20.464 25.706,20.38 26.054,20.314C26.402,20.248 26.804,20.215 27.26,20.215C28.34,20.215 29.189,20.476 29.807,20.998C30.425,21.52 30.734,22.261 30.734,23.221L30.734,28.09C30.734,28.384 30.74,28.633 30.752,28.837L29.24,28.837L29.204,27.829Z" style="fill-rule:nonzero;"/>
        <path d="M33.31,26.731C33.61,27.031 33.97,27.271 34.39,27.451C34.81,27.631 35.296,27.721 35.848,27.721C36.388,27.721 36.838,27.634 37.198,27.46C37.558,27.286 37.738,27.013 37.738,26.641C37.738,26.449 37.699,26.284 37.621,26.146C37.543,26.008 37.411,25.885 37.225,25.777C37.039,25.669 36.793,25.57 36.487,25.48C36.181,25.39 35.8,25.291 35.344,25.183C35.02,25.111 34.699,25.015 34.381,24.895C34.063,24.775 33.778,24.616 33.526,24.418C33.274,24.22 33.07,23.98 32.914,23.698C32.758,23.416 32.68,23.077 32.68,22.681C32.68,22.273 32.773,21.916 32.959,21.61C33.145,21.304 33.394,21.046 33.706,20.836C34.018,20.626 34.369,20.467 34.759,20.359C35.149,20.251 35.554,20.197 35.974,20.197C36.682,20.197 37.291,20.29 37.801,20.476C38.311,20.662 38.758,20.923 39.142,21.259L38.26,22.375C38.008,22.147 37.693,21.955 37.315,21.799C36.937,21.643 36.496,21.565 35.992,21.565C35.476,21.565 35.062,21.649 34.75,21.817C34.438,21.985 34.282,22.261 34.282,22.645C34.282,23.005 34.489,23.272 34.903,23.446C35.317,23.62 35.86,23.785 36.532,23.941C36.928,24.037 37.297,24.148 37.639,24.274C37.981,24.4 38.281,24.562 38.539,24.76C38.797,24.958 39.001,25.201 39.151,25.489C39.301,25.777 39.376,26.125 39.376,26.533C39.376,26.953 39.28,27.322 39.088,27.64C38.896,27.958 38.638,28.225 38.314,28.441C37.99,28.657 37.618,28.819 37.198,28.927C36.778,29.035 36.34,29.089 35.884,29.089C34.3,29.089 33.112,28.663 32.32,27.811L33.31,26.731Z" style="fill-rule:nonzero;"/>
        <path d="M45.119,29.089C44.471,29.089 43.877,28.972 43.337,28.738C42.797,28.504 42.332,28.183 41.942,27.775C41.552,27.367 41.246,26.896 41.024,26.362C40.802,25.828 40.691,25.255 40.691,24.643C40.691,24.031 40.802,23.458 41.024,22.924C41.246,22.39 41.552,21.919 41.942,21.511C42.332,21.103 42.797,20.782 43.337,20.548C43.877,20.314 44.471,20.197 45.119,20.197C45.755,20.197 46.343,20.314 46.883,20.548C47.423,20.782 47.891,21.103 48.287,21.511C48.683,21.919 48.992,22.39 49.214,22.924C49.436,23.458 49.547,24.031 49.547,24.643C49.547,25.255 49.436,25.828 49.214,26.362C48.992,26.896 48.683,27.367 48.287,27.775C47.891,28.183 47.423,28.504 46.883,28.738C46.343,28.972 45.755,29.089 45.119,29.089ZM45.119,27.685C45.551,27.685 45.941,27.598 46.289,27.424C46.637,27.25 46.931,27.022 47.171,26.74C47.411,26.458 47.594,26.134 47.72,25.768C47.846,25.402 47.909,25.027 47.909,24.643C47.909,24.271 47.846,23.902 47.72,23.536C47.594,23.17 47.408,22.843 47.162,22.555C46.916,22.267 46.622,22.036 46.28,21.862C45.938,21.688 45.551,21.601 45.119,21.601C44.687,21.601 44.297,21.688 43.949,21.862C43.601,22.036 43.307,22.264 43.067,22.546C42.827,22.828 42.644,23.152 42.518,23.518C42.392,23.884 42.329,24.259 42.329,24.643C42.329,25.027 42.392,25.399 42.518,25.759C42.644,26.119 42.83,26.443 43.076,26.731C43.322,27.019 43.616,27.25 43.958,27.424C44.3,27.598 44.687,27.685 45.119,27.685Z" style="fill-rule:nonzero;"/>
        <path d="M51.205,28.837L51.205,21.268C51.205,21.01 51.199,20.743 51.187,20.467L52.735,20.467L52.789,21.817C52.885,21.673 53.011,21.514 53.167,21.34C53.323,21.166 53.512,21.007 53.734,20.863C53.956,20.719 54.214,20.596 54.508,20.494C54.802,20.392 55.141,20.341 55.525,20.341C55.705,20.341 55.87,20.353 56.02,20.377C56.17,20.401 56.311,20.437 56.443,20.485L56.083,21.997C55.867,21.913 55.591,21.871 55.255,21.871C54.907,21.871 54.586,21.937 54.292,22.069C53.998,22.201 53.743,22.384 53.527,22.618C53.311,22.852 53.14,23.125 53.014,23.437C52.888,23.749 52.825,24.079 52.825,24.427L52.825,28.837L51.205,28.837Z" style="fill-rule:nonzero;"/>
        <rect x="57.057" y="23.023" width="5.274" height="1.548" style="fill-rule:nonzero;"/>
        <path d="M64.781,25.831L70.091,23.077L64.781,20.323L65.393,19.099L71.981,22.555L71.981,23.599L65.393,27.055L64.781,25.831Z" style="fill-rule:nonzero;"/>
        <path d="M84.655,26.731C84.523,26.947 84.319,27.193 84.043,27.469C83.767,27.745 83.431,28.006 83.035,28.252C82.639,28.498 82.183,28.705 81.667,28.873C81.151,29.041 80.581,29.125 79.957,29.125C79.069,29.125 78.259,28.969 77.527,28.657C76.795,28.345 76.165,27.91 75.637,27.352C75.109,26.794 74.698,26.134 74.404,25.372C74.11,24.61 73.963,23.779 73.963,22.879C73.963,22.003 74.11,21.181 74.404,20.413C74.698,19.645 75.109,18.973 75.637,18.397C76.165,17.821 76.798,17.368 77.536,17.038C78.274,16.708 79.093,16.543 79.993,16.543C80.629,16.543 81.199,16.621 81.703,16.777C82.207,16.933 82.648,17.128 83.026,17.362C83.404,17.596 83.728,17.851 83.998,18.127C84.268,18.403 84.487,18.667 84.655,18.919L83.431,19.963C83.287,19.759 83.116,19.546 82.918,19.324C82.72,19.102 82.483,18.901 82.207,18.721C81.931,18.541 81.613,18.391 81.253,18.271C80.893,18.151 80.479,18.091 80.011,18.091C79.351,18.091 78.76,18.217 78.238,18.469C77.716,18.721 77.272,19.063 76.906,19.495C76.54,19.927 76.261,20.431 76.069,21.007C75.877,21.583 75.781,22.195 75.781,22.843C75.781,23.491 75.88,24.1 76.078,24.67C76.276,25.24 76.555,25.735 76.915,26.155C77.275,26.575 77.713,26.905 78.229,27.145C78.745,27.385 79.321,27.505 79.957,27.505C80.497,27.505 80.962,27.436 81.352,27.298C81.742,27.16 82.072,26.995 82.342,26.803C82.612,26.611 82.834,26.416 83.008,26.218C83.182,26.02 83.329,25.855 83.449,25.723L84.655,26.731Z" style="fill-rule:nonzero;"/>
        <rect x="86.222" y="16.831" width="1.62" height="12.006" style="fill-rule:nonzero;"/>
        <path d="M93.928,29.089C93.28,29.089 92.686,28.972 92.146,28.738C91.606,28.504 91.141,28.183 90.751,27.775C90.361,27.367 90.055,26.896 89.833,26.362C89.611,25.828 89.5,25.255 89.5,24.643C89.5,24.031 89.611,23.458 89.833,22.924C90.055,22.39 90.361,21.919 90.751,21.511C91.141,21.103 91.606,20.782 92.146,20.548C92.686,20.314 93.28,20.197 93.928,20.197C94.564,20.197 95.152,20.314 95.692,20.548C96.232,20.782 96.7,21.103 97.096,21.511C97.492,21.919 97.801,22.39 98.023,22.924C98.245,23.458 98.356,24.031 98.356,24.643C98.356,25.255 98.245,25.828 98.023,26.362C97.801,26.896 97.492,27.367 97.096,27.775C96.7,28.183 96.232,28.504 95.692,28.738C95.152,28.972 94.564,29.089 93.928,29.089ZM93.928,27.685C94.36,27.685 94.75,27.598 95.098,27.424C95.446,27.25 95.74,27.022 95.98,26.74C96.22,26.458 96.403,26.134 96.529,25.768C96.655,25.402 96.718,25.027 96.718,24.643C96.718,24.271 96.655,23.902 96.529,23.536C96.403,23.17 96.217,22.843 95.971,22.555C95.725,22.267 95.431,22.036 95.089,21.862C94.747,21.688 94.36,21.601 93.928,21.601C93.496,21.601 93.106,21.688 92.758,21.862C92.41,22.036 92.116,22.264 91.876,22.546C91.636,22.828 91.453,23.152 91.327,23.518C91.201,23.884 91.138,24.259 91.138,24.643C91.138,25.027 91.201,25.399 91.327,25.759C91.453,26.119 91.639,26.443 91.885,26.731C92.131,27.019 92.425,27.25 92.767,27.424C93.109,27.598 93.496,27.685 93.928,27.685Z" style="fill-rule:nonzero;"/>
        <path d="M107.286,27.685C106.914,28.105 106.455,28.444 105.909,28.702C105.363,28.96 104.73,29.089 104.01,29.089C103.338,29.089 102.729,28.978 102.183,28.756C101.637,28.534 101.175,28.228 100.797,27.838C100.419,27.448 100.128,26.98 99.924,26.434C99.72,25.888 99.618,25.291 99.618,24.643C99.618,24.031 99.726,23.455 99.942,22.915C100.158,22.375 100.461,21.904 100.851,21.502C101.241,21.1 101.703,20.782 102.237,20.548C102.771,20.314 103.362,20.197 104.01,20.197C104.718,20.197 105.342,20.323 105.882,20.575C106.422,20.827 106.884,21.169 107.268,21.601L106.206,22.627C105.954,22.315 105.648,22.069 105.288,21.889C104.928,21.709 104.502,21.619 104.01,21.619C103.578,21.619 103.191,21.7 102.849,21.862C102.507,22.024 102.219,22.246 101.985,22.528C101.751,22.81 101.571,23.134 101.445,23.5C101.319,23.866 101.256,24.247 101.256,24.643C101.256,25.027 101.319,25.402 101.445,25.768C101.571,26.134 101.751,26.458 101.985,26.74C102.219,27.022 102.507,27.247 102.849,27.415C103.191,27.583 103.578,27.667 104.01,27.667C104.502,27.667 104.943,27.574 105.333,27.388C105.723,27.202 106.044,26.953 106.296,26.641L107.286,27.685Z" style="fill-rule:nonzero;"/>
        <path d="M108.692,16.831L110.312,16.831L110.312,23.905L113.822,20.467L115.766,20.467L112.598,23.563L116.234,28.837L114.308,28.837L111.464,24.643L110.312,25.759L110.312,28.837L108.692,28.837L108.692,16.831Z" style="fill-rule:nonzero;"/>
        <path d="M9.877,273.827L12.409,273.827C12.953,273.827 13.403,273.903 13.759,274.055C14.115,274.207 14.399,274.399 14.611,274.631C14.823,274.863 14.971,275.123 15.055,275.411C15.139,275.699 15.181,275.979 15.181,276.251C15.181,276.651 15.113,277.003 14.977,277.307C14.841,277.611 14.653,277.865 14.413,278.069C14.173,278.273 13.887,278.427 13.555,278.531C13.223,278.635 12.861,278.687 12.469,278.687L11.017,278.687L11.017,281.831L9.877,281.831L9.877,273.827ZM12.457,277.703C12.953,277.703 13.335,277.577 13.603,277.325C13.871,277.073 14.005,276.723 14.005,276.275C14.005,275.819 13.867,275.461 13.591,275.201C13.315,274.941 12.937,274.811 12.457,274.811L11.017,274.811L11.017,277.703L12.457,277.703Z" style="fill-rule:nonzero;"/>
        <path d="M16.225,273.827L17.293,273.827L17.293,277.079C17.365,276.983 17.453,276.879 17.557,276.767C17.661,276.655 17.789,276.551 17.941,276.455C18.093,276.359 18.269,276.279 18.469,276.215C18.669,276.151 18.897,276.119 19.153,276.119C19.881,276.119 20.421,276.331 20.773,276.755C21.125,277.179 21.301,277.755 21.301,278.483L21.301,281.831L20.221,281.831L20.221,278.567C20.221,278.047 20.109,277.665 19.885,277.421C19.661,277.177 19.345,277.055 18.937,277.055C18.625,277.055 18.365,277.119 18.157,277.247C17.949,277.375 17.783,277.541 17.659,277.745C17.535,277.949 17.445,278.181 17.389,278.441C17.333,278.701 17.305,278.967 17.305,279.239L17.305,281.831L16.225,281.831L16.225,273.827Z" style="fill-rule:nonzero;"/>
        <path d="M26.209,279.191C26.177,279.183 26.115,279.173 26.023,279.161C25.931,279.149 25.825,279.139 25.705,279.131C25.585,279.123 25.457,279.115 25.321,279.107C25.185,279.099 25.053,279.095 24.925,279.095C24.621,279.095 24.375,279.131 24.187,279.203C23.999,279.275 23.851,279.365 23.743,279.473C23.635,279.581 23.561,279.701 23.521,279.833C23.481,279.965 23.461,280.091 23.461,280.211C23.461,280.515 23.565,280.745 23.773,280.901C23.981,281.057 24.269,281.135 24.637,281.135C24.845,281.135 25.043,281.099 25.231,281.027C25.419,280.955 25.585,280.859 25.729,280.739C25.873,280.619 25.989,280.479 26.077,280.319C26.165,280.159 26.209,279.995 26.209,279.827L26.209,279.191ZM26.221,281.159C26.013,281.439 25.739,281.647 25.399,281.783C25.059,281.919 24.709,281.987 24.349,281.987C24.117,281.987 23.887,281.957 23.659,281.897C23.431,281.837 23.223,281.737 23.035,281.597C22.847,281.457 22.695,281.277 22.579,281.057C22.463,280.837 22.405,280.567 22.405,280.247C22.405,279.647 22.615,279.167 23.035,278.807C23.455,278.447 24.061,278.267 24.853,278.267C24.981,278.267 25.117,278.271 25.261,278.279C25.405,278.287 25.541,278.295 25.669,278.303C25.797,278.311 25.909,278.319 26.005,278.327C26.101,278.335 26.169,278.343 26.209,278.351L26.209,278.147C26.209,277.731 26.083,277.433 25.831,277.253C25.579,277.073 25.237,276.983 24.805,276.983C24.381,276.983 24.045,277.041 23.797,277.157C23.549,277.273 23.341,277.391 23.173,277.511L22.669,276.779C22.765,276.699 22.881,276.619 23.017,276.539C23.153,276.459 23.313,276.385 23.497,276.317C23.681,276.249 23.889,276.193 24.121,276.149C24.353,276.105 24.621,276.083 24.925,276.083C25.645,276.083 26.211,276.257 26.623,276.605C27.035,276.953 27.241,277.447 27.241,278.087L27.241,281.333C27.241,281.529 27.245,281.695 27.253,281.831L26.245,281.831L26.221,281.159Z" style="fill-rule:nonzero;"/>
        <path d="M29.053,280.427C29.253,280.627 29.493,280.787 29.773,280.907C30.053,281.027 30.377,281.087 30.745,281.087C31.105,281.087 31.405,281.029 31.645,280.913C31.885,280.797 32.005,280.615 32.005,280.367C32.005,280.239 31.979,280.129 31.927,280.037C31.875,279.945 31.787,279.863 31.663,279.791C31.539,279.719 31.375,279.653 31.171,279.593C30.967,279.533 30.713,279.467 30.409,279.395C30.193,279.347 29.979,279.283 29.767,279.203C29.555,279.123 29.365,279.017 29.197,278.885C29.029,278.753 28.893,278.593 28.789,278.405C28.685,278.217 28.633,277.991 28.633,277.727C28.633,277.455 28.695,277.217 28.819,277.013C28.943,276.809 29.109,276.637 29.317,276.497C29.525,276.357 29.759,276.251 30.019,276.179C30.279,276.107 30.549,276.071 30.829,276.071C31.301,276.071 31.707,276.133 32.047,276.257C32.387,276.381 32.685,276.555 32.941,276.779L32.353,277.523C32.185,277.371 31.975,277.243 31.723,277.139C31.471,277.035 31.177,276.983 30.841,276.983C30.497,276.983 30.221,277.039 30.013,277.151C29.805,277.263 29.701,277.447 29.701,277.703C29.701,277.943 29.839,278.121 30.115,278.237C30.391,278.353 30.753,278.463 31.201,278.567C31.465,278.631 31.711,278.705 31.939,278.789C32.167,278.873 32.367,278.981 32.539,279.113C32.711,279.245 32.847,279.407 32.947,279.599C33.047,279.791 33.097,280.023 33.097,280.295C33.097,280.575 33.033,280.821 32.905,281.033C32.777,281.245 32.605,281.423 32.389,281.567C32.173,281.711 31.925,281.819 31.645,281.891C31.365,281.963 31.073,281.999 30.769,281.999C29.713,281.999 28.921,281.715 28.393,281.147L29.053,280.427Z" style="fill-rule:nonzero;"/>
        <path d="M37.021,281.999C36.589,281.999 36.193,281.921 35.833,281.765C35.473,281.609 35.163,281.395 34.903,281.123C34.643,280.851 34.439,280.537 34.291,280.181C34.143,279.825 34.069,279.443 34.069,279.035C34.069,278.627 34.143,278.245 34.291,277.889C34.439,277.533 34.643,277.219 34.903,276.947C35.163,276.675 35.473,276.461 35.833,276.305C36.193,276.149 36.589,276.071 37.021,276.071C37.445,276.071 37.837,276.149 38.197,276.305C38.557,276.461 38.869,276.675 39.133,276.947C39.397,277.219 39.603,277.533 39.751,277.889C39.899,278.245 39.973,278.627 39.973,279.035C39.973,279.443 39.899,279.825 39.751,280.181C39.603,280.537 39.397,280.851 39.133,281.123C38.869,281.395 38.557,281.609 38.197,281.765C37.837,281.921 37.445,281.999 37.021,281.999ZM37.021,281.063C37.309,281.063 37.569,281.005 37.801,280.889C38.033,280.773 38.229,280.621 38.389,280.433C38.549,280.245 38.671,280.029 38.755,279.785C38.839,279.541 38.881,279.291 38.881,279.035C38.881,278.787 38.839,278.541 38.755,278.297C38.671,278.053 38.547,277.835 38.383,277.643C38.219,277.451 38.023,277.297 37.795,277.181C37.567,277.065 37.309,277.007 37.021,277.007C36.733,277.007 36.473,277.065 36.241,277.181C36.009,277.297 35.813,277.449 35.653,277.637C35.493,277.825 35.371,278.041 35.287,278.285C35.203,278.529 35.161,278.779 35.161,279.035C35.161,279.291 35.203,279.539 35.287,279.779C35.371,280.019 35.495,280.235 35.659,280.427C35.823,280.619 36.019,280.773 36.247,280.889C36.475,281.005 36.733,281.063 37.021,281.063Z" style="fill-rule:nonzero;"/>
        <path d="M41.173,281.831L41.173,276.785C41.173,276.613 41.169,276.435 41.161,276.251L42.193,276.251L42.229,277.151C42.293,277.055 42.377,276.949 42.481,276.833C42.585,276.717 42.711,276.611 42.859,276.515C43.007,276.419 43.179,276.337 43.375,276.269C43.571,276.201 43.797,276.167 44.053,276.167C44.173,276.167 44.283,276.175 44.383,276.191C44.483,276.207 44.577,276.231 44.665,276.263L44.425,277.271C44.281,277.215 44.097,277.187 43.873,277.187C43.641,277.187 43.427,277.231 43.231,277.319C43.035,277.407 42.865,277.529 42.721,277.685C42.577,277.841 42.463,278.023 42.379,278.231C42.295,278.439 42.253,278.659 42.253,278.891L42.253,281.831L41.173,281.831Z" style="fill-rule:nonzero;"/>
        <rect x="47.833" y="273.827" width="1.152" height="8.004" style="fill-rule:nonzero;"/>
        <path d="M50.617,281.831L50.617,276.821C50.617,276.641 50.613,276.451 50.605,276.251L51.637,276.251L51.673,277.091C51.745,276.995 51.833,276.889 51.937,276.773C52.041,276.657 52.169,276.551 52.321,276.455C52.473,276.359 52.651,276.279 52.855,276.215C53.059,276.151 53.289,276.119 53.545,276.119C54.273,276.119 54.813,276.331 55.165,276.755C55.517,277.179 55.693,277.755 55.693,278.483L55.693,281.831L54.613,281.831L54.613,278.567C54.613,278.047 54.501,277.665 54.277,277.421C54.053,277.177 53.737,277.055 53.329,277.055C53.017,277.055 52.757,277.119 52.549,277.247C52.341,277.375 52.175,277.541 52.051,277.745C51.927,277.949 51.837,278.181 51.781,278.441C51.725,278.701 51.697,278.967 51.697,279.239L51.697,281.831L50.617,281.831Z" style="fill-rule:nonzero;"/>
        <g id="XY-Controls" serif:id="XY Controls">
            <g id="X">
                <path d="M19.806,81.501C19.918,81.629 20.044,81.759 20.184,81.891C20.324,82.023 20.482,82.141 20.658,82.245C20.834,82.349 21.03,82.433 21.246,82.497C21.462,82.561 21.698,82.593 21.954,82.593C22.482,82.593 22.894,82.473 23.19,82.233C23.486,81.993 23.634,81.669 23.634,81.261C23.634,80.821 23.466,80.491 23.13,80.271C22.794,80.051 22.31,79.873 21.678,79.737C21.334,79.665 21.022,79.565 20.742,79.437C20.462,79.309 20.22,79.149 20.016,78.957C19.812,78.765 19.654,78.543 19.542,78.291C19.43,78.039 19.374,77.753 19.374,77.433C19.374,77.137 19.43,76.857 19.542,76.593C19.654,76.329 19.822,76.097 20.046,75.897C20.27,75.697 20.55,75.537 20.886,75.417C21.222,75.297 21.61,75.237 22.05,75.237C22.442,75.237 22.78,75.279 23.064,75.363C23.348,75.447 23.59,75.549 23.79,75.669C23.99,75.789 24.15,75.913 24.27,76.041C24.39,76.169 24.482,76.273 24.546,76.353L23.778,77.061C23.73,77.005 23.658,76.931 23.562,76.839C23.466,76.747 23.344,76.657 23.196,76.569C23.048,76.481 22.876,76.407 22.68,76.347C22.484,76.287 22.258,76.257 22.002,76.257C21.746,76.257 21.526,76.291 21.342,76.359C21.158,76.427 21.006,76.515 20.886,76.623C20.766,76.731 20.678,76.853 20.622,76.989C20.566,77.125 20.538,77.261 20.538,77.397C20.538,77.597 20.58,77.767 20.664,77.907C20.748,78.047 20.87,78.171 21.03,78.279C21.19,78.387 21.388,78.479 21.624,78.555C21.86,78.631 22.13,78.705 22.434,78.777C22.73,78.849 23.02,78.943 23.304,79.059C23.588,79.175 23.842,79.331 24.066,79.527C24.29,79.723 24.468,79.963 24.6,80.247C24.732,80.531 24.798,80.877 24.798,81.285C24.798,81.629 24.726,81.945 24.582,82.233C24.438,82.521 24.24,82.771 23.988,82.983C23.736,83.195 23.438,83.359 23.094,83.475C22.75,83.591 22.378,83.649 21.978,83.649C21.602,83.649 21.26,83.605 20.952,83.517C20.644,83.429 20.364,83.317 20.112,83.181C19.86,83.045 19.64,82.895 19.452,82.731C19.264,82.567 19.11,82.405 18.99,82.245L19.806,81.501Z" style="fill-rule:nonzero;"/>
                <path d="M26.25,78.765L25.242,78.765L25.242,77.865L26.25,77.865L26.25,76.041L27.33,76.041L27.33,77.865L28.962,77.865L28.962,78.765L27.33,78.765L27.33,81.513C27.33,81.961 27.4,82.269 27.54,82.437C27.68,82.605 27.878,82.689 28.134,82.689C28.342,82.689 28.514,82.657 28.65,82.593C28.786,82.529 28.922,82.433 29.058,82.305L29.55,82.965C29.318,83.189 29.08,83.351 28.836,83.451C28.592,83.551 28.302,83.601 27.966,83.601C27.374,83.601 26.94,83.441 26.664,83.121C26.388,82.801 26.25,82.301 26.25,81.621L26.25,78.765Z" style="fill-rule:nonzero;"/>
                <path d="M35.382,82.629C35.318,82.701 35.222,82.793 35.094,82.905C34.966,83.017 34.8,83.125 34.596,83.229C34.392,83.333 34.152,83.423 33.876,83.499C33.6,83.575 33.286,83.613 32.934,83.613C32.502,83.613 32.106,83.541 31.746,83.397C31.386,83.253 31.078,83.049 30.822,82.785C30.566,82.521 30.368,82.205 30.228,81.837C30.088,81.469 30.018,81.061 30.018,80.613C30.018,80.205 30.086,79.823 30.222,79.467C30.358,79.111 30.55,78.803 30.798,78.543C31.046,78.283 31.34,78.077 31.68,77.925C32.02,77.773 32.394,77.697 32.802,77.697C33.282,77.697 33.694,77.789 34.038,77.973C34.382,78.157 34.664,78.401 34.884,78.705C35.104,79.009 35.266,79.357 35.37,79.749C35.474,80.141 35.526,80.549 35.526,80.973L31.122,80.973C31.13,81.221 31.184,81.449 31.284,81.657C31.384,81.865 31.518,82.045 31.686,82.197C31.854,82.349 32.046,82.469 32.262,82.557C32.478,82.645 32.706,82.689 32.946,82.689C33.418,82.689 33.806,82.609 34.11,82.449C34.414,82.289 34.634,82.133 34.77,81.981L35.382,82.629ZM34.41,80.169C34.378,79.737 34.226,79.369 33.954,79.065C33.682,78.761 33.298,78.609 32.802,78.609C32.546,78.609 32.316,78.653 32.112,78.741C31.908,78.829 31.734,78.945 31.59,79.089C31.446,79.233 31.334,79.399 31.254,79.587C31.174,79.775 31.13,79.969 31.122,80.169L34.41,80.169Z" style="fill-rule:nonzero;"/>
                <path d="M36.642,85.845L36.642,78.435C36.642,78.255 36.638,78.065 36.63,77.865L37.662,77.865L37.698,78.657C37.754,78.585 37.834,78.497 37.938,78.393C38.042,78.289 38.172,78.189 38.328,78.093C38.484,77.997 38.666,77.915 38.874,77.847C39.082,77.779 39.322,77.745 39.594,77.745C40.026,77.745 40.4,77.825 40.716,77.985C41.032,78.145 41.294,78.361 41.502,78.633C41.71,78.905 41.864,79.217 41.964,79.569C42.064,79.921 42.114,80.293 42.114,80.685C42.114,81.189 42.028,81.625 41.856,81.993C41.684,82.361 41.46,82.665 41.184,82.905C40.908,83.145 40.6,83.323 40.26,83.439C39.92,83.555 39.586,83.613 39.258,83.613C38.882,83.613 38.58,83.575 38.352,83.499C38.124,83.423 37.91,83.341 37.71,83.253L37.71,85.845L36.642,85.845ZM37.71,82.233C37.838,82.337 38.022,82.437 38.262,82.533C38.502,82.629 38.802,82.677 39.162,82.677C39.434,82.677 39.684,82.627 39.912,82.527C40.14,82.427 40.336,82.287 40.5,82.107C40.664,81.927 40.79,81.717 40.878,81.477C40.966,81.237 41.01,80.973 41.01,80.685C41.01,80.413 40.98,80.157 40.92,79.917C40.86,79.677 40.764,79.465 40.632,79.281C40.5,79.097 40.33,78.951 40.122,78.843C39.914,78.735 39.658,78.681 39.354,78.681C38.97,78.681 38.642,78.787 38.37,78.999C38.098,79.211 37.906,79.521 37.794,79.929C37.754,80.057 37.73,80.195 37.722,80.343C37.714,80.491 37.71,80.645 37.71,80.805L37.71,82.233Z" style="fill-rule:nonzero;"/>
                <path d="M43.614,82.041C43.814,82.241 44.054,82.401 44.334,82.521C44.614,82.641 44.938,82.701 45.306,82.701C45.666,82.701 45.966,82.643 46.206,82.527C46.446,82.411 46.566,82.229 46.566,81.981C46.566,81.853 46.54,81.743 46.488,81.651C46.436,81.559 46.348,81.477 46.224,81.405C46.1,81.333 45.936,81.267 45.732,81.207C45.528,81.147 45.274,81.081 44.97,81.009C44.754,80.961 44.54,80.897 44.328,80.817C44.116,80.737 43.926,80.631 43.758,80.499C43.59,80.367 43.454,80.207 43.35,80.019C43.246,79.831 43.194,79.605 43.194,79.341C43.194,79.069 43.256,78.831 43.38,78.627C43.504,78.423 43.67,78.251 43.878,78.111C44.086,77.971 44.32,77.865 44.58,77.793C44.84,77.721 45.11,77.685 45.39,77.685C45.862,77.685 46.268,77.747 46.608,77.871C46.948,77.995 47.246,78.169 47.502,78.393L46.914,79.137C46.746,78.985 46.536,78.857 46.284,78.753C46.032,78.649 45.738,78.597 45.402,78.597C45.058,78.597 44.782,78.653 44.574,78.765C44.366,78.877 44.262,79.061 44.262,79.317C44.262,79.557 44.4,79.735 44.676,79.851C44.952,79.967 45.314,80.077 45.762,80.181C46.026,80.245 46.272,80.319 46.5,80.403C46.728,80.487 46.928,80.595 47.1,80.727C47.272,80.859 47.408,81.021 47.508,81.213C47.608,81.405 47.658,81.637 47.658,81.909C47.658,82.189 47.594,82.435 47.466,82.647C47.338,82.859 47.166,83.037 46.95,83.181C46.734,83.325 46.486,83.433 46.206,83.505C45.926,83.577 45.634,83.613 45.33,83.613C44.274,83.613 43.482,83.329 42.954,82.761L43.614,82.041Z" style="fill-rule:nonzero;"/>
                <path d="M33.36,102.2L33.36,213.877" style="fill:none;stroke:black;stroke-width:1px;stroke-dasharray:2,2,0,0;"/>
                <rect x="19.9" y="165.031" width="2.216" height="0.943" style="fill-rule:nonzero;"/>
                <path d="M46.708,166.358L46.708,165.255L45.292,165.255L45.292,163.839L44.189,163.839L44.189,165.255L42.773,165.255L42.773,166.358L44.189,166.358L44.189,167.774L45.292,167.774L45.292,166.358L46.708,166.358Z" style="fill-rule:nonzero;"/>
            </g>
            <g id="Y">
                <path d="M73.27,75.441L74.542,75.441L76.078,81.897L77.818,75.681L78.934,75.681L80.638,81.885L82.174,75.441L83.374,75.441L81.226,83.445L80.002,83.445L78.334,77.529L76.618,83.445L75.406,83.445L73.27,75.441Z" style="fill-rule:nonzero;"/>
                <path d="M84.238,75.657L85.45,75.657L85.45,76.869L84.238,76.869L84.238,75.657ZM84.31,77.865L85.39,77.865L85.39,83.445L84.31,83.445L84.31,77.865Z" style="fill-rule:nonzero;"/>
                <path d="M90.862,79.101C90.782,79.037 90.634,78.951 90.418,78.843C90.202,78.735 89.894,78.681 89.494,78.681C89.23,78.681 88.988,78.729 88.768,78.825C88.548,78.921 88.356,79.057 88.192,79.233C88.028,79.409 87.9,79.625 87.808,79.881C87.716,80.137 87.67,80.425 87.67,80.745C87.67,81.009 87.702,81.259 87.766,81.495C87.83,81.731 87.928,81.937 88.06,82.113C88.192,82.289 88.36,82.427 88.564,82.527C88.768,82.627 89.01,82.677 89.29,82.677C89.57,82.677 89.81,82.625 90.01,82.521C90.21,82.417 90.372,82.287 90.496,82.131C90.62,81.975 90.712,81.803 90.772,81.615C90.832,81.427 90.862,81.253 90.862,81.093L90.862,79.101ZM90.862,82.737C90.822,82.785 90.756,82.859 90.664,82.959C90.572,83.059 90.45,83.157 90.298,83.253C90.146,83.349 89.968,83.433 89.764,83.505C89.56,83.577 89.322,83.613 89.05,83.613C88.698,83.613 88.37,83.545 88.066,83.409C87.762,83.273 87.498,83.081 87.274,82.833C87.05,82.585 86.876,82.283 86.752,81.927C86.628,81.571 86.566,81.173 86.566,80.733C86.566,80.205 86.658,79.751 86.842,79.371C87.026,78.991 87.26,78.679 87.544,78.435C87.828,78.191 88.136,78.013 88.468,77.901C88.8,77.789 89.114,77.733 89.41,77.733C89.81,77.733 90.122,77.781 90.346,77.877C90.57,77.973 90.742,78.045 90.862,78.093L90.862,75.441L91.942,75.441L91.942,82.875C91.942,83.055 91.946,83.245 91.954,83.445L90.898,83.445L90.862,82.737Z" style="fill-rule:nonzero;"/>
                <path d="M93.838,78.765L92.83,78.765L92.83,77.865L93.838,77.865L93.838,76.041L94.918,76.041L94.918,77.865L96.55,77.865L96.55,78.765L94.918,78.765L94.918,81.513C94.918,81.961 94.988,82.269 95.128,82.437C95.268,82.605 95.466,82.689 95.722,82.689C95.93,82.689 96.102,82.657 96.238,82.593C96.374,82.529 96.51,82.433 96.646,82.305L97.138,82.965C96.906,83.189 96.668,83.351 96.424,83.451C96.18,83.551 95.89,83.601 95.554,83.601C94.962,83.601 94.528,83.441 94.252,83.121C93.976,82.801 93.838,82.301 93.838,81.621L93.838,78.765Z" style="fill-rule:nonzero;"/>
                <path d="M97.87,75.441L98.938,75.441L98.938,78.693C99.01,78.597 99.098,78.493 99.202,78.381C99.306,78.269 99.434,78.165 99.586,78.069C99.738,77.973 99.914,77.893 100.114,77.829C100.314,77.765 100.542,77.733 100.798,77.733C101.526,77.733 102.066,77.945 102.418,78.369C102.77,78.793 102.946,79.369 102.946,80.097L102.946,83.445L101.866,83.445L101.866,80.181C101.866,79.661 101.754,79.279 101.53,79.035C101.306,78.791 100.99,78.669 100.582,78.669C100.27,78.669 100.01,78.733 99.802,78.861C99.594,78.989 99.428,79.155 99.304,79.359C99.18,79.563 99.09,79.795 99.034,80.055C98.978,80.315 98.95,80.581 98.95,80.853L98.95,83.445L97.87,83.445L97.87,75.441Z" style="fill-rule:nonzero;"/>
                <path d="M88.36,102.2L88.36,213.877" style="fill:none;stroke:black;stroke-width:1px;stroke-dasharray:2,2,0,0;"/>
                <rect x="74.9" y="165.031" width="2.216" height="0.943" style="fill-rule:nonzero;"/>
                <path d="M101.708,166.358L101.708,165.255L100.292,165.255L100.292,163.839L99.189,163.839L99.189,165.255L97.773,165.255L97.773,166.358L99.189,166.358L99.189,167.774L100.292,167.774L100.292,166.358L101.708,166.358Z" style="fill-rule:nonzero;"/>
            </g>
        </g>
        <g>
            <path d="M89.19,275.895L90.894,275.895C91.236,275.895 91.524,275.942 91.758,276.035C91.993,276.129 92.184,276.249 92.33,276.395C92.477,276.542 92.584,276.709 92.65,276.895C92.717,277.082 92.75,277.271 92.75,277.463C92.75,277.805 92.67,278.106 92.51,278.367C92.35,278.629 92.102,278.823 91.766,278.951L93.014,281.231L92.15,281.231L91.006,279.047L89.934,279.047L89.934,281.231L89.19,281.231L89.19,275.895ZM90.958,278.399C91.294,278.399 91.546,278.317 91.714,278.151C91.882,277.986 91.966,277.765 91.966,277.487C91.966,277.194 91.876,276.966 91.694,276.803C91.513,276.641 91.262,276.559 90.942,276.559L89.934,276.559L89.934,278.399L90.958,278.399Z" style="fill-rule:nonzero;"/>
            <path d="M96.218,279.471C96.197,279.466 96.156,279.459 96.094,279.451C96.033,279.443 95.962,279.437 95.882,279.431C95.802,279.426 95.717,279.421 95.626,279.415C95.536,279.41 95.448,279.407 95.362,279.407C95.16,279.407 94.996,279.431 94.87,279.479C94.745,279.527 94.646,279.587 94.574,279.659C94.502,279.731 94.453,279.811 94.426,279.899C94.4,279.987 94.386,280.071 94.386,280.151C94.386,280.354 94.456,280.507 94.594,280.611C94.733,280.715 94.925,280.767 95.17,280.767C95.309,280.767 95.441,280.743 95.566,280.695C95.692,280.647 95.802,280.583 95.898,280.503C95.994,280.423 96.072,280.33 96.13,280.223C96.189,280.117 96.218,280.007 96.218,279.895L96.218,279.471ZM96.226,280.783C96.088,280.97 95.905,281.109 95.678,281.199C95.452,281.29 95.218,281.335 94.978,281.335C94.824,281.335 94.67,281.315 94.518,281.275C94.366,281.235 94.228,281.169 94.102,281.075C93.977,280.982 93.876,280.862 93.798,280.715C93.721,280.569 93.682,280.389 93.682,280.175C93.682,279.775 93.822,279.455 94.102,279.215C94.382,278.975 94.786,278.855 95.314,278.855C95.4,278.855 95.49,278.858 95.586,278.863C95.682,278.869 95.773,278.874 95.858,278.879C95.944,278.885 96.018,278.89 96.082,278.895C96.146,278.901 96.192,278.906 96.218,278.911L96.218,278.775C96.218,278.498 96.134,278.299 95.966,278.179C95.798,278.059 95.57,277.999 95.282,277.999C95,277.999 94.776,278.038 94.61,278.115C94.445,278.193 94.306,278.271 94.194,278.351L93.858,277.863C93.922,277.81 94,277.757 94.09,277.703C94.181,277.65 94.288,277.601 94.41,277.555C94.533,277.51 94.672,277.473 94.826,277.443C94.981,277.414 95.16,277.399 95.362,277.399C95.842,277.399 96.22,277.515 96.494,277.747C96.769,277.979 96.906,278.309 96.906,278.735L96.906,280.899C96.906,281.03 96.909,281.141 96.914,281.231L96.242,281.231L96.226,280.783Z" style="fill-rule:nonzero;"/>
            <path d="M97.662,277.511L98.454,277.511L99.286,280.351L100.182,277.511L100.798,277.511L101.694,280.375L102.51,277.511L103.254,277.511L102.022,281.231L101.31,281.231L100.446,278.631L99.59,281.231L98.918,281.231L97.662,277.511Z" style="fill-rule:nonzero;"/>
            <path d="M85.65,244.709C85.725,244.795 85.809,244.881 85.902,244.969C85.996,245.057 86.101,245.136 86.218,245.205C86.336,245.275 86.466,245.331 86.61,245.373C86.754,245.416 86.912,245.437 87.082,245.437C87.434,245.437 87.709,245.357 87.906,245.197C88.104,245.037 88.202,244.821 88.202,244.549C88.202,244.256 88.09,244.036 87.866,243.889C87.642,243.743 87.32,243.624 86.898,243.533C86.669,243.485 86.461,243.419 86.274,243.333C86.088,243.248 85.926,243.141 85.79,243.013C85.654,242.885 85.549,242.737 85.474,242.569C85.4,242.401 85.362,242.211 85.362,241.997C85.362,241.8 85.4,241.613 85.474,241.437C85.549,241.261 85.661,241.107 85.81,240.973C85.96,240.84 86.146,240.733 86.37,240.653C86.594,240.573 86.853,240.533 87.146,240.533C87.408,240.533 87.633,240.561 87.822,240.617C88.012,240.673 88.173,240.741 88.306,240.821C88.44,240.901 88.546,240.984 88.626,241.069C88.706,241.155 88.768,241.224 88.81,241.277L88.298,241.749C88.266,241.712 88.218,241.663 88.154,241.601C88.09,241.54 88.009,241.48 87.91,241.421C87.812,241.363 87.697,241.313 87.566,241.273C87.436,241.233 87.285,241.213 87.114,241.213C86.944,241.213 86.797,241.236 86.674,241.281C86.552,241.327 86.45,241.385 86.37,241.457C86.29,241.529 86.232,241.611 86.194,241.701C86.157,241.792 86.138,241.883 86.138,241.973C86.138,242.107 86.166,242.22 86.222,242.313C86.278,242.407 86.36,242.489 86.466,242.561C86.573,242.633 86.705,242.695 86.862,242.745C87.02,242.796 87.2,242.845 87.402,242.893C87.6,242.941 87.793,243.004 87.982,243.081C88.172,243.159 88.341,243.263 88.49,243.393C88.64,243.524 88.758,243.684 88.846,243.873C88.934,244.063 88.978,244.293 88.978,244.565C88.978,244.795 88.93,245.005 88.834,245.197C88.738,245.389 88.606,245.556 88.438,245.697C88.27,245.839 88.072,245.948 87.842,246.025C87.613,246.103 87.365,246.141 87.098,246.141C86.848,246.141 86.62,246.112 86.414,246.053C86.209,245.995 86.022,245.92 85.854,245.829C85.686,245.739 85.54,245.639 85.414,245.529C85.289,245.42 85.186,245.312 85.106,245.205L85.65,244.709Z" style="fill-rule:nonzero;"/>
            <path d="M90.062,246.005L90.062,242.665C90.062,242.545 90.06,242.419 90.054,242.285L90.742,242.285L90.766,242.845C90.809,242.781 90.865,242.711 90.934,242.633C91.004,242.556 91.086,242.485 91.182,242.421C91.278,242.357 91.392,242.304 91.522,242.261C91.653,242.219 91.804,242.197 91.974,242.197C92.262,242.197 92.501,242.255 92.69,242.369C92.88,242.484 93.028,242.651 93.134,242.869C93.284,242.693 93.466,242.537 93.682,242.401C93.898,242.265 94.166,242.197 94.486,242.197C94.966,242.197 95.321,242.34 95.55,242.625C95.78,242.911 95.894,243.293 95.894,243.773L95.894,246.005L95.174,246.005L95.174,243.829C95.174,243.483 95.106,243.228 94.97,243.065C94.834,242.903 94.636,242.821 94.374,242.821C94.225,242.821 94.088,242.852 93.962,242.913C93.837,242.975 93.728,243.056 93.634,243.157C93.541,243.259 93.469,243.377 93.418,243.513C93.368,243.649 93.342,243.792 93.342,243.941L93.342,246.005L92.622,246.005L92.622,243.829C92.622,243.483 92.554,243.228 92.418,243.065C92.282,242.903 92.086,242.821 91.83,242.821C91.633,242.821 91.468,242.864 91.334,242.949C91.201,243.035 91.093,243.145 91.01,243.281C90.928,243.417 90.869,243.573 90.834,243.749C90.8,243.925 90.782,244.101 90.782,244.277L90.782,246.005L90.062,246.005Z" style="fill-rule:nonzero;"/>
            <path d="M99.442,244.245C99.421,244.24 99.38,244.233 99.318,244.225C99.257,244.217 99.186,244.211 99.106,244.205C99.026,244.2 98.941,244.195 98.85,244.189C98.76,244.184 98.672,244.181 98.586,244.181C98.384,244.181 98.22,244.205 98.094,244.253C97.969,244.301 97.87,244.361 97.798,244.433C97.726,244.505 97.677,244.585 97.65,244.673C97.624,244.761 97.61,244.845 97.61,244.925C97.61,245.128 97.68,245.281 97.818,245.385C97.957,245.489 98.149,245.541 98.394,245.541C98.533,245.541 98.665,245.517 98.79,245.469C98.916,245.421 99.026,245.357 99.122,245.277C99.218,245.197 99.296,245.104 99.354,244.997C99.413,244.891 99.442,244.781 99.442,244.669L99.442,244.245ZM99.45,245.557C99.312,245.744 99.129,245.883 98.902,245.973C98.676,246.064 98.442,246.109 98.202,246.109C98.048,246.109 97.894,246.089 97.742,246.049C97.59,246.009 97.452,245.943 97.326,245.849C97.201,245.756 97.1,245.636 97.022,245.489C96.945,245.343 96.906,245.163 96.906,244.949C96.906,244.549 97.046,244.229 97.326,243.989C97.606,243.749 98.01,243.629 98.538,243.629C98.624,243.629 98.714,243.632 98.81,243.637C98.906,243.643 98.997,243.648 99.082,243.653C99.168,243.659 99.242,243.664 99.306,243.669C99.37,243.675 99.416,243.68 99.442,243.685L99.442,243.549C99.442,243.272 99.358,243.073 99.19,242.953C99.022,242.833 98.794,242.773 98.506,242.773C98.224,242.773 98,242.812 97.834,242.889C97.669,242.967 97.53,243.045 97.418,243.125L97.082,242.637C97.146,242.584 97.224,242.531 97.314,242.477C97.405,242.424 97.512,242.375 97.634,242.329C97.757,242.284 97.896,242.247 98.05,242.217C98.205,242.188 98.384,242.173 98.586,242.173C99.066,242.173 99.444,242.289 99.718,242.521C99.993,242.753 100.13,243.083 100.13,243.509L100.13,245.673C100.13,245.804 100.133,245.915 100.138,246.005L99.466,246.005L99.45,245.557Z" style="fill-rule:nonzero;"/>
            <path d="M101.374,246.005L101.374,242.641C101.374,242.527 101.372,242.408 101.366,242.285L102.054,242.285L102.078,242.885C102.121,242.821 102.177,242.751 102.246,242.673C102.316,242.596 102.4,242.525 102.498,242.461C102.597,242.397 102.712,242.343 102.842,242.297C102.973,242.252 103.124,242.229 103.294,242.229C103.374,242.229 103.448,242.235 103.514,242.245C103.581,242.256 103.644,242.272 103.702,242.293L103.542,242.965C103.446,242.928 103.324,242.909 103.174,242.909C103.02,242.909 102.877,242.939 102.746,242.997C102.616,243.056 102.502,243.137 102.406,243.241C102.31,243.345 102.234,243.467 102.178,243.605C102.122,243.744 102.094,243.891 102.094,244.045L102.094,246.005L101.374,246.005Z" style="fill-rule:nonzero;"/>
            <path d="M104.866,242.885L104.194,242.885L104.194,242.285L104.866,242.285L104.866,241.069L105.586,241.069L105.586,242.285L106.674,242.285L106.674,242.885L105.586,242.885L105.586,244.717C105.586,245.016 105.633,245.221 105.726,245.333C105.82,245.445 105.952,245.501 106.122,245.501C106.261,245.501 106.376,245.48 106.466,245.437C106.557,245.395 106.648,245.331 106.738,245.245L107.066,245.685C106.912,245.835 106.753,245.943 106.59,246.009C106.428,246.076 106.234,246.109 106.01,246.109C105.616,246.109 105.326,246.003 105.142,245.789C104.958,245.576 104.866,245.243 104.866,244.789L104.866,242.885Z" style="fill-rule:nonzero;"/>
            <g transform="matrix(1,0,0,1,19.0004,61.9149)">
                <g transform="matrix(8,0,0,8,47.9766,197.497)">
                    <path d="M0.417,-0.339L0.651,-0.339L0.651,-0.073C0.638,-0.062 0.624,-0.051 0.608,-0.04C0.591,-0.029 0.572,-0.02 0.551,-0.012C0.529,-0.003 0.505,0.003 0.478,0.008C0.451,0.013 0.421,0.016 0.388,0.016C0.336,0.016 0.289,0.007 0.248,-0.011C0.206,-0.028 0.17,-0.053 0.141,-0.084C0.111,-0.115 0.088,-0.151 0.073,-0.194C0.057,-0.236 0.049,-0.282 0.049,-0.332C0.049,-0.381 0.057,-0.426 0.074,-0.469C0.09,-0.512 0.113,-0.549 0.142,-0.581C0.171,-0.612 0.206,-0.637 0.248,-0.656C0.289,-0.674 0.334,-0.683 0.384,-0.683C0.419,-0.683 0.451,-0.679 0.479,-0.671C0.507,-0.662 0.532,-0.652 0.553,-0.639C0.574,-0.625 0.591,-0.611 0.606,-0.596C0.621,-0.581 0.633,-0.566 0.643,-0.552L0.575,-0.494C0.567,-0.505 0.557,-0.517 0.546,-0.53C0.535,-0.542 0.521,-0.553 0.506,-0.563C0.491,-0.573 0.473,-0.581 0.454,-0.588C0.434,-0.595 0.411,-0.598 0.386,-0.598C0.349,-0.598 0.316,-0.591 0.287,-0.577C0.258,-0.563 0.233,-0.544 0.213,-0.52C0.192,-0.496 0.177,-0.468 0.166,-0.436C0.155,-0.403 0.149,-0.369 0.149,-0.333C0.149,-0.294 0.155,-0.259 0.167,-0.227C0.179,-0.195 0.196,-0.168 0.218,-0.145C0.239,-0.122 0.265,-0.103 0.294,-0.091C0.323,-0.078 0.356,-0.071 0.391,-0.071C0.43,-0.071 0.463,-0.075 0.49,-0.084C0.517,-0.093 0.54,-0.105 0.559,-0.12L0.559,-0.256L0.417,-0.256L0.417,-0.339Z" style="fill-rule:nonzero;"/>
                </g>
                <g transform="matrix(8,0,0,8,53.7566,197.497)">
                    <path d="M0.352,-0.22C0.349,-0.221 0.344,-0.222 0.337,-0.223C0.329,-0.224 0.32,-0.224 0.31,-0.225C0.3,-0.226 0.289,-0.226 0.278,-0.227C0.267,-0.228 0.256,-0.228 0.245,-0.228C0.22,-0.228 0.199,-0.225 0.184,-0.219C0.168,-0.213 0.156,-0.205 0.147,-0.197C0.138,-0.188 0.131,-0.178 0.128,-0.167C0.125,-0.156 0.123,-0.145 0.123,-0.135C0.123,-0.11 0.132,-0.091 0.149,-0.078C0.166,-0.065 0.19,-0.058 0.221,-0.058C0.238,-0.058 0.255,-0.061 0.271,-0.067C0.286,-0.073 0.3,-0.081 0.312,-0.091C0.324,-0.101 0.334,-0.113 0.341,-0.126C0.348,-0.139 0.352,-0.153 0.352,-0.167L0.352,-0.22ZM0.353,-0.056C0.336,-0.033 0.313,-0.015 0.284,-0.004C0.256,0.007 0.227,0.013 0.197,0.013C0.178,0.013 0.159,0.01 0.14,0.005C0.121,0 0.103,-0.008 0.087,-0.02C0.072,-0.031 0.059,-0.046 0.05,-0.065C0.04,-0.083 0.035,-0.105 0.035,-0.132C0.035,-0.182 0.053,-0.222 0.087,-0.252C0.123,-0.282 0.173,-0.297 0.239,-0.297C0.25,-0.297 0.261,-0.297 0.273,-0.296C0.285,-0.295 0.296,-0.295 0.307,-0.294C0.318,-0.293 0.327,-0.293 0.335,-0.292C0.343,-0.291 0.349,-0.291 0.352,-0.29L0.352,-0.307C0.352,-0.342 0.342,-0.367 0.321,-0.382C0.3,-0.397 0.271,-0.404 0.235,-0.404C0.2,-0.404 0.172,-0.399 0.151,-0.39C0.13,-0.38 0.113,-0.37 0.099,-0.36L0.057,-0.421C0.065,-0.428 0.075,-0.434 0.086,-0.441C0.097,-0.448 0.111,-0.454 0.126,-0.46C0.141,-0.465 0.159,-0.47 0.178,-0.473C0.197,-0.477 0.22,-0.479 0.245,-0.479C0.305,-0.479 0.352,-0.465 0.387,-0.436C0.421,-0.406 0.438,-0.365 0.438,-0.312L0.438,-0.042C0.438,-0.025 0.438,-0.011 0.439,-0L0.355,-0L0.353,-0.056Z" style="fill-rule:nonzero;"/>
                </g>
                <g transform="matrix(8,0,0,8,57.7606,197.497)">
                    <path d="M0.102,-0.39L0.018,-0.39L0.018,-0.465L0.102,-0.465L0.102,-0.617L0.192,-0.617L0.192,-0.465L0.328,-0.465L0.328,-0.39L0.192,-0.39L0.192,-0.161C0.192,-0.124 0.198,-0.098 0.21,-0.084C0.221,-0.07 0.238,-0.063 0.259,-0.063C0.276,-0.063 0.291,-0.066 0.302,-0.071C0.313,-0.076 0.325,-0.084 0.336,-0.095L0.377,-0.04C0.358,-0.021 0.338,-0.008 0.318,0C0.297,0.009 0.273,0.013 0.245,0.013C0.196,0.013 0.16,-0 0.137,-0.027C0.114,-0.054 0.102,-0.095 0.102,-0.152L0.102,-0.39Z" style="fill-rule:nonzero;"/>
                </g>
                <g transform="matrix(8,0,0,8,60.8446,197.497)">
                    <path d="M0.486,-0.068C0.481,-0.062 0.473,-0.054 0.462,-0.045C0.451,-0.036 0.438,-0.027 0.421,-0.018C0.404,-0.009 0.384,-0.002 0.361,0.004C0.338,0.011 0.311,0.014 0.282,0.014C0.246,0.014 0.213,0.008 0.183,-0.004C0.153,-0.016 0.127,-0.033 0.106,-0.055C0.085,-0.077 0.068,-0.103 0.057,-0.134C0.045,-0.165 0.039,-0.199 0.039,-0.236C0.039,-0.27 0.045,-0.302 0.056,-0.332C0.067,-0.361 0.083,-0.387 0.104,-0.408C0.125,-0.43 0.149,-0.447 0.178,-0.46C0.206,-0.473 0.237,-0.479 0.271,-0.479C0.311,-0.479 0.345,-0.471 0.374,-0.456C0.403,-0.441 0.426,-0.42 0.445,-0.395C0.463,-0.37 0.476,-0.341 0.485,-0.308C0.494,-0.275 0.498,-0.241 0.498,-0.206L0.131,-0.206C0.132,-0.185 0.136,-0.166 0.145,-0.149C0.153,-0.132 0.164,-0.117 0.178,-0.104C0.192,-0.091 0.208,-0.081 0.226,-0.074C0.244,-0.067 0.263,-0.063 0.283,-0.063C0.322,-0.063 0.355,-0.07 0.38,-0.083C0.405,-0.096 0.424,-0.109 0.435,-0.122L0.486,-0.068ZM0.405,-0.273C0.402,-0.309 0.39,-0.34 0.367,-0.365C0.344,-0.39 0.312,-0.403 0.271,-0.403C0.25,-0.403 0.231,-0.399 0.214,-0.392C0.197,-0.385 0.182,-0.375 0.17,-0.363C0.158,-0.351 0.149,-0.337 0.142,-0.322C0.135,-0.306 0.132,-0.29 0.131,-0.273L0.405,-0.273Z" style="fill-rule:nonzero;"/>
                </g>
                <g transform="matrix(8,0,0,8,39.5606,207.247)">
                    <path d="M0.389,0.017C0.341,0.017 0.296,0.008 0.255,-0.011C0.214,-0.029 0.178,-0.054 0.147,-0.086C0.116,-0.117 0.092,-0.154 0.075,-0.197C0.058,-0.24 0.049,-0.285 0.049,-0.334C0.049,-0.383 0.058,-0.428 0.075,-0.47C0.092,-0.513 0.116,-0.55 0.147,-0.582C0.177,-0.613 0.213,-0.638 0.255,-0.657C0.296,-0.675 0.341,-0.684 0.389,-0.684C0.437,-0.684 0.482,-0.675 0.524,-0.657C0.565,-0.638 0.601,-0.613 0.632,-0.582C0.663,-0.55 0.687,-0.513 0.704,-0.47C0.721,-0.428 0.73,-0.383 0.73,-0.334C0.73,-0.285 0.721,-0.24 0.704,-0.197C0.687,-0.154 0.663,-0.117 0.632,-0.086C0.601,-0.054 0.565,-0.029 0.524,-0.011C0.482,0.008 0.437,0.017 0.389,0.017ZM0.389,-0.073C0.426,-0.073 0.459,-0.08 0.489,-0.094C0.518,-0.108 0.544,-0.127 0.565,-0.151C0.586,-0.175 0.602,-0.203 0.613,-0.234C0.624,-0.266 0.63,-0.3 0.63,-0.335C0.63,-0.371 0.624,-0.405 0.613,-0.437C0.602,-0.468 0.586,-0.496 0.565,-0.52C0.544,-0.544 0.518,-0.563 0.489,-0.577C0.459,-0.59 0.426,-0.597 0.389,-0.597C0.352,-0.597 0.319,-0.59 0.29,-0.577C0.261,-0.563 0.235,-0.544 0.215,-0.52C0.194,-0.496 0.177,-0.468 0.166,-0.437C0.155,-0.405 0.149,-0.371 0.149,-0.335C0.149,-0.3 0.155,-0.266 0.166,-0.234C0.177,-0.203 0.194,-0.175 0.215,-0.151C0.235,-0.127 0.261,-0.108 0.29,-0.094C0.319,-0.08 0.352,-0.073 0.389,-0.073Z" style="fill-rule:nonzero;"/>
                </g>
                <g transform="matrix(8,0,0,8,45.8046,207.247)">
                    <path d="M0.059,-0.465L0.149,-0.465L0.149,-0.192C0.149,-0.148 0.158,-0.116 0.176,-0.097C0.194,-0.077 0.22,-0.067 0.254,-0.067C0.28,-0.067 0.302,-0.072 0.319,-0.083C0.336,-0.094 0.349,-0.108 0.36,-0.125C0.371,-0.141 0.378,-0.161 0.383,-0.183C0.387,-0.204 0.389,-0.226 0.389,-0.249L0.389,-0.465L0.479,-0.465L0.479,-0.048C0.479,-0.033 0.479,-0.017 0.48,-0L0.394,-0L0.391,-0.069C0.385,-0.061 0.378,-0.052 0.369,-0.043C0.36,-0.034 0.35,-0.025 0.337,-0.018C0.324,-0.01 0.31,-0.003 0.293,0.002C0.276,0.007 0.257,0.01 0.236,0.01C0.175,0.01 0.131,-0.008 0.102,-0.043C0.073,-0.078 0.059,-0.125 0.059,-0.186L0.059,-0.465Z" style="fill-rule:nonzero;"/>
                </g>
                <g transform="matrix(8,0,0,8,50.1526,207.247)">
                    <path d="M0.102,-0.39L0.018,-0.39L0.018,-0.465L0.102,-0.465L0.102,-0.617L0.192,-0.617L0.192,-0.465L0.328,-0.465L0.328,-0.39L0.192,-0.39L0.192,-0.161C0.192,-0.124 0.198,-0.098 0.21,-0.084C0.221,-0.07 0.238,-0.063 0.259,-0.063C0.276,-0.063 0.291,-0.066 0.302,-0.071C0.313,-0.076 0.325,-0.084 0.336,-0.095L0.377,-0.04C0.358,-0.021 0.338,-0.008 0.318,0C0.297,0.009 0.273,0.013 0.245,0.013C0.196,0.013 0.16,-0 0.137,-0.027C0.114,-0.054 0.102,-0.095 0.102,-0.152L0.102,-0.39Z" style="fill-rule:nonzero;"/>
                </g>
                <g transform="matrix(8,0,0,8,53.2366,207.247)">
                    <path d="M0.062,0.2L0.062,-0.418C0.062,-0.433 0.062,-0.448 0.061,-0.465L0.147,-0.465L0.15,-0.399C0.155,-0.405 0.161,-0.412 0.17,-0.421C0.179,-0.43 0.19,-0.438 0.203,-0.446C0.216,-0.454 0.231,-0.461 0.248,-0.467C0.265,-0.472 0.285,-0.475 0.308,-0.475C0.344,-0.475 0.375,-0.468 0.402,-0.455C0.428,-0.442 0.45,-0.424 0.467,-0.401C0.484,-0.378 0.497,-0.352 0.505,-0.323C0.514,-0.294 0.518,-0.263 0.518,-0.23C0.518,-0.188 0.511,-0.152 0.497,-0.121C0.482,-0.09 0.464,-0.065 0.441,-0.045C0.418,-0.025 0.392,-0.01 0.364,-0.001C0.335,0.009 0.307,0.014 0.28,0.014C0.249,0.014 0.224,0.011 0.204,0.004C0.186,-0.002 0.168,-0.009 0.151,-0.016L0.151,0.2L0.062,0.2ZM0.151,-0.101C0.162,-0.092 0.177,-0.084 0.197,-0.076C0.217,-0.068 0.242,-0.064 0.272,-0.064C0.295,-0.064 0.316,-0.068 0.335,-0.077C0.354,-0.085 0.37,-0.097 0.384,-0.112C0.397,-0.127 0.408,-0.144 0.415,-0.164C0.422,-0.184 0.426,-0.206 0.426,-0.23C0.426,-0.253 0.424,-0.274 0.419,-0.294C0.413,-0.314 0.406,-0.332 0.395,-0.347C0.384,-0.362 0.369,-0.375 0.352,-0.384C0.335,-0.393 0.313,-0.397 0.288,-0.397C0.256,-0.397 0.229,-0.388 0.206,-0.371C0.183,-0.353 0.167,-0.327 0.158,-0.293C0.155,-0.282 0.153,-0.271 0.152,-0.259C0.151,-0.246 0.151,-0.233 0.151,-0.22L0.151,-0.101Z" style="fill-rule:nonzero;"/>
                </g>
                <g transform="matrix(8,0,0,8,57.7126,207.247)">
                    <path d="M0.059,-0.465L0.149,-0.465L0.149,-0.192C0.149,-0.148 0.158,-0.116 0.176,-0.097C0.194,-0.077 0.22,-0.067 0.254,-0.067C0.28,-0.067 0.302,-0.072 0.319,-0.083C0.336,-0.094 0.349,-0.108 0.36,-0.125C0.371,-0.141 0.378,-0.161 0.383,-0.183C0.387,-0.204 0.389,-0.226 0.389,-0.249L0.389,-0.465L0.479,-0.465L0.479,-0.048C0.479,-0.033 0.479,-0.017 0.48,-0L0.394,-0L0.391,-0.069C0.385,-0.061 0.378,-0.052 0.369,-0.043C0.36,-0.034 0.35,-0.025 0.337,-0.018C0.324,-0.01 0.31,-0.003 0.293,0.002C0.276,0.007 0.257,0.01 0.236,0.01C0.175,0.01 0.131,-0.008 0.102,-0.043C0.073,-0.078 0.059,-0.125 0.059,-0.186L0.059,-0.465Z" style="fill-rule:nonzero;"/>
                </g>
                <g transform="matrix(8,0,0,8,62.0606,207.247)">
                    <path d="M0.102,-0.39L0.018,-0.39L0.018,-0.465L0.102,-0.465L0.102,-0.617L0.192,-0.617L0.192,-0.465L0.328,-0.465L0.328,-0.39L0.192,-0.39L0.192,-0.161C0.192,-0.124 0.198,-0.098 0.21,-0.084C0.221,-0.07 0.238,-0.063 0.259,-0.063C0.276,-0.063 0.291,-0.066 0.302,-0.071C0.313,-0.076 0.325,-0.084 0.336,-0.095L0.377,-0.04C0.358,-0.021 0.338,-0.008 0.318,0C0.297,0.009 0.273,0.013 0.245,0.013C0.196,0.013 0.16,-0 0.137,-0.027C0.114,-0.054 0.102,-0.095 0.102,-0.152L0.102,-0.39Z" style="fill-rule:nonzero;"/>
                </g>
            </g>
        </g>
    </g>
</svg>
