<?xml version="1.0" encoding="UTF-8" standalone="no"?>
<!DOCTYPE svg PUBLIC "-//W3C//DTD SVG 1.1//EN" "http://www.w3.org/Graphics/SVG/1.1/DTD/svg11.dtd">
<svg width="100%" height="100%" viewBox="0 0 360 380" version="1.1" xmlns="http://www.w3.org/2000/svg" xmlns:xlink="http://www.w3.org/1999/xlink" xml:space="preserve" xmlns:serif="http://www.serif.com/" style="fill-rule:evenodd;clip-rule:evenodd;stroke-linecap:round;stroke-linejoin:round;stroke-miterlimit:1.5;">
    <g id="svg8">
        <rect x="0" y="0" width="360" height="380" style="fill:rgb(240,240,240);"/>
        <g id="HCV-Logo" serif:id="HCV Logo">
            <path d="M159.81,374.578L158.204,374.578L158.204,369.247L152.128,369.247L152.128,374.578L150.522,374.578L150.522,363.154L152.128,363.154L152.128,367.873L158.204,367.873L158.204,363.154L159.81,363.154L159.81,374.578Z" style="fill:rgb(35,31,32);fill-rule:nonzero;"/>
            <path d="M168.018,374.578L161.197,374.578L161.197,363.154L167.886,363.154L167.886,364.496L162.803,364.496L162.803,367.906L167.604,367.906L167.604,369.247L162.803,369.247L162.803,373.221L168.018,373.221L168.018,374.578Z" style="fill:rgb(35,31,32);fill-rule:nonzero;"/>
            <path d="M176.891,364.496L173.679,364.496L173.679,374.578L172.073,374.578L172.073,364.496L168.845,364.496L168.845,363.154L176.891,363.154L176.891,364.496Z" style="fill:rgb(35,31,32);fill-rule:nonzero;"/>
            <path d="M182.601,364.877C182.088,364.496 181.475,364.463 180.681,364.463L179.505,364.463L179.505,368.337L180.681,368.337C181.475,368.337 182.088,368.304 182.601,367.94C183.115,367.559 183.33,367.095 183.33,366.399C183.33,365.721 183.115,365.241 182.601,364.877M185.648,374.578L183.71,374.578L180.73,369.661L179.505,369.661L179.505,374.578L177.899,374.578L177.899,363.154L181.127,363.154C182.27,363.154 183.197,363.42 183.876,363.949C184.555,364.496 184.985,365.323 184.985,366.366C184.985,368.37 183.594,369.264 182.386,369.496L185.648,374.578Z" style="fill:rgb(35,31,32);fill-rule:nonzero;"/>
            <rect x="186.84" y="363.154" width="1.605" height="11.424" style="fill:rgb(35,31,32);"/>
            <path d="M199.568,373.088C198.856,373.883 197.565,374.777 195.396,374.777C192.068,374.777 189.551,372.442 189.551,368.883C189.551,365.323 192.118,362.989 195.396,362.989C197.532,362.989 198.823,363.883 199.452,364.496L198.773,365.787C198.327,365.225 197.051,364.397 195.463,364.397C192.996,364.397 191.208,366.168 191.208,368.85C191.208,371.532 193.012,373.304 195.463,373.304C196.968,373.304 198.128,372.725 198.873,371.913L199.568,373.088Z" style="fill:rgb(237,50,36);fill-rule:nonzero;"/>
            <path d="M209.478,374.578L207.525,374.578L203.733,368.849L202.558,370.042L202.558,374.578L200.952,374.578L200.952,363.154L202.558,363.154L202.558,368.022L207.21,363.154L209.164,363.154L204.809,367.658L209.478,374.578Z" style="fill:rgb(237,50,36);fill-rule:nonzero;"/>
            <path d="M209.478,374.578L207.525,374.578L203.733,368.849L202.558,370.042L202.558,374.578L200.952,374.578L200.952,370.019L202.558,370.042L203.733,368.849L204.809,367.658L205.426,368.571L205.923,369.308L209.478,374.578Z" style="fill-rule:nonzero;"/>
        </g>
        <path d="M77.369,16.831L81.167,16.831C81.983,16.831 82.658,16.945 83.192,17.173C83.726,17.401 84.152,17.689 84.47,18.037C84.788,18.385 85.01,18.775 85.136,19.207C85.262,19.639 85.325,20.059 85.325,20.467C85.325,21.067 85.223,21.595 85.019,22.051C84.815,22.507 84.533,22.888 84.173,23.194C83.813,23.5 83.384,23.731 82.886,23.887C82.388,24.043 81.845,24.121 81.257,24.121L79.079,24.121L79.079,28.837L77.369,28.837L77.369,16.831ZM81.239,22.645C81.983,22.645 82.556,22.456 82.958,22.078C83.36,21.7 83.561,21.175 83.561,20.503C83.561,19.819 83.354,19.282 82.94,18.892C82.526,18.502 81.959,18.307 81.239,18.307L79.079,18.307L79.079,22.645L81.239,22.645Z" style="fill-rule:nonzero;"/>
        <path d="M86.749,16.831L88.351,16.831L88.351,21.709C88.459,21.565 88.591,21.409 88.747,21.241C88.903,21.073 89.095,20.917 89.323,20.773C89.551,20.629 89.815,20.509 90.115,20.413C90.415,20.317 90.757,20.269 91.141,20.269C92.233,20.269 93.043,20.587 93.571,21.223C94.099,21.859 94.363,22.723 94.363,23.815L94.363,28.837L92.743,28.837L92.743,23.941C92.743,23.161 92.575,22.588 92.239,22.222C91.903,21.856 91.429,21.673 90.817,21.673C90.349,21.673 89.959,21.769 89.647,21.961C89.335,22.153 89.086,22.402 88.9,22.708C88.714,23.014 88.579,23.362 88.495,23.752C88.411,24.142 88.369,24.541 88.369,24.949L88.369,28.837L86.749,28.837L86.749,16.831Z" style="fill-rule:nonzero;"/>
        <path d="M101.583,24.877C101.535,24.865 101.442,24.85 101.304,24.832C101.166,24.814 101.007,24.799 100.827,24.787C100.647,24.775 100.455,24.763 100.251,24.751C100.047,24.739 99.849,24.733 99.657,24.733C99.201,24.733 98.832,24.787 98.55,24.895C98.268,25.003 98.046,25.138 97.884,25.3C97.722,25.462 97.611,25.642 97.551,25.84C97.491,26.038 97.461,26.227 97.461,26.407C97.461,26.863 97.617,27.208 97.929,27.442C98.241,27.676 98.673,27.793 99.225,27.793C99.537,27.793 99.834,27.739 100.116,27.631C100.398,27.523 100.647,27.379 100.863,27.199C101.079,27.019 101.253,26.809 101.385,26.569C101.517,26.329 101.583,26.083 101.583,25.831L101.583,24.877ZM101.601,27.829C101.289,28.249 100.878,28.561 100.368,28.765C99.858,28.969 99.333,29.071 98.793,29.071C98.445,29.071 98.1,29.026 97.758,28.936C97.416,28.846 97.104,28.696 96.822,28.486C96.54,28.276 96.312,28.006 96.138,27.676C95.964,27.346 95.877,26.941 95.877,26.461C95.877,25.561 96.192,24.841 96.822,24.301C97.452,23.761 98.361,23.491 99.549,23.491C99.741,23.491 99.945,23.497 100.161,23.509C100.377,23.521 100.581,23.533 100.773,23.545C100.965,23.557 101.133,23.569 101.277,23.581C101.421,23.593 101.523,23.605 101.583,23.617L101.583,23.311C101.583,22.687 101.394,22.24 101.016,21.97C100.638,21.7 100.125,21.565 99.477,21.565C98.841,21.565 98.337,21.652 97.965,21.826C97.593,22 97.281,22.177 97.029,22.357L96.273,21.259C96.417,21.139 96.591,21.019 96.795,20.899C96.999,20.779 97.239,20.668 97.515,20.566C97.791,20.464 98.103,20.38 98.451,20.314C98.799,20.248 99.201,20.215 99.657,20.215C100.737,20.215 101.586,20.476 102.204,20.998C102.822,21.52 103.131,22.261 103.131,23.221L103.131,28.09C103.131,28.384 103.137,28.633 103.149,28.837L101.637,28.837L101.601,27.829Z" style="fill-rule:nonzero;"/>
        <path d="M105.707,26.731C106.007,27.031 106.367,27.271 106.787,27.451C107.207,27.631 107.693,27.721 108.245,27.721C108.785,27.721 109.235,27.634 109.595,27.46C109.955,27.286 110.135,27.013 110.135,26.641C110.135,26.449 110.096,26.284 110.018,26.146C109.94,26.008 109.808,25.885 109.622,25.777C109.436,25.669 109.19,25.57 108.884,25.48C108.578,25.39 108.197,25.291 107.741,25.183C107.417,25.111 107.096,25.015 106.778,24.895C106.46,24.775 106.175,24.616 105.923,24.418C105.671,24.22 105.467,23.98 105.311,23.698C105.155,23.416 105.077,23.077 105.077,22.681C105.077,22.273 105.17,21.916 105.356,21.61C105.542,21.304 105.791,21.046 106.103,20.836C106.415,20.626 106.766,20.467 107.156,20.359C107.546,20.251 107.951,20.197 108.371,20.197C109.079,20.197 109.688,20.29 110.198,20.476C110.708,20.662 111.155,20.923 111.539,21.259L110.657,22.375C110.405,22.147 110.09,21.955 109.712,21.799C109.334,21.643 108.893,21.565 108.389,21.565C107.873,21.565 107.459,21.649 107.147,21.817C106.835,21.985 106.679,22.261 106.679,22.645C106.679,23.005 106.886,23.272 107.3,23.446C107.714,23.62 108.257,23.785 108.929,23.941C109.325,24.037 109.694,24.148 110.036,24.274C110.378,24.4 110.678,24.562 110.936,24.76C111.194,24.958 111.398,25.201 111.548,25.489C111.698,25.777 111.773,26.125 111.773,26.533C111.773,26.953 111.677,27.322 111.485,27.64C111.293,27.958 111.035,28.225 110.711,28.441C110.387,28.657 110.015,28.819 109.595,28.927C109.175,29.035 108.737,29.089 108.281,29.089C106.697,29.089 105.509,28.663 104.717,27.811L105.707,26.731Z" style="fill-rule:nonzero;"/>
        <path d="M121.117,27.613C121.021,27.721 120.877,27.859 120.685,28.027C120.493,28.195 120.244,28.357 119.938,28.513C119.632,28.669 119.272,28.804 118.858,28.918C118.444,29.032 117.973,29.089 117.445,29.089C116.797,29.089 116.203,28.981 115.663,28.765C115.123,28.549 114.661,28.243 114.277,27.847C113.893,27.451 113.596,26.977 113.386,26.425C113.176,25.873 113.071,25.261 113.071,24.589C113.071,23.977 113.173,23.404 113.377,22.87C113.581,22.336 113.869,21.874 114.241,21.484C114.613,21.094 115.054,20.785 115.564,20.557C116.074,20.329 116.635,20.215 117.247,20.215C117.967,20.215 118.585,20.353 119.101,20.629C119.617,20.905 120.04,21.271 120.37,21.727C120.7,22.183 120.943,22.705 121.099,23.293C121.255,23.881 121.333,24.493 121.333,25.129L114.727,25.129C114.739,25.501 114.82,25.843 114.97,26.155C115.12,26.467 115.321,26.737 115.573,26.965C115.825,27.193 116.113,27.373 116.437,27.505C116.761,27.637 117.103,27.703 117.463,27.703C118.171,27.703 118.753,27.583 119.209,27.343C119.665,27.103 119.995,26.869 120.199,26.641L121.117,27.613ZM119.659,23.923C119.611,23.275 119.383,22.723 118.975,22.267C118.567,21.811 117.991,21.583 117.247,21.583C116.863,21.583 116.518,21.649 116.212,21.781C115.906,21.913 115.645,22.087 115.429,22.303C115.213,22.519 115.045,22.768 114.925,23.05C114.805,23.332 114.739,23.623 114.727,23.923L119.659,23.923Z" style="fill-rule:nonzero;"/>
        <path d="M126.286,16.831L130.3,16.831C131.248,16.831 132.121,16.948 132.919,17.182C133.717,17.416 134.404,17.782 134.98,18.28C135.556,18.778 136.006,19.405 136.33,20.161C136.654,20.917 136.816,21.817 136.816,22.861C136.816,23.869 136.654,24.748 136.33,25.498C136.006,26.248 135.556,26.872 134.98,27.37C134.404,27.868 133.714,28.237 132.91,28.477C132.106,28.717 131.23,28.837 130.282,28.837L126.286,28.837L126.286,16.831ZM130.246,27.289C131.746,27.289 132.913,26.92 133.747,26.182C134.581,25.444 134.998,24.349 134.998,22.897C134.998,21.433 134.596,20.314 133.792,19.54C132.988,18.766 131.788,18.379 130.192,18.379L128.014,18.379L128.014,27.289L130.246,27.289Z" style="fill-rule:nonzero;"/>
        <path d="M138.726,28.837L138.726,21.268C138.726,21.01 138.72,20.743 138.708,20.467L140.256,20.467L140.31,21.817C140.406,21.673 140.532,21.514 140.688,21.34C140.844,21.166 141.033,21.007 141.255,20.863C141.477,20.719 141.735,20.596 142.029,20.494C142.323,20.392 142.662,20.341 143.046,20.341C143.226,20.341 143.391,20.353 143.541,20.377C143.691,20.401 143.832,20.437 143.964,20.485L143.604,21.997C143.388,21.913 143.112,21.871 142.776,21.871C142.428,21.871 142.107,21.937 141.813,22.069C141.519,22.201 141.264,22.384 141.048,22.618C140.832,22.852 140.661,23.125 140.535,23.437C140.409,23.749 140.346,24.079 140.346,24.427L140.346,28.837L138.726,28.837Z" style="fill-rule:nonzero;"/>
        <path d="M145.064,17.155L146.882,17.155L146.882,18.973L145.064,18.973L145.064,17.155ZM145.172,20.467L146.792,20.467L146.792,28.837L145.172,28.837L145.172,20.467Z" style="fill-rule:nonzero;"/>
        <path d="M147.91,20.467L149.764,20.467L152.374,27.001L154.966,20.467L156.712,20.467L153.13,28.837L151.51,28.837L147.91,20.467Z" style="fill-rule:nonzero;"/>
        <path d="M165.407,27.613C165.311,27.721 165.167,27.859 164.975,28.027C164.783,28.195 164.534,28.357 164.228,28.513C163.922,28.669 163.562,28.804 163.148,28.918C162.734,29.032 162.263,29.089 161.735,29.089C161.087,29.089 160.493,28.981 159.953,28.765C159.413,28.549 158.951,28.243 158.567,27.847C158.183,27.451 157.886,26.977 157.676,26.425C157.466,25.873 157.361,25.261 157.361,24.589C157.361,23.977 157.463,23.404 157.667,22.87C157.871,22.336 158.159,21.874 158.531,21.484C158.903,21.094 159.344,20.785 159.854,20.557C160.364,20.329 160.925,20.215 161.537,20.215C162.257,20.215 162.875,20.353 163.391,20.629C163.907,20.905 164.33,21.271 164.66,21.727C164.99,22.183 165.233,22.705 165.389,23.293C165.545,23.881 165.623,24.493 165.623,25.129L159.017,25.129C159.029,25.501 159.11,25.843 159.26,26.155C159.41,26.467 159.611,26.737 159.863,26.965C160.115,27.193 160.403,27.373 160.727,27.505C161.051,27.637 161.393,27.703 161.753,27.703C162.461,27.703 163.043,27.583 163.499,27.343C163.955,27.103 164.285,26.869 164.489,26.641L165.407,27.613ZM163.949,23.923C163.901,23.275 163.673,22.723 163.265,22.267C162.857,21.811 162.281,21.583 161.537,21.583C161.153,21.583 160.808,21.649 160.502,21.781C160.196,21.913 159.935,22.087 159.719,22.303C159.503,22.519 159.335,22.768 159.215,23.05C159.095,23.332 159.029,23.623 159.017,23.923L163.949,23.923Z" style="fill-rule:nonzero;"/>
        <path d="M167.245,28.837L167.245,21.322C167.245,21.052 167.239,20.767 167.227,20.467L168.775,20.467L168.829,21.727C168.937,21.583 169.069,21.424 169.225,21.25C169.381,21.076 169.573,20.917 169.801,20.773C170.029,20.629 170.296,20.509 170.602,20.413C170.908,20.317 171.253,20.269 171.637,20.269C172.729,20.269 173.539,20.587 174.067,21.223C174.595,21.859 174.859,22.723 174.859,23.815L174.859,28.837L173.239,28.837L173.239,23.941C173.239,23.161 173.071,22.588 172.735,22.222C172.399,21.856 171.925,21.673 171.313,21.673C170.845,21.673 170.455,21.769 170.143,21.961C169.831,22.153 169.582,22.402 169.396,22.708C169.21,23.014 169.075,23.362 168.991,23.752C168.907,24.142 168.865,24.541 168.865,24.949L168.865,28.837L167.245,28.837Z" style="fill-rule:nonzero;"/>
        <path d="M180.713,25.921C180.881,26.113 181.07,26.308 181.28,26.506C181.49,26.704 181.727,26.881 181.991,27.037C182.255,27.193 182.549,27.319 182.873,27.415C183.197,27.511 183.551,27.559 183.935,27.559C184.727,27.559 185.345,27.379 185.789,27.019C186.233,26.659 186.455,26.173 186.455,25.561C186.455,24.901 186.203,24.406 185.699,24.076C185.195,23.746 184.469,23.479 183.521,23.275C183.005,23.167 182.537,23.017 182.117,22.825C181.697,22.633 181.334,22.393 181.028,22.105C180.722,21.817 180.485,21.484 180.317,21.106C180.149,20.728 180.065,20.299 180.065,19.819C180.065,19.375 180.149,18.955 180.317,18.559C180.485,18.163 180.737,17.815 181.073,17.515C181.409,17.215 181.829,16.975 182.333,16.795C182.837,16.615 183.419,16.525 184.079,16.525C184.667,16.525 185.174,16.588 185.6,16.714C186.026,16.84 186.389,16.993 186.689,17.173C186.989,17.353 187.229,17.539 187.409,17.731C187.589,17.923 187.727,18.079 187.823,18.199L186.671,19.261C186.599,19.177 186.491,19.066 186.347,18.928C186.203,18.79 186.02,18.655 185.798,18.523C185.576,18.391 185.318,18.28 185.024,18.19C184.73,18.1 184.391,18.055 184.007,18.055C183.623,18.055 183.293,18.106 183.017,18.208C182.741,18.31 182.513,18.442 182.333,18.604C182.153,18.766 182.021,18.949 181.937,19.153C181.853,19.357 181.811,19.561 181.811,19.765C181.811,20.065 181.874,20.32 182,20.53C182.126,20.74 182.309,20.926 182.549,21.088C182.789,21.25 183.086,21.388 183.44,21.502C183.794,21.616 184.199,21.727 184.655,21.835C185.099,21.943 185.534,22.084 185.96,22.258C186.386,22.432 186.767,22.666 187.103,22.96C187.439,23.254 187.706,23.614 187.904,24.04C188.102,24.466 188.201,24.985 188.201,25.597C188.201,26.113 188.093,26.587 187.877,27.019C187.661,27.451 187.364,27.826 186.986,28.144C186.608,28.462 186.161,28.708 185.645,28.882C185.129,29.056 184.571,29.143 183.971,29.143C183.407,29.143 182.894,29.077 182.432,28.945C181.97,28.813 181.55,28.645 181.172,28.441C180.794,28.237 180.464,28.012 180.182,27.766C179.9,27.52 179.669,27.277 179.489,27.037L180.713,25.921Z" style="fill-rule:nonzero;"/>
        <path d="M197.869,27.613C197.773,27.721 197.629,27.859 197.437,28.027C197.245,28.195 196.996,28.357 196.69,28.513C196.384,28.669 196.024,28.804 195.61,28.918C195.196,29.032 194.725,29.089 194.197,29.089C193.549,29.089 192.955,28.981 192.415,28.765C191.875,28.549 191.413,28.243 191.029,27.847C190.645,27.451 190.348,26.977 190.138,26.425C189.928,25.873 189.823,25.261 189.823,24.589C189.823,23.977 189.925,23.404 190.129,22.87C190.333,22.336 190.621,21.874 190.993,21.484C191.365,21.094 191.806,20.785 192.316,20.557C192.826,20.329 193.387,20.215 193.999,20.215C194.719,20.215 195.337,20.353 195.853,20.629C196.369,20.905 196.792,21.271 197.122,21.727C197.452,22.183 197.695,22.705 197.851,23.293C198.007,23.881 198.085,24.493 198.085,25.129L191.479,25.129C191.491,25.501 191.572,25.843 191.722,26.155C191.872,26.467 192.073,26.737 192.325,26.965C192.577,27.193 192.865,27.373 193.189,27.505C193.513,27.637 193.855,27.703 194.215,27.703C194.923,27.703 195.505,27.583 195.961,27.343C196.417,27.103 196.747,26.869 196.951,26.641L197.869,27.613ZM196.411,23.923C196.363,23.275 196.135,22.723 195.727,22.267C195.319,21.811 194.743,21.583 193.999,21.583C193.615,21.583 193.27,21.649 192.964,21.781C192.658,21.913 192.397,22.087 192.181,22.303C191.965,22.519 191.797,22.768 191.677,23.05C191.557,23.332 191.491,23.623 191.479,23.923L196.411,23.923Z" style="fill-rule:nonzero;"/>
        <path d="M205.7,28.009C205.652,28.069 205.565,28.156 205.439,28.27C205.313,28.384 205.148,28.504 204.944,28.63C204.74,28.756 204.497,28.864 204.215,28.954C203.933,29.044 203.606,29.089 203.234,29.089C202.586,29.089 202.016,28.975 201.524,28.747C201.032,28.519 200.621,28.21 200.291,27.82C199.961,27.43 199.712,26.971 199.544,26.443C199.376,25.915 199.292,25.351 199.292,24.751C199.292,24.103 199.406,23.506 199.634,22.96C199.862,22.414 200.183,21.94 200.597,21.538C201.011,21.136 201.506,20.824 202.082,20.602C202.658,20.38 203.3,20.269 204.008,20.269C204.692,20.269 205.325,20.329 205.907,20.449C206.489,20.569 206.96,20.701 207.32,20.845L207.32,32.437L205.7,32.437L205.7,28.009ZM205.718,21.943C205.61,21.907 205.427,21.856 205.169,21.79C204.911,21.724 204.524,21.691 204.008,21.691C203.048,21.691 202.298,21.97 201.758,22.528C201.218,23.086 200.948,23.821 200.948,24.733C200.948,25.117 200.993,25.486 201.083,25.84C201.173,26.194 201.317,26.506 201.515,26.776C201.713,27.046 201.962,27.265 202.262,27.433C202.562,27.601 202.928,27.685 203.36,27.685C203.768,27.685 204.119,27.625 204.413,27.505C204.707,27.385 204.95,27.223 205.142,27.019C205.334,26.815 205.478,26.578 205.574,26.308C205.67,26.038 205.718,25.753 205.718,25.453L205.718,21.943Z" style="fill-rule:nonzero;"/>
        <path d="M209.338,20.467L210.958,20.467L210.958,25.381C210.958,26.173 211.12,26.746 211.444,27.1C211.768,27.454 212.236,27.631 212.848,27.631C213.316,27.631 213.703,27.535 214.009,27.343C214.315,27.151 214.564,26.902 214.756,26.596C214.948,26.29 215.083,25.942 215.161,25.552C215.239,25.162 215.278,24.763 215.278,24.355L215.278,20.467L216.898,20.467L216.898,27.982C216.898,28.252 216.904,28.537 216.916,28.837L215.368,28.837L215.314,27.595C215.206,27.739 215.074,27.895 214.918,28.063C214.762,28.231 214.57,28.384 214.342,28.522C214.114,28.66 213.85,28.777 213.55,28.873C213.25,28.969 212.908,29.017 212.524,29.017C211.432,29.017 210.628,28.702 210.112,28.072C209.596,27.442 209.338,26.581 209.338,25.489L209.338,20.467Z" style="fill-rule:nonzero;"/>
        <path d="M226.602,27.613C226.506,27.721 226.362,27.859 226.17,28.027C225.978,28.195 225.729,28.357 225.423,28.513C225.117,28.669 224.757,28.804 224.343,28.918C223.929,29.032 223.458,29.089 222.93,29.089C222.282,29.089 221.688,28.981 221.148,28.765C220.608,28.549 220.146,28.243 219.762,27.847C219.378,27.451 219.081,26.977 218.871,26.425C218.661,25.873 218.556,25.261 218.556,24.589C218.556,23.977 218.658,23.404 218.862,22.87C219.066,22.336 219.354,21.874 219.726,21.484C220.098,21.094 220.539,20.785 221.049,20.557C221.559,20.329 222.12,20.215 222.732,20.215C223.452,20.215 224.07,20.353 224.586,20.629C225.102,20.905 225.525,21.271 225.855,21.727C226.185,22.183 226.428,22.705 226.584,23.293C226.74,23.881 226.818,24.493 226.818,25.129L220.212,25.129C220.224,25.501 220.305,25.843 220.455,26.155C220.605,26.467 220.806,26.737 221.058,26.965C221.31,27.193 221.598,27.373 221.922,27.505C222.246,27.637 222.588,27.703 222.948,27.703C223.656,27.703 224.238,27.583 224.694,27.343C225.15,27.103 225.48,26.869 225.684,26.641L226.602,27.613ZM225.144,23.923C225.096,23.275 224.868,22.723 224.46,22.267C224.052,21.811 223.476,21.583 222.732,21.583C222.348,21.583 222.003,21.649 221.697,21.781C221.391,21.913 221.13,22.087 220.914,22.303C220.698,22.519 220.53,22.768 220.41,23.05C220.29,23.332 220.224,23.623 220.212,23.923L225.144,23.923Z" style="fill-rule:nonzero;"/>
        <path d="M228.44,28.837L228.44,21.322C228.44,21.052 228.434,20.767 228.422,20.467L229.97,20.467L230.024,21.727C230.132,21.583 230.264,21.424 230.42,21.25C230.576,21.076 230.768,20.917 230.996,20.773C231.224,20.629 231.491,20.509 231.797,20.413C232.103,20.317 232.448,20.269 232.832,20.269C233.924,20.269 234.734,20.587 235.262,21.223C235.79,21.859 236.054,22.723 236.054,23.815L236.054,28.837L234.434,28.837L234.434,23.941C234.434,23.161 234.266,22.588 233.93,22.222C233.594,21.856 233.12,21.673 232.508,21.673C232.04,21.673 231.65,21.769 231.338,21.961C231.026,22.153 230.777,22.402 230.591,22.708C230.405,23.014 230.27,23.362 230.186,23.752C230.102,24.142 230.06,24.541 230.06,24.949L230.06,28.837L228.44,28.837Z" style="fill-rule:nonzero;"/>
        <path d="M245.326,27.685C244.954,28.105 244.495,28.444 243.949,28.702C243.403,28.96 242.77,29.089 242.05,29.089C241.378,29.089 240.769,28.978 240.223,28.756C239.677,28.534 239.215,28.228 238.837,27.838C238.459,27.448 238.168,26.98 237.964,26.434C237.76,25.888 237.658,25.291 237.658,24.643C237.658,24.031 237.766,23.455 237.982,22.915C238.198,22.375 238.501,21.904 238.891,21.502C239.281,21.1 239.743,20.782 240.277,20.548C240.811,20.314 241.402,20.197 242.05,20.197C242.758,20.197 243.382,20.323 243.922,20.575C244.462,20.827 244.924,21.169 245.308,21.601L244.246,22.627C243.994,22.315 243.688,22.069 243.328,21.889C242.968,21.709 242.542,21.619 242.05,21.619C241.618,21.619 241.231,21.7 240.889,21.862C240.547,22.024 240.259,22.246 240.025,22.528C239.791,22.81 239.611,23.134 239.485,23.5C239.359,23.866 239.296,24.247 239.296,24.643C239.296,25.027 239.359,25.402 239.485,25.768C239.611,26.134 239.791,26.458 240.025,26.74C240.259,27.022 240.547,27.247 240.889,27.415C241.231,27.583 241.618,27.667 242.05,27.667C242.542,27.667 242.983,27.574 243.373,27.388C243.763,27.202 244.084,26.953 244.336,26.641L245.326,27.685Z" style="fill-rule:nonzero;"/>
        <path d="M254.381,27.613C254.285,27.721 254.141,27.859 253.949,28.027C253.757,28.195 253.508,28.357 253.202,28.513C252.896,28.669 252.536,28.804 252.122,28.918C251.708,29.032 251.237,29.089 250.709,29.089C250.061,29.089 249.467,28.981 248.927,28.765C248.387,28.549 247.925,28.243 247.541,27.847C247.157,27.451 246.86,26.977 246.65,26.425C246.44,25.873 246.335,25.261 246.335,24.589C246.335,23.977 246.437,23.404 246.641,22.87C246.845,22.336 247.133,21.874 247.505,21.484C247.877,21.094 248.318,20.785 248.828,20.557C249.338,20.329 249.899,20.215 250.511,20.215C251.231,20.215 251.849,20.353 252.365,20.629C252.881,20.905 253.304,21.271 253.634,21.727C253.964,22.183 254.207,22.705 254.363,23.293C254.519,23.881 254.597,24.493 254.597,25.129L247.991,25.129C248.003,25.501 248.084,25.843 248.234,26.155C248.384,26.467 248.585,26.737 248.837,26.965C249.089,27.193 249.377,27.373 249.701,27.505C250.025,27.637 250.367,27.703 250.727,27.703C251.435,27.703 252.017,27.583 252.473,27.343C252.929,27.103 253.259,26.869 253.463,26.641L254.381,27.613ZM252.923,23.923C252.875,23.275 252.647,22.723 252.239,22.267C251.831,21.811 251.255,21.583 250.511,21.583C250.127,21.583 249.782,21.649 249.476,21.781C249.17,21.913 248.909,22.087 248.693,22.303C248.477,22.519 248.309,22.768 248.189,23.05C248.069,23.332 248.003,23.623 247.991,23.923L252.923,23.923Z" style="fill-rule:nonzero;"/>
        <path d="M256.219,28.837L256.219,21.268C256.219,21.01 256.213,20.743 256.201,20.467L257.749,20.467L257.803,21.817C257.899,21.673 258.025,21.514 258.181,21.34C258.337,21.166 258.526,21.007 258.748,20.863C258.97,20.719 259.228,20.596 259.522,20.494C259.816,20.392 260.155,20.341 260.539,20.341C260.719,20.341 260.884,20.353 261.034,20.377C261.184,20.401 261.325,20.437 261.457,20.485L261.097,21.997C260.881,21.913 260.605,21.871 260.269,21.871C259.921,21.871 259.6,21.937 259.306,22.069C259.012,22.201 258.757,22.384 258.541,22.618C258.325,22.852 258.154,23.125 258.028,23.437C257.902,23.749 257.839,24.079 257.839,24.427L257.839,28.837L256.219,28.837Z" style="fill-rule:nonzero;"/>
        <path d="M266.123,26.713C266.423,26.953 266.777,27.178 267.185,27.388C267.593,27.598 268.109,27.703 268.733,27.703C269.489,27.703 270.089,27.499 270.533,27.091C270.977,26.683 271.199,26.137 271.199,25.453C271.199,24.841 271.01,24.337 270.632,23.941C270.254,23.545 269.699,23.347 268.967,23.347C268.751,23.347 268.553,23.365 268.373,23.401C268.193,23.437 268.019,23.485 267.851,23.545L267.329,22.699L270.515,18.991L265.979,18.991L265.979,17.497L272.495,17.497L272.495,18.793L269.579,22.195C270.083,22.195 270.539,22.273 270.947,22.429C271.355,22.585 271.706,22.807 272,23.095C272.294,23.383 272.519,23.728 272.675,24.13C272.831,24.532 272.909,24.979 272.909,25.471C272.909,26.071 272.801,26.599 272.585,27.055C272.369,27.511 272.072,27.892 271.694,28.198C271.316,28.504 270.872,28.738 270.362,28.9C269.852,29.062 269.303,29.143 268.715,29.143C268.283,29.143 267.887,29.107 267.527,29.035C267.167,28.963 266.843,28.867 266.555,28.747C266.267,28.627 266.009,28.492 265.781,28.342C265.553,28.192 265.349,28.039 265.169,27.883L266.123,26.713Z" style="fill-rule:nonzero;"/>
        <path d="M275.413,27.667C275.413,27.031 275.563,26.473 275.863,25.993C276.163,25.513 276.523,25.063 276.943,24.643C277.459,24.127 277.948,23.683 278.41,23.311C278.872,22.939 279.277,22.597 279.625,22.285C279.973,21.973 280.246,21.664 280.444,21.358C280.642,21.052 280.741,20.701 280.741,20.305C280.741,20.125 280.708,19.939 280.642,19.747C280.576,19.555 280.465,19.378 280.309,19.216C280.153,19.054 279.955,18.919 279.715,18.811C279.475,18.703 279.175,18.649 278.815,18.649C278.491,18.649 278.203,18.694 277.951,18.784C277.699,18.874 277.477,18.985 277.285,19.117C277.093,19.249 276.931,19.399 276.799,19.567C276.667,19.735 276.547,19.891 276.439,20.035L275.233,19.171C275.353,18.955 275.518,18.73 275.728,18.496C275.938,18.262 276.19,18.046 276.484,17.848C276.778,17.65 277.126,17.488 277.528,17.362C277.93,17.236 278.395,17.173 278.923,17.173C279.535,17.173 280.066,17.257 280.516,17.425C280.966,17.593 281.335,17.818 281.623,18.1C281.911,18.382 282.127,18.703 282.271,19.063C282.415,19.423 282.487,19.801 282.487,20.197C282.487,20.617 282.415,21.01 282.271,21.376C282.127,21.742 281.935,22.081 281.695,22.393C281.455,22.705 281.182,23.002 280.876,23.284C280.57,23.566 280.255,23.833 279.931,24.085C279.547,24.385 279.19,24.673 278.86,24.949C278.53,25.225 278.242,25.495 277.996,25.759C277.75,26.023 277.558,26.287 277.42,26.551C277.282,26.815 277.213,27.085 277.213,27.361L282.613,27.361L282.613,28.837L275.413,28.837L275.413,27.667Z" style="fill-rule:nonzero;"/>
        <path d="M8.317,276.745L10.849,276.745C11.393,276.745 11.843,276.821 12.199,276.973C12.555,277.125 12.839,277.317 13.051,277.549C13.263,277.781 13.411,278.041 13.495,278.329C13.579,278.617 13.621,278.897 13.621,279.169C13.621,279.569 13.553,279.921 13.417,280.225C13.281,280.529 13.093,280.783 12.853,280.987C12.613,281.191 12.327,281.345 11.995,281.449C11.663,281.553 11.301,281.605 10.909,281.605L9.457,281.605L9.457,284.749L8.317,284.749L8.317,276.745ZM10.897,280.621C11.393,280.621 11.775,280.495 12.043,280.243C12.311,279.991 12.445,279.641 12.445,279.193C12.445,278.737 12.307,278.379 12.031,278.119C11.755,277.859 11.377,277.729 10.897,277.729L9.457,277.729L9.457,280.621L10.897,280.621Z" style="fill-rule:nonzero;"/>
        <path d="M14.665,276.745L15.733,276.745L15.733,279.997C15.805,279.901 15.893,279.797 15.997,279.685C16.101,279.573 16.229,279.469 16.381,279.373C16.533,279.277 16.709,279.197 16.909,279.133C17.109,279.069 17.337,279.037 17.593,279.037C18.321,279.037 18.861,279.249 19.213,279.673C19.565,280.097 19.741,280.673 19.741,281.401L19.741,284.749L18.661,284.749L18.661,281.485C18.661,280.965 18.549,280.583 18.325,280.339C18.101,280.095 17.785,279.973 17.377,279.973C17.065,279.973 16.805,280.037 16.597,280.165C16.389,280.293 16.223,280.459 16.099,280.663C15.975,280.867 15.885,281.099 15.829,281.359C15.773,281.619 15.745,281.885 15.745,282.157L15.745,284.749L14.665,284.749L14.665,276.745Z" style="fill-rule:nonzero;"/>
        <path d="M24.649,282.109C24.617,282.101 24.555,282.091 24.463,282.079C24.371,282.067 24.265,282.057 24.145,282.049C24.025,282.041 23.897,282.033 23.761,282.025C23.625,282.017 23.493,282.013 23.365,282.013C23.061,282.013 22.815,282.049 22.627,282.121C22.439,282.193 22.291,282.283 22.183,282.391C22.075,282.499 22.001,282.619 21.961,282.751C21.921,282.883 21.901,283.009 21.901,283.129C21.901,283.433 22.005,283.663 22.213,283.819C22.421,283.975 22.709,284.053 23.077,284.053C23.285,284.053 23.483,284.017 23.671,283.945C23.859,283.873 24.025,283.777 24.169,283.657C24.313,283.537 24.429,283.397 24.517,283.237C24.605,283.077 24.649,282.913 24.649,282.745L24.649,282.109ZM24.661,284.077C24.453,284.357 24.179,284.565 23.839,284.701C23.499,284.837 23.149,284.905 22.789,284.905C22.557,284.905 22.327,284.875 22.099,284.815C21.871,284.755 21.663,284.655 21.475,284.515C21.287,284.375 21.135,284.195 21.019,283.975C20.903,283.755 20.845,283.485 20.845,283.165C20.845,282.565 21.055,282.085 21.475,281.725C21.895,281.365 22.501,281.185 23.293,281.185C23.421,281.185 23.557,281.189 23.701,281.197C23.845,281.205 23.981,281.213 24.109,281.221C24.237,281.229 24.349,281.237 24.445,281.245C24.541,281.253 24.609,281.261 24.649,281.269L24.649,281.065C24.649,280.649 24.523,280.351 24.271,280.171C24.019,279.991 23.677,279.901 23.245,279.901C22.821,279.901 22.485,279.959 22.237,280.075C21.989,280.191 21.781,280.309 21.613,280.429L21.109,279.697C21.205,279.617 21.321,279.537 21.457,279.457C21.593,279.377 21.753,279.303 21.937,279.235C22.121,279.167 22.329,279.111 22.561,279.067C22.793,279.023 23.061,279.001 23.365,279.001C24.085,279.001 24.651,279.175 25.063,279.523C25.475,279.871 25.681,280.365 25.681,281.005L25.681,284.251C25.681,284.447 25.685,284.613 25.693,284.749L24.685,284.749L24.661,284.077Z" style="fill-rule:nonzero;"/>
        <path d="M27.493,283.345C27.693,283.545 27.933,283.705 28.213,283.825C28.493,283.945 28.817,284.005 29.185,284.005C29.545,284.005 29.845,283.947 30.085,283.831C30.325,283.715 30.445,283.533 30.445,283.285C30.445,283.157 30.419,283.047 30.367,282.955C30.315,282.863 30.227,282.781 30.103,282.709C29.979,282.637 29.815,282.571 29.611,282.511C29.407,282.451 29.153,282.385 28.849,282.313C28.633,282.265 28.419,282.201 28.207,282.121C27.995,282.041 27.805,281.935 27.637,281.803C27.469,281.671 27.333,281.511 27.229,281.323C27.125,281.135 27.073,280.909 27.073,280.645C27.073,280.373 27.135,280.135 27.259,279.931C27.383,279.727 27.549,279.555 27.757,279.415C27.965,279.275 28.199,279.169 28.459,279.097C28.719,279.025 28.989,278.989 29.269,278.989C29.741,278.989 30.147,279.051 30.487,279.175C30.827,279.299 31.125,279.473 31.381,279.697L30.793,280.441C30.625,280.289 30.415,280.161 30.163,280.057C29.911,279.953 29.617,279.901 29.281,279.901C28.937,279.901 28.661,279.957 28.453,280.069C28.245,280.181 28.141,280.365 28.141,280.621C28.141,280.861 28.279,281.039 28.555,281.155C28.831,281.271 29.193,281.381 29.641,281.485C29.905,281.549 30.151,281.623 30.379,281.707C30.607,281.791 30.807,281.899 30.979,282.031C31.151,282.163 31.287,282.325 31.387,282.517C31.487,282.709 31.537,282.941 31.537,283.213C31.537,283.493 31.473,283.739 31.345,283.951C31.217,284.163 31.045,284.341 30.829,284.485C30.613,284.629 30.365,284.737 30.085,284.809C29.805,284.881 29.513,284.917 29.209,284.917C28.153,284.917 27.361,284.633 26.833,284.065L27.493,283.345Z" style="fill-rule:nonzero;"/>
        <path d="M35.461,284.917C35.029,284.917 34.633,284.839 34.273,284.683C33.913,284.527 33.603,284.313 33.343,284.041C33.083,283.769 32.879,283.455 32.731,283.099C32.583,282.743 32.509,282.361 32.509,281.953C32.509,281.545 32.583,281.163 32.731,280.807C32.879,280.451 33.083,280.137 33.343,279.865C33.603,279.593 33.913,279.379 34.273,279.223C34.633,279.067 35.029,278.989 35.461,278.989C35.885,278.989 36.277,279.067 36.637,279.223C36.997,279.379 37.309,279.593 37.573,279.865C37.837,280.137 38.043,280.451 38.191,280.807C38.339,281.163 38.413,281.545 38.413,281.953C38.413,282.361 38.339,282.743 38.191,283.099C38.043,283.455 37.837,283.769 37.573,284.041C37.309,284.313 36.997,284.527 36.637,284.683C36.277,284.839 35.885,284.917 35.461,284.917ZM35.461,283.981C35.749,283.981 36.009,283.923 36.241,283.807C36.473,283.691 36.669,283.539 36.829,283.351C36.989,283.163 37.111,282.947 37.195,282.703C37.279,282.459 37.321,282.209 37.321,281.953C37.321,281.705 37.279,281.459 37.195,281.215C37.111,280.971 36.987,280.753 36.823,280.561C36.659,280.369 36.463,280.215 36.235,280.099C36.007,279.983 35.749,279.925 35.461,279.925C35.173,279.925 34.913,279.983 34.681,280.099C34.449,280.215 34.253,280.367 34.093,280.555C33.933,280.743 33.811,280.959 33.727,281.203C33.643,281.447 33.601,281.697 33.601,281.953C33.601,282.209 33.643,282.457 33.727,282.697C33.811,282.937 33.935,283.153 34.099,283.345C34.263,283.537 34.459,283.691 34.687,283.807C34.915,283.923 35.173,283.981 35.461,283.981Z" style="fill-rule:nonzero;"/>
        <path d="M39.613,284.749L39.613,279.703C39.613,279.531 39.609,279.353 39.601,279.169L40.633,279.169L40.669,280.069C40.733,279.973 40.817,279.867 40.921,279.751C41.025,279.635 41.151,279.529 41.299,279.433C41.447,279.337 41.619,279.255 41.815,279.187C42.011,279.119 42.237,279.085 42.493,279.085C42.613,279.085 42.723,279.093 42.823,279.109C42.923,279.125 43.017,279.149 43.105,279.181L42.865,280.189C42.721,280.133 42.537,280.105 42.313,280.105C42.081,280.105 41.867,280.149 41.671,280.237C41.475,280.325 41.305,280.447 41.161,280.603C41.017,280.759 40.903,280.941 40.819,281.149C40.735,281.357 40.693,281.577 40.693,281.809L40.693,284.749L39.613,284.749Z" style="fill-rule:nonzero;"/>
        <rect x="46.273" y="276.745" width="1.152" height="8.004" style="fill-rule:nonzero;"/>
        <path d="M49.057,284.749L49.057,279.739C49.057,279.559 49.053,279.369 49.045,279.169L50.077,279.169L50.113,280.009C50.185,279.913 50.273,279.807 50.377,279.691C50.481,279.575 50.609,279.469 50.761,279.373C50.913,279.277 51.091,279.197 51.295,279.133C51.499,279.069 51.729,279.037 51.985,279.037C52.713,279.037 53.253,279.249 53.605,279.673C53.957,280.097 54.133,280.673 54.133,281.401L54.133,284.749L53.053,284.749L53.053,281.485C53.053,280.965 52.941,280.583 52.717,280.339C52.493,280.095 52.177,279.973 51.769,279.973C51.457,279.973 51.197,280.037 50.989,280.165C50.781,280.293 50.615,280.459 50.491,280.663C50.367,280.867 50.277,281.099 50.221,281.359C50.165,281.619 50.137,281.885 50.137,282.157L50.137,284.749L49.057,284.749Z" style="fill-rule:nonzero;"/>
        <g id="XY-Controls" serif:id="XY Controls">
            <g id="X">
                <path d="M18.27,43.441L19.542,43.441L21.078,49.897L22.818,43.681L23.934,43.681L25.638,49.885L27.174,43.441L28.374,43.441L26.226,51.445L25.002,51.445L23.334,45.529L21.618,51.445L20.406,51.445L18.27,43.441Z" style="fill-rule:nonzero;"/>
                <path d="M29.238,43.657L30.45,43.657L30.45,44.869L29.238,44.869L29.238,43.657ZM29.31,45.865L30.39,45.865L30.39,51.445L29.31,51.445L29.31,45.865Z" style="fill-rule:nonzero;"/>
                <path d="M35.862,47.101C35.782,47.037 35.634,46.951 35.418,46.843C35.202,46.735 34.894,46.681 34.494,46.681C34.23,46.681 33.988,46.729 33.768,46.825C33.548,46.921 33.356,47.057 33.192,47.233C33.028,47.409 32.9,47.625 32.808,47.881C32.716,48.137 32.67,48.425 32.67,48.745C32.67,49.009 32.702,49.259 32.766,49.495C32.83,49.731 32.928,49.937 33.06,50.113C33.192,50.289 33.36,50.427 33.564,50.527C33.768,50.627 34.01,50.677 34.29,50.677C34.57,50.677 34.81,50.625 35.01,50.521C35.21,50.417 35.372,50.287 35.496,50.131C35.62,49.975 35.712,49.803 35.772,49.615C35.832,49.427 35.862,49.253 35.862,49.093L35.862,47.101ZM35.862,50.737C35.822,50.785 35.756,50.859 35.664,50.959C35.572,51.059 35.45,51.157 35.298,51.253C35.146,51.349 34.968,51.433 34.764,51.505C34.56,51.577 34.322,51.613 34.05,51.613C33.698,51.613 33.37,51.545 33.066,51.409C32.762,51.273 32.498,51.081 32.274,50.833C32.05,50.585 31.876,50.283 31.752,49.927C31.628,49.571 31.566,49.173 31.566,48.733C31.566,48.205 31.658,47.751 31.842,47.371C32.026,46.991 32.26,46.679 32.544,46.435C32.828,46.191 33.136,46.013 33.468,45.901C33.8,45.789 34.114,45.733 34.41,45.733C34.81,45.733 35.122,45.781 35.346,45.877C35.57,45.973 35.742,46.045 35.862,46.093L35.862,43.441L36.942,43.441L36.942,50.875C36.942,51.055 36.946,51.245 36.954,51.445L35.898,51.445L35.862,50.737Z" style="fill-rule:nonzero;"/>
                <path d="M38.838,46.765L37.83,46.765L37.83,45.865L38.838,45.865L38.838,44.041L39.918,44.041L39.918,45.865L41.55,45.865L41.55,46.765L39.918,46.765L39.918,49.513C39.918,49.961 39.988,50.269 40.128,50.437C40.268,50.605 40.466,50.689 40.722,50.689C40.93,50.689 41.102,50.657 41.238,50.593C41.374,50.529 41.51,50.433 41.646,50.305L42.138,50.965C41.906,51.189 41.668,51.351 41.424,51.451C41.18,51.551 40.89,51.601 40.554,51.601C39.962,51.601 39.528,51.441 39.252,51.121C38.976,50.801 38.838,50.301 38.838,49.621L38.838,46.765Z" style="fill-rule:nonzero;"/>
                <path d="M42.87,43.441L43.938,43.441L43.938,46.693C44.01,46.597 44.098,46.493 44.202,46.381C44.306,46.269 44.434,46.165 44.586,46.069C44.738,45.973 44.914,45.893 45.114,45.829C45.314,45.765 45.542,45.733 45.798,45.733C46.526,45.733 47.066,45.945 47.418,46.369C47.77,46.793 47.946,47.369 47.946,48.097L47.946,51.445L46.866,51.445L46.866,48.181C46.866,47.661 46.754,47.279 46.53,47.035C46.306,46.791 45.99,46.669 45.582,46.669C45.27,46.669 45.01,46.733 44.802,46.861C44.594,46.989 44.428,47.155 44.304,47.359C44.18,47.563 44.09,47.795 44.034,48.055C43.978,48.315 43.95,48.581 43.95,48.853L43.95,51.445L42.87,51.445L42.87,43.441Z" style="fill-rule:nonzero;"/>
                <path d="M33.36,70.2L33.36,181.877" style="fill:none;stroke:black;stroke-width:1px;stroke-dasharray:2,2,0,0;"/>
                <rect x="19.9" y="133.031" width="2.216" height="0.943" style="fill-rule:nonzero;"/>
                <path d="M46.708,134.358L46.708,133.255L45.292,133.255L45.292,131.839L44.189,131.839L44.189,133.255L42.773,133.255L42.773,134.358L44.189,134.358L44.189,135.774L45.292,135.774L45.292,134.358L46.708,134.358Z" style="fill-rule:nonzero;"/>
            </g>
            <g id="Y">
                <path d="M74.806,49.501C74.918,49.629 75.044,49.759 75.184,49.891C75.324,50.023 75.482,50.141 75.658,50.245C75.834,50.349 76.03,50.433 76.246,50.497C76.462,50.561 76.698,50.593 76.954,50.593C77.482,50.593 77.894,50.473 78.19,50.233C78.486,49.993 78.634,49.669 78.634,49.261C78.634,48.821 78.466,48.491 78.13,48.271C77.794,48.051 77.31,47.873 76.678,47.737C76.334,47.665 76.022,47.565 75.742,47.437C75.462,47.309 75.22,47.149 75.016,46.957C74.812,46.765 74.654,46.543 74.542,46.291C74.43,46.039 74.374,45.753 74.374,45.433C74.374,45.137 74.43,44.857 74.542,44.593C74.654,44.329 74.822,44.097 75.046,43.897C75.27,43.697 75.55,43.537 75.886,43.417C76.222,43.297 76.61,43.237 77.05,43.237C77.442,43.237 77.78,43.279 78.064,43.363C78.348,43.447 78.59,43.549 78.79,43.669C78.99,43.789 79.15,43.913 79.27,44.041C79.39,44.169 79.482,44.273 79.546,44.353L78.778,45.061C78.73,45.005 78.658,44.931 78.562,44.839C78.466,44.747 78.344,44.657 78.196,44.569C78.048,44.481 77.876,44.407 77.68,44.347C77.484,44.287 77.258,44.257 77.002,44.257C76.746,44.257 76.526,44.291 76.342,44.359C76.158,44.427 76.006,44.515 75.886,44.623C75.766,44.731 75.678,44.853 75.622,44.989C75.566,45.125 75.538,45.261 75.538,45.397C75.538,45.597 75.58,45.767 75.664,45.907C75.748,46.047 75.87,46.171 76.03,46.279C76.19,46.387 76.388,46.479 76.624,46.555C76.86,46.631 77.13,46.705 77.434,46.777C77.73,46.849 78.02,46.943 78.304,47.059C78.588,47.175 78.842,47.331 79.066,47.527C79.29,47.723 79.468,47.963 79.6,48.247C79.732,48.531 79.798,48.877 79.798,49.285C79.798,49.629 79.726,49.945 79.582,50.233C79.438,50.521 79.24,50.771 78.988,50.983C78.736,51.195 78.438,51.359 78.094,51.475C77.75,51.591 77.378,51.649 76.978,51.649C76.602,51.649 76.26,51.605 75.952,51.517C75.644,51.429 75.364,51.317 75.112,51.181C74.86,51.045 74.64,50.895 74.452,50.731C74.264,50.567 74.11,50.405 73.99,50.245L74.806,49.501Z" style="fill-rule:nonzero;"/>
                <path d="M81.25,46.765L80.242,46.765L80.242,45.865L81.25,45.865L81.25,44.041L82.33,44.041L82.33,45.865L83.962,45.865L83.962,46.765L82.33,46.765L82.33,49.513C82.33,49.961 82.4,50.269 82.54,50.437C82.68,50.605 82.878,50.689 83.134,50.689C83.342,50.689 83.514,50.657 83.65,50.593C83.786,50.529 83.922,50.433 84.058,50.305L84.55,50.965C84.318,51.189 84.08,51.351 83.836,51.451C83.592,51.551 83.302,51.601 82.966,51.601C82.374,51.601 81.94,51.441 81.664,51.121C81.388,50.801 81.25,50.301 81.25,49.621L81.25,46.765Z" style="fill-rule:nonzero;"/>
                <path d="M90.382,50.629C90.318,50.701 90.222,50.793 90.094,50.905C89.966,51.017 89.8,51.125 89.596,51.229C89.392,51.333 89.152,51.423 88.876,51.499C88.6,51.575 88.286,51.613 87.934,51.613C87.502,51.613 87.106,51.541 86.746,51.397C86.386,51.253 86.078,51.049 85.822,50.785C85.566,50.521 85.368,50.205 85.228,49.837C85.088,49.469 85.018,49.061 85.018,48.613C85.018,48.205 85.086,47.823 85.222,47.467C85.358,47.111 85.55,46.803 85.798,46.543C86.046,46.283 86.34,46.077 86.68,45.925C87.02,45.773 87.394,45.697 87.802,45.697C88.282,45.697 88.694,45.789 89.038,45.973C89.382,46.157 89.664,46.401 89.884,46.705C90.104,47.009 90.266,47.357 90.37,47.749C90.474,48.141 90.526,48.549 90.526,48.973L86.122,48.973C86.13,49.221 86.184,49.449 86.284,49.657C86.384,49.865 86.518,50.045 86.686,50.197C86.854,50.349 87.046,50.469 87.262,50.557C87.478,50.645 87.706,50.689 87.946,50.689C88.418,50.689 88.806,50.609 89.11,50.449C89.414,50.289 89.634,50.133 89.77,49.981L90.382,50.629ZM89.41,48.169C89.378,47.737 89.226,47.369 88.954,47.065C88.682,46.761 88.298,46.609 87.802,46.609C87.546,46.609 87.316,46.653 87.112,46.741C86.908,46.829 86.734,46.945 86.59,47.089C86.446,47.233 86.334,47.399 86.254,47.587C86.174,47.775 86.13,47.969 86.122,48.169L89.41,48.169Z" style="fill-rule:nonzero;"/>
                <path d="M91.642,53.845L91.642,46.435C91.642,46.255 91.638,46.065 91.63,45.865L92.662,45.865L92.698,46.657C92.754,46.585 92.834,46.497 92.938,46.393C93.042,46.289 93.172,46.189 93.328,46.093C93.484,45.997 93.666,45.915 93.874,45.847C94.082,45.779 94.322,45.745 94.594,45.745C95.026,45.745 95.4,45.825 95.716,45.985C96.032,46.145 96.294,46.361 96.502,46.633C96.71,46.905 96.864,47.217 96.964,47.569C97.064,47.921 97.114,48.293 97.114,48.685C97.114,49.189 97.028,49.625 96.856,49.993C96.684,50.361 96.46,50.665 96.184,50.905C95.908,51.145 95.6,51.323 95.26,51.439C94.92,51.555 94.586,51.613 94.258,51.613C93.882,51.613 93.58,51.575 93.352,51.499C93.124,51.423 92.91,51.341 92.71,51.253L92.71,53.845L91.642,53.845ZM92.71,50.233C92.838,50.337 93.022,50.437 93.262,50.533C93.502,50.629 93.802,50.677 94.162,50.677C94.434,50.677 94.684,50.627 94.912,50.527C95.14,50.427 95.336,50.287 95.5,50.107C95.664,49.927 95.79,49.717 95.878,49.477C95.966,49.237 96.01,48.973 96.01,48.685C96.01,48.413 95.98,48.157 95.92,47.917C95.86,47.677 95.764,47.465 95.632,47.281C95.5,47.097 95.33,46.951 95.122,46.843C94.914,46.735 94.658,46.681 94.354,46.681C93.97,46.681 93.642,46.787 93.37,46.999C93.098,47.211 92.906,47.521 92.794,47.929C92.754,48.057 92.73,48.195 92.722,48.343C92.714,48.491 92.71,48.645 92.71,48.805L92.71,50.233Z" style="fill-rule:nonzero;"/>
                <path d="M98.614,50.041C98.814,50.241 99.054,50.401 99.334,50.521C99.614,50.641 99.938,50.701 100.306,50.701C100.666,50.701 100.966,50.643 101.206,50.527C101.446,50.411 101.566,50.229 101.566,49.981C101.566,49.853 101.54,49.743 101.488,49.651C101.436,49.559 101.348,49.477 101.224,49.405C101.1,49.333 100.936,49.267 100.732,49.207C100.528,49.147 100.274,49.081 99.97,49.009C99.754,48.961 99.54,48.897 99.328,48.817C99.116,48.737 98.926,48.631 98.758,48.499C98.59,48.367 98.454,48.207 98.35,48.019C98.246,47.831 98.194,47.605 98.194,47.341C98.194,47.069 98.256,46.831 98.38,46.627C98.504,46.423 98.67,46.251 98.878,46.111C99.086,45.971 99.32,45.865 99.58,45.793C99.84,45.721 100.11,45.685 100.39,45.685C100.862,45.685 101.268,45.747 101.608,45.871C101.948,45.995 102.246,46.169 102.502,46.393L101.914,47.137C101.746,46.985 101.536,46.857 101.284,46.753C101.032,46.649 100.738,46.597 100.402,46.597C100.058,46.597 99.782,46.653 99.574,46.765C99.366,46.877 99.262,47.061 99.262,47.317C99.262,47.557 99.4,47.735 99.676,47.851C99.952,47.967 100.314,48.077 100.762,48.181C101.026,48.245 101.272,48.319 101.5,48.403C101.728,48.487 101.928,48.595 102.1,48.727C102.272,48.859 102.408,49.021 102.508,49.213C102.608,49.405 102.658,49.637 102.658,49.909C102.658,50.189 102.594,50.435 102.466,50.647C102.338,50.859 102.166,51.037 101.95,51.181C101.734,51.325 101.486,51.433 101.206,51.505C100.926,51.577 100.634,51.613 100.33,51.613C99.274,51.613 98.482,51.329 97.954,50.761L98.614,50.041Z" style="fill-rule:nonzero;"/>
                <path d="M88.36,70.2L88.36,181.877" style="fill:none;stroke:black;stroke-width:1px;stroke-dasharray:2,2,0,0;"/>
                <rect x="74.9" y="133.031" width="2.216" height="0.943" style="fill-rule:nonzero;"/>
                <path d="M101.708,134.358L101.708,133.255L100.292,133.255L100.292,131.839L99.189,131.839L99.189,133.255L97.773,133.255L97.773,134.358L99.189,134.358L99.189,135.774L100.292,135.774L100.292,134.358L101.708,134.358Z" style="fill-rule:nonzero;"/>
            </g>
        </g>
        <path d="M89.19,278.895L90.894,278.895C91.236,278.895 91.524,278.942 91.758,279.035C91.993,279.129 92.184,279.249 92.33,279.395C92.477,279.542 92.584,279.709 92.65,279.895C92.717,280.082 92.75,280.271 92.75,280.463C92.75,280.805 92.67,281.106 92.51,281.367C92.35,281.629 92.102,281.823 91.766,281.951L93.014,284.231L92.15,284.231L91.006,282.047L89.934,282.047L89.934,284.231L89.19,284.231L89.19,278.895ZM90.958,281.399C91.294,281.399 91.546,281.317 91.714,281.151C91.882,280.986 91.966,280.765 91.966,280.487C91.966,280.194 91.876,279.966 91.694,279.803C91.513,279.641 91.262,279.559 90.942,279.559L89.934,279.559L89.934,281.399L90.958,281.399Z" style="fill-rule:nonzero;"/>
        <path d="M96.218,282.471C96.197,282.466 96.156,282.459 96.094,282.451C96.033,282.443 95.962,282.437 95.882,282.431C95.802,282.426 95.717,282.421 95.626,282.415C95.536,282.41 95.448,282.407 95.362,282.407C95.16,282.407 94.996,282.431 94.87,282.479C94.745,282.527 94.646,282.587 94.574,282.659C94.502,282.731 94.453,282.811 94.426,282.899C94.4,282.987 94.386,283.071 94.386,283.151C94.386,283.354 94.456,283.507 94.594,283.611C94.733,283.715 94.925,283.767 95.17,283.767C95.309,283.767 95.441,283.743 95.566,283.695C95.692,283.647 95.802,283.583 95.898,283.503C95.994,283.423 96.072,283.33 96.13,283.223C96.189,283.117 96.218,283.007 96.218,282.895L96.218,282.471ZM96.226,283.783C96.088,283.97 95.905,284.109 95.678,284.199C95.452,284.29 95.218,284.335 94.978,284.335C94.824,284.335 94.67,284.315 94.518,284.275C94.366,284.235 94.228,284.169 94.102,284.075C93.977,283.982 93.876,283.862 93.798,283.715C93.721,283.569 93.682,283.389 93.682,283.175C93.682,282.775 93.822,282.455 94.102,282.215C94.382,281.975 94.786,281.855 95.314,281.855C95.4,281.855 95.49,281.858 95.586,281.863C95.682,281.869 95.773,281.874 95.858,281.879C95.944,281.885 96.018,281.89 96.082,281.895C96.146,281.901 96.192,281.906 96.218,281.911L96.218,281.775C96.218,281.498 96.134,281.299 95.966,281.179C95.798,281.059 95.57,280.999 95.282,280.999C95,280.999 94.776,281.038 94.61,281.115C94.445,281.193 94.306,281.271 94.194,281.351L93.858,280.863C93.922,280.81 94,280.757 94.09,280.703C94.181,280.65 94.288,280.601 94.41,280.555C94.533,280.51 94.672,280.473 94.826,280.443C94.981,280.414 95.16,280.399 95.362,280.399C95.842,280.399 96.22,280.515 96.494,280.747C96.769,280.979 96.906,281.309 96.906,281.735L96.906,283.899C96.906,284.03 96.909,284.141 96.914,284.231L96.242,284.231L96.226,283.783Z" style="fill-rule:nonzero;"/>
        <path d="M97.662,280.511L98.454,280.511L99.286,283.351L100.182,280.511L100.798,280.511L101.694,283.375L102.51,280.511L103.254,280.511L102.022,284.231L101.31,284.231L100.446,281.631L99.59,284.231L98.918,284.231L97.662,280.511Z" style="fill-rule:nonzero;"/>
        <path d="M85.65,247.709C85.725,247.795 85.809,247.881 85.902,247.969C85.996,248.057 86.101,248.136 86.218,248.205C86.336,248.275 86.466,248.331 86.61,248.373C86.754,248.416 86.912,248.437 87.082,248.437C87.434,248.437 87.709,248.357 87.906,248.197C88.104,248.037 88.202,247.821 88.202,247.549C88.202,247.256 88.09,247.036 87.866,246.889C87.642,246.743 87.32,246.624 86.898,246.533C86.669,246.485 86.461,246.419 86.274,246.333C86.088,246.248 85.926,246.141 85.79,246.013C85.654,245.885 85.549,245.737 85.474,245.569C85.4,245.401 85.362,245.211 85.362,244.997C85.362,244.8 85.4,244.613 85.474,244.437C85.549,244.261 85.661,244.107 85.81,243.973C85.96,243.84 86.146,243.733 86.37,243.653C86.594,243.573 86.853,243.533 87.146,243.533C87.408,243.533 87.633,243.561 87.822,243.617C88.012,243.673 88.173,243.741 88.306,243.821C88.44,243.901 88.546,243.984 88.626,244.069C88.706,244.155 88.768,244.224 88.81,244.277L88.298,244.749C88.266,244.712 88.218,244.663 88.154,244.601C88.09,244.54 88.009,244.48 87.91,244.421C87.812,244.363 87.697,244.313 87.566,244.273C87.436,244.233 87.285,244.213 87.114,244.213C86.944,244.213 86.797,244.236 86.674,244.281C86.552,244.327 86.45,244.385 86.37,244.457C86.29,244.529 86.232,244.611 86.194,244.701C86.157,244.792 86.138,244.883 86.138,244.973C86.138,245.107 86.166,245.22 86.222,245.313C86.278,245.407 86.36,245.489 86.466,245.561C86.573,245.633 86.705,245.695 86.862,245.745C87.02,245.796 87.2,245.845 87.402,245.893C87.6,245.941 87.793,246.004 87.982,246.081C88.172,246.159 88.341,246.263 88.49,246.393C88.64,246.524 88.758,246.684 88.846,246.873C88.934,247.063 88.978,247.293 88.978,247.565C88.978,247.795 88.93,248.005 88.834,248.197C88.738,248.389 88.606,248.556 88.438,248.697C88.27,248.839 88.072,248.948 87.842,249.025C87.613,249.103 87.365,249.141 87.098,249.141C86.848,249.141 86.62,249.112 86.414,249.053C86.209,248.995 86.022,248.92 85.854,248.829C85.686,248.739 85.54,248.639 85.414,248.529C85.289,248.42 85.186,248.312 85.106,248.205L85.65,247.709Z" style="fill-rule:nonzero;"/>
        <path d="M90.062,249.005L90.062,245.665C90.062,245.545 90.06,245.419 90.054,245.285L90.742,245.285L90.766,245.845C90.809,245.781 90.865,245.711 90.934,245.633C91.004,245.556 91.086,245.485 91.182,245.421C91.278,245.357 91.392,245.304 91.522,245.261C91.653,245.219 91.804,245.197 91.974,245.197C92.262,245.197 92.501,245.255 92.69,245.369C92.88,245.484 93.028,245.651 93.134,245.869C93.284,245.693 93.466,245.537 93.682,245.401C93.898,245.265 94.166,245.197 94.486,245.197C94.966,245.197 95.321,245.34 95.55,245.625C95.78,245.911 95.894,246.293 95.894,246.773L95.894,249.005L95.174,249.005L95.174,246.829C95.174,246.483 95.106,246.228 94.97,246.065C94.834,245.903 94.636,245.821 94.374,245.821C94.225,245.821 94.088,245.852 93.962,245.913C93.837,245.975 93.728,246.056 93.634,246.157C93.541,246.259 93.469,246.377 93.418,246.513C93.368,246.649 93.342,246.792 93.342,246.941L93.342,249.005L92.622,249.005L92.622,246.829C92.622,246.483 92.554,246.228 92.418,246.065C92.282,245.903 92.086,245.821 91.83,245.821C91.633,245.821 91.468,245.864 91.334,245.949C91.201,246.035 91.093,246.145 91.01,246.281C90.928,246.417 90.869,246.573 90.834,246.749C90.8,246.925 90.782,247.101 90.782,247.277L90.782,249.005L90.062,249.005Z" style="fill-rule:nonzero;"/>
        <path d="M99.442,247.245C99.421,247.24 99.38,247.233 99.318,247.225C99.257,247.217 99.186,247.211 99.106,247.205C99.026,247.2 98.941,247.195 98.85,247.189C98.76,247.184 98.672,247.181 98.586,247.181C98.384,247.181 98.22,247.205 98.094,247.253C97.969,247.301 97.87,247.361 97.798,247.433C97.726,247.505 97.677,247.585 97.65,247.673C97.624,247.761 97.61,247.845 97.61,247.925C97.61,248.128 97.68,248.281 97.818,248.385C97.957,248.489 98.149,248.541 98.394,248.541C98.533,248.541 98.665,248.517 98.79,248.469C98.916,248.421 99.026,248.357 99.122,248.277C99.218,248.197 99.296,248.104 99.354,247.997C99.413,247.891 99.442,247.781 99.442,247.669L99.442,247.245ZM99.45,248.557C99.312,248.744 99.129,248.883 98.902,248.973C98.676,249.064 98.442,249.109 98.202,249.109C98.048,249.109 97.894,249.089 97.742,249.049C97.59,249.009 97.452,248.943 97.326,248.849C97.201,248.756 97.1,248.636 97.022,248.489C96.945,248.343 96.906,248.163 96.906,247.949C96.906,247.549 97.046,247.229 97.326,246.989C97.606,246.749 98.01,246.629 98.538,246.629C98.624,246.629 98.714,246.632 98.81,246.637C98.906,246.643 98.997,246.648 99.082,246.653C99.168,246.659 99.242,246.664 99.306,246.669C99.37,246.675 99.416,246.68 99.442,246.685L99.442,246.549C99.442,246.272 99.358,246.073 99.19,245.953C99.022,245.833 98.794,245.773 98.506,245.773C98.224,245.773 98,245.812 97.834,245.889C97.669,245.967 97.53,246.045 97.418,246.125L97.082,245.637C97.146,245.584 97.224,245.531 97.314,245.477C97.405,245.424 97.512,245.375 97.634,245.329C97.757,245.284 97.896,245.247 98.05,245.217C98.205,245.188 98.384,245.173 98.586,245.173C99.066,245.173 99.444,245.289 99.718,245.521C99.993,245.753 100.13,246.083 100.13,246.509L100.13,248.673C100.13,248.804 100.133,248.915 100.138,249.005L99.466,249.005L99.45,248.557Z" style="fill-rule:nonzero;"/>
        <path d="M101.374,249.005L101.374,245.641C101.374,245.527 101.372,245.408 101.366,245.285L102.054,245.285L102.078,245.885C102.121,245.821 102.177,245.751 102.246,245.673C102.316,245.596 102.4,245.525 102.498,245.461C102.597,245.397 102.712,245.343 102.842,245.297C102.973,245.252 103.124,245.229 103.294,245.229C103.374,245.229 103.448,245.235 103.514,245.245C103.581,245.256 103.644,245.272 103.702,245.293L103.542,245.965C103.446,245.928 103.324,245.909 103.174,245.909C103.02,245.909 102.877,245.939 102.746,245.997C102.616,246.056 102.502,246.137 102.406,246.241C102.31,246.345 102.234,246.467 102.178,246.605C102.122,246.744 102.094,246.891 102.094,247.045L102.094,249.005L101.374,249.005Z" style="fill-rule:nonzero;"/>
        <path d="M104.866,245.885L104.194,245.885L104.194,245.285L104.866,245.285L104.866,244.069L105.586,244.069L105.586,245.285L106.674,245.285L106.674,245.885L105.586,245.885L105.586,247.717C105.586,248.016 105.633,248.221 105.726,248.333C105.82,248.445 105.952,248.501 106.122,248.501C106.261,248.501 106.376,248.48 106.466,248.437C106.557,248.395 106.648,248.331 106.738,248.245L107.066,248.685C106.912,248.835 106.753,248.943 106.59,249.009C106.428,249.076 106.234,249.109 106.01,249.109C105.616,249.109 105.326,249.003 105.142,248.789C104.958,248.576 104.866,248.243 104.866,247.789L104.866,245.885Z" style="fill-rule:nonzero;"/>
        <g transform="matrix(1,0,0,1,19.0004,64.9149)">
            <g transform="matrix(8,0,0,8,47.9766,197.497)">
                <path d="M0.417,-0.339L0.651,-0.339L0.651,-0.073C0.638,-0.062 0.624,-0.051 0.608,-0.04C0.591,-0.029 0.572,-0.02 0.551,-0.012C0.529,-0.003 0.505,0.003 0.478,0.008C0.451,0.013 0.421,0.016 0.388,0.016C0.336,0.016 0.289,0.007 0.248,-0.011C0.206,-0.028 0.17,-0.053 0.141,-0.084C0.111,-0.115 0.088,-0.151 0.073,-0.194C0.057,-0.236 0.049,-0.282 0.049,-0.332C0.049,-0.381 0.057,-0.426 0.074,-0.469C0.09,-0.512 0.113,-0.549 0.142,-0.581C0.171,-0.612 0.206,-0.637 0.248,-0.656C0.289,-0.674 0.334,-0.683 0.384,-0.683C0.419,-0.683 0.451,-0.679 0.479,-0.671C0.507,-0.662 0.532,-0.652 0.553,-0.639C0.574,-0.625 0.591,-0.611 0.606,-0.596C0.621,-0.581 0.633,-0.566 0.643,-0.552L0.575,-0.494C0.567,-0.505 0.557,-0.517 0.546,-0.53C0.535,-0.542 0.521,-0.553 0.506,-0.563C0.491,-0.573 0.473,-0.581 0.454,-0.588C0.434,-0.595 0.411,-0.598 0.386,-0.598C0.349,-0.598 0.316,-0.591 0.287,-0.577C0.258,-0.563 0.233,-0.544 0.213,-0.52C0.192,-0.496 0.177,-0.468 0.166,-0.436C0.155,-0.403 0.149,-0.369 0.149,-0.333C0.149,-0.294 0.155,-0.259 0.167,-0.227C0.179,-0.195 0.196,-0.168 0.218,-0.145C0.239,-0.122 0.265,-0.103 0.294,-0.091C0.323,-0.078 0.356,-0.071 0.391,-0.071C0.43,-0.071 0.463,-0.075 0.49,-0.084C0.517,-0.093 0.54,-0.105 0.559,-0.12L0.559,-0.256L0.417,-0.256L0.417,-0.339Z" style="fill-rule:nonzero;"/>
            </g>
            <g transform="matrix(8,0,0,8,53.7566,197.497)">
                <path d="M0.352,-0.22C0.349,-0.221 0.344,-0.222 0.337,-0.223C0.329,-0.224 0.32,-0.224 0.31,-0.225C0.3,-0.226 0.289,-0.226 0.278,-0.227C0.267,-0.228 0.256,-0.228 0.245,-0.228C0.22,-0.228 0.199,-0.225 0.184,-0.219C0.168,-0.213 0.156,-0.205 0.147,-0.197C0.138,-0.188 0.131,-0.178 0.128,-0.167C0.125,-0.156 0.123,-0.145 0.123,-0.135C0.123,-0.11 0.132,-0.091 0.149,-0.078C0.166,-0.065 0.19,-0.058 0.221,-0.058C0.238,-0.058 0.255,-0.061 0.271,-0.067C0.286,-0.073 0.3,-0.081 0.312,-0.091C0.324,-0.101 0.334,-0.113 0.341,-0.126C0.348,-0.139 0.352,-0.153 0.352,-0.167L0.352,-0.22ZM0.353,-0.056C0.336,-0.033 0.313,-0.015 0.284,-0.004C0.256,0.007 0.227,0.013 0.197,0.013C0.178,0.013 0.159,0.01 0.14,0.005C0.121,0 0.103,-0.008 0.087,-0.02C0.072,-0.031 0.059,-0.046 0.05,-0.065C0.04,-0.083 0.035,-0.105 0.035,-0.132C0.035,-0.182 0.053,-0.222 0.087,-0.252C0.123,-0.282 0.173,-0.297 0.239,-0.297C0.25,-0.297 0.261,-0.297 0.273,-0.296C0.285,-0.295 0.296,-0.295 0.307,-0.294C0.318,-0.293 0.327,-0.293 0.335,-0.292C0.343,-0.291 0.349,-0.291 0.352,-0.29L0.352,-0.307C0.352,-0.342 0.342,-0.367 0.321,-0.382C0.3,-0.397 0.271,-0.404 0.235,-0.404C0.2,-0.404 0.172,-0.399 0.151,-0.39C0.13,-0.38 0.113,-0.37 0.099,-0.36L0.057,-0.421C0.065,-0.428 0.075,-0.434 0.086,-0.441C0.097,-0.448 0.111,-0.454 0.126,-0.46C0.141,-0.465 0.159,-0.47 0.178,-0.473C0.197,-0.477 0.22,-0.479 0.245,-0.479C0.305,-0.479 0.352,-0.465 0.387,-0.436C0.421,-0.406 0.438,-0.365 0.438,-0.312L0.438,-0.042C0.438,-0.025 0.438,-0.011 0.439,-0L0.355,-0L0.353,-0.056Z" style="fill-rule:nonzero;"/>
            </g>
            <g transform="matrix(8,0,0,8,57.7606,197.497)">
                <path d="M0.102,-0.39L0.018,-0.39L0.018,-0.465L0.102,-0.465L0.102,-0.617L0.192,-0.617L0.192,-0.465L0.328,-0.465L0.328,-0.39L0.192,-0.39L0.192,-0.161C0.192,-0.124 0.198,-0.098 0.21,-0.084C0.221,-0.07 0.238,-0.063 0.259,-0.063C0.276,-0.063 0.291,-0.066 0.302,-0.071C0.313,-0.076 0.325,-0.084 0.336,-0.095L0.377,-0.04C0.358,-0.021 0.338,-0.008 0.318,0C0.297,0.009 0.273,0.013 0.245,0.013C0.196,0.013 0.16,-0 0.137,-0.027C0.114,-0.054 0.102,-0.095 0.102,-0.152L0.102,-0.39Z" style="fill-rule:nonzero;"/>
            </g>
            <g transform="matrix(8,0,0,8,60.8446,197.497)">
                <path d="M0.486,-0.068C0.481,-0.062 0.473,-0.054 0.462,-0.045C0.451,-0.036 0.438,-0.027 0.421,-0.018C0.404,-0.009 0.384,-0.002 0.361,0.004C0.338,0.011 0.311,0.014 0.282,0.014C0.246,0.014 0.213,0.008 0.183,-0.004C0.153,-0.016 0.127,-0.033 0.106,-0.055C0.085,-0.077 0.068,-0.103 0.057,-0.134C0.045,-0.165 0.039,-0.199 0.039,-0.236C0.039,-0.27 0.045,-0.302 0.056,-0.332C0.067,-0.361 0.083,-0.387 0.104,-0.408C0.125,-0.43 0.149,-0.447 0.178,-0.46C0.206,-0.473 0.237,-0.479 0.271,-0.479C0.311,-0.479 0.345,-0.471 0.374,-0.456C0.403,-0.441 0.426,-0.42 0.445,-0.395C0.463,-0.37 0.476,-0.341 0.485,-0.308C0.494,-0.275 0.498,-0.241 0.498,-0.206L0.131,-0.206C0.132,-0.185 0.136,-0.166 0.145,-0.149C0.153,-0.132 0.164,-0.117 0.178,-0.104C0.192,-0.091 0.208,-0.081 0.226,-0.074C0.244,-0.067 0.263,-0.063 0.283,-0.063C0.322,-0.063 0.355,-0.07 0.38,-0.083C0.405,-0.096 0.424,-0.109 0.435,-0.122L0.486,-0.068ZM0.405,-0.273C0.402,-0.309 0.39,-0.34 0.367,-0.365C0.344,-0.39 0.312,-0.403 0.271,-0.403C0.25,-0.403 0.231,-0.399 0.214,-0.392C0.197,-0.385 0.182,-0.375 0.17,-0.363C0.158,-0.351 0.149,-0.337 0.142,-0.322C0.135,-0.306 0.132,-0.29 0.131,-0.273L0.405,-0.273Z" style="fill-rule:nonzero;"/>
            </g>
            <g transform="matrix(8,0,0,8,39.5606,207.247)">
                <path d="M0.389,0.017C0.341,0.017 0.296,0.008 0.255,-0.011C0.214,-0.029 0.178,-0.054 0.147,-0.086C0.116,-0.117 0.092,-0.154 0.075,-0.197C0.058,-0.24 0.049,-0.285 0.049,-0.334C0.049,-0.383 0.058,-0.428 0.075,-0.47C0.092,-0.513 0.116,-0.55 0.147,-0.582C0.177,-0.613 0.213,-0.638 0.255,-0.657C0.296,-0.675 0.341,-0.684 0.389,-0.684C0.437,-0.684 0.482,-0.675 0.524,-0.657C0.565,-0.638 0.601,-0.613 0.632,-0.582C0.663,-0.55 0.687,-0.513 0.704,-0.47C0.721,-0.428 0.73,-0.383 0.73,-0.334C0.73,-0.285 0.721,-0.24 0.704,-0.197C0.687,-0.154 0.663,-0.117 0.632,-0.086C0.601,-0.054 0.565,-0.029 0.524,-0.011C0.482,0.008 0.437,0.017 0.389,0.017ZM0.389,-0.073C0.426,-0.073 0.459,-0.08 0.489,-0.094C0.518,-0.108 0.544,-0.127 0.565,-0.151C0.586,-0.175 0.602,-0.203 0.613,-0.234C0.624,-0.266 0.63,-0.3 0.63,-0.335C0.63,-0.371 0.624,-0.405 0.613,-0.437C0.602,-0.468 0.586,-0.496 0.565,-0.52C0.544,-0.544 0.518,-0.563 0.489,-0.577C0.459,-0.59 0.426,-0.597 0.389,-0.597C0.352,-0.597 0.319,-0.59 0.29,-0.577C0.261,-0.563 0.235,-0.544 0.215,-0.52C0.194,-0.496 0.177,-0.468 0.166,-0.437C0.155,-0.405 0.149,-0.371 0.149,-0.335C0.149,-0.3 0.155,-0.266 0.166,-0.234C0.177,-0.203 0.194,-0.175 0.215,-0.151C0.235,-0.127 0.261,-0.108 0.29,-0.094C0.319,-0.08 0.352,-0.073 0.389,-0.073Z" style="fill-rule:nonzero;"/>
            </g>
            <g transform="matrix(8,0,0,8,45.8046,207.247)">
                <path d="M0.059,-0.465L0.149,-0.465L0.149,-0.192C0.149,-0.148 0.158,-0.116 0.176,-0.097C0.194,-0.077 0.22,-0.067 0.254,-0.067C0.28,-0.067 0.302,-0.072 0.319,-0.083C0.336,-0.094 0.349,-0.108 0.36,-0.125C0.371,-0.141 0.378,-0.161 0.383,-0.183C0.387,-0.204 0.389,-0.226 0.389,-0.249L0.389,-0.465L0.479,-0.465L0.479,-0.048C0.479,-0.033 0.479,-0.017 0.48,-0L0.394,-0L0.391,-0.069C0.385,-0.061 0.378,-0.052 0.369,-0.043C0.36,-0.034 0.35,-0.025 0.337,-0.018C0.324,-0.01 0.31,-0.003 0.293,0.002C0.276,0.007 0.257,0.01 0.236,0.01C0.175,0.01 0.131,-0.008 0.102,-0.043C0.073,-0.078 0.059,-0.125 0.059,-0.186L0.059,-0.465Z" style="fill-rule:nonzero;"/>
            </g>
            <g transform="matrix(8,0,0,8,50.1526,207.247)">
                <path d="M0.102,-0.39L0.018,-0.39L0.018,-0.465L0.102,-0.465L0.102,-0.617L0.192,-0.617L0.192,-0.465L0.328,-0.465L0.328,-0.39L0.192,-0.39L0.192,-0.161C0.192,-0.124 0.198,-0.098 0.21,-0.084C0.221,-0.07 0.238,-0.063 0.259,-0.063C0.276,-0.063 0.291,-0.066 0.302,-0.071C0.313,-0.076 0.325,-0.084 0.336,-0.095L0.377,-0.04C0.358,-0.021 0.338,-0.008 0.318,0C0.297,0.009 0.273,0.013 0.245,0.013C0.196,0.013 0.16,-0 0.137,-0.027C0.114,-0.054 0.102,-0.095 0.102,-0.152L0.102,-0.39Z" style="fill-rule:nonzero;"/>
            </g>
            <g transform="matrix(8,0,0,8,53.2366,207.247)">
                <path d="M0.062,0.2L0.062,-0.418C0.062,-0.433 0.062,-0.448 0.061,-0.465L0.147,-0.465L0.15,-0.399C0.155,-0.405 0.161,-0.412 0.17,-0.421C0.179,-0.43 0.19,-0.438 0.203,-0.446C0.216,-0.454 0.231,-0.461 0.248,-0.467C0.265,-0.472 0.285,-0.475 0.308,-0.475C0.344,-0.475 0.375,-0.468 0.402,-0.455C0.428,-0.442 0.45,-0.424 0.467,-0.401C0.484,-0.378 0.497,-0.352 0.505,-0.323C0.514,-0.294 0.518,-0.263 0.518,-0.23C0.518,-0.188 0.511,-0.152 0.497,-0.121C0.482,-0.09 0.464,-0.065 0.441,-0.045C0.418,-0.025 0.392,-0.01 0.364,-0.001C0.335,0.009 0.307,0.014 0.28,0.014C0.249,0.014 0.224,0.011 0.204,0.004C0.186,-0.002 0.168,-0.009 0.151,-0.016L0.151,0.2L0.062,0.2ZM0.151,-0.101C0.162,-0.092 0.177,-0.084 0.197,-0.076C0.217,-0.068 0.242,-0.064 0.272,-0.064C0.295,-0.064 0.316,-0.068 0.335,-0.077C0.354,-0.085 0.37,-0.097 0.384,-0.112C0.397,-0.127 0.408,-0.144 0.415,-0.164C0.422,-0.184 0.426,-0.206 0.426,-0.23C0.426,-0.253 0.424,-0.274 0.419,-0.294C0.413,-0.314 0.406,-0.332 0.395,-0.347C0.384,-0.362 0.369,-0.375 0.352,-0.384C0.335,-0.393 0.313,-0.397 0.288,-0.397C0.256,-0.397 0.229,-0.388 0.206,-0.371C0.183,-0.353 0.167,-0.327 0.158,-0.293C0.155,-0.282 0.153,-0.271 0.152,-0.259C0.151,-0.246 0.151,-0.233 0.151,-0.22L0.151,-0.101Z" style="fill-rule:nonzero;"/>
            </g>
            <g transform="matrix(8,0,0,8,57.7126,207.247)">
                <path d="M0.059,-0.465L0.149,-0.465L0.149,-0.192C0.149,-0.148 0.158,-0.116 0.176,-0.097C0.194,-0.077 0.22,-0.067 0.254,-0.067C0.28,-0.067 0.302,-0.072 0.319,-0.083C0.336,-0.094 0.349,-0.108 0.36,-0.125C0.371,-0.141 0.378,-0.161 0.383,-0.183C0.387,-0.204 0.389,-0.226 0.389,-0.249L0.389,-0.465L0.479,-0.465L0.479,-0.048C0.479,-0.033 0.479,-0.017 0.48,-0L0.394,-0L0.391,-0.069C0.385,-0.061 0.378,-0.052 0.369,-0.043C0.36,-0.034 0.35,-0.025 0.337,-0.018C0.324,-0.01 0.31,-0.003 0.293,0.002C0.276,0.007 0.257,0.01 0.236,0.01C0.175,0.01 0.131,-0.008 0.102,-0.043C0.073,-0.078 0.059,-0.125 0.059,-0.186L0.059,-0.465Z" style="fill-rule:nonzero;"/>
            </g>
            <g transform="matrix(8,0,0,8,62.0606,207.247)">
                <path d="M0.102,-0.39L0.018,-0.39L0.018,-0.465L0.102,-0.465L0.102,-0.617L0.192,-0.617L0.192,-0.465L0.328,-0.465L0.328,-0.39L0.192,-0.39L0.192,-0.161C0.192,-0.124 0.198,-0.098 0.21,-0.084C0.221,-0.07 0.238,-0.063 0.259,-0.063C0.276,-0.063 0.291,-0.066 0.302,-0.071C0.313,-0.076 0.325,-0.084 0.336,-0.095L0.377,-0.04C0.358,-0.021 0.338,-0.008 0.318,0C0.297,0.009 0.273,0.013 0.245,0.013C0.196,0.013 0.16,-0 0.137,-0.027C0.114,-0.054 0.102,-0.095 0.102,-0.152L0.102,-0.39Z" style="fill-rule:nonzero;"/>
            </g>
        </g>
        <g id="Out">
            <path d="M294.096,302.052C294.096,298.741 291.407,296.052 288.096,296.052L71.904,296.052C68.593,296.052 65.904,298.741 65.904,302.052L65.904,350.052C65.904,353.364 68.593,356.052 71.904,356.052L288.096,356.052C291.407,356.052 294.096,353.364 294.096,350.052L294.096,302.052Z"/>
            <path d="M214.951,344.163L217.759,344.163L217.759,347.355C217.607,347.491 217.433,347.623 217.237,347.751C217.041,347.879 216.813,347.993 216.553,348.093C216.293,348.193 216.003,348.273 215.683,348.333C215.363,348.393 215.003,348.423 214.603,348.423C213.979,348.423 213.417,348.317 212.917,348.105C212.417,347.893 211.989,347.601 211.633,347.229C211.277,346.857 211.005,346.417 210.817,345.909C210.629,345.401 210.535,344.847 210.535,344.247C210.535,343.663 210.633,343.115 210.829,342.603C211.025,342.091 211.299,341.645 211.651,341.265C212.003,340.885 212.425,340.585 212.917,340.365C213.409,340.145 213.955,340.035 214.555,340.035C214.979,340.035 215.359,340.085 215.695,340.185C216.031,340.285 216.325,340.413 216.577,340.569C216.829,340.725 217.043,340.895 217.219,341.079C217.395,341.263 217.543,341.439 217.663,341.607L216.847,342.303C216.751,342.167 216.635,342.025 216.499,341.877C216.363,341.729 216.203,341.595 216.019,341.475C215.835,341.355 215.625,341.255 215.389,341.175C215.153,341.095 214.883,341.055 214.579,341.055C214.139,341.055 213.743,341.139 213.391,341.307C213.039,341.475 212.741,341.703 212.497,341.991C212.253,342.279 212.065,342.617 211.933,343.005C211.801,343.393 211.735,343.803 211.735,344.235C211.735,344.699 211.807,345.123 211.951,345.507C212.095,345.891 212.297,346.221 212.557,346.497C212.817,346.773 213.123,346.989 213.475,347.145C213.827,347.301 214.215,347.379 214.639,347.379C215.103,347.379 215.497,347.327 215.821,347.223C216.145,347.119 216.423,346.975 216.655,346.791L216.655,345.159L214.951,345.159L214.951,344.163Z" style="fill:white;fill-rule:nonzero;"/>
            <path d="M222.799,345.591C222.767,345.583 222.705,345.573 222.613,345.561C222.521,345.549 222.415,345.539 222.295,345.531C222.175,345.523 222.047,345.515 221.911,345.507C221.775,345.499 221.643,345.495 221.515,345.495C221.211,345.495 220.965,345.531 220.777,345.603C220.589,345.675 220.441,345.765 220.333,345.873C220.225,345.981 220.151,346.101 220.111,346.233C220.071,346.365 220.051,346.491 220.051,346.611C220.051,346.915 220.155,347.145 220.363,347.301C220.571,347.457 220.859,347.535 221.227,347.535C221.435,347.535 221.633,347.499 221.821,347.427C222.009,347.355 222.175,347.259 222.319,347.139C222.463,347.019 222.579,346.879 222.667,346.719C222.755,346.559 222.799,346.395 222.799,346.227L222.799,345.591ZM222.811,347.559C222.603,347.839 222.329,348.047 221.989,348.183C221.649,348.319 221.299,348.387 220.939,348.387C220.707,348.387 220.477,348.357 220.249,348.297C220.021,348.237 219.813,348.137 219.625,347.997C219.437,347.857 219.285,347.677 219.169,347.457C219.053,347.237 218.995,346.967 218.995,346.647C218.995,346.047 219.205,345.567 219.625,345.207C220.045,344.847 220.651,344.667 221.443,344.667C221.571,344.667 221.707,344.671 221.851,344.679C221.995,344.687 222.131,344.695 222.259,344.703C222.387,344.711 222.499,344.719 222.595,344.727C222.691,344.735 222.759,344.743 222.799,344.751L222.799,344.547C222.799,344.131 222.673,343.833 222.421,343.653C222.169,343.473 221.827,343.383 221.395,343.383C220.971,343.383 220.635,343.441 220.387,343.557C220.139,343.673 219.931,343.791 219.763,343.911L219.259,343.179C219.355,343.099 219.471,343.019 219.607,342.939C219.743,342.859 219.903,342.785 220.087,342.717C220.271,342.649 220.479,342.593 220.711,342.549C220.943,342.505 221.211,342.483 221.515,342.483C222.235,342.483 222.801,342.657 223.213,343.005C223.625,343.353 223.831,343.847 223.831,344.487L223.831,347.733C223.831,347.929 223.835,348.095 223.843,348.231L222.835,348.231L222.811,347.559Z" style="fill:white;fill-rule:nonzero;"/>
            <path d="M225.763,343.551L224.755,343.551L224.755,342.651L225.763,342.651L225.763,340.827L226.843,340.827L226.843,342.651L228.475,342.651L228.475,343.551L226.843,343.551L226.843,346.299C226.843,346.747 226.913,347.055 227.053,347.223C227.193,347.391 227.391,347.475 227.647,347.475C227.855,347.475 228.027,347.443 228.163,347.379C228.299,347.315 228.435,347.219 228.571,347.091L229.063,347.751C228.831,347.975 228.593,348.137 228.349,348.237C228.105,348.337 227.815,348.387 227.479,348.387C226.887,348.387 226.453,348.227 226.177,347.907C225.901,347.587 225.763,347.087 225.763,346.407L225.763,343.551Z" style="fill:white;fill-rule:nonzero;"/>
            <path d="M234.955,347.415C234.891,347.487 234.795,347.579 234.667,347.691C234.539,347.803 234.373,347.911 234.169,348.015C233.965,348.119 233.725,348.209 233.449,348.285C233.173,348.361 232.859,348.399 232.507,348.399C232.075,348.399 231.679,348.327 231.319,348.183C230.959,348.039 230.651,347.835 230.395,347.571C230.139,347.307 229.941,346.991 229.801,346.623C229.661,346.255 229.591,345.847 229.591,345.399C229.591,344.991 229.659,344.609 229.795,344.253C229.931,343.897 230.123,343.589 230.371,343.329C230.619,343.069 230.913,342.863 231.253,342.711C231.593,342.559 231.967,342.483 232.375,342.483C232.855,342.483 233.267,342.575 233.611,342.759C233.955,342.943 234.237,343.187 234.457,343.491C234.677,343.795 234.839,344.143 234.943,344.535C235.047,344.927 235.099,345.335 235.099,345.759L230.695,345.759C230.703,346.007 230.757,346.235 230.857,346.443C230.957,346.651 231.091,346.831 231.259,346.983C231.427,347.135 231.619,347.255 231.835,347.343C232.051,347.431 232.279,347.475 232.519,347.475C232.991,347.475 233.379,347.395 233.683,347.235C233.987,347.075 234.207,346.919 234.343,346.767L234.955,347.415ZM233.983,344.955C233.951,344.523 233.799,344.155 233.527,343.851C233.255,343.547 232.871,343.395 232.375,343.395C232.119,343.395 231.889,343.439 231.685,343.527C231.481,343.615 231.307,343.731 231.163,343.875C231.019,344.019 230.907,344.185 230.827,344.373C230.747,344.561 230.703,344.755 230.695,344.955L233.983,344.955Z" style="fill:white;fill-rule:nonzero;"/>
            <path d="M236.635,346.827C236.835,347.027 237.075,347.187 237.355,347.307C237.635,347.427 237.959,347.487 238.327,347.487C238.687,347.487 238.987,347.429 239.227,347.313C239.467,347.197 239.587,347.015 239.587,346.767C239.587,346.639 239.561,346.529 239.509,346.437C239.457,346.345 239.369,346.263 239.245,346.191C239.121,346.119 238.957,346.053 238.753,345.993C238.549,345.933 238.295,345.867 237.991,345.795C237.775,345.747 237.561,345.683 237.349,345.603C237.137,345.523 236.947,345.417 236.779,345.285C236.611,345.153 236.475,344.993 236.371,344.805C236.267,344.617 236.215,344.391 236.215,344.127C236.215,343.855 236.277,343.617 236.401,343.413C236.525,343.209 236.691,343.037 236.899,342.897C237.107,342.757 237.341,342.651 237.601,342.579C237.861,342.507 238.131,342.471 238.411,342.471C238.883,342.471 239.289,342.533 239.629,342.657C239.969,342.781 240.267,342.955 240.523,343.179L239.935,343.923C239.767,343.771 239.557,343.643 239.305,343.539C239.053,343.435 238.759,343.383 238.423,343.383C238.079,343.383 237.803,343.439 237.595,343.551C237.387,343.663 237.283,343.847 237.283,344.103C237.283,344.343 237.421,344.521 237.697,344.637C237.973,344.753 238.335,344.863 238.783,344.967C239.047,345.031 239.293,345.105 239.521,345.189C239.749,345.273 239.949,345.381 240.121,345.513C240.293,345.645 240.429,345.807 240.529,345.999C240.629,346.191 240.679,346.423 240.679,346.695C240.679,346.975 240.615,347.221 240.487,347.433C240.359,347.645 240.187,347.823 239.971,347.967C239.755,348.111 239.507,348.219 239.227,348.291C238.947,348.363 238.655,348.399 238.351,348.399C237.295,348.399 236.503,348.115 235.975,347.547L236.635,346.827Z" style="fill:white;fill-rule:nonzero;"/>
            <path d="M75.651,346.287C75.763,346.415 75.889,346.545 76.029,346.677C76.169,346.809 76.327,346.927 76.503,347.031C76.679,347.135 76.875,347.219 77.091,347.283C77.307,347.347 77.543,347.379 77.799,347.379C78.327,347.379 78.739,347.259 79.035,347.019C79.331,346.779 79.479,346.455 79.479,346.047C79.479,345.607 79.311,345.277 78.975,345.057C78.639,344.837 78.155,344.659 77.523,344.523C77.179,344.451 76.867,344.351 76.587,344.223C76.307,344.095 76.065,343.935 75.861,343.743C75.657,343.551 75.499,343.329 75.387,343.077C75.275,342.825 75.219,342.539 75.219,342.219C75.219,341.923 75.275,341.643 75.387,341.379C75.499,341.115 75.667,340.883 75.891,340.683C76.115,340.483 76.395,340.323 76.731,340.203C77.067,340.083 77.455,340.023 77.895,340.023C78.287,340.023 78.625,340.065 78.909,340.149C79.193,340.233 79.435,340.335 79.635,340.455C79.835,340.575 79.995,340.699 80.115,340.827C80.235,340.955 80.327,341.059 80.391,341.139L79.623,341.847C79.575,341.791 79.503,341.717 79.407,341.625C79.311,341.533 79.189,341.443 79.041,341.355C78.893,341.267 78.721,341.193 78.525,341.133C78.329,341.073 78.103,341.043 77.847,341.043C77.591,341.043 77.371,341.077 77.187,341.145C77.003,341.213 76.851,341.301 76.731,341.409C76.611,341.517 76.523,341.639 76.467,341.775C76.411,341.911 76.383,342.047 76.383,342.183C76.383,342.383 76.425,342.553 76.509,342.693C76.593,342.833 76.715,342.957 76.875,343.065C77.035,343.173 77.233,343.265 77.469,343.341C77.705,343.417 77.975,343.491 78.279,343.563C78.575,343.635 78.865,343.729 79.149,343.845C79.433,343.961 79.687,344.117 79.911,344.313C80.135,344.509 80.313,344.749 80.445,345.033C80.577,345.317 80.643,345.663 80.643,346.071C80.643,346.415 80.571,346.731 80.427,347.019C80.283,347.307 80.085,347.557 79.833,347.769C79.581,347.981 79.283,348.145 78.939,348.261C78.595,348.377 78.223,348.435 77.823,348.435C77.447,348.435 77.105,348.391 76.797,348.303C76.489,348.215 76.209,348.103 75.957,347.967C75.705,347.831 75.485,347.681 75.297,347.517C75.109,347.353 74.955,347.191 74.835,347.031L75.651,346.287Z" style="fill:white;fill-rule:nonzero;"/>
            <path d="M82.155,343.551L81.147,343.551L81.147,342.651L82.155,342.651L82.155,340.827L83.235,340.827L83.235,342.651L84.867,342.651L84.867,343.551L83.235,343.551L83.235,346.299C83.235,346.747 83.305,347.055 83.445,347.223C83.585,347.391 83.783,347.475 84.039,347.475C84.247,347.475 84.419,347.443 84.555,347.379C84.691,347.315 84.827,347.219 84.963,347.091L85.455,347.751C85.223,347.975 84.985,348.137 84.741,348.237C84.497,348.337 84.207,348.387 83.871,348.387C83.279,348.387 82.845,348.227 82.569,347.907C82.293,347.587 82.155,347.087 82.155,346.407L82.155,343.551Z" style="fill:white;fill-rule:nonzero;"/>
            <path d="M91.347,347.415C91.283,347.487 91.187,347.579 91.059,347.691C90.931,347.803 90.765,347.911 90.561,348.015C90.357,348.119 90.117,348.209 89.841,348.285C89.565,348.361 89.251,348.399 88.899,348.399C88.467,348.399 88.071,348.327 87.711,348.183C87.351,348.039 87.043,347.835 86.787,347.571C86.531,347.307 86.333,346.991 86.193,346.623C86.053,346.255 85.983,345.847 85.983,345.399C85.983,344.991 86.051,344.609 86.187,344.253C86.323,343.897 86.515,343.589 86.763,343.329C87.011,343.069 87.305,342.863 87.645,342.711C87.985,342.559 88.359,342.483 88.767,342.483C89.247,342.483 89.659,342.575 90.003,342.759C90.347,342.943 90.629,343.187 90.849,343.491C91.069,343.795 91.231,344.143 91.335,344.535C91.439,344.927 91.491,345.335 91.491,345.759L87.087,345.759C87.095,346.007 87.149,346.235 87.249,346.443C87.349,346.651 87.483,346.831 87.651,346.983C87.819,347.135 88.011,347.255 88.227,347.343C88.443,347.431 88.671,347.475 88.911,347.475C89.383,347.475 89.771,347.395 90.075,347.235C90.379,347.075 90.599,346.919 90.735,346.767L91.347,347.415ZM90.375,344.955C90.343,344.523 90.191,344.155 89.919,343.851C89.647,343.547 89.263,343.395 88.767,343.395C88.511,343.395 88.281,343.439 88.077,343.527C87.873,343.615 87.699,343.731 87.555,343.875C87.411,344.019 87.299,344.185 87.219,344.373C87.139,344.561 87.095,344.755 87.087,344.955L90.375,344.955Z" style="fill:white;fill-rule:nonzero;"/>
            <path d="M92.667,350.631L92.667,343.221C92.667,343.041 92.663,342.851 92.655,342.651L93.687,342.651L93.723,343.443C93.779,343.371 93.859,343.283 93.963,343.179C94.067,343.075 94.197,342.975 94.353,342.879C94.509,342.783 94.691,342.701 94.899,342.633C95.107,342.565 95.347,342.531 95.619,342.531C96.051,342.531 96.425,342.611 96.741,342.771C97.057,342.931 97.319,343.147 97.527,343.419C97.735,343.691 97.889,344.003 97.989,344.355C98.089,344.707 98.139,345.079 98.139,345.471C98.139,345.975 98.053,346.411 97.881,346.779C97.709,347.147 97.485,347.451 97.209,347.691C96.933,347.931 96.625,348.109 96.285,348.225C95.945,348.341 95.611,348.399 95.283,348.399C94.907,348.399 94.605,348.361 94.377,348.285C94.149,348.209 93.935,348.127 93.735,348.039L93.735,350.631L92.667,350.631ZM93.735,347.019C93.863,347.123 94.047,347.223 94.287,347.319C94.527,347.415 94.827,347.463 95.187,347.463C95.459,347.463 95.709,347.413 95.937,347.313C96.165,347.213 96.361,347.073 96.525,346.893C96.689,346.713 96.815,346.503 96.903,346.263C96.991,346.023 97.035,345.759 97.035,345.471C97.035,345.199 97.005,344.943 96.945,344.703C96.885,344.463 96.789,344.251 96.657,344.067C96.525,343.883 96.355,343.737 96.147,343.629C95.939,343.521 95.683,343.467 95.379,343.467C94.995,343.467 94.667,343.573 94.395,343.785C94.123,343.997 93.931,344.307 93.819,344.715C93.779,344.843 93.755,344.981 93.747,345.129C93.739,345.277 93.735,345.431 93.735,345.591L93.735,347.019Z" style="fill:white;fill-rule:nonzero;"/>
            <path d="M99.699,346.827C99.899,347.027 100.139,347.187 100.419,347.307C100.699,347.427 101.023,347.487 101.391,347.487C101.751,347.487 102.051,347.429 102.291,347.313C102.531,347.197 102.651,347.015 102.651,346.767C102.651,346.639 102.625,346.529 102.573,346.437C102.521,346.345 102.433,346.263 102.309,346.191C102.185,346.119 102.021,346.053 101.817,345.993C101.613,345.933 101.359,345.867 101.055,345.795C100.839,345.747 100.625,345.683 100.413,345.603C100.201,345.523 100.011,345.417 99.843,345.285C99.675,345.153 99.539,344.993 99.435,344.805C99.331,344.617 99.279,344.391 99.279,344.127C99.279,343.855 99.341,343.617 99.465,343.413C99.589,343.209 99.755,343.037 99.963,342.897C100.171,342.757 100.405,342.651 100.665,342.579C100.925,342.507 101.195,342.471 101.475,342.471C101.947,342.471 102.353,342.533 102.693,342.657C103.033,342.781 103.331,342.955 103.587,343.179L102.999,343.923C102.831,343.771 102.621,343.643 102.369,343.539C102.117,343.435 101.823,343.383 101.487,343.383C101.143,343.383 100.867,343.439 100.659,343.551C100.451,343.663 100.347,343.847 100.347,344.103C100.347,344.343 100.485,344.521 100.761,344.637C101.037,344.753 101.399,344.863 101.847,344.967C102.111,345.031 102.357,345.105 102.585,345.189C102.813,345.273 103.013,345.381 103.185,345.513C103.357,345.645 103.493,345.807 103.593,345.999C103.693,346.191 103.743,346.423 103.743,346.695C103.743,346.975 103.679,347.221 103.551,347.433C103.423,347.645 103.251,347.823 103.035,347.967C102.819,348.111 102.571,348.219 102.291,348.291C102.011,348.363 101.719,348.399 101.415,348.399C100.359,348.399 99.567,348.115 99.039,347.547L99.699,346.827Z" style="fill:white;fill-rule:nonzero;"/>
            <path d="M123.784,346.287C123.896,346.415 124.022,346.545 124.162,346.677C124.302,346.809 124.46,346.927 124.636,347.031C124.812,347.135 125.008,347.219 125.224,347.283C125.44,347.347 125.676,347.379 125.932,347.379C126.46,347.379 126.872,347.259 127.168,347.019C127.464,346.779 127.612,346.455 127.612,346.047C127.612,345.607 127.444,345.277 127.108,345.057C126.772,344.837 126.288,344.659 125.656,344.523C125.312,344.451 125,344.351 124.72,344.223C124.44,344.095 124.198,343.935 123.994,343.743C123.79,343.551 123.632,343.329 123.52,343.077C123.408,342.825 123.352,342.539 123.352,342.219C123.352,341.923 123.408,341.643 123.52,341.379C123.632,341.115 123.8,340.883 124.024,340.683C124.248,340.483 124.528,340.323 124.864,340.203C125.2,340.083 125.588,340.023 126.028,340.023C126.42,340.023 126.758,340.065 127.042,340.149C127.326,340.233 127.568,340.335 127.768,340.455C127.968,340.575 128.128,340.699 128.248,340.827C128.368,340.955 128.46,341.059 128.524,341.139L127.756,341.847C127.708,341.791 127.636,341.717 127.54,341.625C127.444,341.533 127.322,341.443 127.174,341.355C127.026,341.267 126.854,341.193 126.658,341.133C126.462,341.073 126.236,341.043 125.98,341.043C125.724,341.043 125.504,341.077 125.32,341.145C125.136,341.213 124.984,341.301 124.864,341.409C124.744,341.517 124.656,341.639 124.6,341.775C124.544,341.911 124.516,342.047 124.516,342.183C124.516,342.383 124.558,342.553 124.642,342.693C124.726,342.833 124.848,342.957 125.008,343.065C125.168,343.173 125.366,343.265 125.602,343.341C125.838,343.417 126.108,343.491 126.412,343.563C126.708,343.635 126.998,343.729 127.282,343.845C127.566,343.961 127.82,344.117 128.044,344.313C128.268,344.509 128.446,344.749 128.578,345.033C128.71,345.317 128.776,345.663 128.776,346.071C128.776,346.415 128.704,346.731 128.56,347.019C128.416,347.307 128.218,347.557 127.966,347.769C127.714,347.981 127.416,348.145 127.072,348.261C126.728,348.377 126.356,348.435 125.956,348.435C125.58,348.435 125.238,348.391 124.93,348.303C124.622,348.215 124.342,348.103 124.09,347.967C123.838,347.831 123.618,347.681 123.43,347.517C123.242,347.353 123.088,347.191 122.968,347.031L123.784,346.287Z" style="fill:white;fill-rule:nonzero;"/>
            <rect x="130.228" y="340.227" width="1.08" height="8.004" style="fill:white;fill-rule:nonzero;"/>
            <path d="M137.86,347.415C137.796,347.487 137.7,347.579 137.572,347.691C137.444,347.803 137.278,347.911 137.074,348.015C136.87,348.119 136.63,348.209 136.354,348.285C136.078,348.361 135.764,348.399 135.412,348.399C134.98,348.399 134.584,348.327 134.224,348.183C133.864,348.039 133.556,347.835 133.3,347.571C133.044,347.307 132.846,346.991 132.706,346.623C132.566,346.255 132.496,345.847 132.496,345.399C132.496,344.991 132.564,344.609 132.7,344.253C132.836,343.897 133.028,343.589 133.276,343.329C133.524,343.069 133.818,342.863 134.158,342.711C134.498,342.559 134.872,342.483 135.28,342.483C135.76,342.483 136.172,342.575 136.516,342.759C136.86,342.943 137.142,343.187 137.362,343.491C137.582,343.795 137.744,344.143 137.848,344.535C137.952,344.927 138.004,345.335 138.004,345.759L133.6,345.759C133.608,346.007 133.662,346.235 133.762,346.443C133.862,346.651 133.996,346.831 134.164,346.983C134.332,347.135 134.524,347.255 134.74,347.343C134.956,347.431 135.184,347.475 135.424,347.475C135.896,347.475 136.284,347.395 136.588,347.235C136.892,347.075 137.112,346.919 137.248,346.767L137.86,347.415ZM136.888,344.955C136.856,344.523 136.704,344.155 136.432,343.851C136.16,343.547 135.776,343.395 135.28,343.395C135.024,343.395 134.794,343.439 134.59,343.527C134.386,343.615 134.212,343.731 134.068,343.875C133.924,344.019 133.812,344.185 133.732,344.373C133.652,344.561 133.608,344.755 133.6,344.955L136.888,344.955Z" style="fill:white;fill-rule:nonzero;"/>
            <path d="M138.424,342.651L139.612,342.651L140.86,346.911L142.204,342.651L143.128,342.651L144.472,346.947L145.696,342.651L146.812,342.651L144.964,348.231L143.896,348.231L142.6,344.331L141.316,348.231L140.308,348.231L138.424,342.651Z" style="fill:white;fill-rule:nonzero;"/>
            <path d="M169.865,346.287C169.977,346.415 170.103,346.545 170.243,346.677C170.383,346.809 170.541,346.927 170.717,347.031C170.893,347.135 171.089,347.219 171.305,347.283C171.521,347.347 171.757,347.379 172.013,347.379C172.541,347.379 172.953,347.259 173.249,347.019C173.545,346.779 173.693,346.455 173.693,346.047C173.693,345.607 173.525,345.277 173.189,345.057C172.853,344.837 172.369,344.659 171.737,344.523C171.393,344.451 171.081,344.351 170.801,344.223C170.521,344.095 170.279,343.935 170.075,343.743C169.871,343.551 169.713,343.329 169.601,343.077C169.489,342.825 169.433,342.539 169.433,342.219C169.433,341.923 169.489,341.643 169.601,341.379C169.713,341.115 169.881,340.883 170.105,340.683C170.329,340.483 170.609,340.323 170.945,340.203C171.281,340.083 171.669,340.023 172.109,340.023C172.501,340.023 172.839,340.065 173.123,340.149C173.407,340.233 173.649,340.335 173.849,340.455C174.049,340.575 174.209,340.699 174.329,340.827C174.449,340.955 174.541,341.059 174.605,341.139L173.837,341.847C173.789,341.791 173.717,341.717 173.621,341.625C173.525,341.533 173.403,341.443 173.255,341.355C173.107,341.267 172.935,341.193 172.739,341.133C172.543,341.073 172.317,341.043 172.061,341.043C171.805,341.043 171.585,341.077 171.401,341.145C171.217,341.213 171.065,341.301 170.945,341.409C170.825,341.517 170.737,341.639 170.681,341.775C170.625,341.911 170.597,342.047 170.597,342.183C170.597,342.383 170.639,342.553 170.723,342.693C170.807,342.833 170.929,342.957 171.089,343.065C171.249,343.173 171.447,343.265 171.683,343.341C171.919,343.417 172.189,343.491 172.493,343.563C172.789,343.635 173.079,343.729 173.363,343.845C173.647,343.961 173.901,344.117 174.125,344.313C174.349,344.509 174.527,344.749 174.659,345.033C174.791,345.317 174.857,345.663 174.857,346.071C174.857,346.415 174.785,346.731 174.641,347.019C174.497,347.307 174.299,347.557 174.047,347.769C173.795,347.981 173.497,348.145 173.153,348.261C172.809,348.377 172.437,348.435 172.037,348.435C171.661,348.435 171.319,348.391 171.011,348.303C170.703,348.215 170.423,348.103 170.171,347.967C169.919,347.831 169.699,347.681 169.511,347.517C169.323,347.353 169.169,347.191 169.049,347.031L169.865,346.287Z" style="fill:white;fill-rule:nonzero;"/>
            <path d="M180.857,347.355C180.577,347.651 180.255,347.903 179.891,348.111C179.527,348.319 179.073,348.423 178.529,348.423C178.121,348.423 177.759,348.365 177.443,348.249C177.127,348.133 176.863,347.973 176.651,347.769C176.439,347.565 176.279,347.329 176.171,347.061C176.063,346.793 176.009,346.507 176.009,346.203C176.009,345.699 176.145,345.243 176.417,344.835C176.689,344.427 177.105,344.031 177.665,343.647L177.521,343.467C177.329,343.227 177.181,342.979 177.077,342.723C176.973,342.467 176.921,342.195 176.921,341.907C176.921,341.667 176.969,341.433 177.065,341.205C177.161,340.977 177.299,340.775 177.479,340.599C177.659,340.423 177.881,340.283 178.145,340.179C178.409,340.075 178.709,340.023 179.045,340.023C179.349,340.023 179.611,340.061 179.831,340.137C180.051,340.213 180.243,340.313 180.407,340.437C180.571,340.561 180.707,340.701 180.815,340.857C180.923,341.013 181.017,341.175 181.097,341.343L180.293,341.859C180.085,341.499 179.887,341.261 179.699,341.145C179.511,341.029 179.313,340.971 179.105,340.971C178.761,340.971 178.501,341.063 178.325,341.247C178.149,341.431 178.061,341.647 178.061,341.895C178.061,342.111 178.119,342.321 178.235,342.525C178.351,342.729 178.505,342.943 178.697,343.167L180.881,345.723L181.925,344.391L182.741,345.039L181.553,346.527L183.017,348.231L181.625,348.231L180.857,347.355ZM178.301,344.403C177.885,344.691 177.591,344.965 177.419,345.225C177.247,345.485 177.161,345.791 177.161,346.143C177.161,346.503 177.281,346.803 177.521,347.043C177.761,347.283 178.113,347.403 178.577,347.403C178.945,347.403 179.255,347.321 179.507,347.157C179.759,346.993 179.985,346.795 180.185,346.563L178.301,344.403Z" style="fill:white;fill-rule:nonzero;"/>
            <path d="M184.109,340.227L185.261,340.227L185.261,343.575L189.641,343.575L189.641,340.227L190.793,340.227L190.793,348.231L189.641,348.231L189.641,344.607L185.261,344.607L185.261,348.231L184.109,348.231L184.109,340.227Z" style="fill:white;fill-rule:nonzero;"/>
            <path d="M261.674,341.235L258.806,341.235L258.806,340.227L265.682,340.227L265.682,341.235L262.826,341.235L262.826,348.231L261.674,348.231L261.674,341.235Z" style="fill:white;fill-rule:nonzero;"/>
            <path d="M265.01,348.231L265.01,343.185C265.01,343.013 265.006,342.835 264.998,342.651L266.03,342.651L266.066,343.551C266.13,343.455 266.214,343.349 266.318,343.233C266.422,343.117 266.548,343.011 266.696,342.915C266.844,342.819 267.016,342.737 267.212,342.669C267.408,342.601 267.634,342.567 267.89,342.567C268.01,342.567 268.12,342.575 268.22,342.591C268.32,342.607 268.414,342.631 268.502,342.663L268.262,343.671C268.118,343.615 267.934,343.587 267.71,343.587C267.478,343.587 267.264,343.631 267.068,343.719C266.872,343.807 266.702,343.929 266.558,344.085C266.414,344.241 266.3,344.423 266.216,344.631C266.132,344.839 266.09,345.059 266.09,345.291L266.09,348.231L265.01,348.231Z" style="fill:white;fill-rule:nonzero;"/>
            <path d="M269.33,340.443L270.542,340.443L270.542,341.655L269.33,341.655L269.33,340.443ZM269.402,342.651L270.482,342.651L270.482,348.231L269.402,348.231L269.402,342.651Z" style="fill:white;fill-rule:nonzero;"/>
            <path d="M276.002,343.635C275.93,343.611 275.808,343.577 275.636,343.533C275.464,343.489 275.206,343.467 274.862,343.467C274.558,343.467 274.282,343.517 274.034,343.617C273.786,343.717 273.572,343.857 273.392,344.037C273.212,344.217 273.072,344.431 272.972,344.679C272.872,344.927 272.822,345.199 272.822,345.495C272.822,345.751 272.852,345.991 272.912,346.215C272.972,346.439 273.068,346.635 273.2,346.803C273.332,346.971 273.498,347.103 273.698,347.199C273.898,347.295 274.142,347.343 274.43,347.343C274.694,347.343 274.926,347.303 275.126,347.223C275.326,347.143 275.49,347.037 275.618,346.905C275.746,346.773 275.842,346.625 275.906,346.461C275.97,346.297 276.002,346.127 276.002,345.951L276.002,343.635ZM272.738,349.371C272.922,349.499 273.148,349.609 273.416,349.701C273.684,349.793 274.01,349.839 274.394,349.839C274.93,349.839 275.33,349.691 275.594,349.395C275.858,349.099 275.99,348.711 275.99,348.231L275.99,347.547C275.934,347.595 275.86,347.661 275.768,347.745C275.676,347.829 275.56,347.909 275.42,347.985C275.28,348.061 275.114,348.129 274.922,348.189C274.73,348.249 274.51,348.279 274.262,348.279C273.854,348.279 273.492,348.209 273.176,348.069C272.86,347.929 272.594,347.737 272.378,347.493C272.162,347.249 271.998,346.957 271.886,346.617C271.774,346.277 271.718,345.907 271.718,345.507C271.718,345.075 271.794,344.677 271.946,344.313C272.098,343.949 272.312,343.633 272.588,343.365C272.864,343.097 273.194,342.889 273.578,342.741C273.962,342.593 274.39,342.519 274.862,342.519C275.318,342.519 275.742,342.559 276.134,342.639C276.526,342.719 276.842,342.807 277.082,342.903L277.082,348.231C277.082,349.039 276.848,349.665 276.38,350.109C275.912,350.553 275.254,350.775 274.406,350.775C273.838,350.775 273.386,350.713 273.05,350.589C272.714,350.465 272.442,350.323 272.234,350.163L272.738,349.371Z" style="fill:white;fill-rule:nonzero;"/>
            <path d="M278.894,346.827C279.094,347.027 279.334,347.187 279.614,347.307C279.894,347.427 280.218,347.487 280.586,347.487C280.946,347.487 281.246,347.429 281.486,347.313C281.726,347.197 281.846,347.015 281.846,346.767C281.846,346.639 281.82,346.529 281.768,346.437C281.716,346.345 281.628,346.263 281.504,346.191C281.38,346.119 281.216,346.053 281.012,345.993C280.808,345.933 280.554,345.867 280.25,345.795C280.034,345.747 279.82,345.683 279.608,345.603C279.396,345.523 279.206,345.417 279.038,345.285C278.87,345.153 278.734,344.993 278.63,344.805C278.526,344.617 278.474,344.391 278.474,344.127C278.474,343.855 278.536,343.617 278.66,343.413C278.784,343.209 278.95,343.037 279.158,342.897C279.366,342.757 279.6,342.651 279.86,342.579C280.12,342.507 280.39,342.471 280.67,342.471C281.142,342.471 281.548,342.533 281.888,342.657C282.228,342.781 282.526,342.955 282.782,343.179L282.194,343.923C282.026,343.771 281.816,343.643 281.564,343.539C281.312,343.435 281.018,343.383 280.682,343.383C280.338,343.383 280.062,343.439 279.854,343.551C279.646,343.663 279.542,343.847 279.542,344.103C279.542,344.343 279.68,344.521 279.956,344.637C280.232,344.753 280.594,344.863 281.042,344.967C281.306,345.031 281.552,345.105 281.78,345.189C282.008,345.273 282.208,345.381 282.38,345.513C282.552,345.645 282.688,345.807 282.788,345.999C282.888,346.191 282.938,346.423 282.938,346.695C282.938,346.975 282.874,347.221 282.746,347.433C282.618,347.645 282.446,347.823 282.23,347.967C282.014,348.111 281.766,348.219 281.486,348.291C281.206,348.363 280.914,348.399 280.61,348.399C279.554,348.399 278.762,348.115 278.234,347.547L278.894,346.827Z" style="fill:white;fill-rule:nonzero;"/>
        </g>
    </g>
</svg>
