<?xml version="1.0" encoding="UTF-8" standalone="no"?>
<!DOCTYPE svg PUBLIC "-//W3C//DTD SVG 1.1//EN" "http://www.w3.org/Graphics/SVG/1.1/DTD/svg11.dtd">
<svg width="100%" height="100%" viewBox="0 0 90 380" version="1.1" xmlns="http://www.w3.org/2000/svg" xmlns:xlink="http://www.w3.org/1999/xlink" xml:space="preserve" xmlns:serif="http://www.serif.com/" style="fill-rule:evenodd;clip-rule:evenodd;stroke-linejoin:round;stroke-miterlimit:2;">
    <g id="svg8">
        <rect x="0" y="0" width="90" height="380" style="fill:rgb(240,240,240);"/>
        <path d="M25.784,361.578L24.178,361.578L24.178,356.247L18.102,356.247L18.102,361.578L16.496,361.578L16.496,350.154L18.102,350.154L18.102,354.873L24.178,354.873L24.178,350.154L25.784,350.154L25.784,361.578Z" style="fill:rgb(35,31,32);fill-rule:nonzero;"/>
        <path d="M33.992,361.578L27.171,361.578L27.171,350.154L33.86,350.154L33.86,351.496L28.777,351.496L28.777,354.906L33.578,354.906L33.578,356.247L28.777,356.247L28.777,360.221L33.992,360.221L33.992,361.578Z" style="fill:rgb(35,31,32);fill-rule:nonzero;"/>
        <path d="M42.865,351.496L39.653,351.496L39.653,361.578L38.047,361.578L38.047,351.496L34.819,351.496L34.819,350.154L42.865,350.154L42.865,351.496Z" style="fill:rgb(35,31,32);fill-rule:nonzero;"/>
        <path d="M48.575,351.877C48.062,351.496 47.449,351.463 46.655,351.463L45.479,351.463L45.479,355.337L46.655,355.337C47.449,355.337 48.062,355.304 48.575,354.94C49.089,354.559 49.304,354.095 49.304,353.399C49.304,352.721 49.089,352.241 48.575,351.877M51.622,361.578L49.684,361.578L46.704,356.661L45.479,356.661L45.479,361.578L43.873,361.578L43.873,350.154L47.101,350.154C48.244,350.154 49.171,350.42 49.85,350.949C50.529,351.496 50.959,352.323 50.959,353.366C50.959,355.37 49.568,356.264 48.36,356.496L51.622,361.578Z" style="fill:rgb(35,31,32);fill-rule:nonzero;"/>
        <rect x="52.814" y="350.154" width="1.605" height="11.424" style="fill:rgb(35,31,32);"/>
        <path d="M65.542,360.088C64.83,360.883 63.539,361.777 61.37,361.777C58.042,361.777 55.525,359.442 55.525,355.883C55.525,352.323 58.092,349.989 61.37,349.989C63.506,349.989 64.797,350.883 65.426,351.496L64.747,352.787C64.301,352.225 63.025,351.397 61.437,351.397C58.97,351.397 57.182,353.168 57.182,355.85C57.182,358.532 58.986,360.304 61.437,360.304C62.942,360.304 64.102,359.725 64.847,358.913L65.542,360.088Z" style="fill:rgb(237,50,36);fill-rule:nonzero;"/>
        <path d="M75.452,361.578L73.499,361.578L69.707,355.849L68.532,357.042L68.532,361.578L66.926,361.578L66.926,350.154L68.532,350.154L68.532,355.022L73.184,350.154L75.138,350.154L70.783,354.658L75.452,361.578Z" style="fill:rgb(237,50,36);fill-rule:nonzero;"/>
        <path d="M75.452,361.578L73.499,361.578L69.707,355.849L68.532,357.042L68.532,361.578L66.926,361.578L66.926,357.019L68.532,357.042L69.707,355.849L70.783,354.658L71.4,355.571L71.897,356.308L75.452,361.578Z" style="fill-rule:nonzero;"/>
        <g>
            <path d="M43.422,96.112L44.766,96.112L44.766,90.652L43.206,91.492L42.762,90.64L44.886,89.476L45.858,89.476L45.858,96.112L47.178,96.112L47.178,97.072L43.422,97.072L43.422,96.112Z" style="fill-rule:nonzero;"/>
            <path d="M42.318,219.166L45.75,214.09L46.842,214.09L46.842,219.154L47.658,219.154L47.658,220.09L46.842,220.09L46.842,221.662L45.798,221.662L45.798,220.09L42.318,220.09L42.318,219.166ZM45.798,219.154L45.798,215.542L43.386,219.154L45.798,219.154Z" style="fill-rule:nonzero;"/>
            <path d="M42.798,261.776C43.022,261.96 43.268,262.114 43.536,262.238C43.804,262.362 44.138,262.424 44.538,262.424C44.818,262.424 45.062,262.382 45.27,262.298C45.478,262.214 45.652,262.1 45.792,261.956C45.932,261.812 46.036,261.644 46.104,261.452C46.172,261.26 46.206,261.052 46.206,260.828C46.206,260.676 46.182,260.512 46.134,260.336C46.086,260.16 46.002,259.998 45.882,259.85C45.762,259.702 45.598,259.58 45.39,259.484C45.182,259.388 44.918,259.34 44.598,259.34C44.27,259.34 44.01,259.372 43.818,259.436C43.626,259.5 43.45,259.572 43.29,259.652L42.738,259.232L43.458,255.632L47.166,255.632L47.166,256.64L44.214,256.64L43.866,258.62C43.946,258.572 44.074,258.526 44.25,258.482C44.426,258.438 44.638,258.416 44.886,258.416C45.246,258.416 45.576,258.468 45.876,258.572C46.176,258.676 46.434,258.83 46.65,259.034C46.866,259.238 47.034,259.486 47.154,259.778C47.274,260.07 47.334,260.408 47.334,260.792C47.334,261.144 47.278,261.476 47.166,261.788C47.054,262.1 46.882,262.376 46.65,262.616C46.418,262.856 46.122,263.046 45.762,263.186C45.402,263.326 44.974,263.396 44.478,263.396C43.95,263.396 43.5,263.316 43.128,263.156C42.756,262.996 42.442,262.8 42.186,262.568L42.798,261.776Z" style="fill-rule:nonzero;"/>
            <path d="M42.774,178.716C42.974,178.876 43.21,179.026 43.482,179.166C43.754,179.306 44.098,179.376 44.514,179.376C45.018,179.376 45.418,179.24 45.714,178.968C46.01,178.696 46.158,178.332 46.158,177.876C46.158,177.468 46.032,177.132 45.78,176.868C45.528,176.604 45.158,176.472 44.67,176.472C44.526,176.472 44.394,176.484 44.274,176.508C44.154,176.532 44.038,176.564 43.926,176.604L43.578,176.04L45.702,173.568L42.678,173.568L42.678,172.572L47.022,172.572L47.022,173.436L45.078,175.704C45.414,175.704 45.718,175.756 45.99,175.86C46.262,175.964 46.496,176.112 46.692,176.304C46.888,176.496 47.038,176.726 47.142,176.994C47.246,177.262 47.298,177.56 47.298,177.888C47.298,178.288 47.226,178.64 47.082,178.944C46.938,179.248 46.74,179.502 46.488,179.706C46.236,179.91 45.94,180.066 45.6,180.174C45.26,180.282 44.894,180.336 44.502,180.336C44.214,180.336 43.95,180.312 43.71,180.264C43.47,180.216 43.254,180.152 43.062,180.072C42.87,179.992 42.698,179.902 42.546,179.802C42.394,179.702 42.258,179.6 42.138,179.496L42.774,178.716Z" style="fill-rule:nonzero;"/>
            <path d="M42.546,137.822C42.546,137.398 42.646,137.026 42.846,136.706C43.046,136.386 43.286,136.086 43.566,135.806C43.91,135.462 44.236,135.166 44.544,134.918C44.852,134.67 45.122,134.442 45.354,134.234C45.586,134.026 45.768,133.82 45.9,133.616C46.032,133.412 46.098,133.178 46.098,132.914C46.098,132.794 46.076,132.67 46.032,132.542C45.988,132.414 45.914,132.296 45.81,132.188C45.706,132.08 45.574,131.99 45.414,131.918C45.254,131.846 45.054,131.81 44.814,131.81C44.598,131.81 44.406,131.84 44.238,131.9C44.07,131.96 43.922,132.034 43.794,132.122C43.666,132.21 43.558,132.31 43.47,132.422C43.382,132.534 43.302,132.638 43.23,132.734L42.426,132.158C42.506,132.014 42.616,131.864 42.756,131.708C42.896,131.552 43.064,131.408 43.26,131.276C43.456,131.144 43.688,131.036 43.956,130.952C44.224,130.868 44.534,130.826 44.886,130.826C45.294,130.826 45.648,130.882 45.948,130.994C46.248,131.106 46.494,131.256 46.686,131.444C46.878,131.632 47.022,131.846 47.118,132.086C47.214,132.326 47.262,132.578 47.262,132.842C47.262,133.122 47.214,133.384 47.118,133.628C47.022,133.872 46.894,134.098 46.734,134.306C46.574,134.514 46.392,134.712 46.188,134.9C45.984,135.088 45.774,135.266 45.558,135.434C45.302,135.634 45.064,135.826 44.844,136.01C44.624,136.194 44.432,136.374 44.268,136.55C44.104,136.726 43.976,136.902 43.884,137.078C43.792,137.254 43.746,137.434 43.746,137.618L47.346,137.618L47.346,138.602L42.546,138.602L42.546,137.822Z" style="fill-rule:nonzero;"/>
        </g>
        <g transform="matrix(1,0,0,1,-29.6641,3.55271e-15)">
            <g transform="matrix(18,0,0,18,48.5776,28.8369)">
                <path d="M0.076,-0.667L0.287,-0.667C0.332,-0.667 0.37,-0.661 0.4,-0.648C0.429,-0.635 0.453,-0.619 0.47,-0.6C0.488,-0.581 0.5,-0.559 0.507,-0.535C0.515,-0.511 0.518,-0.488 0.518,-0.465C0.518,-0.432 0.512,-0.402 0.501,-0.377C0.49,-0.352 0.474,-0.331 0.454,-0.314C0.434,-0.297 0.41,-0.284 0.383,-0.275C0.355,-0.266 0.325,-0.262 0.292,-0.262L0.171,-0.262L0.171,-0L0.076,-0L0.076,-0.667ZM0.291,-0.344C0.332,-0.344 0.364,-0.355 0.387,-0.376C0.409,-0.397 0.42,-0.426 0.42,-0.463C0.42,-0.501 0.408,-0.531 0.386,-0.553C0.363,-0.574 0.331,-0.585 0.291,-0.585L0.171,-0.585L0.171,-0.344L0.291,-0.344Z" style="fill-rule:nonzero;"/>
            </g>
            <g transform="matrix(18,0,0,18,58.0546,28.8369)">
                <path d="M0.061,-0.667L0.15,-0.667L0.15,-0.396C0.156,-0.404 0.163,-0.413 0.172,-0.422C0.181,-0.431 0.191,-0.44 0.204,-0.448C0.217,-0.456 0.231,-0.463 0.248,-0.468C0.265,-0.473 0.284,-0.476 0.305,-0.476C0.366,-0.476 0.411,-0.458 0.44,-0.423C0.469,-0.388 0.484,-0.34 0.484,-0.279L0.484,-0L0.394,-0L0.394,-0.272C0.394,-0.315 0.385,-0.347 0.366,-0.368C0.347,-0.388 0.321,-0.398 0.287,-0.398C0.261,-0.398 0.239,-0.393 0.222,-0.382C0.205,-0.371 0.191,-0.358 0.181,-0.341C0.17,-0.324 0.163,-0.304 0.158,-0.282C0.153,-0.261 0.151,-0.239 0.151,-0.216L0.151,-0L0.061,-0L0.061,-0.667Z" style="fill-rule:nonzero;"/>
            </g>
            <g transform="matrix(18,0,0,18,67.4776,28.8369)">
                <path d="M0.352,-0.22C0.349,-0.221 0.344,-0.222 0.337,-0.223C0.329,-0.224 0.32,-0.224 0.31,-0.225C0.3,-0.226 0.289,-0.226 0.278,-0.227C0.267,-0.228 0.256,-0.228 0.245,-0.228C0.22,-0.228 0.199,-0.225 0.184,-0.219C0.168,-0.213 0.156,-0.205 0.147,-0.197C0.138,-0.188 0.131,-0.178 0.128,-0.167C0.125,-0.156 0.123,-0.145 0.123,-0.135C0.123,-0.11 0.132,-0.091 0.149,-0.078C0.166,-0.065 0.19,-0.058 0.221,-0.058C0.238,-0.058 0.255,-0.061 0.271,-0.067C0.286,-0.073 0.3,-0.081 0.312,-0.091C0.324,-0.101 0.334,-0.113 0.341,-0.126C0.348,-0.139 0.352,-0.153 0.352,-0.167L0.352,-0.22ZM0.353,-0.056C0.336,-0.033 0.313,-0.015 0.284,-0.004C0.256,0.007 0.227,0.013 0.197,0.013C0.178,0.013 0.159,0.01 0.14,0.005C0.121,0 0.103,-0.008 0.087,-0.02C0.072,-0.031 0.059,-0.046 0.05,-0.065C0.04,-0.083 0.035,-0.105 0.035,-0.132C0.035,-0.182 0.053,-0.222 0.087,-0.252C0.123,-0.282 0.173,-0.297 0.239,-0.297C0.25,-0.297 0.261,-0.297 0.273,-0.296C0.285,-0.295 0.296,-0.295 0.307,-0.294C0.318,-0.293 0.327,-0.293 0.335,-0.292C0.343,-0.291 0.349,-0.291 0.352,-0.29L0.352,-0.307C0.352,-0.342 0.342,-0.367 0.321,-0.382C0.3,-0.397 0.271,-0.404 0.235,-0.404C0.2,-0.404 0.172,-0.399 0.151,-0.39C0.13,-0.38 0.113,-0.37 0.099,-0.36L0.057,-0.421C0.065,-0.428 0.075,-0.434 0.086,-0.441C0.097,-0.448 0.111,-0.454 0.126,-0.46C0.141,-0.465 0.159,-0.47 0.178,-0.473C0.197,-0.477 0.22,-0.479 0.245,-0.479C0.305,-0.479 0.352,-0.465 0.387,-0.436C0.421,-0.406 0.438,-0.365 0.438,-0.312L0.438,-0.042C0.438,-0.025 0.438,-0.011 0.439,-0L0.355,-0L0.353,-0.056Z" style="fill-rule:nonzero;"/>
            </g>
            <g transform="matrix(18,0,0,18,76.1086,28.8369)">
                <path d="M0.092,-0.117C0.109,-0.1 0.129,-0.087 0.152,-0.077C0.175,-0.067 0.202,-0.062 0.233,-0.062C0.263,-0.062 0.288,-0.067 0.308,-0.077C0.328,-0.086 0.338,-0.101 0.338,-0.122C0.338,-0.133 0.336,-0.142 0.332,-0.15C0.327,-0.157 0.32,-0.164 0.31,-0.17C0.299,-0.176 0.285,-0.182 0.269,-0.187C0.252,-0.192 0.23,-0.197 0.205,-0.203C0.187,-0.207 0.169,-0.212 0.152,-0.219C0.134,-0.226 0.118,-0.234 0.104,-0.246C0.09,-0.257 0.079,-0.27 0.07,-0.285C0.061,-0.301 0.057,-0.32 0.057,-0.342C0.057,-0.365 0.062,-0.385 0.073,-0.402C0.083,-0.419 0.097,-0.433 0.114,-0.445C0.131,-0.456 0.151,-0.465 0.172,-0.471C0.194,-0.477 0.217,-0.48 0.24,-0.48C0.279,-0.48 0.313,-0.475 0.342,-0.465C0.37,-0.454 0.395,-0.44 0.416,-0.421L0.367,-0.359C0.353,-0.372 0.336,-0.382 0.315,-0.391C0.294,-0.4 0.269,-0.404 0.241,-0.404C0.212,-0.404 0.189,-0.399 0.172,-0.39C0.155,-0.381 0.146,-0.365 0.146,-0.344C0.146,-0.324 0.158,-0.309 0.181,-0.3C0.203,-0.29 0.234,-0.281 0.271,-0.272C0.293,-0.267 0.314,-0.261 0.333,-0.254C0.352,-0.247 0.368,-0.237 0.383,-0.227C0.397,-0.216 0.408,-0.202 0.417,-0.186C0.425,-0.17 0.429,-0.151 0.429,-0.128C0.429,-0.105 0.424,-0.084 0.413,-0.067C0.402,-0.049 0.388,-0.034 0.37,-0.022C0.352,-0.01 0.331,-0.001 0.308,0.005C0.285,0.011 0.26,0.014 0.235,0.014C0.147,0.014 0.081,-0.01 0.037,-0.057L0.092,-0.117Z" style="fill-rule:nonzero;"/>
            </g>
            <g transform="matrix(18,0,0,18,84.2536,28.8369)">
                <path d="M0.286,0.014C0.25,0.014 0.217,0.007 0.187,-0.006C0.157,-0.019 0.131,-0.036 0.11,-0.059C0.088,-0.082 0.071,-0.108 0.059,-0.138C0.046,-0.167 0.04,-0.199 0.04,-0.233C0.04,-0.267 0.046,-0.299 0.059,-0.329C0.071,-0.358 0.088,-0.384 0.11,-0.407C0.131,-0.43 0.157,-0.448 0.187,-0.461C0.217,-0.473 0.25,-0.48 0.286,-0.48C0.321,-0.48 0.354,-0.473 0.384,-0.461C0.414,-0.448 0.44,-0.43 0.462,-0.407C0.484,-0.384 0.501,-0.358 0.514,-0.329C0.526,-0.299 0.532,-0.267 0.532,-0.233C0.532,-0.199 0.526,-0.167 0.514,-0.138C0.501,-0.108 0.484,-0.082 0.462,-0.059C0.44,-0.036 0.414,-0.019 0.384,-0.006C0.354,0.007 0.321,0.014 0.286,0.014ZM0.286,-0.064C0.31,-0.064 0.332,-0.069 0.351,-0.079C0.37,-0.088 0.387,-0.101 0.4,-0.117C0.413,-0.132 0.424,-0.15 0.431,-0.171C0.438,-0.191 0.441,-0.212 0.441,-0.233C0.441,-0.254 0.438,-0.274 0.431,-0.295C0.424,-0.315 0.413,-0.333 0.4,-0.349C0.386,-0.365 0.37,-0.378 0.35,-0.388C0.332,-0.397 0.31,-0.402 0.286,-0.402C0.262,-0.402 0.24,-0.397 0.221,-0.388C0.202,-0.378 0.185,-0.365 0.172,-0.349C0.159,-0.334 0.149,-0.316 0.141,-0.296C0.135,-0.275 0.131,-0.254 0.131,-0.233C0.131,-0.212 0.135,-0.191 0.141,-0.171C0.149,-0.151 0.159,-0.133 0.172,-0.117C0.186,-0.101 0.203,-0.088 0.222,-0.079C0.241,-0.069 0.262,-0.064 0.286,-0.064Z" style="fill-rule:nonzero;"/>
            </g>
            <g transform="matrix(18,0,0,18,94.1986,28.8369)">
                <path d="M0.062,-0L0.062,-0.421C0.062,-0.435 0.062,-0.45 0.061,-0.465L0.147,-0.465L0.15,-0.39C0.155,-0.398 0.162,-0.407 0.171,-0.417C0.18,-0.426 0.19,-0.435 0.203,-0.443C0.215,-0.451 0.229,-0.458 0.246,-0.464C0.262,-0.469 0.281,-0.472 0.302,-0.472C0.312,-0.472 0.321,-0.471 0.33,-0.47C0.338,-0.469 0.346,-0.467 0.353,-0.464L0.333,-0.38C0.321,-0.385 0.306,-0.387 0.287,-0.387C0.268,-0.387 0.25,-0.383 0.234,-0.376C0.217,-0.369 0.203,-0.359 0.191,-0.345C0.179,-0.333 0.17,-0.317 0.163,-0.3C0.156,-0.283 0.152,-0.264 0.152,-0.245L0.152,-0L0.062,-0Z" style="fill-rule:nonzero;"/>
            </g>
            <g transform="matrix(18,0,0,18,53.8021,46.8369)">
                <path d="M0.099,-0.667L0.191,-0.667L0.394,-0.32L0.597,-0.667L0.687,-0.667L0.718,-0L0.624,-0L0.602,-0.512L0.414,-0.197L0.366,-0.197L0.181,-0.508L0.158,-0L0.068,-0L0.099,-0.667Z" style="fill-rule:nonzero;"/>
            </g>
            <g transform="matrix(18,0,0,18,67.6171,46.8369)">
                <path d="M0.06,-0.649L0.161,-0.649L0.161,-0.548L0.06,-0.548L0.06,-0.649ZM0.066,-0.465L0.156,-0.465L0.156,-0L0.066,-0L0.066,-0.465Z" style="fill-rule:nonzero;"/>
            </g>
            <g transform="matrix(18,0,0,18,71.2621,46.8369)">
                <path d="M0.188,-0.24L0.021,-0.465L0.133,-0.465L0.245,-0.311L0.355,-0.465L0.455,-0.465L0.293,-0.247L0.478,-0L0.365,-0L0.236,-0.176L0.109,-0L0.008,-0L0.188,-0.24Z" style="fill-rule:nonzero;"/>
            </g>
            <g transform="matrix(18,0,0,18,79.6771,46.8369)">
                <path d="M0.486,-0.068C0.481,-0.062 0.473,-0.054 0.462,-0.045C0.451,-0.036 0.438,-0.027 0.421,-0.018C0.404,-0.009 0.384,-0.002 0.361,0.004C0.338,0.011 0.311,0.014 0.282,0.014C0.246,0.014 0.213,0.008 0.183,-0.004C0.153,-0.016 0.127,-0.033 0.106,-0.055C0.085,-0.077 0.068,-0.103 0.057,-0.134C0.045,-0.165 0.039,-0.199 0.039,-0.236C0.039,-0.27 0.045,-0.302 0.056,-0.332C0.067,-0.361 0.083,-0.387 0.104,-0.408C0.125,-0.43 0.149,-0.447 0.178,-0.46C0.206,-0.473 0.237,-0.479 0.271,-0.479C0.311,-0.479 0.345,-0.471 0.374,-0.456C0.403,-0.441 0.426,-0.42 0.445,-0.395C0.463,-0.37 0.476,-0.341 0.485,-0.308C0.494,-0.275 0.498,-0.241 0.498,-0.206L0.131,-0.206C0.132,-0.185 0.136,-0.166 0.145,-0.149C0.153,-0.132 0.164,-0.117 0.178,-0.104C0.192,-0.091 0.208,-0.081 0.226,-0.074C0.244,-0.067 0.263,-0.063 0.283,-0.063C0.322,-0.063 0.355,-0.07 0.38,-0.083C0.405,-0.096 0.424,-0.109 0.435,-0.122L0.486,-0.068ZM0.405,-0.273C0.402,-0.309 0.39,-0.34 0.367,-0.365C0.344,-0.39 0.312,-0.403 0.271,-0.403C0.25,-0.403 0.231,-0.399 0.214,-0.392C0.197,-0.385 0.182,-0.375 0.17,-0.363C0.158,-0.351 0.149,-0.337 0.142,-0.322C0.135,-0.306 0.132,-0.29 0.131,-0.273L0.405,-0.273Z" style="fill-rule:nonzero;"/>
            </g>
            <g transform="matrix(18,0,0,18,88.9741,46.8369)">
                <path d="M0.062,-0L0.062,-0.421C0.062,-0.435 0.062,-0.45 0.061,-0.465L0.147,-0.465L0.15,-0.39C0.155,-0.398 0.162,-0.407 0.171,-0.417C0.18,-0.426 0.19,-0.435 0.203,-0.443C0.215,-0.451 0.229,-0.458 0.246,-0.464C0.262,-0.469 0.281,-0.472 0.302,-0.472C0.312,-0.472 0.321,-0.471 0.33,-0.47C0.338,-0.469 0.346,-0.467 0.353,-0.464L0.333,-0.38C0.321,-0.385 0.306,-0.387 0.287,-0.387C0.268,-0.387 0.25,-0.383 0.234,-0.376C0.217,-0.369 0.203,-0.359 0.191,-0.345C0.179,-0.333 0.17,-0.317 0.163,-0.3C0.156,-0.283 0.152,-0.264 0.152,-0.245L0.152,-0L0.062,-0Z" style="fill-rule:nonzero;"/>
            </g>
        </g>
        <g>
            <path d="M88.859,298.066C88.859,293.049 84.786,288.976 79.769,288.976L10.231,288.976C5.214,288.976 1.141,293.049 1.141,298.066L1.141,325.219C1.141,330.236 5.214,334.309 10.231,334.309L79.769,334.309C84.786,334.309 88.859,330.236 88.859,325.219L88.859,298.066Z"/>
            <path d="M11.405,323.305L12.677,323.305L14.213,329.761L15.953,323.545L17.069,323.545L18.773,329.749L20.309,323.305L21.509,323.305L19.361,331.309L18.137,331.309L16.469,325.393L14.753,331.309L13.541,331.309L11.405,323.305Z" style="fill:white;fill-rule:nonzero;"/>
            <path d="M22.373,331.309L22.373,326.263C22.373,326.091 22.369,325.913 22.361,325.729L23.393,325.729L23.429,326.629C23.493,326.533 23.577,326.427 23.681,326.311C23.785,326.195 23.911,326.089 24.059,325.993C24.207,325.897 24.379,325.815 24.575,325.747C24.771,325.679 24.997,325.645 25.253,325.645C25.373,325.645 25.483,325.653 25.583,325.669C25.683,325.685 25.777,325.709 25.865,325.741L25.625,326.749C25.481,326.693 25.297,326.665 25.073,326.665C24.841,326.665 24.627,326.709 24.431,326.797C24.235,326.885 24.065,327.007 23.921,327.163C23.777,327.319 23.663,327.501 23.579,327.709C23.495,327.917 23.453,328.137 23.453,328.369L23.453,331.309L22.373,331.309Z" style="fill:white;fill-rule:nonzero;"/>
            <path d="M29.933,328.669C29.901,328.661 29.839,328.651 29.747,328.639C29.655,328.627 29.549,328.617 29.429,328.609C29.309,328.601 29.181,328.593 29.045,328.585C28.909,328.577 28.777,328.573 28.649,328.573C28.345,328.573 28.099,328.609 27.911,328.681C27.723,328.753 27.575,328.843 27.467,328.951C27.359,329.059 27.285,329.179 27.245,329.311C27.205,329.443 27.185,329.569 27.185,329.689C27.185,329.993 27.289,330.223 27.497,330.379C27.705,330.535 27.993,330.613 28.361,330.613C28.569,330.613 28.767,330.577 28.955,330.505C29.143,330.433 29.309,330.337 29.453,330.217C29.597,330.097 29.713,329.957 29.801,329.797C29.889,329.637 29.933,329.473 29.933,329.305L29.933,328.669ZM29.945,330.637C29.737,330.917 29.463,331.125 29.123,331.261C28.783,331.397 28.433,331.465 28.073,331.465C27.841,331.465 27.611,331.435 27.383,331.375C27.155,331.315 26.947,331.215 26.759,331.075C26.571,330.935 26.419,330.755 26.303,330.535C26.187,330.315 26.129,330.045 26.129,329.725C26.129,329.125 26.339,328.645 26.759,328.285C27.179,327.925 27.785,327.745 28.577,327.745C28.705,327.745 28.841,327.749 28.985,327.757C29.129,327.765 29.265,327.773 29.393,327.781C29.521,327.789 29.633,327.797 29.729,327.805C29.825,327.813 29.893,327.821 29.933,327.829L29.933,327.625C29.933,327.209 29.807,326.911 29.555,326.731C29.303,326.551 28.961,326.461 28.529,326.461C28.105,326.461 27.769,326.519 27.521,326.635C27.273,326.751 27.065,326.869 26.897,326.989L26.393,326.257C26.489,326.177 26.605,326.097 26.741,326.017C26.877,325.937 27.037,325.863 27.221,325.795C27.405,325.727 27.613,325.671 27.845,325.627C28.077,325.583 28.345,325.561 28.649,325.561C29.369,325.561 29.935,325.735 30.347,326.083C30.759,326.431 30.965,326.925 30.965,327.565L30.965,330.811C30.965,331.007 30.969,331.173 30.977,331.309L29.969,331.309L29.945,330.637Z" style="fill:white;fill-rule:nonzero;"/>
            <path d="M32.453,333.709L32.453,326.299C32.453,326.119 32.449,325.929 32.441,325.729L33.473,325.729L33.509,326.521C33.565,326.449 33.645,326.361 33.749,326.257C33.853,326.153 33.983,326.053 34.139,325.957C34.295,325.861 34.477,325.779 34.685,325.711C34.893,325.643 35.133,325.609 35.405,325.609C35.837,325.609 36.211,325.689 36.527,325.849C36.843,326.009 37.105,326.225 37.313,326.497C37.521,326.769 37.675,327.081 37.775,327.433C37.875,327.785 37.925,328.157 37.925,328.549C37.925,329.053 37.839,329.489 37.667,329.857C37.495,330.225 37.271,330.529 36.995,330.769C36.719,331.009 36.411,331.187 36.071,331.303C35.731,331.419 35.397,331.477 35.069,331.477C34.693,331.477 34.391,331.439 34.163,331.363C33.935,331.287 33.721,331.205 33.521,331.117L33.521,333.709L32.453,333.709ZM33.521,330.097C33.649,330.201 33.833,330.301 34.073,330.397C34.313,330.493 34.613,330.541 34.973,330.541C35.245,330.541 35.495,330.491 35.723,330.391C35.951,330.291 36.147,330.151 36.311,329.971C36.475,329.791 36.601,329.581 36.689,329.341C36.777,329.101 36.821,328.837 36.821,328.549C36.821,328.277 36.791,328.021 36.731,327.781C36.671,327.541 36.575,327.329 36.443,327.145C36.311,326.961 36.141,326.815 35.933,326.707C35.725,326.599 35.469,326.545 35.165,326.545C34.781,326.545 34.453,326.651 34.181,326.863C33.909,327.075 33.717,327.385 33.605,327.793C33.565,327.921 33.541,328.059 33.533,328.207C33.525,328.355 33.521,328.509 33.521,328.669L33.521,330.097Z" style="fill:white;fill-rule:nonzero;"/>
            <path d="M55.321,323.305L60.349,323.305L60.349,324.337L56.473,324.337L56.473,326.785L59.425,326.785L59.425,327.805L56.473,327.805L56.473,331.309L55.321,331.309L55.321,323.305Z" style="fill:white;fill-rule:nonzero;"/>
            <path d="M63.361,331.477C62.929,331.477 62.533,331.399 62.173,331.243C61.813,331.087 61.503,330.873 61.243,330.601C60.983,330.329 60.779,330.015 60.631,329.659C60.483,329.303 60.409,328.921 60.409,328.513C60.409,328.105 60.483,327.723 60.631,327.367C60.779,327.011 60.983,326.697 61.243,326.425C61.503,326.153 61.813,325.939 62.173,325.783C62.533,325.627 62.929,325.549 63.361,325.549C63.785,325.549 64.177,325.627 64.537,325.783C64.897,325.939 65.209,326.153 65.473,326.425C65.737,326.697 65.943,327.011 66.091,327.367C66.239,327.723 66.313,328.105 66.313,328.513C66.313,328.921 66.239,329.303 66.091,329.659C65.943,330.015 65.737,330.329 65.473,330.601C65.209,330.873 64.897,331.087 64.537,331.243C64.177,331.399 63.785,331.477 63.361,331.477ZM63.361,330.541C63.649,330.541 63.909,330.483 64.141,330.367C64.373,330.251 64.569,330.099 64.729,329.911C64.889,329.723 65.011,329.507 65.095,329.263C65.179,329.019 65.221,328.769 65.221,328.513C65.221,328.265 65.179,328.019 65.095,327.775C65.011,327.531 64.887,327.313 64.723,327.121C64.559,326.929 64.363,326.775 64.135,326.659C63.907,326.543 63.649,326.485 63.361,326.485C63.073,326.485 62.813,326.543 62.581,326.659C62.349,326.775 62.153,326.927 61.993,327.115C61.833,327.303 61.711,327.519 61.627,327.763C61.543,328.007 61.501,328.257 61.501,328.513C61.501,328.769 61.543,329.017 61.627,329.257C61.711,329.497 61.835,329.713 61.999,329.905C62.163,330.097 62.359,330.251 62.587,330.367C62.815,330.483 63.073,330.541 63.361,330.541Z" style="fill:white;fill-rule:nonzero;"/>
            <rect x="67.549" y="323.305" width="1.08" height="8.004" style="fill:white;fill-rule:nonzero;"/>
            <path d="M74.149,326.965C74.069,326.901 73.921,326.815 73.705,326.707C73.489,326.599 73.181,326.545 72.781,326.545C72.517,326.545 72.275,326.593 72.055,326.689C71.835,326.785 71.643,326.921 71.479,327.097C71.315,327.273 71.187,327.489 71.095,327.745C71.003,328.001 70.957,328.289 70.957,328.609C70.957,328.873 70.989,329.123 71.053,329.359C71.117,329.595 71.215,329.801 71.347,329.977C71.479,330.153 71.647,330.291 71.851,330.391C72.055,330.491 72.297,330.541 72.577,330.541C72.857,330.541 73.097,330.489 73.297,330.385C73.497,330.281 73.659,330.151 73.783,329.995C73.907,329.839 73.999,329.667 74.059,329.479C74.119,329.291 74.149,329.117 74.149,328.957L74.149,326.965ZM74.149,330.601C74.109,330.649 74.043,330.723 73.951,330.823C73.859,330.923 73.737,331.021 73.585,331.117C73.433,331.213 73.255,331.297 73.051,331.369C72.847,331.441 72.609,331.477 72.337,331.477C71.985,331.477 71.657,331.409 71.353,331.273C71.049,331.137 70.785,330.945 70.561,330.697C70.337,330.449 70.163,330.147 70.039,329.791C69.915,329.435 69.853,329.037 69.853,328.597C69.853,328.069 69.945,327.615 70.129,327.235C70.313,326.855 70.547,326.543 70.831,326.299C71.115,326.055 71.423,325.877 71.755,325.765C72.087,325.653 72.401,325.597 72.697,325.597C73.097,325.597 73.409,325.645 73.633,325.741C73.857,325.837 74.029,325.909 74.149,325.957L74.149,323.305L75.229,323.305L75.229,330.739C75.229,330.919 75.233,331.109 75.241,331.309L74.185,331.309L74.149,330.601Z" style="fill:white;fill-rule:nonzero;"/>
        </g>
    </g>
</svg>
