<?xml version="1.0" encoding="UTF-8" standalone="no"?>
<!DOCTYPE svg PUBLIC "-//W3C//DTD SVG 1.1//EN" "http://www.w3.org/Graphics/SVG/1.1/DTD/svg11.dtd">
<svg width="100%" height="100%" viewBox="0 0 120 380" version="1.1" xmlns="http://www.w3.org/2000/svg" xmlns:xlink="http://www.w3.org/1999/xlink" xml:space="preserve" xmlns:serif="http://www.serif.com/" style="fill-rule:evenodd;clip-rule:evenodd;stroke-linecap:round;stroke-linejoin:round;stroke-miterlimit:1.5;">
    <g id="svg8">
        <rect x="0" y="0" width="120" height="380" style="fill:rgb(240,240,240);"/>
        <g id="HCV-Logo" serif:id="HCV Logo">
            <path d="M39.81,374.578L38.204,374.578L38.204,369.247L32.128,369.247L32.128,374.578L30.522,374.578L30.522,363.154L32.128,363.154L32.128,367.873L38.204,367.873L38.204,363.154L39.81,363.154L39.81,374.578Z" style="fill:rgb(35,31,32);fill-rule:nonzero;"/>
            <path d="M48.018,374.578L41.197,374.578L41.197,363.154L47.886,363.154L47.886,364.496L42.803,364.496L42.803,367.906L47.604,367.906L47.604,369.247L42.803,369.247L42.803,373.221L48.018,373.221L48.018,374.578Z" style="fill:rgb(35,31,32);fill-rule:nonzero;"/>
            <path d="M56.891,364.496L53.679,364.496L53.679,374.578L52.073,374.578L52.073,364.496L48.845,364.496L48.845,363.154L56.891,363.154L56.891,364.496Z" style="fill:rgb(35,31,32);fill-rule:nonzero;"/>
            <path d="M62.601,364.877C62.088,364.496 61.475,364.463 60.681,364.463L59.505,364.463L59.505,368.337L60.681,368.337C61.475,368.337 62.088,368.304 62.601,367.94C63.115,367.559 63.33,367.095 63.33,366.399C63.33,365.721 63.115,365.241 62.601,364.877M65.648,374.578L63.71,374.578L60.73,369.661L59.505,369.661L59.505,374.578L57.899,374.578L57.899,363.154L61.127,363.154C62.27,363.154 63.197,363.42 63.876,363.949C64.555,364.496 64.985,365.323 64.985,366.366C64.985,368.37 63.594,369.264 62.386,369.496L65.648,374.578Z" style="fill:rgb(35,31,32);fill-rule:nonzero;"/>
            <rect x="66.84" y="363.154" width="1.605" height="11.424" style="fill:rgb(35,31,32);"/>
            <path d="M79.568,373.088C78.856,373.883 77.565,374.777 75.396,374.777C72.068,374.777 69.551,372.442 69.551,368.883C69.551,365.323 72.118,362.989 75.396,362.989C77.532,362.989 78.823,363.883 79.452,364.496L78.773,365.787C78.327,365.225 77.051,364.397 75.463,364.397C72.996,364.397 71.208,366.168 71.208,368.85C71.208,371.532 73.012,373.304 75.463,373.304C76.968,373.304 78.128,372.725 78.873,371.913L79.568,373.088Z" style="fill:rgb(237,50,36);fill-rule:nonzero;"/>
            <path d="M89.478,374.578L87.525,374.578L83.733,368.849L82.558,370.042L82.558,374.578L80.952,374.578L80.952,363.154L82.558,363.154L82.558,368.022L87.21,363.154L89.164,363.154L84.809,367.658L89.478,374.578Z" style="fill:rgb(237,50,36);fill-rule:nonzero;"/>
            <path d="M89.478,374.578L87.525,374.578L83.733,368.849L82.558,370.042L82.558,374.578L80.952,374.578L80.952,370.019L82.558,370.042L83.733,368.849L84.809,367.658L85.426,368.571L85.923,369.308L89.478,374.578Z" style="fill-rule:nonzero;"/>
        </g>
        <g id="Out">
            <path d="M115.831,300.534C115.831,297.223 113.142,294.534 109.831,294.534L10.169,294.534C6.858,294.534 4.169,297.223 4.169,300.534L4.169,348.534C4.169,351.846 6.858,354.534 10.169,354.534L109.831,354.534C113.142,354.534 115.831,351.846 115.831,348.534L115.831,300.534Z"/>
            <path d="M28.446,348.738C27.87,348.738 27.334,348.628 26.838,348.408C26.342,348.188 25.91,347.888 25.542,347.508C25.174,347.128 24.886,346.682 24.678,346.17C24.47,345.658 24.366,345.11 24.366,344.526C24.366,343.942 24.47,343.396 24.678,342.888C24.886,342.38 25.172,341.936 25.536,341.556C25.9,341.176 26.332,340.876 26.832,340.656C27.332,340.436 27.87,340.326 28.446,340.326C29.022,340.326 29.56,340.436 30.06,340.656C30.56,340.876 30.994,341.176 31.362,341.556C31.73,341.936 32.018,342.38 32.226,342.888C32.434,343.396 32.538,343.942 32.538,344.526C32.538,345.11 32.434,345.658 32.226,346.17C32.018,346.682 31.73,347.128 31.362,347.508C30.994,347.888 30.56,348.188 30.06,348.408C29.56,348.628 29.022,348.738 28.446,348.738ZM28.446,347.658C28.886,347.658 29.284,347.574 29.64,347.406C29.996,347.238 30.3,347.01 30.552,346.722C30.804,346.434 30.998,346.1 31.134,345.72C31.27,345.34 31.338,344.938 31.338,344.514C31.338,344.082 31.27,343.676 31.134,343.296C30.998,342.916 30.804,342.582 30.552,342.294C30.3,342.006 29.996,341.78 29.64,341.616C29.284,341.452 28.886,341.37 28.446,341.37C28.006,341.37 27.61,341.452 27.258,341.616C26.906,341.78 26.604,342.006 26.352,342.294C26.1,342.582 25.906,342.916 25.77,343.296C25.634,343.676 25.566,344.082 25.566,344.514C25.566,344.938 25.634,345.34 25.77,345.72C25.906,346.1 26.1,346.434 26.352,346.722C26.604,347.01 26.906,347.238 27.258,347.406C27.61,347.574 28.006,347.658 28.446,347.658Z" style="fill:white;fill-rule:nonzero;"/>
            <path d="M33.81,342.954L34.89,342.954L34.89,346.23C34.89,346.758 34.998,347.14 35.214,347.376C35.43,347.612 35.742,347.73 36.15,347.73C36.462,347.73 36.72,347.666 36.924,347.538C37.128,347.41 37.294,347.244 37.422,347.04C37.55,346.836 37.64,346.604 37.692,346.344C37.744,346.084 37.77,345.818 37.77,345.546L37.77,342.954L38.85,342.954L38.85,347.964C38.85,348.144 38.854,348.334 38.862,348.534L37.83,348.534L37.794,347.706C37.722,347.802 37.634,347.906 37.53,348.018C37.426,348.13 37.298,348.232 37.146,348.324C36.994,348.416 36.818,348.494 36.618,348.558C36.418,348.622 36.19,348.654 35.934,348.654C35.206,348.654 34.67,348.444 34.326,348.024C33.982,347.604 33.81,347.03 33.81,346.302L33.81,342.954Z" style="fill:white;fill-rule:nonzero;"/>
            <path d="M40.806,343.854L39.798,343.854L39.798,342.954L40.806,342.954L40.806,341.13L41.886,341.13L41.886,342.954L43.518,342.954L43.518,343.854L41.886,343.854L41.886,346.602C41.886,347.05 41.956,347.358 42.096,347.526C42.236,347.694 42.434,347.778 42.69,347.778C42.898,347.778 43.07,347.746 43.206,347.682C43.342,347.618 43.478,347.522 43.614,347.394L44.106,348.054C43.874,348.278 43.636,348.44 43.392,348.54C43.148,348.64 42.858,348.69 42.522,348.69C41.93,348.69 41.496,348.53 41.22,348.21C40.944,347.89 40.806,347.39 40.806,346.71L40.806,343.854Z" style="fill:white;fill-rule:nonzero;"/>
            <path d="M80.116,344.466L82.924,344.466L82.924,347.658C82.772,347.794 82.598,347.926 82.402,348.054C82.206,348.182 81.978,348.296 81.718,348.396C81.458,348.496 81.168,348.576 80.848,348.636C80.528,348.696 80.168,348.726 79.768,348.726C79.144,348.726 78.582,348.62 78.082,348.408C77.582,348.196 77.154,347.904 76.798,347.532C76.442,347.16 76.17,346.72 75.982,346.212C75.794,345.704 75.7,345.15 75.7,344.55C75.7,343.966 75.798,343.418 75.994,342.906C76.19,342.394 76.464,341.948 76.816,341.568C77.168,341.188 77.59,340.888 78.082,340.668C78.574,340.448 79.12,340.338 79.72,340.338C80.144,340.338 80.524,340.388 80.86,340.488C81.196,340.588 81.49,340.716 81.742,340.872C81.994,341.028 82.208,341.198 82.384,341.382C82.56,341.566 82.708,341.742 82.828,341.91L82.012,342.606C81.916,342.47 81.8,342.328 81.664,342.18C81.528,342.032 81.368,341.898 81.184,341.778C81,341.658 80.79,341.558 80.554,341.478C80.318,341.398 80.048,341.358 79.744,341.358C79.304,341.358 78.908,341.442 78.556,341.61C78.204,341.778 77.906,342.006 77.662,342.294C77.418,342.582 77.23,342.92 77.098,343.308C76.966,343.696 76.9,344.106 76.9,344.538C76.9,345.002 76.972,345.426 77.116,345.81C77.26,346.194 77.462,346.524 77.722,346.8C77.982,347.076 78.288,347.292 78.64,347.448C78.992,347.604 79.38,347.682 79.804,347.682C80.268,347.682 80.662,347.63 80.986,347.526C81.31,347.422 81.588,347.278 81.82,347.094L81.82,345.462L80.116,345.462L80.116,344.466Z" style="fill:white;fill-rule:nonzero;"/>
            <path d="M87.964,345.894C87.932,345.886 87.87,345.876 87.778,345.864C87.686,345.852 87.58,345.842 87.46,345.834C87.34,345.826 87.212,345.818 87.076,345.81C86.94,345.802 86.808,345.798 86.68,345.798C86.376,345.798 86.13,345.834 85.942,345.906C85.754,345.978 85.606,346.068 85.498,346.176C85.39,346.284 85.316,346.404 85.276,346.536C85.236,346.668 85.216,346.794 85.216,346.914C85.216,347.218 85.32,347.448 85.528,347.604C85.736,347.76 86.024,347.838 86.392,347.838C86.6,347.838 86.798,347.802 86.986,347.73C87.174,347.658 87.34,347.562 87.484,347.442C87.628,347.322 87.744,347.182 87.832,347.022C87.92,346.862 87.964,346.698 87.964,346.53L87.964,345.894ZM87.976,347.862C87.768,348.142 87.494,348.35 87.154,348.486C86.814,348.622 86.464,348.69 86.104,348.69C85.872,348.69 85.642,348.66 85.414,348.6C85.186,348.54 84.978,348.44 84.79,348.3C84.602,348.16 84.45,347.98 84.334,347.76C84.218,347.54 84.16,347.27 84.16,346.95C84.16,346.35 84.37,345.87 84.79,345.51C85.21,345.15 85.816,344.97 86.608,344.97C86.736,344.97 86.872,344.974 87.016,344.982C87.16,344.99 87.296,344.998 87.424,345.006C87.552,345.014 87.664,345.022 87.76,345.03C87.856,345.038 87.924,345.046 87.964,345.054L87.964,344.85C87.964,344.434 87.838,344.136 87.586,343.956C87.334,343.776 86.992,343.686 86.56,343.686C86.136,343.686 85.8,343.744 85.552,343.86C85.304,343.976 85.096,344.094 84.928,344.214L84.424,343.482C84.52,343.402 84.636,343.322 84.772,343.242C84.908,343.162 85.068,343.088 85.252,343.02C85.436,342.952 85.644,342.896 85.876,342.852C86.108,342.808 86.376,342.786 86.68,342.786C87.4,342.786 87.966,342.96 88.378,343.308C88.79,343.656 88.996,344.15 88.996,344.79L88.996,348.036C88.996,348.232 89,348.398 89.008,348.534L88,348.534L87.976,347.862Z" style="fill:white;fill-rule:nonzero;"/>
            <path d="M90.928,343.854L89.92,343.854L89.92,342.954L90.928,342.954L90.928,341.13L92.008,341.13L92.008,342.954L93.64,342.954L93.64,343.854L92.008,343.854L92.008,346.602C92.008,347.05 92.078,347.358 92.218,347.526C92.358,347.694 92.556,347.778 92.812,347.778C93.02,347.778 93.192,347.746 93.328,347.682C93.464,347.618 93.6,347.522 93.736,347.394L94.228,348.054C93.996,348.278 93.758,348.44 93.514,348.54C93.27,348.64 92.98,348.69 92.644,348.69C92.052,348.69 91.618,348.53 91.342,348.21C91.066,347.89 90.928,347.39 90.928,346.71L90.928,343.854Z" style="fill:white;fill-rule:nonzero;"/>
            <path d="M100.12,347.718C100.056,347.79 99.96,347.882 99.832,347.994C99.704,348.106 99.538,348.214 99.334,348.318C99.13,348.422 98.89,348.512 98.614,348.588C98.338,348.664 98.024,348.702 97.672,348.702C97.24,348.702 96.844,348.63 96.484,348.486C96.124,348.342 95.816,348.138 95.56,347.874C95.304,347.61 95.106,347.294 94.966,346.926C94.826,346.558 94.756,346.15 94.756,345.702C94.756,345.294 94.824,344.912 94.96,344.556C95.096,344.2 95.288,343.892 95.536,343.632C95.784,343.372 96.078,343.166 96.418,343.014C96.758,342.862 97.132,342.786 97.54,342.786C98.02,342.786 98.432,342.878 98.776,343.062C99.12,343.246 99.402,343.49 99.622,343.794C99.842,344.098 100.004,344.446 100.108,344.838C100.212,345.23 100.264,345.638 100.264,346.062L95.86,346.062C95.868,346.31 95.922,346.538 96.022,346.746C96.122,346.954 96.256,347.134 96.424,347.286C96.592,347.438 96.784,347.558 97,347.646C97.216,347.734 97.444,347.778 97.684,347.778C98.156,347.778 98.544,347.698 98.848,347.538C99.152,347.378 99.372,347.222 99.508,347.07L100.12,347.718ZM99.148,345.258C99.116,344.826 98.964,344.458 98.692,344.154C98.42,343.85 98.036,343.698 97.54,343.698C97.284,343.698 97.054,343.742 96.85,343.83C96.646,343.918 96.472,344.034 96.328,344.178C96.184,344.322 96.072,344.488 95.992,344.676C95.912,344.864 95.868,345.058 95.86,345.258L99.148,345.258Z" style="fill:white;fill-rule:nonzero;"/>
        </g>
        <g transform="matrix(1,0,0,1,-33.8501,0)">
            <g transform="matrix(18,0,0,18,67.3316,28.8369)">
                <path d="M0.076,-0.667L0.287,-0.667C0.332,-0.667 0.37,-0.661 0.4,-0.648C0.429,-0.635 0.453,-0.619 0.47,-0.6C0.488,-0.581 0.5,-0.559 0.507,-0.535C0.515,-0.511 0.518,-0.488 0.518,-0.465C0.518,-0.432 0.512,-0.402 0.501,-0.377C0.49,-0.352 0.474,-0.331 0.454,-0.314C0.434,-0.297 0.41,-0.284 0.383,-0.275C0.355,-0.266 0.325,-0.262 0.292,-0.262L0.171,-0.262L0.171,-0L0.076,-0L0.076,-0.667ZM0.291,-0.344C0.332,-0.344 0.364,-0.355 0.387,-0.376C0.409,-0.397 0.42,-0.426 0.42,-0.463C0.42,-0.501 0.408,-0.531 0.386,-0.553C0.363,-0.574 0.331,-0.585 0.291,-0.585L0.171,-0.585L0.171,-0.344L0.291,-0.344Z" style="fill-rule:nonzero;"/>
            </g>
            <g transform="matrix(18,0,0,18,76.9814,28.8369)">
                <path d="M0.061,-0.667L0.15,-0.667L0.15,-0.396C0.156,-0.404 0.163,-0.413 0.172,-0.422C0.181,-0.431 0.191,-0.44 0.204,-0.448C0.217,-0.456 0.231,-0.463 0.248,-0.468C0.265,-0.473 0.284,-0.476 0.305,-0.476C0.366,-0.476 0.411,-0.458 0.44,-0.423C0.469,-0.388 0.484,-0.34 0.484,-0.279L0.484,-0L0.394,-0L0.394,-0.272C0.394,-0.315 0.385,-0.347 0.366,-0.368C0.347,-0.388 0.321,-0.398 0.287,-0.398C0.261,-0.398 0.239,-0.393 0.222,-0.382C0.205,-0.371 0.191,-0.358 0.181,-0.341C0.17,-0.324 0.163,-0.304 0.158,-0.282C0.153,-0.261 0.151,-0.239 0.151,-0.216L0.151,-0L0.061,-0L0.061,-0.667Z" style="fill-rule:nonzero;"/>
            </g>
            <g transform="matrix(18,0,0,18,86.5772,28.8369)">
                <path d="M0.352,-0.22C0.349,-0.221 0.344,-0.222 0.337,-0.223C0.329,-0.224 0.32,-0.224 0.31,-0.225C0.3,-0.226 0.289,-0.226 0.278,-0.227C0.267,-0.228 0.256,-0.228 0.245,-0.228C0.22,-0.228 0.199,-0.225 0.184,-0.219C0.168,-0.213 0.156,-0.205 0.147,-0.197C0.138,-0.188 0.131,-0.178 0.128,-0.167C0.125,-0.156 0.123,-0.145 0.123,-0.135C0.123,-0.11 0.132,-0.091 0.149,-0.078C0.166,-0.065 0.19,-0.058 0.221,-0.058C0.238,-0.058 0.255,-0.061 0.271,-0.067C0.286,-0.073 0.3,-0.081 0.312,-0.091C0.324,-0.101 0.334,-0.113 0.341,-0.126C0.348,-0.139 0.352,-0.153 0.352,-0.167L0.352,-0.22ZM0.353,-0.056C0.336,-0.033 0.313,-0.015 0.284,-0.004C0.256,0.007 0.227,0.013 0.197,0.013C0.178,0.013 0.159,0.01 0.14,0.005C0.121,0 0.103,-0.008 0.087,-0.02C0.072,-0.031 0.059,-0.046 0.05,-0.065C0.04,-0.083 0.035,-0.105 0.035,-0.132C0.035,-0.182 0.053,-0.222 0.087,-0.252C0.123,-0.282 0.173,-0.297 0.239,-0.297C0.25,-0.297 0.261,-0.297 0.273,-0.296C0.285,-0.295 0.296,-0.295 0.307,-0.294C0.318,-0.293 0.327,-0.293 0.335,-0.292C0.343,-0.291 0.349,-0.291 0.352,-0.29L0.352,-0.307C0.352,-0.342 0.342,-0.367 0.321,-0.382C0.3,-0.397 0.271,-0.404 0.235,-0.404C0.2,-0.404 0.172,-0.399 0.151,-0.39C0.13,-0.38 0.113,-0.37 0.099,-0.36L0.057,-0.421C0.065,-0.428 0.075,-0.434 0.086,-0.441C0.097,-0.448 0.111,-0.454 0.126,-0.46C0.141,-0.465 0.159,-0.47 0.178,-0.473C0.197,-0.477 0.22,-0.479 0.245,-0.479C0.305,-0.479 0.352,-0.465 0.387,-0.436C0.421,-0.406 0.438,-0.365 0.438,-0.312L0.438,-0.042C0.438,-0.025 0.438,-0.011 0.439,-0L0.355,-0L0.353,-0.056Z" style="fill-rule:nonzero;"/>
            </g>
            <g transform="matrix(18,0,0,18,95.381,28.8369)">
                <path d="M0.092,-0.117C0.109,-0.1 0.129,-0.087 0.152,-0.077C0.175,-0.067 0.202,-0.062 0.233,-0.062C0.263,-0.062 0.288,-0.067 0.308,-0.077C0.328,-0.086 0.338,-0.101 0.338,-0.122C0.338,-0.133 0.336,-0.142 0.332,-0.15C0.327,-0.157 0.32,-0.164 0.31,-0.17C0.299,-0.176 0.285,-0.182 0.269,-0.187C0.252,-0.192 0.23,-0.197 0.205,-0.203C0.187,-0.207 0.169,-0.212 0.152,-0.219C0.134,-0.226 0.118,-0.234 0.104,-0.246C0.09,-0.257 0.079,-0.27 0.07,-0.285C0.061,-0.301 0.057,-0.32 0.057,-0.342C0.057,-0.365 0.062,-0.385 0.073,-0.402C0.083,-0.419 0.097,-0.433 0.114,-0.445C0.131,-0.456 0.151,-0.465 0.172,-0.471C0.194,-0.477 0.217,-0.48 0.24,-0.48C0.279,-0.48 0.313,-0.475 0.342,-0.465C0.37,-0.454 0.395,-0.44 0.416,-0.421L0.367,-0.359C0.353,-0.372 0.336,-0.382 0.315,-0.391C0.294,-0.4 0.269,-0.404 0.241,-0.404C0.212,-0.404 0.189,-0.399 0.172,-0.39C0.155,-0.381 0.146,-0.365 0.146,-0.344C0.146,-0.324 0.158,-0.309 0.181,-0.3C0.203,-0.29 0.234,-0.281 0.271,-0.272C0.293,-0.267 0.314,-0.261 0.333,-0.254C0.352,-0.247 0.368,-0.237 0.383,-0.227C0.397,-0.216 0.408,-0.202 0.417,-0.186C0.425,-0.17 0.429,-0.151 0.429,-0.128C0.429,-0.105 0.424,-0.084 0.413,-0.067C0.402,-0.049 0.388,-0.034 0.37,-0.022C0.352,-0.01 0.331,-0.001 0.308,0.005C0.285,0.011 0.26,0.014 0.235,0.014C0.147,0.014 0.081,-0.01 0.037,-0.057L0.092,-0.117Z" style="fill-rule:nonzero;"/>
            </g>
            <g transform="matrix(18,0,0,18,103.699,28.8369)">
                <path d="M0.286,0.014C0.25,0.014 0.217,0.007 0.187,-0.006C0.157,-0.019 0.131,-0.036 0.11,-0.059C0.088,-0.082 0.071,-0.108 0.059,-0.138C0.046,-0.167 0.04,-0.199 0.04,-0.233C0.04,-0.267 0.046,-0.299 0.059,-0.329C0.071,-0.358 0.088,-0.384 0.11,-0.407C0.131,-0.43 0.157,-0.448 0.187,-0.461C0.217,-0.473 0.25,-0.48 0.286,-0.48C0.321,-0.48 0.354,-0.473 0.384,-0.461C0.414,-0.448 0.44,-0.43 0.462,-0.407C0.484,-0.384 0.501,-0.358 0.514,-0.329C0.526,-0.299 0.532,-0.267 0.532,-0.233C0.532,-0.199 0.526,-0.167 0.514,-0.138C0.501,-0.108 0.484,-0.082 0.462,-0.059C0.44,-0.036 0.414,-0.019 0.384,-0.006C0.354,0.007 0.321,0.014 0.286,0.014ZM0.286,-0.064C0.31,-0.064 0.332,-0.069 0.351,-0.079C0.37,-0.088 0.387,-0.101 0.4,-0.117C0.413,-0.132 0.424,-0.15 0.431,-0.171C0.438,-0.191 0.441,-0.212 0.441,-0.233C0.441,-0.254 0.438,-0.274 0.431,-0.295C0.424,-0.315 0.413,-0.333 0.4,-0.349C0.386,-0.365 0.37,-0.378 0.35,-0.388C0.332,-0.397 0.31,-0.402 0.286,-0.402C0.262,-0.402 0.24,-0.397 0.221,-0.388C0.202,-0.378 0.185,-0.365 0.172,-0.349C0.159,-0.334 0.149,-0.316 0.141,-0.296C0.135,-0.275 0.131,-0.254 0.131,-0.233C0.131,-0.212 0.135,-0.191 0.141,-0.171C0.149,-0.151 0.159,-0.133 0.172,-0.117C0.186,-0.101 0.203,-0.088 0.222,-0.079C0.241,-0.069 0.262,-0.064 0.286,-0.064Z" style="fill-rule:nonzero;"/>
            </g>
            <g transform="matrix(18,0,0,18,113.817,28.8369)">
                <path d="M0.062,-0L0.062,-0.421C0.062,-0.435 0.062,-0.45 0.061,-0.465L0.147,-0.465L0.15,-0.39C0.155,-0.398 0.162,-0.407 0.171,-0.417C0.18,-0.426 0.19,-0.435 0.203,-0.443C0.215,-0.451 0.229,-0.458 0.246,-0.464C0.262,-0.469 0.281,-0.472 0.302,-0.472C0.312,-0.472 0.321,-0.471 0.33,-0.47C0.338,-0.469 0.346,-0.467 0.353,-0.464L0.333,-0.38C0.321,-0.385 0.306,-0.387 0.287,-0.387C0.268,-0.387 0.25,-0.383 0.234,-0.376C0.217,-0.369 0.203,-0.359 0.191,-0.345C0.179,-0.333 0.17,-0.317 0.163,-0.3C0.156,-0.283 0.152,-0.264 0.152,-0.245L0.152,-0L0.062,-0Z" style="fill-rule:nonzero;"/>
            </g>
            <g transform="matrix(18,0,0,18,67.7357,46.8369)">
                <path d="M0.105,-0.162C0.114,-0.151 0.125,-0.141 0.137,-0.13C0.148,-0.118 0.161,-0.109 0.176,-0.1C0.191,-0.091 0.207,-0.084 0.225,-0.079C0.243,-0.074 0.263,-0.071 0.284,-0.071C0.328,-0.071 0.362,-0.081 0.387,-0.101C0.412,-0.121 0.424,-0.148 0.424,-0.182C0.424,-0.219 0.41,-0.246 0.382,-0.265C0.354,-0.283 0.314,-0.298 0.261,-0.309C0.232,-0.315 0.206,-0.323 0.183,-0.334C0.16,-0.345 0.14,-0.358 0.123,-0.374C0.106,-0.39 0.092,-0.408 0.083,-0.43C0.074,-0.451 0.069,-0.474 0.069,-0.501C0.069,-0.526 0.074,-0.549 0.083,-0.571C0.092,-0.593 0.106,-0.612 0.125,-0.629C0.144,-0.646 0.167,-0.659 0.195,-0.669C0.223,-0.679 0.255,-0.684 0.292,-0.684C0.325,-0.684 0.353,-0.681 0.377,-0.674C0.4,-0.667 0.42,-0.658 0.437,-0.648C0.454,-0.638 0.467,-0.628 0.477,-0.617C0.487,-0.606 0.495,-0.598 0.5,-0.591L0.436,-0.532C0.432,-0.537 0.426,-0.543 0.418,-0.551C0.41,-0.558 0.4,-0.566 0.388,-0.573C0.375,-0.58 0.361,-0.587 0.344,-0.592C0.328,-0.597 0.309,-0.599 0.288,-0.599C0.267,-0.599 0.248,-0.596 0.233,-0.591C0.218,-0.585 0.205,-0.578 0.195,-0.569C0.185,-0.56 0.178,-0.549 0.173,-0.538C0.168,-0.527 0.166,-0.515 0.166,-0.504C0.166,-0.487 0.17,-0.473 0.177,-0.462C0.184,-0.45 0.194,-0.44 0.207,-0.431C0.22,-0.422 0.237,-0.414 0.257,-0.407C0.276,-0.401 0.299,-0.395 0.324,-0.389C0.349,-0.383 0.373,-0.375 0.397,-0.366C0.42,-0.356 0.441,-0.343 0.46,-0.327C0.479,-0.31 0.494,-0.29 0.504,-0.267C0.516,-0.243 0.521,-0.214 0.521,-0.18C0.521,-0.151 0.515,-0.125 0.503,-0.101C0.491,-0.077 0.474,-0.056 0.454,-0.039C0.433,-0.021 0.408,-0.007 0.379,0.002C0.35,0.012 0.319,0.017 0.286,0.017C0.255,0.017 0.226,0.013 0.201,0.006C0.175,-0.001 0.152,-0.011 0.131,-0.022C0.11,-0.033 0.091,-0.046 0.076,-0.059C0.06,-0.073 0.047,-0.087 0.037,-0.1L0.105,-0.162Z" style="fill-rule:nonzero;"/>
            </g>
            <g transform="matrix(18,0,0,18,78.0335,46.8369)">
                <path d="M0.061,-0.667L0.15,-0.667L0.15,-0.396C0.156,-0.404 0.163,-0.413 0.172,-0.422C0.181,-0.431 0.191,-0.44 0.204,-0.448C0.217,-0.456 0.231,-0.463 0.248,-0.468C0.265,-0.473 0.284,-0.476 0.305,-0.476C0.366,-0.476 0.411,-0.458 0.44,-0.423C0.469,-0.388 0.484,-0.34 0.484,-0.279L0.484,-0L0.394,-0L0.394,-0.272C0.394,-0.315 0.385,-0.347 0.366,-0.368C0.347,-0.388 0.321,-0.398 0.287,-0.398C0.261,-0.398 0.239,-0.393 0.222,-0.382C0.205,-0.371 0.191,-0.358 0.181,-0.341C0.17,-0.324 0.163,-0.304 0.158,-0.282C0.153,-0.261 0.151,-0.239 0.151,-0.216L0.151,-0L0.061,-0L0.061,-0.667Z" style="fill-rule:nonzero;"/>
            </g>
            <g transform="matrix(18,0,0,18,87.6293,46.8369)">
                <path d="M0.06,-0.649L0.161,-0.649L0.161,-0.548L0.06,-0.548L0.06,-0.649ZM0.066,-0.465L0.156,-0.465L0.156,-0L0.066,-0L0.066,-0.465Z" style="fill-rule:nonzero;"/>
            </g>
            <g transform="matrix(18,0,0,18,91.4471,46.8369)">
                <path d="M0.097,-0.39L0.013,-0.39L0.013,-0.465L0.097,-0.465L0.097,-0.503C0.097,-0.534 0.102,-0.562 0.111,-0.585C0.119,-0.608 0.132,-0.626 0.147,-0.641C0.162,-0.656 0.179,-0.667 0.198,-0.674C0.217,-0.681 0.238,-0.684 0.259,-0.684C0.284,-0.684 0.308,-0.68 0.332,-0.673C0.355,-0.665 0.377,-0.652 0.397,-0.633L0.352,-0.575C0.327,-0.596 0.301,-0.606 0.273,-0.606C0.247,-0.606 0.226,-0.598 0.211,-0.581C0.195,-0.564 0.187,-0.536 0.187,-0.495L0.187,-0.465L0.32,-0.465L0.32,-0.39L0.187,-0.39L0.187,-0L0.097,-0L0.097,-0.39Z" style="fill-rule:nonzero;"/>
            </g>
            <g transform="matrix(18,0,0,18,97.2089,46.8369)">
                <path d="M0.102,-0.39L0.018,-0.39L0.018,-0.465L0.102,-0.465L0.102,-0.617L0.192,-0.617L0.192,-0.465L0.328,-0.465L0.328,-0.39L0.192,-0.39L0.192,-0.161C0.192,-0.124 0.198,-0.098 0.21,-0.084C0.221,-0.07 0.238,-0.063 0.259,-0.063C0.276,-0.063 0.291,-0.066 0.302,-0.071C0.313,-0.076 0.325,-0.084 0.336,-0.095L0.377,-0.04C0.358,-0.021 0.338,-0.008 0.318,0C0.297,0.009 0.273,0.013 0.245,0.013C0.196,0.013 0.16,-0 0.137,-0.027C0.114,-0.054 0.102,-0.095 0.102,-0.152L0.102,-0.39Z" style="fill-rule:nonzero;"/>
            </g>
            <g transform="matrix(18,0,0,18,103.943,46.8369)">
                <path d="M0.486,-0.068C0.481,-0.062 0.473,-0.054 0.462,-0.045C0.451,-0.036 0.438,-0.027 0.421,-0.018C0.404,-0.009 0.384,-0.002 0.361,0.004C0.338,0.011 0.311,0.014 0.282,0.014C0.246,0.014 0.213,0.008 0.183,-0.004C0.153,-0.016 0.127,-0.033 0.106,-0.055C0.085,-0.077 0.068,-0.103 0.057,-0.134C0.045,-0.165 0.039,-0.199 0.039,-0.236C0.039,-0.27 0.045,-0.302 0.056,-0.332C0.067,-0.361 0.083,-0.387 0.104,-0.408C0.125,-0.43 0.149,-0.447 0.178,-0.46C0.206,-0.473 0.237,-0.479 0.271,-0.479C0.311,-0.479 0.345,-0.471 0.374,-0.456C0.403,-0.441 0.426,-0.42 0.445,-0.395C0.463,-0.37 0.476,-0.341 0.485,-0.308C0.494,-0.275 0.498,-0.241 0.498,-0.206L0.131,-0.206C0.132,-0.185 0.136,-0.166 0.145,-0.149C0.153,-0.132 0.164,-0.117 0.178,-0.104C0.192,-0.091 0.208,-0.081 0.226,-0.074C0.244,-0.067 0.263,-0.063 0.283,-0.063C0.322,-0.063 0.355,-0.07 0.38,-0.083C0.405,-0.096 0.424,-0.109 0.435,-0.122L0.486,-0.068ZM0.405,-0.273C0.402,-0.309 0.39,-0.34 0.367,-0.365C0.344,-0.39 0.312,-0.403 0.271,-0.403C0.25,-0.403 0.231,-0.399 0.214,-0.392C0.197,-0.385 0.182,-0.375 0.17,-0.363C0.158,-0.351 0.149,-0.337 0.142,-0.322C0.135,-0.306 0.132,-0.29 0.131,-0.273L0.405,-0.273Z" style="fill-rule:nonzero;"/>
            </g>
            <g transform="matrix(18,0,0,18,113.412,46.8369)">
                <path d="M0.062,-0L0.062,-0.421C0.062,-0.435 0.062,-0.45 0.061,-0.465L0.147,-0.465L0.15,-0.39C0.155,-0.398 0.162,-0.407 0.171,-0.417C0.18,-0.426 0.19,-0.435 0.203,-0.443C0.215,-0.451 0.229,-0.458 0.246,-0.464C0.262,-0.469 0.281,-0.472 0.302,-0.472C0.312,-0.472 0.321,-0.471 0.33,-0.47C0.338,-0.469 0.346,-0.467 0.353,-0.464L0.333,-0.38C0.321,-0.385 0.306,-0.387 0.287,-0.387C0.268,-0.387 0.25,-0.383 0.234,-0.376C0.217,-0.369 0.203,-0.359 0.191,-0.345C0.179,-0.333 0.17,-0.317 0.163,-0.3C0.156,-0.283 0.152,-0.264 0.152,-0.245L0.152,-0L0.062,-0Z" style="fill-rule:nonzero;"/>
            </g>
        </g>
        <rect x="30" y="273.827" width="1.152" height="8.004" style="fill-rule:nonzero;"/>
        <path d="M32.784,281.831L32.784,276.821C32.784,276.641 32.78,276.451 32.772,276.251L33.804,276.251L33.84,277.091C33.912,276.995 34,276.889 34.104,276.773C34.208,276.657 34.336,276.551 34.488,276.455C34.64,276.359 34.818,276.279 35.022,276.215C35.226,276.151 35.456,276.119 35.712,276.119C36.44,276.119 36.98,276.331 37.332,276.755C37.684,277.179 37.86,277.755 37.86,278.483L37.86,281.831L36.78,281.831L36.78,278.567C36.78,278.047 36.668,277.665 36.444,277.421C36.22,277.177 35.904,277.055 35.496,277.055C35.184,277.055 34.924,277.119 34.716,277.247C34.508,277.375 34.342,277.541 34.218,277.745C34.094,277.949 34.004,278.181 33.948,278.441C33.892,278.701 33.864,278.967 33.864,279.239L33.864,281.831L32.784,281.831Z" style="fill-rule:nonzero;"/>
        <path d="M71.739,281.567C71.459,281.711 71.157,281.825 70.833,281.909C70.509,281.993 70.171,282.035 69.819,282.035C69.243,282.035 68.705,281.925 68.205,281.705C67.705,281.485 67.271,281.187 66.903,280.811C66.535,280.435 66.247,279.991 66.039,279.479C65.831,278.967 65.727,278.419 65.727,277.835C65.727,277.251 65.831,276.703 66.039,276.191C66.247,275.679 66.535,275.233 66.903,274.853C67.271,274.473 67.705,274.173 68.205,273.953C68.705,273.733 69.243,273.623 69.819,273.623C70.395,273.623 70.933,273.733 71.433,273.953C71.933,274.173 72.367,274.473 72.735,274.853C73.103,275.233 73.391,275.679 73.599,276.191C73.807,276.703 73.911,277.251 73.911,277.835C73.911,278.483 73.785,279.081 73.533,279.629C73.281,280.177 72.935,280.643 72.495,281.027L73.455,282.191L72.747,282.791L71.739,281.567ZM70.047,279.467L70.767,278.867L71.787,280.139C72.075,279.859 72.299,279.517 72.459,279.113C72.619,278.709 72.699,278.275 72.699,277.811C72.699,277.379 72.631,276.973 72.495,276.593C72.359,276.213 72.165,275.881 71.913,275.597C71.661,275.313 71.359,275.087 71.007,274.919C70.655,274.751 70.259,274.667 69.819,274.667C69.379,274.667 68.983,274.751 68.631,274.919C68.279,275.087 67.977,275.313 67.725,275.597C67.473,275.881 67.279,276.213 67.143,276.593C67.007,276.973 66.939,277.379 66.939,277.811C66.939,278.243 67.007,278.649 67.143,279.029C67.279,279.409 67.473,279.743 67.725,280.031C67.977,280.319 68.279,280.547 68.631,280.715C68.983,280.883 69.379,280.967 69.819,280.967C70.259,280.967 70.667,280.879 71.043,280.703L70.047,279.467Z" style="fill-rule:nonzero;"/>
        <path d="M75.183,276.251L76.263,276.251L76.263,279.527C76.263,280.055 76.371,280.437 76.587,280.673C76.803,280.909 77.115,281.027 77.523,281.027C77.835,281.027 78.093,280.963 78.297,280.835C78.501,280.707 78.667,280.541 78.795,280.337C78.923,280.133 79.013,279.901 79.065,279.641C79.117,279.381 79.143,279.115 79.143,278.843L79.143,276.251L80.223,276.251L80.223,281.261C80.223,281.441 80.227,281.631 80.235,281.831L79.203,281.831L79.167,281.003C79.095,281.099 79.007,281.203 78.903,281.315C78.799,281.427 78.671,281.529 78.519,281.621C78.367,281.713 78.191,281.791 77.991,281.855C77.791,281.919 77.563,281.951 77.307,281.951C76.579,281.951 76.043,281.741 75.699,281.321C75.355,280.901 75.183,280.327 75.183,279.599L75.183,276.251Z" style="fill-rule:nonzero;"/>
        <path d="M85.179,279.191C85.147,279.183 85.085,279.173 84.993,279.161C84.901,279.149 84.795,279.139 84.675,279.131C84.555,279.123 84.427,279.115 84.291,279.107C84.155,279.099 84.023,279.095 83.895,279.095C83.591,279.095 83.345,279.131 83.157,279.203C82.969,279.275 82.821,279.365 82.713,279.473C82.605,279.581 82.531,279.701 82.491,279.833C82.451,279.965 82.431,280.091 82.431,280.211C82.431,280.515 82.535,280.745 82.743,280.901C82.951,281.057 83.239,281.135 83.607,281.135C83.815,281.135 84.013,281.099 84.201,281.027C84.389,280.955 84.555,280.859 84.699,280.739C84.843,280.619 84.959,280.479 85.047,280.319C85.135,280.159 85.179,279.995 85.179,279.827L85.179,279.191ZM85.191,281.159C84.983,281.439 84.709,281.647 84.369,281.783C84.029,281.919 83.679,281.987 83.319,281.987C83.087,281.987 82.857,281.957 82.629,281.897C82.401,281.837 82.193,281.737 82.005,281.597C81.817,281.457 81.665,281.277 81.549,281.057C81.433,280.837 81.375,280.567 81.375,280.247C81.375,279.647 81.585,279.167 82.005,278.807C82.425,278.447 83.031,278.267 83.823,278.267C83.951,278.267 84.087,278.271 84.231,278.279C84.375,278.287 84.511,278.295 84.639,278.303C84.767,278.311 84.879,278.319 84.975,278.327C85.071,278.335 85.139,278.343 85.179,278.351L85.179,278.147C85.179,277.731 85.053,277.433 84.801,277.253C84.549,277.073 84.207,276.983 83.775,276.983C83.351,276.983 83.015,277.041 82.767,277.157C82.519,277.273 82.311,277.391 82.143,277.511L81.639,276.779C81.735,276.699 81.851,276.619 81.987,276.539C82.123,276.459 82.283,276.385 82.467,276.317C82.651,276.249 82.859,276.193 83.091,276.149C83.323,276.105 83.591,276.083 83.895,276.083C84.615,276.083 85.181,276.257 85.593,276.605C86.005,276.953 86.211,277.447 86.211,278.087L86.211,281.333C86.211,281.529 86.215,281.695 86.223,281.831L85.215,281.831L85.191,281.159Z" style="fill-rule:nonzero;"/>
        <path d="M87.663,281.831L87.663,276.821C87.663,276.641 87.659,276.451 87.651,276.251L88.683,276.251L88.719,277.091C88.791,276.995 88.879,276.889 88.983,276.773C89.087,276.657 89.215,276.551 89.367,276.455C89.519,276.359 89.697,276.279 89.901,276.215C90.105,276.151 90.335,276.119 90.591,276.119C91.319,276.119 91.859,276.331 92.211,276.755C92.563,277.179 92.739,277.755 92.739,278.483L92.739,281.831L91.659,281.831L91.659,278.567C91.659,278.047 91.547,277.665 91.323,277.421C91.099,277.177 90.783,277.055 90.375,277.055C90.063,277.055 89.803,277.119 89.595,277.247C89.387,277.375 89.221,277.541 89.097,277.745C88.973,277.949 88.883,278.181 88.827,278.441C88.771,278.701 88.743,278.967 88.743,279.239L88.743,281.831L87.663,281.831Z" style="fill-rule:nonzero;"/>
        <path d="M94.647,277.151L93.639,277.151L93.639,276.251L94.647,276.251L94.647,274.427L95.727,274.427L95.727,276.251L97.359,276.251L97.359,277.151L95.727,277.151L95.727,279.899C95.727,280.347 95.797,280.655 95.937,280.823C96.077,280.991 96.275,281.075 96.531,281.075C96.739,281.075 96.911,281.043 97.047,280.979C97.183,280.915 97.319,280.819 97.455,280.691L97.947,281.351C97.715,281.575 97.477,281.737 97.233,281.837C96.989,281.937 96.699,281.987 96.363,281.987C95.771,281.987 95.337,281.827 95.061,281.507C94.785,281.187 94.647,280.687 94.647,280.007L94.647,277.151Z" style="fill-rule:nonzero;"/>
        <path d="M98.727,274.043L99.939,274.043L99.939,275.255L98.727,275.255L98.727,274.043ZM98.799,276.251L99.879,276.251L99.879,281.831L98.799,281.831L98.799,276.251Z" style="fill-rule:nonzero;"/>
        <path d="M101.271,280.979L104.463,277.163L101.379,277.163L101.379,276.251L105.783,276.251L105.783,277.115L102.531,280.931L105.819,280.931L105.819,281.831L101.271,281.831L101.271,280.979Z" style="fill-rule:nonzero;"/>
        <path d="M112.167,281.015C112.103,281.087 112.007,281.179 111.879,281.291C111.751,281.403 111.585,281.511 111.381,281.615C111.177,281.719 110.937,281.809 110.661,281.885C110.385,281.961 110.071,281.999 109.719,281.999C109.287,281.999 108.891,281.927 108.531,281.783C108.171,281.639 107.863,281.435 107.607,281.171C107.351,280.907 107.153,280.591 107.013,280.223C106.873,279.855 106.803,279.447 106.803,278.999C106.803,278.591 106.871,278.209 107.007,277.853C107.143,277.497 107.335,277.189 107.583,276.929C107.831,276.669 108.125,276.463 108.465,276.311C108.805,276.159 109.179,276.083 109.587,276.083C110.067,276.083 110.479,276.175 110.823,276.359C111.167,276.543 111.449,276.787 111.669,277.091C111.889,277.395 112.051,277.743 112.155,278.135C112.259,278.527 112.311,278.935 112.311,279.359L107.907,279.359C107.915,279.607 107.969,279.835 108.069,280.043C108.169,280.251 108.303,280.431 108.471,280.583C108.639,280.735 108.831,280.855 109.047,280.943C109.263,281.031 109.491,281.075 109.731,281.075C110.203,281.075 110.591,280.995 110.895,280.835C111.199,280.675 111.419,280.519 111.555,280.367L112.167,281.015ZM111.195,278.555C111.163,278.123 111.011,277.755 110.739,277.451C110.467,277.147 110.083,276.995 109.587,276.995C109.331,276.995 109.101,277.039 108.897,277.127C108.693,277.215 108.519,277.331 108.375,277.475C108.231,277.619 108.119,277.785 108.039,277.973C107.959,278.161 107.915,278.355 107.907,278.555L111.195,278.555Z" style="fill-rule:nonzero;"/>
        <g id="XY-Controls" serif:id="XY Controls">
            <g id="X">
                <path d="M19.806,81.501C19.918,81.629 20.044,81.759 20.184,81.891C20.324,82.023 20.482,82.141 20.658,82.245C20.834,82.349 21.03,82.433 21.246,82.497C21.462,82.561 21.698,82.593 21.954,82.593C22.482,82.593 22.894,82.473 23.19,82.233C23.486,81.993 23.634,81.669 23.634,81.261C23.634,80.821 23.466,80.491 23.13,80.271C22.794,80.051 22.31,79.873 21.678,79.737C21.334,79.665 21.022,79.565 20.742,79.437C20.462,79.309 20.22,79.149 20.016,78.957C19.812,78.765 19.654,78.543 19.542,78.291C19.43,78.039 19.374,77.753 19.374,77.433C19.374,77.137 19.43,76.857 19.542,76.593C19.654,76.329 19.822,76.097 20.046,75.897C20.27,75.697 20.55,75.537 20.886,75.417C21.222,75.297 21.61,75.237 22.05,75.237C22.442,75.237 22.78,75.279 23.064,75.363C23.348,75.447 23.59,75.549 23.79,75.669C23.99,75.789 24.15,75.913 24.27,76.041C24.39,76.169 24.482,76.273 24.546,76.353L23.778,77.061C23.73,77.005 23.658,76.931 23.562,76.839C23.466,76.747 23.344,76.657 23.196,76.569C23.048,76.481 22.876,76.407 22.68,76.347C22.484,76.287 22.258,76.257 22.002,76.257C21.746,76.257 21.526,76.291 21.342,76.359C21.158,76.427 21.006,76.515 20.886,76.623C20.766,76.731 20.678,76.853 20.622,76.989C20.566,77.125 20.538,77.261 20.538,77.397C20.538,77.597 20.58,77.767 20.664,77.907C20.748,78.047 20.87,78.171 21.03,78.279C21.19,78.387 21.388,78.479 21.624,78.555C21.86,78.631 22.13,78.705 22.434,78.777C22.73,78.849 23.02,78.943 23.304,79.059C23.588,79.175 23.842,79.331 24.066,79.527C24.29,79.723 24.468,79.963 24.6,80.247C24.732,80.531 24.798,80.877 24.798,81.285C24.798,81.629 24.726,81.945 24.582,82.233C24.438,82.521 24.24,82.771 23.988,82.983C23.736,83.195 23.438,83.359 23.094,83.475C22.75,83.591 22.378,83.649 21.978,83.649C21.602,83.649 21.26,83.605 20.952,83.517C20.644,83.429 20.364,83.317 20.112,83.181C19.86,83.045 19.64,82.895 19.452,82.731C19.264,82.567 19.11,82.405 18.99,82.245L19.806,81.501Z" style="fill-rule:nonzero;"/>
                <path d="M26.25,78.765L25.242,78.765L25.242,77.865L26.25,77.865L26.25,76.041L27.33,76.041L27.33,77.865L28.962,77.865L28.962,78.765L27.33,78.765L27.33,81.513C27.33,81.961 27.4,82.269 27.54,82.437C27.68,82.605 27.878,82.689 28.134,82.689C28.342,82.689 28.514,82.657 28.65,82.593C28.786,82.529 28.922,82.433 29.058,82.305L29.55,82.965C29.318,83.189 29.08,83.351 28.836,83.451C28.592,83.551 28.302,83.601 27.966,83.601C27.374,83.601 26.94,83.441 26.664,83.121C26.388,82.801 26.25,82.301 26.25,81.621L26.25,78.765Z" style="fill-rule:nonzero;"/>
                <path d="M35.382,82.629C35.318,82.701 35.222,82.793 35.094,82.905C34.966,83.017 34.8,83.125 34.596,83.229C34.392,83.333 34.152,83.423 33.876,83.499C33.6,83.575 33.286,83.613 32.934,83.613C32.502,83.613 32.106,83.541 31.746,83.397C31.386,83.253 31.078,83.049 30.822,82.785C30.566,82.521 30.368,82.205 30.228,81.837C30.088,81.469 30.018,81.061 30.018,80.613C30.018,80.205 30.086,79.823 30.222,79.467C30.358,79.111 30.55,78.803 30.798,78.543C31.046,78.283 31.34,78.077 31.68,77.925C32.02,77.773 32.394,77.697 32.802,77.697C33.282,77.697 33.694,77.789 34.038,77.973C34.382,78.157 34.664,78.401 34.884,78.705C35.104,79.009 35.266,79.357 35.37,79.749C35.474,80.141 35.526,80.549 35.526,80.973L31.122,80.973C31.13,81.221 31.184,81.449 31.284,81.657C31.384,81.865 31.518,82.045 31.686,82.197C31.854,82.349 32.046,82.469 32.262,82.557C32.478,82.645 32.706,82.689 32.946,82.689C33.418,82.689 33.806,82.609 34.11,82.449C34.414,82.289 34.634,82.133 34.77,81.981L35.382,82.629ZM34.41,80.169C34.378,79.737 34.226,79.369 33.954,79.065C33.682,78.761 33.298,78.609 32.802,78.609C32.546,78.609 32.316,78.653 32.112,78.741C31.908,78.829 31.734,78.945 31.59,79.089C31.446,79.233 31.334,79.399 31.254,79.587C31.174,79.775 31.13,79.969 31.122,80.169L34.41,80.169Z" style="fill-rule:nonzero;"/>
                <path d="M36.642,85.845L36.642,78.435C36.642,78.255 36.638,78.065 36.63,77.865L37.662,77.865L37.698,78.657C37.754,78.585 37.834,78.497 37.938,78.393C38.042,78.289 38.172,78.189 38.328,78.093C38.484,77.997 38.666,77.915 38.874,77.847C39.082,77.779 39.322,77.745 39.594,77.745C40.026,77.745 40.4,77.825 40.716,77.985C41.032,78.145 41.294,78.361 41.502,78.633C41.71,78.905 41.864,79.217 41.964,79.569C42.064,79.921 42.114,80.293 42.114,80.685C42.114,81.189 42.028,81.625 41.856,81.993C41.684,82.361 41.46,82.665 41.184,82.905C40.908,83.145 40.6,83.323 40.26,83.439C39.92,83.555 39.586,83.613 39.258,83.613C38.882,83.613 38.58,83.575 38.352,83.499C38.124,83.423 37.91,83.341 37.71,83.253L37.71,85.845L36.642,85.845ZM37.71,82.233C37.838,82.337 38.022,82.437 38.262,82.533C38.502,82.629 38.802,82.677 39.162,82.677C39.434,82.677 39.684,82.627 39.912,82.527C40.14,82.427 40.336,82.287 40.5,82.107C40.664,81.927 40.79,81.717 40.878,81.477C40.966,81.237 41.01,80.973 41.01,80.685C41.01,80.413 40.98,80.157 40.92,79.917C40.86,79.677 40.764,79.465 40.632,79.281C40.5,79.097 40.33,78.951 40.122,78.843C39.914,78.735 39.658,78.681 39.354,78.681C38.97,78.681 38.642,78.787 38.37,78.999C38.098,79.211 37.906,79.521 37.794,79.929C37.754,80.057 37.73,80.195 37.722,80.343C37.714,80.491 37.71,80.645 37.71,80.805L37.71,82.233Z" style="fill-rule:nonzero;"/>
                <path d="M43.614,82.041C43.814,82.241 44.054,82.401 44.334,82.521C44.614,82.641 44.938,82.701 45.306,82.701C45.666,82.701 45.966,82.643 46.206,82.527C46.446,82.411 46.566,82.229 46.566,81.981C46.566,81.853 46.54,81.743 46.488,81.651C46.436,81.559 46.348,81.477 46.224,81.405C46.1,81.333 45.936,81.267 45.732,81.207C45.528,81.147 45.274,81.081 44.97,81.009C44.754,80.961 44.54,80.897 44.328,80.817C44.116,80.737 43.926,80.631 43.758,80.499C43.59,80.367 43.454,80.207 43.35,80.019C43.246,79.831 43.194,79.605 43.194,79.341C43.194,79.069 43.256,78.831 43.38,78.627C43.504,78.423 43.67,78.251 43.878,78.111C44.086,77.971 44.32,77.865 44.58,77.793C44.84,77.721 45.11,77.685 45.39,77.685C45.862,77.685 46.268,77.747 46.608,77.871C46.948,77.995 47.246,78.169 47.502,78.393L46.914,79.137C46.746,78.985 46.536,78.857 46.284,78.753C46.032,78.649 45.738,78.597 45.402,78.597C45.058,78.597 44.782,78.653 44.574,78.765C44.366,78.877 44.262,79.061 44.262,79.317C44.262,79.557 44.4,79.735 44.676,79.851C44.952,79.967 45.314,80.077 45.762,80.181C46.026,80.245 46.272,80.319 46.5,80.403C46.728,80.487 46.928,80.595 47.1,80.727C47.272,80.859 47.408,81.021 47.508,81.213C47.608,81.405 47.658,81.637 47.658,81.909C47.658,82.189 47.594,82.435 47.466,82.647C47.338,82.859 47.166,83.037 46.95,83.181C46.734,83.325 46.486,83.433 46.206,83.505C45.926,83.577 45.634,83.613 45.33,83.613C44.274,83.613 43.482,83.329 42.954,82.761L43.614,82.041Z" style="fill-rule:nonzero;"/>
                <path d="M33.36,102.2L33.36,213.877" style="fill:none;stroke:black;stroke-width:1px;stroke-dasharray:2,2,0,0;"/>
                <rect x="19.9" y="165.031" width="2.216" height="0.943" style="fill-rule:nonzero;"/>
                <path d="M46.708,166.358L46.708,165.255L45.292,165.255L45.292,163.839L44.189,163.839L44.189,165.255L42.773,165.255L42.773,166.358L44.189,166.358L44.189,167.774L45.292,167.774L45.292,166.358L46.708,166.358Z" style="fill-rule:nonzero;"/>
            </g>
            <g id="Y">
                <path d="M77.422,81.501C77.534,81.629 77.66,81.759 77.8,81.891C77.94,82.023 78.098,82.141 78.274,82.245C78.45,82.349 78.646,82.433 78.862,82.497C79.078,82.561 79.314,82.593 79.57,82.593C80.098,82.593 80.51,82.473 80.806,82.233C81.102,81.993 81.25,81.669 81.25,81.261C81.25,80.821 81.082,80.491 80.746,80.271C80.41,80.051 79.926,79.873 79.294,79.737C78.95,79.665 78.638,79.565 78.358,79.437C78.078,79.309 77.836,79.149 77.632,78.957C77.428,78.765 77.27,78.543 77.158,78.291C77.046,78.039 76.99,77.753 76.99,77.433C76.99,77.137 77.046,76.857 77.158,76.593C77.27,76.329 77.438,76.097 77.662,75.897C77.886,75.697 78.166,75.537 78.502,75.417C78.838,75.297 79.226,75.237 79.666,75.237C80.058,75.237 80.396,75.279 80.68,75.363C80.964,75.447 81.206,75.549 81.406,75.669C81.606,75.789 81.766,75.913 81.886,76.041C82.006,76.169 82.098,76.273 82.162,76.353L81.394,77.061C81.346,77.005 81.274,76.931 81.178,76.839C81.082,76.747 80.96,76.657 80.812,76.569C80.664,76.481 80.492,76.407 80.296,76.347C80.1,76.287 79.874,76.257 79.618,76.257C79.362,76.257 79.142,76.291 78.958,76.359C78.774,76.427 78.622,76.515 78.502,76.623C78.382,76.731 78.294,76.853 78.238,76.989C78.182,77.125 78.154,77.261 78.154,77.397C78.154,77.597 78.196,77.767 78.28,77.907C78.364,78.047 78.486,78.171 78.646,78.279C78.806,78.387 79.004,78.479 79.24,78.555C79.476,78.631 79.746,78.705 80.05,78.777C80.346,78.849 80.636,78.943 80.92,79.059C81.204,79.175 81.458,79.331 81.682,79.527C81.906,79.723 82.084,79.963 82.216,80.247C82.348,80.531 82.414,80.877 82.414,81.285C82.414,81.629 82.342,81.945 82.198,82.233C82.054,82.521 81.856,82.771 81.604,82.983C81.352,83.195 81.054,83.359 80.71,83.475C80.366,83.591 79.994,83.649 79.594,83.649C79.218,83.649 78.876,83.605 78.568,83.517C78.26,83.429 77.98,83.317 77.728,83.181C77.476,83.045 77.256,82.895 77.068,82.731C76.88,82.567 76.726,82.405 76.606,82.245L77.422,81.501Z" style="fill-rule:nonzero;"/>
                <path d="M83.794,75.441L84.862,75.441L84.862,78.693C84.934,78.597 85.022,78.493 85.126,78.381C85.23,78.269 85.358,78.165 85.51,78.069C85.662,77.973 85.838,77.893 86.038,77.829C86.238,77.765 86.466,77.733 86.722,77.733C87.45,77.733 87.99,77.945 88.342,78.369C88.694,78.793 88.87,79.369 88.87,80.097L88.87,83.445L87.79,83.445L87.79,80.181C87.79,79.661 87.678,79.279 87.454,79.035C87.23,78.791 86.914,78.669 86.506,78.669C86.194,78.669 85.934,78.733 85.726,78.861C85.518,78.989 85.352,79.155 85.228,79.359C85.104,79.563 85.014,79.795 84.958,80.055C84.902,80.315 84.874,80.581 84.874,80.853L84.874,83.445L83.794,83.445L83.794,75.441Z" style="fill-rule:nonzero;"/>
                <path d="M90.214,75.657L91.426,75.657L91.426,76.869L90.214,76.869L90.214,75.657ZM90.286,77.865L91.366,77.865L91.366,83.445L90.286,83.445L90.286,77.865Z" style="fill-rule:nonzero;"/>
                <path d="M93.238,78.765L92.23,78.765L92.23,77.865L93.238,77.865L93.238,77.409C93.238,77.033 93.292,76.707 93.4,76.431C93.508,76.155 93.652,75.929 93.832,75.753C94.012,75.577 94.218,75.447 94.45,75.363C94.682,75.279 94.926,75.237 95.182,75.237C95.478,75.237 95.768,75.283 96.052,75.375C96.336,75.467 96.598,75.625 96.838,75.849L96.298,76.545C96.002,76.297 95.686,76.173 95.35,76.173C95.038,76.173 94.788,76.273 94.6,76.473C94.412,76.673 94.318,77.017 94.318,77.505L94.318,77.865L95.914,77.865L95.914,78.765L94.318,78.765L94.318,83.445L93.238,83.445L93.238,78.765Z" style="fill-rule:nonzero;"/>
                <path d="M97.174,78.765L96.166,78.765L96.166,77.865L97.174,77.865L97.174,76.041L98.254,76.041L98.254,77.865L99.886,77.865L99.886,78.765L98.254,78.765L98.254,81.513C98.254,81.961 98.324,82.269 98.464,82.437C98.604,82.605 98.802,82.689 99.058,82.689C99.266,82.689 99.438,82.657 99.574,82.593C99.71,82.529 99.846,82.433 99.982,82.305L100.474,82.965C100.242,83.189 100.004,83.351 99.76,83.451C99.516,83.551 99.226,83.601 98.89,83.601C98.298,83.601 97.864,83.441 97.588,83.121C97.312,82.801 97.174,82.301 97.174,81.621L97.174,78.765Z" style="fill-rule:nonzero;"/>
                <path d="M88.36,102.2L88.36,213.877" style="fill:none;stroke:black;stroke-width:1px;stroke-dasharray:2,2,0,0;"/>
                <rect x="74.9" y="165.031" width="2.216" height="0.943" style="fill-rule:nonzero;"/>
                <path d="M101.708,166.358L101.708,165.255L100.292,165.255L100.292,163.839L99.189,163.839L99.189,165.255L97.773,165.255L97.773,166.358L99.189,166.358L99.189,167.774L100.292,167.774L100.292,166.358L101.708,166.358Z" style="fill-rule:nonzero;"/>
            </g>
        </g>
    </g>
</svg>
