<?xml version="1.0" encoding="UTF-8" standalone="no"?>
<!DOCTYPE svg PUBLIC "-//W3C//DTD SVG 1.1//EN" "http://www.w3.org/Graphics/SVG/1.1/DTD/svg11.dtd">
<svg width="100%" height="100%" viewBox="0 0 180 380" version="1.1" xmlns="http://www.w3.org/2000/svg" xmlns:xlink="http://www.w3.org/1999/xlink" xml:space="preserve" xmlns:serif="http://www.serif.com/" style="fill-rule:evenodd;clip-rule:evenodd;stroke-linecap:round;stroke-linejoin:round;stroke-miterlimit:1.5;">
    <g id="svg8">
        <rect x="0" y="0" width="180" height="380" style="fill:rgb(240,240,240);"/>
        <g>
            <path d="M70.784,375.578L69.178,375.578L69.178,370.247L63.102,370.247L63.102,375.578L61.496,375.578L61.496,364.154L63.102,364.154L63.102,368.873L69.178,368.873L69.178,364.154L70.784,364.154L70.784,375.578Z" style="fill:rgb(35,31,32);fill-rule:nonzero;"/>
            <path d="M78.992,375.578L72.171,375.578L72.171,364.154L78.86,364.154L78.86,365.496L73.777,365.496L73.777,368.906L78.578,368.906L78.578,370.247L73.777,370.247L73.777,374.221L78.992,374.221L78.992,375.578Z" style="fill:rgb(35,31,32);fill-rule:nonzero;"/>
            <path d="M87.865,365.496L84.653,365.496L84.653,375.578L83.047,375.578L83.047,365.496L79.819,365.496L79.819,364.154L87.865,364.154L87.865,365.496Z" style="fill:rgb(35,31,32);fill-rule:nonzero;"/>
            <path d="M93.575,365.877C93.062,365.496 92.449,365.463 91.655,365.463L90.479,365.463L90.479,369.337L91.655,369.337C92.449,369.337 93.062,369.304 93.575,368.94C94.089,368.559 94.304,368.095 94.304,367.399C94.304,366.721 94.089,366.241 93.575,365.877M96.622,375.578L94.684,375.578L91.704,370.661L90.479,370.661L90.479,375.578L88.873,375.578L88.873,364.154L92.101,364.154C93.244,364.154 94.171,364.42 94.85,364.949C95.529,365.496 95.959,366.323 95.959,367.366C95.959,369.37 94.568,370.264 93.36,370.496L96.622,375.578Z" style="fill:rgb(35,31,32);fill-rule:nonzero;"/>
            <rect x="97.814" y="364.154" width="1.605" height="11.424" style="fill:rgb(35,31,32);"/>
            <path d="M110.542,374.088C109.83,374.883 108.539,375.777 106.37,375.777C103.042,375.777 100.525,373.442 100.525,369.883C100.525,366.323 103.092,363.989 106.37,363.989C108.506,363.989 109.797,364.883 110.426,365.496L109.747,366.787C109.301,366.225 108.025,365.397 106.437,365.397C103.97,365.397 102.182,367.168 102.182,369.85C102.182,372.532 103.986,374.304 106.437,374.304C107.942,374.304 109.102,373.725 109.847,372.913L110.542,374.088Z" style="fill:rgb(237,50,36);fill-rule:nonzero;"/>
            <path d="M120.452,375.578L118.499,375.578L114.707,369.849L113.532,371.042L113.532,375.578L111.926,375.578L111.926,364.154L113.532,364.154L113.532,369.022L118.184,364.154L120.138,364.154L115.783,368.658L120.452,375.578Z" style="fill:rgb(237,50,36);fill-rule:nonzero;"/>
            <path d="M120.452,375.578L118.499,375.578L114.707,369.849L113.532,371.042L113.532,375.578L111.926,375.578L111.926,371.019L113.532,371.042L114.707,369.849L115.783,368.658L116.4,369.571L116.897,370.308L120.452,375.578Z" style="fill-rule:nonzero;"/>
        </g>
        <g transform="matrix(1,0,0,1,-62.0015,0)">
            <g transform="matrix(18,0,0,18,126.177,28.8369)">
                <path d="M0.076,-0.667L0.287,-0.667C0.332,-0.667 0.37,-0.661 0.4,-0.648C0.429,-0.635 0.453,-0.619 0.47,-0.6C0.488,-0.581 0.5,-0.559 0.507,-0.535C0.515,-0.511 0.518,-0.488 0.518,-0.465C0.518,-0.432 0.512,-0.402 0.501,-0.377C0.49,-0.352 0.474,-0.331 0.454,-0.314C0.434,-0.297 0.41,-0.284 0.383,-0.275C0.355,-0.266 0.325,-0.262 0.292,-0.262L0.171,-0.262L0.171,-0L0.076,-0L0.076,-0.667ZM0.291,-0.344C0.332,-0.344 0.364,-0.355 0.387,-0.376C0.409,-0.397 0.42,-0.426 0.42,-0.463C0.42,-0.501 0.408,-0.531 0.386,-0.553C0.363,-0.574 0.331,-0.585 0.291,-0.585L0.171,-0.585L0.171,-0.344L0.291,-0.344Z" style="fill-rule:nonzero;"/>
            </g>
            <g transform="matrix(18,0,0,18,135.549,28.8369)">
                <path d="M0.061,-0.667L0.15,-0.667L0.15,-0.396C0.156,-0.404 0.163,-0.413 0.172,-0.422C0.181,-0.431 0.191,-0.44 0.204,-0.448C0.217,-0.456 0.231,-0.463 0.248,-0.468C0.265,-0.473 0.284,-0.476 0.305,-0.476C0.366,-0.476 0.411,-0.458 0.44,-0.423C0.469,-0.388 0.484,-0.34 0.484,-0.279L0.484,-0L0.394,-0L0.394,-0.272C0.394,-0.315 0.385,-0.347 0.366,-0.368C0.347,-0.388 0.321,-0.398 0.287,-0.398C0.261,-0.398 0.239,-0.393 0.222,-0.382C0.205,-0.371 0.191,-0.358 0.181,-0.341C0.17,-0.324 0.163,-0.304 0.158,-0.282C0.153,-0.261 0.151,-0.239 0.151,-0.216L0.151,-0L0.061,-0L0.061,-0.667Z" style="fill-rule:nonzero;"/>
            </g>
            <g transform="matrix(18,0,0,18,144.868,28.8369)">
                <path d="M0.352,-0.22C0.349,-0.221 0.344,-0.222 0.337,-0.223C0.329,-0.224 0.32,-0.224 0.31,-0.225C0.3,-0.226 0.289,-0.226 0.278,-0.227C0.267,-0.228 0.256,-0.228 0.245,-0.228C0.22,-0.228 0.199,-0.225 0.184,-0.219C0.168,-0.213 0.156,-0.205 0.147,-0.197C0.138,-0.188 0.131,-0.178 0.128,-0.167C0.125,-0.156 0.123,-0.145 0.123,-0.135C0.123,-0.11 0.132,-0.091 0.149,-0.078C0.166,-0.065 0.19,-0.058 0.221,-0.058C0.238,-0.058 0.255,-0.061 0.271,-0.067C0.286,-0.073 0.3,-0.081 0.312,-0.091C0.324,-0.101 0.334,-0.113 0.341,-0.126C0.348,-0.139 0.352,-0.153 0.352,-0.167L0.352,-0.22ZM0.353,-0.056C0.336,-0.033 0.313,-0.015 0.284,-0.004C0.256,0.007 0.227,0.013 0.197,0.013C0.178,0.013 0.159,0.01 0.14,0.005C0.121,0 0.103,-0.008 0.087,-0.02C0.072,-0.031 0.059,-0.046 0.05,-0.065C0.04,-0.083 0.035,-0.105 0.035,-0.132C0.035,-0.182 0.053,-0.222 0.087,-0.252C0.123,-0.282 0.173,-0.297 0.239,-0.297C0.25,-0.297 0.261,-0.297 0.273,-0.296C0.285,-0.295 0.296,-0.295 0.307,-0.294C0.318,-0.293 0.327,-0.293 0.335,-0.292C0.343,-0.291 0.349,-0.291 0.352,-0.29L0.352,-0.307C0.352,-0.342 0.342,-0.367 0.321,-0.382C0.3,-0.397 0.271,-0.404 0.235,-0.404C0.2,-0.404 0.172,-0.399 0.151,-0.39C0.13,-0.38 0.113,-0.37 0.099,-0.36L0.057,-0.421C0.065,-0.428 0.075,-0.434 0.086,-0.441C0.097,-0.448 0.111,-0.454 0.126,-0.46C0.141,-0.465 0.159,-0.47 0.178,-0.473C0.197,-0.477 0.22,-0.479 0.245,-0.479C0.305,-0.479 0.352,-0.465 0.387,-0.436C0.421,-0.406 0.438,-0.365 0.438,-0.312L0.438,-0.042C0.438,-0.025 0.438,-0.011 0.439,-0L0.355,-0L0.353,-0.056Z" style="fill-rule:nonzero;"/>
            </g>
            <g transform="matrix(18,0,0,18,153.394,28.8369)">
                <path d="M0.092,-0.117C0.109,-0.1 0.129,-0.087 0.152,-0.077C0.175,-0.067 0.202,-0.062 0.233,-0.062C0.263,-0.062 0.288,-0.067 0.308,-0.077C0.328,-0.086 0.338,-0.101 0.338,-0.122C0.338,-0.133 0.336,-0.142 0.332,-0.15C0.327,-0.157 0.32,-0.164 0.31,-0.17C0.299,-0.176 0.285,-0.182 0.269,-0.187C0.252,-0.192 0.23,-0.197 0.205,-0.203C0.187,-0.207 0.169,-0.212 0.152,-0.219C0.134,-0.226 0.118,-0.234 0.104,-0.246C0.09,-0.257 0.079,-0.27 0.07,-0.285C0.061,-0.301 0.057,-0.32 0.057,-0.342C0.057,-0.365 0.062,-0.385 0.073,-0.402C0.083,-0.419 0.097,-0.433 0.114,-0.445C0.131,-0.456 0.151,-0.465 0.172,-0.471C0.194,-0.477 0.217,-0.48 0.24,-0.48C0.279,-0.48 0.313,-0.475 0.342,-0.465C0.37,-0.454 0.395,-0.44 0.416,-0.421L0.367,-0.359C0.353,-0.372 0.336,-0.382 0.315,-0.391C0.294,-0.4 0.269,-0.404 0.241,-0.404C0.212,-0.404 0.189,-0.399 0.172,-0.39C0.155,-0.381 0.146,-0.365 0.146,-0.344C0.146,-0.324 0.158,-0.309 0.181,-0.3C0.203,-0.29 0.234,-0.281 0.271,-0.272C0.293,-0.267 0.314,-0.261 0.333,-0.254C0.352,-0.247 0.368,-0.237 0.383,-0.227C0.397,-0.216 0.408,-0.202 0.417,-0.186C0.425,-0.17 0.429,-0.151 0.429,-0.128C0.429,-0.105 0.424,-0.084 0.413,-0.067C0.402,-0.049 0.388,-0.034 0.37,-0.022C0.352,-0.01 0.331,-0.001 0.308,0.005C0.285,0.011 0.26,0.014 0.235,0.014C0.147,0.014 0.081,-0.01 0.037,-0.057L0.092,-0.117Z" style="fill-rule:nonzero;"/>
            </g>
            <g transform="matrix(18,0,0,18,161.434,28.8369)">
                <path d="M0.286,0.014C0.25,0.014 0.217,0.007 0.187,-0.006C0.157,-0.019 0.131,-0.036 0.11,-0.059C0.088,-0.082 0.071,-0.108 0.059,-0.138C0.046,-0.167 0.04,-0.199 0.04,-0.233C0.04,-0.267 0.046,-0.299 0.059,-0.329C0.071,-0.358 0.088,-0.384 0.11,-0.407C0.131,-0.43 0.157,-0.448 0.187,-0.461C0.217,-0.473 0.25,-0.48 0.286,-0.48C0.321,-0.48 0.354,-0.473 0.384,-0.461C0.414,-0.448 0.44,-0.43 0.462,-0.407C0.484,-0.384 0.501,-0.358 0.514,-0.329C0.526,-0.299 0.532,-0.267 0.532,-0.233C0.532,-0.199 0.526,-0.167 0.514,-0.138C0.501,-0.108 0.484,-0.082 0.462,-0.059C0.44,-0.036 0.414,-0.019 0.384,-0.006C0.354,0.007 0.321,0.014 0.286,0.014ZM0.286,-0.064C0.31,-0.064 0.332,-0.069 0.351,-0.079C0.37,-0.088 0.387,-0.101 0.4,-0.117C0.413,-0.132 0.424,-0.15 0.431,-0.171C0.438,-0.191 0.441,-0.212 0.441,-0.233C0.441,-0.254 0.438,-0.274 0.431,-0.295C0.424,-0.315 0.413,-0.333 0.4,-0.349C0.386,-0.365 0.37,-0.378 0.35,-0.388C0.332,-0.397 0.31,-0.402 0.286,-0.402C0.262,-0.402 0.24,-0.397 0.221,-0.388C0.202,-0.378 0.185,-0.365 0.172,-0.349C0.159,-0.334 0.149,-0.316 0.141,-0.296C0.135,-0.275 0.131,-0.254 0.131,-0.233C0.131,-0.212 0.135,-0.191 0.141,-0.171C0.149,-0.151 0.159,-0.133 0.172,-0.117C0.186,-0.101 0.203,-0.088 0.222,-0.079C0.241,-0.069 0.262,-0.064 0.286,-0.064Z" style="fill-rule:nonzero;"/>
            </g>
            <g transform="matrix(18,0,0,18,171.274,28.8369)">
                <path d="M0.062,-0L0.062,-0.421C0.062,-0.435 0.062,-0.45 0.061,-0.465L0.147,-0.465L0.15,-0.39C0.155,-0.398 0.162,-0.407 0.171,-0.417C0.18,-0.426 0.19,-0.435 0.203,-0.443C0.215,-0.451 0.229,-0.458 0.246,-0.464C0.262,-0.469 0.281,-0.472 0.302,-0.472C0.312,-0.472 0.321,-0.471 0.33,-0.47C0.338,-0.469 0.346,-0.467 0.353,-0.464L0.333,-0.38C0.321,-0.385 0.306,-0.387 0.287,-0.387C0.268,-0.387 0.25,-0.383 0.234,-0.376C0.217,-0.369 0.203,-0.359 0.191,-0.345C0.179,-0.333 0.17,-0.317 0.163,-0.3C0.156,-0.283 0.152,-0.264 0.152,-0.245L0.152,-0L0.062,-0Z" style="fill-rule:nonzero;"/>
            </g>
            <g transform="matrix(18,0,0,18,91.1195,46.8369)">
                <path d="M0.076,-0.667L0.299,-0.667C0.352,-0.667 0.4,-0.661 0.445,-0.648C0.489,-0.634 0.527,-0.614 0.559,-0.587C0.591,-0.559 0.616,-0.524 0.634,-0.482C0.652,-0.44 0.661,-0.39 0.661,-0.332C0.661,-0.276 0.652,-0.227 0.634,-0.186C0.616,-0.144 0.591,-0.109 0.559,-0.082C0.527,-0.054 0.489,-0.033 0.444,-0.02C0.399,-0.007 0.351,-0 0.298,-0L0.076,-0L0.076,-0.667ZM0.296,-0.086C0.379,-0.086 0.444,-0.107 0.491,-0.148C0.537,-0.189 0.56,-0.249 0.56,-0.33C0.56,-0.411 0.538,-0.473 0.493,-0.517C0.448,-0.56 0.382,-0.581 0.293,-0.581L0.172,-0.581L0.172,-0.086L0.296,-0.086Z" style="fill-rule:nonzero;"/>
            </g>
            <g transform="matrix(18,0,0,18,103.533,46.8369)">
                <path d="M0.06,-0.649L0.161,-0.649L0.161,-0.548L0.06,-0.548L0.06,-0.649ZM0.066,-0.465L0.156,-0.465L0.156,-0L0.066,-0L0.066,-0.465Z" style="fill-rule:nonzero;"/>
            </g>
            <g transform="matrix(18,0,0,18,107.073,46.8369)">
                <path d="M0.006,-0.465L0.109,-0.465L0.254,-0.102L0.398,-0.465L0.495,-0.465L0.296,-0L0.206,-0L0.006,-0.465Z" style="fill-rule:nonzero;"/>
            </g>
            <g transform="matrix(18,0,0,18,115.653,46.8369)">
                <path d="M0.06,-0.649L0.161,-0.649L0.161,-0.548L0.06,-0.548L0.06,-0.649ZM0.066,-0.465L0.156,-0.465L0.156,-0L0.066,-0L0.066,-0.465Z" style="fill-rule:nonzero;"/>
            </g>
            <g transform="matrix(18,0,0,18,119.194,46.8369)">
                <path d="M0.397,-0.362C0.39,-0.367 0.378,-0.375 0.36,-0.384C0.342,-0.393 0.316,-0.397 0.283,-0.397C0.261,-0.397 0.241,-0.393 0.223,-0.385C0.204,-0.377 0.188,-0.366 0.174,-0.351C0.161,-0.336 0.15,-0.318 0.142,-0.297C0.135,-0.276 0.131,-0.252 0.131,-0.225C0.131,-0.203 0.134,-0.182 0.139,-0.163C0.144,-0.143 0.153,-0.126 0.164,-0.111C0.174,-0.096 0.189,-0.085 0.205,-0.077C0.223,-0.068 0.243,-0.064 0.266,-0.064C0.289,-0.064 0.309,-0.068 0.326,-0.077C0.343,-0.086 0.356,-0.097 0.367,-0.11C0.377,-0.123 0.385,-0.137 0.39,-0.153C0.395,-0.168 0.397,-0.183 0.397,-0.196L0.397,-0.362ZM0.397,-0.059C0.394,-0.055 0.388,-0.049 0.381,-0.041C0.373,-0.032 0.363,-0.024 0.35,-0.016C0.337,-0.008 0.323,-0.001 0.306,0.005C0.289,0.011 0.269,0.014 0.246,0.014C0.217,0.014 0.189,0.008 0.164,-0.003C0.139,-0.014 0.117,-0.03 0.098,-0.051C0.079,-0.072 0.065,-0.097 0.055,-0.127C0.044,-0.156 0.039,-0.189 0.039,-0.226C0.039,-0.27 0.047,-0.308 0.062,-0.34C0.077,-0.371 0.097,-0.397 0.121,-0.418C0.144,-0.438 0.17,-0.453 0.198,-0.462C0.225,-0.471 0.251,-0.476 0.276,-0.476C0.309,-0.476 0.335,-0.472 0.354,-0.464C0.373,-0.456 0.387,-0.45 0.397,-0.446L0.397,-0.667L0.487,-0.667L0.487,-0.048C0.487,-0.033 0.487,-0.017 0.488,-0L0.4,-0L0.397,-0.059Z" style="fill-rule:nonzero;"/>
            </g>
            <g transform="matrix(18,0,0,18,128.637,46.8369)">
                <path d="M0.486,-0.068C0.481,-0.062 0.473,-0.054 0.462,-0.045C0.451,-0.036 0.438,-0.027 0.421,-0.018C0.404,-0.009 0.384,-0.002 0.361,0.004C0.338,0.011 0.311,0.014 0.282,0.014C0.246,0.014 0.213,0.008 0.183,-0.004C0.153,-0.016 0.127,-0.033 0.106,-0.055C0.085,-0.077 0.068,-0.103 0.057,-0.134C0.045,-0.165 0.039,-0.199 0.039,-0.236C0.039,-0.27 0.045,-0.302 0.056,-0.332C0.067,-0.361 0.083,-0.387 0.104,-0.408C0.125,-0.43 0.149,-0.447 0.178,-0.46C0.206,-0.473 0.237,-0.479 0.271,-0.479C0.311,-0.479 0.345,-0.471 0.374,-0.456C0.403,-0.441 0.426,-0.42 0.445,-0.395C0.463,-0.37 0.476,-0.341 0.485,-0.308C0.494,-0.275 0.498,-0.241 0.498,-0.206L0.131,-0.206C0.132,-0.185 0.136,-0.166 0.145,-0.149C0.153,-0.132 0.164,-0.117 0.178,-0.104C0.192,-0.091 0.208,-0.081 0.226,-0.074C0.244,-0.067 0.263,-0.063 0.283,-0.063C0.322,-0.063 0.355,-0.07 0.38,-0.083C0.405,-0.096 0.424,-0.109 0.435,-0.122L0.486,-0.068ZM0.405,-0.273C0.402,-0.309 0.39,-0.34 0.367,-0.365C0.344,-0.39 0.312,-0.403 0.271,-0.403C0.25,-0.403 0.231,-0.399 0.214,-0.392C0.197,-0.385 0.182,-0.375 0.17,-0.363C0.158,-0.351 0.149,-0.337 0.142,-0.322C0.135,-0.306 0.132,-0.29 0.131,-0.273L0.405,-0.273Z" style="fill-rule:nonzero;"/>
            </g>
            <g transform="matrix(18,0,0,18,140.631,46.8369)">
                <path d="M0.441,-0.073C0.418,-0.048 0.391,-0.027 0.361,-0.01C0.33,0.007 0.292,0.016 0.247,0.016C0.213,0.016 0.183,0.011 0.157,0.001C0.13,-0.008 0.108,-0.021 0.091,-0.039C0.073,-0.056 0.059,-0.075 0.051,-0.098C0.042,-0.12 0.037,-0.144 0.037,-0.169C0.037,-0.211 0.048,-0.249 0.071,-0.283C0.094,-0.317 0.128,-0.35 0.175,-0.382L0.163,-0.397C0.147,-0.417 0.135,-0.438 0.126,-0.459C0.117,-0.48 0.113,-0.503 0.113,-0.527C0.113,-0.547 0.117,-0.567 0.125,-0.586C0.133,-0.605 0.145,-0.621 0.16,-0.636C0.174,-0.651 0.193,-0.662 0.215,-0.671C0.237,-0.68 0.262,-0.684 0.29,-0.684C0.315,-0.684 0.337,-0.681 0.356,-0.675C0.374,-0.668 0.39,-0.66 0.404,-0.65C0.417,-0.639 0.429,-0.627 0.438,-0.615C0.447,-0.602 0.454,-0.588 0.461,-0.574L0.394,-0.531C0.377,-0.561 0.36,-0.581 0.344,-0.591C0.329,-0.6 0.312,-0.605 0.295,-0.605C0.266,-0.605 0.245,-0.597 0.23,-0.582C0.215,-0.567 0.208,-0.549 0.208,-0.528C0.208,-0.51 0.213,-0.493 0.223,-0.475C0.232,-0.459 0.245,-0.441 0.261,-0.422L0.443,-0.209L0.53,-0.32L0.598,-0.266L0.499,-0.142L0.621,-0L0.505,-0L0.441,-0.073ZM0.228,-0.319C0.193,-0.295 0.169,-0.272 0.155,-0.251C0.14,-0.229 0.133,-0.203 0.133,-0.174C0.133,-0.144 0.143,-0.119 0.163,-0.099C0.183,-0.079 0.212,-0.069 0.251,-0.069C0.282,-0.069 0.308,-0.076 0.329,-0.09C0.349,-0.103 0.368,-0.12 0.385,-0.139L0.228,-0.319Z" style="fill-rule:nonzero;"/>
            </g>
            <g transform="matrix(18,0,0,18,154.461,46.8369)">
                <path d="M0.099,-0.667L0.191,-0.667L0.394,-0.32L0.597,-0.667L0.687,-0.667L0.718,-0L0.624,-0L0.602,-0.512L0.414,-0.197L0.366,-0.197L0.181,-0.508L0.158,-0L0.068,-0L0.099,-0.667Z" style="fill-rule:nonzero;"/>
            </g>
            <g transform="matrix(18,0,0,18,168.171,46.8369)">
                <path d="M0.059,-0.465L0.149,-0.465L0.149,-0.192C0.149,-0.148 0.158,-0.116 0.176,-0.097C0.194,-0.077 0.22,-0.067 0.254,-0.067C0.28,-0.067 0.302,-0.072 0.319,-0.083C0.336,-0.094 0.349,-0.108 0.36,-0.125C0.371,-0.141 0.378,-0.161 0.383,-0.183C0.387,-0.204 0.389,-0.226 0.389,-0.249L0.389,-0.465L0.479,-0.465L0.479,-0.048C0.479,-0.033 0.479,-0.017 0.48,-0L0.394,-0L0.391,-0.069C0.385,-0.061 0.378,-0.052 0.369,-0.043C0.36,-0.034 0.35,-0.025 0.337,-0.018C0.324,-0.01 0.31,-0.003 0.293,0.002C0.276,0.007 0.257,0.01 0.236,0.01C0.175,0.01 0.131,-0.008 0.102,-0.043C0.073,-0.078 0.059,-0.125 0.059,-0.186L0.059,-0.465Z" style="fill-rule:nonzero;"/>
            </g>
            <g transform="matrix(18,0,0,18,177.471,46.8369)">
                <rect x="0.062" y="-0.667" width="0.09" height="0.667" style="fill-rule:nonzero;"/>
            </g>
            <g transform="matrix(18,0,0,18,180.868,46.8369)">
                <path d="M0.102,-0.39L0.018,-0.39L0.018,-0.465L0.102,-0.465L0.102,-0.617L0.192,-0.617L0.192,-0.465L0.328,-0.465L0.328,-0.39L0.192,-0.39L0.192,-0.161C0.192,-0.124 0.198,-0.098 0.21,-0.084C0.221,-0.07 0.238,-0.063 0.259,-0.063C0.276,-0.063 0.291,-0.066 0.302,-0.071C0.313,-0.076 0.325,-0.084 0.336,-0.095L0.377,-0.04C0.358,-0.021 0.338,-0.008 0.318,0C0.297,0.009 0.273,0.013 0.245,0.013C0.196,0.013 0.16,-0 0.137,-0.027C0.114,-0.054 0.102,-0.095 0.102,-0.152L0.102,-0.39Z" style="fill-rule:nonzero;"/>
            </g>
            <g transform="matrix(18,0,0,18,187.323,46.8369)">
                <path d="M0.06,-0.649L0.161,-0.649L0.161,-0.548L0.06,-0.548L0.06,-0.649ZM0.066,-0.465L0.156,-0.465L0.156,-0L0.066,-0L0.066,-0.465Z" style="fill-rule:nonzero;"/>
            </g>
            <g transform="matrix(18,0,0,18,190.863,46.8369)">
                <path d="M0.062,0.2L0.062,-0.418C0.062,-0.433 0.062,-0.448 0.061,-0.465L0.147,-0.465L0.15,-0.399C0.155,-0.405 0.161,-0.412 0.17,-0.421C0.179,-0.43 0.19,-0.438 0.203,-0.446C0.216,-0.454 0.231,-0.461 0.248,-0.467C0.265,-0.472 0.285,-0.475 0.308,-0.475C0.344,-0.475 0.375,-0.468 0.402,-0.455C0.428,-0.442 0.45,-0.424 0.467,-0.401C0.484,-0.378 0.497,-0.352 0.505,-0.323C0.514,-0.294 0.518,-0.263 0.518,-0.23C0.518,-0.188 0.511,-0.152 0.497,-0.121C0.482,-0.09 0.464,-0.065 0.441,-0.045C0.418,-0.025 0.392,-0.01 0.364,-0.001C0.335,0.009 0.307,0.014 0.28,0.014C0.249,0.014 0.224,0.011 0.204,0.004C0.186,-0.002 0.168,-0.009 0.151,-0.016L0.151,0.2L0.062,0.2ZM0.151,-0.101C0.162,-0.092 0.177,-0.084 0.197,-0.076C0.217,-0.068 0.242,-0.064 0.272,-0.064C0.295,-0.064 0.316,-0.068 0.335,-0.077C0.354,-0.085 0.37,-0.097 0.384,-0.112C0.397,-0.127 0.408,-0.144 0.415,-0.164C0.422,-0.184 0.426,-0.206 0.426,-0.23C0.426,-0.253 0.424,-0.274 0.419,-0.294C0.413,-0.314 0.406,-0.332 0.395,-0.347C0.384,-0.362 0.369,-0.375 0.352,-0.384C0.335,-0.393 0.313,-0.397 0.288,-0.397C0.256,-0.397 0.229,-0.388 0.206,-0.371C0.183,-0.353 0.167,-0.327 0.158,-0.293C0.155,-0.282 0.153,-0.271 0.152,-0.259C0.151,-0.246 0.151,-0.233 0.151,-0.22L0.151,-0.101Z" style="fill-rule:nonzero;"/>
            </g>
            <g transform="matrix(18,0,0,18,200.451,46.8369)">
                <rect x="0.062" y="-0.667" width="0.09" height="0.667" style="fill-rule:nonzero;"/>
            </g>
            <g transform="matrix(18,0,0,18,203.847,46.8369)">
                <path d="M0.064,0.114C0.071,0.12 0.078,0.125 0.087,0.13C0.096,0.135 0.106,0.137 0.119,0.137C0.13,0.137 0.139,0.135 0.147,0.13C0.154,0.125 0.161,0.118 0.168,0.108C0.174,0.099 0.18,0.087 0.186,0.073C0.191,0.06 0.198,0.044 0.205,0.026L0.217,-0.004L0.009,-0.465L0.112,-0.465L0.262,-0.114L0.394,-0.465L0.492,-0.465L0.306,-0.012C0.297,0.009 0.289,0.033 0.28,0.058C0.271,0.084 0.259,0.108 0.246,0.131C0.233,0.154 0.216,0.174 0.197,0.189C0.178,0.204 0.153,0.212 0.124,0.212C0.101,0.212 0.081,0.209 0.065,0.202C0.049,0.196 0.035,0.188 0.023,0.177L0.064,0.114Z" style="fill-rule:nonzero;"/>
            </g>
        </g>
        <g id="XY-Controls" serif:id="XY Controls">
            <g id="X">
                <path d="M18,70.441L20.676,70.441C21.308,70.441 21.89,70.519 22.422,70.675C22.954,70.831 23.412,71.075 23.796,71.407C24.18,71.739 24.48,72.157 24.696,72.661C24.912,73.165 25.02,73.765 25.02,74.461C25.02,75.133 24.912,75.719 24.696,76.219C24.48,76.719 24.18,77.135 23.796,77.467C23.412,77.799 22.952,78.045 22.416,78.205C21.88,78.365 21.296,78.445 20.664,78.445L18,78.445L18,70.441ZM20.64,77.413C21.64,77.413 22.418,77.167 22.974,76.675C23.53,76.183 23.808,75.453 23.808,74.485C23.808,73.509 23.54,72.763 23.004,72.247C22.468,71.731 21.668,71.473 20.604,71.473L19.152,71.473L19.152,77.413L20.64,77.413Z" style="fill-rule:nonzero;"/>
                <path d="M26.304,70.657L27.516,70.657L27.516,71.869L26.304,71.869L26.304,70.657ZM26.376,72.865L27.456,72.865L27.456,78.445L26.376,78.445L26.376,72.865Z" style="fill-rule:nonzero;"/>
                <path d="M28.236,72.865L29.472,72.865L31.212,77.221L32.94,72.865L34.104,72.865L31.716,78.445L30.636,78.445L28.236,72.865Z" style="fill-rule:nonzero;"/>
                <path d="M34.824,70.657L36.036,70.657L36.036,71.869L34.824,71.869L34.824,70.657ZM34.896,72.865L35.976,72.865L35.976,78.445L34.896,78.445L34.896,72.865Z" style="fill-rule:nonzero;"/>
                <path d="M41.448,74.101C41.368,74.037 41.22,73.951 41.004,73.843C40.788,73.735 40.48,73.681 40.08,73.681C39.816,73.681 39.574,73.729 39.354,73.825C39.134,73.921 38.942,74.057 38.778,74.233C38.614,74.409 38.486,74.625 38.394,74.881C38.302,75.137 38.256,75.425 38.256,75.745C38.256,76.009 38.288,76.259 38.352,76.495C38.416,76.731 38.514,76.937 38.646,77.113C38.778,77.289 38.946,77.427 39.15,77.527C39.354,77.627 39.596,77.677 39.876,77.677C40.156,77.677 40.396,77.625 40.596,77.521C40.796,77.417 40.958,77.287 41.082,77.131C41.206,76.975 41.298,76.803 41.358,76.615C41.418,76.427 41.448,76.253 41.448,76.093L41.448,74.101ZM41.448,77.737C41.408,77.785 41.342,77.859 41.25,77.959C41.158,78.059 41.036,78.157 40.884,78.253C40.732,78.349 40.554,78.433 40.35,78.505C40.146,78.577 39.908,78.613 39.636,78.613C39.284,78.613 38.956,78.545 38.652,78.409C38.348,78.273 38.084,78.081 37.86,77.833C37.636,77.585 37.462,77.283 37.338,76.927C37.214,76.571 37.152,76.173 37.152,75.733C37.152,75.205 37.244,74.751 37.428,74.371C37.612,73.991 37.846,73.679 38.13,73.435C38.414,73.191 38.722,73.013 39.054,72.901C39.386,72.789 39.7,72.733 39.996,72.733C40.396,72.733 40.708,72.781 40.932,72.877C41.156,72.973 41.328,73.045 41.448,73.093L41.448,70.441L42.528,70.441L42.528,77.875C42.528,78.055 42.532,78.245 42.54,78.445L41.484,78.445L41.448,77.737Z" style="fill-rule:nonzero;"/>
                <path d="M49.032,77.629C48.968,77.701 48.872,77.793 48.744,77.905C48.616,78.017 48.45,78.125 48.246,78.229C48.042,78.333 47.802,78.423 47.526,78.499C47.25,78.575 46.936,78.613 46.584,78.613C46.152,78.613 45.756,78.541 45.396,78.397C45.036,78.253 44.728,78.049 44.472,77.785C44.216,77.521 44.018,77.205 43.878,76.837C43.738,76.469 43.668,76.061 43.668,75.613C43.668,75.205 43.736,74.823 43.872,74.467C44.008,74.111 44.2,73.803 44.448,73.543C44.696,73.283 44.99,73.077 45.33,72.925C45.67,72.773 46.044,72.697 46.452,72.697C46.932,72.697 47.344,72.789 47.688,72.973C48.032,73.157 48.314,73.401 48.534,73.705C48.754,74.009 48.916,74.357 49.02,74.749C49.124,75.141 49.176,75.549 49.176,75.973L44.772,75.973C44.78,76.221 44.834,76.449 44.934,76.657C45.034,76.865 45.168,77.045 45.336,77.197C45.504,77.349 45.696,77.469 45.912,77.557C46.128,77.645 46.356,77.689 46.596,77.689C47.068,77.689 47.456,77.609 47.76,77.449C48.064,77.289 48.284,77.133 48.42,76.981L49.032,77.629ZM48.06,75.169C48.028,74.737 47.876,74.369 47.604,74.065C47.332,73.761 46.948,73.609 46.452,73.609C46.196,73.609 45.966,73.653 45.762,73.741C45.558,73.829 45.384,73.945 45.24,74.089C45.096,74.233 44.984,74.399 44.904,74.587C44.824,74.775 44.78,74.969 44.772,75.169L48.06,75.169Z" style="fill-rule:nonzero;"/>
                <path d="M33.36,97.2L33.36,208.877" style="fill:none;stroke:black;stroke-width:1px;stroke-dasharray:2,2,0,0;"/>
                <rect x="19.9" y="160.031" width="2.216" height="0.943" style="fill-rule:nonzero;"/>
                <path d="M46.708,161.358L46.708,160.255L45.292,160.255L45.292,158.839L44.189,158.839L44.189,160.255L42.773,160.255L42.773,161.358L44.189,161.358L44.189,162.774L45.292,162.774L45.292,161.358L46.708,161.358Z" style="fill-rule:nonzero;"/>
            </g>
            <g id="Y">
                <path d="M69.304,70.441L70.408,70.441L72.844,74.605L75.28,70.441L76.36,70.441L76.732,78.445L75.604,78.445L75.34,72.301L73.084,76.081L72.508,76.081L70.288,72.349L70.012,78.445L68.932,78.445L69.304,70.441Z" style="fill-rule:nonzero;"/>
                <path d="M78.184,72.865L79.264,72.865L79.264,76.141C79.264,76.669 79.372,77.051 79.588,77.287C79.804,77.523 80.116,77.641 80.524,77.641C80.836,77.641 81.094,77.577 81.298,77.449C81.502,77.321 81.668,77.155 81.796,76.951C81.924,76.747 82.014,76.515 82.066,76.255C82.118,75.995 82.144,75.729 82.144,75.457L82.144,72.865L83.224,72.865L83.224,77.875C83.224,78.055 83.228,78.245 83.236,78.445L82.204,78.445L82.168,77.617C82.096,77.713 82.008,77.817 81.904,77.929C81.8,78.041 81.672,78.143 81.52,78.235C81.368,78.327 81.192,78.405 80.992,78.469C80.792,78.533 80.564,78.565 80.308,78.565C79.58,78.565 79.044,78.355 78.7,77.935C78.356,77.515 78.184,76.941 78.184,76.213L78.184,72.865Z" style="fill-rule:nonzero;"/>
                <rect x="84.64" y="70.441" width="1.08" height="8.004" style="fill-rule:nonzero;"/>
                <path d="M87.604,73.765L86.596,73.765L86.596,72.865L87.604,72.865L87.604,71.041L88.684,71.041L88.684,72.865L90.316,72.865L90.316,73.765L88.684,73.765L88.684,76.513C88.684,76.961 88.754,77.269 88.894,77.437C89.034,77.605 89.232,77.689 89.488,77.689C89.696,77.689 89.868,77.657 90.004,77.593C90.14,77.529 90.276,77.433 90.412,77.305L90.904,77.965C90.672,78.189 90.434,78.351 90.19,78.451C89.946,78.551 89.656,78.601 89.32,78.601C88.728,78.601 88.294,78.441 88.018,78.121C87.742,77.801 87.604,77.301 87.604,76.621L87.604,73.765Z" style="fill-rule:nonzero;"/>
                <path d="M91.624,70.657L92.836,70.657L92.836,71.869L91.624,71.869L91.624,70.657ZM91.696,72.865L92.776,72.865L92.776,78.445L91.696,78.445L91.696,72.865Z" style="fill-rule:nonzero;"/>
                <path d="M94.228,80.845L94.228,73.435C94.228,73.255 94.224,73.065 94.216,72.865L95.248,72.865L95.284,73.657C95.34,73.585 95.42,73.497 95.524,73.393C95.628,73.289 95.758,73.189 95.914,73.093C96.07,72.997 96.252,72.915 96.46,72.847C96.668,72.779 96.908,72.745 97.18,72.745C97.612,72.745 97.986,72.825 98.302,72.985C98.618,73.145 98.88,73.361 99.088,73.633C99.296,73.905 99.45,74.217 99.55,74.569C99.65,74.921 99.7,75.293 99.7,75.685C99.7,76.189 99.614,76.625 99.442,76.993C99.27,77.361 99.046,77.665 98.77,77.905C98.494,78.145 98.186,78.323 97.846,78.439C97.506,78.555 97.172,78.613 96.844,78.613C96.468,78.613 96.166,78.575 95.938,78.499C95.71,78.423 95.496,78.341 95.296,78.253L95.296,80.845L94.228,80.845ZM95.296,77.233C95.424,77.337 95.608,77.437 95.848,77.533C96.088,77.629 96.388,77.677 96.748,77.677C97.02,77.677 97.27,77.627 97.498,77.527C97.726,77.427 97.922,77.287 98.086,77.107C98.25,76.927 98.376,76.717 98.464,76.477C98.552,76.237 98.596,75.973 98.596,75.685C98.596,75.413 98.566,75.157 98.506,74.917C98.446,74.677 98.35,74.465 98.218,74.281C98.086,74.097 97.916,73.951 97.708,73.843C97.5,73.735 97.244,73.681 96.94,73.681C96.556,73.681 96.228,73.787 95.956,73.999C95.684,74.211 95.492,74.521 95.38,74.929C95.34,75.057 95.316,75.195 95.308,75.343C95.3,75.491 95.296,75.645 95.296,75.805L95.296,77.233Z" style="fill-rule:nonzero;"/>
                <rect x="100.84" y="70.441" width="1.08" height="8.004" style="fill-rule:nonzero;"/>
                <path d="M103.348,79.813C103.428,79.885 103.52,79.949 103.624,80.005C103.728,80.061 103.856,80.089 104.008,80.089C104.136,80.089 104.246,80.061 104.338,80.005C104.43,79.949 104.514,79.863 104.59,79.747C104.666,79.631 104.738,79.491 104.806,79.327C104.874,79.163 104.952,78.973 105.04,78.757L105.184,78.397L102.688,72.865L103.924,72.865L105.724,77.077L107.308,72.865L108.484,72.865L106.252,78.301C106.148,78.557 106.042,78.839 105.934,79.147C105.826,79.455 105.692,79.747 105.532,80.023C105.372,80.299 105.176,80.529 104.944,80.713C104.712,80.897 104.42,80.989 104.068,80.989C103.788,80.989 103.552,80.951 103.36,80.875C103.168,80.799 103,80.697 102.856,80.569L103.348,79.813Z" style="fill-rule:nonzero;"/>
                <path d="M88.36,97.2L88.36,208.877" style="fill:none;stroke:black;stroke-width:1px;stroke-dasharray:2,2,0,0;"/>
                <rect x="74.9" y="160.031" width="2.216" height="0.943" style="fill-rule:nonzero;"/>
                <path d="M101.708,161.358L101.708,160.255L100.292,160.255L100.292,158.839L99.189,158.839L99.189,160.255L97.773,160.255L97.773,161.358L99.189,161.358L99.189,162.774L100.292,162.774L100.292,161.358L101.708,161.358Z" style="fill-rule:nonzero;"/>
            </g>
        </g>
        <g>
            <path d="M141.419,321.541C141.419,316.524 137.346,312.451 132.329,312.451L47.671,312.451C42.654,312.451 38.581,316.524 38.581,321.541L38.581,348.695C38.581,353.711 42.654,357.784 47.671,357.784L132.329,357.784C137.346,357.784 141.419,353.711 141.419,348.695L141.419,321.541Z"/>
            <path d="M104.661,350.716L107.469,350.716L107.469,353.908C107.317,354.044 107.143,354.176 106.947,354.304C106.751,354.432 106.523,354.546 106.263,354.646C106.003,354.746 105.713,354.826 105.393,354.886C105.073,354.946 104.713,354.976 104.313,354.976C103.689,354.976 103.127,354.87 102.627,354.658C102.127,354.446 101.699,354.154 101.343,353.782C100.987,353.41 100.715,352.97 100.527,352.462C100.339,351.954 100.245,351.4 100.245,350.8C100.245,350.216 100.343,349.668 100.539,349.156C100.735,348.644 101.009,348.198 101.361,347.818C101.713,347.438 102.135,347.138 102.627,346.918C103.119,346.698 103.665,346.588 104.265,346.588C104.689,346.588 105.069,346.638 105.405,346.738C105.741,346.838 106.035,346.966 106.287,347.122C106.539,347.278 106.753,347.448 106.929,347.632C107.105,347.816 107.253,347.992 107.373,348.16L106.557,348.856C106.461,348.72 106.345,348.578 106.209,348.43C106.073,348.282 105.913,348.148 105.729,348.028C105.545,347.908 105.335,347.808 105.099,347.728C104.863,347.648 104.593,347.608 104.289,347.608C103.849,347.608 103.453,347.692 103.101,347.86C102.749,348.028 102.451,348.256 102.207,348.544C101.963,348.832 101.775,349.17 101.643,349.558C101.511,349.946 101.445,350.356 101.445,350.788C101.445,351.252 101.517,351.676 101.661,352.06C101.805,352.444 102.007,352.774 102.267,353.05C102.527,353.326 102.833,353.542 103.185,353.698C103.537,353.854 103.925,353.932 104.349,353.932C104.813,353.932 105.207,353.88 105.531,353.776C105.855,353.672 106.133,353.528 106.365,353.344L106.365,351.712L104.661,351.712L104.661,350.716Z" style="fill:white;fill-rule:nonzero;"/>
            <path d="M112.539,352.144C112.507,352.136 112.445,352.126 112.353,352.114C112.261,352.102 112.155,352.092 112.035,352.084C111.915,352.076 111.787,352.068 111.651,352.06C111.515,352.052 111.383,352.048 111.255,352.048C110.951,352.048 110.705,352.084 110.517,352.156C110.329,352.228 110.181,352.318 110.073,352.426C109.965,352.534 109.891,352.654 109.851,352.786C109.811,352.918 109.791,353.044 109.791,353.164C109.791,353.468 109.895,353.698 110.103,353.854C110.311,354.01 110.599,354.088 110.967,354.088C111.175,354.088 111.373,354.052 111.561,353.98C111.749,353.908 111.915,353.812 112.059,353.692C112.203,353.572 112.319,353.432 112.407,353.272C112.495,353.112 112.539,352.948 112.539,352.78L112.539,352.144ZM112.551,354.112C112.343,354.392 112.069,354.6 111.729,354.736C111.389,354.872 111.039,354.94 110.679,354.94C110.447,354.94 110.217,354.91 109.989,354.85C109.761,354.79 109.553,354.69 109.365,354.55C109.177,354.41 109.025,354.23 108.909,354.01C108.793,353.79 108.735,353.52 108.735,353.2C108.735,352.6 108.945,352.12 109.365,351.76C109.785,351.4 110.391,351.22 111.183,351.22C111.311,351.22 111.447,351.224 111.591,351.232C111.735,351.24 111.871,351.248 111.999,351.256C112.127,351.264 112.239,351.272 112.335,351.28C112.431,351.288 112.499,351.296 112.539,351.304L112.539,351.1C112.539,350.684 112.413,350.386 112.161,350.206C111.909,350.026 111.567,349.936 111.135,349.936C110.711,349.936 110.375,349.994 110.127,350.11C109.879,350.226 109.671,350.344 109.503,350.464L108.999,349.732C109.095,349.652 109.211,349.572 109.347,349.492C109.483,349.412 109.643,349.338 109.827,349.27C110.011,349.202 110.219,349.146 110.451,349.102C110.683,349.058 110.951,349.036 111.255,349.036C111.975,349.036 112.541,349.21 112.953,349.558C113.365,349.906 113.571,350.4 113.571,351.04L113.571,354.286C113.571,354.482 113.575,354.648 113.583,354.784L112.575,354.784L112.551,354.112Z" style="fill:white;fill-rule:nonzero;"/>
            <path d="M115.533,350.104L114.525,350.104L114.525,349.204L115.533,349.204L115.533,347.38L116.613,347.38L116.613,349.204L118.245,349.204L118.245,350.104L116.613,350.104L116.613,352.852C116.613,353.3 116.683,353.608 116.823,353.776C116.963,353.944 117.161,354.028 117.417,354.028C117.625,354.028 117.797,353.996 117.933,353.932C118.069,353.868 118.205,353.772 118.341,353.644L118.833,354.304C118.601,354.528 118.363,354.69 118.119,354.79C117.875,354.89 117.585,354.94 117.249,354.94C116.657,354.94 116.223,354.78 115.947,354.46C115.671,354.14 115.533,353.64 115.533,352.96L115.533,350.104Z" style="fill:white;fill-rule:nonzero;"/>
            <path d="M124.755,353.968C124.691,354.04 124.595,354.132 124.467,354.244C124.339,354.356 124.173,354.464 123.969,354.568C123.765,354.672 123.525,354.762 123.249,354.838C122.973,354.914 122.659,354.952 122.307,354.952C121.875,354.952 121.479,354.88 121.119,354.736C120.759,354.592 120.451,354.388 120.195,354.124C119.939,353.86 119.741,353.544 119.601,353.176C119.461,352.808 119.391,352.4 119.391,351.952C119.391,351.544 119.459,351.162 119.595,350.806C119.731,350.45 119.923,350.142 120.171,349.882C120.419,349.622 120.713,349.416 121.053,349.264C121.393,349.112 121.767,349.036 122.175,349.036C122.655,349.036 123.067,349.128 123.411,349.312C123.755,349.496 124.037,349.74 124.257,350.044C124.477,350.348 124.639,350.696 124.743,351.088C124.847,351.48 124.899,351.888 124.899,352.312L120.495,352.312C120.503,352.56 120.557,352.788 120.657,352.996C120.757,353.204 120.891,353.384 121.059,353.536C121.227,353.688 121.419,353.808 121.635,353.896C121.851,353.984 122.079,354.028 122.319,354.028C122.791,354.028 123.179,353.948 123.483,353.788C123.787,353.628 124.007,353.472 124.143,353.32L124.755,353.968ZM123.783,351.508C123.751,351.076 123.599,350.708 123.327,350.404C123.055,350.1 122.671,349.948 122.175,349.948C121.919,349.948 121.689,349.992 121.485,350.08C121.281,350.168 121.107,350.284 120.963,350.428C120.819,350.572 120.707,350.738 120.627,350.926C120.547,351.114 120.503,351.308 120.495,351.508L123.783,351.508Z" style="fill:white;fill-rule:nonzero;"/>
            <path d="M126.465,353.38C126.665,353.58 126.905,353.74 127.185,353.86C127.465,353.98 127.789,354.04 128.157,354.04C128.517,354.04 128.817,353.982 129.057,353.866C129.297,353.75 129.417,353.568 129.417,353.32C129.417,353.192 129.391,353.082 129.339,352.99C129.287,352.898 129.199,352.816 129.075,352.744C128.951,352.672 128.787,352.606 128.583,352.546C128.379,352.486 128.125,352.42 127.821,352.348C127.605,352.3 127.391,352.236 127.179,352.156C126.967,352.076 126.777,351.97 126.609,351.838C126.441,351.706 126.305,351.546 126.201,351.358C126.097,351.17 126.045,350.944 126.045,350.68C126.045,350.408 126.107,350.17 126.231,349.966C126.355,349.762 126.521,349.59 126.729,349.45C126.937,349.31 127.171,349.204 127.431,349.132C127.691,349.06 127.961,349.024 128.241,349.024C128.713,349.024 129.119,349.086 129.459,349.21C129.799,349.334 130.097,349.508 130.353,349.732L129.765,350.476C129.597,350.324 129.387,350.196 129.135,350.092C128.883,349.988 128.589,349.936 128.253,349.936C127.909,349.936 127.633,349.992 127.425,350.104C127.217,350.216 127.113,350.4 127.113,350.656C127.113,350.896 127.251,351.074 127.527,351.19C127.803,351.306 128.165,351.416 128.613,351.52C128.877,351.584 129.123,351.658 129.351,351.742C129.579,351.826 129.779,351.934 129.951,352.066C130.123,352.198 130.259,352.36 130.359,352.552C130.459,352.744 130.509,352.976 130.509,353.248C130.509,353.528 130.445,353.774 130.317,353.986C130.189,354.198 130.017,354.376 129.801,354.52C129.585,354.664 129.337,354.772 129.057,354.844C128.777,354.916 128.485,354.952 128.181,354.952C127.125,354.952 126.333,354.668 125.805,354.1L126.465,353.38Z" style="fill:white;fill-rule:nonzero;"/>
            <path d="M47.089,346.78L49.621,346.78C50.165,346.78 50.615,346.856 50.971,347.008C51.327,347.16 51.611,347.352 51.823,347.584C52.035,347.816 52.183,348.076 52.267,348.364C52.351,348.652 52.393,348.932 52.393,349.204C52.393,349.604 52.325,349.956 52.189,350.26C52.053,350.564 51.865,350.818 51.625,351.022C51.385,351.226 51.099,351.38 50.767,351.484C50.435,351.588 50.073,351.64 49.681,351.64L48.229,351.64L48.229,354.784L47.089,354.784L47.089,346.78ZM49.669,350.656C50.165,350.656 50.547,350.53 50.815,350.278C51.083,350.026 51.217,349.676 51.217,349.228C51.217,348.772 51.079,348.414 50.803,348.154C50.527,347.894 50.149,347.764 49.669,347.764L48.229,347.764L48.229,350.656L49.669,350.656Z" style="fill:white;fill-rule:nonzero;"/>
            <path d="M53.467,346.78L54.535,346.78L54.535,350.032C54.607,349.936 54.695,349.832 54.799,349.72C54.903,349.608 55.031,349.504 55.183,349.408C55.335,349.312 55.511,349.232 55.711,349.168C55.911,349.104 56.139,349.072 56.395,349.072C57.123,349.072 57.663,349.284 58.015,349.708C58.367,350.132 58.543,350.708 58.543,351.436L58.543,354.784L57.463,354.784L57.463,351.52C57.463,351 57.351,350.618 57.127,350.374C56.903,350.13 56.587,350.008 56.179,350.008C55.867,350.008 55.607,350.072 55.399,350.2C55.191,350.328 55.025,350.494 54.901,350.698C54.777,350.902 54.687,351.134 54.631,351.394C54.575,351.654 54.547,351.92 54.547,352.192L54.547,354.784L53.467,354.784L53.467,346.78Z" style="fill:white;fill-rule:nonzero;"/>
            <path d="M63.481,352.144C63.449,352.136 63.387,352.126 63.295,352.114C63.203,352.102 63.097,352.092 62.977,352.084C62.857,352.076 62.729,352.068 62.593,352.06C62.457,352.052 62.325,352.048 62.197,352.048C61.893,352.048 61.647,352.084 61.459,352.156C61.271,352.228 61.123,352.318 61.015,352.426C60.907,352.534 60.833,352.654 60.793,352.786C60.753,352.918 60.733,353.044 60.733,353.164C60.733,353.468 60.837,353.698 61.045,353.854C61.253,354.01 61.541,354.088 61.909,354.088C62.117,354.088 62.315,354.052 62.503,353.98C62.691,353.908 62.857,353.812 63.001,353.692C63.145,353.572 63.261,353.432 63.349,353.272C63.437,353.112 63.481,352.948 63.481,352.78L63.481,352.144ZM63.493,354.112C63.285,354.392 63.011,354.6 62.671,354.736C62.331,354.872 61.981,354.94 61.621,354.94C61.389,354.94 61.159,354.91 60.931,354.85C60.703,354.79 60.495,354.69 60.307,354.55C60.119,354.41 59.967,354.23 59.851,354.01C59.735,353.79 59.677,353.52 59.677,353.2C59.677,352.6 59.887,352.12 60.307,351.76C60.727,351.4 61.333,351.22 62.125,351.22C62.253,351.22 62.389,351.224 62.533,351.232C62.677,351.24 62.813,351.248 62.941,351.256C63.069,351.264 63.181,351.272 63.277,351.28C63.373,351.288 63.441,351.296 63.481,351.304L63.481,351.1C63.481,350.684 63.355,350.386 63.103,350.206C62.851,350.026 62.509,349.936 62.077,349.936C61.653,349.936 61.317,349.994 61.069,350.11C60.821,350.226 60.613,350.344 60.445,350.464L59.941,349.732C60.037,349.652 60.153,349.572 60.289,349.492C60.425,349.412 60.585,349.338 60.769,349.27C60.953,349.202 61.161,349.146 61.393,349.102C61.625,349.058 61.893,349.036 62.197,349.036C62.917,349.036 63.483,349.21 63.895,349.558C64.307,349.906 64.513,350.4 64.513,351.04L64.513,354.286C64.513,354.482 64.517,354.648 64.525,354.784L63.517,354.784L63.493,354.112Z" style="fill:white;fill-rule:nonzero;"/>
            <path d="M66.355,353.38C66.555,353.58 66.795,353.74 67.075,353.86C67.355,353.98 67.679,354.04 68.047,354.04C68.407,354.04 68.707,353.982 68.947,353.866C69.187,353.75 69.307,353.568 69.307,353.32C69.307,353.192 69.281,353.082 69.229,352.99C69.177,352.898 69.089,352.816 68.965,352.744C68.841,352.672 68.677,352.606 68.473,352.546C68.269,352.486 68.015,352.42 67.711,352.348C67.495,352.3 67.281,352.236 67.069,352.156C66.857,352.076 66.667,351.97 66.499,351.838C66.331,351.706 66.195,351.546 66.091,351.358C65.987,351.17 65.935,350.944 65.935,350.68C65.935,350.408 65.997,350.17 66.121,349.966C66.245,349.762 66.411,349.59 66.619,349.45C66.827,349.31 67.061,349.204 67.321,349.132C67.581,349.06 67.851,349.024 68.131,349.024C68.603,349.024 69.009,349.086 69.349,349.21C69.689,349.334 69.987,349.508 70.243,349.732L69.655,350.476C69.487,350.324 69.277,350.196 69.025,350.092C68.773,349.988 68.479,349.936 68.143,349.936C67.799,349.936 67.523,349.992 67.315,350.104C67.107,350.216 67.003,350.4 67.003,350.656C67.003,350.896 67.141,351.074 67.417,351.19C67.693,351.306 68.055,351.416 68.503,351.52C68.767,351.584 69.013,351.658 69.241,351.742C69.469,351.826 69.669,351.934 69.841,352.066C70.013,352.198 70.149,352.36 70.249,352.552C70.349,352.744 70.399,352.976 70.399,353.248C70.399,353.528 70.335,353.774 70.207,353.986C70.079,354.198 69.907,354.376 69.691,354.52C69.475,354.664 69.227,354.772 68.947,354.844C68.667,354.916 68.375,354.952 68.071,354.952C67.015,354.952 66.223,354.668 65.695,354.1L66.355,353.38Z" style="fill:white;fill-rule:nonzero;"/>
            <path d="M74.353,354.952C73.921,354.952 73.525,354.874 73.165,354.718C72.805,354.562 72.495,354.348 72.235,354.076C71.975,353.804 71.771,353.49 71.623,353.134C71.475,352.778 71.401,352.396 71.401,351.988C71.401,351.58 71.475,351.198 71.623,350.842C71.771,350.486 71.975,350.172 72.235,349.9C72.495,349.628 72.805,349.414 73.165,349.258C73.525,349.102 73.921,349.024 74.353,349.024C74.777,349.024 75.169,349.102 75.529,349.258C75.889,349.414 76.201,349.628 76.465,349.9C76.729,350.172 76.935,350.486 77.083,350.842C77.231,351.198 77.305,351.58 77.305,351.988C77.305,352.396 77.231,352.778 77.083,353.134C76.935,353.49 76.729,353.804 76.465,354.076C76.201,354.348 75.889,354.562 75.529,354.718C75.169,354.874 74.777,354.952 74.353,354.952ZM74.353,354.016C74.641,354.016 74.901,353.958 75.133,353.842C75.365,353.726 75.561,353.574 75.721,353.386C75.881,353.198 76.003,352.982 76.087,352.738C76.171,352.494 76.213,352.244 76.213,351.988C76.213,351.74 76.171,351.494 76.087,351.25C76.003,351.006 75.879,350.788 75.715,350.596C75.551,350.404 75.355,350.25 75.127,350.134C74.899,350.018 74.641,349.96 74.353,349.96C74.065,349.96 73.805,350.018 73.573,350.134C73.341,350.25 73.145,350.402 72.985,350.59C72.825,350.778 72.703,350.994 72.619,351.238C72.535,351.482 72.493,351.732 72.493,351.988C72.493,352.244 72.535,352.492 72.619,352.732C72.703,352.972 72.827,353.188 72.991,353.38C73.155,353.572 73.351,353.726 73.579,353.842C73.807,353.958 74.065,354.016 74.353,354.016Z" style="fill:white;fill-rule:nonzero;"/>
            <path d="M78.535,354.784L78.535,349.738C78.535,349.566 78.531,349.388 78.523,349.204L79.555,349.204L79.591,350.104C79.655,350.008 79.739,349.902 79.843,349.786C79.947,349.67 80.073,349.564 80.221,349.468C80.369,349.372 80.541,349.29 80.737,349.222C80.933,349.154 81.159,349.12 81.415,349.12C81.535,349.12 81.645,349.128 81.745,349.144C81.845,349.16 81.939,349.184 82.027,349.216L81.787,350.224C81.643,350.168 81.459,350.14 81.235,350.14C81.003,350.14 80.789,350.184 80.593,350.272C80.397,350.36 80.227,350.482 80.083,350.638C79.939,350.794 79.825,350.976 79.741,351.184C79.657,351.392 79.615,351.612 79.615,351.844L79.615,354.784L78.535,354.784Z" style="fill:white;fill-rule:nonzero;"/>
        </g>
        <g transform="matrix(1,0,0,1,-27.1674,23.3359)">
            <g transform="matrix(12,0,0,12,43.8687,270.661)">
                <path d="M0.076,-0.667L0.287,-0.667C0.332,-0.667 0.37,-0.661 0.4,-0.648C0.429,-0.635 0.453,-0.619 0.47,-0.6C0.488,-0.581 0.5,-0.559 0.507,-0.535C0.515,-0.511 0.518,-0.488 0.518,-0.465C0.518,-0.432 0.512,-0.402 0.501,-0.377C0.49,-0.352 0.474,-0.331 0.454,-0.314C0.434,-0.297 0.41,-0.284 0.383,-0.275C0.355,-0.266 0.325,-0.262 0.292,-0.262L0.171,-0.262L0.171,-0L0.076,-0L0.076,-0.667ZM0.291,-0.344C0.332,-0.344 0.364,-0.355 0.387,-0.376C0.409,-0.397 0.42,-0.426 0.42,-0.463C0.42,-0.501 0.408,-0.531 0.386,-0.553C0.363,-0.574 0.331,-0.585 0.291,-0.585L0.171,-0.585L0.171,-0.344L0.291,-0.344Z" style="fill-rule:nonzero;"/>
            </g>
            <g transform="matrix(12,0,0,12,50.4327,270.661)">
                <path d="M0.061,-0.667L0.15,-0.667L0.15,-0.396C0.156,-0.404 0.163,-0.413 0.172,-0.422C0.181,-0.431 0.191,-0.44 0.204,-0.448C0.217,-0.456 0.231,-0.463 0.248,-0.468C0.265,-0.473 0.284,-0.476 0.305,-0.476C0.366,-0.476 0.411,-0.458 0.44,-0.423C0.469,-0.388 0.484,-0.34 0.484,-0.279L0.484,-0L0.394,-0L0.394,-0.272C0.394,-0.315 0.385,-0.347 0.366,-0.368C0.347,-0.388 0.321,-0.398 0.287,-0.398C0.261,-0.398 0.239,-0.393 0.222,-0.382C0.205,-0.371 0.191,-0.358 0.181,-0.341C0.17,-0.324 0.163,-0.304 0.158,-0.282C0.153,-0.261 0.151,-0.239 0.151,-0.216L0.151,-0L0.061,-0L0.061,-0.667Z" style="fill-rule:nonzero;"/>
            </g>
            <g transform="matrix(12,0,0,12,56.9607,270.661)">
                <path d="M0.352,-0.22C0.349,-0.221 0.344,-0.222 0.337,-0.223C0.329,-0.224 0.32,-0.224 0.31,-0.225C0.3,-0.226 0.289,-0.226 0.278,-0.227C0.267,-0.228 0.256,-0.228 0.245,-0.228C0.22,-0.228 0.199,-0.225 0.184,-0.219C0.168,-0.213 0.156,-0.205 0.147,-0.197C0.138,-0.188 0.131,-0.178 0.128,-0.167C0.125,-0.156 0.123,-0.145 0.123,-0.135C0.123,-0.11 0.132,-0.091 0.149,-0.078C0.166,-0.065 0.19,-0.058 0.221,-0.058C0.238,-0.058 0.255,-0.061 0.271,-0.067C0.286,-0.073 0.3,-0.081 0.312,-0.091C0.324,-0.101 0.334,-0.113 0.341,-0.126C0.348,-0.139 0.352,-0.153 0.352,-0.167L0.352,-0.22ZM0.353,-0.056C0.336,-0.033 0.313,-0.015 0.284,-0.004C0.256,0.007 0.227,0.013 0.197,0.013C0.178,0.013 0.159,0.01 0.14,0.005C0.121,0 0.103,-0.008 0.087,-0.02C0.072,-0.031 0.059,-0.046 0.05,-0.065C0.04,-0.083 0.035,-0.105 0.035,-0.132C0.035,-0.182 0.053,-0.222 0.087,-0.252C0.123,-0.282 0.173,-0.297 0.239,-0.297C0.25,-0.297 0.261,-0.297 0.273,-0.296C0.285,-0.295 0.296,-0.295 0.307,-0.294C0.318,-0.293 0.327,-0.293 0.335,-0.292C0.343,-0.291 0.349,-0.291 0.352,-0.29L0.352,-0.307C0.352,-0.342 0.342,-0.367 0.321,-0.382C0.3,-0.397 0.271,-0.404 0.235,-0.404C0.2,-0.404 0.172,-0.399 0.151,-0.39C0.13,-0.38 0.113,-0.37 0.099,-0.36L0.057,-0.421C0.065,-0.428 0.075,-0.434 0.086,-0.441C0.097,-0.448 0.111,-0.454 0.126,-0.46C0.141,-0.465 0.159,-0.47 0.178,-0.473C0.197,-0.477 0.22,-0.479 0.245,-0.479C0.305,-0.479 0.352,-0.465 0.387,-0.436C0.421,-0.406 0.438,-0.365 0.438,-0.312L0.438,-0.042C0.438,-0.025 0.438,-0.011 0.439,-0L0.355,-0L0.353,-0.056Z" style="fill-rule:nonzero;"/>
            </g>
            <g transform="matrix(12,0,0,12,62.9607,270.661)">
                <path d="M0.092,-0.117C0.109,-0.1 0.129,-0.087 0.152,-0.077C0.175,-0.067 0.202,-0.062 0.233,-0.062C0.263,-0.062 0.288,-0.067 0.308,-0.077C0.328,-0.086 0.338,-0.101 0.338,-0.122C0.338,-0.133 0.336,-0.142 0.332,-0.15C0.327,-0.157 0.32,-0.164 0.31,-0.17C0.299,-0.176 0.285,-0.182 0.269,-0.187C0.252,-0.192 0.23,-0.197 0.205,-0.203C0.187,-0.207 0.169,-0.212 0.152,-0.219C0.134,-0.226 0.118,-0.234 0.104,-0.246C0.09,-0.257 0.079,-0.27 0.07,-0.285C0.061,-0.301 0.057,-0.32 0.057,-0.342C0.057,-0.365 0.062,-0.385 0.073,-0.402C0.083,-0.419 0.097,-0.433 0.114,-0.445C0.131,-0.456 0.151,-0.465 0.172,-0.471C0.194,-0.477 0.217,-0.48 0.24,-0.48C0.279,-0.48 0.313,-0.475 0.342,-0.465C0.37,-0.454 0.395,-0.44 0.416,-0.421L0.367,-0.359C0.353,-0.372 0.336,-0.382 0.315,-0.391C0.294,-0.4 0.269,-0.404 0.241,-0.404C0.212,-0.404 0.189,-0.399 0.172,-0.39C0.155,-0.381 0.146,-0.365 0.146,-0.344C0.146,-0.324 0.158,-0.309 0.181,-0.3C0.203,-0.29 0.234,-0.281 0.271,-0.272C0.293,-0.267 0.314,-0.261 0.333,-0.254C0.352,-0.247 0.368,-0.237 0.383,-0.227C0.397,-0.216 0.408,-0.202 0.417,-0.186C0.425,-0.17 0.429,-0.151 0.429,-0.128C0.429,-0.105 0.424,-0.084 0.413,-0.067C0.402,-0.049 0.388,-0.034 0.37,-0.022C0.352,-0.01 0.331,-0.001 0.308,0.005C0.285,0.011 0.26,0.014 0.235,0.014C0.147,0.014 0.081,-0.01 0.037,-0.057L0.092,-0.117Z" style="fill-rule:nonzero;"/>
            </g>
            <g transform="matrix(12,0,0,12,68.6367,270.661)">
                <path d="M0.286,0.014C0.25,0.014 0.217,0.007 0.187,-0.006C0.157,-0.019 0.131,-0.036 0.11,-0.059C0.088,-0.082 0.071,-0.108 0.059,-0.138C0.046,-0.167 0.04,-0.199 0.04,-0.233C0.04,-0.267 0.046,-0.299 0.059,-0.329C0.071,-0.358 0.088,-0.384 0.11,-0.407C0.131,-0.43 0.157,-0.448 0.187,-0.461C0.217,-0.473 0.25,-0.48 0.286,-0.48C0.321,-0.48 0.354,-0.473 0.384,-0.461C0.414,-0.448 0.44,-0.43 0.462,-0.407C0.484,-0.384 0.501,-0.358 0.514,-0.329C0.526,-0.299 0.532,-0.267 0.532,-0.233C0.532,-0.199 0.526,-0.167 0.514,-0.138C0.501,-0.108 0.484,-0.082 0.462,-0.059C0.44,-0.036 0.414,-0.019 0.384,-0.006C0.354,0.007 0.321,0.014 0.286,0.014ZM0.286,-0.064C0.31,-0.064 0.332,-0.069 0.351,-0.079C0.37,-0.088 0.387,-0.101 0.4,-0.117C0.413,-0.132 0.424,-0.15 0.431,-0.171C0.438,-0.191 0.441,-0.212 0.441,-0.233C0.441,-0.254 0.438,-0.274 0.431,-0.295C0.424,-0.315 0.413,-0.333 0.4,-0.349C0.386,-0.365 0.37,-0.378 0.35,-0.388C0.332,-0.397 0.31,-0.402 0.286,-0.402C0.262,-0.402 0.24,-0.397 0.221,-0.388C0.202,-0.378 0.185,-0.365 0.172,-0.349C0.159,-0.334 0.149,-0.316 0.141,-0.296C0.135,-0.275 0.131,-0.254 0.131,-0.233C0.131,-0.212 0.135,-0.191 0.141,-0.171C0.149,-0.151 0.159,-0.133 0.172,-0.117C0.186,-0.101 0.203,-0.088 0.222,-0.079C0.241,-0.069 0.262,-0.064 0.286,-0.064Z" style="fill-rule:nonzero;"/>
            </g>
            <g transform="matrix(12,0,0,12,75.5127,270.661)">
                <path d="M0.062,-0L0.062,-0.421C0.062,-0.435 0.062,-0.45 0.061,-0.465L0.147,-0.465L0.15,-0.39C0.155,-0.398 0.162,-0.407 0.171,-0.417C0.18,-0.426 0.19,-0.435 0.203,-0.443C0.215,-0.451 0.229,-0.458 0.246,-0.464C0.262,-0.469 0.281,-0.472 0.302,-0.472C0.312,-0.472 0.321,-0.471 0.33,-0.47C0.338,-0.469 0.346,-0.467 0.353,-0.464L0.333,-0.38C0.321,-0.385 0.306,-0.387 0.287,-0.387C0.268,-0.387 0.25,-0.383 0.234,-0.376C0.217,-0.369 0.203,-0.359 0.191,-0.345C0.179,-0.333 0.17,-0.317 0.163,-0.3C0.156,-0.283 0.152,-0.264 0.152,-0.245L0.152,-0L0.062,-0Z" style="fill-rule:nonzero;"/>
            </g>
            <g transform="matrix(12,0,0,12,57.1167,282.661)">
                <rect x="0.076" y="-0.667" width="0.096" height="0.667" style="fill-rule:nonzero;"/>
            </g>
            <g transform="matrix(12,0,0,12,60.1047,282.661)">
                <path d="M0.062,-0L0.062,-0.418C0.062,-0.433 0.062,-0.448 0.061,-0.465L0.147,-0.465L0.15,-0.395C0.156,-0.403 0.163,-0.412 0.172,-0.422C0.181,-0.431 0.191,-0.44 0.204,-0.448C0.217,-0.456 0.232,-0.463 0.249,-0.468C0.266,-0.473 0.285,-0.476 0.306,-0.476C0.367,-0.476 0.412,-0.458 0.441,-0.423C0.47,-0.388 0.485,-0.34 0.485,-0.279L0.485,-0L0.395,-0L0.395,-0.272C0.395,-0.315 0.386,-0.347 0.367,-0.368C0.348,-0.388 0.322,-0.398 0.288,-0.398C0.262,-0.398 0.24,-0.393 0.223,-0.382C0.206,-0.371 0.192,-0.358 0.182,-0.341C0.171,-0.324 0.164,-0.304 0.159,-0.282C0.154,-0.261 0.152,-0.239 0.152,-0.216L0.152,-0L0.062,-0Z" style="fill-rule:nonzero;"/>
            </g>
        </g>
        <path d="M122.182,285.992L124.738,285.992C125.25,285.992 125.682,286.062 126.034,286.202C126.386,286.342 126.672,286.522 126.892,286.742C127.112,286.962 127.272,287.212 127.372,287.492C127.472,287.772 127.522,288.056 127.522,288.344C127.522,288.856 127.402,289.308 127.162,289.7C126.922,290.092 126.55,290.384 126.046,290.576L127.918,293.996L126.622,293.996L124.906,290.72L123.298,290.72L123.298,293.996L122.182,293.996L122.182,285.992ZM124.834,289.748C125.338,289.748 125.716,289.624 125.968,289.376C126.22,289.128 126.346,288.796 126.346,288.38C126.346,287.94 126.21,287.598 125.938,287.354C125.666,287.11 125.29,286.988 124.81,286.988L123.298,286.988L123.298,289.748L124.834,289.748Z" style="fill-rule:nonzero;"/>
        <path d="M134.194,293.18C134.13,293.252 134.034,293.344 133.906,293.456C133.778,293.568 133.612,293.676 133.408,293.78C133.204,293.884 132.964,293.974 132.688,294.05C132.412,294.126 132.098,294.164 131.746,294.164C131.314,294.164 130.918,294.092 130.558,293.948C130.198,293.804 129.89,293.6 129.634,293.336C129.378,293.072 129.18,292.756 129.04,292.388C128.9,292.02 128.83,291.612 128.83,291.164C128.83,290.756 128.898,290.374 129.034,290.018C129.17,289.662 129.362,289.354 129.61,289.094C129.858,288.834 130.152,288.628 130.492,288.476C130.832,288.324 131.206,288.248 131.614,288.248C132.094,288.248 132.506,288.34 132.85,288.524C133.194,288.708 133.476,288.952 133.696,289.256C133.916,289.56 134.078,289.908 134.182,290.3C134.286,290.692 134.338,291.1 134.338,291.524L129.934,291.524C129.942,291.772 129.996,292 130.096,292.208C130.196,292.416 130.33,292.596 130.498,292.748C130.666,292.9 130.858,293.02 131.074,293.108C131.29,293.196 131.518,293.24 131.758,293.24C132.23,293.24 132.618,293.16 132.922,293C133.226,292.84 133.446,292.684 133.582,292.532L134.194,293.18ZM133.222,290.72C133.19,290.288 133.038,289.92 132.766,289.616C132.494,289.312 132.11,289.16 131.614,289.16C131.358,289.16 131.128,289.204 130.924,289.292C130.72,289.38 130.546,289.496 130.402,289.64C130.258,289.784 130.146,289.95 130.066,290.138C129.986,290.326 129.942,290.52 129.934,290.72L133.222,290.72Z" style="fill-rule:nonzero;"/>
        <path d="M135.91,292.592C136.11,292.792 136.35,292.952 136.63,293.072C136.91,293.192 137.234,293.252 137.602,293.252C137.962,293.252 138.262,293.194 138.502,293.078C138.742,292.962 138.862,292.78 138.862,292.532C138.862,292.404 138.836,292.294 138.784,292.202C138.732,292.11 138.644,292.028 138.52,291.956C138.396,291.884 138.232,291.818 138.028,291.758C137.824,291.698 137.57,291.632 137.266,291.56C137.05,291.512 136.836,291.448 136.624,291.368C136.412,291.288 136.222,291.182 136.054,291.05C135.886,290.918 135.75,290.758 135.646,290.57C135.542,290.382 135.49,290.156 135.49,289.892C135.49,289.62 135.552,289.382 135.676,289.178C135.8,288.974 135.966,288.802 136.174,288.662C136.382,288.522 136.616,288.416 136.876,288.344C137.136,288.272 137.406,288.236 137.686,288.236C138.158,288.236 138.564,288.298 138.904,288.422C139.244,288.546 139.542,288.72 139.798,288.944L139.21,289.688C139.042,289.536 138.832,289.408 138.58,289.304C138.328,289.2 138.034,289.148 137.698,289.148C137.354,289.148 137.078,289.204 136.87,289.316C136.662,289.428 136.558,289.612 136.558,289.868C136.558,290.108 136.696,290.286 136.972,290.402C137.248,290.518 137.61,290.628 138.058,290.732C138.322,290.796 138.568,290.87 138.796,290.954C139.024,291.038 139.224,291.146 139.396,291.278C139.568,291.41 139.704,291.572 139.804,291.764C139.904,291.956 139.954,292.188 139.954,292.46C139.954,292.74 139.89,292.986 139.762,293.198C139.634,293.41 139.462,293.588 139.246,293.732C139.03,293.876 138.782,293.984 138.502,294.056C138.222,294.128 137.93,294.164 137.626,294.164C136.57,294.164 135.778,293.88 135.25,293.312L135.91,292.592Z" style="fill-rule:nonzero;"/>
        <path d="M141.07,295.364C141.15,295.436 141.242,295.5 141.346,295.556C141.45,295.612 141.578,295.64 141.73,295.64C141.858,295.64 141.968,295.612 142.06,295.556C142.152,295.5 142.236,295.414 142.312,295.298C142.388,295.182 142.46,295.042 142.528,294.878C142.596,294.714 142.674,294.524 142.762,294.308L142.906,293.948L140.41,288.416L141.646,288.416L143.446,292.628L145.03,288.416L146.206,288.416L143.974,293.852C143.87,294.108 143.764,294.39 143.656,294.698C143.548,295.006 143.414,295.298 143.254,295.574C143.094,295.85 142.898,296.08 142.666,296.264C142.434,296.448 142.142,296.54 141.79,296.54C141.51,296.54 141.274,296.502 141.082,296.426C140.89,296.35 140.722,296.248 140.578,296.12L141.07,295.364Z" style="fill-rule:nonzero;"/>
        <path d="M147.082,293.996L147.082,288.986C147.082,288.806 147.078,288.616 147.07,288.416L148.102,288.416L148.138,289.256C148.21,289.16 148.298,289.054 148.402,288.938C148.506,288.822 148.634,288.716 148.786,288.62C148.938,288.524 149.116,288.444 149.32,288.38C149.524,288.316 149.754,288.284 150.01,288.284C150.738,288.284 151.278,288.496 151.63,288.92C151.982,289.344 152.158,289.92 152.158,290.648L152.158,293.996L151.078,293.996L151.078,290.732C151.078,290.212 150.966,289.83 150.742,289.586C150.518,289.342 150.202,289.22 149.794,289.22C149.482,289.22 149.222,289.284 149.014,289.412C148.806,289.54 148.64,289.706 148.516,289.91C148.392,290.114 148.302,290.346 148.246,290.606C148.19,290.866 148.162,291.132 148.162,291.404L148.162,293.996L147.082,293.996Z" style="fill-rule:nonzero;"/>
        <path d="M158.47,293.228C158.222,293.508 157.916,293.734 157.552,293.906C157.188,294.078 156.766,294.164 156.286,294.164C155.838,294.164 155.432,294.09 155.068,293.942C154.704,293.794 154.396,293.59 154.144,293.33C153.892,293.07 153.698,292.758 153.562,292.394C153.426,292.03 153.358,291.632 153.358,291.2C153.358,290.792 153.43,290.408 153.574,290.048C153.718,289.688 153.92,289.374 154.18,289.106C154.44,288.838 154.748,288.626 155.104,288.47C155.46,288.314 155.854,288.236 156.286,288.236C156.758,288.236 157.174,288.32 157.534,288.488C157.894,288.656 158.202,288.884 158.458,289.172L157.75,289.856C157.582,289.648 157.378,289.484 157.138,289.364C156.898,289.244 156.614,289.184 156.286,289.184C155.998,289.184 155.74,289.238 155.512,289.346C155.284,289.454 155.092,289.602 154.936,289.79C154.78,289.978 154.66,290.194 154.576,290.438C154.492,290.682 154.45,290.936 154.45,291.2C154.45,291.456 154.492,291.706 154.576,291.95C154.66,292.194 154.78,292.41 154.936,292.598C155.092,292.786 155.284,292.936 155.512,293.048C155.74,293.16 155.998,293.216 156.286,293.216C156.614,293.216 156.908,293.154 157.168,293.03C157.428,292.906 157.642,292.74 157.81,292.532L158.47,293.228Z" style="fill-rule:nonzero;"/>
        <path d="M73.649,285.992L76.205,285.992C76.717,285.992 77.149,286.062 77.501,286.202C77.853,286.342 78.139,286.522 78.359,286.742C78.579,286.962 78.739,287.212 78.839,287.492C78.939,287.772 78.989,288.056 78.989,288.344C78.989,288.856 78.869,289.308 78.629,289.7C78.389,290.092 78.017,290.384 77.513,290.576L79.385,293.996L78.089,293.996L76.373,290.72L74.765,290.72L74.765,293.996L73.649,293.996L73.649,285.992ZM76.301,289.748C76.805,289.748 77.183,289.624 77.435,289.376C77.687,289.128 77.813,288.796 77.813,288.38C77.813,287.94 77.677,287.598 77.405,287.354C77.133,287.11 76.757,286.988 76.277,286.988L74.765,286.988L74.765,289.748L76.301,289.748Z" style="fill-rule:nonzero;"/>
        <path d="M85.661,293.18C85.597,293.252 85.501,293.344 85.373,293.456C85.245,293.568 85.079,293.676 84.875,293.78C84.671,293.884 84.431,293.974 84.155,294.05C83.879,294.126 83.565,294.164 83.213,294.164C82.781,294.164 82.385,294.092 82.025,293.948C81.665,293.804 81.357,293.6 81.101,293.336C80.845,293.072 80.647,292.756 80.507,292.388C80.367,292.02 80.297,291.612 80.297,291.164C80.297,290.756 80.365,290.374 80.501,290.018C80.637,289.662 80.829,289.354 81.077,289.094C81.325,288.834 81.619,288.628 81.959,288.476C82.299,288.324 82.673,288.248 83.081,288.248C83.561,288.248 83.973,288.34 84.317,288.524C84.661,288.708 84.943,288.952 85.163,289.256C85.383,289.56 85.545,289.908 85.649,290.3C85.753,290.692 85.805,291.1 85.805,291.524L81.401,291.524C81.409,291.772 81.463,292 81.563,292.208C81.663,292.416 81.797,292.596 81.965,292.748C82.133,292.9 82.325,293.02 82.541,293.108C82.757,293.196 82.985,293.24 83.225,293.24C83.697,293.24 84.085,293.16 84.389,293C84.693,292.84 84.913,292.684 85.049,292.532L85.661,293.18ZM84.689,290.72C84.657,290.288 84.505,289.92 84.233,289.616C83.961,289.312 83.577,289.16 83.081,289.16C82.825,289.16 82.595,289.204 82.391,289.292C82.187,289.38 82.013,289.496 81.869,289.64C81.725,289.784 81.613,289.95 81.533,290.138C81.453,290.326 81.409,290.52 81.401,290.72L84.689,290.72Z" style="fill-rule:nonzero;"/>
        <path d="M87.377,292.592C87.577,292.792 87.817,292.952 88.097,293.072C88.377,293.192 88.701,293.252 89.069,293.252C89.429,293.252 89.729,293.194 89.969,293.078C90.209,292.962 90.329,292.78 90.329,292.532C90.329,292.404 90.303,292.294 90.251,292.202C90.199,292.11 90.111,292.028 89.987,291.956C89.863,291.884 89.699,291.818 89.495,291.758C89.291,291.698 89.037,291.632 88.733,291.56C88.517,291.512 88.303,291.448 88.091,291.368C87.879,291.288 87.689,291.182 87.521,291.05C87.353,290.918 87.217,290.758 87.113,290.57C87.009,290.382 86.957,290.156 86.957,289.892C86.957,289.62 87.019,289.382 87.143,289.178C87.267,288.974 87.433,288.802 87.641,288.662C87.849,288.522 88.083,288.416 88.343,288.344C88.603,288.272 88.873,288.236 89.153,288.236C89.625,288.236 90.031,288.298 90.371,288.422C90.711,288.546 91.009,288.72 91.265,288.944L90.677,289.688C90.509,289.536 90.299,289.408 90.047,289.304C89.795,289.2 89.501,289.148 89.165,289.148C88.821,289.148 88.545,289.204 88.337,289.316C88.129,289.428 88.025,289.612 88.025,289.868C88.025,290.108 88.163,290.286 88.439,290.402C88.715,290.518 89.077,290.628 89.525,290.732C89.789,290.796 90.035,290.87 90.263,290.954C90.491,291.038 90.691,291.146 90.863,291.278C91.035,291.41 91.171,291.572 91.271,291.764C91.371,291.956 91.421,292.188 91.421,292.46C91.421,292.74 91.357,292.986 91.229,293.198C91.101,293.41 90.929,293.588 90.713,293.732C90.497,293.876 90.249,293.984 89.969,294.056C89.689,294.128 89.397,294.164 89.093,294.164C88.037,294.164 87.245,293.88 86.717,293.312L87.377,292.592Z" style="fill-rule:nonzero;"/>
        <path d="M97.781,293.18C97.717,293.252 97.621,293.344 97.493,293.456C97.365,293.568 97.199,293.676 96.995,293.78C96.791,293.884 96.551,293.974 96.275,294.05C95.999,294.126 95.685,294.164 95.333,294.164C94.901,294.164 94.505,294.092 94.145,293.948C93.785,293.804 93.477,293.6 93.221,293.336C92.965,293.072 92.767,292.756 92.627,292.388C92.487,292.02 92.417,291.612 92.417,291.164C92.417,290.756 92.485,290.374 92.621,290.018C92.757,289.662 92.949,289.354 93.197,289.094C93.445,288.834 93.739,288.628 94.079,288.476C94.419,288.324 94.793,288.248 95.201,288.248C95.681,288.248 96.093,288.34 96.437,288.524C96.781,288.708 97.063,288.952 97.283,289.256C97.503,289.56 97.665,289.908 97.769,290.3C97.873,290.692 97.925,291.1 97.925,291.524L93.521,291.524C93.529,291.772 93.583,292 93.683,292.208C93.783,292.416 93.917,292.596 94.085,292.748C94.253,292.9 94.445,293.02 94.661,293.108C94.877,293.196 95.105,293.24 95.345,293.24C95.817,293.24 96.205,293.16 96.509,293C96.813,292.84 97.033,292.684 97.169,292.532L97.781,293.18ZM96.809,290.72C96.777,290.288 96.625,289.92 96.353,289.616C96.081,289.312 95.697,289.16 95.201,289.16C94.945,289.16 94.715,289.204 94.511,289.292C94.307,289.38 94.133,289.496 93.989,289.64C93.845,289.784 93.733,289.95 93.653,290.138C93.573,290.326 93.529,290.52 93.521,290.72L96.809,290.72Z" style="fill-rule:nonzero;"/>
        <path d="M99.617,289.316L98.609,289.316L98.609,288.416L99.617,288.416L99.617,286.592L100.697,286.592L100.697,288.416L102.329,288.416L102.329,289.316L100.697,289.316L100.697,292.064C100.697,292.512 100.767,292.82 100.907,292.988C101.047,293.156 101.245,293.24 101.501,293.24C101.709,293.24 101.881,293.208 102.017,293.144C102.153,293.08 102.289,292.984 102.425,292.856L102.917,293.516C102.685,293.74 102.447,293.902 102.203,294.002C101.959,294.102 101.669,294.152 101.333,294.152C100.741,294.152 100.307,293.992 100.031,293.672C99.755,293.352 99.617,292.852 99.617,292.172L99.617,289.316Z" style="fill-rule:nonzero;"/>
        <g transform="matrix(1,0,0,1,41.3001,-126.904)">
            <g transform="matrix(8,0,0,8,89.9637,311.781)">
                <path d="M0.076,-0.667L0.302,-0.667C0.337,-0.667 0.367,-0.663 0.392,-0.654C0.417,-0.645 0.438,-0.632 0.455,-0.617C0.472,-0.602 0.484,-0.584 0.493,-0.563C0.501,-0.542 0.505,-0.52 0.505,-0.497C0.505,-0.476 0.501,-0.456 0.494,-0.439C0.486,-0.422 0.476,-0.407 0.466,-0.395C0.455,-0.383 0.443,-0.373 0.43,-0.366C0.417,-0.359 0.405,-0.354 0.394,-0.353C0.408,-0.351 0.424,-0.347 0.441,-0.341C0.458,-0.334 0.473,-0.325 0.488,-0.312C0.503,-0.299 0.515,-0.283 0.525,-0.263C0.535,-0.242 0.54,-0.217 0.54,-0.187C0.54,-0.151 0.534,-0.121 0.521,-0.098C0.507,-0.074 0.49,-0.055 0.468,-0.04C0.445,-0.025 0.419,-0.015 0.388,-0.009C0.357,-0.003 0.325,-0 0.29,-0L0.076,-0L0.076,-0.667ZM0.288,-0.389C0.303,-0.389 0.317,-0.391 0.332,-0.395C0.347,-0.398 0.36,-0.404 0.372,-0.412C0.384,-0.42 0.394,-0.43 0.401,-0.443C0.408,-0.456 0.412,-0.471 0.412,-0.489C0.412,-0.509 0.408,-0.525 0.401,-0.538C0.394,-0.55 0.384,-0.56 0.372,-0.567C0.36,-0.574 0.347,-0.578 0.332,-0.581C0.317,-0.583 0.303,-0.584 0.288,-0.584L0.169,-0.584L0.169,-0.389L0.288,-0.389ZM0.285,-0.083C0.302,-0.083 0.32,-0.084 0.339,-0.086C0.358,-0.088 0.375,-0.093 0.391,-0.1C0.406,-0.107 0.419,-0.118 0.429,-0.133C0.439,-0.147 0.444,-0.167 0.444,-0.192C0.444,-0.216 0.439,-0.235 0.43,-0.25C0.42,-0.265 0.407,-0.276 0.393,-0.285C0.378,-0.294 0.361,-0.3 0.343,-0.303C0.325,-0.306 0.308,-0.307 0.291,-0.307L0.169,-0.307L0.169,-0.083L0.285,-0.083Z" style="fill-rule:nonzero;"/>
            </g>
            <g transform="matrix(8,0,0,8,94.7437,311.781)">
                <path d="M0.352,-0.22C0.349,-0.221 0.344,-0.222 0.337,-0.223C0.329,-0.224 0.32,-0.224 0.31,-0.225C0.3,-0.226 0.289,-0.226 0.278,-0.227C0.267,-0.228 0.256,-0.228 0.245,-0.228C0.22,-0.228 0.199,-0.225 0.184,-0.219C0.168,-0.213 0.156,-0.205 0.147,-0.197C0.138,-0.188 0.131,-0.178 0.128,-0.167C0.125,-0.156 0.123,-0.145 0.123,-0.135C0.123,-0.11 0.132,-0.091 0.149,-0.078C0.166,-0.065 0.19,-0.058 0.221,-0.058C0.238,-0.058 0.255,-0.061 0.271,-0.067C0.286,-0.073 0.3,-0.081 0.312,-0.091C0.324,-0.101 0.334,-0.113 0.341,-0.126C0.348,-0.139 0.352,-0.153 0.352,-0.167L0.352,-0.22ZM0.353,-0.056C0.336,-0.033 0.313,-0.015 0.284,-0.004C0.256,0.007 0.227,0.013 0.197,0.013C0.178,0.013 0.159,0.01 0.14,0.005C0.121,0 0.103,-0.008 0.087,-0.02C0.072,-0.031 0.059,-0.046 0.05,-0.065C0.04,-0.083 0.035,-0.105 0.035,-0.132C0.035,-0.182 0.053,-0.222 0.087,-0.252C0.123,-0.282 0.173,-0.297 0.239,-0.297C0.25,-0.297 0.261,-0.297 0.273,-0.296C0.285,-0.295 0.296,-0.295 0.307,-0.294C0.318,-0.293 0.327,-0.293 0.335,-0.292C0.343,-0.291 0.349,-0.291 0.352,-0.29L0.352,-0.307C0.352,-0.342 0.342,-0.367 0.321,-0.382C0.3,-0.397 0.271,-0.404 0.235,-0.404C0.2,-0.404 0.172,-0.399 0.151,-0.39C0.13,-0.38 0.113,-0.37 0.099,-0.36L0.057,-0.421C0.065,-0.428 0.075,-0.434 0.086,-0.441C0.097,-0.448 0.111,-0.454 0.126,-0.46C0.141,-0.465 0.159,-0.47 0.178,-0.473C0.197,-0.477 0.22,-0.479 0.245,-0.479C0.305,-0.479 0.352,-0.465 0.387,-0.436C0.421,-0.406 0.438,-0.365 0.438,-0.312L0.438,-0.042C0.438,-0.025 0.438,-0.011 0.439,-0L0.355,-0L0.353,-0.056Z" style="fill-rule:nonzero;"/>
            </g>
            <g transform="matrix(8,0,0,8,98.8357,311.781)">
                <path d="M0.092,-0.117C0.109,-0.1 0.129,-0.087 0.152,-0.077C0.175,-0.067 0.202,-0.062 0.233,-0.062C0.263,-0.062 0.288,-0.067 0.308,-0.077C0.328,-0.086 0.338,-0.101 0.338,-0.122C0.338,-0.133 0.336,-0.142 0.332,-0.15C0.327,-0.157 0.32,-0.164 0.31,-0.17C0.299,-0.176 0.285,-0.182 0.269,-0.187C0.252,-0.192 0.23,-0.197 0.205,-0.203C0.187,-0.207 0.169,-0.212 0.152,-0.219C0.134,-0.226 0.118,-0.234 0.104,-0.246C0.09,-0.257 0.079,-0.27 0.07,-0.285C0.061,-0.301 0.057,-0.32 0.057,-0.342C0.057,-0.365 0.062,-0.385 0.073,-0.402C0.083,-0.419 0.097,-0.433 0.114,-0.445C0.131,-0.456 0.151,-0.465 0.172,-0.471C0.194,-0.477 0.217,-0.48 0.24,-0.48C0.279,-0.48 0.313,-0.475 0.342,-0.465C0.37,-0.454 0.395,-0.44 0.416,-0.421L0.367,-0.359C0.353,-0.372 0.336,-0.382 0.315,-0.391C0.294,-0.4 0.269,-0.404 0.241,-0.404C0.212,-0.404 0.189,-0.399 0.172,-0.39C0.155,-0.381 0.146,-0.365 0.146,-0.344C0.146,-0.324 0.158,-0.309 0.181,-0.3C0.203,-0.29 0.234,-0.281 0.271,-0.272C0.293,-0.267 0.314,-0.261 0.333,-0.254C0.352,-0.247 0.368,-0.237 0.383,-0.227C0.397,-0.216 0.408,-0.202 0.417,-0.186C0.425,-0.17 0.429,-0.151 0.429,-0.128C0.429,-0.105 0.424,-0.084 0.413,-0.067C0.402,-0.049 0.388,-0.034 0.37,-0.022C0.352,-0.01 0.331,-0.001 0.308,0.005C0.285,0.011 0.26,0.014 0.235,0.014C0.147,0.014 0.081,-0.01 0.037,-0.057L0.092,-0.117Z" style="fill-rule:nonzero;"/>
            </g>
            <g transform="matrix(8,0,0,8,102.712,311.781)">
                <path d="M0.06,-0.649L0.161,-0.649L0.161,-0.548L0.06,-0.548L0.06,-0.649ZM0.066,-0.465L0.156,-0.465L0.156,-0L0.066,-0L0.066,-0.465Z" style="fill-rule:nonzero;"/>
            </g>
            <g transform="matrix(8,0,0,8,104.588,311.781)">
                <path d="M0.466,-0.064C0.445,-0.041 0.42,-0.022 0.39,-0.008C0.359,0.007 0.324,0.014 0.284,0.014C0.247,0.014 0.213,0.008 0.183,-0.005C0.152,-0.017 0.127,-0.034 0.106,-0.056C0.085,-0.077 0.068,-0.103 0.057,-0.134C0.046,-0.164 0.04,-0.197 0.04,-0.233C0.04,-0.267 0.046,-0.299 0.058,-0.329C0.07,-0.359 0.087,-0.385 0.109,-0.407C0.13,-0.43 0.156,-0.448 0.186,-0.461C0.215,-0.473 0.248,-0.48 0.284,-0.48C0.323,-0.48 0.358,-0.473 0.388,-0.459C0.418,-0.445 0.444,-0.426 0.465,-0.402L0.406,-0.345C0.392,-0.362 0.375,-0.376 0.355,-0.386C0.335,-0.396 0.311,-0.401 0.284,-0.401C0.26,-0.401 0.238,-0.397 0.22,-0.388C0.201,-0.379 0.185,-0.366 0.172,-0.35C0.159,-0.335 0.149,-0.317 0.141,-0.297C0.135,-0.276 0.131,-0.255 0.131,-0.233C0.131,-0.212 0.135,-0.191 0.141,-0.171C0.149,-0.15 0.159,-0.132 0.172,-0.117C0.185,-0.101 0.201,-0.088 0.22,-0.079C0.238,-0.07 0.26,-0.065 0.284,-0.065C0.311,-0.065 0.336,-0.07 0.358,-0.081C0.379,-0.091 0.397,-0.105 0.411,-0.122L0.466,-0.064Z" style="fill-rule:nonzero;"/>
            </g>
            <g transform="matrix(8,0,0,8,110.644,311.781)">
                <path d="M0.105,-0.162C0.114,-0.151 0.125,-0.141 0.137,-0.13C0.148,-0.118 0.161,-0.109 0.176,-0.1C0.191,-0.091 0.207,-0.084 0.225,-0.079C0.243,-0.074 0.263,-0.071 0.284,-0.071C0.328,-0.071 0.362,-0.081 0.387,-0.101C0.412,-0.121 0.424,-0.148 0.424,-0.182C0.424,-0.219 0.41,-0.246 0.382,-0.265C0.354,-0.283 0.314,-0.298 0.261,-0.309C0.232,-0.315 0.206,-0.323 0.183,-0.334C0.16,-0.345 0.14,-0.358 0.123,-0.374C0.106,-0.39 0.092,-0.408 0.083,-0.43C0.074,-0.451 0.069,-0.474 0.069,-0.501C0.069,-0.526 0.074,-0.549 0.083,-0.571C0.092,-0.593 0.106,-0.612 0.125,-0.629C0.144,-0.646 0.167,-0.659 0.195,-0.669C0.223,-0.679 0.255,-0.684 0.292,-0.684C0.325,-0.684 0.353,-0.681 0.377,-0.674C0.4,-0.667 0.42,-0.658 0.437,-0.648C0.454,-0.638 0.467,-0.628 0.477,-0.617C0.487,-0.606 0.495,-0.598 0.5,-0.591L0.436,-0.532C0.432,-0.537 0.426,-0.543 0.418,-0.551C0.41,-0.558 0.4,-0.566 0.388,-0.573C0.375,-0.58 0.361,-0.587 0.344,-0.592C0.328,-0.597 0.309,-0.599 0.288,-0.599C0.267,-0.599 0.248,-0.596 0.233,-0.591C0.218,-0.585 0.205,-0.578 0.195,-0.569C0.185,-0.56 0.178,-0.549 0.173,-0.538C0.168,-0.527 0.166,-0.515 0.166,-0.504C0.166,-0.487 0.17,-0.473 0.177,-0.462C0.184,-0.45 0.194,-0.44 0.207,-0.431C0.22,-0.422 0.237,-0.414 0.257,-0.407C0.276,-0.401 0.299,-0.395 0.324,-0.389C0.349,-0.383 0.373,-0.375 0.397,-0.366C0.42,-0.356 0.441,-0.343 0.46,-0.327C0.479,-0.31 0.494,-0.29 0.504,-0.267C0.516,-0.243 0.521,-0.214 0.521,-0.18C0.521,-0.151 0.515,-0.125 0.503,-0.101C0.491,-0.077 0.474,-0.056 0.454,-0.039C0.433,-0.021 0.408,-0.007 0.379,0.002C0.35,0.012 0.319,0.017 0.286,0.017C0.255,0.017 0.226,0.013 0.201,0.006C0.175,-0.001 0.152,-0.011 0.131,-0.022C0.11,-0.033 0.091,-0.046 0.076,-0.059C0.06,-0.073 0.047,-0.087 0.037,-0.1L0.105,-0.162Z" style="fill-rule:nonzero;"/>
            </g>
            <g transform="matrix(8,0,0,8,115.12,311.781)">
                <path d="M0.064,0.114C0.071,0.12 0.078,0.125 0.087,0.13C0.096,0.135 0.106,0.137 0.119,0.137C0.13,0.137 0.139,0.135 0.147,0.13C0.154,0.125 0.161,0.118 0.168,0.108C0.174,0.099 0.18,0.087 0.186,0.073C0.191,0.06 0.198,0.044 0.205,0.026L0.217,-0.004L0.009,-0.465L0.112,-0.465L0.262,-0.114L0.394,-0.465L0.492,-0.465L0.306,-0.012C0.297,0.009 0.289,0.033 0.28,0.058C0.271,0.084 0.259,0.108 0.246,0.131C0.233,0.154 0.216,0.174 0.197,0.189C0.178,0.204 0.153,0.212 0.124,0.212C0.101,0.212 0.081,0.209 0.065,0.202C0.049,0.196 0.035,0.188 0.023,0.177L0.064,0.114Z" style="fill-rule:nonzero;"/>
            </g>
            <g transform="matrix(8,0,0,8,119.236,311.781)">
                <path d="M0.062,-0L0.062,-0.418C0.062,-0.433 0.062,-0.448 0.061,-0.465L0.147,-0.465L0.15,-0.395C0.156,-0.403 0.163,-0.412 0.172,-0.422C0.181,-0.431 0.191,-0.44 0.204,-0.448C0.217,-0.456 0.232,-0.463 0.249,-0.468C0.266,-0.473 0.285,-0.476 0.306,-0.476C0.367,-0.476 0.412,-0.458 0.441,-0.423C0.47,-0.388 0.485,-0.34 0.485,-0.279L0.485,-0L0.395,-0L0.395,-0.272C0.395,-0.315 0.386,-0.347 0.367,-0.368C0.348,-0.388 0.322,-0.398 0.288,-0.398C0.262,-0.398 0.24,-0.393 0.223,-0.382C0.206,-0.371 0.192,-0.358 0.182,-0.341C0.171,-0.324 0.164,-0.304 0.159,-0.282C0.154,-0.261 0.152,-0.239 0.152,-0.216L0.152,-0L0.062,-0Z" style="fill-rule:nonzero;"/>
            </g>
            <g transform="matrix(8,0,0,8,123.688,311.781)">
                <path d="M0.466,-0.064C0.445,-0.041 0.42,-0.022 0.39,-0.008C0.359,0.007 0.324,0.014 0.284,0.014C0.247,0.014 0.213,0.008 0.183,-0.005C0.152,-0.017 0.127,-0.034 0.106,-0.056C0.085,-0.077 0.068,-0.103 0.057,-0.134C0.046,-0.164 0.04,-0.197 0.04,-0.233C0.04,-0.267 0.046,-0.299 0.058,-0.329C0.07,-0.359 0.087,-0.385 0.109,-0.407C0.13,-0.43 0.156,-0.448 0.186,-0.461C0.215,-0.473 0.248,-0.48 0.284,-0.48C0.323,-0.48 0.358,-0.473 0.388,-0.459C0.418,-0.445 0.444,-0.426 0.465,-0.402L0.406,-0.345C0.392,-0.362 0.375,-0.376 0.355,-0.386C0.335,-0.396 0.311,-0.401 0.284,-0.401C0.26,-0.401 0.238,-0.397 0.22,-0.388C0.201,-0.379 0.185,-0.366 0.172,-0.35C0.159,-0.335 0.149,-0.317 0.141,-0.297C0.135,-0.276 0.131,-0.255 0.131,-0.233C0.131,-0.212 0.135,-0.191 0.141,-0.171C0.149,-0.15 0.159,-0.132 0.172,-0.117C0.185,-0.101 0.201,-0.088 0.22,-0.079C0.238,-0.07 0.26,-0.065 0.284,-0.065C0.311,-0.065 0.336,-0.07 0.358,-0.081C0.379,-0.091 0.397,-0.105 0.411,-0.122L0.466,-0.064Z" style="fill-rule:nonzero;"/>
            </g>
            <g transform="matrix(8,0,0,8,89.9637,324.781)">
                <path d="M0.271,-0.667L0.369,-0.667L0.63,-0L0.523,-0L0.454,-0.186L0.18,-0.186L0.111,-0L0.01,-0L0.271,-0.667ZM0.425,-0.267L0.317,-0.56L0.208,-0.267L0.425,-0.267Z" style="fill-rule:nonzero;"/>
            </g>
            <g transform="matrix(8,0,0,8,95.0743,324.781)">
                <path d="M0.059,-0.465L0.149,-0.465L0.149,-0.192C0.149,-0.148 0.158,-0.116 0.176,-0.097C0.194,-0.077 0.22,-0.067 0.254,-0.067C0.28,-0.067 0.302,-0.072 0.319,-0.083C0.336,-0.094 0.349,-0.108 0.36,-0.125C0.371,-0.141 0.378,-0.161 0.383,-0.183C0.387,-0.204 0.389,-0.226 0.389,-0.249L0.389,-0.465L0.479,-0.465L0.479,-0.048C0.479,-0.033 0.479,-0.017 0.48,-0L0.394,-0L0.391,-0.069C0.385,-0.061 0.378,-0.052 0.369,-0.043C0.36,-0.034 0.35,-0.025 0.337,-0.018C0.324,-0.01 0.31,-0.003 0.293,0.002C0.276,0.007 0.257,0.01 0.236,0.01C0.175,0.01 0.131,-0.008 0.102,-0.043C0.073,-0.078 0.059,-0.125 0.059,-0.186L0.059,-0.465Z" style="fill-rule:nonzero;"/>
            </g>
            <g transform="matrix(8,0,0,8,99.3928,324.781)">
                <path d="M0.102,-0.39L0.018,-0.39L0.018,-0.465L0.102,-0.465L0.102,-0.617L0.192,-0.617L0.192,-0.465L0.328,-0.465L0.328,-0.39L0.192,-0.39L0.192,-0.161C0.192,-0.124 0.198,-0.098 0.21,-0.084C0.221,-0.07 0.238,-0.063 0.259,-0.063C0.276,-0.063 0.291,-0.066 0.302,-0.071C0.313,-0.076 0.325,-0.084 0.336,-0.095L0.377,-0.04C0.358,-0.021 0.338,-0.008 0.318,0C0.297,0.009 0.273,0.013 0.245,0.013C0.196,0.013 0.16,-0 0.137,-0.027C0.114,-0.054 0.102,-0.095 0.102,-0.152L0.102,-0.39Z" style="fill-rule:nonzero;"/>
            </g>
            <g transform="matrix(8,0,0,8,102.207,324.781)">
                <path d="M0.286,0.014C0.25,0.014 0.217,0.007 0.187,-0.006C0.157,-0.019 0.131,-0.036 0.11,-0.059C0.088,-0.082 0.071,-0.108 0.059,-0.138C0.046,-0.167 0.04,-0.199 0.04,-0.233C0.04,-0.267 0.046,-0.299 0.059,-0.329C0.071,-0.358 0.088,-0.384 0.11,-0.407C0.131,-0.43 0.157,-0.448 0.187,-0.461C0.217,-0.473 0.25,-0.48 0.286,-0.48C0.321,-0.48 0.354,-0.473 0.384,-0.461C0.414,-0.448 0.44,-0.43 0.462,-0.407C0.484,-0.384 0.501,-0.358 0.514,-0.329C0.526,-0.299 0.532,-0.267 0.532,-0.233C0.532,-0.199 0.526,-0.167 0.514,-0.138C0.501,-0.108 0.484,-0.082 0.462,-0.059C0.44,-0.036 0.414,-0.019 0.384,-0.006C0.354,0.007 0.321,0.014 0.286,0.014ZM0.286,-0.064C0.31,-0.064 0.332,-0.069 0.351,-0.079C0.37,-0.088 0.387,-0.101 0.4,-0.117C0.413,-0.132 0.424,-0.15 0.431,-0.171C0.438,-0.191 0.441,-0.212 0.441,-0.233C0.441,-0.254 0.438,-0.274 0.431,-0.295C0.424,-0.315 0.413,-0.333 0.4,-0.349C0.386,-0.365 0.37,-0.378 0.35,-0.388C0.332,-0.397 0.31,-0.402 0.286,-0.402C0.262,-0.402 0.24,-0.397 0.221,-0.388C0.202,-0.378 0.185,-0.365 0.172,-0.349C0.159,-0.334 0.149,-0.316 0.141,-0.296C0.135,-0.275 0.131,-0.254 0.131,-0.233C0.131,-0.212 0.135,-0.191 0.141,-0.171C0.149,-0.151 0.159,-0.133 0.172,-0.117C0.186,-0.101 0.203,-0.088 0.222,-0.079C0.241,-0.069 0.262,-0.064 0.286,-0.064Z" style="fill-rule:nonzero;"/>
            </g>
            <g transform="matrix(8,0,0,8,108.625,324.781)">
                <path d="M0.105,-0.162C0.114,-0.151 0.125,-0.141 0.137,-0.13C0.148,-0.118 0.161,-0.109 0.176,-0.1C0.191,-0.091 0.207,-0.084 0.225,-0.079C0.243,-0.074 0.263,-0.071 0.284,-0.071C0.328,-0.071 0.362,-0.081 0.387,-0.101C0.412,-0.121 0.424,-0.148 0.424,-0.182C0.424,-0.219 0.41,-0.246 0.382,-0.265C0.354,-0.283 0.314,-0.298 0.261,-0.309C0.232,-0.315 0.206,-0.323 0.183,-0.334C0.16,-0.345 0.14,-0.358 0.123,-0.374C0.106,-0.39 0.092,-0.408 0.083,-0.43C0.074,-0.451 0.069,-0.474 0.069,-0.501C0.069,-0.526 0.074,-0.549 0.083,-0.571C0.092,-0.593 0.106,-0.612 0.125,-0.629C0.144,-0.646 0.167,-0.659 0.195,-0.669C0.223,-0.679 0.255,-0.684 0.292,-0.684C0.325,-0.684 0.353,-0.681 0.377,-0.674C0.4,-0.667 0.42,-0.658 0.437,-0.648C0.454,-0.638 0.467,-0.628 0.477,-0.617C0.487,-0.606 0.495,-0.598 0.5,-0.591L0.436,-0.532C0.432,-0.537 0.426,-0.543 0.418,-0.551C0.41,-0.558 0.4,-0.566 0.388,-0.573C0.375,-0.58 0.361,-0.587 0.344,-0.592C0.328,-0.597 0.309,-0.599 0.288,-0.599C0.267,-0.599 0.248,-0.596 0.233,-0.591C0.218,-0.585 0.205,-0.578 0.195,-0.569C0.185,-0.56 0.178,-0.549 0.173,-0.538C0.168,-0.527 0.166,-0.515 0.166,-0.504C0.166,-0.487 0.17,-0.473 0.177,-0.462C0.184,-0.45 0.194,-0.44 0.207,-0.431C0.22,-0.422 0.237,-0.414 0.257,-0.407C0.276,-0.401 0.299,-0.395 0.324,-0.389C0.349,-0.383 0.373,-0.375 0.397,-0.366C0.42,-0.356 0.441,-0.343 0.46,-0.327C0.479,-0.31 0.494,-0.29 0.504,-0.267C0.516,-0.243 0.521,-0.214 0.521,-0.18C0.521,-0.151 0.515,-0.125 0.503,-0.101C0.491,-0.077 0.474,-0.056 0.454,-0.039C0.433,-0.021 0.408,-0.007 0.379,0.002C0.35,0.012 0.319,0.017 0.286,0.017C0.255,0.017 0.226,0.013 0.201,0.006C0.175,-0.001 0.152,-0.011 0.131,-0.022C0.11,-0.033 0.091,-0.046 0.076,-0.059C0.06,-0.073 0.047,-0.087 0.037,-0.1L0.105,-0.162Z" style="fill-rule:nonzero;"/>
            </g>
            <g transform="matrix(8,0,0,8,112.984,324.781)">
                <path d="M0.064,0.114C0.071,0.12 0.078,0.125 0.087,0.13C0.096,0.135 0.106,0.137 0.119,0.137C0.13,0.137 0.139,0.135 0.147,0.13C0.154,0.125 0.161,0.118 0.168,0.108C0.174,0.099 0.18,0.087 0.186,0.073C0.191,0.06 0.198,0.044 0.205,0.026L0.217,-0.004L0.009,-0.465L0.112,-0.465L0.262,-0.114L0.394,-0.465L0.492,-0.465L0.306,-0.012C0.297,0.009 0.289,0.033 0.28,0.058C0.271,0.084 0.259,0.108 0.246,0.131C0.233,0.154 0.216,0.174 0.197,0.189C0.178,0.204 0.153,0.212 0.124,0.212C0.101,0.212 0.081,0.209 0.065,0.202C0.049,0.196 0.035,0.188 0.023,0.177L0.064,0.114Z" style="fill-rule:nonzero;"/>
            </g>
            <g transform="matrix(8,0,0,8,116.982,324.781)">
                <path d="M0.062,-0L0.062,-0.418C0.062,-0.433 0.062,-0.448 0.061,-0.465L0.147,-0.465L0.15,-0.395C0.156,-0.403 0.163,-0.412 0.172,-0.422C0.181,-0.431 0.191,-0.44 0.204,-0.448C0.217,-0.456 0.232,-0.463 0.249,-0.468C0.266,-0.473 0.285,-0.476 0.306,-0.476C0.367,-0.476 0.412,-0.458 0.441,-0.423C0.47,-0.388 0.485,-0.34 0.485,-0.279L0.485,-0L0.395,-0L0.395,-0.272C0.395,-0.315 0.386,-0.347 0.367,-0.368C0.348,-0.388 0.322,-0.398 0.288,-0.398C0.262,-0.398 0.24,-0.393 0.223,-0.382C0.206,-0.371 0.192,-0.358 0.182,-0.341C0.171,-0.324 0.164,-0.304 0.159,-0.282C0.154,-0.261 0.152,-0.239 0.152,-0.216L0.152,-0L0.062,-0Z" style="fill-rule:nonzero;"/>
            </g>
            <g transform="matrix(8,0,0,8,121.317,324.781)">
                <path d="M0.466,-0.064C0.445,-0.041 0.42,-0.022 0.39,-0.008C0.359,0.007 0.324,0.014 0.284,0.014C0.247,0.014 0.213,0.008 0.183,-0.005C0.152,-0.017 0.127,-0.034 0.106,-0.056C0.085,-0.077 0.068,-0.103 0.057,-0.134C0.046,-0.164 0.04,-0.197 0.04,-0.233C0.04,-0.267 0.046,-0.299 0.058,-0.329C0.07,-0.359 0.087,-0.385 0.109,-0.407C0.13,-0.43 0.156,-0.448 0.186,-0.461C0.215,-0.473 0.248,-0.48 0.284,-0.48C0.323,-0.48 0.358,-0.473 0.388,-0.459C0.418,-0.445 0.444,-0.426 0.465,-0.402L0.406,-0.345C0.392,-0.362 0.375,-0.376 0.355,-0.386C0.335,-0.396 0.311,-0.401 0.284,-0.401C0.26,-0.401 0.238,-0.397 0.22,-0.388C0.201,-0.379 0.185,-0.366 0.172,-0.35C0.159,-0.335 0.149,-0.317 0.141,-0.297C0.135,-0.276 0.131,-0.255 0.131,-0.233C0.131,-0.212 0.135,-0.191 0.141,-0.171C0.149,-0.15 0.159,-0.132 0.172,-0.117C0.185,-0.101 0.201,-0.088 0.22,-0.079C0.238,-0.07 0.26,-0.065 0.284,-0.065C0.311,-0.065 0.336,-0.07 0.358,-0.081C0.379,-0.091 0.397,-0.105 0.411,-0.122L0.466,-0.064Z" style="fill-rule:nonzero;"/>
            </g>
            <g transform="matrix(8,0,0,8,89.9637,337.781)">
                <path d="M0.076,-0.667L0.172,-0.667L0.172,-0.388L0.537,-0.388L0.537,-0.667L0.633,-0.667L0.633,-0L0.537,-0L0.537,-0.302L0.172,-0.302L0.172,-0L0.076,-0L0.076,-0.667Z" style="fill-rule:nonzero;"/>
            </g>
            <g transform="matrix(8,0,0,8,95.7264,337.781)">
                <path d="M0.352,-0.22C0.349,-0.221 0.344,-0.222 0.337,-0.223C0.329,-0.224 0.32,-0.224 0.31,-0.225C0.3,-0.226 0.289,-0.226 0.278,-0.227C0.267,-0.228 0.256,-0.228 0.245,-0.228C0.22,-0.228 0.199,-0.225 0.184,-0.219C0.168,-0.213 0.156,-0.205 0.147,-0.197C0.138,-0.188 0.131,-0.178 0.128,-0.167C0.125,-0.156 0.123,-0.145 0.123,-0.135C0.123,-0.11 0.132,-0.091 0.149,-0.078C0.166,-0.065 0.19,-0.058 0.221,-0.058C0.238,-0.058 0.255,-0.061 0.271,-0.067C0.286,-0.073 0.3,-0.081 0.312,-0.091C0.324,-0.101 0.334,-0.113 0.341,-0.126C0.348,-0.139 0.352,-0.153 0.352,-0.167L0.352,-0.22ZM0.353,-0.056C0.336,-0.033 0.313,-0.015 0.284,-0.004C0.256,0.007 0.227,0.013 0.197,0.013C0.178,0.013 0.159,0.01 0.14,0.005C0.121,0 0.103,-0.008 0.087,-0.02C0.072,-0.031 0.059,-0.046 0.05,-0.065C0.04,-0.083 0.035,-0.105 0.035,-0.132C0.035,-0.182 0.053,-0.222 0.087,-0.252C0.123,-0.282 0.173,-0.297 0.239,-0.297C0.25,-0.297 0.261,-0.297 0.273,-0.296C0.285,-0.295 0.296,-0.295 0.307,-0.294C0.318,-0.293 0.327,-0.293 0.335,-0.292C0.343,-0.291 0.349,-0.291 0.352,-0.29L0.352,-0.307C0.352,-0.342 0.342,-0.367 0.321,-0.382C0.3,-0.397 0.271,-0.404 0.235,-0.404C0.2,-0.404 0.172,-0.399 0.151,-0.39C0.13,-0.38 0.113,-0.37 0.099,-0.36L0.057,-0.421C0.065,-0.428 0.075,-0.434 0.086,-0.441C0.097,-0.448 0.111,-0.454 0.126,-0.46C0.141,-0.465 0.159,-0.47 0.178,-0.473C0.197,-0.477 0.22,-0.479 0.245,-0.479C0.305,-0.479 0.352,-0.465 0.387,-0.436C0.421,-0.406 0.438,-0.365 0.438,-0.312L0.438,-0.042C0.438,-0.025 0.438,-0.011 0.439,-0L0.355,-0L0.353,-0.056Z" style="fill-rule:nonzero;"/>
            </g>
            <g transform="matrix(8,0,0,8,99.809,337.781)">
                <path d="M0.062,-0L0.062,-0.421C0.062,-0.435 0.062,-0.45 0.061,-0.465L0.147,-0.465L0.15,-0.39C0.155,-0.398 0.162,-0.407 0.171,-0.417C0.18,-0.426 0.19,-0.435 0.203,-0.443C0.215,-0.451 0.229,-0.458 0.246,-0.464C0.262,-0.469 0.281,-0.472 0.302,-0.472C0.312,-0.472 0.321,-0.471 0.33,-0.47C0.338,-0.469 0.346,-0.467 0.353,-0.464L0.333,-0.38C0.321,-0.385 0.306,-0.387 0.287,-0.387C0.268,-0.387 0.25,-0.383 0.234,-0.376C0.217,-0.369 0.203,-0.359 0.191,-0.345C0.179,-0.333 0.17,-0.317 0.163,-0.3C0.156,-0.283 0.152,-0.264 0.152,-0.245L0.152,-0L0.062,-0Z" style="fill-rule:nonzero;"/>
            </g>
            <g transform="matrix(8,0,0,8,102.812,337.781)">
                <path d="M0.397,-0.362C0.39,-0.367 0.378,-0.375 0.36,-0.384C0.342,-0.393 0.316,-0.397 0.283,-0.397C0.261,-0.397 0.241,-0.393 0.223,-0.385C0.204,-0.377 0.188,-0.366 0.174,-0.351C0.161,-0.336 0.15,-0.318 0.142,-0.297C0.135,-0.276 0.131,-0.252 0.131,-0.225C0.131,-0.203 0.134,-0.182 0.139,-0.163C0.144,-0.143 0.153,-0.126 0.164,-0.111C0.174,-0.096 0.189,-0.085 0.205,-0.077C0.223,-0.068 0.243,-0.064 0.266,-0.064C0.289,-0.064 0.309,-0.068 0.326,-0.077C0.343,-0.086 0.356,-0.097 0.367,-0.11C0.377,-0.123 0.385,-0.137 0.39,-0.153C0.395,-0.168 0.397,-0.183 0.397,-0.196L0.397,-0.362ZM0.397,-0.059C0.394,-0.055 0.388,-0.049 0.381,-0.041C0.373,-0.032 0.363,-0.024 0.35,-0.016C0.337,-0.008 0.323,-0.001 0.306,0.005C0.289,0.011 0.269,0.014 0.246,0.014C0.217,0.014 0.189,0.008 0.164,-0.003C0.139,-0.014 0.117,-0.03 0.098,-0.051C0.079,-0.072 0.065,-0.097 0.055,-0.127C0.044,-0.156 0.039,-0.189 0.039,-0.226C0.039,-0.27 0.047,-0.308 0.062,-0.34C0.077,-0.371 0.097,-0.397 0.121,-0.418C0.144,-0.438 0.17,-0.453 0.198,-0.462C0.225,-0.471 0.251,-0.476 0.276,-0.476C0.309,-0.476 0.335,-0.472 0.354,-0.464C0.373,-0.456 0.387,-0.45 0.397,-0.446L0.397,-0.667L0.487,-0.667L0.487,-0.048C0.487,-0.033 0.487,-0.017 0.488,-0L0.4,-0L0.397,-0.059Z" style="fill-rule:nonzero;"/>
            </g>
            <g transform="matrix(8,0,0,8,109.302,337.781)">
                <path d="M0.105,-0.162C0.114,-0.151 0.125,-0.141 0.137,-0.13C0.148,-0.118 0.161,-0.109 0.176,-0.1C0.191,-0.091 0.207,-0.084 0.225,-0.079C0.243,-0.074 0.263,-0.071 0.284,-0.071C0.328,-0.071 0.362,-0.081 0.387,-0.101C0.412,-0.121 0.424,-0.148 0.424,-0.182C0.424,-0.219 0.41,-0.246 0.382,-0.265C0.354,-0.283 0.314,-0.298 0.261,-0.309C0.232,-0.315 0.206,-0.323 0.183,-0.334C0.16,-0.345 0.14,-0.358 0.123,-0.374C0.106,-0.39 0.092,-0.408 0.083,-0.43C0.074,-0.451 0.069,-0.474 0.069,-0.501C0.069,-0.526 0.074,-0.549 0.083,-0.571C0.092,-0.593 0.106,-0.612 0.125,-0.629C0.144,-0.646 0.167,-0.659 0.195,-0.669C0.223,-0.679 0.255,-0.684 0.292,-0.684C0.325,-0.684 0.353,-0.681 0.377,-0.674C0.4,-0.667 0.42,-0.658 0.437,-0.648C0.454,-0.638 0.467,-0.628 0.477,-0.617C0.487,-0.606 0.495,-0.598 0.5,-0.591L0.436,-0.532C0.432,-0.537 0.426,-0.543 0.418,-0.551C0.41,-0.558 0.4,-0.566 0.388,-0.573C0.375,-0.58 0.361,-0.587 0.344,-0.592C0.328,-0.597 0.309,-0.599 0.288,-0.599C0.267,-0.599 0.248,-0.596 0.233,-0.591C0.218,-0.585 0.205,-0.578 0.195,-0.569C0.185,-0.56 0.178,-0.549 0.173,-0.538C0.168,-0.527 0.166,-0.515 0.166,-0.504C0.166,-0.487 0.17,-0.473 0.177,-0.462C0.184,-0.45 0.194,-0.44 0.207,-0.431C0.22,-0.422 0.237,-0.414 0.257,-0.407C0.276,-0.401 0.299,-0.395 0.324,-0.389C0.349,-0.383 0.373,-0.375 0.397,-0.366C0.42,-0.356 0.441,-0.343 0.46,-0.327C0.479,-0.31 0.494,-0.29 0.504,-0.267C0.516,-0.243 0.521,-0.214 0.521,-0.18C0.521,-0.151 0.515,-0.125 0.503,-0.101C0.491,-0.077 0.474,-0.056 0.454,-0.039C0.433,-0.021 0.408,-0.007 0.379,0.002C0.35,0.012 0.319,0.017 0.286,0.017C0.255,0.017 0.226,0.013 0.201,0.006C0.175,-0.001 0.152,-0.011 0.131,-0.022C0.11,-0.033 0.091,-0.046 0.076,-0.059C0.06,-0.073 0.047,-0.087 0.037,-0.1L0.105,-0.162Z" style="fill-rule:nonzero;"/>
            </g>
            <g transform="matrix(8,0,0,8,113.769,337.781)">
                <path d="M0.064,0.114C0.071,0.12 0.078,0.125 0.087,0.13C0.096,0.135 0.106,0.137 0.119,0.137C0.13,0.137 0.139,0.135 0.147,0.13C0.154,0.125 0.161,0.118 0.168,0.108C0.174,0.099 0.18,0.087 0.186,0.073C0.191,0.06 0.198,0.044 0.205,0.026L0.217,-0.004L0.009,-0.465L0.112,-0.465L0.262,-0.114L0.394,-0.465L0.492,-0.465L0.306,-0.012C0.297,0.009 0.289,0.033 0.28,0.058C0.271,0.084 0.259,0.108 0.246,0.131C0.233,0.154 0.216,0.174 0.197,0.189C0.178,0.204 0.153,0.212 0.124,0.212C0.101,0.212 0.081,0.209 0.065,0.202C0.049,0.196 0.035,0.188 0.023,0.177L0.064,0.114Z" style="fill-rule:nonzero;"/>
            </g>
            <g transform="matrix(8,0,0,8,117.876,337.781)">
                <path d="M0.062,-0L0.062,-0.418C0.062,-0.433 0.062,-0.448 0.061,-0.465L0.147,-0.465L0.15,-0.395C0.156,-0.403 0.163,-0.412 0.172,-0.422C0.181,-0.431 0.191,-0.44 0.204,-0.448C0.217,-0.456 0.232,-0.463 0.249,-0.468C0.266,-0.473 0.285,-0.476 0.306,-0.476C0.367,-0.476 0.412,-0.458 0.441,-0.423C0.47,-0.388 0.485,-0.34 0.485,-0.279L0.485,-0L0.395,-0L0.395,-0.272C0.395,-0.315 0.386,-0.347 0.367,-0.368C0.348,-0.388 0.322,-0.398 0.288,-0.398C0.262,-0.398 0.24,-0.393 0.223,-0.382C0.206,-0.371 0.192,-0.358 0.182,-0.341C0.171,-0.324 0.164,-0.304 0.159,-0.282C0.154,-0.261 0.152,-0.239 0.152,-0.216L0.152,-0L0.062,-0Z" style="fill-rule:nonzero;"/>
            </g>
            <g transform="matrix(8,0,0,8,122.318,337.781)">
                <path d="M0.466,-0.064C0.445,-0.041 0.42,-0.022 0.39,-0.008C0.359,0.007 0.324,0.014 0.284,0.014C0.247,0.014 0.213,0.008 0.183,-0.005C0.152,-0.017 0.127,-0.034 0.106,-0.056C0.085,-0.077 0.068,-0.103 0.057,-0.134C0.046,-0.164 0.04,-0.197 0.04,-0.233C0.04,-0.267 0.046,-0.299 0.058,-0.329C0.07,-0.359 0.087,-0.385 0.109,-0.407C0.13,-0.43 0.156,-0.448 0.186,-0.461C0.215,-0.473 0.248,-0.48 0.284,-0.48C0.323,-0.48 0.358,-0.473 0.388,-0.459C0.418,-0.445 0.444,-0.426 0.465,-0.402L0.406,-0.345C0.392,-0.362 0.375,-0.376 0.355,-0.386C0.335,-0.396 0.311,-0.401 0.284,-0.401C0.26,-0.401 0.238,-0.397 0.22,-0.388C0.201,-0.379 0.185,-0.366 0.172,-0.35C0.159,-0.335 0.149,-0.317 0.141,-0.297C0.135,-0.276 0.131,-0.255 0.131,-0.233C0.131,-0.212 0.135,-0.191 0.141,-0.171C0.149,-0.15 0.159,-0.132 0.172,-0.117C0.185,-0.101 0.201,-0.088 0.22,-0.079C0.238,-0.07 0.26,-0.065 0.284,-0.065C0.311,-0.065 0.336,-0.07 0.358,-0.081C0.379,-0.091 0.397,-0.105 0.411,-0.122L0.466,-0.064Z" style="fill-rule:nonzero;"/>
            </g>
        </g>
        <path d="M132.452,131.313L133.556,131.313L135.992,135.477L138.428,131.313L139.508,131.313L139.88,139.317L138.752,139.317L138.488,133.173L136.232,136.953L135.656,136.953L133.436,133.221L133.16,139.317L132.08,139.317L132.452,131.313Z" style="fill-rule:nonzero;"/>
        <path d="M144.512,139.485C144.08,139.485 143.684,139.407 143.324,139.251C142.964,139.095 142.654,138.881 142.394,138.609C142.134,138.337 141.93,138.023 141.782,137.667C141.634,137.311 141.56,136.929 141.56,136.521C141.56,136.113 141.634,135.731 141.782,135.375C141.93,135.019 142.134,134.705 142.394,134.433C142.654,134.161 142.964,133.947 143.324,133.791C143.684,133.635 144.08,133.557 144.512,133.557C144.936,133.557 145.328,133.635 145.688,133.791C146.048,133.947 146.36,134.161 146.624,134.433C146.888,134.705 147.094,135.019 147.242,135.375C147.39,135.731 147.464,136.113 147.464,136.521C147.464,136.929 147.39,137.311 147.242,137.667C147.094,138.023 146.888,138.337 146.624,138.609C146.36,138.881 146.048,139.095 145.688,139.251C145.328,139.407 144.936,139.485 144.512,139.485ZM144.512,138.549C144.8,138.549 145.06,138.491 145.292,138.375C145.524,138.259 145.72,138.107 145.88,137.919C146.04,137.731 146.162,137.515 146.246,137.271C146.33,137.027 146.372,136.777 146.372,136.521C146.372,136.273 146.33,136.027 146.246,135.783C146.162,135.539 146.038,135.321 145.874,135.129C145.71,134.937 145.514,134.783 145.286,134.667C145.058,134.551 144.8,134.493 144.512,134.493C144.224,134.493 143.964,134.551 143.732,134.667C143.5,134.783 143.304,134.935 143.144,135.123C142.984,135.311 142.862,135.527 142.778,135.771C142.694,136.015 142.652,136.265 142.652,136.521C142.652,136.777 142.694,137.025 142.778,137.265C142.862,137.505 142.986,137.721 143.15,137.913C143.314,138.105 143.51,138.259 143.738,138.375C143.966,138.491 144.224,138.549 144.512,138.549Z" style="fill-rule:nonzero;"/>
        <path d="M153.2,134.973C153.12,134.909 152.972,134.823 152.756,134.715C152.54,134.607 152.232,134.553 151.832,134.553C151.568,134.553 151.326,134.601 151.106,134.697C150.886,134.793 150.694,134.929 150.53,135.105C150.366,135.281 150.238,135.497 150.146,135.753C150.054,136.009 150.008,136.297 150.008,136.617C150.008,136.881 150.04,137.131 150.104,137.367C150.168,137.603 150.266,137.809 150.398,137.985C150.53,138.161 150.698,138.299 150.902,138.399C151.106,138.499 151.348,138.549 151.628,138.549C151.908,138.549 152.148,138.497 152.348,138.393C152.548,138.289 152.71,138.159 152.834,138.003C152.958,137.847 153.05,137.675 153.11,137.487C153.17,137.299 153.2,137.125 153.2,136.965L153.2,134.973ZM153.2,138.609C153.16,138.657 153.094,138.731 153.002,138.831C152.91,138.931 152.788,139.029 152.636,139.125C152.484,139.221 152.306,139.305 152.102,139.377C151.898,139.449 151.66,139.485 151.388,139.485C151.036,139.485 150.708,139.417 150.404,139.281C150.1,139.145 149.836,138.953 149.612,138.705C149.388,138.457 149.214,138.155 149.09,137.799C148.966,137.443 148.904,137.045 148.904,136.605C148.904,136.077 148.996,135.623 149.18,135.243C149.364,134.863 149.598,134.551 149.882,134.307C150.166,134.063 150.474,133.885 150.806,133.773C151.138,133.661 151.452,133.605 151.748,133.605C152.148,133.605 152.46,133.653 152.684,133.749C152.908,133.845 153.08,133.917 153.2,133.965L153.2,131.313L154.28,131.313L154.28,138.747C154.28,138.927 154.284,139.117 154.292,139.317L153.236,139.317L153.2,138.609Z" style="fill-rule:nonzero;"/>
        <path d="M161.36,138.501C161.296,138.573 161.2,138.665 161.072,138.777C160.944,138.889 160.778,138.997 160.574,139.101C160.37,139.205 160.13,139.295 159.854,139.371C159.578,139.447 159.264,139.485 158.912,139.485C158.48,139.485 158.084,139.413 157.724,139.269C157.364,139.125 157.056,138.921 156.8,138.657C156.544,138.393 156.346,138.077 156.206,137.709C156.066,137.341 155.996,136.933 155.996,136.485C155.996,136.077 156.064,135.695 156.2,135.339C156.336,134.983 156.528,134.675 156.776,134.415C157.024,134.155 157.318,133.949 157.658,133.797C157.998,133.645 158.372,133.569 158.78,133.569C159.26,133.569 159.672,133.661 160.016,133.845C160.36,134.029 160.642,134.273 160.862,134.577C161.082,134.881 161.244,135.229 161.348,135.621C161.452,136.013 161.504,136.421 161.504,136.845L157.1,136.845C157.108,137.093 157.162,137.321 157.262,137.529C157.362,137.737 157.496,137.917 157.664,138.069C157.832,138.221 158.024,138.341 158.24,138.429C158.456,138.517 158.684,138.561 158.924,138.561C159.396,138.561 159.784,138.481 160.088,138.321C160.392,138.161 160.612,138.005 160.748,137.853L161.36,138.501ZM160.388,136.041C160.356,135.609 160.204,135.241 159.932,134.937C159.66,134.633 159.276,134.481 158.78,134.481C158.524,134.481 158.294,134.525 158.09,134.613C157.886,134.701 157.712,134.817 157.568,134.961C157.424,135.105 157.312,135.271 157.232,135.459C157.152,135.647 157.108,135.841 157.1,136.041L160.388,136.041Z" style="fill-rule:nonzero;"/>
    </g>
</svg>
