<?xml version="1.0" encoding="UTF-8" standalone="no"?>
<!DOCTYPE svg PUBLIC "-//W3C//DTD SVG 1.1//EN" "http://www.w3.org/Graphics/SVG/1.1/DTD/svg11.dtd">
<svg width="100%" height="100%" viewBox="0 0 120 380" version="1.1" xmlns="http://www.w3.org/2000/svg" xmlns:xlink="http://www.w3.org/1999/xlink" xml:space="preserve" xmlns:serif="http://www.serif.com/" style="fill-rule:evenodd;clip-rule:evenodd;stroke-linecap:round;stroke-linejoin:round;stroke-miterlimit:1.5;">
    <g id="svg8">
        <rect x="0" y="0" width="120" height="380" style="fill:rgb(240,240,240);"/>
        <g id="HCV-Logo" serif:id="HCV Logo">
            <path d="M39.81,374.578L38.204,374.578L38.204,369.247L32.128,369.247L32.128,374.578L30.522,374.578L30.522,363.154L32.128,363.154L32.128,367.873L38.204,367.873L38.204,363.154L39.81,363.154L39.81,374.578Z" style="fill:rgb(35,31,32);fill-rule:nonzero;"/>
            <path d="M48.018,374.578L41.197,374.578L41.197,363.154L47.886,363.154L47.886,364.496L42.803,364.496L42.803,367.906L47.604,367.906L47.604,369.247L42.803,369.247L42.803,373.221L48.018,373.221L48.018,374.578Z" style="fill:rgb(35,31,32);fill-rule:nonzero;"/>
            <path d="M56.891,364.496L53.679,364.496L53.679,374.578L52.073,374.578L52.073,364.496L48.845,364.496L48.845,363.154L56.891,363.154L56.891,364.496Z" style="fill:rgb(35,31,32);fill-rule:nonzero;"/>
            <path d="M62.601,364.877C62.088,364.496 61.475,364.463 60.681,364.463L59.505,364.463L59.505,368.337L60.681,368.337C61.475,368.337 62.088,368.304 62.601,367.94C63.115,367.559 63.33,367.095 63.33,366.399C63.33,365.721 63.115,365.241 62.601,364.877M65.648,374.578L63.71,374.578L60.73,369.661L59.505,369.661L59.505,374.578L57.899,374.578L57.899,363.154L61.127,363.154C62.27,363.154 63.197,363.42 63.876,363.949C64.555,364.496 64.985,365.323 64.985,366.366C64.985,368.37 63.594,369.264 62.386,369.496L65.648,374.578Z" style="fill:rgb(35,31,32);fill-rule:nonzero;"/>
            <rect x="66.84" y="363.154" width="1.605" height="11.424" style="fill:rgb(35,31,32);"/>
            <path d="M79.568,373.088C78.856,373.883 77.565,374.777 75.396,374.777C72.068,374.777 69.551,372.442 69.551,368.883C69.551,365.323 72.118,362.989 75.396,362.989C77.532,362.989 78.823,363.883 79.452,364.496L78.773,365.787C78.327,365.225 77.051,364.397 75.463,364.397C72.996,364.397 71.208,366.168 71.208,368.85C71.208,371.532 73.012,373.304 75.463,373.304C76.968,373.304 78.128,372.725 78.873,371.913L79.568,373.088Z" style="fill:rgb(237,50,36);fill-rule:nonzero;"/>
            <path d="M89.478,374.578L87.525,374.578L83.733,368.849L82.558,370.042L82.558,374.578L80.952,374.578L80.952,363.154L82.558,363.154L82.558,368.022L87.21,363.154L89.164,363.154L84.809,367.658L89.478,374.578Z" style="fill:rgb(237,50,36);fill-rule:nonzero;"/>
            <path d="M89.478,374.578L87.525,374.578L83.733,368.849L82.558,370.042L82.558,374.578L80.952,374.578L80.952,370.019L82.558,370.042L83.733,368.849L84.809,367.658L85.426,368.571L85.923,369.308L89.478,374.578Z" style="fill-rule:nonzero;"/>
        </g>
        <g id="Out">
            <path d="M115.738,300.534C115.738,297.223 113.049,294.534 109.738,294.534L11.982,294.534C8.671,294.534 5.982,297.223 5.982,300.534L5.982,348.534C5.982,351.846 8.671,354.534 11.982,354.534L109.738,354.534C113.049,354.534 115.738,351.846 115.738,348.534L115.738,300.534Z"/>
            <path d="M55.322,348.738C54.746,348.738 54.21,348.628 53.714,348.408C53.218,348.188 52.786,347.888 52.418,347.508C52.05,347.128 51.762,346.682 51.554,346.17C51.346,345.658 51.242,345.11 51.242,344.526C51.242,343.942 51.346,343.396 51.554,342.888C51.762,342.38 52.048,341.936 52.412,341.556C52.776,341.176 53.208,340.876 53.708,340.656C54.208,340.436 54.746,340.326 55.322,340.326C55.898,340.326 56.436,340.436 56.936,340.656C57.436,340.876 57.87,341.176 58.238,341.556C58.606,341.936 58.894,342.38 59.102,342.888C59.31,343.396 59.414,343.942 59.414,344.526C59.414,345.11 59.31,345.658 59.102,346.17C58.894,346.682 58.606,347.128 58.238,347.508C57.87,347.888 57.436,348.188 56.936,348.408C56.436,348.628 55.898,348.738 55.322,348.738ZM55.322,347.658C55.762,347.658 56.16,347.574 56.516,347.406C56.872,347.238 57.176,347.01 57.428,346.722C57.68,346.434 57.874,346.1 58.01,345.72C58.146,345.34 58.214,344.938 58.214,344.514C58.214,344.082 58.146,343.676 58.01,343.296C57.874,342.916 57.68,342.582 57.428,342.294C57.176,342.006 56.872,341.78 56.516,341.616C56.16,341.452 55.762,341.37 55.322,341.37C54.882,341.37 54.486,341.452 54.134,341.616C53.782,341.78 53.48,342.006 53.228,342.294C52.976,342.582 52.782,342.916 52.646,343.296C52.51,343.676 52.442,344.082 52.442,344.514C52.442,344.938 52.51,345.34 52.646,345.72C52.782,346.1 52.976,346.434 53.228,346.722C53.48,347.01 53.782,347.238 54.134,347.406C54.486,347.574 54.882,347.658 55.322,347.658Z" style="fill:white;fill-rule:nonzero;"/>
            <path d="M60.686,342.954L61.766,342.954L61.766,346.23C61.766,346.758 61.874,347.14 62.09,347.376C62.306,347.612 62.618,347.73 63.026,347.73C63.338,347.73 63.596,347.666 63.8,347.538C64.004,347.41 64.17,347.244 64.298,347.04C64.426,346.836 64.516,346.604 64.568,346.344C64.62,346.084 64.646,345.818 64.646,345.546L64.646,342.954L65.726,342.954L65.726,347.964C65.726,348.144 65.73,348.334 65.738,348.534L64.706,348.534L64.67,347.706C64.598,347.802 64.51,347.906 64.406,348.018C64.302,348.13 64.174,348.232 64.022,348.324C63.87,348.416 63.694,348.494 63.494,348.558C63.294,348.622 63.066,348.654 62.81,348.654C62.082,348.654 61.546,348.444 61.202,348.024C60.858,347.604 60.686,347.03 60.686,346.302L60.686,342.954Z" style="fill:white;fill-rule:nonzero;"/>
            <path d="M67.682,343.854L66.674,343.854L66.674,342.954L67.682,342.954L67.682,341.13L68.762,341.13L68.762,342.954L70.394,342.954L70.394,343.854L68.762,343.854L68.762,346.602C68.762,347.05 68.832,347.358 68.972,347.526C69.112,347.694 69.31,347.778 69.566,347.778C69.774,347.778 69.946,347.746 70.082,347.682C70.218,347.618 70.354,347.522 70.49,347.394L70.982,348.054C70.75,348.278 70.512,348.44 70.268,348.54C70.024,348.64 69.734,348.69 69.398,348.69C68.806,348.69 68.372,348.53 68.096,348.21C67.82,347.89 67.682,347.39 67.682,346.71L67.682,343.854Z" style="fill:white;fill-rule:nonzero;"/>
        </g>
        <g transform="matrix(1,0,0,1,-33.8501,0)">
            <g transform="matrix(18,0,0,18,67.3316,28.8369)">
                <path d="M0.076,-0.667L0.287,-0.667C0.332,-0.667 0.37,-0.661 0.4,-0.648C0.429,-0.635 0.453,-0.619 0.47,-0.6C0.488,-0.581 0.5,-0.559 0.507,-0.535C0.515,-0.511 0.518,-0.488 0.518,-0.465C0.518,-0.432 0.512,-0.402 0.501,-0.377C0.49,-0.352 0.474,-0.331 0.454,-0.314C0.434,-0.297 0.41,-0.284 0.383,-0.275C0.355,-0.266 0.325,-0.262 0.292,-0.262L0.171,-0.262L0.171,-0L0.076,-0L0.076,-0.667ZM0.291,-0.344C0.332,-0.344 0.364,-0.355 0.387,-0.376C0.409,-0.397 0.42,-0.426 0.42,-0.463C0.42,-0.501 0.408,-0.531 0.386,-0.553C0.363,-0.574 0.331,-0.585 0.291,-0.585L0.171,-0.585L0.171,-0.344L0.291,-0.344Z" style="fill-rule:nonzero;"/>
            </g>
            <g transform="matrix(18,0,0,18,76.9814,28.8369)">
                <path d="M0.061,-0.667L0.15,-0.667L0.15,-0.396C0.156,-0.404 0.163,-0.413 0.172,-0.422C0.181,-0.431 0.191,-0.44 0.204,-0.448C0.217,-0.456 0.231,-0.463 0.248,-0.468C0.265,-0.473 0.284,-0.476 0.305,-0.476C0.366,-0.476 0.411,-0.458 0.44,-0.423C0.469,-0.388 0.484,-0.34 0.484,-0.279L0.484,-0L0.394,-0L0.394,-0.272C0.394,-0.315 0.385,-0.347 0.366,-0.368C0.347,-0.388 0.321,-0.398 0.287,-0.398C0.261,-0.398 0.239,-0.393 0.222,-0.382C0.205,-0.371 0.191,-0.358 0.181,-0.341C0.17,-0.324 0.163,-0.304 0.158,-0.282C0.153,-0.261 0.151,-0.239 0.151,-0.216L0.151,-0L0.061,-0L0.061,-0.667Z" style="fill-rule:nonzero;"/>
            </g>
            <g transform="matrix(18,0,0,18,86.5772,28.8369)">
                <path d="M0.352,-0.22C0.349,-0.221 0.344,-0.222 0.337,-0.223C0.329,-0.224 0.32,-0.224 0.31,-0.225C0.3,-0.226 0.289,-0.226 0.278,-0.227C0.267,-0.228 0.256,-0.228 0.245,-0.228C0.22,-0.228 0.199,-0.225 0.184,-0.219C0.168,-0.213 0.156,-0.205 0.147,-0.197C0.138,-0.188 0.131,-0.178 0.128,-0.167C0.125,-0.156 0.123,-0.145 0.123,-0.135C0.123,-0.11 0.132,-0.091 0.149,-0.078C0.166,-0.065 0.19,-0.058 0.221,-0.058C0.238,-0.058 0.255,-0.061 0.271,-0.067C0.286,-0.073 0.3,-0.081 0.312,-0.091C0.324,-0.101 0.334,-0.113 0.341,-0.126C0.348,-0.139 0.352,-0.153 0.352,-0.167L0.352,-0.22ZM0.353,-0.056C0.336,-0.033 0.313,-0.015 0.284,-0.004C0.256,0.007 0.227,0.013 0.197,0.013C0.178,0.013 0.159,0.01 0.14,0.005C0.121,0 0.103,-0.008 0.087,-0.02C0.072,-0.031 0.059,-0.046 0.05,-0.065C0.04,-0.083 0.035,-0.105 0.035,-0.132C0.035,-0.182 0.053,-0.222 0.087,-0.252C0.123,-0.282 0.173,-0.297 0.239,-0.297C0.25,-0.297 0.261,-0.297 0.273,-0.296C0.285,-0.295 0.296,-0.295 0.307,-0.294C0.318,-0.293 0.327,-0.293 0.335,-0.292C0.343,-0.291 0.349,-0.291 0.352,-0.29L0.352,-0.307C0.352,-0.342 0.342,-0.367 0.321,-0.382C0.3,-0.397 0.271,-0.404 0.235,-0.404C0.2,-0.404 0.172,-0.399 0.151,-0.39C0.13,-0.38 0.113,-0.37 0.099,-0.36L0.057,-0.421C0.065,-0.428 0.075,-0.434 0.086,-0.441C0.097,-0.448 0.111,-0.454 0.126,-0.46C0.141,-0.465 0.159,-0.47 0.178,-0.473C0.197,-0.477 0.22,-0.479 0.245,-0.479C0.305,-0.479 0.352,-0.465 0.387,-0.436C0.421,-0.406 0.438,-0.365 0.438,-0.312L0.438,-0.042C0.438,-0.025 0.438,-0.011 0.439,-0L0.355,-0L0.353,-0.056Z" style="fill-rule:nonzero;"/>
            </g>
            <g transform="matrix(18,0,0,18,95.381,28.8369)">
                <path d="M0.092,-0.117C0.109,-0.1 0.129,-0.087 0.152,-0.077C0.175,-0.067 0.202,-0.062 0.233,-0.062C0.263,-0.062 0.288,-0.067 0.308,-0.077C0.328,-0.086 0.338,-0.101 0.338,-0.122C0.338,-0.133 0.336,-0.142 0.332,-0.15C0.327,-0.157 0.32,-0.164 0.31,-0.17C0.299,-0.176 0.285,-0.182 0.269,-0.187C0.252,-0.192 0.23,-0.197 0.205,-0.203C0.187,-0.207 0.169,-0.212 0.152,-0.219C0.134,-0.226 0.118,-0.234 0.104,-0.246C0.09,-0.257 0.079,-0.27 0.07,-0.285C0.061,-0.301 0.057,-0.32 0.057,-0.342C0.057,-0.365 0.062,-0.385 0.073,-0.402C0.083,-0.419 0.097,-0.433 0.114,-0.445C0.131,-0.456 0.151,-0.465 0.172,-0.471C0.194,-0.477 0.217,-0.48 0.24,-0.48C0.279,-0.48 0.313,-0.475 0.342,-0.465C0.37,-0.454 0.395,-0.44 0.416,-0.421L0.367,-0.359C0.353,-0.372 0.336,-0.382 0.315,-0.391C0.294,-0.4 0.269,-0.404 0.241,-0.404C0.212,-0.404 0.189,-0.399 0.172,-0.39C0.155,-0.381 0.146,-0.365 0.146,-0.344C0.146,-0.324 0.158,-0.309 0.181,-0.3C0.203,-0.29 0.234,-0.281 0.271,-0.272C0.293,-0.267 0.314,-0.261 0.333,-0.254C0.352,-0.247 0.368,-0.237 0.383,-0.227C0.397,-0.216 0.408,-0.202 0.417,-0.186C0.425,-0.17 0.429,-0.151 0.429,-0.128C0.429,-0.105 0.424,-0.084 0.413,-0.067C0.402,-0.049 0.388,-0.034 0.37,-0.022C0.352,-0.01 0.331,-0.001 0.308,0.005C0.285,0.011 0.26,0.014 0.235,0.014C0.147,0.014 0.081,-0.01 0.037,-0.057L0.092,-0.117Z" style="fill-rule:nonzero;"/>
            </g>
            <g transform="matrix(18,0,0,18,103.699,28.8369)">
                <path d="M0.286,0.014C0.25,0.014 0.217,0.007 0.187,-0.006C0.157,-0.019 0.131,-0.036 0.11,-0.059C0.088,-0.082 0.071,-0.108 0.059,-0.138C0.046,-0.167 0.04,-0.199 0.04,-0.233C0.04,-0.267 0.046,-0.299 0.059,-0.329C0.071,-0.358 0.088,-0.384 0.11,-0.407C0.131,-0.43 0.157,-0.448 0.187,-0.461C0.217,-0.473 0.25,-0.48 0.286,-0.48C0.321,-0.48 0.354,-0.473 0.384,-0.461C0.414,-0.448 0.44,-0.43 0.462,-0.407C0.484,-0.384 0.501,-0.358 0.514,-0.329C0.526,-0.299 0.532,-0.267 0.532,-0.233C0.532,-0.199 0.526,-0.167 0.514,-0.138C0.501,-0.108 0.484,-0.082 0.462,-0.059C0.44,-0.036 0.414,-0.019 0.384,-0.006C0.354,0.007 0.321,0.014 0.286,0.014ZM0.286,-0.064C0.31,-0.064 0.332,-0.069 0.351,-0.079C0.37,-0.088 0.387,-0.101 0.4,-0.117C0.413,-0.132 0.424,-0.15 0.431,-0.171C0.438,-0.191 0.441,-0.212 0.441,-0.233C0.441,-0.254 0.438,-0.274 0.431,-0.295C0.424,-0.315 0.413,-0.333 0.4,-0.349C0.386,-0.365 0.37,-0.378 0.35,-0.388C0.332,-0.397 0.31,-0.402 0.286,-0.402C0.262,-0.402 0.24,-0.397 0.221,-0.388C0.202,-0.378 0.185,-0.365 0.172,-0.349C0.159,-0.334 0.149,-0.316 0.141,-0.296C0.135,-0.275 0.131,-0.254 0.131,-0.233C0.131,-0.212 0.135,-0.191 0.141,-0.171C0.149,-0.151 0.159,-0.133 0.172,-0.117C0.186,-0.101 0.203,-0.088 0.222,-0.079C0.241,-0.069 0.262,-0.064 0.286,-0.064Z" style="fill-rule:nonzero;"/>
            </g>
            <g transform="matrix(18,0,0,18,113.817,28.8369)">
                <path d="M0.062,-0L0.062,-0.421C0.062,-0.435 0.062,-0.45 0.061,-0.465L0.147,-0.465L0.15,-0.39C0.155,-0.398 0.162,-0.407 0.171,-0.417C0.18,-0.426 0.19,-0.435 0.203,-0.443C0.215,-0.451 0.229,-0.458 0.246,-0.464C0.262,-0.469 0.281,-0.472 0.302,-0.472C0.312,-0.472 0.321,-0.471 0.33,-0.47C0.338,-0.469 0.346,-0.467 0.353,-0.464L0.333,-0.38C0.321,-0.385 0.306,-0.387 0.287,-0.387C0.268,-0.387 0.25,-0.383 0.234,-0.376C0.217,-0.369 0.203,-0.359 0.191,-0.345C0.179,-0.333 0.17,-0.317 0.163,-0.3C0.156,-0.283 0.152,-0.264 0.152,-0.245L0.152,-0L0.062,-0Z" style="fill-rule:nonzero;"/>
            </g>
            <g transform="matrix(18,0,0,18,60.8858,46.8369)">
                <path d="M0.076,-0.667L0.299,-0.667C0.352,-0.667 0.4,-0.661 0.445,-0.648C0.489,-0.634 0.527,-0.614 0.559,-0.587C0.591,-0.559 0.616,-0.524 0.634,-0.482C0.652,-0.44 0.661,-0.39 0.661,-0.332C0.661,-0.276 0.652,-0.227 0.634,-0.186C0.616,-0.144 0.591,-0.109 0.559,-0.082C0.527,-0.054 0.489,-0.033 0.444,-0.02C0.399,-0.007 0.351,-0 0.298,-0L0.076,-0L0.076,-0.667ZM0.296,-0.086C0.379,-0.086 0.444,-0.107 0.491,-0.148C0.537,-0.189 0.56,-0.249 0.56,-0.33C0.56,-0.411 0.538,-0.473 0.493,-0.517C0.448,-0.56 0.382,-0.581 0.293,-0.581L0.172,-0.581L0.172,-0.086L0.296,-0.086Z" style="fill-rule:nonzero;"/>
            </g>
            <g transform="matrix(18,0,0,18,73.5776,46.8369)">
                <path d="M0.06,-0.649L0.161,-0.649L0.161,-0.548L0.06,-0.548L0.06,-0.649ZM0.066,-0.465L0.156,-0.465L0.156,-0L0.066,-0L0.066,-0.465Z" style="fill-rule:nonzero;"/>
            </g>
            <g transform="matrix(18,0,0,18,77.3954,46.8369)">
                <path d="M0.006,-0.465L0.109,-0.465L0.254,-0.102L0.398,-0.465L0.495,-0.465L0.296,-0L0.206,-0L0.006,-0.465Z" style="fill-rule:nonzero;"/>
            </g>
            <g transform="matrix(18,0,0,18,85.8932,46.8369)">
                <path d="M0.291,-0.685L0.38,-0.685L0.116,0.016L0.025,0.016L0.291,-0.685Z" style="fill-rule:nonzero;"/>
            </g>
            <g transform="matrix(18,0,0,18,92.663,46.8369)">
                <path d="M0.099,-0.667L0.191,-0.667L0.394,-0.32L0.597,-0.667L0.687,-0.667L0.718,-0L0.624,-0L0.602,-0.512L0.414,-0.197L0.366,-0.197L0.181,-0.508L0.158,-0L0.068,-0L0.099,-0.667Z" style="fill-rule:nonzero;"/>
            </g>
            <g transform="matrix(18,0,0,18,106.651,46.8369)">
                <path d="M0.059,-0.465L0.149,-0.465L0.149,-0.192C0.149,-0.148 0.158,-0.116 0.176,-0.097C0.194,-0.077 0.22,-0.067 0.254,-0.067C0.28,-0.067 0.302,-0.072 0.319,-0.083C0.336,-0.094 0.349,-0.108 0.36,-0.125C0.371,-0.141 0.378,-0.161 0.383,-0.183C0.387,-0.204 0.389,-0.226 0.389,-0.249L0.389,-0.465L0.479,-0.465L0.479,-0.048C0.479,-0.033 0.479,-0.017 0.48,-0L0.394,-0L0.391,-0.069C0.385,-0.061 0.378,-0.052 0.369,-0.043C0.36,-0.034 0.35,-0.025 0.337,-0.018C0.324,-0.01 0.31,-0.003 0.293,0.002C0.276,0.007 0.257,0.01 0.236,0.01C0.175,0.01 0.131,-0.008 0.102,-0.043C0.073,-0.078 0.059,-0.125 0.059,-0.186L0.059,-0.465Z" style="fill-rule:nonzero;"/>
            </g>
            <g transform="matrix(18,0,0,18,116.229,46.8369)">
                <rect x="0.062" y="-0.667" width="0.09" height="0.667" style="fill-rule:nonzero;"/>
            </g>
            <g transform="matrix(18,0,0,18,119.902,46.8369)">
                <path d="M0.102,-0.39L0.018,-0.39L0.018,-0.465L0.102,-0.465L0.102,-0.617L0.192,-0.617L0.192,-0.465L0.328,-0.465L0.328,-0.39L0.192,-0.39L0.192,-0.161C0.192,-0.124 0.198,-0.098 0.21,-0.084C0.221,-0.07 0.238,-0.063 0.259,-0.063C0.276,-0.063 0.291,-0.066 0.302,-0.071C0.313,-0.076 0.325,-0.084 0.336,-0.095L0.377,-0.04C0.358,-0.021 0.338,-0.008 0.318,0C0.297,0.009 0.273,0.013 0.245,0.013C0.196,0.013 0.16,-0 0.137,-0.027C0.114,-0.054 0.102,-0.095 0.102,-0.152L0.102,-0.39Z" style="fill-rule:nonzero;"/>
            </g>
        </g>
        <rect x="30" y="273.827" width="1.152" height="8.004" style="fill-rule:nonzero;"/>
        <path d="M32.784,281.831L32.784,276.821C32.784,276.641 32.78,276.451 32.772,276.251L33.804,276.251L33.84,277.091C33.912,276.995 34,276.889 34.104,276.773C34.208,276.657 34.336,276.551 34.488,276.455C34.64,276.359 34.818,276.279 35.022,276.215C35.226,276.151 35.456,276.119 35.712,276.119C36.44,276.119 36.98,276.331 37.332,276.755C37.684,277.179 37.86,277.755 37.86,278.483L37.86,281.831L36.78,281.831L36.78,278.567C36.78,278.047 36.668,277.665 36.444,277.421C36.22,277.177 35.904,277.055 35.496,277.055C35.184,277.055 34.924,277.119 34.716,277.247C34.508,277.375 34.342,277.541 34.218,277.745C34.094,277.949 34.004,278.181 33.948,278.441C33.892,278.701 33.864,278.967 33.864,279.239L33.864,281.831L32.784,281.831Z" style="fill-rule:nonzero;"/>
        <path d="M71.739,281.567C71.459,281.711 71.157,281.825 70.833,281.909C70.509,281.993 70.171,282.035 69.819,282.035C69.243,282.035 68.705,281.925 68.205,281.705C67.705,281.485 67.271,281.187 66.903,280.811C66.535,280.435 66.247,279.991 66.039,279.479C65.831,278.967 65.727,278.419 65.727,277.835C65.727,277.251 65.831,276.703 66.039,276.191C66.247,275.679 66.535,275.233 66.903,274.853C67.271,274.473 67.705,274.173 68.205,273.953C68.705,273.733 69.243,273.623 69.819,273.623C70.395,273.623 70.933,273.733 71.433,273.953C71.933,274.173 72.367,274.473 72.735,274.853C73.103,275.233 73.391,275.679 73.599,276.191C73.807,276.703 73.911,277.251 73.911,277.835C73.911,278.483 73.785,279.081 73.533,279.629C73.281,280.177 72.935,280.643 72.495,281.027L73.455,282.191L72.747,282.791L71.739,281.567ZM70.047,279.467L70.767,278.867L71.787,280.139C72.075,279.859 72.299,279.517 72.459,279.113C72.619,278.709 72.699,278.275 72.699,277.811C72.699,277.379 72.631,276.973 72.495,276.593C72.359,276.213 72.165,275.881 71.913,275.597C71.661,275.313 71.359,275.087 71.007,274.919C70.655,274.751 70.259,274.667 69.819,274.667C69.379,274.667 68.983,274.751 68.631,274.919C68.279,275.087 67.977,275.313 67.725,275.597C67.473,275.881 67.279,276.213 67.143,276.593C67.007,276.973 66.939,277.379 66.939,277.811C66.939,278.243 67.007,278.649 67.143,279.029C67.279,279.409 67.473,279.743 67.725,280.031C67.977,280.319 68.279,280.547 68.631,280.715C68.983,280.883 69.379,280.967 69.819,280.967C70.259,280.967 70.667,280.879 71.043,280.703L70.047,279.467Z" style="fill-rule:nonzero;"/>
        <path d="M75.183,276.251L76.263,276.251L76.263,279.527C76.263,280.055 76.371,280.437 76.587,280.673C76.803,280.909 77.115,281.027 77.523,281.027C77.835,281.027 78.093,280.963 78.297,280.835C78.501,280.707 78.667,280.541 78.795,280.337C78.923,280.133 79.013,279.901 79.065,279.641C79.117,279.381 79.143,279.115 79.143,278.843L79.143,276.251L80.223,276.251L80.223,281.261C80.223,281.441 80.227,281.631 80.235,281.831L79.203,281.831L79.167,281.003C79.095,281.099 79.007,281.203 78.903,281.315C78.799,281.427 78.671,281.529 78.519,281.621C78.367,281.713 78.191,281.791 77.991,281.855C77.791,281.919 77.563,281.951 77.307,281.951C76.579,281.951 76.043,281.741 75.699,281.321C75.355,280.901 75.183,280.327 75.183,279.599L75.183,276.251Z" style="fill-rule:nonzero;"/>
        <path d="M85.179,279.191C85.147,279.183 85.085,279.173 84.993,279.161C84.901,279.149 84.795,279.139 84.675,279.131C84.555,279.123 84.427,279.115 84.291,279.107C84.155,279.099 84.023,279.095 83.895,279.095C83.591,279.095 83.345,279.131 83.157,279.203C82.969,279.275 82.821,279.365 82.713,279.473C82.605,279.581 82.531,279.701 82.491,279.833C82.451,279.965 82.431,280.091 82.431,280.211C82.431,280.515 82.535,280.745 82.743,280.901C82.951,281.057 83.239,281.135 83.607,281.135C83.815,281.135 84.013,281.099 84.201,281.027C84.389,280.955 84.555,280.859 84.699,280.739C84.843,280.619 84.959,280.479 85.047,280.319C85.135,280.159 85.179,279.995 85.179,279.827L85.179,279.191ZM85.191,281.159C84.983,281.439 84.709,281.647 84.369,281.783C84.029,281.919 83.679,281.987 83.319,281.987C83.087,281.987 82.857,281.957 82.629,281.897C82.401,281.837 82.193,281.737 82.005,281.597C81.817,281.457 81.665,281.277 81.549,281.057C81.433,280.837 81.375,280.567 81.375,280.247C81.375,279.647 81.585,279.167 82.005,278.807C82.425,278.447 83.031,278.267 83.823,278.267C83.951,278.267 84.087,278.271 84.231,278.279C84.375,278.287 84.511,278.295 84.639,278.303C84.767,278.311 84.879,278.319 84.975,278.327C85.071,278.335 85.139,278.343 85.179,278.351L85.179,278.147C85.179,277.731 85.053,277.433 84.801,277.253C84.549,277.073 84.207,276.983 83.775,276.983C83.351,276.983 83.015,277.041 82.767,277.157C82.519,277.273 82.311,277.391 82.143,277.511L81.639,276.779C81.735,276.699 81.851,276.619 81.987,276.539C82.123,276.459 82.283,276.385 82.467,276.317C82.651,276.249 82.859,276.193 83.091,276.149C83.323,276.105 83.591,276.083 83.895,276.083C84.615,276.083 85.181,276.257 85.593,276.605C86.005,276.953 86.211,277.447 86.211,278.087L86.211,281.333C86.211,281.529 86.215,281.695 86.223,281.831L85.215,281.831L85.191,281.159Z" style="fill-rule:nonzero;"/>
        <path d="M87.663,281.831L87.663,276.821C87.663,276.641 87.659,276.451 87.651,276.251L88.683,276.251L88.719,277.091C88.791,276.995 88.879,276.889 88.983,276.773C89.087,276.657 89.215,276.551 89.367,276.455C89.519,276.359 89.697,276.279 89.901,276.215C90.105,276.151 90.335,276.119 90.591,276.119C91.319,276.119 91.859,276.331 92.211,276.755C92.563,277.179 92.739,277.755 92.739,278.483L92.739,281.831L91.659,281.831L91.659,278.567C91.659,278.047 91.547,277.665 91.323,277.421C91.099,277.177 90.783,277.055 90.375,277.055C90.063,277.055 89.803,277.119 89.595,277.247C89.387,277.375 89.221,277.541 89.097,277.745C88.973,277.949 88.883,278.181 88.827,278.441C88.771,278.701 88.743,278.967 88.743,279.239L88.743,281.831L87.663,281.831Z" style="fill-rule:nonzero;"/>
        <path d="M94.647,277.151L93.639,277.151L93.639,276.251L94.647,276.251L94.647,274.427L95.727,274.427L95.727,276.251L97.359,276.251L97.359,277.151L95.727,277.151L95.727,279.899C95.727,280.347 95.797,280.655 95.937,280.823C96.077,280.991 96.275,281.075 96.531,281.075C96.739,281.075 96.911,281.043 97.047,280.979C97.183,280.915 97.319,280.819 97.455,280.691L97.947,281.351C97.715,281.575 97.477,281.737 97.233,281.837C96.989,281.937 96.699,281.987 96.363,281.987C95.771,281.987 95.337,281.827 95.061,281.507C94.785,281.187 94.647,280.687 94.647,280.007L94.647,277.151Z" style="fill-rule:nonzero;"/>
        <path d="M98.727,274.043L99.939,274.043L99.939,275.255L98.727,275.255L98.727,274.043ZM98.799,276.251L99.879,276.251L99.879,281.831L98.799,281.831L98.799,276.251Z" style="fill-rule:nonzero;"/>
        <path d="M101.271,280.979L104.463,277.163L101.379,277.163L101.379,276.251L105.783,276.251L105.783,277.115L102.531,280.931L105.819,280.931L105.819,281.831L101.271,281.831L101.271,280.979Z" style="fill-rule:nonzero;"/>
        <path d="M112.167,281.015C112.103,281.087 112.007,281.179 111.879,281.291C111.751,281.403 111.585,281.511 111.381,281.615C111.177,281.719 110.937,281.809 110.661,281.885C110.385,281.961 110.071,281.999 109.719,281.999C109.287,281.999 108.891,281.927 108.531,281.783C108.171,281.639 107.863,281.435 107.607,281.171C107.351,280.907 107.153,280.591 107.013,280.223C106.873,279.855 106.803,279.447 106.803,278.999C106.803,278.591 106.871,278.209 107.007,277.853C107.143,277.497 107.335,277.189 107.583,276.929C107.831,276.669 108.125,276.463 108.465,276.311C108.805,276.159 109.179,276.083 109.587,276.083C110.067,276.083 110.479,276.175 110.823,276.359C111.167,276.543 111.449,276.787 111.669,277.091C111.889,277.395 112.051,277.743 112.155,278.135C112.259,278.527 112.311,278.935 112.311,279.359L107.907,279.359C107.915,279.607 107.969,279.835 108.069,280.043C108.169,280.251 108.303,280.431 108.471,280.583C108.639,280.735 108.831,280.855 109.047,280.943C109.263,281.031 109.491,281.075 109.731,281.075C110.203,281.075 110.591,280.995 110.895,280.835C111.199,280.675 111.419,280.519 111.555,280.367L112.167,281.015ZM111.195,278.555C111.163,278.123 111.011,277.755 110.739,277.451C110.467,277.147 110.083,276.995 109.587,276.995C109.331,276.995 109.101,277.039 108.897,277.127C108.693,277.215 108.519,277.331 108.375,277.475C108.231,277.619 108.119,277.785 108.039,277.973C107.959,278.161 107.915,278.355 107.907,278.555L111.195,278.555Z" style="fill-rule:nonzero;"/>
        <g id="XY-Controls" serif:id="XY Controls">
            <g id="X">
                <path d="M18,75.441L20.676,75.441C21.308,75.441 21.89,75.519 22.422,75.675C22.954,75.831 23.412,76.075 23.796,76.407C24.18,76.739 24.48,77.157 24.696,77.661C24.912,78.165 25.02,78.765 25.02,79.461C25.02,80.133 24.912,80.719 24.696,81.219C24.48,81.719 24.18,82.135 23.796,82.467C23.412,82.799 22.952,83.045 22.416,83.205C21.88,83.365 21.296,83.445 20.664,83.445L18,83.445L18,75.441ZM20.64,82.413C21.64,82.413 22.418,82.167 22.974,81.675C23.53,81.183 23.808,80.453 23.808,79.485C23.808,78.509 23.54,77.763 23.004,77.247C22.468,76.731 21.668,76.473 20.604,76.473L19.152,76.473L19.152,82.413L20.64,82.413Z" style="fill-rule:nonzero;"/>
                <path d="M26.304,75.657L27.516,75.657L27.516,76.869L26.304,76.869L26.304,75.657ZM26.376,77.865L27.456,77.865L27.456,83.445L26.376,83.445L26.376,77.865Z" style="fill-rule:nonzero;"/>
                <path d="M28.236,77.865L29.472,77.865L31.212,82.221L32.94,77.865L34.104,77.865L31.716,83.445L30.636,83.445L28.236,77.865Z" style="fill-rule:nonzero;"/>
                <path d="M34.824,75.657L36.036,75.657L36.036,76.869L34.824,76.869L34.824,75.657ZM34.896,77.865L35.976,77.865L35.976,83.445L34.896,83.445L34.896,77.865Z" style="fill-rule:nonzero;"/>
                <path d="M41.448,79.101C41.368,79.037 41.22,78.951 41.004,78.843C40.788,78.735 40.48,78.681 40.08,78.681C39.816,78.681 39.574,78.729 39.354,78.825C39.134,78.921 38.942,79.057 38.778,79.233C38.614,79.409 38.486,79.625 38.394,79.881C38.302,80.137 38.256,80.425 38.256,80.745C38.256,81.009 38.288,81.259 38.352,81.495C38.416,81.731 38.514,81.937 38.646,82.113C38.778,82.289 38.946,82.427 39.15,82.527C39.354,82.627 39.596,82.677 39.876,82.677C40.156,82.677 40.396,82.625 40.596,82.521C40.796,82.417 40.958,82.287 41.082,82.131C41.206,81.975 41.298,81.803 41.358,81.615C41.418,81.427 41.448,81.253 41.448,81.093L41.448,79.101ZM41.448,82.737C41.408,82.785 41.342,82.859 41.25,82.959C41.158,83.059 41.036,83.157 40.884,83.253C40.732,83.349 40.554,83.433 40.35,83.505C40.146,83.577 39.908,83.613 39.636,83.613C39.284,83.613 38.956,83.545 38.652,83.409C38.348,83.273 38.084,83.081 37.86,82.833C37.636,82.585 37.462,82.283 37.338,81.927C37.214,81.571 37.152,81.173 37.152,80.733C37.152,80.205 37.244,79.751 37.428,79.371C37.612,78.991 37.846,78.679 38.13,78.435C38.414,78.191 38.722,78.013 39.054,77.901C39.386,77.789 39.7,77.733 39.996,77.733C40.396,77.733 40.708,77.781 40.932,77.877C41.156,77.973 41.328,78.045 41.448,78.093L41.448,75.441L42.528,75.441L42.528,82.875C42.528,83.055 42.532,83.245 42.54,83.445L41.484,83.445L41.448,82.737Z" style="fill-rule:nonzero;"/>
                <path d="M49.032,82.629C48.968,82.701 48.872,82.793 48.744,82.905C48.616,83.017 48.45,83.125 48.246,83.229C48.042,83.333 47.802,83.423 47.526,83.499C47.25,83.575 46.936,83.613 46.584,83.613C46.152,83.613 45.756,83.541 45.396,83.397C45.036,83.253 44.728,83.049 44.472,82.785C44.216,82.521 44.018,82.205 43.878,81.837C43.738,81.469 43.668,81.061 43.668,80.613C43.668,80.205 43.736,79.823 43.872,79.467C44.008,79.111 44.2,78.803 44.448,78.543C44.696,78.283 44.99,78.077 45.33,77.925C45.67,77.773 46.044,77.697 46.452,77.697C46.932,77.697 47.344,77.789 47.688,77.973C48.032,78.157 48.314,78.401 48.534,78.705C48.754,79.009 48.916,79.357 49.02,79.749C49.124,80.141 49.176,80.549 49.176,80.973L44.772,80.973C44.78,81.221 44.834,81.449 44.934,81.657C45.034,81.865 45.168,82.045 45.336,82.197C45.504,82.349 45.696,82.469 45.912,82.557C46.128,82.645 46.356,82.689 46.596,82.689C47.068,82.689 47.456,82.609 47.76,82.449C48.064,82.289 48.284,82.133 48.42,81.981L49.032,82.629ZM48.06,80.169C48.028,79.737 47.876,79.369 47.604,79.065C47.332,78.761 46.948,78.609 46.452,78.609C46.196,78.609 45.966,78.653 45.762,78.741C45.558,78.829 45.384,78.945 45.24,79.089C45.096,79.233 44.984,79.399 44.904,79.587C44.824,79.775 44.78,79.969 44.772,80.169L48.06,80.169Z" style="fill-rule:nonzero;"/>
                <path d="M33.36,102.2L33.36,213.877" style="fill:none;stroke:black;stroke-width:1px;stroke-dasharray:2,2,0,0;"/>
                <rect x="19.9" y="165.031" width="2.216" height="0.943" style="fill-rule:nonzero;"/>
                <path d="M46.708,166.358L46.708,165.255L45.292,165.255L45.292,163.839L44.189,163.839L44.189,165.255L42.773,165.255L42.773,166.358L44.189,166.358L44.189,167.774L45.292,167.774L45.292,166.358L46.708,166.358Z" style="fill-rule:nonzero;"/>
            </g>
            <g id="Y">
                <path d="M69.304,75.441L70.408,75.441L72.844,79.605L75.28,75.441L76.36,75.441L76.732,83.445L75.604,83.445L75.34,77.301L73.084,81.081L72.508,81.081L70.288,77.349L70.012,83.445L68.932,83.445L69.304,75.441Z" style="fill-rule:nonzero;"/>
                <path d="M78.184,77.865L79.264,77.865L79.264,81.141C79.264,81.669 79.372,82.051 79.588,82.287C79.804,82.523 80.116,82.641 80.524,82.641C80.836,82.641 81.094,82.577 81.298,82.449C81.502,82.321 81.668,82.155 81.796,81.951C81.924,81.747 82.014,81.515 82.066,81.255C82.118,80.995 82.144,80.729 82.144,80.457L82.144,77.865L83.224,77.865L83.224,82.875C83.224,83.055 83.228,83.245 83.236,83.445L82.204,83.445L82.168,82.617C82.096,82.713 82.008,82.817 81.904,82.929C81.8,83.041 81.672,83.143 81.52,83.235C81.368,83.327 81.192,83.405 80.992,83.469C80.792,83.533 80.564,83.565 80.308,83.565C79.58,83.565 79.044,83.355 78.7,82.935C78.356,82.515 78.184,81.941 78.184,81.213L78.184,77.865Z" style="fill-rule:nonzero;"/>
                <rect x="84.64" y="75.441" width="1.08" height="8.004" style="fill-rule:nonzero;"/>
                <path d="M87.604,78.765L86.596,78.765L86.596,77.865L87.604,77.865L87.604,76.041L88.684,76.041L88.684,77.865L90.316,77.865L90.316,78.765L88.684,78.765L88.684,81.513C88.684,81.961 88.754,82.269 88.894,82.437C89.034,82.605 89.232,82.689 89.488,82.689C89.696,82.689 89.868,82.657 90.004,82.593C90.14,82.529 90.276,82.433 90.412,82.305L90.904,82.965C90.672,83.189 90.434,83.351 90.19,83.451C89.946,83.551 89.656,83.601 89.32,83.601C88.728,83.601 88.294,83.441 88.018,83.121C87.742,82.801 87.604,82.301 87.604,81.621L87.604,78.765Z" style="fill-rule:nonzero;"/>
                <path d="M91.624,75.657L92.836,75.657L92.836,76.869L91.624,76.869L91.624,75.657ZM91.696,77.865L92.776,77.865L92.776,83.445L91.696,83.445L91.696,77.865Z" style="fill-rule:nonzero;"/>
                <path d="M94.228,85.845L94.228,78.435C94.228,78.255 94.224,78.065 94.216,77.865L95.248,77.865L95.284,78.657C95.34,78.585 95.42,78.497 95.524,78.393C95.628,78.289 95.758,78.189 95.914,78.093C96.07,77.997 96.252,77.915 96.46,77.847C96.668,77.779 96.908,77.745 97.18,77.745C97.612,77.745 97.986,77.825 98.302,77.985C98.618,78.145 98.88,78.361 99.088,78.633C99.296,78.905 99.45,79.217 99.55,79.569C99.65,79.921 99.7,80.293 99.7,80.685C99.7,81.189 99.614,81.625 99.442,81.993C99.27,82.361 99.046,82.665 98.77,82.905C98.494,83.145 98.186,83.323 97.846,83.439C97.506,83.555 97.172,83.613 96.844,83.613C96.468,83.613 96.166,83.575 95.938,83.499C95.71,83.423 95.496,83.341 95.296,83.253L95.296,85.845L94.228,85.845ZM95.296,82.233C95.424,82.337 95.608,82.437 95.848,82.533C96.088,82.629 96.388,82.677 96.748,82.677C97.02,82.677 97.27,82.627 97.498,82.527C97.726,82.427 97.922,82.287 98.086,82.107C98.25,81.927 98.376,81.717 98.464,81.477C98.552,81.237 98.596,80.973 98.596,80.685C98.596,80.413 98.566,80.157 98.506,79.917C98.446,79.677 98.35,79.465 98.218,79.281C98.086,79.097 97.916,78.951 97.708,78.843C97.5,78.735 97.244,78.681 96.94,78.681C96.556,78.681 96.228,78.787 95.956,78.999C95.684,79.211 95.492,79.521 95.38,79.929C95.34,80.057 95.316,80.195 95.308,80.343C95.3,80.491 95.296,80.645 95.296,80.805L95.296,82.233Z" style="fill-rule:nonzero;"/>
                <rect x="100.84" y="75.441" width="1.08" height="8.004" style="fill-rule:nonzero;"/>
                <path d="M103.348,84.813C103.428,84.885 103.52,84.949 103.624,85.005C103.728,85.061 103.856,85.089 104.008,85.089C104.136,85.089 104.246,85.061 104.338,85.005C104.43,84.949 104.514,84.863 104.59,84.747C104.666,84.631 104.738,84.491 104.806,84.327C104.874,84.163 104.952,83.973 105.04,83.757L105.184,83.397L102.688,77.865L103.924,77.865L105.724,82.077L107.308,77.865L108.484,77.865L106.252,83.301C106.148,83.557 106.042,83.839 105.934,84.147C105.826,84.455 105.692,84.747 105.532,85.023C105.372,85.299 105.176,85.529 104.944,85.713C104.712,85.897 104.42,85.989 104.068,85.989C103.788,85.989 103.552,85.951 103.36,85.875C103.168,85.799 103,85.697 102.856,85.569L103.348,84.813Z" style="fill-rule:nonzero;"/>
                <path d="M88.36,102.2L88.36,213.877" style="fill:none;stroke:black;stroke-width:1px;stroke-dasharray:2,2,0,0;"/>
                <rect x="74.9" y="165.031" width="2.216" height="0.943" style="fill-rule:nonzero;"/>
                <path d="M101.708,166.358L101.708,165.255L100.292,165.255L100.292,163.839L99.189,163.839L99.189,165.255L97.773,165.255L97.773,166.358L99.189,166.358L99.189,167.774L100.292,167.774L100.292,166.358L101.708,166.358Z" style="fill-rule:nonzero;"/>
            </g>
        </g>
    </g>
</svg>
