<?xml version="1.0" encoding="UTF-8" standalone="no"?>
<!DOCTYPE svg PUBLIC "-//W3C//DTD SVG 1.1//EN" "http://www.w3.org/Graphics/SVG/1.1/DTD/svg11.dtd">
<svg width="100%" height="100%" viewBox="0 0 90 380" version="1.1" xmlns="http://www.w3.org/2000/svg" xmlns:xlink="http://www.w3.org/1999/xlink" xml:space="preserve" xmlns:serif="http://www.serif.com/" style="fill-rule:evenodd;clip-rule:evenodd;stroke-miterlimit:10;">
    <g id="svg8">
        <rect x="0" y="0" width="90" height="380" style="fill:rgb(240,240,240);"/>
        <path d="M25.784,361.578L24.178,361.578L24.178,356.247L18.102,356.247L18.102,361.578L16.496,361.578L16.496,350.154L18.102,350.154L18.102,354.873L24.178,354.873L24.178,350.154L25.784,350.154L25.784,361.578Z" style="fill:rgb(35,31,32);fill-rule:nonzero;"/>
        <path d="M33.992,361.578L27.171,361.578L27.171,350.154L33.86,350.154L33.86,351.496L28.777,351.496L28.777,354.906L33.578,354.906L33.578,356.247L28.777,356.247L28.777,360.221L33.992,360.221L33.992,361.578Z" style="fill:rgb(35,31,32);fill-rule:nonzero;"/>
        <path d="M42.865,351.496L39.653,351.496L39.653,361.578L38.047,361.578L38.047,351.496L34.819,351.496L34.819,350.154L42.865,350.154L42.865,351.496Z" style="fill:rgb(35,31,32);fill-rule:nonzero;"/>
        <path d="M48.575,351.877C48.062,351.496 47.449,351.463 46.655,351.463L45.479,351.463L45.479,355.337L46.655,355.337C47.449,355.337 48.062,355.304 48.575,354.94C49.089,354.559 49.304,354.095 49.304,353.399C49.304,352.721 49.089,352.241 48.575,351.877M51.622,361.578L49.684,361.578L46.704,356.661L45.479,356.661L45.479,361.578L43.873,361.578L43.873,350.154L47.101,350.154C48.244,350.154 49.171,350.42 49.85,350.949C50.529,351.496 50.959,352.323 50.959,353.366C50.959,355.37 49.568,356.264 48.36,356.496L51.622,361.578Z" style="fill:rgb(35,31,32);fill-rule:nonzero;"/>
        <rect x="52.814" y="350.154" width="1.605" height="11.424" style="fill:rgb(35,31,32);"/>
        <path d="M65.542,360.088C64.83,360.883 63.539,361.777 61.37,361.777C58.042,361.777 55.525,359.442 55.525,355.883C55.525,352.323 58.092,349.989 61.37,349.989C63.506,349.989 64.797,350.883 65.426,351.496L64.747,352.787C64.301,352.225 63.025,351.397 61.437,351.397C58.97,351.397 57.182,353.168 57.182,355.85C57.182,358.532 58.986,360.304 61.437,360.304C62.942,360.304 64.102,359.725 64.847,358.913L65.542,360.088Z" style="fill:rgb(237,50,36);fill-rule:nonzero;"/>
        <path d="M75.452,361.578L73.499,361.578L69.707,355.849L68.532,357.042L68.532,361.578L66.926,361.578L66.926,350.154L68.532,350.154L68.532,355.022L73.184,350.154L75.138,350.154L70.783,354.658L75.452,361.578Z" style="fill:rgb(237,50,36);fill-rule:nonzero;"/>
        <path d="M75.452,361.578L73.499,361.578L69.707,355.849L68.532,357.042L68.532,361.578L66.926,361.578L66.926,357.019L68.532,357.042L69.707,355.849L70.783,354.658L71.4,355.571L71.897,356.308L75.452,361.578Z" style="fill-rule:nonzero;"/>
        <path d="M57.571,280L32.429,280C28.029,280 24.429,283.6 24.429,288L24.429,317.333C24.429,321.733 28.029,325.333 32.429,325.333L57.571,325.333C61.97,325.333 65.571,321.733 65.571,317.333L65.571,288C65.571,283.6 61.97,280 57.571,280Z" style="fill-rule:nonzero;stroke:white;stroke-width:1px;"/>
        <path d="M63.79,106.597L26.211,106.597C19.634,106.597 14.253,110.956 14.253,116.283L14.253,315.648C14.253,320.975 19.634,325.334 26.211,325.334L63.79,325.334C70.365,325.334 75.748,320.975 75.748,315.648L75.748,116.283C75.748,110.956 70.365,106.597 63.79,106.597" style="fill-rule:nonzero;"/>
        <g transform="matrix(1,0,0,1,-29.6641,3.55271e-15)">
            <g transform="matrix(18,0,0,18,48.5776,28.8369)">
                <path d="M0.076,-0.667L0.287,-0.667C0.332,-0.667 0.37,-0.661 0.4,-0.648C0.429,-0.635 0.453,-0.619 0.47,-0.6C0.488,-0.581 0.5,-0.559 0.507,-0.535C0.515,-0.511 0.518,-0.488 0.518,-0.465C0.518,-0.432 0.512,-0.402 0.501,-0.377C0.49,-0.352 0.474,-0.331 0.454,-0.314C0.434,-0.297 0.41,-0.284 0.383,-0.275C0.355,-0.266 0.325,-0.262 0.292,-0.262L0.171,-0.262L0.171,-0L0.076,-0L0.076,-0.667ZM0.291,-0.344C0.332,-0.344 0.364,-0.355 0.387,-0.376C0.409,-0.397 0.42,-0.426 0.42,-0.463C0.42,-0.501 0.408,-0.531 0.386,-0.553C0.363,-0.574 0.331,-0.585 0.291,-0.585L0.171,-0.585L0.171,-0.344L0.291,-0.344Z" style="fill-rule:nonzero;"/>
            </g>
            <g transform="matrix(18,0,0,18,58.0546,28.8369)">
                <path d="M0.061,-0.667L0.15,-0.667L0.15,-0.396C0.156,-0.404 0.163,-0.413 0.172,-0.422C0.181,-0.431 0.191,-0.44 0.204,-0.448C0.217,-0.456 0.231,-0.463 0.248,-0.468C0.265,-0.473 0.284,-0.476 0.305,-0.476C0.366,-0.476 0.411,-0.458 0.44,-0.423C0.469,-0.388 0.484,-0.34 0.484,-0.279L0.484,-0L0.394,-0L0.394,-0.272C0.394,-0.315 0.385,-0.347 0.366,-0.368C0.347,-0.388 0.321,-0.398 0.287,-0.398C0.261,-0.398 0.239,-0.393 0.222,-0.382C0.205,-0.371 0.191,-0.358 0.181,-0.341C0.17,-0.324 0.163,-0.304 0.158,-0.282C0.153,-0.261 0.151,-0.239 0.151,-0.216L0.151,-0L0.061,-0L0.061,-0.667Z" style="fill-rule:nonzero;"/>
            </g>
            <g transform="matrix(18,0,0,18,67.4776,28.8369)">
                <path d="M0.352,-0.22C0.349,-0.221 0.344,-0.222 0.337,-0.223C0.329,-0.224 0.32,-0.224 0.31,-0.225C0.3,-0.226 0.289,-0.226 0.278,-0.227C0.267,-0.228 0.256,-0.228 0.245,-0.228C0.22,-0.228 0.199,-0.225 0.184,-0.219C0.168,-0.213 0.156,-0.205 0.147,-0.197C0.138,-0.188 0.131,-0.178 0.128,-0.167C0.125,-0.156 0.123,-0.145 0.123,-0.135C0.123,-0.11 0.132,-0.091 0.149,-0.078C0.166,-0.065 0.19,-0.058 0.221,-0.058C0.238,-0.058 0.255,-0.061 0.271,-0.067C0.286,-0.073 0.3,-0.081 0.312,-0.091C0.324,-0.101 0.334,-0.113 0.341,-0.126C0.348,-0.139 0.352,-0.153 0.352,-0.167L0.352,-0.22ZM0.353,-0.056C0.336,-0.033 0.313,-0.015 0.284,-0.004C0.256,0.007 0.227,0.013 0.197,0.013C0.178,0.013 0.159,0.01 0.14,0.005C0.121,0 0.103,-0.008 0.087,-0.02C0.072,-0.031 0.059,-0.046 0.05,-0.065C0.04,-0.083 0.035,-0.105 0.035,-0.132C0.035,-0.182 0.053,-0.222 0.087,-0.252C0.123,-0.282 0.173,-0.297 0.239,-0.297C0.25,-0.297 0.261,-0.297 0.273,-0.296C0.285,-0.295 0.296,-0.295 0.307,-0.294C0.318,-0.293 0.327,-0.293 0.335,-0.292C0.343,-0.291 0.349,-0.291 0.352,-0.29L0.352,-0.307C0.352,-0.342 0.342,-0.367 0.321,-0.382C0.3,-0.397 0.271,-0.404 0.235,-0.404C0.2,-0.404 0.172,-0.399 0.151,-0.39C0.13,-0.38 0.113,-0.37 0.099,-0.36L0.057,-0.421C0.065,-0.428 0.075,-0.434 0.086,-0.441C0.097,-0.448 0.111,-0.454 0.126,-0.46C0.141,-0.465 0.159,-0.47 0.178,-0.473C0.197,-0.477 0.22,-0.479 0.245,-0.479C0.305,-0.479 0.352,-0.465 0.387,-0.436C0.421,-0.406 0.438,-0.365 0.438,-0.312L0.438,-0.042C0.438,-0.025 0.438,-0.011 0.439,-0L0.355,-0L0.353,-0.056Z" style="fill-rule:nonzero;"/>
            </g>
            <g transform="matrix(18,0,0,18,76.1086,28.8369)">
                <path d="M0.092,-0.117C0.109,-0.1 0.129,-0.087 0.152,-0.077C0.175,-0.067 0.202,-0.062 0.233,-0.062C0.263,-0.062 0.288,-0.067 0.308,-0.077C0.328,-0.086 0.338,-0.101 0.338,-0.122C0.338,-0.133 0.336,-0.142 0.332,-0.15C0.327,-0.157 0.32,-0.164 0.31,-0.17C0.299,-0.176 0.285,-0.182 0.269,-0.187C0.252,-0.192 0.23,-0.197 0.205,-0.203C0.187,-0.207 0.169,-0.212 0.152,-0.219C0.134,-0.226 0.118,-0.234 0.104,-0.246C0.09,-0.257 0.079,-0.27 0.07,-0.285C0.061,-0.301 0.057,-0.32 0.057,-0.342C0.057,-0.365 0.062,-0.385 0.073,-0.402C0.083,-0.419 0.097,-0.433 0.114,-0.445C0.131,-0.456 0.151,-0.465 0.172,-0.471C0.194,-0.477 0.217,-0.48 0.24,-0.48C0.279,-0.48 0.313,-0.475 0.342,-0.465C0.37,-0.454 0.395,-0.44 0.416,-0.421L0.367,-0.359C0.353,-0.372 0.336,-0.382 0.315,-0.391C0.294,-0.4 0.269,-0.404 0.241,-0.404C0.212,-0.404 0.189,-0.399 0.172,-0.39C0.155,-0.381 0.146,-0.365 0.146,-0.344C0.146,-0.324 0.158,-0.309 0.181,-0.3C0.203,-0.29 0.234,-0.281 0.271,-0.272C0.293,-0.267 0.314,-0.261 0.333,-0.254C0.352,-0.247 0.368,-0.237 0.383,-0.227C0.397,-0.216 0.408,-0.202 0.417,-0.186C0.425,-0.17 0.429,-0.151 0.429,-0.128C0.429,-0.105 0.424,-0.084 0.413,-0.067C0.402,-0.049 0.388,-0.034 0.37,-0.022C0.352,-0.01 0.331,-0.001 0.308,0.005C0.285,0.011 0.26,0.014 0.235,0.014C0.147,0.014 0.081,-0.01 0.037,-0.057L0.092,-0.117Z" style="fill-rule:nonzero;"/>
            </g>
            <g transform="matrix(18,0,0,18,84.2536,28.8369)">
                <path d="M0.286,0.014C0.25,0.014 0.217,0.007 0.187,-0.006C0.157,-0.019 0.131,-0.036 0.11,-0.059C0.088,-0.082 0.071,-0.108 0.059,-0.138C0.046,-0.167 0.04,-0.199 0.04,-0.233C0.04,-0.267 0.046,-0.299 0.059,-0.329C0.071,-0.358 0.088,-0.384 0.11,-0.407C0.131,-0.43 0.157,-0.448 0.187,-0.461C0.217,-0.473 0.25,-0.48 0.286,-0.48C0.321,-0.48 0.354,-0.473 0.384,-0.461C0.414,-0.448 0.44,-0.43 0.462,-0.407C0.484,-0.384 0.501,-0.358 0.514,-0.329C0.526,-0.299 0.532,-0.267 0.532,-0.233C0.532,-0.199 0.526,-0.167 0.514,-0.138C0.501,-0.108 0.484,-0.082 0.462,-0.059C0.44,-0.036 0.414,-0.019 0.384,-0.006C0.354,0.007 0.321,0.014 0.286,0.014ZM0.286,-0.064C0.31,-0.064 0.332,-0.069 0.351,-0.079C0.37,-0.088 0.387,-0.101 0.4,-0.117C0.413,-0.132 0.424,-0.15 0.431,-0.171C0.438,-0.191 0.441,-0.212 0.441,-0.233C0.441,-0.254 0.438,-0.274 0.431,-0.295C0.424,-0.315 0.413,-0.333 0.4,-0.349C0.386,-0.365 0.37,-0.378 0.35,-0.388C0.332,-0.397 0.31,-0.402 0.286,-0.402C0.262,-0.402 0.24,-0.397 0.221,-0.388C0.202,-0.378 0.185,-0.365 0.172,-0.349C0.159,-0.334 0.149,-0.316 0.141,-0.296C0.135,-0.275 0.131,-0.254 0.131,-0.233C0.131,-0.212 0.135,-0.191 0.141,-0.171C0.149,-0.151 0.159,-0.133 0.172,-0.117C0.186,-0.101 0.203,-0.088 0.222,-0.079C0.241,-0.069 0.262,-0.064 0.286,-0.064Z" style="fill-rule:nonzero;"/>
            </g>
            <g transform="matrix(18,0,0,18,94.1986,28.8369)">
                <path d="M0.062,-0L0.062,-0.421C0.062,-0.435 0.062,-0.45 0.061,-0.465L0.147,-0.465L0.15,-0.39C0.155,-0.398 0.162,-0.407 0.171,-0.417C0.18,-0.426 0.19,-0.435 0.203,-0.443C0.215,-0.451 0.229,-0.458 0.246,-0.464C0.262,-0.469 0.281,-0.472 0.302,-0.472C0.312,-0.472 0.321,-0.471 0.33,-0.47C0.338,-0.469 0.346,-0.467 0.353,-0.464L0.333,-0.38C0.321,-0.385 0.306,-0.387 0.287,-0.387C0.268,-0.387 0.25,-0.383 0.234,-0.376C0.217,-0.369 0.203,-0.359 0.191,-0.345C0.179,-0.333 0.17,-0.317 0.163,-0.3C0.156,-0.283 0.152,-0.264 0.152,-0.245L0.152,-0L0.062,-0Z" style="fill-rule:nonzero;"/>
            </g>
            <g transform="matrix(18,0,0,18,35.7076,46.8369)">
                <path d="M0.417,-0.339L0.651,-0.339L0.651,-0.073C0.638,-0.062 0.624,-0.051 0.608,-0.04C0.591,-0.029 0.572,-0.02 0.551,-0.012C0.529,-0.003 0.505,0.003 0.478,0.008C0.451,0.013 0.421,0.016 0.388,0.016C0.336,0.016 0.289,0.007 0.248,-0.011C0.206,-0.028 0.17,-0.053 0.141,-0.084C0.111,-0.115 0.088,-0.151 0.073,-0.194C0.057,-0.236 0.049,-0.282 0.049,-0.332C0.049,-0.381 0.057,-0.426 0.074,-0.469C0.09,-0.512 0.113,-0.549 0.142,-0.581C0.171,-0.612 0.206,-0.637 0.248,-0.656C0.289,-0.674 0.334,-0.683 0.384,-0.683C0.419,-0.683 0.451,-0.679 0.479,-0.671C0.507,-0.662 0.532,-0.652 0.553,-0.639C0.574,-0.625 0.591,-0.611 0.606,-0.596C0.621,-0.581 0.633,-0.566 0.643,-0.552L0.575,-0.494C0.567,-0.505 0.557,-0.517 0.546,-0.53C0.535,-0.542 0.521,-0.553 0.506,-0.563C0.491,-0.573 0.473,-0.581 0.454,-0.588C0.434,-0.595 0.411,-0.598 0.386,-0.598C0.349,-0.598 0.316,-0.591 0.287,-0.577C0.258,-0.563 0.233,-0.544 0.213,-0.52C0.192,-0.496 0.177,-0.468 0.166,-0.436C0.155,-0.403 0.149,-0.369 0.149,-0.333C0.149,-0.294 0.155,-0.259 0.167,-0.227C0.179,-0.195 0.196,-0.168 0.218,-0.145C0.239,-0.122 0.265,-0.103 0.294,-0.091C0.323,-0.078 0.356,-0.071 0.391,-0.071C0.43,-0.071 0.463,-0.075 0.49,-0.084C0.517,-0.093 0.54,-0.105 0.559,-0.12L0.559,-0.256L0.417,-0.256L0.417,-0.339Z" style="fill-rule:nonzero;"/>
            </g>
            <g transform="matrix(18,0,0,18,48.3346,46.8369)">
                <path d="M0.486,-0.068C0.481,-0.062 0.473,-0.054 0.462,-0.045C0.451,-0.036 0.438,-0.027 0.421,-0.018C0.404,-0.009 0.384,-0.002 0.361,0.004C0.338,0.011 0.311,0.014 0.282,0.014C0.246,0.014 0.213,0.008 0.183,-0.004C0.153,-0.016 0.127,-0.033 0.106,-0.055C0.085,-0.077 0.068,-0.103 0.057,-0.134C0.045,-0.165 0.039,-0.199 0.039,-0.236C0.039,-0.27 0.045,-0.302 0.056,-0.332C0.067,-0.361 0.083,-0.387 0.104,-0.408C0.125,-0.43 0.149,-0.447 0.178,-0.46C0.206,-0.473 0.237,-0.479 0.271,-0.479C0.311,-0.479 0.345,-0.471 0.374,-0.456C0.403,-0.441 0.426,-0.42 0.445,-0.395C0.463,-0.37 0.476,-0.341 0.485,-0.308C0.494,-0.275 0.498,-0.241 0.498,-0.206L0.131,-0.206C0.132,-0.185 0.136,-0.166 0.145,-0.149C0.153,-0.132 0.164,-0.117 0.178,-0.104C0.192,-0.091 0.208,-0.081 0.226,-0.074C0.244,-0.067 0.263,-0.063 0.283,-0.063C0.322,-0.063 0.355,-0.07 0.38,-0.083C0.405,-0.096 0.424,-0.109 0.435,-0.122L0.486,-0.068ZM0.405,-0.273C0.402,-0.309 0.39,-0.34 0.367,-0.365C0.344,-0.39 0.312,-0.403 0.271,-0.403C0.25,-0.403 0.231,-0.399 0.214,-0.392C0.197,-0.385 0.182,-0.375 0.17,-0.363C0.158,-0.351 0.149,-0.337 0.142,-0.322C0.135,-0.306 0.132,-0.29 0.131,-0.273L0.405,-0.273Z" style="fill-rule:nonzero;"/>
            </g>
            <g transform="matrix(18,0,0,18,57.6316,46.8369)">
                <path d="M0.286,0.014C0.25,0.014 0.217,0.007 0.187,-0.006C0.157,-0.019 0.131,-0.036 0.11,-0.059C0.088,-0.082 0.071,-0.108 0.059,-0.138C0.046,-0.167 0.04,-0.199 0.04,-0.233C0.04,-0.267 0.046,-0.299 0.059,-0.329C0.071,-0.358 0.088,-0.384 0.11,-0.407C0.131,-0.43 0.157,-0.448 0.187,-0.461C0.217,-0.473 0.25,-0.48 0.286,-0.48C0.321,-0.48 0.354,-0.473 0.384,-0.461C0.414,-0.448 0.44,-0.43 0.462,-0.407C0.484,-0.384 0.501,-0.358 0.514,-0.329C0.526,-0.299 0.532,-0.267 0.532,-0.233C0.532,-0.199 0.526,-0.167 0.514,-0.138C0.501,-0.108 0.484,-0.082 0.462,-0.059C0.44,-0.036 0.414,-0.019 0.384,-0.006C0.354,0.007 0.321,0.014 0.286,0.014ZM0.286,-0.064C0.31,-0.064 0.332,-0.069 0.351,-0.079C0.37,-0.088 0.387,-0.101 0.4,-0.117C0.413,-0.132 0.424,-0.15 0.431,-0.171C0.438,-0.191 0.441,-0.212 0.441,-0.233C0.441,-0.254 0.438,-0.274 0.431,-0.295C0.424,-0.315 0.413,-0.333 0.4,-0.349C0.386,-0.365 0.37,-0.378 0.35,-0.388C0.332,-0.397 0.31,-0.402 0.286,-0.402C0.262,-0.402 0.24,-0.397 0.221,-0.388C0.202,-0.378 0.185,-0.365 0.172,-0.349C0.159,-0.334 0.149,-0.316 0.141,-0.296C0.135,-0.275 0.131,-0.254 0.131,-0.233C0.131,-0.212 0.135,-0.191 0.141,-0.171C0.149,-0.151 0.159,-0.133 0.172,-0.117C0.186,-0.101 0.203,-0.088 0.222,-0.079C0.241,-0.069 0.262,-0.064 0.286,-0.064Z" style="fill-rule:nonzero;"/>
            </g>
            <g transform="matrix(18,0,0,18,67.5766,46.8369)">
                <path d="M0.062,-0L0.062,-0.418C0.062,-0.433 0.062,-0.448 0.061,-0.465L0.147,-0.465L0.15,-0.395C0.155,-0.403 0.162,-0.412 0.171,-0.422C0.18,-0.431 0.19,-0.44 0.202,-0.448C0.214,-0.456 0.228,-0.463 0.245,-0.468C0.261,-0.473 0.28,-0.476 0.301,-0.476C0.337,-0.476 0.367,-0.469 0.391,-0.455C0.414,-0.44 0.433,-0.419 0.446,-0.392C0.465,-0.414 0.488,-0.434 0.515,-0.451C0.542,-0.468 0.575,-0.476 0.615,-0.476C0.675,-0.476 0.719,-0.458 0.748,-0.423C0.777,-0.387 0.791,-0.339 0.791,-0.279L0.791,-0L0.701,-0L0.701,-0.272C0.701,-0.315 0.693,-0.347 0.676,-0.368C0.659,-0.388 0.634,-0.398 0.601,-0.398C0.582,-0.398 0.565,-0.394 0.55,-0.387C0.534,-0.379 0.52,-0.369 0.508,-0.356C0.497,-0.343 0.488,-0.329 0.482,-0.312C0.475,-0.295 0.472,-0.277 0.472,-0.258L0.472,-0L0.382,-0L0.382,-0.272C0.382,-0.315 0.374,-0.347 0.357,-0.368C0.34,-0.388 0.315,-0.398 0.283,-0.398C0.258,-0.398 0.238,-0.393 0.221,-0.382C0.204,-0.371 0.191,-0.358 0.181,-0.341C0.17,-0.324 0.163,-0.304 0.159,-0.282C0.154,-0.26 0.152,-0.238 0.152,-0.216L0.152,-0L0.062,-0Z" style="fill-rule:nonzero;"/>
            </g>
            <g transform="matrix(18,0,0,18,82.5256,46.8369)">
                <path d="M0.486,-0.068C0.481,-0.062 0.473,-0.054 0.462,-0.045C0.451,-0.036 0.438,-0.027 0.421,-0.018C0.404,-0.009 0.384,-0.002 0.361,0.004C0.338,0.011 0.311,0.014 0.282,0.014C0.246,0.014 0.213,0.008 0.183,-0.004C0.153,-0.016 0.127,-0.033 0.106,-0.055C0.085,-0.077 0.068,-0.103 0.057,-0.134C0.045,-0.165 0.039,-0.199 0.039,-0.236C0.039,-0.27 0.045,-0.302 0.056,-0.332C0.067,-0.361 0.083,-0.387 0.104,-0.408C0.125,-0.43 0.149,-0.447 0.178,-0.46C0.206,-0.473 0.237,-0.479 0.271,-0.479C0.311,-0.479 0.345,-0.471 0.374,-0.456C0.403,-0.441 0.426,-0.42 0.445,-0.395C0.463,-0.37 0.476,-0.341 0.485,-0.308C0.494,-0.275 0.498,-0.241 0.498,-0.206L0.131,-0.206C0.132,-0.185 0.136,-0.166 0.145,-0.149C0.153,-0.132 0.164,-0.117 0.178,-0.104C0.192,-0.091 0.208,-0.081 0.226,-0.074C0.244,-0.067 0.263,-0.063 0.283,-0.063C0.322,-0.063 0.355,-0.07 0.38,-0.083C0.405,-0.096 0.424,-0.109 0.435,-0.122L0.486,-0.068ZM0.405,-0.273C0.402,-0.309 0.39,-0.34 0.367,-0.365C0.344,-0.39 0.312,-0.403 0.271,-0.403C0.25,-0.403 0.231,-0.399 0.214,-0.392C0.197,-0.385 0.182,-0.375 0.17,-0.363C0.158,-0.351 0.149,-0.337 0.142,-0.322C0.135,-0.306 0.132,-0.29 0.131,-0.273L0.405,-0.273Z" style="fill-rule:nonzero;"/>
            </g>
            <g transform="matrix(18,0,0,18,91.8226,46.8369)">
                <path d="M0.102,-0.39L0.018,-0.39L0.018,-0.465L0.102,-0.465L0.102,-0.617L0.192,-0.617L0.192,-0.465L0.328,-0.465L0.328,-0.39L0.192,-0.39L0.192,-0.161C0.192,-0.124 0.198,-0.098 0.21,-0.084C0.221,-0.07 0.238,-0.063 0.259,-0.063C0.276,-0.063 0.291,-0.066 0.302,-0.071C0.313,-0.076 0.325,-0.084 0.336,-0.095L0.377,-0.04C0.358,-0.021 0.338,-0.008 0.318,0C0.297,0.009 0.273,0.013 0.245,0.013C0.196,0.013 0.16,-0 0.137,-0.027C0.114,-0.054 0.102,-0.095 0.102,-0.152L0.102,-0.39Z" style="fill-rule:nonzero;"/>
            </g>
            <g transform="matrix(18,0,0,18,98.3836,46.8369)">
                <path d="M0.062,-0L0.062,-0.421C0.062,-0.435 0.062,-0.45 0.061,-0.465L0.147,-0.465L0.15,-0.39C0.155,-0.398 0.162,-0.407 0.171,-0.417C0.18,-0.426 0.19,-0.435 0.203,-0.443C0.215,-0.451 0.229,-0.458 0.246,-0.464C0.262,-0.469 0.281,-0.472 0.302,-0.472C0.312,-0.472 0.321,-0.471 0.33,-0.47C0.338,-0.469 0.346,-0.467 0.353,-0.464L0.333,-0.38C0.321,-0.385 0.306,-0.387 0.287,-0.387C0.268,-0.387 0.25,-0.383 0.234,-0.376C0.217,-0.369 0.203,-0.359 0.191,-0.345C0.179,-0.333 0.17,-0.317 0.163,-0.3C0.156,-0.283 0.152,-0.264 0.152,-0.245L0.152,-0L0.062,-0Z" style="fill-rule:nonzero;"/>
            </g>
            <g transform="matrix(18,0,0,18,104.585,46.8369)">
                <path d="M0.064,0.114C0.071,0.12 0.078,0.125 0.087,0.13C0.096,0.135 0.106,0.137 0.119,0.137C0.13,0.137 0.139,0.135 0.147,0.13C0.154,0.125 0.161,0.118 0.168,0.108C0.174,0.099 0.18,0.087 0.186,0.073C0.191,0.06 0.198,0.044 0.205,0.026L0.217,-0.004L0.009,-0.465L0.112,-0.465L0.262,-0.114L0.394,-0.465L0.492,-0.465L0.306,-0.012C0.297,0.009 0.289,0.033 0.28,0.058C0.271,0.084 0.259,0.108 0.246,0.131C0.233,0.154 0.216,0.174 0.197,0.189C0.178,0.204 0.153,0.212 0.124,0.212C0.101,0.212 0.081,0.209 0.065,0.202C0.049,0.196 0.035,0.188 0.023,0.177L0.064,0.114Z" style="fill-rule:nonzero;"/>
            </g>
        </g>
        <path d="M22.05,88.552L24.582,88.552C25.126,88.552 25.576,88.628 25.932,88.78C26.288,88.932 26.572,89.124 26.784,89.356C26.996,89.588 27.144,89.848 27.228,90.136C27.312,90.424 27.354,90.704 27.354,90.976C27.354,91.376 27.286,91.728 27.15,92.032C27.014,92.336 26.826,92.59 26.586,92.794C26.346,92.998 26.06,93.152 25.728,93.256C25.396,93.36 25.034,93.412 24.642,93.412L23.19,93.412L23.19,96.556L22.05,96.556L22.05,88.552ZM24.63,92.428C25.126,92.428 25.508,92.302 25.776,92.05C26.044,91.798 26.178,91.448 26.178,91C26.178,90.544 26.04,90.186 25.764,89.926C25.488,89.666 25.11,89.536 24.63,89.536L23.19,89.536L23.19,92.428L24.63,92.428Z" style="fill-rule:nonzero;"/>
        <path d="M28.434,88.552L29.502,88.552L29.502,91.804C29.574,91.708 29.662,91.604 29.766,91.492C29.87,91.38 29.998,91.276 30.15,91.18C30.302,91.084 30.478,91.004 30.678,90.94C30.878,90.876 31.106,90.844 31.362,90.844C32.09,90.844 32.63,91.056 32.982,91.48C33.334,91.904 33.51,92.48 33.51,93.208L33.51,96.556L32.43,96.556L32.43,93.292C32.43,92.772 32.318,92.39 32.094,92.146C31.87,91.902 31.554,91.78 31.146,91.78C30.834,91.78 30.574,91.844 30.366,91.972C30.158,92.1 29.992,92.266 29.868,92.47C29.744,92.674 29.654,92.906 29.598,93.166C29.542,93.426 29.514,93.692 29.514,93.964L29.514,96.556L28.434,96.556L28.434,88.552Z" style="fill-rule:nonzero;"/>
        <path d="M38.454,93.916C38.422,93.908 38.36,93.898 38.268,93.886C38.176,93.874 38.07,93.864 37.95,93.856C37.83,93.848 37.702,93.84 37.566,93.832C37.43,93.824 37.298,93.82 37.17,93.82C36.866,93.82 36.62,93.856 36.432,93.928C36.244,94 36.096,94.09 35.988,94.198C35.88,94.306 35.806,94.426 35.766,94.558C35.726,94.69 35.706,94.816 35.706,94.936C35.706,95.24 35.81,95.47 36.018,95.626C36.226,95.782 36.514,95.86 36.882,95.86C37.09,95.86 37.288,95.824 37.476,95.752C37.664,95.68 37.83,95.584 37.974,95.464C38.118,95.344 38.234,95.204 38.322,95.044C38.41,94.884 38.454,94.72 38.454,94.552L38.454,93.916ZM38.466,95.884C38.258,96.164 37.984,96.372 37.644,96.508C37.304,96.644 36.954,96.712 36.594,96.712C36.362,96.712 36.132,96.682 35.904,96.622C35.676,96.562 35.468,96.462 35.28,96.322C35.092,96.182 34.94,96.002 34.824,95.782C34.708,95.562 34.65,95.292 34.65,94.972C34.65,94.372 34.86,93.892 35.28,93.532C35.7,93.172 36.306,92.992 37.098,92.992C37.226,92.992 37.362,92.996 37.506,93.004C37.65,93.012 37.786,93.02 37.914,93.028C38.042,93.036 38.154,93.044 38.25,93.052C38.346,93.06 38.414,93.068 38.454,93.076L38.454,92.872C38.454,92.456 38.328,92.158 38.076,91.978C37.824,91.798 37.482,91.708 37.05,91.708C36.626,91.708 36.29,91.766 36.042,91.882C35.794,91.998 35.586,92.116 35.418,92.236L34.914,91.504C35.01,91.424 35.126,91.344 35.262,91.264C35.398,91.184 35.558,91.11 35.742,91.042C35.926,90.974 36.134,90.918 36.366,90.874C36.598,90.83 36.866,90.808 37.17,90.808C37.89,90.808 38.456,90.982 38.868,91.33C39.28,91.678 39.486,92.172 39.486,92.812L39.486,96.058C39.486,96.254 39.49,96.42 39.498,96.556L38.49,96.556L38.466,95.884Z" style="fill-rule:nonzero;"/>
        <path d="M41.334,95.152C41.534,95.352 41.774,95.512 42.054,95.632C42.334,95.752 42.658,95.812 43.026,95.812C43.386,95.812 43.686,95.754 43.926,95.638C44.166,95.522 44.286,95.34 44.286,95.092C44.286,94.964 44.26,94.854 44.208,94.762C44.156,94.67 44.068,94.588 43.944,94.516C43.82,94.444 43.656,94.378 43.452,94.318C43.248,94.258 42.994,94.192 42.69,94.12C42.474,94.072 42.26,94.008 42.048,93.928C41.836,93.848 41.646,93.742 41.478,93.61C41.31,93.478 41.174,93.318 41.07,93.13C40.966,92.942 40.914,92.716 40.914,92.452C40.914,92.18 40.976,91.942 41.1,91.738C41.224,91.534 41.39,91.362 41.598,91.222C41.806,91.082 42.04,90.976 42.3,90.904C42.56,90.832 42.83,90.796 43.11,90.796C43.582,90.796 43.988,90.858 44.328,90.982C44.668,91.106 44.966,91.28 45.222,91.504L44.634,92.248C44.466,92.096 44.256,91.968 44.004,91.864C43.752,91.76 43.458,91.708 43.122,91.708C42.778,91.708 42.502,91.764 42.294,91.876C42.086,91.988 41.982,92.172 41.982,92.428C41.982,92.668 42.12,92.846 42.396,92.962C42.672,93.078 43.034,93.188 43.482,93.292C43.746,93.356 43.992,93.43 44.22,93.514C44.448,93.598 44.648,93.706 44.82,93.838C44.992,93.97 45.128,94.132 45.228,94.324C45.328,94.516 45.378,94.748 45.378,95.02C45.378,95.3 45.314,95.546 45.186,95.758C45.058,95.97 44.886,96.148 44.67,96.292C44.454,96.436 44.206,96.544 43.926,96.616C43.646,96.688 43.354,96.724 43.05,96.724C41.994,96.724 41.202,96.44 40.674,95.872L41.334,95.152Z" style="fill-rule:nonzero;"/>
        <path d="M49.338,96.724C48.906,96.724 48.51,96.646 48.15,96.49C47.79,96.334 47.48,96.12 47.22,95.848C46.96,95.576 46.756,95.262 46.608,94.906C46.46,94.55 46.386,94.168 46.386,93.76C46.386,93.352 46.46,92.97 46.608,92.614C46.756,92.258 46.96,91.944 47.22,91.672C47.48,91.4 47.79,91.186 48.15,91.03C48.51,90.874 48.906,90.796 49.338,90.796C49.762,90.796 50.154,90.874 50.514,91.03C50.874,91.186 51.186,91.4 51.45,91.672C51.714,91.944 51.92,92.258 52.068,92.614C52.216,92.97 52.29,93.352 52.29,93.76C52.29,94.168 52.216,94.55 52.068,94.906C51.92,95.262 51.714,95.576 51.45,95.848C51.186,96.12 50.874,96.334 50.514,96.49C50.154,96.646 49.762,96.724 49.338,96.724ZM49.338,95.788C49.626,95.788 49.886,95.73 50.118,95.614C50.35,95.498 50.546,95.346 50.706,95.158C50.866,94.97 50.988,94.754 51.072,94.51C51.156,94.266 51.198,94.016 51.198,93.76C51.198,93.512 51.156,93.266 51.072,93.022C50.988,92.778 50.864,92.56 50.7,92.368C50.536,92.176 50.34,92.022 50.112,91.906C49.884,91.79 49.626,91.732 49.338,91.732C49.05,91.732 48.79,91.79 48.558,91.906C48.326,92.022 48.13,92.174 47.97,92.362C47.81,92.55 47.688,92.766 47.604,93.01C47.52,93.254 47.478,93.504 47.478,93.76C47.478,94.016 47.52,94.264 47.604,94.504C47.688,94.744 47.812,94.96 47.976,95.152C48.14,95.344 48.336,95.498 48.564,95.614C48.792,95.73 49.05,95.788 49.338,95.788Z" style="fill-rule:nonzero;"/>
        <path d="M53.526,96.556L53.526,91.51C53.526,91.338 53.522,91.16 53.514,90.976L54.546,90.976L54.582,91.876C54.646,91.78 54.73,91.674 54.834,91.558C54.938,91.442 55.064,91.336 55.212,91.24C55.36,91.144 55.532,91.062 55.728,90.994C55.924,90.926 56.15,90.892 56.406,90.892C56.526,90.892 56.636,90.9 56.736,90.916C56.836,90.932 56.93,90.956 57.018,90.988L56.778,91.996C56.634,91.94 56.45,91.912 56.226,91.912C55.994,91.912 55.78,91.956 55.584,92.044C55.388,92.132 55.218,92.254 55.074,92.41C54.93,92.566 54.816,92.748 54.732,92.956C54.648,93.164 54.606,93.384 54.606,93.616L54.606,96.556L53.526,96.556Z" style="fill-rule:nonzero;"/>
        <rect x="60.258" y="88.552" width="1.152" height="8.004" style="fill-rule:nonzero;"/>
        <path d="M63.078,96.556L63.078,91.546C63.078,91.366 63.074,91.176 63.066,90.976L64.098,90.976L64.134,91.816C64.206,91.72 64.294,91.614 64.398,91.498C64.502,91.382 64.63,91.276 64.782,91.18C64.934,91.084 65.112,91.004 65.316,90.94C65.52,90.876 65.75,90.844 66.006,90.844C66.734,90.844 67.274,91.056 67.626,91.48C67.978,91.904 68.154,92.48 68.154,93.208L68.154,96.556L67.074,96.556L67.074,93.292C67.074,92.772 66.962,92.39 66.738,92.146C66.514,91.902 66.198,91.78 65.79,91.78C65.478,91.78 65.218,91.844 65.01,91.972C64.802,92.1 64.636,92.266 64.512,92.47C64.388,92.674 64.298,92.906 64.242,93.166C64.186,93.426 64.158,93.692 64.158,93.964L64.158,96.556L63.078,96.556Z" style="fill-rule:nonzero;"/>
        <path d="M24.966,141.068L27.522,141.068C28.034,141.068 28.466,141.138 28.818,141.278C29.17,141.418 29.456,141.598 29.676,141.818C29.896,142.038 30.056,142.288 30.156,142.568C30.256,142.848 30.306,143.132 30.306,143.42C30.306,143.932 30.186,144.384 29.946,144.776C29.706,145.168 29.334,145.46 28.83,145.652L30.702,149.072L29.406,149.072L27.69,145.796L26.082,145.796L26.082,149.072L24.966,149.072L24.966,141.068ZM27.618,144.824C28.122,144.824 28.5,144.7 28.752,144.452C29.004,144.204 29.13,143.872 29.13,143.456C29.13,143.016 28.994,142.674 28.722,142.43C28.45,142.186 28.074,142.064 27.594,142.064L26.082,142.064L26.082,144.824L27.618,144.824Z" style="fill:white;fill-rule:nonzero;"/>
        <path d="M36.966,148.256C36.902,148.328 36.806,148.42 36.678,148.532C36.55,148.644 36.384,148.752 36.18,148.856C35.976,148.96 35.736,149.05 35.46,149.126C35.184,149.202 34.87,149.24 34.518,149.24C34.086,149.24 33.69,149.168 33.33,149.024C32.97,148.88 32.662,148.676 32.406,148.412C32.15,148.148 31.952,147.832 31.812,147.464C31.672,147.096 31.602,146.688 31.602,146.24C31.602,145.832 31.67,145.45 31.806,145.094C31.942,144.738 32.134,144.43 32.382,144.17C32.63,143.91 32.924,143.704 33.264,143.552C33.604,143.4 33.978,143.324 34.386,143.324C34.866,143.324 35.278,143.416 35.622,143.6C35.966,143.784 36.248,144.028 36.468,144.332C36.688,144.636 36.85,144.984 36.954,145.376C37.058,145.768 37.11,146.176 37.11,146.6L32.706,146.6C32.714,146.848 32.768,147.076 32.868,147.284C32.968,147.492 33.102,147.672 33.27,147.824C33.438,147.976 33.63,148.096 33.846,148.184C34.062,148.272 34.29,148.316 34.53,148.316C35.002,148.316 35.39,148.236 35.694,148.076C35.998,147.916 36.218,147.76 36.354,147.608L36.966,148.256ZM35.994,145.796C35.962,145.364 35.81,144.996 35.538,144.692C35.266,144.388 34.882,144.236 34.386,144.236C34.13,144.236 33.9,144.28 33.696,144.368C33.492,144.456 33.318,144.572 33.174,144.716C33.03,144.86 32.918,145.026 32.838,145.214C32.758,145.402 32.714,145.596 32.706,145.796L35.994,145.796Z" style="fill:white;fill-rule:nonzero;"/>
        <path d="M37.398,143.492L38.634,143.492L40.374,147.848L42.102,143.492L43.266,143.492L40.878,149.072L39.798,149.072L37.398,143.492Z" style="fill:white;fill-rule:nonzero;"/>
        <path d="M49.182,148.256C49.118,148.328 49.022,148.42 48.894,148.532C48.766,148.644 48.6,148.752 48.396,148.856C48.192,148.96 47.952,149.05 47.676,149.126C47.4,149.202 47.086,149.24 46.734,149.24C46.302,149.24 45.906,149.168 45.546,149.024C45.186,148.88 44.878,148.676 44.622,148.412C44.366,148.148 44.168,147.832 44.028,147.464C43.888,147.096 43.818,146.688 43.818,146.24C43.818,145.832 43.886,145.45 44.022,145.094C44.158,144.738 44.35,144.43 44.598,144.17C44.846,143.91 45.14,143.704 45.48,143.552C45.82,143.4 46.194,143.324 46.602,143.324C47.082,143.324 47.494,143.416 47.838,143.6C48.182,143.784 48.464,144.028 48.684,144.332C48.904,144.636 49.066,144.984 49.17,145.376C49.274,145.768 49.326,146.176 49.326,146.6L44.922,146.6C44.93,146.848 44.984,147.076 45.084,147.284C45.184,147.492 45.318,147.672 45.486,147.824C45.654,147.976 45.846,148.096 46.062,148.184C46.278,148.272 46.506,148.316 46.746,148.316C47.218,148.316 47.606,148.236 47.91,148.076C48.214,147.916 48.434,147.76 48.57,147.608L49.182,148.256ZM48.21,145.796C48.178,145.364 48.026,144.996 47.754,144.692C47.482,144.388 47.098,144.236 46.602,144.236C46.346,144.236 46.116,144.28 45.912,144.368C45.708,144.456 45.534,144.572 45.39,144.716C45.246,144.86 45.134,145.026 45.054,145.214C44.974,145.402 44.93,145.596 44.922,145.796L48.21,145.796Z" style="fill:white;fill-rule:nonzero;"/>
        <path d="M50.526,149.072L50.526,144.026C50.526,143.854 50.522,143.676 50.514,143.492L51.546,143.492L51.582,144.392C51.646,144.296 51.73,144.19 51.834,144.074C51.938,143.958 52.064,143.852 52.212,143.756C52.36,143.66 52.532,143.578 52.728,143.51C52.924,143.442 53.15,143.408 53.406,143.408C53.526,143.408 53.636,143.416 53.736,143.432C53.836,143.448 53.93,143.472 54.018,143.504L53.778,144.512C53.634,144.456 53.45,144.428 53.226,144.428C52.994,144.428 52.78,144.472 52.584,144.56C52.388,144.648 52.218,144.77 52.074,144.926C51.93,145.082 51.816,145.264 51.732,145.472C51.648,145.68 51.606,145.9 51.606,146.132L51.606,149.072L50.526,149.072Z" style="fill:white;fill-rule:nonzero;"/>
        <path d="M54.954,147.668C55.154,147.868 55.394,148.028 55.674,148.148C55.954,148.268 56.278,148.328 56.646,148.328C57.006,148.328 57.306,148.27 57.546,148.154C57.786,148.038 57.906,147.856 57.906,147.608C57.906,147.48 57.88,147.37 57.828,147.278C57.776,147.186 57.688,147.104 57.564,147.032C57.44,146.96 57.276,146.894 57.072,146.834C56.868,146.774 56.614,146.708 56.31,146.636C56.094,146.588 55.88,146.524 55.668,146.444C55.456,146.364 55.266,146.258 55.098,146.126C54.93,145.994 54.794,145.834 54.69,145.646C54.586,145.458 54.534,145.232 54.534,144.968C54.534,144.696 54.596,144.458 54.72,144.254C54.844,144.05 55.01,143.878 55.218,143.738C55.426,143.598 55.66,143.492 55.92,143.42C56.18,143.348 56.45,143.312 56.73,143.312C57.202,143.312 57.608,143.374 57.948,143.498C58.288,143.622 58.586,143.796 58.842,144.02L58.254,144.764C58.086,144.612 57.876,144.484 57.624,144.38C57.372,144.276 57.078,144.224 56.742,144.224C56.398,144.224 56.122,144.28 55.914,144.392C55.706,144.504 55.602,144.688 55.602,144.944C55.602,145.184 55.74,145.362 56.016,145.478C56.292,145.594 56.654,145.704 57.102,145.808C57.366,145.872 57.612,145.946 57.84,146.03C58.068,146.114 58.268,146.222 58.44,146.354C58.612,146.486 58.748,146.648 58.848,146.84C58.948,147.032 58.998,147.264 58.998,147.536C58.998,147.816 58.934,148.062 58.806,148.274C58.678,148.486 58.506,148.664 58.29,148.808C58.074,148.952 57.826,149.06 57.546,149.132C57.266,149.204 56.974,149.24 56.67,149.24C55.614,149.24 54.822,148.956 54.294,148.388L54.954,147.668Z" style="fill:white;fill-rule:nonzero;"/>
        <path d="M65.346,148.256C65.282,148.328 65.186,148.42 65.058,148.532C64.93,148.644 64.764,148.752 64.56,148.856C64.356,148.96 64.116,149.05 63.84,149.126C63.564,149.202 63.25,149.24 62.898,149.24C62.466,149.24 62.07,149.168 61.71,149.024C61.35,148.88 61.042,148.676 60.786,148.412C60.53,148.148 60.332,147.832 60.192,147.464C60.052,147.096 59.982,146.688 59.982,146.24C59.982,145.832 60.05,145.45 60.186,145.094C60.322,144.738 60.514,144.43 60.762,144.17C61.01,143.91 61.304,143.704 61.644,143.552C61.984,143.4 62.358,143.324 62.766,143.324C63.246,143.324 63.658,143.416 64.002,143.6C64.346,143.784 64.628,144.028 64.848,144.332C65.068,144.636 65.23,144.984 65.334,145.376C65.438,145.768 65.49,146.176 65.49,146.6L61.086,146.6C61.094,146.848 61.148,147.076 61.248,147.284C61.348,147.492 61.482,147.672 61.65,147.824C61.818,147.976 62.01,148.096 62.226,148.184C62.442,148.272 62.67,148.316 62.91,148.316C63.382,148.316 63.77,148.236 64.074,148.076C64.378,147.916 64.598,147.76 64.734,147.608L65.346,148.256ZM64.374,145.796C64.342,145.364 64.19,144.996 63.918,144.692C63.646,144.388 63.262,144.236 62.766,144.236C62.51,144.236 62.28,144.28 62.076,144.368C61.872,144.456 61.698,144.572 61.554,144.716C61.41,144.86 61.298,145.026 61.218,145.214C61.138,145.402 61.094,145.596 61.086,145.796L64.374,145.796Z" style="fill:white;fill-rule:nonzero;"/>
        <path d="M41.064,270.782L39.06,268.082L40.404,268.082L41.748,269.93L43.068,268.082L44.268,268.082L42.324,270.698L44.544,273.662L43.188,273.662L41.64,271.55L40.116,273.662L38.904,273.662L41.064,270.782Z" style="fill:white;fill-rule:nonzero;"/>
        <path d="M45.468,272.882C45.468,272.458 45.568,272.086 45.768,271.766C45.968,271.446 46.208,271.146 46.488,270.866C46.832,270.522 47.158,270.226 47.466,269.978C47.774,269.73 48.044,269.502 48.276,269.294C48.508,269.086 48.69,268.88 48.822,268.676C48.954,268.472 49.02,268.238 49.02,267.974C49.02,267.854 48.998,267.73 48.954,267.602C48.91,267.474 48.836,267.356 48.732,267.248C48.628,267.14 48.496,267.05 48.336,266.978C48.176,266.906 47.976,266.87 47.736,266.87C47.52,266.87 47.328,266.9 47.16,266.96C46.992,267.02 46.844,267.094 46.716,267.182C46.588,267.27 46.48,267.37 46.392,267.482C46.304,267.594 46.224,267.698 46.152,267.794L45.348,267.218C45.428,267.074 45.538,266.924 45.678,266.768C45.818,266.612 45.986,266.468 46.182,266.336C46.378,266.204 46.61,266.096 46.878,266.012C47.146,265.928 47.456,265.886 47.808,265.886C48.216,265.886 48.57,265.942 48.87,266.054C49.17,266.166 49.416,266.316 49.608,266.504C49.8,266.692 49.944,266.906 50.04,267.146C50.136,267.386 50.184,267.638 50.184,267.902C50.184,268.182 50.136,268.444 50.04,268.688C49.944,268.932 49.816,269.158 49.656,269.366C49.496,269.574 49.314,269.772 49.11,269.96C48.906,270.148 48.696,270.326 48.48,270.494C48.224,270.694 47.986,270.886 47.766,271.07C47.546,271.254 47.354,271.434 47.19,271.61C47.026,271.786 46.898,271.962 46.806,272.138C46.714,272.314 46.668,272.494 46.668,272.678L50.268,272.678L50.268,273.662L45.468,273.662L45.468,272.882Z" style="fill:white;fill-rule:nonzero;"/>
        <path d="M41.064,312.312L39.06,309.612L40.404,309.612L41.748,311.46L43.068,309.612L44.268,309.612L42.324,312.228L44.544,315.192L43.188,315.192L41.64,313.08L40.116,315.192L38.904,315.192L41.064,312.312Z" style="fill:white;fill-rule:nonzero;"/>
        <path d="M45.24,312.696L48.672,307.62L49.764,307.62L49.764,312.684L50.58,312.684L50.58,313.62L49.764,313.62L49.764,315.192L48.72,315.192L48.72,313.62L45.24,313.62L45.24,312.696ZM48.72,312.684L48.72,309.072L46.308,312.684L48.72,312.684Z" style="fill:white;fill-rule:nonzero;"/>
        <path d="M20.598,224.128L23.13,224.128C23.674,224.128 24.124,224.204 24.48,224.356C24.836,224.508 25.12,224.7 25.332,224.932C25.544,225.164 25.692,225.424 25.776,225.712C25.86,226 25.902,226.28 25.902,226.552C25.902,226.952 25.834,227.304 25.698,227.608C25.562,227.912 25.374,228.166 25.134,228.37C24.894,228.574 24.608,228.728 24.276,228.832C23.944,228.936 23.582,228.988 23.19,228.988L21.738,228.988L21.738,232.132L20.598,232.132L20.598,224.128ZM23.178,228.004C23.674,228.004 24.056,227.878 24.324,227.626C24.592,227.374 24.726,227.024 24.726,226.576C24.726,226.12 24.588,225.762 24.312,225.502C24.036,225.242 23.658,225.112 23.178,225.112L21.738,225.112L21.738,228.004L23.178,228.004Z" style="fill:white;fill-rule:nonzero;"/>
        <path d="M29.31,232.3C28.878,232.3 28.482,232.222 28.122,232.066C27.762,231.91 27.452,231.696 27.192,231.424C26.932,231.152 26.728,230.838 26.58,230.482C26.432,230.126 26.358,229.744 26.358,229.336C26.358,228.928 26.432,228.546 26.58,228.19C26.728,227.834 26.932,227.52 27.192,227.248C27.452,226.976 27.762,226.762 28.122,226.606C28.482,226.45 28.878,226.372 29.31,226.372C29.734,226.372 30.126,226.45 30.486,226.606C30.846,226.762 31.158,226.976 31.422,227.248C31.686,227.52 31.892,227.834 32.04,228.19C32.188,228.546 32.262,228.928 32.262,229.336C32.262,229.744 32.188,230.126 32.04,230.482C31.892,230.838 31.686,231.152 31.422,231.424C31.158,231.696 30.846,231.91 30.486,232.066C30.126,232.222 29.734,232.3 29.31,232.3ZM29.31,231.364C29.598,231.364 29.858,231.306 30.09,231.19C30.322,231.074 30.518,230.922 30.678,230.734C30.838,230.546 30.96,230.33 31.044,230.086C31.128,229.842 31.17,229.592 31.17,229.336C31.17,229.088 31.128,228.842 31.044,228.598C30.96,228.354 30.836,228.136 30.672,227.944C30.508,227.752 30.312,227.598 30.084,227.482C29.856,227.366 29.598,227.308 29.31,227.308C29.022,227.308 28.762,227.366 28.53,227.482C28.298,227.598 28.102,227.75 27.942,227.938C27.782,228.126 27.66,228.342 27.576,228.586C27.492,228.83 27.45,229.08 27.45,229.336C27.45,229.592 27.492,229.84 27.576,230.08C27.66,230.32 27.784,230.536 27.948,230.728C28.112,230.92 28.308,231.074 28.536,231.19C28.764,231.306 29.022,231.364 29.31,231.364Z" style="fill:white;fill-rule:nonzero;"/>
        <path d="M33.486,232.132L33.486,227.122C33.486,226.942 33.482,226.752 33.474,226.552L34.506,226.552L34.542,227.392C34.614,227.296 34.702,227.19 34.806,227.074C34.91,226.958 35.038,226.852 35.19,226.756C35.342,226.66 35.52,226.58 35.724,226.516C35.928,226.452 36.158,226.42 36.414,226.42C37.142,226.42 37.682,226.632 38.034,227.056C38.386,227.48 38.562,228.056 38.562,228.784L38.562,232.132L37.482,232.132L37.482,228.868C37.482,228.348 37.37,227.966 37.146,227.722C36.922,227.478 36.606,227.356 36.198,227.356C35.886,227.356 35.626,227.42 35.418,227.548C35.21,227.676 35.044,227.842 34.92,228.046C34.796,228.25 34.706,228.482 34.65,228.742C34.594,229.002 34.566,229.268 34.566,229.54L34.566,232.132L33.486,232.132Z" style="fill:white;fill-rule:nonzero;"/>
        <path d="M44.022,227.536C43.95,227.512 43.828,227.478 43.656,227.434C43.484,227.39 43.226,227.368 42.882,227.368C42.578,227.368 42.302,227.418 42.054,227.518C41.806,227.618 41.592,227.758 41.412,227.938C41.232,228.118 41.092,228.332 40.992,228.58C40.892,228.828 40.842,229.1 40.842,229.396C40.842,229.652 40.872,229.892 40.932,230.116C40.992,230.34 41.088,230.536 41.22,230.704C41.352,230.872 41.518,231.004 41.718,231.1C41.918,231.196 42.162,231.244 42.45,231.244C42.714,231.244 42.946,231.204 43.146,231.124C43.346,231.044 43.51,230.938 43.638,230.806C43.766,230.674 43.862,230.526 43.926,230.362C43.99,230.198 44.022,230.028 44.022,229.852L44.022,227.536ZM40.758,233.272C40.942,233.4 41.168,233.51 41.436,233.602C41.704,233.694 42.03,233.74 42.414,233.74C42.95,233.74 43.35,233.592 43.614,233.296C43.878,233 44.01,232.612 44.01,232.132L44.01,231.448C43.954,231.496 43.88,231.562 43.788,231.646C43.696,231.73 43.58,231.81 43.44,231.886C43.3,231.962 43.134,232.03 42.942,232.09C42.75,232.15 42.53,232.18 42.282,232.18C41.874,232.18 41.512,232.11 41.196,231.97C40.88,231.83 40.614,231.638 40.398,231.394C40.182,231.15 40.018,230.858 39.906,230.518C39.794,230.178 39.738,229.808 39.738,229.408C39.738,228.976 39.814,228.578 39.966,228.214C40.118,227.85 40.332,227.534 40.608,227.266C40.884,226.998 41.214,226.79 41.598,226.642C41.982,226.494 42.41,226.42 42.882,226.42C43.338,226.42 43.762,226.46 44.154,226.54C44.546,226.62 44.862,226.708 45.102,226.804L45.102,232.132C45.102,232.94 44.868,233.566 44.4,234.01C43.932,234.454 43.274,234.676 42.426,234.676C41.858,234.676 41.406,234.614 41.07,234.49C40.734,234.366 40.462,234.224 40.254,234.064L40.758,233.272Z" style="fill:white;fill-rule:nonzero;"/>
        <path d="M48.918,224.128L51.45,224.128C51.994,224.128 52.444,224.204 52.8,224.356C53.156,224.508 53.44,224.7 53.652,224.932C53.864,225.164 54.012,225.424 54.096,225.712C54.18,226 54.222,226.28 54.222,226.552C54.222,226.952 54.154,227.304 54.018,227.608C53.882,227.912 53.694,228.166 53.454,228.37C53.214,228.574 52.928,228.728 52.596,228.832C52.264,228.936 51.902,228.988 51.51,228.988L50.058,228.988L50.058,232.132L48.918,232.132L48.918,224.128ZM51.498,228.004C51.994,228.004 52.376,227.878 52.644,227.626C52.912,227.374 53.046,227.024 53.046,226.576C53.046,226.12 52.908,225.762 52.632,225.502C52.356,225.242 51.978,225.112 51.498,225.112L50.058,225.112L50.058,228.004L51.498,228.004Z" style="fill:white;fill-rule:nonzero;"/>
        <path d="M55.278,224.344L56.49,224.344L56.49,225.556L55.278,225.556L55.278,224.344ZM55.35,226.552L56.43,226.552L56.43,232.132L55.35,232.132L55.35,226.552Z" style="fill:white;fill-rule:nonzero;"/>
        <path d="M57.966,232.132L57.966,227.122C57.966,226.942 57.962,226.752 57.954,226.552L58.986,226.552L59.022,227.392C59.094,227.296 59.182,227.19 59.286,227.074C59.39,226.958 59.518,226.852 59.67,226.756C59.822,226.66 60,226.58 60.204,226.516C60.408,226.452 60.638,226.42 60.894,226.42C61.622,226.42 62.162,226.632 62.514,227.056C62.866,227.48 63.042,228.056 63.042,228.784L63.042,232.132L61.962,232.132L61.962,228.868C61.962,228.348 61.85,227.966 61.626,227.722C61.402,227.478 61.086,227.356 60.678,227.356C60.366,227.356 60.106,227.42 59.898,227.548C59.69,227.676 59.524,227.842 59.4,228.046C59.276,228.25 59.186,228.482 59.13,228.742C59.074,229.002 59.046,229.268 59.046,229.54L59.046,232.132L57.966,232.132Z" style="fill:white;fill-rule:nonzero;"/>
        <path d="M68.502,227.536C68.43,227.512 68.308,227.478 68.136,227.434C67.964,227.39 67.706,227.368 67.362,227.368C67.058,227.368 66.782,227.418 66.534,227.518C66.286,227.618 66.072,227.758 65.892,227.938C65.712,228.118 65.572,228.332 65.472,228.58C65.372,228.828 65.322,229.1 65.322,229.396C65.322,229.652 65.352,229.892 65.412,230.116C65.472,230.34 65.568,230.536 65.7,230.704C65.832,230.872 65.998,231.004 66.198,231.1C66.398,231.196 66.642,231.244 66.93,231.244C67.194,231.244 67.426,231.204 67.626,231.124C67.826,231.044 67.99,230.938 68.118,230.806C68.246,230.674 68.342,230.526 68.406,230.362C68.47,230.198 68.502,230.028 68.502,229.852L68.502,227.536ZM65.238,233.272C65.422,233.4 65.648,233.51 65.916,233.602C66.184,233.694 66.51,233.74 66.894,233.74C67.43,233.74 67.83,233.592 68.094,233.296C68.358,233 68.49,232.612 68.49,232.132L68.49,231.448C68.434,231.496 68.36,231.562 68.268,231.646C68.176,231.73 68.06,231.81 67.92,231.886C67.78,231.962 67.614,232.03 67.422,232.09C67.23,232.15 67.01,232.18 66.762,232.18C66.354,232.18 65.992,232.11 65.676,231.97C65.36,231.83 65.094,231.638 64.878,231.394C64.662,231.15 64.498,230.858 64.386,230.518C64.274,230.178 64.218,229.808 64.218,229.408C64.218,228.976 64.294,228.578 64.446,228.214C64.598,227.85 64.812,227.534 65.088,227.266C65.364,226.998 65.694,226.79 66.078,226.642C66.462,226.494 66.89,226.42 67.362,226.42C67.818,226.42 68.242,226.46 68.634,226.54C69.026,226.62 69.342,226.708 69.582,226.804L69.582,232.132C69.582,232.94 69.348,233.566 68.88,234.01C68.412,234.454 67.754,234.676 66.906,234.676C66.338,234.676 65.886,234.614 65.55,234.49C65.214,234.366 64.942,234.224 64.734,234.064L65.238,233.272Z" style="fill:white;fill-rule:nonzero;"/>
        <path d="M20.598,182.598L23.13,182.598C23.674,182.598 24.124,182.674 24.48,182.826C24.836,182.978 25.12,183.17 25.332,183.402C25.544,183.634 25.692,183.894 25.776,184.182C25.86,184.47 25.902,184.75 25.902,185.022C25.902,185.422 25.834,185.774 25.698,186.078C25.562,186.382 25.374,186.636 25.134,186.84C24.894,187.044 24.608,187.198 24.276,187.302C23.944,187.406 23.582,187.458 23.19,187.458L21.738,187.458L21.738,190.602L20.598,190.602L20.598,182.598ZM23.178,186.474C23.674,186.474 24.056,186.348 24.324,186.096C24.592,185.844 24.726,185.494 24.726,185.046C24.726,184.59 24.588,184.232 24.312,183.972C24.036,183.712 23.658,183.582 23.178,183.582L21.738,183.582L21.738,186.474L23.178,186.474Z" style="fill:white;fill-rule:nonzero;"/>
        <path d="M26.958,182.814L28.17,182.814L28.17,184.026L26.958,184.026L26.958,182.814ZM27.03,185.022L28.11,185.022L28.11,190.602L27.03,190.602L27.03,185.022Z" style="fill:white;fill-rule:nonzero;"/>
        <path d="M29.646,190.602L29.646,185.592C29.646,185.412 29.642,185.222 29.634,185.022L30.666,185.022L30.702,185.862C30.774,185.766 30.862,185.66 30.966,185.544C31.07,185.428 31.198,185.322 31.35,185.226C31.502,185.13 31.68,185.05 31.884,184.986C32.088,184.922 32.318,184.89 32.574,184.89C33.302,184.89 33.842,185.102 34.194,185.526C34.546,185.95 34.722,186.526 34.722,187.254L34.722,190.602L33.642,190.602L33.642,187.338C33.642,186.818 33.53,186.436 33.306,186.192C33.082,185.948 32.766,185.826 32.358,185.826C32.046,185.826 31.786,185.89 31.578,186.018C31.37,186.146 31.204,186.312 31.08,186.516C30.956,186.72 30.866,186.952 30.81,187.212C30.754,187.472 30.726,187.738 30.726,188.01L30.726,190.602L29.646,190.602Z" style="fill:white;fill-rule:nonzero;"/>
        <path d="M40.182,186.006C40.11,185.982 39.988,185.948 39.816,185.904C39.644,185.86 39.386,185.838 39.042,185.838C38.738,185.838 38.462,185.888 38.214,185.988C37.966,186.088 37.752,186.228 37.572,186.408C37.392,186.588 37.252,186.802 37.152,187.05C37.052,187.298 37.002,187.57 37.002,187.866C37.002,188.122 37.032,188.362 37.092,188.586C37.152,188.81 37.248,189.006 37.38,189.174C37.512,189.342 37.678,189.474 37.878,189.57C38.078,189.666 38.322,189.714 38.61,189.714C38.874,189.714 39.106,189.674 39.306,189.594C39.506,189.514 39.67,189.408 39.798,189.276C39.926,189.144 40.022,188.996 40.086,188.832C40.15,188.668 40.182,188.498 40.182,188.322L40.182,186.006ZM36.918,191.742C37.102,191.87 37.328,191.98 37.596,192.072C37.864,192.164 38.19,192.21 38.574,192.21C39.11,192.21 39.51,192.062 39.774,191.766C40.038,191.47 40.17,191.082 40.17,190.602L40.17,189.918C40.114,189.966 40.04,190.032 39.948,190.116C39.856,190.2 39.74,190.28 39.6,190.356C39.46,190.432 39.294,190.5 39.102,190.56C38.91,190.62 38.69,190.65 38.442,190.65C38.034,190.65 37.672,190.58 37.356,190.44C37.04,190.3 36.774,190.108 36.558,189.864C36.342,189.62 36.178,189.328 36.066,188.988C35.954,188.648 35.898,188.278 35.898,187.878C35.898,187.446 35.974,187.048 36.126,186.684C36.278,186.32 36.492,186.004 36.768,185.736C37.044,185.468 37.374,185.26 37.758,185.112C38.142,184.964 38.57,184.89 39.042,184.89C39.498,184.89 39.922,184.93 40.314,185.01C40.706,185.09 41.022,185.178 41.262,185.274L41.262,190.602C41.262,191.41 41.028,192.036 40.56,192.48C40.092,192.924 39.434,193.146 38.586,193.146C38.018,193.146 37.566,193.084 37.23,192.96C36.894,192.836 36.622,192.694 36.414,192.534L36.918,191.742Z" style="fill:white;fill-rule:nonzero;"/>
        <path d="M45.078,182.598L47.61,182.598C48.154,182.598 48.604,182.674 48.96,182.826C49.316,182.978 49.6,183.17 49.812,183.402C50.024,183.634 50.172,183.894 50.256,184.182C50.34,184.47 50.382,184.75 50.382,185.022C50.382,185.422 50.314,185.774 50.178,186.078C50.042,186.382 49.854,186.636 49.614,186.84C49.374,187.044 49.088,187.198 48.756,187.302C48.424,187.406 48.062,187.458 47.67,187.458L46.218,187.458L46.218,190.602L45.078,190.602L45.078,182.598ZM47.658,186.474C48.154,186.474 48.536,186.348 48.804,186.096C49.072,185.844 49.206,185.494 49.206,185.046C49.206,184.59 49.068,184.232 48.792,183.972C48.516,183.712 48.138,183.582 47.658,183.582L46.218,183.582L46.218,186.474L47.658,186.474Z" style="fill:white;fill-rule:nonzero;"/>
        <path d="M53.79,190.77C53.358,190.77 52.962,190.692 52.602,190.536C52.242,190.38 51.932,190.166 51.672,189.894C51.412,189.622 51.208,189.308 51.06,188.952C50.912,188.596 50.838,188.214 50.838,187.806C50.838,187.398 50.912,187.016 51.06,186.66C51.208,186.304 51.412,185.99 51.672,185.718C51.932,185.446 52.242,185.232 52.602,185.076C52.962,184.92 53.358,184.842 53.79,184.842C54.214,184.842 54.606,184.92 54.966,185.076C55.326,185.232 55.638,185.446 55.902,185.718C56.166,185.99 56.372,186.304 56.52,186.66C56.668,187.016 56.742,187.398 56.742,187.806C56.742,188.214 56.668,188.596 56.52,188.952C56.372,189.308 56.166,189.622 55.902,189.894C55.638,190.166 55.326,190.38 54.966,190.536C54.606,190.692 54.214,190.77 53.79,190.77ZM53.79,189.834C54.078,189.834 54.338,189.776 54.57,189.66C54.802,189.544 54.998,189.392 55.158,189.204C55.318,189.016 55.44,188.8 55.524,188.556C55.608,188.312 55.65,188.062 55.65,187.806C55.65,187.558 55.608,187.312 55.524,187.068C55.44,186.824 55.316,186.606 55.152,186.414C54.988,186.222 54.792,186.068 54.564,185.952C54.336,185.836 54.078,185.778 53.79,185.778C53.502,185.778 53.242,185.836 53.01,185.952C52.778,186.068 52.582,186.22 52.422,186.408C52.262,186.596 52.14,186.812 52.056,187.056C51.972,187.3 51.93,187.55 51.93,187.806C51.93,188.062 51.972,188.31 52.056,188.55C52.14,188.79 52.264,189.006 52.428,189.198C52.592,189.39 52.788,189.544 53.016,189.66C53.244,189.776 53.502,189.834 53.79,189.834Z" style="fill:white;fill-rule:nonzero;"/>
        <path d="M57.966,190.602L57.966,185.592C57.966,185.412 57.962,185.222 57.954,185.022L58.986,185.022L59.022,185.862C59.094,185.766 59.182,185.66 59.286,185.544C59.39,185.428 59.518,185.322 59.67,185.226C59.822,185.13 60,185.05 60.204,184.986C60.408,184.922 60.638,184.89 60.894,184.89C61.622,184.89 62.162,185.102 62.514,185.526C62.866,185.95 63.042,186.526 63.042,187.254L63.042,190.602L61.962,190.602L61.962,187.338C61.962,186.818 61.85,186.436 61.626,186.192C61.402,185.948 61.086,185.826 60.678,185.826C60.366,185.826 60.106,185.89 59.898,186.018C59.69,186.146 59.524,186.312 59.4,186.516C59.276,186.72 59.186,186.952 59.13,187.212C59.074,187.472 59.046,187.738 59.046,188.01L59.046,190.602L57.966,190.602Z" style="fill:white;fill-rule:nonzero;"/>
        <path d="M68.502,186.006C68.43,185.982 68.308,185.948 68.136,185.904C67.964,185.86 67.706,185.838 67.362,185.838C67.058,185.838 66.782,185.888 66.534,185.988C66.286,186.088 66.072,186.228 65.892,186.408C65.712,186.588 65.572,186.802 65.472,187.05C65.372,187.298 65.322,187.57 65.322,187.866C65.322,188.122 65.352,188.362 65.412,188.586C65.472,188.81 65.568,189.006 65.7,189.174C65.832,189.342 65.998,189.474 66.198,189.57C66.398,189.666 66.642,189.714 66.93,189.714C67.194,189.714 67.426,189.674 67.626,189.594C67.826,189.514 67.99,189.408 68.118,189.276C68.246,189.144 68.342,188.996 68.406,188.832C68.47,188.668 68.502,188.498 68.502,188.322L68.502,186.006ZM65.238,191.742C65.422,191.87 65.648,191.98 65.916,192.072C66.184,192.164 66.51,192.21 66.894,192.21C67.43,192.21 67.83,192.062 68.094,191.766C68.358,191.47 68.49,191.082 68.49,190.602L68.49,189.918C68.434,189.966 68.36,190.032 68.268,190.116C68.176,190.2 68.06,190.28 67.92,190.356C67.78,190.432 67.614,190.5 67.422,190.56C67.23,190.62 67.01,190.65 66.762,190.65C66.354,190.65 65.992,190.58 65.676,190.44C65.36,190.3 65.094,190.108 64.878,189.864C64.662,189.62 64.498,189.328 64.386,188.988C64.274,188.648 64.218,188.278 64.218,187.878C64.218,187.446 64.294,187.048 64.446,186.684C64.598,186.32 64.812,186.004 65.088,185.736C65.364,185.468 65.694,185.26 66.078,185.112C66.462,184.964 66.89,184.89 67.362,184.89C67.818,184.89 68.242,184.93 68.634,185.01C69.026,185.09 69.342,185.178 69.582,185.274L69.582,190.602C69.582,191.41 69.348,192.036 68.88,192.48C68.412,192.924 67.754,193.146 66.906,193.146C66.338,193.146 65.886,193.084 65.55,192.96C65.214,192.836 64.942,192.694 64.734,192.534L65.238,191.742Z" style="fill:white;fill-rule:nonzero;"/>
    </g>
</svg>
