<?xml version="1.0" encoding="UTF-8" standalone="no"?>
<!DOCTYPE svg PUBLIC "-//W3C//DTD SVG 1.1//EN" "http://www.w3.org/Graphics/SVG/1.1/DTD/svg11.dtd">
<svg width="100%" height="100%" viewBox="0 0 90 380" version="1.1" xmlns="http://www.w3.org/2000/svg" xmlns:xlink="http://www.w3.org/1999/xlink" xml:space="preserve" xmlns:serif="http://www.serif.com/" style="fill-rule:evenodd;clip-rule:evenodd;stroke-linejoin:round;stroke-miterlimit:2;">
    <g id="svg8">
        <rect x="0" y="0" width="90" height="380" style="fill:rgb(240,240,240);"/>
        <path d="M25.784,361.578L24.178,361.578L24.178,356.247L18.102,356.247L18.102,361.578L16.496,361.578L16.496,350.154L18.102,350.154L18.102,354.873L24.178,354.873L24.178,350.154L25.784,350.154L25.784,361.578Z" style="fill:rgb(35,31,32);fill-rule:nonzero;"/>
        <path d="M33.992,361.578L27.171,361.578L27.171,350.154L33.86,350.154L33.86,351.496L28.777,351.496L28.777,354.906L33.578,354.906L33.578,356.247L28.777,356.247L28.777,360.221L33.992,360.221L33.992,361.578Z" style="fill:rgb(35,31,32);fill-rule:nonzero;"/>
        <path d="M42.865,351.496L39.653,351.496L39.653,361.578L38.047,361.578L38.047,351.496L34.819,351.496L34.819,350.154L42.865,350.154L42.865,351.496Z" style="fill:rgb(35,31,32);fill-rule:nonzero;"/>
        <path d="M48.575,351.877C48.062,351.496 47.449,351.463 46.655,351.463L45.479,351.463L45.479,355.337L46.655,355.337C47.449,355.337 48.062,355.304 48.575,354.94C49.089,354.559 49.304,354.095 49.304,353.399C49.304,352.721 49.089,352.241 48.575,351.877M51.622,361.578L49.684,361.578L46.704,356.661L45.479,356.661L45.479,361.578L43.873,361.578L43.873,350.154L47.101,350.154C48.244,350.154 49.171,350.42 49.85,350.949C50.529,351.496 50.959,352.323 50.959,353.366C50.959,355.37 49.568,356.264 48.36,356.496L51.622,361.578Z" style="fill:rgb(35,31,32);fill-rule:nonzero;"/>
        <rect x="52.814" y="350.154" width="1.605" height="11.424" style="fill:rgb(35,31,32);"/>
        <path d="M65.542,360.088C64.83,360.883 63.539,361.777 61.37,361.777C58.042,361.777 55.525,359.442 55.525,355.883C55.525,352.323 58.092,349.989 61.37,349.989C63.506,349.989 64.797,350.883 65.426,351.496L64.747,352.787C64.301,352.225 63.025,351.397 61.437,351.397C58.97,351.397 57.182,353.168 57.182,355.85C57.182,358.532 58.986,360.304 61.437,360.304C62.942,360.304 64.102,359.725 64.847,358.913L65.542,360.088Z" style="fill:rgb(237,50,36);fill-rule:nonzero;"/>
        <path d="M75.452,361.578L73.499,361.578L69.707,355.849L68.532,357.042L68.532,361.578L66.926,361.578L66.926,350.154L68.532,350.154L68.532,355.022L73.184,350.154L75.138,350.154L70.783,354.658L75.452,361.578Z" style="fill:rgb(237,50,36);fill-rule:nonzero;"/>
        <path d="M75.452,361.578L73.499,361.578L69.707,355.849L68.532,357.042L68.532,361.578L66.926,361.578L66.926,357.019L68.532,357.042L69.707,355.849L70.783,354.658L71.4,355.571L71.897,356.308L75.452,361.578Z" style="fill-rule:nonzero;"/>
        <g>
            <path d="M69.685,124.597L20.315,124.597C11.675,124.597 4.606,128.956 4.606,134.283L4.606,333.648C4.606,338.975 11.675,343.334 20.315,343.334L69.685,343.334C78.323,343.334 85.394,338.975 85.394,333.648L85.394,134.283C85.394,128.956 78.323,124.597 69.685,124.597" style="fill-rule:nonzero;"/>
            <path d="M22.805,167.24C22.333,167.24 21.919,167.144 21.563,166.952C21.207,166.76 20.907,166.488 20.663,166.136C20.419,165.784 20.235,165.36 20.111,164.864C19.987,164.368 19.925,163.816 19.925,163.208C19.925,162.608 19.987,162.068 20.111,161.588C20.235,161.108 20.421,160.698 20.669,160.358C20.917,160.018 21.219,159.756 21.575,159.572C21.931,159.388 22.345,159.296 22.817,159.296C23.281,159.296 23.693,159.388 24.053,159.572C24.413,159.756 24.715,160.018 24.959,160.358C25.203,160.698 25.387,161.108 25.511,161.588C25.635,162.068 25.697,162.608 25.697,163.208C25.697,163.816 25.635,164.368 25.511,164.864C25.387,165.36 25.201,165.784 24.953,166.136C24.705,166.488 24.401,166.76 24.041,166.952C23.681,167.144 23.269,167.24 22.805,167.24ZM22.805,166.244C23.093,166.244 23.347,166.17 23.567,166.022C23.787,165.874 23.971,165.666 24.119,165.398C24.267,165.13 24.379,164.81 24.455,164.438C24.531,164.066 24.569,163.656 24.569,163.208C24.569,162.768 24.531,162.368 24.455,162.008C24.379,161.648 24.265,161.342 24.113,161.09C23.961,160.838 23.777,160.644 23.561,160.508C23.345,160.372 23.093,160.304 22.805,160.304C22.517,160.304 22.265,160.372 22.049,160.508C21.833,160.644 21.651,160.838 21.503,161.09C21.355,161.342 21.243,161.648 21.167,162.008C21.091,162.368 21.053,162.768 21.053,163.208C21.053,163.656 21.091,164.066 21.167,164.438C21.243,164.81 21.355,165.13 21.503,165.398C21.651,165.666 21.833,165.874 22.049,166.022C22.265,166.17 22.517,166.244 22.805,166.244Z" style="fill:white;fill-rule:nonzero;"/>
            <path d="M26.429,160.76C26.429,160.528 26.471,160.314 26.555,160.118C26.639,159.922 26.755,159.752 26.903,159.608C27.051,159.464 27.223,159.352 27.419,159.272C27.615,159.192 27.829,159.152 28.061,159.152C28.293,159.152 28.509,159.192 28.709,159.272C28.909,159.352 29.083,159.464 29.231,159.608C29.379,159.752 29.495,159.922 29.579,160.118C29.663,160.314 29.705,160.524 29.705,160.748C29.705,160.98 29.663,161.194 29.579,161.39C29.495,161.586 29.379,161.756 29.231,161.9C29.083,162.044 28.909,162.156 28.709,162.236C28.509,162.316 28.297,162.356 28.073,162.356C27.841,162.356 27.625,162.316 27.425,162.236C27.225,162.156 27.051,162.044 26.903,161.9C26.755,161.756 26.639,161.588 26.555,161.396C26.471,161.204 26.429,160.992 26.429,160.76ZM28.073,161.636C28.321,161.636 28.527,161.552 28.691,161.384C28.855,161.216 28.937,161.004 28.937,160.748C28.937,160.508 28.855,160.304 28.691,160.136C28.527,159.968 28.317,159.884 28.061,159.884C27.821,159.884 27.619,159.968 27.455,160.136C27.291,160.304 27.209,160.512 27.209,160.76C27.209,161.008 27.291,161.216 27.455,161.384C27.619,161.552 27.825,161.636 28.073,161.636Z" style="fill:white;fill-rule:nonzero;"/>
            <path d="M57.253,164.576L60.685,159.5L61.777,159.5L61.777,164.564L62.593,164.564L62.593,165.5L61.777,165.5L61.777,167.072L60.733,167.072L60.733,165.5L57.253,165.5L57.253,164.576ZM60.733,164.564L60.733,160.952L58.321,164.564L60.733,164.564Z" style="fill:white;fill-rule:nonzero;"/>
            <path d="M64.273,165.656C64.497,165.84 64.743,165.994 65.011,166.118C65.279,166.242 65.613,166.304 66.013,166.304C66.293,166.304 66.537,166.262 66.745,166.178C66.953,166.094 67.127,165.98 67.267,165.836C67.407,165.692 67.511,165.524 67.579,165.332C67.647,165.14 67.681,164.932 67.681,164.708C67.681,164.556 67.657,164.392 67.609,164.216C67.561,164.04 67.477,163.878 67.357,163.73C67.237,163.582 67.073,163.46 66.865,163.364C66.657,163.268 66.393,163.22 66.073,163.22C65.745,163.22 65.485,163.252 65.293,163.316C65.101,163.38 64.925,163.452 64.765,163.532L64.213,163.112L64.933,159.512L68.641,159.512L68.641,160.52L65.689,160.52L65.341,162.5C65.421,162.452 65.549,162.406 65.725,162.362C65.901,162.318 66.113,162.296 66.361,162.296C66.721,162.296 67.051,162.348 67.351,162.452C67.651,162.556 67.909,162.71 68.125,162.914C68.341,163.118 68.509,163.366 68.629,163.658C68.749,163.95 68.809,164.288 68.809,164.672C68.809,165.024 68.753,165.356 68.641,165.668C68.529,165.98 68.357,166.256 68.125,166.496C67.893,166.736 67.597,166.926 67.237,167.066C66.877,167.206 66.449,167.276 65.953,167.276C65.425,167.276 64.975,167.196 64.603,167.036C64.231,166.876 63.917,166.68 63.661,166.448L64.273,165.656Z" style="fill:white;fill-rule:nonzero;"/>
            <path d="M70.093,160.76C70.093,160.528 70.135,160.314 70.219,160.118C70.303,159.922 70.419,159.752 70.567,159.608C70.715,159.464 70.887,159.352 71.083,159.272C71.279,159.192 71.493,159.152 71.725,159.152C71.957,159.152 72.173,159.192 72.373,159.272C72.573,159.352 72.747,159.464 72.895,159.608C73.043,159.752 73.159,159.922 73.243,160.118C73.327,160.314 73.369,160.524 73.369,160.748C73.369,160.98 73.327,161.194 73.243,161.39C73.159,161.586 73.043,161.756 72.895,161.9C72.747,162.044 72.573,162.156 72.373,162.236C72.173,162.316 71.961,162.356 71.737,162.356C71.505,162.356 71.289,162.316 71.089,162.236C70.889,162.156 70.715,162.044 70.567,161.9C70.419,161.756 70.303,161.588 70.219,161.396C70.135,161.204 70.093,160.992 70.093,160.76ZM71.737,161.636C71.985,161.636 72.191,161.552 72.355,161.384C72.519,161.216 72.601,161.004 72.601,160.748C72.601,160.508 72.519,160.304 72.355,160.136C72.191,159.968 71.981,159.884 71.725,159.884C71.485,159.884 71.283,159.968 71.119,160.136C70.955,160.304 70.873,160.512 70.873,160.76C70.873,161.008 70.955,161.216 71.119,161.384C71.283,161.552 71.489,161.636 71.737,161.636Z" style="fill:white;fill-rule:nonzero;"/>
            <path d="M13.817,290.882C13.817,290.458 13.917,290.086 14.117,289.766C14.317,289.446 14.557,289.146 14.837,288.866C15.181,288.522 15.507,288.226 15.815,287.978C16.123,287.73 16.393,287.502 16.625,287.294C16.857,287.086 17.039,286.88 17.171,286.676C17.303,286.472 17.369,286.238 17.369,285.974C17.369,285.854 17.347,285.73 17.303,285.602C17.259,285.474 17.185,285.356 17.081,285.248C16.977,285.14 16.845,285.05 16.685,284.978C16.525,284.906 16.325,284.87 16.085,284.87C15.869,284.87 15.677,284.9 15.509,284.96C15.341,285.02 15.193,285.094 15.065,285.182C14.937,285.27 14.829,285.37 14.741,285.482C14.653,285.594 14.573,285.698 14.501,285.794L13.697,285.218C13.777,285.074 13.887,284.924 14.027,284.768C14.167,284.612 14.335,284.468 14.531,284.336C14.727,284.204 14.959,284.096 15.227,284.012C15.495,283.928 15.805,283.886 16.157,283.886C16.565,283.886 16.919,283.942 17.219,284.054C17.519,284.166 17.765,284.316 17.957,284.504C18.149,284.692 18.293,284.906 18.389,285.146C18.485,285.386 18.533,285.638 18.533,285.902C18.533,286.182 18.485,286.444 18.389,286.688C18.293,286.932 18.165,287.158 18.005,287.366C17.845,287.574 17.663,287.772 17.459,287.96C17.255,288.148 17.045,288.326 16.829,288.494C16.573,288.694 16.335,288.886 16.115,289.07C15.895,289.254 15.703,289.434 15.539,289.61C15.375,289.786 15.247,289.962 15.155,290.138C15.063,290.314 15.017,290.494 15.017,290.678L18.617,290.678L18.617,291.662L13.817,291.662L13.817,290.882Z" style="fill:white;fill-rule:nonzero;"/>
            <path d="M21.221,291.662C21.405,291.094 21.625,290.488 21.881,289.844C22.137,289.2 22.399,288.574 22.667,287.966C22.935,287.358 23.195,286.802 23.447,286.298C23.699,285.794 23.913,285.398 24.089,285.11L20.369,285.11L20.369,284.09L25.205,284.09L25.205,285.074C25.085,285.258 24.947,285.506 24.791,285.818C24.635,286.13 24.467,286.476 24.287,286.856C24.107,287.236 23.923,287.642 23.735,288.074C23.547,288.506 23.369,288.934 23.201,289.358C23.033,289.782 22.877,290.194 22.733,290.594C22.589,290.994 22.473,291.35 22.385,291.662L21.221,291.662Z" style="fill:white;fill-rule:nonzero;"/>
            <path d="M29.345,291.83C28.873,291.83 28.459,291.734 28.103,291.542C27.747,291.35 27.447,291.078 27.203,290.726C26.959,290.374 26.775,289.95 26.651,289.454C26.527,288.958 26.465,288.406 26.465,287.798C26.465,287.198 26.527,286.658 26.651,286.178C26.775,285.698 26.961,285.288 27.209,284.948C27.457,284.608 27.759,284.346 28.115,284.162C28.471,283.978 28.885,283.886 29.357,283.886C29.821,283.886 30.233,283.978 30.593,284.162C30.953,284.346 31.255,284.608 31.499,284.948C31.743,285.288 31.927,285.698 32.051,286.178C32.175,286.658 32.237,287.198 32.237,287.798C32.237,288.406 32.175,288.958 32.051,289.454C31.927,289.95 31.741,290.374 31.493,290.726C31.245,291.078 30.941,291.35 30.581,291.542C30.221,291.734 29.809,291.83 29.345,291.83ZM29.345,290.834C29.633,290.834 29.887,290.76 30.107,290.612C30.327,290.464 30.511,290.256 30.659,289.988C30.807,289.72 30.919,289.4 30.995,289.028C31.071,288.656 31.109,288.246 31.109,287.798C31.109,287.358 31.071,286.958 30.995,286.598C30.919,286.238 30.805,285.932 30.653,285.68C30.501,285.428 30.317,285.234 30.101,285.098C29.885,284.962 29.633,284.894 29.345,284.894C29.057,284.894 28.805,284.962 28.589,285.098C28.373,285.234 28.191,285.428 28.043,285.68C27.895,285.932 27.783,286.238 27.707,286.598C27.631,286.958 27.593,287.358 27.593,287.798C27.593,288.246 27.631,288.656 27.707,289.028C27.783,289.4 27.895,289.72 28.043,289.988C28.191,290.256 28.373,290.464 28.589,290.612C28.805,290.76 29.057,290.834 29.345,290.834Z" style="fill:white;fill-rule:nonzero;"/>
            <path d="M32.969,285.35C32.969,285.118 33.011,284.904 33.095,284.708C33.179,284.512 33.295,284.342 33.443,284.198C33.591,284.054 33.763,283.942 33.959,283.862C34.155,283.782 34.369,283.742 34.601,283.742C34.833,283.742 35.049,283.782 35.249,283.862C35.449,283.942 35.623,284.054 35.771,284.198C35.919,284.342 36.035,284.512 36.119,284.708C36.203,284.904 36.245,285.114 36.245,285.338C36.245,285.57 36.203,285.784 36.119,285.98C36.035,286.176 35.919,286.346 35.771,286.49C35.623,286.634 35.449,286.746 35.249,286.826C35.049,286.906 34.837,286.946 34.613,286.946C34.381,286.946 34.165,286.906 33.965,286.826C33.765,286.746 33.591,286.634 33.443,286.49C33.295,286.346 33.179,286.178 33.095,285.986C33.011,285.794 32.969,285.582 32.969,285.35ZM34.613,286.226C34.861,286.226 35.067,286.142 35.231,285.974C35.395,285.806 35.477,285.594 35.477,285.338C35.477,285.098 35.395,284.894 35.231,284.726C35.067,284.558 34.857,284.474 34.601,284.474C34.361,284.474 34.159,284.558 33.995,284.726C33.831,284.894 33.749,285.102 33.749,285.35C33.749,285.598 33.831,285.806 33.995,285.974C34.159,286.142 34.365,286.226 34.613,286.226Z" style="fill:white;fill-rule:nonzero;"/>
            <path d="M54.439,290.246C54.639,290.406 54.875,290.556 55.147,290.696C55.419,290.836 55.763,290.906 56.179,290.906C56.683,290.906 57.083,290.77 57.379,290.498C57.675,290.226 57.823,289.862 57.823,289.406C57.823,288.998 57.697,288.662 57.445,288.398C57.193,288.134 56.823,288.002 56.335,288.002C56.191,288.002 56.059,288.014 55.939,288.038C55.819,288.062 55.703,288.094 55.591,288.134L55.243,287.57L57.367,285.098L54.343,285.098L54.343,284.102L58.687,284.102L58.687,284.966L56.743,287.234C57.079,287.234 57.383,287.286 57.655,287.39C57.927,287.494 58.161,287.642 58.357,287.834C58.553,288.026 58.703,288.256 58.807,288.524C58.911,288.792 58.963,289.09 58.963,289.418C58.963,289.818 58.891,290.17 58.747,290.474C58.603,290.778 58.405,291.032 58.153,291.236C57.901,291.44 57.605,291.596 57.265,291.704C56.925,291.812 56.559,291.866 56.167,291.866C55.879,291.866 55.615,291.842 55.375,291.794C55.135,291.746 54.919,291.682 54.727,291.602C54.535,291.522 54.363,291.432 54.211,291.332C54.059,291.232 53.923,291.13 53.803,291.026L54.439,290.246Z" style="fill:white;fill-rule:nonzero;"/>
            <path d="M61.627,290.702L62.971,290.702L62.971,285.242L61.411,286.082L60.967,285.23L63.091,284.066L64.063,284.066L64.063,290.702L65.383,290.702L65.383,291.662L61.627,291.662L61.627,290.702Z" style="fill:white;fill-rule:nonzero;"/>
            <path d="M67.543,290.246C67.767,290.43 68.013,290.584 68.281,290.708C68.549,290.832 68.883,290.894 69.283,290.894C69.563,290.894 69.807,290.852 70.015,290.768C70.223,290.684 70.397,290.57 70.537,290.426C70.677,290.282 70.781,290.114 70.849,289.922C70.917,289.73 70.951,289.522 70.951,289.298C70.951,289.146 70.927,288.982 70.879,288.806C70.831,288.63 70.747,288.468 70.627,288.32C70.507,288.172 70.343,288.05 70.135,287.954C69.927,287.858 69.663,287.81 69.343,287.81C69.015,287.81 68.755,287.842 68.563,287.906C68.371,287.97 68.195,288.042 68.035,288.122L67.483,287.702L68.203,284.102L71.911,284.102L71.911,285.11L68.959,285.11L68.611,287.09C68.691,287.042 68.819,286.996 68.995,286.952C69.171,286.908 69.383,286.886 69.631,286.886C69.991,286.886 70.321,286.938 70.621,287.042C70.921,287.146 71.179,287.3 71.395,287.504C71.611,287.708 71.779,287.956 71.899,288.248C72.019,288.54 72.079,288.878 72.079,289.262C72.079,289.614 72.023,289.946 71.911,290.258C71.799,290.57 71.627,290.846 71.395,291.086C71.163,291.326 70.867,291.516 70.507,291.656C70.147,291.796 69.719,291.866 69.223,291.866C68.695,291.866 68.245,291.786 67.873,291.626C67.501,291.466 67.187,291.27 66.931,291.038L67.543,290.246Z" style="fill:white;fill-rule:nonzero;"/>
            <path d="M73.363,285.35C73.363,285.118 73.405,284.904 73.489,284.708C73.573,284.512 73.689,284.342 73.837,284.198C73.985,284.054 74.157,283.942 74.353,283.862C74.549,283.782 74.763,283.742 74.995,283.742C75.227,283.742 75.443,283.782 75.643,283.862C75.843,283.942 76.017,284.054 76.165,284.198C76.313,284.342 76.429,284.512 76.513,284.708C76.597,284.904 76.639,285.114 76.639,285.338C76.639,285.57 76.597,285.784 76.513,285.98C76.429,286.176 76.313,286.346 76.165,286.49C76.017,286.634 75.843,286.746 75.643,286.826C75.443,286.906 75.231,286.946 75.007,286.946C74.775,286.946 74.559,286.906 74.359,286.826C74.159,286.746 73.985,286.634 73.837,286.49C73.689,286.346 73.573,286.178 73.489,285.986C73.405,285.794 73.363,285.582 73.363,285.35ZM75.007,286.226C75.255,286.226 75.461,286.142 75.625,285.974C75.789,285.806 75.871,285.594 75.871,285.338C75.871,285.098 75.789,284.894 75.625,284.726C75.461,284.558 75.251,284.474 74.995,284.474C74.755,284.474 74.553,284.558 74.389,284.726C74.225,284.894 74.143,285.102 74.143,285.35C74.143,285.598 74.225,285.806 74.389,285.974C74.553,286.142 74.759,286.226 75.007,286.226Z" style="fill:white;fill-rule:nonzero;"/>
            <rect x="17.783" y="329.316" width="3.516" height="1.032" style="fill:white;fill-rule:nonzero;"/>
            <path d="M25.439,333.36C24.967,333.36 24.553,333.264 24.197,333.072C23.841,332.88 23.541,332.608 23.297,332.256C23.053,331.904 22.869,331.48 22.745,330.984C22.621,330.488 22.559,329.936 22.559,329.328C22.559,328.728 22.621,328.188 22.745,327.708C22.869,327.228 23.055,326.818 23.303,326.478C23.551,326.138 23.853,325.876 24.209,325.692C24.565,325.508 24.979,325.416 25.451,325.416C25.915,325.416 26.327,325.508 26.687,325.692C27.047,325.876 27.349,326.138 27.593,326.478C27.837,326.818 28.021,327.228 28.145,327.708C28.269,328.188 28.331,328.728 28.331,329.328C28.331,329.936 28.269,330.488 28.145,330.984C28.021,331.48 27.835,331.904 27.587,332.256C27.339,332.608 27.035,332.88 26.675,333.072C26.315,333.264 25.903,333.36 25.439,333.36ZM25.439,332.364C25.727,332.364 25.981,332.29 26.201,332.142C26.421,331.994 26.605,331.786 26.753,331.518C26.901,331.25 27.013,330.93 27.089,330.558C27.165,330.186 27.203,329.776 27.203,329.328C27.203,328.888 27.165,328.488 27.089,328.128C27.013,327.768 26.899,327.462 26.747,327.21C26.595,326.958 26.411,326.764 26.195,326.628C25.979,326.492 25.727,326.424 25.439,326.424C25.151,326.424 24.899,326.492 24.683,326.628C24.467,326.764 24.285,326.958 24.137,327.21C23.989,327.462 23.877,327.768 23.801,328.128C23.725,328.488 23.687,328.888 23.687,329.328C23.687,329.776 23.725,330.186 23.801,330.558C23.877,330.93 23.989,331.25 24.137,331.518C24.285,331.786 24.467,331.994 24.683,332.142C24.899,332.29 25.151,332.364 25.439,332.364Z" style="fill:white;fill-rule:nonzero;"/>
            <path d="M29.063,326.88C29.063,326.648 29.105,326.434 29.189,326.238C29.273,326.042 29.389,325.872 29.537,325.728C29.685,325.584 29.857,325.472 30.053,325.392C30.249,325.312 30.463,325.272 30.695,325.272C30.927,325.272 31.143,325.312 31.343,325.392C31.543,325.472 31.717,325.584 31.865,325.728C32.013,325.872 32.129,326.042 32.213,326.238C32.297,326.434 32.339,326.644 32.339,326.868C32.339,327.1 32.297,327.314 32.213,327.51C32.129,327.706 32.013,327.876 31.865,328.02C31.717,328.164 31.543,328.276 31.343,328.356C31.143,328.436 30.931,328.476 30.707,328.476C30.475,328.476 30.259,328.436 30.059,328.356C29.859,328.276 29.685,328.164 29.537,328.02C29.389,327.876 29.273,327.708 29.189,327.516C29.105,327.324 29.063,327.112 29.063,326.88ZM30.707,327.756C30.955,327.756 31.161,327.672 31.325,327.504C31.489,327.336 31.571,327.124 31.571,326.868C31.571,326.628 31.489,326.424 31.325,326.256C31.161,326.088 30.951,326.004 30.695,326.004C30.455,326.004 30.253,326.088 30.089,326.256C29.925,326.424 29.843,326.632 29.843,326.88C29.843,327.128 29.925,327.336 30.089,327.504C30.253,327.672 30.459,327.756 30.707,327.756Z" style="fill:white;fill-rule:nonzero;"/>
            <rect x="51.637" y="329.316" width="3.516" height="1.032" style="fill:white;fill-rule:nonzero;"/>
            <path d="M57.721,332.232L59.065,332.232L59.065,326.772L57.505,327.612L57.061,326.76L59.185,325.596L60.157,325.596L60.157,332.232L61.477,332.232L61.477,333.192L57.721,333.192L57.721,332.232Z" style="fill:white;fill-rule:nonzero;"/>
            <path d="M65.845,328.644C66.229,328.524 66.537,328.348 66.769,328.116C67.001,327.884 67.117,327.612 67.117,327.3C67.117,327.004 67.001,326.758 66.769,326.562C66.537,326.366 66.229,326.268 65.845,326.268C65.461,326.268 65.153,326.366 64.921,326.562C64.689,326.758 64.573,327.024 64.573,327.36C64.573,327.632 64.683,327.884 64.903,328.116C65.123,328.348 65.437,328.524 65.845,328.644ZM65.797,329.568C65.581,329.624 65.377,329.702 65.185,329.802C64.993,329.902 64.825,330.018 64.681,330.15C64.537,330.282 64.423,330.43 64.339,330.594C64.255,330.758 64.213,330.936 64.213,331.128C64.213,331.368 64.263,331.574 64.363,331.746C64.463,331.918 64.591,332.058 64.747,332.166C64.903,332.274 65.077,332.352 65.269,332.4C65.461,332.448 65.653,332.472 65.845,332.472C66.037,332.472 66.229,332.448 66.421,332.4C66.613,332.352 66.787,332.274 66.943,332.166C67.099,332.058 67.225,331.918 67.321,331.746C67.417,331.574 67.465,331.368 67.465,331.128C67.465,330.936 67.419,330.758 67.327,330.594C67.235,330.43 67.111,330.282 66.955,330.15C66.799,330.018 66.621,329.902 66.421,329.802C66.221,329.702 66.013,329.624 65.797,329.568ZM64.681,329.064C64.361,328.896 64.089,328.672 63.865,328.392C63.641,328.112 63.529,327.768 63.529,327.36C63.529,327.08 63.583,326.82 63.691,326.58C63.799,326.34 63.953,326.134 64.153,325.962C64.353,325.79 64.595,325.656 64.879,325.56C65.163,325.464 65.485,325.416 65.845,325.416C66.221,325.416 66.553,325.464 66.841,325.56C67.129,325.656 67.369,325.788 67.561,325.956C67.753,326.124 67.899,326.322 67.999,326.55C68.099,326.778 68.149,327.024 68.149,327.288C68.149,327.664 68.045,328.004 67.837,328.308C67.629,328.612 67.333,328.852 66.949,329.028C67.093,329.092 67.259,329.18 67.447,329.292C67.635,329.404 67.813,329.548 67.981,329.724C68.149,329.9 68.291,330.106 68.407,330.342C68.523,330.578 68.581,330.848 68.581,331.152C68.581,331.408 68.531,331.668 68.431,331.932C68.331,332.196 68.171,332.436 67.951,332.652C67.731,332.868 67.447,333.044 67.099,333.18C66.751,333.316 66.333,333.384 65.845,333.384C65.341,333.384 64.915,333.316 64.567,333.18C64.219,333.044 63.937,332.868 63.721,332.652C63.505,332.436 63.347,332.198 63.247,331.938C63.147,331.678 63.097,331.42 63.097,331.164C63.097,330.9 63.141,330.66 63.229,330.444C63.317,330.228 63.435,330.032 63.583,329.856C63.731,329.68 63.901,329.526 64.093,329.394C64.285,329.262 64.481,329.152 64.681,329.064Z" style="fill:white;fill-rule:nonzero;"/>
            <path d="M72.373,333.36C71.901,333.36 71.487,333.264 71.131,333.072C70.775,332.88 70.475,332.608 70.231,332.256C69.987,331.904 69.803,331.48 69.679,330.984C69.555,330.488 69.493,329.936 69.493,329.328C69.493,328.728 69.555,328.188 69.679,327.708C69.803,327.228 69.989,326.818 70.237,326.478C70.485,326.138 70.787,325.876 71.143,325.692C71.499,325.508 71.913,325.416 72.385,325.416C72.849,325.416 73.261,325.508 73.621,325.692C73.981,325.876 74.283,326.138 74.527,326.478C74.771,326.818 74.955,327.228 75.079,327.708C75.203,328.188 75.265,328.728 75.265,329.328C75.265,329.936 75.203,330.488 75.079,330.984C74.955,331.48 74.769,331.904 74.521,332.256C74.273,332.608 73.969,332.88 73.609,333.072C73.249,333.264 72.837,333.36 72.373,333.36ZM72.373,332.364C72.661,332.364 72.915,332.29 73.135,332.142C73.355,331.994 73.539,331.786 73.687,331.518C73.835,331.25 73.947,330.93 74.023,330.558C74.099,330.186 74.137,329.776 74.137,329.328C74.137,328.888 74.099,328.488 74.023,328.128C73.947,327.768 73.833,327.462 73.681,327.21C73.529,326.958 73.345,326.764 73.129,326.628C72.913,326.492 72.661,326.424 72.373,326.424C72.085,326.424 71.833,326.492 71.617,326.628C71.401,326.764 71.219,326.958 71.071,327.21C70.923,327.462 70.811,327.768 70.735,328.128C70.659,328.488 70.621,328.888 70.621,329.328C70.621,329.776 70.659,330.186 70.735,330.558C70.811,330.93 70.923,331.25 71.071,331.518C71.219,331.786 71.401,331.994 71.617,332.142C71.833,332.29 72.085,332.364 72.373,332.364Z" style="fill:white;fill-rule:nonzero;"/>
            <path d="M75.997,326.88C75.997,326.648 76.039,326.434 76.123,326.238C76.207,326.042 76.323,325.872 76.471,325.728C76.619,325.584 76.791,325.472 76.987,325.392C77.183,325.312 77.397,325.272 77.629,325.272C77.861,325.272 78.077,325.312 78.277,325.392C78.477,325.472 78.651,325.584 78.799,325.728C78.947,325.872 79.063,326.042 79.147,326.238C79.231,326.434 79.273,326.644 79.273,326.868C79.273,327.1 79.231,327.314 79.147,327.51C79.063,327.706 78.947,327.876 78.799,328.02C78.651,328.164 78.477,328.276 78.277,328.356C78.077,328.436 77.865,328.476 77.641,328.476C77.409,328.476 77.193,328.436 76.993,328.356C76.793,328.276 76.619,328.164 76.471,328.02C76.323,327.876 76.207,327.708 76.123,327.516C76.039,327.324 75.997,327.112 75.997,326.88ZM77.641,327.756C77.889,327.756 78.095,327.672 78.259,327.504C78.423,327.336 78.505,327.124 78.505,326.868C78.505,326.628 78.423,326.424 78.259,326.256C78.095,326.088 77.885,326.004 77.629,326.004C77.389,326.004 77.187,326.088 77.023,326.256C76.859,326.424 76.777,326.632 76.777,326.88C76.777,327.128 76.859,327.336 77.023,327.504C77.187,327.672 77.393,327.756 77.641,327.756Z" style="fill:white;fill-rule:nonzero;"/>
            <path d="M14.693,249.172L16.037,249.172L16.037,243.712L14.477,244.552L14.033,243.7L16.157,242.536L17.129,242.536L17.129,249.172L18.449,249.172L18.449,250.132L14.693,250.132L14.693,249.172Z" style="fill:white;fill-rule:nonzero;"/>
            <path d="M22.817,245.584C23.201,245.464 23.509,245.288 23.741,245.056C23.973,244.824 24.089,244.552 24.089,244.24C24.089,243.944 23.973,243.698 23.741,243.502C23.509,243.306 23.201,243.208 22.817,243.208C22.433,243.208 22.125,243.306 21.893,243.502C21.661,243.698 21.545,243.964 21.545,244.3C21.545,244.572 21.655,244.824 21.875,245.056C22.095,245.288 22.409,245.464 22.817,245.584ZM22.769,246.508C22.553,246.564 22.349,246.642 22.157,246.742C21.965,246.842 21.797,246.958 21.653,247.09C21.509,247.222 21.395,247.37 21.311,247.534C21.227,247.698 21.185,247.876 21.185,248.068C21.185,248.308 21.235,248.514 21.335,248.686C21.435,248.858 21.563,248.998 21.719,249.106C21.875,249.214 22.049,249.292 22.241,249.34C22.433,249.388 22.625,249.412 22.817,249.412C23.009,249.412 23.201,249.388 23.393,249.34C23.585,249.292 23.759,249.214 23.915,249.106C24.071,248.998 24.197,248.858 24.293,248.686C24.389,248.514 24.437,248.308 24.437,248.068C24.437,247.876 24.391,247.698 24.299,247.534C24.207,247.37 24.083,247.222 23.927,247.09C23.771,246.958 23.593,246.842 23.393,246.742C23.193,246.642 22.985,246.564 22.769,246.508ZM21.653,246.004C21.333,245.836 21.061,245.612 20.837,245.332C20.613,245.052 20.501,244.708 20.501,244.3C20.501,244.02 20.555,243.76 20.663,243.52C20.771,243.28 20.925,243.074 21.125,242.902C21.325,242.73 21.567,242.596 21.851,242.5C22.135,242.404 22.457,242.356 22.817,242.356C23.193,242.356 23.525,242.404 23.813,242.5C24.101,242.596 24.341,242.728 24.533,242.896C24.725,243.064 24.871,243.262 24.971,243.49C25.071,243.718 25.121,243.964 25.121,244.228C25.121,244.604 25.017,244.944 24.809,245.248C24.601,245.552 24.305,245.792 23.921,245.968C24.065,246.032 24.231,246.12 24.419,246.232C24.607,246.344 24.785,246.488 24.953,246.664C25.121,246.84 25.263,247.046 25.379,247.282C25.495,247.518 25.553,247.788 25.553,248.092C25.553,248.348 25.503,248.608 25.403,248.872C25.303,249.136 25.143,249.376 24.923,249.592C24.703,249.808 24.419,249.984 24.071,250.12C23.723,250.256 23.305,250.324 22.817,250.324C22.313,250.324 21.887,250.256 21.539,250.12C21.191,249.984 20.909,249.808 20.693,249.592C20.477,249.376 20.319,249.138 20.219,248.878C20.119,248.618 20.069,248.36 20.069,248.104C20.069,247.84 20.113,247.6 20.201,247.384C20.289,247.168 20.407,246.972 20.555,246.796C20.703,246.62 20.873,246.466 21.065,246.334C21.257,246.202 21.453,246.092 21.653,246.004Z" style="fill:white;fill-rule:nonzero;"/>
            <path d="M29.345,250.3C28.873,250.3 28.459,250.204 28.103,250.012C27.747,249.82 27.447,249.548 27.203,249.196C26.959,248.844 26.775,248.42 26.651,247.924C26.527,247.428 26.465,246.876 26.465,246.268C26.465,245.668 26.527,245.128 26.651,244.648C26.775,244.168 26.961,243.758 27.209,243.418C27.457,243.078 27.759,242.816 28.115,242.632C28.471,242.448 28.885,242.356 29.357,242.356C29.821,242.356 30.233,242.448 30.593,242.632C30.953,242.816 31.255,243.078 31.499,243.418C31.743,243.758 31.927,244.168 32.051,244.648C32.175,245.128 32.237,245.668 32.237,246.268C32.237,246.876 32.175,247.428 32.051,247.924C31.927,248.42 31.741,248.844 31.493,249.196C31.245,249.548 30.941,249.82 30.581,250.012C30.221,250.204 29.809,250.3 29.345,250.3ZM29.345,249.304C29.633,249.304 29.887,249.23 30.107,249.082C30.327,248.934 30.511,248.726 30.659,248.458C30.807,248.19 30.919,247.87 30.995,247.498C31.071,247.126 31.109,246.716 31.109,246.268C31.109,245.828 31.071,245.428 30.995,245.068C30.919,244.708 30.805,244.402 30.653,244.15C30.501,243.898 30.317,243.704 30.101,243.568C29.885,243.432 29.633,243.364 29.345,243.364C29.057,243.364 28.805,243.432 28.589,243.568C28.373,243.704 28.191,243.898 28.043,244.15C27.895,244.402 27.783,244.708 27.707,245.068C27.631,245.428 27.593,245.828 27.593,246.268C27.593,246.716 27.631,247.126 27.707,247.498C27.783,247.87 27.895,248.19 28.043,248.458C28.191,248.726 28.373,248.934 28.589,249.082C28.805,249.23 29.057,249.304 29.345,249.304Z" style="fill:white;fill-rule:nonzero;"/>
            <path d="M32.969,243.82C32.969,243.588 33.011,243.374 33.095,243.178C33.179,242.982 33.295,242.812 33.443,242.668C33.591,242.524 33.763,242.412 33.959,242.332C34.155,242.252 34.369,242.212 34.601,242.212C34.833,242.212 35.049,242.252 35.249,242.332C35.449,242.412 35.623,242.524 35.771,242.668C35.919,242.812 36.035,242.982 36.119,243.178C36.203,243.374 36.245,243.584 36.245,243.808C36.245,244.04 36.203,244.254 36.119,244.45C36.035,244.646 35.919,244.816 35.771,244.96C35.623,245.104 35.449,245.216 35.249,245.296C35.049,245.376 34.837,245.416 34.613,245.416C34.381,245.416 34.165,245.376 33.965,245.296C33.765,245.216 33.591,245.104 33.443,244.96C33.295,244.816 33.179,244.648 33.095,244.456C33.011,244.264 32.969,244.052 32.969,243.82ZM34.613,244.696C34.861,244.696 35.067,244.612 35.231,244.444C35.395,244.276 35.477,244.064 35.477,243.808C35.477,243.568 35.395,243.364 35.231,243.196C35.067,243.028 34.857,242.944 34.601,242.944C34.361,242.944 34.159,243.028 33.995,243.196C33.831,243.364 33.749,243.572 33.749,243.82C33.749,244.068 33.831,244.276 33.995,244.444C34.159,244.612 34.365,244.696 34.613,244.696Z" style="fill:white;fill-rule:nonzero;"/>
            <path d="M54.211,249.352C54.211,248.928 54.311,248.556 54.511,248.236C54.711,247.916 54.951,247.616 55.231,247.336C55.575,246.992 55.901,246.696 56.209,246.448C56.517,246.2 56.787,245.972 57.019,245.764C57.251,245.556 57.433,245.35 57.565,245.146C57.697,244.942 57.763,244.708 57.763,244.444C57.763,244.324 57.741,244.2 57.697,244.072C57.653,243.944 57.579,243.826 57.475,243.718C57.371,243.61 57.239,243.52 57.079,243.448C56.919,243.376 56.719,243.34 56.479,243.34C56.263,243.34 56.071,243.37 55.903,243.43C55.735,243.49 55.587,243.564 55.459,243.652C55.331,243.74 55.223,243.84 55.135,243.952C55.047,244.064 54.967,244.168 54.895,244.264L54.091,243.688C54.171,243.544 54.281,243.394 54.421,243.238C54.561,243.082 54.729,242.938 54.925,242.806C55.121,242.674 55.353,242.566 55.621,242.482C55.889,242.398 56.199,242.356 56.551,242.356C56.959,242.356 57.313,242.412 57.613,242.524C57.913,242.636 58.159,242.786 58.351,242.974C58.543,243.162 58.687,243.376 58.783,243.616C58.879,243.856 58.927,244.108 58.927,244.372C58.927,244.652 58.879,244.914 58.783,245.158C58.687,245.402 58.559,245.628 58.399,245.836C58.239,246.044 58.057,246.242 57.853,246.43C57.649,246.618 57.439,246.796 57.223,246.964C56.967,247.164 56.729,247.356 56.509,247.54C56.289,247.724 56.097,247.904 55.933,248.08C55.769,248.256 55.641,248.432 55.549,248.608C55.457,248.784 55.411,248.964 55.411,249.148L59.011,249.148L59.011,250.132L54.211,250.132L54.211,249.352Z" style="fill:white;fill-rule:nonzero;"/>
            <path d="M60.751,249.352C60.751,248.928 60.851,248.556 61.051,248.236C61.251,247.916 61.491,247.616 61.771,247.336C62.115,246.992 62.441,246.696 62.749,246.448C63.057,246.2 63.327,245.972 63.559,245.764C63.791,245.556 63.973,245.35 64.105,245.146C64.237,244.942 64.303,244.708 64.303,244.444C64.303,244.324 64.281,244.2 64.237,244.072C64.193,243.944 64.119,243.826 64.015,243.718C63.911,243.61 63.779,243.52 63.619,243.448C63.459,243.376 63.259,243.34 63.019,243.34C62.803,243.34 62.611,243.37 62.443,243.43C62.275,243.49 62.127,243.564 61.999,243.652C61.871,243.74 61.763,243.84 61.675,243.952C61.587,244.064 61.507,244.168 61.435,244.264L60.631,243.688C60.711,243.544 60.821,243.394 60.961,243.238C61.101,243.082 61.269,242.938 61.465,242.806C61.661,242.674 61.893,242.566 62.161,242.482C62.429,242.398 62.739,242.356 63.091,242.356C63.499,242.356 63.853,242.412 64.153,242.524C64.453,242.636 64.699,242.786 64.891,242.974C65.083,243.162 65.227,243.376 65.323,243.616C65.419,243.856 65.467,244.108 65.467,244.372C65.467,244.652 65.419,244.914 65.323,245.158C65.227,245.402 65.099,245.628 64.939,245.836C64.779,246.044 64.597,246.242 64.393,246.43C64.189,246.618 63.979,246.796 63.763,246.964C63.507,247.164 63.269,247.356 63.049,247.54C62.829,247.724 62.637,247.904 62.473,248.08C62.309,248.256 62.181,248.432 62.089,248.608C61.997,248.784 61.951,248.964 61.951,249.148L65.551,249.148L65.551,250.132L60.751,250.132L60.751,249.352Z" style="fill:white;fill-rule:nonzero;"/>
            <path d="M67.543,248.716C67.767,248.9 68.013,249.054 68.281,249.178C68.549,249.302 68.883,249.364 69.283,249.364C69.563,249.364 69.807,249.322 70.015,249.238C70.223,249.154 70.397,249.04 70.537,248.896C70.677,248.752 70.781,248.584 70.849,248.392C70.917,248.2 70.951,247.992 70.951,247.768C70.951,247.616 70.927,247.452 70.879,247.276C70.831,247.1 70.747,246.938 70.627,246.79C70.507,246.642 70.343,246.52 70.135,246.424C69.927,246.328 69.663,246.28 69.343,246.28C69.015,246.28 68.755,246.312 68.563,246.376C68.371,246.44 68.195,246.512 68.035,246.592L67.483,246.172L68.203,242.572L71.911,242.572L71.911,243.58L68.959,243.58L68.611,245.56C68.691,245.512 68.819,245.466 68.995,245.422C69.171,245.378 69.383,245.356 69.631,245.356C69.991,245.356 70.321,245.408 70.621,245.512C70.921,245.616 71.179,245.77 71.395,245.974C71.611,246.178 71.779,246.426 71.899,246.718C72.019,247.01 72.079,247.348 72.079,247.732C72.079,248.084 72.023,248.416 71.911,248.728C71.799,249.04 71.627,249.316 71.395,249.556C71.163,249.796 70.867,249.986 70.507,250.126C70.147,250.266 69.719,250.336 69.223,250.336C68.695,250.336 68.245,250.256 67.873,250.096C67.501,249.936 67.187,249.74 66.931,249.508L67.543,248.716Z" style="fill:white;fill-rule:nonzero;"/>
            <path d="M73.363,243.82C73.363,243.588 73.405,243.374 73.489,243.178C73.573,242.982 73.689,242.812 73.837,242.668C73.985,242.524 74.157,242.412 74.353,242.332C74.549,242.252 74.763,242.212 74.995,242.212C75.227,242.212 75.443,242.252 75.643,242.332C75.843,242.412 76.017,242.524 76.165,242.668C76.313,242.812 76.429,242.982 76.513,243.178C76.597,243.374 76.639,243.584 76.639,243.808C76.639,244.04 76.597,244.254 76.513,244.45C76.429,244.646 76.313,244.816 76.165,244.96C76.017,245.104 75.843,245.216 75.643,245.296C75.443,245.376 75.231,245.416 75.007,245.416C74.775,245.416 74.559,245.376 74.359,245.296C74.159,245.216 73.985,245.104 73.837,244.96C73.689,244.816 73.573,244.648 73.489,244.456C73.405,244.264 73.363,244.052 73.363,243.82ZM75.007,244.696C75.255,244.696 75.461,244.612 75.625,244.444C75.789,244.276 75.871,244.064 75.871,243.808C75.871,243.568 75.789,243.364 75.625,243.196C75.461,243.028 75.251,242.944 74.995,242.944C74.755,242.944 74.553,243.028 74.389,243.196C74.225,243.364 74.143,243.572 74.143,243.82C74.143,244.068 74.225,244.276 74.389,244.444C74.553,244.612 74.759,244.696 75.007,244.696Z" style="fill:white;fill-rule:nonzero;"/>
            <path d="M17.543,207.414C17.567,207.43 17.619,207.46 17.699,207.504C17.779,207.548 17.881,207.594 18.005,207.642C18.129,207.69 18.269,207.732 18.425,207.768C18.581,207.804 18.747,207.822 18.923,207.822C19.259,207.822 19.551,207.752 19.799,207.612C20.047,207.472 20.253,207.286 20.417,207.054C20.581,206.822 20.705,206.552 20.789,206.244C20.873,205.936 20.923,205.618 20.939,205.29C20.795,205.41 20.581,205.538 20.297,205.674C20.013,205.81 19.635,205.878 19.163,205.878C18.803,205.878 18.479,205.816 18.191,205.692C17.903,205.568 17.657,205.396 17.453,205.176C17.249,204.956 17.093,204.694 16.985,204.39C16.877,204.086 16.823,203.75 16.823,203.382C16.823,203.006 16.887,202.662 17.015,202.35C17.143,202.038 17.319,201.768 17.543,201.54C17.767,201.312 18.033,201.136 18.341,201.012C18.649,200.888 18.983,200.826 19.343,200.826C20.191,200.826 20.853,201.128 21.329,201.732C21.805,202.336 22.043,203.246 22.043,204.462C22.043,205.126 21.977,205.724 21.845,206.256C21.713,206.788 21.515,207.24 21.251,207.612C20.987,207.984 20.659,208.272 20.267,208.476C19.875,208.68 19.419,208.782 18.899,208.782C18.691,208.782 18.493,208.764 18.305,208.728C18.117,208.692 17.943,208.65 17.783,208.602C17.623,208.554 17.483,208.502 17.363,208.446C17.243,208.39 17.147,208.338 17.075,208.29L17.543,207.414ZM20.951,204.318C20.951,203.534 20.825,202.918 20.573,202.47C20.321,202.022 19.915,201.798 19.355,201.798C19.163,201.798 18.977,201.832 18.797,201.9C18.617,201.968 18.459,202.07 18.323,202.206C18.187,202.342 18.075,202.51 17.987,202.71C17.899,202.91 17.855,203.138 17.855,203.394C17.855,203.602 17.883,203.796 17.939,203.976C17.995,204.156 18.081,204.314 18.197,204.45C18.313,204.586 18.463,204.694 18.647,204.774C18.831,204.854 19.055,204.894 19.319,204.894C19.719,204.894 20.045,204.838 20.297,204.726C20.549,204.614 20.767,204.478 20.951,204.318Z" style="fill:white;fill-rule:nonzero;"/>
            <path d="M26.075,208.77C25.603,208.77 25.189,208.674 24.833,208.482C24.477,208.29 24.177,208.018 23.933,207.666C23.689,207.314 23.505,206.89 23.381,206.394C23.257,205.898 23.195,205.346 23.195,204.738C23.195,204.138 23.257,203.598 23.381,203.118C23.505,202.638 23.691,202.228 23.939,201.888C24.187,201.548 24.489,201.286 24.845,201.102C25.201,200.918 25.615,200.826 26.087,200.826C26.551,200.826 26.963,200.918 27.323,201.102C27.683,201.286 27.985,201.548 28.229,201.888C28.473,202.228 28.657,202.638 28.781,203.118C28.905,203.598 28.967,204.138 28.967,204.738C28.967,205.346 28.905,205.898 28.781,206.394C28.657,206.89 28.471,207.314 28.223,207.666C27.975,208.018 27.671,208.29 27.311,208.482C26.951,208.674 26.539,208.77 26.075,208.77ZM26.075,207.774C26.363,207.774 26.617,207.7 26.837,207.552C27.057,207.404 27.241,207.196 27.389,206.928C27.537,206.66 27.649,206.34 27.725,205.968C27.801,205.596 27.839,205.186 27.839,204.738C27.839,204.298 27.801,203.898 27.725,203.538C27.649,203.178 27.535,202.872 27.383,202.62C27.231,202.368 27.047,202.174 26.831,202.038C26.615,201.902 26.363,201.834 26.075,201.834C25.787,201.834 25.535,201.902 25.319,202.038C25.103,202.174 24.921,202.368 24.773,202.62C24.625,202.872 24.513,203.178 24.437,203.538C24.361,203.898 24.323,204.298 24.323,204.738C24.323,205.186 24.361,205.596 24.437,205.968C24.513,206.34 24.625,206.66 24.773,206.928C24.921,207.196 25.103,207.404 25.319,207.552C25.535,207.7 25.787,207.774 26.075,207.774Z" style="fill:white;fill-rule:nonzero;"/>
            <path d="M29.699,202.29C29.699,202.058 29.741,201.844 29.825,201.648C29.909,201.452 30.025,201.282 30.173,201.138C30.321,200.994 30.493,200.882 30.689,200.802C30.885,200.722 31.099,200.682 31.331,200.682C31.563,200.682 31.779,200.722 31.979,200.802C32.179,200.882 32.353,200.994 32.501,201.138C32.649,201.282 32.765,201.452 32.849,201.648C32.933,201.844 32.975,202.054 32.975,202.278C32.975,202.51 32.933,202.724 32.849,202.92C32.765,203.116 32.649,203.286 32.501,203.43C32.353,203.574 32.179,203.686 31.979,203.766C31.779,203.846 31.567,203.886 31.343,203.886C31.111,203.886 30.895,203.846 30.695,203.766C30.495,203.686 30.321,203.574 30.173,203.43C30.025,203.286 29.909,203.118 29.825,202.926C29.741,202.734 29.699,202.522 29.699,202.29ZM31.343,203.166C31.591,203.166 31.797,203.082 31.961,202.914C32.125,202.746 32.207,202.534 32.207,202.278C32.207,202.038 32.125,201.834 31.961,201.666C31.797,201.498 31.587,201.414 31.331,201.414C31.091,201.414 30.889,201.498 30.725,201.666C30.561,201.834 30.479,202.042 30.479,202.29C30.479,202.538 30.561,202.746 30.725,202.914C30.889,203.082 31.095,203.166 31.343,203.166Z" style="fill:white;fill-rule:nonzero;"/>
            <path d="M55.087,207.642L56.431,207.642L56.431,202.182L54.871,203.022L54.427,202.17L56.551,201.006L57.523,201.006L57.523,207.642L58.843,207.642L58.843,208.602L55.087,208.602L55.087,207.642Z" style="fill:white;fill-rule:nonzero;"/>
            <path d="M60.979,207.186C61.179,207.346 61.415,207.496 61.687,207.636C61.959,207.776 62.303,207.846 62.719,207.846C63.223,207.846 63.623,207.71 63.919,207.438C64.215,207.166 64.363,206.802 64.363,206.346C64.363,205.938 64.237,205.602 63.985,205.338C63.733,205.074 63.363,204.942 62.875,204.942C62.731,204.942 62.599,204.954 62.479,204.978C62.359,205.002 62.243,205.034 62.131,205.074L61.783,204.51L63.907,202.038L60.883,202.038L60.883,201.042L65.227,201.042L65.227,201.906L63.283,204.174C63.619,204.174 63.923,204.226 64.195,204.33C64.467,204.434 64.701,204.582 64.897,204.774C65.093,204.966 65.243,205.196 65.347,205.464C65.451,205.732 65.503,206.03 65.503,206.358C65.503,206.758 65.431,207.11 65.287,207.414C65.143,207.718 64.945,207.972 64.693,208.176C64.441,208.38 64.145,208.536 63.805,208.644C63.465,208.752 63.099,208.806 62.707,208.806C62.419,208.806 62.155,208.782 61.915,208.734C61.675,208.686 61.459,208.622 61.267,208.542C61.075,208.462 60.903,208.372 60.751,208.272C60.599,208.172 60.463,208.07 60.343,207.966L60.979,207.186Z" style="fill:white;fill-rule:nonzero;"/>
            <path d="M67.543,207.186C67.767,207.37 68.013,207.524 68.281,207.648C68.549,207.772 68.883,207.834 69.283,207.834C69.563,207.834 69.807,207.792 70.015,207.708C70.223,207.624 70.397,207.51 70.537,207.366C70.677,207.222 70.781,207.054 70.849,206.862C70.917,206.67 70.951,206.462 70.951,206.238C70.951,206.086 70.927,205.922 70.879,205.746C70.831,205.57 70.747,205.408 70.627,205.26C70.507,205.112 70.343,204.99 70.135,204.894C69.927,204.798 69.663,204.75 69.343,204.75C69.015,204.75 68.755,204.782 68.563,204.846C68.371,204.91 68.195,204.982 68.035,205.062L67.483,204.642L68.203,201.042L71.911,201.042L71.911,202.05L68.959,202.05L68.611,204.03C68.691,203.982 68.819,203.936 68.995,203.892C69.171,203.848 69.383,203.826 69.631,203.826C69.991,203.826 70.321,203.878 70.621,203.982C70.921,204.086 71.179,204.24 71.395,204.444C71.611,204.648 71.779,204.896 71.899,205.188C72.019,205.48 72.079,205.818 72.079,206.202C72.079,206.554 72.023,206.886 71.911,207.198C71.799,207.51 71.627,207.786 71.395,208.026C71.163,208.266 70.867,208.456 70.507,208.596C70.147,208.736 69.719,208.806 69.223,208.806C68.695,208.806 68.245,208.726 67.873,208.566C67.501,208.406 67.187,208.21 66.931,207.978L67.543,207.186Z" style="fill:white;fill-rule:nonzero;"/>
            <path d="M73.363,202.29C73.363,202.058 73.405,201.844 73.489,201.648C73.573,201.452 73.689,201.282 73.837,201.138C73.985,200.994 74.157,200.882 74.353,200.802C74.549,200.722 74.763,200.682 74.995,200.682C75.227,200.682 75.443,200.722 75.643,200.802C75.843,200.882 76.017,200.994 76.165,201.138C76.313,201.282 76.429,201.452 76.513,201.648C76.597,201.844 76.639,202.054 76.639,202.278C76.639,202.51 76.597,202.724 76.513,202.92C76.429,203.116 76.313,203.286 76.165,203.43C76.017,203.574 75.843,203.686 75.643,203.766C75.443,203.846 75.231,203.886 75.007,203.886C74.775,203.886 74.559,203.846 74.359,203.766C74.159,203.686 73.985,203.574 73.837,203.43C73.689,203.286 73.573,203.118 73.489,202.926C73.405,202.734 73.363,202.522 73.363,202.29ZM75.007,203.166C75.255,203.166 75.461,203.082 75.625,202.914C75.789,202.746 75.871,202.534 75.871,202.278C75.871,202.038 75.789,201.834 75.625,201.666C75.461,201.498 75.251,201.414 74.995,201.414C74.755,201.414 74.553,201.498 74.389,201.666C74.225,201.834 74.143,202.042 74.143,202.29C74.143,202.538 74.225,202.746 74.389,202.914C74.553,203.082 74.759,203.166 75.007,203.166Z" style="fill:white;fill-rule:nonzero;"/>
        </g>
        <g transform="matrix(1,0,0,1,-29.6641,3.55271e-15)">
            <g transform="matrix(18,0,0,18,48.5776,28.8369)">
                <path d="M0.076,-0.667L0.287,-0.667C0.332,-0.667 0.37,-0.661 0.4,-0.648C0.429,-0.635 0.453,-0.619 0.47,-0.6C0.488,-0.581 0.5,-0.559 0.507,-0.535C0.515,-0.511 0.518,-0.488 0.518,-0.465C0.518,-0.432 0.512,-0.402 0.501,-0.377C0.49,-0.352 0.474,-0.331 0.454,-0.314C0.434,-0.297 0.41,-0.284 0.383,-0.275C0.355,-0.266 0.325,-0.262 0.292,-0.262L0.171,-0.262L0.171,-0L0.076,-0L0.076,-0.667ZM0.291,-0.344C0.332,-0.344 0.364,-0.355 0.387,-0.376C0.409,-0.397 0.42,-0.426 0.42,-0.463C0.42,-0.501 0.408,-0.531 0.386,-0.553C0.363,-0.574 0.331,-0.585 0.291,-0.585L0.171,-0.585L0.171,-0.344L0.291,-0.344Z" style="fill-rule:nonzero;"/>
            </g>
            <g transform="matrix(18,0,0,18,58.0546,28.8369)">
                <path d="M0.061,-0.667L0.15,-0.667L0.15,-0.396C0.156,-0.404 0.163,-0.413 0.172,-0.422C0.181,-0.431 0.191,-0.44 0.204,-0.448C0.217,-0.456 0.231,-0.463 0.248,-0.468C0.265,-0.473 0.284,-0.476 0.305,-0.476C0.366,-0.476 0.411,-0.458 0.44,-0.423C0.469,-0.388 0.484,-0.34 0.484,-0.279L0.484,-0L0.394,-0L0.394,-0.272C0.394,-0.315 0.385,-0.347 0.366,-0.368C0.347,-0.388 0.321,-0.398 0.287,-0.398C0.261,-0.398 0.239,-0.393 0.222,-0.382C0.205,-0.371 0.191,-0.358 0.181,-0.341C0.17,-0.324 0.163,-0.304 0.158,-0.282C0.153,-0.261 0.151,-0.239 0.151,-0.216L0.151,-0L0.061,-0L0.061,-0.667Z" style="fill-rule:nonzero;"/>
            </g>
            <g transform="matrix(18,0,0,18,67.4776,28.8369)">
                <path d="M0.352,-0.22C0.349,-0.221 0.344,-0.222 0.337,-0.223C0.329,-0.224 0.32,-0.224 0.31,-0.225C0.3,-0.226 0.289,-0.226 0.278,-0.227C0.267,-0.228 0.256,-0.228 0.245,-0.228C0.22,-0.228 0.199,-0.225 0.184,-0.219C0.168,-0.213 0.156,-0.205 0.147,-0.197C0.138,-0.188 0.131,-0.178 0.128,-0.167C0.125,-0.156 0.123,-0.145 0.123,-0.135C0.123,-0.11 0.132,-0.091 0.149,-0.078C0.166,-0.065 0.19,-0.058 0.221,-0.058C0.238,-0.058 0.255,-0.061 0.271,-0.067C0.286,-0.073 0.3,-0.081 0.312,-0.091C0.324,-0.101 0.334,-0.113 0.341,-0.126C0.348,-0.139 0.352,-0.153 0.352,-0.167L0.352,-0.22ZM0.353,-0.056C0.336,-0.033 0.313,-0.015 0.284,-0.004C0.256,0.007 0.227,0.013 0.197,0.013C0.178,0.013 0.159,0.01 0.14,0.005C0.121,0 0.103,-0.008 0.087,-0.02C0.072,-0.031 0.059,-0.046 0.05,-0.065C0.04,-0.083 0.035,-0.105 0.035,-0.132C0.035,-0.182 0.053,-0.222 0.087,-0.252C0.123,-0.282 0.173,-0.297 0.239,-0.297C0.25,-0.297 0.261,-0.297 0.273,-0.296C0.285,-0.295 0.296,-0.295 0.307,-0.294C0.318,-0.293 0.327,-0.293 0.335,-0.292C0.343,-0.291 0.349,-0.291 0.352,-0.29L0.352,-0.307C0.352,-0.342 0.342,-0.367 0.321,-0.382C0.3,-0.397 0.271,-0.404 0.235,-0.404C0.2,-0.404 0.172,-0.399 0.151,-0.39C0.13,-0.38 0.113,-0.37 0.099,-0.36L0.057,-0.421C0.065,-0.428 0.075,-0.434 0.086,-0.441C0.097,-0.448 0.111,-0.454 0.126,-0.46C0.141,-0.465 0.159,-0.47 0.178,-0.473C0.197,-0.477 0.22,-0.479 0.245,-0.479C0.305,-0.479 0.352,-0.465 0.387,-0.436C0.421,-0.406 0.438,-0.365 0.438,-0.312L0.438,-0.042C0.438,-0.025 0.438,-0.011 0.439,-0L0.355,-0L0.353,-0.056Z" style="fill-rule:nonzero;"/>
            </g>
            <g transform="matrix(18,0,0,18,76.1086,28.8369)">
                <path d="M0.092,-0.117C0.109,-0.1 0.129,-0.087 0.152,-0.077C0.175,-0.067 0.202,-0.062 0.233,-0.062C0.263,-0.062 0.288,-0.067 0.308,-0.077C0.328,-0.086 0.338,-0.101 0.338,-0.122C0.338,-0.133 0.336,-0.142 0.332,-0.15C0.327,-0.157 0.32,-0.164 0.31,-0.17C0.299,-0.176 0.285,-0.182 0.269,-0.187C0.252,-0.192 0.23,-0.197 0.205,-0.203C0.187,-0.207 0.169,-0.212 0.152,-0.219C0.134,-0.226 0.118,-0.234 0.104,-0.246C0.09,-0.257 0.079,-0.27 0.07,-0.285C0.061,-0.301 0.057,-0.32 0.057,-0.342C0.057,-0.365 0.062,-0.385 0.073,-0.402C0.083,-0.419 0.097,-0.433 0.114,-0.445C0.131,-0.456 0.151,-0.465 0.172,-0.471C0.194,-0.477 0.217,-0.48 0.24,-0.48C0.279,-0.48 0.313,-0.475 0.342,-0.465C0.37,-0.454 0.395,-0.44 0.416,-0.421L0.367,-0.359C0.353,-0.372 0.336,-0.382 0.315,-0.391C0.294,-0.4 0.269,-0.404 0.241,-0.404C0.212,-0.404 0.189,-0.399 0.172,-0.39C0.155,-0.381 0.146,-0.365 0.146,-0.344C0.146,-0.324 0.158,-0.309 0.181,-0.3C0.203,-0.29 0.234,-0.281 0.271,-0.272C0.293,-0.267 0.314,-0.261 0.333,-0.254C0.352,-0.247 0.368,-0.237 0.383,-0.227C0.397,-0.216 0.408,-0.202 0.417,-0.186C0.425,-0.17 0.429,-0.151 0.429,-0.128C0.429,-0.105 0.424,-0.084 0.413,-0.067C0.402,-0.049 0.388,-0.034 0.37,-0.022C0.352,-0.01 0.331,-0.001 0.308,0.005C0.285,0.011 0.26,0.014 0.235,0.014C0.147,0.014 0.081,-0.01 0.037,-0.057L0.092,-0.117Z" style="fill-rule:nonzero;"/>
            </g>
            <g transform="matrix(18,0,0,18,84.2536,28.8369)">
                <path d="M0.286,0.014C0.25,0.014 0.217,0.007 0.187,-0.006C0.157,-0.019 0.131,-0.036 0.11,-0.059C0.088,-0.082 0.071,-0.108 0.059,-0.138C0.046,-0.167 0.04,-0.199 0.04,-0.233C0.04,-0.267 0.046,-0.299 0.059,-0.329C0.071,-0.358 0.088,-0.384 0.11,-0.407C0.131,-0.43 0.157,-0.448 0.187,-0.461C0.217,-0.473 0.25,-0.48 0.286,-0.48C0.321,-0.48 0.354,-0.473 0.384,-0.461C0.414,-0.448 0.44,-0.43 0.462,-0.407C0.484,-0.384 0.501,-0.358 0.514,-0.329C0.526,-0.299 0.532,-0.267 0.532,-0.233C0.532,-0.199 0.526,-0.167 0.514,-0.138C0.501,-0.108 0.484,-0.082 0.462,-0.059C0.44,-0.036 0.414,-0.019 0.384,-0.006C0.354,0.007 0.321,0.014 0.286,0.014ZM0.286,-0.064C0.31,-0.064 0.332,-0.069 0.351,-0.079C0.37,-0.088 0.387,-0.101 0.4,-0.117C0.413,-0.132 0.424,-0.15 0.431,-0.171C0.438,-0.191 0.441,-0.212 0.441,-0.233C0.441,-0.254 0.438,-0.274 0.431,-0.295C0.424,-0.315 0.413,-0.333 0.4,-0.349C0.386,-0.365 0.37,-0.378 0.35,-0.388C0.332,-0.397 0.31,-0.402 0.286,-0.402C0.262,-0.402 0.24,-0.397 0.221,-0.388C0.202,-0.378 0.185,-0.365 0.172,-0.349C0.159,-0.334 0.149,-0.316 0.141,-0.296C0.135,-0.275 0.131,-0.254 0.131,-0.233C0.131,-0.212 0.135,-0.191 0.141,-0.171C0.149,-0.151 0.159,-0.133 0.172,-0.117C0.186,-0.101 0.203,-0.088 0.222,-0.079C0.241,-0.069 0.262,-0.064 0.286,-0.064Z" style="fill-rule:nonzero;"/>
            </g>
            <g transform="matrix(18,0,0,18,94.1986,28.8369)">
                <path d="M0.062,-0L0.062,-0.421C0.062,-0.435 0.062,-0.45 0.061,-0.465L0.147,-0.465L0.15,-0.39C0.155,-0.398 0.162,-0.407 0.171,-0.417C0.18,-0.426 0.19,-0.435 0.203,-0.443C0.215,-0.451 0.229,-0.458 0.246,-0.464C0.262,-0.469 0.281,-0.472 0.302,-0.472C0.312,-0.472 0.321,-0.471 0.33,-0.47C0.338,-0.469 0.346,-0.467 0.353,-0.464L0.333,-0.38C0.321,-0.385 0.306,-0.387 0.287,-0.387C0.268,-0.387 0.25,-0.383 0.234,-0.376C0.217,-0.369 0.203,-0.359 0.191,-0.345C0.179,-0.333 0.17,-0.317 0.163,-0.3C0.156,-0.283 0.152,-0.264 0.152,-0.245L0.152,-0L0.062,-0Z" style="fill-rule:nonzero;"/>
            </g>
            <g transform="matrix(18,0,0,18,40.1536,46.8369)">
                <path d="M0.389,0.017C0.341,0.017 0.296,0.008 0.255,-0.011C0.214,-0.029 0.178,-0.054 0.147,-0.086C0.116,-0.117 0.092,-0.154 0.075,-0.197C0.058,-0.24 0.049,-0.285 0.049,-0.334C0.049,-0.383 0.058,-0.428 0.075,-0.47C0.092,-0.513 0.116,-0.55 0.147,-0.582C0.177,-0.613 0.213,-0.638 0.255,-0.657C0.296,-0.675 0.341,-0.684 0.389,-0.684C0.437,-0.684 0.482,-0.675 0.524,-0.657C0.565,-0.638 0.601,-0.613 0.632,-0.582C0.663,-0.55 0.687,-0.513 0.704,-0.47C0.721,-0.428 0.73,-0.383 0.73,-0.334C0.73,-0.285 0.721,-0.24 0.704,-0.197C0.687,-0.154 0.663,-0.117 0.632,-0.086C0.601,-0.054 0.565,-0.029 0.524,-0.011C0.482,0.008 0.437,0.017 0.389,0.017ZM0.389,-0.073C0.426,-0.073 0.459,-0.08 0.489,-0.094C0.518,-0.108 0.544,-0.127 0.565,-0.151C0.586,-0.175 0.602,-0.203 0.613,-0.234C0.624,-0.266 0.63,-0.3 0.63,-0.335C0.63,-0.371 0.624,-0.405 0.613,-0.437C0.602,-0.468 0.586,-0.496 0.565,-0.52C0.544,-0.544 0.518,-0.563 0.489,-0.577C0.459,-0.59 0.426,-0.597 0.389,-0.597C0.352,-0.597 0.319,-0.59 0.29,-0.577C0.261,-0.563 0.235,-0.544 0.215,-0.52C0.194,-0.496 0.177,-0.468 0.166,-0.437C0.155,-0.405 0.149,-0.371 0.149,-0.335C0.149,-0.3 0.155,-0.266 0.166,-0.234C0.177,-0.203 0.194,-0.175 0.215,-0.151C0.235,-0.127 0.261,-0.108 0.29,-0.094C0.319,-0.08 0.352,-0.073 0.389,-0.073Z" style="fill-rule:nonzero;"/>
            </g>
            <g transform="matrix(18,0,0,18,53.8246,46.8369)">
                <path d="M0.466,-0.064C0.445,-0.041 0.42,-0.022 0.39,-0.008C0.359,0.007 0.324,0.014 0.284,0.014C0.247,0.014 0.213,0.008 0.183,-0.005C0.152,-0.017 0.127,-0.034 0.106,-0.056C0.085,-0.077 0.068,-0.103 0.057,-0.134C0.046,-0.164 0.04,-0.197 0.04,-0.233C0.04,-0.267 0.046,-0.299 0.058,-0.329C0.07,-0.359 0.087,-0.385 0.109,-0.407C0.13,-0.43 0.156,-0.448 0.186,-0.461C0.215,-0.473 0.248,-0.48 0.284,-0.48C0.323,-0.48 0.358,-0.473 0.388,-0.459C0.418,-0.445 0.444,-0.426 0.465,-0.402L0.406,-0.345C0.392,-0.362 0.375,-0.376 0.355,-0.386C0.335,-0.396 0.311,-0.401 0.284,-0.401C0.26,-0.401 0.238,-0.397 0.22,-0.388C0.201,-0.379 0.185,-0.366 0.172,-0.35C0.159,-0.335 0.149,-0.317 0.141,-0.297C0.135,-0.276 0.131,-0.255 0.131,-0.233C0.131,-0.212 0.135,-0.191 0.141,-0.171C0.149,-0.15 0.159,-0.132 0.172,-0.117C0.185,-0.101 0.201,-0.088 0.22,-0.079C0.238,-0.07 0.26,-0.065 0.284,-0.065C0.311,-0.065 0.336,-0.07 0.358,-0.081C0.379,-0.091 0.397,-0.105 0.411,-0.122L0.466,-0.064Z" style="fill-rule:nonzero;"/>
            </g>
            <g transform="matrix(18,0,0,18,62.3476,46.8369)">
                <path d="M0.102,-0.39L0.018,-0.39L0.018,-0.465L0.102,-0.465L0.102,-0.617L0.192,-0.617L0.192,-0.465L0.328,-0.465L0.328,-0.39L0.192,-0.39L0.192,-0.161C0.192,-0.124 0.198,-0.098 0.21,-0.084C0.221,-0.07 0.238,-0.063 0.259,-0.063C0.276,-0.063 0.291,-0.066 0.302,-0.071C0.313,-0.076 0.325,-0.084 0.336,-0.095L0.377,-0.04C0.358,-0.021 0.338,-0.008 0.318,0C0.297,0.009 0.273,0.013 0.245,0.013C0.196,0.013 0.16,-0 0.137,-0.027C0.114,-0.054 0.102,-0.095 0.102,-0.152L0.102,-0.39Z" style="fill-rule:nonzero;"/>
            </g>
            <g transform="matrix(18,0,0,18,68.9086,46.8369)">
                <path d="M0.352,-0.22C0.349,-0.221 0.344,-0.222 0.337,-0.223C0.329,-0.224 0.32,-0.224 0.31,-0.225C0.3,-0.226 0.289,-0.226 0.278,-0.227C0.267,-0.228 0.256,-0.228 0.245,-0.228C0.22,-0.228 0.199,-0.225 0.184,-0.219C0.168,-0.213 0.156,-0.205 0.147,-0.197C0.138,-0.188 0.131,-0.178 0.128,-0.167C0.125,-0.156 0.123,-0.145 0.123,-0.135C0.123,-0.11 0.132,-0.091 0.149,-0.078C0.166,-0.065 0.19,-0.058 0.221,-0.058C0.238,-0.058 0.255,-0.061 0.271,-0.067C0.286,-0.073 0.3,-0.081 0.312,-0.091C0.324,-0.101 0.334,-0.113 0.341,-0.126C0.348,-0.139 0.352,-0.153 0.352,-0.167L0.352,-0.22ZM0.353,-0.056C0.336,-0.033 0.313,-0.015 0.284,-0.004C0.256,0.007 0.227,0.013 0.197,0.013C0.178,0.013 0.159,0.01 0.14,0.005C0.121,0 0.103,-0.008 0.087,-0.02C0.072,-0.031 0.059,-0.046 0.05,-0.065C0.04,-0.083 0.035,-0.105 0.035,-0.132C0.035,-0.182 0.053,-0.222 0.087,-0.252C0.123,-0.282 0.173,-0.297 0.239,-0.297C0.25,-0.297 0.261,-0.297 0.273,-0.296C0.285,-0.295 0.296,-0.295 0.307,-0.294C0.318,-0.293 0.327,-0.293 0.335,-0.292C0.343,-0.291 0.349,-0.291 0.352,-0.29L0.352,-0.307C0.352,-0.342 0.342,-0.367 0.321,-0.382C0.3,-0.397 0.271,-0.404 0.235,-0.404C0.2,-0.404 0.172,-0.399 0.151,-0.39C0.13,-0.38 0.113,-0.37 0.099,-0.36L0.057,-0.421C0.065,-0.428 0.075,-0.434 0.086,-0.441C0.097,-0.448 0.111,-0.454 0.126,-0.46C0.141,-0.465 0.159,-0.47 0.178,-0.473C0.197,-0.477 0.22,-0.479 0.245,-0.479C0.305,-0.479 0.352,-0.465 0.387,-0.436C0.421,-0.406 0.438,-0.365 0.438,-0.312L0.438,-0.042C0.438,-0.025 0.438,-0.011 0.439,-0L0.355,-0L0.353,-0.056Z" style="fill-rule:nonzero;"/>
            </g>
            <g transform="matrix(18,0,0,18,77.5396,46.8369)">
                <path d="M0.102,-0.39L0.018,-0.39L0.018,-0.465L0.102,-0.465L0.102,-0.617L0.192,-0.617L0.192,-0.465L0.328,-0.465L0.328,-0.39L0.192,-0.39L0.192,-0.161C0.192,-0.124 0.198,-0.098 0.21,-0.084C0.221,-0.07 0.238,-0.063 0.259,-0.063C0.276,-0.063 0.291,-0.066 0.302,-0.071C0.313,-0.076 0.325,-0.084 0.336,-0.095L0.377,-0.04C0.358,-0.021 0.338,-0.008 0.318,0C0.297,0.009 0.273,0.013 0.245,0.013C0.196,0.013 0.16,-0 0.137,-0.027C0.114,-0.054 0.102,-0.095 0.102,-0.152L0.102,-0.39Z" style="fill-rule:nonzero;"/>
            </g>
            <g transform="matrix(18,0,0,18,83.9206,46.8369)">
                <path d="M0.059,-0.465L0.149,-0.465L0.149,-0.192C0.149,-0.148 0.158,-0.116 0.176,-0.097C0.194,-0.077 0.22,-0.067 0.254,-0.067C0.28,-0.067 0.302,-0.072 0.319,-0.083C0.336,-0.094 0.349,-0.108 0.36,-0.125C0.371,-0.141 0.378,-0.161 0.383,-0.183C0.387,-0.204 0.389,-0.226 0.389,-0.249L0.389,-0.465L0.479,-0.465L0.479,-0.048C0.479,-0.033 0.479,-0.017 0.48,-0L0.394,-0L0.391,-0.069C0.385,-0.061 0.378,-0.052 0.369,-0.043C0.36,-0.034 0.35,-0.025 0.337,-0.018C0.324,-0.01 0.31,-0.003 0.293,0.002C0.276,0.007 0.257,0.01 0.236,0.01C0.175,0.01 0.131,-0.008 0.102,-0.043C0.073,-0.078 0.059,-0.125 0.059,-0.186L0.059,-0.465Z" style="fill-rule:nonzero;"/>
            </g>
            <g transform="matrix(18,0,0,18,93.3256,46.8369)">
                <path d="M0.062,-0L0.062,-0.421C0.062,-0.435 0.062,-0.45 0.061,-0.465L0.147,-0.465L0.15,-0.39C0.155,-0.398 0.162,-0.407 0.171,-0.417C0.18,-0.426 0.19,-0.435 0.203,-0.443C0.215,-0.451 0.229,-0.458 0.246,-0.464C0.262,-0.469 0.281,-0.472 0.302,-0.472C0.312,-0.472 0.321,-0.471 0.33,-0.47C0.338,-0.469 0.346,-0.467 0.353,-0.464L0.333,-0.38C0.321,-0.385 0.306,-0.387 0.287,-0.387C0.268,-0.387 0.25,-0.383 0.234,-0.376C0.217,-0.369 0.203,-0.359 0.191,-0.345C0.179,-0.333 0.17,-0.317 0.163,-0.3C0.156,-0.283 0.152,-0.264 0.152,-0.245L0.152,-0L0.062,-0Z" style="fill-rule:nonzero;"/>
            </g>
            <g transform="matrix(18,0,0,18,99.5266,46.8369)">
                <path d="M0.486,-0.068C0.481,-0.062 0.473,-0.054 0.462,-0.045C0.451,-0.036 0.438,-0.027 0.421,-0.018C0.404,-0.009 0.384,-0.002 0.361,0.004C0.338,0.011 0.311,0.014 0.282,0.014C0.246,0.014 0.213,0.008 0.183,-0.004C0.153,-0.016 0.127,-0.033 0.106,-0.055C0.085,-0.077 0.068,-0.103 0.057,-0.134C0.045,-0.165 0.039,-0.199 0.039,-0.236C0.039,-0.27 0.045,-0.302 0.056,-0.332C0.067,-0.361 0.083,-0.387 0.104,-0.408C0.125,-0.43 0.149,-0.447 0.178,-0.46C0.206,-0.473 0.237,-0.479 0.271,-0.479C0.311,-0.479 0.345,-0.471 0.374,-0.456C0.403,-0.441 0.426,-0.42 0.445,-0.395C0.463,-0.37 0.476,-0.341 0.485,-0.308C0.494,-0.275 0.498,-0.241 0.498,-0.206L0.131,-0.206C0.132,-0.185 0.136,-0.166 0.145,-0.149C0.153,-0.132 0.164,-0.117 0.178,-0.104C0.192,-0.091 0.208,-0.081 0.226,-0.074C0.244,-0.067 0.263,-0.063 0.283,-0.063C0.322,-0.063 0.355,-0.07 0.38,-0.083C0.405,-0.096 0.424,-0.109 0.435,-0.122L0.486,-0.068ZM0.405,-0.273C0.402,-0.309 0.39,-0.34 0.367,-0.365C0.344,-0.39 0.312,-0.403 0.271,-0.403C0.25,-0.403 0.231,-0.399 0.214,-0.392C0.197,-0.385 0.182,-0.375 0.17,-0.363C0.158,-0.351 0.149,-0.337 0.142,-0.322C0.135,-0.306 0.132,-0.29 0.131,-0.273L0.405,-0.273Z" style="fill-rule:nonzero;"/>
            </g>
        </g>
        <path d="M22.05,88.552L24.582,88.552C25.126,88.552 25.576,88.628 25.932,88.78C26.288,88.932 26.572,89.124 26.784,89.356C26.996,89.588 27.144,89.848 27.228,90.136C27.312,90.424 27.354,90.704 27.354,90.976C27.354,91.376 27.286,91.728 27.15,92.032C27.014,92.336 26.826,92.59 26.586,92.794C26.346,92.998 26.06,93.152 25.728,93.256C25.396,93.36 25.034,93.412 24.642,93.412L23.19,93.412L23.19,96.556L22.05,96.556L22.05,88.552ZM24.63,92.428C25.126,92.428 25.508,92.302 25.776,92.05C26.044,91.798 26.178,91.448 26.178,91C26.178,90.544 26.04,90.186 25.764,89.926C25.488,89.666 25.11,89.536 24.63,89.536L23.19,89.536L23.19,92.428L24.63,92.428Z" style="fill-rule:nonzero;"/>
        <path d="M28.434,88.552L29.502,88.552L29.502,91.804C29.574,91.708 29.662,91.604 29.766,91.492C29.87,91.38 29.998,91.276 30.15,91.18C30.302,91.084 30.478,91.004 30.678,90.94C30.878,90.876 31.106,90.844 31.362,90.844C32.09,90.844 32.63,91.056 32.982,91.48C33.334,91.904 33.51,92.48 33.51,93.208L33.51,96.556L32.43,96.556L32.43,93.292C32.43,92.772 32.318,92.39 32.094,92.146C31.87,91.902 31.554,91.78 31.146,91.78C30.834,91.78 30.574,91.844 30.366,91.972C30.158,92.1 29.992,92.266 29.868,92.47C29.744,92.674 29.654,92.906 29.598,93.166C29.542,93.426 29.514,93.692 29.514,93.964L29.514,96.556L28.434,96.556L28.434,88.552Z" style="fill-rule:nonzero;"/>
        <path d="M38.454,93.916C38.422,93.908 38.36,93.898 38.268,93.886C38.176,93.874 38.07,93.864 37.95,93.856C37.83,93.848 37.702,93.84 37.566,93.832C37.43,93.824 37.298,93.82 37.17,93.82C36.866,93.82 36.62,93.856 36.432,93.928C36.244,94 36.096,94.09 35.988,94.198C35.88,94.306 35.806,94.426 35.766,94.558C35.726,94.69 35.706,94.816 35.706,94.936C35.706,95.24 35.81,95.47 36.018,95.626C36.226,95.782 36.514,95.86 36.882,95.86C37.09,95.86 37.288,95.824 37.476,95.752C37.664,95.68 37.83,95.584 37.974,95.464C38.118,95.344 38.234,95.204 38.322,95.044C38.41,94.884 38.454,94.72 38.454,94.552L38.454,93.916ZM38.466,95.884C38.258,96.164 37.984,96.372 37.644,96.508C37.304,96.644 36.954,96.712 36.594,96.712C36.362,96.712 36.132,96.682 35.904,96.622C35.676,96.562 35.468,96.462 35.28,96.322C35.092,96.182 34.94,96.002 34.824,95.782C34.708,95.562 34.65,95.292 34.65,94.972C34.65,94.372 34.86,93.892 35.28,93.532C35.7,93.172 36.306,92.992 37.098,92.992C37.226,92.992 37.362,92.996 37.506,93.004C37.65,93.012 37.786,93.02 37.914,93.028C38.042,93.036 38.154,93.044 38.25,93.052C38.346,93.06 38.414,93.068 38.454,93.076L38.454,92.872C38.454,92.456 38.328,92.158 38.076,91.978C37.824,91.798 37.482,91.708 37.05,91.708C36.626,91.708 36.29,91.766 36.042,91.882C35.794,91.998 35.586,92.116 35.418,92.236L34.914,91.504C35.01,91.424 35.126,91.344 35.262,91.264C35.398,91.184 35.558,91.11 35.742,91.042C35.926,90.974 36.134,90.918 36.366,90.874C36.598,90.83 36.866,90.808 37.17,90.808C37.89,90.808 38.456,90.982 38.868,91.33C39.28,91.678 39.486,92.172 39.486,92.812L39.486,96.058C39.486,96.254 39.49,96.42 39.498,96.556L38.49,96.556L38.466,95.884Z" style="fill-rule:nonzero;"/>
        <path d="M41.334,95.152C41.534,95.352 41.774,95.512 42.054,95.632C42.334,95.752 42.658,95.812 43.026,95.812C43.386,95.812 43.686,95.754 43.926,95.638C44.166,95.522 44.286,95.34 44.286,95.092C44.286,94.964 44.26,94.854 44.208,94.762C44.156,94.67 44.068,94.588 43.944,94.516C43.82,94.444 43.656,94.378 43.452,94.318C43.248,94.258 42.994,94.192 42.69,94.12C42.474,94.072 42.26,94.008 42.048,93.928C41.836,93.848 41.646,93.742 41.478,93.61C41.31,93.478 41.174,93.318 41.07,93.13C40.966,92.942 40.914,92.716 40.914,92.452C40.914,92.18 40.976,91.942 41.1,91.738C41.224,91.534 41.39,91.362 41.598,91.222C41.806,91.082 42.04,90.976 42.3,90.904C42.56,90.832 42.83,90.796 43.11,90.796C43.582,90.796 43.988,90.858 44.328,90.982C44.668,91.106 44.966,91.28 45.222,91.504L44.634,92.248C44.466,92.096 44.256,91.968 44.004,91.864C43.752,91.76 43.458,91.708 43.122,91.708C42.778,91.708 42.502,91.764 42.294,91.876C42.086,91.988 41.982,92.172 41.982,92.428C41.982,92.668 42.12,92.846 42.396,92.962C42.672,93.078 43.034,93.188 43.482,93.292C43.746,93.356 43.992,93.43 44.22,93.514C44.448,93.598 44.648,93.706 44.82,93.838C44.992,93.97 45.128,94.132 45.228,94.324C45.328,94.516 45.378,94.748 45.378,95.02C45.378,95.3 45.314,95.546 45.186,95.758C45.058,95.97 44.886,96.148 44.67,96.292C44.454,96.436 44.206,96.544 43.926,96.616C43.646,96.688 43.354,96.724 43.05,96.724C41.994,96.724 41.202,96.44 40.674,95.872L41.334,95.152Z" style="fill-rule:nonzero;"/>
        <path d="M49.338,96.724C48.906,96.724 48.51,96.646 48.15,96.49C47.79,96.334 47.48,96.12 47.22,95.848C46.96,95.576 46.756,95.262 46.608,94.906C46.46,94.55 46.386,94.168 46.386,93.76C46.386,93.352 46.46,92.97 46.608,92.614C46.756,92.258 46.96,91.944 47.22,91.672C47.48,91.4 47.79,91.186 48.15,91.03C48.51,90.874 48.906,90.796 49.338,90.796C49.762,90.796 50.154,90.874 50.514,91.03C50.874,91.186 51.186,91.4 51.45,91.672C51.714,91.944 51.92,92.258 52.068,92.614C52.216,92.97 52.29,93.352 52.29,93.76C52.29,94.168 52.216,94.55 52.068,94.906C51.92,95.262 51.714,95.576 51.45,95.848C51.186,96.12 50.874,96.334 50.514,96.49C50.154,96.646 49.762,96.724 49.338,96.724ZM49.338,95.788C49.626,95.788 49.886,95.73 50.118,95.614C50.35,95.498 50.546,95.346 50.706,95.158C50.866,94.97 50.988,94.754 51.072,94.51C51.156,94.266 51.198,94.016 51.198,93.76C51.198,93.512 51.156,93.266 51.072,93.022C50.988,92.778 50.864,92.56 50.7,92.368C50.536,92.176 50.34,92.022 50.112,91.906C49.884,91.79 49.626,91.732 49.338,91.732C49.05,91.732 48.79,91.79 48.558,91.906C48.326,92.022 48.13,92.174 47.97,92.362C47.81,92.55 47.688,92.766 47.604,93.01C47.52,93.254 47.478,93.504 47.478,93.76C47.478,94.016 47.52,94.264 47.604,94.504C47.688,94.744 47.812,94.96 47.976,95.152C48.14,95.344 48.336,95.498 48.564,95.614C48.792,95.73 49.05,95.788 49.338,95.788Z" style="fill-rule:nonzero;"/>
        <path d="M53.526,96.556L53.526,91.51C53.526,91.338 53.522,91.16 53.514,90.976L54.546,90.976L54.582,91.876C54.646,91.78 54.73,91.674 54.834,91.558C54.938,91.442 55.064,91.336 55.212,91.24C55.36,91.144 55.532,91.062 55.728,90.994C55.924,90.926 56.15,90.892 56.406,90.892C56.526,90.892 56.636,90.9 56.736,90.916C56.836,90.932 56.93,90.956 57.018,90.988L56.778,91.996C56.634,91.94 56.45,91.912 56.226,91.912C55.994,91.912 55.78,91.956 55.584,92.044C55.388,92.132 55.218,92.254 55.074,92.41C54.93,92.566 54.816,92.748 54.732,92.956C54.648,93.164 54.606,93.384 54.606,93.616L54.606,96.556L53.526,96.556Z" style="fill-rule:nonzero;"/>
        <rect x="60.258" y="88.552" width="1.152" height="8.004" style="fill-rule:nonzero;"/>
        <path d="M63.078,96.556L63.078,91.546C63.078,91.366 63.074,91.176 63.066,90.976L64.098,90.976L64.134,91.816C64.206,91.72 64.294,91.614 64.398,91.498C64.502,91.382 64.63,91.276 64.782,91.18C64.934,91.084 65.112,91.004 65.316,90.94C65.52,90.876 65.75,90.844 66.006,90.844C66.734,90.844 67.274,91.056 67.626,91.48C67.978,91.904 68.154,92.48 68.154,93.208L68.154,96.556L67.074,96.556L67.074,93.292C67.074,92.772 66.962,92.39 66.738,92.146C66.514,91.902 66.198,91.78 65.79,91.78C65.478,91.78 65.218,91.844 65.01,91.972C64.802,92.1 64.636,92.266 64.512,92.47C64.388,92.674 64.298,92.906 64.242,93.166C64.186,93.426 64.158,93.692 64.158,93.964L64.158,96.556L63.078,96.556Z" style="fill-rule:nonzero;"/>
    </g>
</svg>
