<?xml version="1.0" encoding="UTF-8" standalone="no"?>
<!DOCTYPE svg PUBLIC "-//W3C//DTD SVG 1.1//EN" "http://www.w3.org/Graphics/SVG/1.1/DTD/svg11.dtd">
<svg width="100%" height="100%" viewBox="0 0 240 380" version="1.1" xmlns="http://www.w3.org/2000/svg" xmlns:xlink="http://www.w3.org/1999/xlink" xml:space="preserve" xmlns:serif="http://www.serif.com/" style="fill-rule:evenodd;clip-rule:evenodd;stroke-linecap:round;stroke-linejoin:round;stroke-miterlimit:1.5;">
    <g id="svg8">
        <rect x="0" y="0" width="240" height="380" style="fill:rgb(240,240,240);"/>
        <g id="HCV-Logo" serif:id="HCV Logo">
            <path d="M95.548,374.578L93.942,374.578L93.942,369.247L87.866,369.247L87.866,374.578L86.26,374.578L86.26,363.154L87.866,363.154L87.866,367.873L93.942,367.873L93.942,363.154L95.548,363.154L95.548,374.578Z" style="fill:rgb(35,31,32);fill-rule:nonzero;"/>
            <path d="M103.755,374.578L96.934,374.578L96.934,363.154L103.623,363.154L103.623,364.496L98.54,364.496L98.54,367.906L103.341,367.906L103.341,369.247L98.54,369.247L98.54,373.221L103.755,373.221L103.755,374.578Z" style="fill:rgb(35,31,32);fill-rule:nonzero;"/>
            <path d="M112.629,364.496L109.417,364.496L109.417,374.578L107.811,374.578L107.811,364.496L104.583,364.496L104.583,363.154L112.629,363.154L112.629,364.496Z" style="fill:rgb(35,31,32);fill-rule:nonzero;"/>
            <path d="M118.339,364.877C117.826,364.496 117.213,364.463 116.419,364.463L115.243,364.463L115.243,368.337L116.419,368.337C117.213,368.337 117.826,368.304 118.339,367.94C118.853,367.559 119.068,367.095 119.068,366.399C119.068,365.721 118.853,365.241 118.339,364.877M121.386,374.578L119.448,374.578L116.468,369.661L115.243,369.661L115.243,374.578L113.637,374.578L113.637,363.154L116.865,363.154C118.008,363.154 118.935,363.42 119.614,363.949C120.293,364.496 120.723,365.323 120.723,366.366C120.723,368.37 119.332,369.264 118.124,369.496L121.386,374.578Z" style="fill:rgb(35,31,32);fill-rule:nonzero;"/>
            <rect x="122.578" y="363.154" width="1.605" height="11.424" style="fill:rgb(35,31,32);"/>
            <path d="M135.306,373.088C134.594,373.883 133.303,374.777 131.134,374.777C127.805,374.777 125.289,372.442 125.289,368.883C125.289,365.323 127.855,362.989 131.134,362.989C133.27,362.989 134.561,363.883 135.189,364.496L134.511,365.787C134.064,365.225 132.789,364.397 131.201,364.397C128.733,364.397 126.946,366.168 126.946,368.85C126.946,371.532 128.749,373.304 131.201,373.304C132.706,373.304 133.866,372.725 134.611,371.913L135.306,373.088Z" style="fill:rgb(237,50,36);fill-rule:nonzero;"/>
            <path d="M145.216,374.578L143.263,374.578L139.471,368.849L138.296,370.042L138.296,374.578L136.69,374.578L136.69,363.154L138.296,363.154L138.296,368.022L142.948,363.154L144.902,363.154L140.547,367.658L145.216,374.578Z" style="fill:rgb(237,50,36);fill-rule:nonzero;"/>
            <path d="M145.216,374.578L143.263,374.578L139.471,368.849L138.296,370.042L138.296,374.578L136.69,374.578L136.69,370.019L138.296,370.042L139.471,368.849L140.547,367.658L141.164,368.571L141.661,369.308L145.216,374.578Z" style="fill-rule:nonzero;"/>
        </g>
        <g id="Out">
            <path d="M233.438,301.853C233.438,298.542 230.75,295.853 227.438,295.853L11.731,295.853C8.42,295.853 5.731,298.542 5.731,301.853L5.731,349.853C5.731,353.165 8.42,355.853 11.731,355.853L227.438,355.853C230.75,355.853 233.438,353.165 233.438,349.853L233.438,301.853Z"/>
            <path d="M20.503,343.964L23.311,343.964L23.311,347.156C23.159,347.292 22.985,347.424 22.789,347.552C22.593,347.68 22.365,347.794 22.105,347.894C21.845,347.994 21.555,348.074 21.235,348.134C20.915,348.194 20.555,348.224 20.155,348.224C19.531,348.224 18.969,348.118 18.469,347.906C17.969,347.694 17.541,347.402 17.185,347.03C16.829,346.658 16.557,346.218 16.369,345.71C16.181,345.202 16.087,344.648 16.087,344.048C16.087,343.464 16.185,342.916 16.381,342.404C16.577,341.892 16.851,341.446 17.203,341.066C17.555,340.686 17.977,340.386 18.469,340.166C18.961,339.946 19.507,339.836 20.107,339.836C20.531,339.836 20.911,339.886 21.247,339.986C21.583,340.086 21.877,340.214 22.129,340.37C22.381,340.526 22.595,340.696 22.771,340.88C22.947,341.064 23.095,341.24 23.215,341.408L22.399,342.104C22.303,341.968 22.187,341.826 22.051,341.678C21.915,341.53 21.755,341.396 21.571,341.276C21.387,341.156 21.177,341.056 20.941,340.976C20.705,340.896 20.435,340.856 20.131,340.856C19.691,340.856 19.295,340.94 18.943,341.108C18.591,341.276 18.293,341.504 18.049,341.792C17.805,342.08 17.617,342.418 17.485,342.806C17.353,343.194 17.287,343.604 17.287,344.036C17.287,344.5 17.359,344.924 17.503,345.308C17.647,345.692 17.849,346.022 18.109,346.298C18.369,346.574 18.675,346.79 19.027,346.946C19.379,347.102 19.767,347.18 20.191,347.18C20.655,347.18 21.049,347.128 21.373,347.024C21.697,346.92 21.975,346.776 22.207,346.592L22.207,344.96L20.503,344.96L20.503,343.964Z" style="fill:white;fill-rule:nonzero;"/>
            <path d="M28.351,345.392C28.319,345.384 28.257,345.374 28.165,345.362C28.073,345.35 27.967,345.34 27.847,345.332C27.727,345.324 27.599,345.316 27.463,345.308C27.327,345.3 27.195,345.296 27.067,345.296C26.763,345.296 26.517,345.332 26.329,345.404C26.141,345.476 25.993,345.566 25.885,345.674C25.777,345.782 25.703,345.902 25.663,346.034C25.623,346.166 25.603,346.292 25.603,346.412C25.603,346.716 25.707,346.946 25.915,347.102C26.123,347.258 26.411,347.336 26.779,347.336C26.987,347.336 27.185,347.3 27.373,347.228C27.561,347.156 27.727,347.06 27.871,346.94C28.015,346.82 28.131,346.68 28.219,346.52C28.307,346.36 28.351,346.196 28.351,346.028L28.351,345.392ZM28.363,347.36C28.155,347.64 27.881,347.848 27.541,347.984C27.201,348.12 26.851,348.188 26.491,348.188C26.259,348.188 26.029,348.158 25.801,348.098C25.573,348.038 25.365,347.938 25.177,347.798C24.989,347.658 24.837,347.478 24.721,347.258C24.605,347.038 24.547,346.768 24.547,346.448C24.547,345.848 24.757,345.368 25.177,345.008C25.597,344.648 26.203,344.468 26.995,344.468C27.123,344.468 27.259,344.472 27.403,344.48C27.547,344.488 27.683,344.496 27.811,344.504C27.939,344.512 28.051,344.52 28.147,344.528C28.243,344.536 28.311,344.544 28.351,344.552L28.351,344.348C28.351,343.932 28.225,343.634 27.973,343.454C27.721,343.274 27.379,343.184 26.947,343.184C26.523,343.184 26.187,343.242 25.939,343.358C25.691,343.474 25.483,343.592 25.315,343.712L24.811,342.98C24.907,342.9 25.023,342.82 25.159,342.74C25.295,342.66 25.455,342.586 25.639,342.518C25.823,342.45 26.031,342.394 26.263,342.35C26.495,342.306 26.763,342.284 27.067,342.284C27.787,342.284 28.353,342.458 28.765,342.806C29.177,343.154 29.383,343.648 29.383,344.288L29.383,347.534C29.383,347.73 29.387,347.896 29.395,348.032L28.387,348.032L28.363,347.36Z" style="fill:white;fill-rule:nonzero;"/>
            <path d="M31.315,343.352L30.307,343.352L30.307,342.452L31.315,342.452L31.315,340.628L32.395,340.628L32.395,342.452L34.027,342.452L34.027,343.352L32.395,343.352L32.395,346.1C32.395,346.548 32.465,346.856 32.605,347.024C32.745,347.192 32.943,347.276 33.199,347.276C33.407,347.276 33.579,347.244 33.715,347.18C33.851,347.116 33.987,347.02 34.123,346.892L34.615,347.552C34.383,347.776 34.145,347.938 33.901,348.038C33.657,348.138 33.367,348.188 33.031,348.188C32.439,348.188 32.005,348.028 31.729,347.708C31.453,347.388 31.315,346.888 31.315,346.208L31.315,343.352Z" style="fill:white;fill-rule:nonzero;"/>
            <path d="M40.507,347.216C40.443,347.288 40.347,347.38 40.219,347.492C40.091,347.604 39.925,347.712 39.721,347.816C39.517,347.92 39.277,348.01 39.001,348.086C38.725,348.162 38.411,348.2 38.059,348.2C37.627,348.2 37.231,348.128 36.871,347.984C36.511,347.84 36.203,347.636 35.947,347.372C35.691,347.108 35.493,346.792 35.353,346.424C35.213,346.056 35.143,345.648 35.143,345.2C35.143,344.792 35.211,344.41 35.347,344.054C35.483,343.698 35.675,343.39 35.923,343.13C36.171,342.87 36.465,342.664 36.805,342.512C37.145,342.36 37.519,342.284 37.927,342.284C38.407,342.284 38.819,342.376 39.163,342.56C39.507,342.744 39.789,342.988 40.009,343.292C40.229,343.596 40.391,343.944 40.495,344.336C40.599,344.728 40.651,345.136 40.651,345.56L36.247,345.56C36.255,345.808 36.309,346.036 36.409,346.244C36.509,346.452 36.643,346.632 36.811,346.784C36.979,346.936 37.171,347.056 37.387,347.144C37.603,347.232 37.831,347.276 38.071,347.276C38.543,347.276 38.931,347.196 39.235,347.036C39.539,346.876 39.759,346.72 39.895,346.568L40.507,347.216ZM39.535,344.756C39.503,344.324 39.351,343.956 39.079,343.652C38.807,343.348 38.423,343.196 37.927,343.196C37.671,343.196 37.441,343.24 37.237,343.328C37.033,343.416 36.859,343.532 36.715,343.676C36.571,343.82 36.459,343.986 36.379,344.174C36.299,344.362 36.255,344.556 36.247,344.756L39.535,344.756Z" style="fill:white;fill-rule:nonzero;"/>
            <path d="M42.187,346.628C42.387,346.828 42.627,346.988 42.907,347.108C43.187,347.228 43.511,347.288 43.879,347.288C44.239,347.288 44.539,347.23 44.779,347.114C45.019,346.998 45.139,346.816 45.139,346.568C45.139,346.44 45.113,346.33 45.061,346.238C45.009,346.146 44.921,346.064 44.797,345.992C44.673,345.92 44.509,345.854 44.305,345.794C44.101,345.734 43.847,345.668 43.543,345.596C43.327,345.548 43.113,345.484 42.901,345.404C42.689,345.324 42.499,345.218 42.331,345.086C42.163,344.954 42.027,344.794 41.923,344.606C41.819,344.418 41.767,344.192 41.767,343.928C41.767,343.656 41.829,343.418 41.953,343.214C42.077,343.01 42.243,342.838 42.451,342.698C42.659,342.558 42.893,342.452 43.153,342.38C43.413,342.308 43.683,342.272 43.963,342.272C44.435,342.272 44.841,342.334 45.181,342.458C45.521,342.582 45.819,342.756 46.075,342.98L45.487,343.724C45.319,343.572 45.109,343.444 44.857,343.34C44.605,343.236 44.311,343.184 43.975,343.184C43.631,343.184 43.355,343.24 43.147,343.352C42.939,343.464 42.835,343.648 42.835,343.904C42.835,344.144 42.973,344.322 43.249,344.438C43.525,344.554 43.887,344.664 44.335,344.768C44.599,344.832 44.845,344.906 45.073,344.99C45.301,345.074 45.501,345.182 45.673,345.314C45.845,345.446 45.981,345.608 46.081,345.8C46.181,345.992 46.231,346.224 46.231,346.496C46.231,346.776 46.167,347.022 46.039,347.234C45.911,347.446 45.739,347.624 45.523,347.768C45.307,347.912 45.059,348.02 44.779,348.092C44.499,348.164 44.207,348.2 43.903,348.2C42.847,348.2 42.055,347.916 41.527,347.348L42.187,346.628Z" style="fill:white;fill-rule:nonzero;"/>
            <path d="M80.119,341.036L77.251,341.036L77.251,340.028L84.127,340.028L84.127,341.036L81.271,341.036L81.271,348.032L80.119,348.032L80.119,341.036Z" style="fill:white;fill-rule:nonzero;"/>
            <path d="M83.455,348.032L83.455,342.986C83.455,342.814 83.451,342.636 83.443,342.452L84.475,342.452L84.511,343.352C84.575,343.256 84.659,343.15 84.763,343.034C84.867,342.918 84.993,342.812 85.141,342.716C85.289,342.62 85.461,342.538 85.657,342.47C85.853,342.402 86.079,342.368 86.335,342.368C86.455,342.368 86.565,342.376 86.665,342.392C86.765,342.408 86.859,342.432 86.947,342.464L86.707,343.472C86.563,343.416 86.379,343.388 86.155,343.388C85.923,343.388 85.709,343.432 85.513,343.52C85.317,343.608 85.147,343.73 85.003,343.886C84.859,344.042 84.745,344.224 84.661,344.432C84.577,344.64 84.535,344.86 84.535,345.092L84.535,348.032L83.455,348.032Z" style="fill:white;fill-rule:nonzero;"/>
            <path d="M87.775,340.244L88.987,340.244L88.987,341.456L87.775,341.456L87.775,340.244ZM87.847,342.452L88.927,342.452L88.927,348.032L87.847,348.032L87.847,342.452Z" style="fill:white;fill-rule:nonzero;"/>
            <path d="M94.447,343.436C94.375,343.412 94.253,343.378 94.081,343.334C93.909,343.29 93.651,343.268 93.307,343.268C93.003,343.268 92.727,343.318 92.479,343.418C92.231,343.518 92.017,343.658 91.837,343.838C91.657,344.018 91.517,344.232 91.417,344.48C91.317,344.728 91.267,345 91.267,345.296C91.267,345.552 91.297,345.792 91.357,346.016C91.417,346.24 91.513,346.436 91.645,346.604C91.777,346.772 91.943,346.904 92.143,347C92.343,347.096 92.587,347.144 92.875,347.144C93.139,347.144 93.371,347.104 93.571,347.024C93.771,346.944 93.935,346.838 94.063,346.706C94.191,346.574 94.287,346.426 94.351,346.262C94.415,346.098 94.447,345.928 94.447,345.752L94.447,343.436ZM91.183,349.172C91.367,349.3 91.593,349.41 91.861,349.502C92.129,349.594 92.455,349.64 92.839,349.64C93.375,349.64 93.775,349.492 94.039,349.196C94.303,348.9 94.435,348.512 94.435,348.032L94.435,347.348C94.379,347.396 94.305,347.462 94.213,347.546C94.121,347.63 94.005,347.71 93.865,347.786C93.725,347.862 93.559,347.93 93.367,347.99C93.175,348.05 92.955,348.08 92.707,348.08C92.299,348.08 91.937,348.01 91.621,347.87C91.305,347.73 91.039,347.538 90.823,347.294C90.607,347.05 90.443,346.758 90.331,346.418C90.219,346.078 90.163,345.708 90.163,345.308C90.163,344.876 90.239,344.478 90.391,344.114C90.543,343.75 90.757,343.434 91.033,343.166C91.309,342.898 91.639,342.69 92.023,342.542C92.407,342.394 92.835,342.32 93.307,342.32C93.763,342.32 94.187,342.36 94.579,342.44C94.971,342.52 95.287,342.608 95.527,342.704L95.527,348.032C95.527,348.84 95.293,349.466 94.825,349.91C94.357,350.354 93.699,350.576 92.851,350.576C92.283,350.576 91.831,350.514 91.495,350.39C91.159,350.266 90.887,350.124 90.679,349.964L91.183,349.172Z" style="fill:white;fill-rule:nonzero;"/>
            <path d="M97.339,346.628C97.539,346.828 97.779,346.988 98.059,347.108C98.339,347.228 98.663,347.288 99.031,347.288C99.391,347.288 99.691,347.23 99.931,347.114C100.171,346.998 100.291,346.816 100.291,346.568C100.291,346.44 100.265,346.33 100.213,346.238C100.161,346.146 100.073,346.064 99.949,345.992C99.825,345.92 99.661,345.854 99.457,345.794C99.253,345.734 98.999,345.668 98.695,345.596C98.479,345.548 98.265,345.484 98.053,345.404C97.841,345.324 97.651,345.218 97.483,345.086C97.315,344.954 97.179,344.794 97.075,344.606C96.971,344.418 96.919,344.192 96.919,343.928C96.919,343.656 96.981,343.418 97.105,343.214C97.229,343.01 97.395,342.838 97.603,342.698C97.811,342.558 98.045,342.452 98.305,342.38C98.565,342.308 98.835,342.272 99.115,342.272C99.587,342.272 99.993,342.334 100.333,342.458C100.673,342.582 100.971,342.756 101.227,342.98L100.639,343.724C100.471,343.572 100.261,343.444 100.009,343.34C99.757,343.236 99.463,343.184 99.127,343.184C98.783,343.184 98.507,343.24 98.299,343.352C98.091,343.464 97.987,343.648 97.987,343.904C97.987,344.144 98.125,344.322 98.401,344.438C98.677,344.554 99.039,344.664 99.487,344.768C99.751,344.832 99.997,344.906 100.225,344.99C100.453,345.074 100.653,345.182 100.825,345.314C100.997,345.446 101.133,345.608 101.233,345.8C101.333,345.992 101.383,346.224 101.383,346.496C101.383,346.776 101.319,347.022 101.191,347.234C101.063,347.446 100.891,347.624 100.675,347.768C100.459,347.912 100.211,348.02 99.931,348.092C99.651,348.164 99.359,348.2 99.055,348.2C97.999,348.2 97.207,347.916 96.679,347.348L97.339,346.628Z" style="fill:white;fill-rule:nonzero;"/>
            <path d="M129.006,340.028L131.538,340.028C132.082,340.028 132.532,340.104 132.888,340.256C133.244,340.408 133.528,340.6 133.74,340.832C133.952,341.064 134.1,341.324 134.184,341.612C134.268,341.9 134.31,342.18 134.31,342.452C134.31,342.852 134.242,343.204 134.106,343.508C133.97,343.812 133.782,344.066 133.542,344.27C133.302,344.474 133.016,344.628 132.684,344.732C132.352,344.836 131.99,344.888 131.598,344.888L130.146,344.888L130.146,348.032L129.006,348.032L129.006,340.028ZM131.586,343.904C132.082,343.904 132.464,343.778 132.732,343.526C133,343.274 133.134,342.924 133.134,342.476C133.134,342.02 132.996,341.662 132.72,341.402C132.444,341.142 132.066,341.012 131.586,341.012L130.146,341.012L130.146,343.904L131.586,343.904Z" style="fill:white;fill-rule:nonzero;"/>
            <path d="M135.354,340.028L136.422,340.028L136.422,343.28C136.494,343.184 136.582,343.08 136.686,342.968C136.79,342.856 136.918,342.752 137.07,342.656C137.222,342.56 137.398,342.48 137.598,342.416C137.798,342.352 138.026,342.32 138.282,342.32C139.01,342.32 139.55,342.532 139.902,342.956C140.254,343.38 140.43,343.956 140.43,344.684L140.43,348.032L139.35,348.032L139.35,344.768C139.35,344.248 139.238,343.866 139.014,343.622C138.79,343.378 138.474,343.256 138.066,343.256C137.754,343.256 137.494,343.32 137.286,343.448C137.078,343.576 136.912,343.742 136.788,343.946C136.664,344.15 136.574,344.382 136.518,344.642C136.462,344.902 136.434,345.168 136.434,345.44L136.434,348.032L135.354,348.032L135.354,340.028Z" style="fill:white;fill-rule:nonzero;"/>
            <path d="M145.338,345.392C145.306,345.384 145.244,345.374 145.152,345.362C145.06,345.35 144.954,345.34 144.834,345.332C144.714,345.324 144.586,345.316 144.45,345.308C144.314,345.3 144.182,345.296 144.054,345.296C143.75,345.296 143.504,345.332 143.316,345.404C143.128,345.476 142.98,345.566 142.872,345.674C142.764,345.782 142.69,345.902 142.65,346.034C142.61,346.166 142.59,346.292 142.59,346.412C142.59,346.716 142.694,346.946 142.902,347.102C143.11,347.258 143.398,347.336 143.766,347.336C143.974,347.336 144.172,347.3 144.36,347.228C144.548,347.156 144.714,347.06 144.858,346.94C145.002,346.82 145.118,346.68 145.206,346.52C145.294,346.36 145.338,346.196 145.338,346.028L145.338,345.392ZM145.35,347.36C145.142,347.64 144.868,347.848 144.528,347.984C144.188,348.12 143.838,348.188 143.478,348.188C143.246,348.188 143.016,348.158 142.788,348.098C142.56,348.038 142.352,347.938 142.164,347.798C141.976,347.658 141.824,347.478 141.708,347.258C141.592,347.038 141.534,346.768 141.534,346.448C141.534,345.848 141.744,345.368 142.164,345.008C142.584,344.648 143.19,344.468 143.982,344.468C144.11,344.468 144.246,344.472 144.39,344.48C144.534,344.488 144.67,344.496 144.798,344.504C144.926,344.512 145.038,344.52 145.134,344.528C145.23,344.536 145.298,344.544 145.338,344.552L145.338,344.348C145.338,343.932 145.212,343.634 144.96,343.454C144.708,343.274 144.366,343.184 143.934,343.184C143.51,343.184 143.174,343.242 142.926,343.358C142.678,343.474 142.47,343.592 142.302,343.712L141.798,342.98C141.894,342.9 142.01,342.82 142.146,342.74C142.282,342.66 142.442,342.586 142.626,342.518C142.81,342.45 143.018,342.394 143.25,342.35C143.482,342.306 143.75,342.284 144.054,342.284C144.774,342.284 145.34,342.458 145.752,342.806C146.164,343.154 146.37,343.648 146.37,344.288L146.37,347.534C146.37,347.73 146.374,347.896 146.382,348.032L145.374,348.032L145.35,347.36Z" style="fill:white;fill-rule:nonzero;"/>
            <path d="M148.182,346.628C148.382,346.828 148.622,346.988 148.902,347.108C149.182,347.228 149.506,347.288 149.874,347.288C150.234,347.288 150.534,347.23 150.774,347.114C151.014,346.998 151.134,346.816 151.134,346.568C151.134,346.44 151.108,346.33 151.056,346.238C151.004,346.146 150.916,346.064 150.792,345.992C150.668,345.92 150.504,345.854 150.3,345.794C150.096,345.734 149.842,345.668 149.538,345.596C149.322,345.548 149.108,345.484 148.896,345.404C148.684,345.324 148.494,345.218 148.326,345.086C148.158,344.954 148.022,344.794 147.918,344.606C147.814,344.418 147.762,344.192 147.762,343.928C147.762,343.656 147.824,343.418 147.948,343.214C148.072,343.01 148.238,342.838 148.446,342.698C148.654,342.558 148.888,342.452 149.148,342.38C149.408,342.308 149.678,342.272 149.958,342.272C150.43,342.272 150.836,342.334 151.176,342.458C151.516,342.582 151.814,342.756 152.07,342.98L151.482,343.724C151.314,343.572 151.104,343.444 150.852,343.34C150.6,343.236 150.306,343.184 149.97,343.184C149.626,343.184 149.35,343.24 149.142,343.352C148.934,343.464 148.83,343.648 148.83,343.904C148.83,344.144 148.968,344.322 149.244,344.438C149.52,344.554 149.882,344.664 150.33,344.768C150.594,344.832 150.84,344.906 151.068,344.99C151.296,345.074 151.496,345.182 151.668,345.314C151.84,345.446 151.976,345.608 152.076,345.8C152.176,345.992 152.226,346.224 152.226,346.496C152.226,346.776 152.162,347.022 152.034,347.234C151.906,347.446 151.734,347.624 151.518,347.768C151.302,347.912 151.054,348.02 150.774,348.092C150.494,348.164 150.202,348.2 149.898,348.2C148.842,348.2 148.05,347.916 147.522,347.348L148.182,346.628Z" style="fill:white;fill-rule:nonzero;"/>
            <path d="M156.15,348.2C155.718,348.2 155.322,348.122 154.962,347.966C154.602,347.81 154.292,347.596 154.032,347.324C153.772,347.052 153.568,346.738 153.42,346.382C153.272,346.026 153.198,345.644 153.198,345.236C153.198,344.828 153.272,344.446 153.42,344.09C153.568,343.734 153.772,343.42 154.032,343.148C154.292,342.876 154.602,342.662 154.962,342.506C155.322,342.35 155.718,342.272 156.15,342.272C156.574,342.272 156.966,342.35 157.326,342.506C157.686,342.662 157.998,342.876 158.262,343.148C158.526,343.42 158.732,343.734 158.88,344.09C159.028,344.446 159.102,344.828 159.102,345.236C159.102,345.644 159.028,346.026 158.88,346.382C158.732,346.738 158.526,347.052 158.262,347.324C157.998,347.596 157.686,347.81 157.326,347.966C156.966,348.122 156.574,348.2 156.15,348.2ZM156.15,347.264C156.438,347.264 156.698,347.206 156.93,347.09C157.162,346.974 157.358,346.822 157.518,346.634C157.678,346.446 157.8,346.23 157.884,345.986C157.968,345.742 158.01,345.492 158.01,345.236C158.01,344.988 157.968,344.742 157.884,344.498C157.8,344.254 157.676,344.036 157.512,343.844C157.348,343.652 157.152,343.498 156.924,343.382C156.696,343.266 156.438,343.208 156.15,343.208C155.862,343.208 155.602,343.266 155.37,343.382C155.138,343.498 154.942,343.65 154.782,343.838C154.622,344.026 154.5,344.242 154.416,344.486C154.332,344.73 154.29,344.98 154.29,345.236C154.29,345.492 154.332,345.74 154.416,345.98C154.5,346.22 154.624,346.436 154.788,346.628C154.952,346.82 155.148,346.974 155.376,347.09C155.604,347.206 155.862,347.264 156.15,347.264Z" style="fill:white;fill-rule:nonzero;"/>
            <path d="M160.302,348.032L160.302,342.986C160.302,342.814 160.298,342.636 160.29,342.452L161.322,342.452L161.358,343.352C161.422,343.256 161.506,343.15 161.61,343.034C161.714,342.918 161.84,342.812 161.988,342.716C162.136,342.62 162.308,342.538 162.504,342.47C162.7,342.402 162.926,342.368 163.182,342.368C163.302,342.368 163.412,342.376 163.512,342.392C163.612,342.408 163.706,342.432 163.794,342.464L163.554,343.472C163.41,343.416 163.226,343.388 163.002,343.388C162.77,343.388 162.556,343.432 162.36,343.52C162.164,343.608 161.994,343.73 161.85,343.886C161.706,344.042 161.592,344.224 161.508,344.432C161.424,344.64 161.382,344.86 161.382,345.092L161.382,348.032L160.302,348.032Z" style="fill:white;fill-rule:nonzero;"/>
            <path d="M164.706,346.628C164.906,346.828 165.146,346.988 165.426,347.108C165.706,347.228 166.03,347.288 166.398,347.288C166.758,347.288 167.058,347.23 167.298,347.114C167.538,346.998 167.658,346.816 167.658,346.568C167.658,346.44 167.632,346.33 167.58,346.238C167.528,346.146 167.44,346.064 167.316,345.992C167.192,345.92 167.028,345.854 166.824,345.794C166.62,345.734 166.366,345.668 166.062,345.596C165.846,345.548 165.632,345.484 165.42,345.404C165.208,345.324 165.018,345.218 164.85,345.086C164.682,344.954 164.546,344.794 164.442,344.606C164.338,344.418 164.286,344.192 164.286,343.928C164.286,343.656 164.348,343.418 164.472,343.214C164.596,343.01 164.762,342.838 164.97,342.698C165.178,342.558 165.412,342.452 165.672,342.38C165.932,342.308 166.202,342.272 166.482,342.272C166.954,342.272 167.36,342.334 167.7,342.458C168.04,342.582 168.338,342.756 168.594,342.98L168.006,343.724C167.838,343.572 167.628,343.444 167.376,343.34C167.124,343.236 166.83,343.184 166.494,343.184C166.15,343.184 165.874,343.24 165.666,343.352C165.458,343.464 165.354,343.648 165.354,343.904C165.354,344.144 165.492,344.322 165.768,344.438C166.044,344.554 166.406,344.664 166.854,344.768C167.118,344.832 167.364,344.906 167.592,344.99C167.82,345.074 168.02,345.182 168.192,345.314C168.364,345.446 168.5,345.608 168.6,345.8C168.7,345.992 168.75,346.224 168.75,346.496C168.75,346.776 168.686,347.022 168.558,347.234C168.43,347.446 168.258,347.624 168.042,347.768C167.826,347.912 167.578,348.02 167.298,348.092C167.018,348.164 166.726,348.2 166.422,348.2C165.366,348.2 164.574,347.916 164.046,347.348L164.706,346.628Z" style="fill:white;fill-rule:nonzero;"/>
            <path d="M188.502,340.028L189.702,340.028L189.678,345.728L188.538,345.728L188.502,340.028ZM188.43,346.724L189.774,346.724L189.774,348.032L188.43,348.032L188.43,346.724Z" style="fill:white;fill-rule:nonzero;"/>
            <path d="M195.642,343.964L198.45,343.964L198.45,347.156C198.298,347.292 198.124,347.424 197.928,347.552C197.732,347.68 197.504,347.794 197.244,347.894C196.984,347.994 196.694,348.074 196.374,348.134C196.054,348.194 195.694,348.224 195.294,348.224C194.67,348.224 194.108,348.118 193.608,347.906C193.108,347.694 192.68,347.402 192.324,347.03C191.968,346.658 191.696,346.218 191.508,345.71C191.32,345.202 191.226,344.648 191.226,344.048C191.226,343.464 191.324,342.916 191.52,342.404C191.716,341.892 191.99,341.446 192.342,341.066C192.694,340.686 193.116,340.386 193.608,340.166C194.1,339.946 194.646,339.836 195.246,339.836C195.67,339.836 196.05,339.886 196.386,339.986C196.722,340.086 197.016,340.214 197.268,340.37C197.52,340.526 197.734,340.696 197.91,340.88C198.086,341.064 198.234,341.24 198.354,341.408L197.538,342.104C197.442,341.968 197.326,341.826 197.19,341.678C197.054,341.53 196.894,341.396 196.71,341.276C196.526,341.156 196.316,341.056 196.08,340.976C195.844,340.896 195.574,340.856 195.27,340.856C194.83,340.856 194.434,340.94 194.082,341.108C193.73,341.276 193.432,341.504 193.188,341.792C192.944,342.08 192.756,342.418 192.624,342.806C192.492,343.194 192.426,343.604 192.426,344.036C192.426,344.5 192.498,344.924 192.642,345.308C192.786,345.692 192.988,346.022 193.248,346.298C193.508,346.574 193.814,346.79 194.166,346.946C194.518,347.102 194.906,347.18 195.33,347.18C195.794,347.18 196.188,347.128 196.512,347.024C196.836,346.92 197.114,346.776 197.346,346.592L197.346,344.96L195.642,344.96L195.642,343.964Z" style="fill:white;fill-rule:nonzero;"/>
            <path d="M203.49,345.392C203.458,345.384 203.396,345.374 203.304,345.362C203.212,345.35 203.106,345.34 202.986,345.332C202.866,345.324 202.738,345.316 202.602,345.308C202.466,345.3 202.334,345.296 202.206,345.296C201.902,345.296 201.656,345.332 201.468,345.404C201.28,345.476 201.132,345.566 201.024,345.674C200.916,345.782 200.842,345.902 200.802,346.034C200.762,346.166 200.742,346.292 200.742,346.412C200.742,346.716 200.846,346.946 201.054,347.102C201.262,347.258 201.55,347.336 201.918,347.336C202.126,347.336 202.324,347.3 202.512,347.228C202.7,347.156 202.866,347.06 203.01,346.94C203.154,346.82 203.27,346.68 203.358,346.52C203.446,346.36 203.49,346.196 203.49,346.028L203.49,345.392ZM203.502,347.36C203.294,347.64 203.02,347.848 202.68,347.984C202.34,348.12 201.99,348.188 201.63,348.188C201.398,348.188 201.168,348.158 200.94,348.098C200.712,348.038 200.504,347.938 200.316,347.798C200.128,347.658 199.976,347.478 199.86,347.258C199.744,347.038 199.686,346.768 199.686,346.448C199.686,345.848 199.896,345.368 200.316,345.008C200.736,344.648 201.342,344.468 202.134,344.468C202.262,344.468 202.398,344.472 202.542,344.48C202.686,344.488 202.822,344.496 202.95,344.504C203.078,344.512 203.19,344.52 203.286,344.528C203.382,344.536 203.45,344.544 203.49,344.552L203.49,344.348C203.49,343.932 203.364,343.634 203.112,343.454C202.86,343.274 202.518,343.184 202.086,343.184C201.662,343.184 201.326,343.242 201.078,343.358C200.83,343.474 200.622,343.592 200.454,343.712L199.95,342.98C200.046,342.9 200.162,342.82 200.298,342.74C200.434,342.66 200.594,342.586 200.778,342.518C200.962,342.45 201.17,342.394 201.402,342.35C201.634,342.306 201.902,342.284 202.206,342.284C202.926,342.284 203.492,342.458 203.904,342.806C204.316,343.154 204.522,343.648 204.522,344.288L204.522,347.534C204.522,347.73 204.526,347.896 204.534,348.032L203.526,348.032L203.502,347.36Z" style="fill:white;fill-rule:nonzero;"/>
            <path d="M206.454,343.352L205.446,343.352L205.446,342.452L206.454,342.452L206.454,340.628L207.534,340.628L207.534,342.452L209.166,342.452L209.166,343.352L207.534,343.352L207.534,346.1C207.534,346.548 207.604,346.856 207.744,347.024C207.884,347.192 208.082,347.276 208.338,347.276C208.546,347.276 208.718,347.244 208.854,347.18C208.99,347.116 209.126,347.02 209.262,346.892L209.754,347.552C209.522,347.776 209.284,347.938 209.04,348.038C208.796,348.138 208.506,348.188 208.17,348.188C207.578,348.188 207.144,348.028 206.868,347.708C206.592,347.388 206.454,346.888 206.454,346.208L206.454,343.352Z" style="fill:white;fill-rule:nonzero;"/>
            <path d="M215.646,347.216C215.582,347.288 215.486,347.38 215.358,347.492C215.23,347.604 215.064,347.712 214.86,347.816C214.656,347.92 214.416,348.01 214.14,348.086C213.864,348.162 213.55,348.2 213.198,348.2C212.766,348.2 212.37,348.128 212.01,347.984C211.65,347.84 211.342,347.636 211.086,347.372C210.83,347.108 210.632,346.792 210.492,346.424C210.352,346.056 210.282,345.648 210.282,345.2C210.282,344.792 210.35,344.41 210.486,344.054C210.622,343.698 210.814,343.39 211.062,343.13C211.31,342.87 211.604,342.664 211.944,342.512C212.284,342.36 212.658,342.284 213.066,342.284C213.546,342.284 213.958,342.376 214.302,342.56C214.646,342.744 214.928,342.988 215.148,343.292C215.368,343.596 215.53,343.944 215.634,344.336C215.738,344.728 215.79,345.136 215.79,345.56L211.386,345.56C211.394,345.808 211.448,346.036 211.548,346.244C211.648,346.452 211.782,346.632 211.95,346.784C212.118,346.936 212.31,347.056 212.526,347.144C212.742,347.232 212.97,347.276 213.21,347.276C213.682,347.276 214.07,347.196 214.374,347.036C214.678,346.876 214.898,346.72 215.034,346.568L215.646,347.216ZM214.674,344.756C214.642,344.324 214.49,343.956 214.218,343.652C213.946,343.348 213.562,343.196 213.066,343.196C212.81,343.196 212.58,343.24 212.376,343.328C212.172,343.416 211.998,343.532 211.854,343.676C211.71,343.82 211.598,343.986 211.518,344.174C211.438,344.362 211.394,344.556 211.386,344.756L214.674,344.756Z" style="fill:white;fill-rule:nonzero;"/>
            <path d="M217.326,346.628C217.526,346.828 217.766,346.988 218.046,347.108C218.326,347.228 218.65,347.288 219.018,347.288C219.378,347.288 219.678,347.23 219.918,347.114C220.158,346.998 220.278,346.816 220.278,346.568C220.278,346.44 220.252,346.33 220.2,346.238C220.148,346.146 220.06,346.064 219.936,345.992C219.812,345.92 219.648,345.854 219.444,345.794C219.24,345.734 218.986,345.668 218.682,345.596C218.466,345.548 218.252,345.484 218.04,345.404C217.828,345.324 217.638,345.218 217.47,345.086C217.302,344.954 217.166,344.794 217.062,344.606C216.958,344.418 216.906,344.192 216.906,343.928C216.906,343.656 216.968,343.418 217.092,343.214C217.216,343.01 217.382,342.838 217.59,342.698C217.798,342.558 218.032,342.452 218.292,342.38C218.552,342.308 218.822,342.272 219.102,342.272C219.574,342.272 219.98,342.334 220.32,342.458C220.66,342.582 220.958,342.756 221.214,342.98L220.626,343.724C220.458,343.572 220.248,343.444 219.996,343.34C219.744,343.236 219.45,343.184 219.114,343.184C218.77,343.184 218.494,343.24 218.286,343.352C218.078,343.464 217.974,343.648 217.974,343.904C217.974,344.144 218.112,344.322 218.388,344.438C218.664,344.554 219.026,344.664 219.474,344.768C219.738,344.832 219.984,344.906 220.212,344.99C220.44,345.074 220.64,345.182 220.812,345.314C220.984,345.446 221.12,345.608 221.22,345.8C221.32,345.992 221.37,346.224 221.37,346.496C221.37,346.776 221.306,347.022 221.178,347.234C221.05,347.446 220.878,347.624 220.662,347.768C220.446,347.912 220.198,348.02 219.918,348.092C219.638,348.164 219.346,348.2 219.042,348.2C217.986,348.2 217.194,347.916 216.666,347.348L217.326,346.628Z" style="fill:white;fill-rule:nonzero;"/>
        </g>
        <path d="M52.297,16.831L56.095,16.831C56.912,16.831 57.587,16.945 58.12,17.173C58.655,17.401 59.081,17.689 59.398,18.037C59.717,18.385 59.938,18.775 60.064,19.207C60.19,19.639 60.253,20.059 60.253,20.467C60.253,21.067 60.152,21.595 59.947,22.051C59.744,22.507 59.461,22.888 59.101,23.194C58.741,23.5 58.313,23.731 57.814,23.887C57.317,24.043 56.774,24.121 56.185,24.121L54.007,24.121L54.007,28.837L52.297,28.837L52.297,16.831ZM56.167,22.645C56.912,22.645 57.485,22.456 57.886,22.078C58.289,21.7 58.489,21.175 58.489,20.503C58.489,19.819 58.282,19.282 57.868,18.892C57.454,18.502 56.887,18.307 56.167,18.307L54.007,18.307L54.007,22.645L56.167,22.645Z" style="fill-rule:nonzero;"/>
        <path d="M61.677,16.831L63.279,16.831L63.279,21.709C63.387,21.565 63.519,21.409 63.675,21.241C63.831,21.073 64.023,20.917 64.251,20.773C64.479,20.629 64.743,20.509 65.043,20.413C65.343,20.317 65.685,20.269 66.069,20.269C67.161,20.269 67.971,20.587 68.499,21.223C69.027,21.859 69.291,22.723 69.291,23.815L69.291,28.837L67.671,28.837L67.671,23.941C67.671,23.161 67.503,22.588 67.167,22.222C66.831,21.856 66.357,21.673 65.745,21.673C65.277,21.673 64.887,21.769 64.575,21.961C64.263,22.153 64.014,22.402 63.828,22.708C63.642,23.014 63.507,23.362 63.423,23.752C63.339,24.142 63.297,24.541 63.297,24.949L63.297,28.837L61.677,28.837L61.677,16.831Z" style="fill-rule:nonzero;"/>
        <path d="M76.511,24.877C76.463,24.865 76.37,24.85 76.232,24.832C76.094,24.814 75.935,24.799 75.755,24.787C75.575,24.775 75.383,24.763 75.179,24.751C74.975,24.739 74.777,24.733 74.585,24.733C74.129,24.733 73.76,24.787 73.478,24.895C73.196,25.003 72.974,25.138 72.812,25.3C72.65,25.462 72.539,25.642 72.479,25.84C72.419,26.038 72.389,26.227 72.389,26.407C72.389,26.863 72.545,27.208 72.857,27.442C73.169,27.676 73.601,27.793 74.153,27.793C74.465,27.793 74.762,27.739 75.044,27.631C75.326,27.523 75.575,27.379 75.791,27.199C76.007,27.019 76.181,26.809 76.313,26.569C76.445,26.329 76.511,26.083 76.511,25.831L76.511,24.877ZM76.529,27.829C76.217,28.249 75.806,28.561 75.296,28.765C74.786,28.969 74.261,29.071 73.721,29.071C73.373,29.071 73.028,29.026 72.686,28.936C72.344,28.846 72.032,28.696 71.75,28.486C71.468,28.276 71.24,28.006 71.066,27.676C70.892,27.346 70.805,26.941 70.805,26.461C70.805,25.561 71.12,24.841 71.75,24.301C72.38,23.761 73.289,23.491 74.477,23.491C74.669,23.491 74.873,23.497 75.089,23.509C75.305,23.521 75.509,23.533 75.701,23.545C75.893,23.557 76.061,23.569 76.205,23.581C76.349,23.593 76.451,23.605 76.511,23.617L76.511,23.311C76.511,22.687 76.322,22.24 75.944,21.97C75.566,21.7 75.053,21.565 74.405,21.565C73.769,21.565 73.265,21.652 72.893,21.826C72.521,22 72.209,22.177 71.957,22.357L71.201,21.259C71.345,21.139 71.519,21.019 71.723,20.899C71.927,20.779 72.167,20.668 72.443,20.566C72.719,20.464 73.031,20.38 73.379,20.314C73.727,20.248 74.129,20.215 74.585,20.215C75.665,20.215 76.514,20.476 77.132,20.998C77.75,21.52 78.059,22.261 78.059,23.221L78.059,28.09C78.059,28.384 78.065,28.633 78.077,28.837L76.565,28.837L76.529,27.829Z" style="fill-rule:nonzero;"/>
        <path d="M80.635,26.731C80.935,27.031 81.295,27.271 81.715,27.451C82.135,27.631 82.621,27.721 83.173,27.721C83.713,27.721 84.163,27.634 84.523,27.46C84.883,27.286 85.063,27.013 85.063,26.641C85.063,26.449 85.024,26.284 84.946,26.146C84.868,26.008 84.736,25.885 84.55,25.777C84.364,25.669 84.118,25.57 83.812,25.48C83.506,25.39 83.125,25.291 82.669,25.183C82.345,25.111 82.024,25.015 81.706,24.895C81.388,24.775 81.103,24.616 80.851,24.418C80.599,24.22 80.395,23.98 80.239,23.698C80.083,23.416 80.005,23.077 80.005,22.681C80.005,22.273 80.098,21.916 80.284,21.61C80.47,21.304 80.719,21.046 81.031,20.836C81.343,20.626 81.694,20.467 82.084,20.359C82.474,20.251 82.879,20.197 83.299,20.197C84.007,20.197 84.616,20.29 85.126,20.476C85.636,20.662 86.083,20.923 86.467,21.259L85.585,22.375C85.333,22.147 85.018,21.955 84.64,21.799C84.262,21.643 83.821,21.565 83.317,21.565C82.801,21.565 82.387,21.649 82.075,21.817C81.763,21.985 81.607,22.261 81.607,22.645C81.607,23.005 81.814,23.272 82.228,23.446C82.642,23.62 83.185,23.785 83.857,23.941C84.253,24.037 84.622,24.148 84.964,24.274C85.306,24.4 85.606,24.562 85.864,24.76C86.122,24.958 86.326,25.201 86.476,25.489C86.626,25.777 86.701,26.125 86.701,26.533C86.701,26.953 86.605,27.322 86.413,27.64C86.221,27.958 85.963,28.225 85.639,28.441C85.315,28.657 84.943,28.819 84.523,28.927C84.103,29.035 83.665,29.089 83.209,29.089C81.625,29.089 80.437,28.663 79.645,27.811L80.635,26.731Z" style="fill-rule:nonzero;"/>
        <path d="M92.445,29.089C91.797,29.089 91.203,28.972 90.663,28.738C90.123,28.504 89.658,28.183 89.268,27.775C88.878,27.367 88.572,26.896 88.35,26.362C88.128,25.828 88.017,25.255 88.017,24.643C88.017,24.031 88.128,23.458 88.35,22.924C88.572,22.39 88.878,21.919 89.268,21.511C89.658,21.103 90.123,20.782 90.663,20.548C91.203,20.314 91.797,20.197 92.445,20.197C93.081,20.197 93.669,20.314 94.209,20.548C94.749,20.782 95.217,21.103 95.613,21.511C96.009,21.919 96.318,22.39 96.54,22.924C96.762,23.458 96.873,24.031 96.873,24.643C96.873,25.255 96.762,25.828 96.54,26.362C96.318,26.896 96.009,27.367 95.613,27.775C95.217,28.183 94.749,28.504 94.209,28.738C93.669,28.972 93.081,29.089 92.445,29.089ZM92.445,27.685C92.877,27.685 93.267,27.598 93.615,27.424C93.963,27.25 94.257,27.022 94.497,26.74C94.737,26.458 94.92,26.134 95.046,25.768C95.172,25.402 95.235,25.027 95.235,24.643C95.235,24.271 95.172,23.902 95.046,23.536C94.92,23.17 94.734,22.843 94.488,22.555C94.242,22.267 93.948,22.036 93.606,21.862C93.264,21.688 92.877,21.601 92.445,21.601C92.013,21.601 91.623,21.688 91.275,21.862C90.927,22.036 90.633,22.264 90.393,22.546C90.153,22.828 89.97,23.152 89.844,23.518C89.718,23.884 89.655,24.259 89.655,24.643C89.655,25.027 89.718,25.399 89.844,25.759C89.97,26.119 90.156,26.443 90.402,26.731C90.648,27.019 90.942,27.25 91.284,27.424C91.626,27.598 92.013,27.685 92.445,27.685Z" style="fill-rule:nonzero;"/>
        <path d="M98.53,28.837L98.53,21.268C98.53,21.01 98.525,20.743 98.512,20.467L100.06,20.467L100.114,21.817C100.211,21.673 100.337,21.514 100.492,21.34C100.649,21.166 100.838,21.007 101.059,20.863C101.282,20.719 101.54,20.596 101.833,20.494C102.128,20.392 102.467,20.341 102.85,20.341C103.03,20.341 103.196,20.353 103.345,20.377C103.496,20.401 103.637,20.437 103.768,20.485L103.408,21.997C103.192,21.913 102.917,21.871 102.58,21.871C102.233,21.871 101.912,21.937 101.617,22.069C101.324,22.201 101.068,22.384 100.852,22.618C100.636,22.852 100.465,23.125 100.339,23.437C100.213,23.749 100.15,24.079 100.15,24.427L100.15,28.837L98.53,28.837Z" style="fill-rule:nonzero;"/>
        <rect x="104.382" y="23.023" width="5.274" height="1.548" style="fill-rule:nonzero;"/>
        <path d="M112.106,25.831L117.416,23.077L112.106,20.323L112.718,19.099L119.306,22.555L119.306,23.599L112.718,27.055L112.106,25.831Z" style="fill-rule:nonzero;"/>
        <path d="M127.93,22.735L132.142,22.735L132.142,27.523C131.914,27.727 131.653,27.925 131.359,28.117C131.065,28.309 130.723,28.48 130.333,28.63C129.943,28.78 129.508,28.9 129.028,28.99C128.548,29.08 128.008,29.125 127.408,29.125C126.472,29.125 125.629,28.966 124.879,28.648C124.129,28.33 123.487,27.892 122.953,27.334C122.419,26.776 122.011,26.116 121.729,25.354C121.447,24.592 121.306,23.761 121.306,22.861C121.306,21.985 121.453,21.163 121.747,20.395C122.041,19.627 122.452,18.958 122.98,18.388C123.508,17.818 124.141,17.368 124.879,17.038C125.617,16.708 126.436,16.543 127.336,16.543C127.972,16.543 128.542,16.618 129.046,16.768C129.55,16.918 129.991,17.11 130.369,17.344C130.747,17.578 131.068,17.833 131.332,18.109C131.596,18.385 131.818,18.649 131.998,18.901L130.774,19.945C130.63,19.741 130.456,19.528 130.252,19.306C130.048,19.084 129.808,18.883 129.532,18.703C129.256,18.523 128.941,18.373 128.587,18.253C128.233,18.133 127.828,18.073 127.372,18.073C126.712,18.073 126.118,18.199 125.59,18.451C125.062,18.703 124.615,19.045 124.249,19.477C123.883,19.909 123.601,20.416 123.403,20.998C123.205,21.58 123.106,22.195 123.106,22.843C123.106,23.539 123.214,24.175 123.43,24.751C123.646,25.327 123.949,25.822 124.339,26.236C124.729,26.65 125.188,26.974 125.716,27.208C126.244,27.442 126.826,27.559 127.462,27.559C128.158,27.559 128.749,27.481 129.235,27.325C129.721,27.169 130.138,26.953 130.486,26.677L130.486,24.229L127.93,24.229L127.93,22.735Z" style="fill-rule:nonzero;"/>
        <path d="M139.56,24.877C139.512,24.865 139.419,24.85 139.281,24.832C139.143,24.814 138.984,24.799 138.804,24.787C138.624,24.775 138.432,24.763 138.228,24.751C138.024,24.739 137.826,24.733 137.634,24.733C137.178,24.733 136.809,24.787 136.527,24.895C136.245,25.003 136.023,25.138 135.861,25.3C135.699,25.462 135.588,25.642 135.528,25.84C135.468,26.038 135.438,26.227 135.438,26.407C135.438,26.863 135.594,27.208 135.906,27.442C136.218,27.676 136.65,27.793 137.202,27.793C137.514,27.793 137.811,27.739 138.093,27.631C138.375,27.523 138.624,27.379 138.84,27.199C139.056,27.019 139.23,26.809 139.362,26.569C139.494,26.329 139.56,26.083 139.56,25.831L139.56,24.877ZM139.578,27.829C139.266,28.249 138.855,28.561 138.345,28.765C137.835,28.969 137.31,29.071 136.77,29.071C136.422,29.071 136.077,29.026 135.735,28.936C135.393,28.846 135.081,28.696 134.799,28.486C134.517,28.276 134.289,28.006 134.115,27.676C133.941,27.346 133.854,26.941 133.854,26.461C133.854,25.561 134.169,24.841 134.799,24.301C135.429,23.761 136.338,23.491 137.526,23.491C137.718,23.491 137.922,23.497 138.138,23.509C138.354,23.521 138.558,23.533 138.75,23.545C138.942,23.557 139.11,23.569 139.254,23.581C139.398,23.593 139.5,23.605 139.56,23.617L139.56,23.311C139.56,22.687 139.371,22.24 138.993,21.97C138.615,21.7 138.102,21.565 137.454,21.565C136.818,21.565 136.314,21.652 135.942,21.826C135.57,22 135.258,22.177 135.006,22.357L134.25,21.259C134.394,21.139 134.568,21.019 134.772,20.899C134.976,20.779 135.216,20.668 135.492,20.566C135.768,20.464 136.08,20.38 136.428,20.314C136.776,20.248 137.178,20.215 137.634,20.215C138.714,20.215 139.563,20.476 140.181,20.998C140.799,21.52 141.108,22.261 141.108,23.221L141.108,28.09C141.108,28.384 141.114,28.633 141.126,28.837L139.614,28.837L139.578,27.829Z" style="fill-rule:nonzero;"/>
        <path d="M143.863,21.817L142.351,21.817L142.351,20.467L143.863,20.467L143.863,17.731L145.483,17.731L145.483,20.467L147.931,20.467L147.931,21.817L145.483,21.817L145.483,25.939C145.483,26.611 145.589,27.073 145.798,27.325C146.009,27.577 146.306,27.703 146.689,27.703C147.002,27.703 147.26,27.655 147.463,27.559C147.668,27.463 147.872,27.319 148.075,27.127L148.813,28.117C148.466,28.453 148.109,28.696 147.742,28.846C147.377,28.996 146.941,29.071 146.437,29.071C145.55,29.071 144.898,28.831 144.484,28.351C144.07,27.871 143.863,27.121 143.863,26.101L143.863,21.817Z" style="fill-rule:nonzero;"/>
        <path d="M157.509,27.613C157.413,27.721 157.269,27.859 157.077,28.027C156.885,28.195 156.636,28.357 156.33,28.513C156.024,28.669 155.664,28.804 155.25,28.918C154.836,29.032 154.365,29.089 153.837,29.089C153.189,29.089 152.595,28.981 152.055,28.765C151.515,28.549 151.053,28.243 150.669,27.847C150.285,27.451 149.988,26.977 149.778,26.425C149.568,25.873 149.463,25.261 149.463,24.589C149.463,23.977 149.565,23.404 149.769,22.87C149.973,22.336 150.261,21.874 150.633,21.484C151.005,21.094 151.446,20.785 151.956,20.557C152.466,20.329 153.027,20.215 153.639,20.215C154.359,20.215 154.977,20.353 155.493,20.629C156.009,20.905 156.432,21.271 156.762,21.727C157.092,22.183 157.335,22.705 157.491,23.293C157.647,23.881 157.725,24.493 157.725,25.129L151.119,25.129C151.131,25.501 151.212,25.843 151.362,26.155C151.512,26.467 151.713,26.737 151.965,26.965C152.217,27.193 152.505,27.373 152.829,27.505C153.153,27.637 153.495,27.703 153.855,27.703C154.563,27.703 155.145,27.583 155.601,27.343C156.057,27.103 156.387,26.869 156.591,26.641L157.509,27.613ZM156.051,23.923C156.003,23.275 155.775,22.723 155.367,22.267C154.959,21.811 154.383,21.583 153.639,21.583C153.255,21.583 152.91,21.649 152.604,21.781C152.298,21.913 152.037,22.087 151.821,22.303C151.605,22.519 151.437,22.768 151.317,23.05C151.197,23.332 151.131,23.623 151.119,23.923L156.051,23.923Z" style="fill-rule:nonzero;"/>
        <path d="M159.887,26.731C160.187,27.031 160.547,27.271 160.967,27.451C161.387,27.631 161.873,27.721 162.425,27.721C162.965,27.721 163.415,27.634 163.775,27.46C164.135,27.286 164.315,27.013 164.315,26.641C164.315,26.449 164.276,26.284 164.198,26.146C164.12,26.008 163.988,25.885 163.802,25.777C163.616,25.669 163.37,25.57 163.064,25.48C162.758,25.39 162.377,25.291 161.921,25.183C161.597,25.111 161.276,25.015 160.958,24.895C160.64,24.775 160.355,24.616 160.103,24.418C159.851,24.22 159.647,23.98 159.491,23.698C159.335,23.416 159.257,23.077 159.257,22.681C159.257,22.273 159.35,21.916 159.536,21.61C159.722,21.304 159.971,21.046 160.283,20.836C160.595,20.626 160.946,20.467 161.336,20.359C161.726,20.251 162.131,20.197 162.551,20.197C163.259,20.197 163.868,20.29 164.378,20.476C164.888,20.662 165.335,20.923 165.719,21.259L164.837,22.375C164.585,22.147 164.27,21.955 163.892,21.799C163.514,21.643 163.073,21.565 162.569,21.565C162.053,21.565 161.639,21.649 161.327,21.817C161.015,21.985 160.859,22.261 160.859,22.645C160.859,23.005 161.066,23.272 161.48,23.446C161.894,23.62 162.437,23.785 163.109,23.941C163.505,24.037 163.874,24.148 164.216,24.274C164.558,24.4 164.858,24.562 165.116,24.76C165.374,24.958 165.578,25.201 165.728,25.489C165.878,25.777 165.953,26.125 165.953,26.533C165.953,26.953 165.857,27.322 165.665,27.64C165.473,27.958 165.215,28.225 164.891,28.441C164.567,28.657 164.195,28.819 163.775,28.927C163.355,29.035 162.917,29.089 162.461,29.089C160.877,29.089 159.689,28.663 158.897,27.811L159.887,26.731Z" style="fill-rule:nonzero;"/>
        <path d="M171.195,26.713C171.495,26.953 171.849,27.178 172.257,27.388C172.665,27.598 173.181,27.703 173.805,27.703C174.561,27.703 175.161,27.499 175.605,27.091C176.049,26.683 176.271,26.137 176.271,25.453C176.271,24.841 176.082,24.337 175.704,23.941C175.326,23.545 174.771,23.347 174.039,23.347C173.823,23.347 173.625,23.365 173.445,23.401C173.265,23.437 173.091,23.485 172.923,23.545L172.401,22.699L175.587,18.991L171.051,18.991L171.051,17.497L177.567,17.497L177.567,18.793L174.651,22.195C175.155,22.195 175.611,22.273 176.019,22.429C176.427,22.585 176.778,22.807 177.072,23.095C177.366,23.383 177.591,23.728 177.747,24.13C177.903,24.532 177.981,24.979 177.981,25.471C177.981,26.071 177.873,26.599 177.657,27.055C177.441,27.511 177.144,27.892 176.766,28.198C176.388,28.504 175.944,28.738 175.434,28.9C174.924,29.062 174.375,29.143 173.787,29.143C173.355,29.143 172.959,29.107 172.599,29.035C172.239,28.963 171.915,28.867 171.627,28.747C171.339,28.627 171.081,28.492 170.853,28.342C170.625,28.192 170.421,28.039 170.241,27.883L171.195,26.713Z" style="fill-rule:nonzero;"/>
        <path d="M180.484,27.667C180.484,27.031 180.635,26.473 180.934,25.993C181.235,25.513 181.595,25.063 182.014,24.643C182.531,24.127 183.02,23.683 183.481,23.311C183.944,22.939 184.349,22.597 184.696,22.285C185.045,21.973 185.317,21.664 185.515,21.358C185.713,21.052 185.812,20.701 185.812,20.305C185.812,20.125 185.78,19.939 185.713,19.747C185.648,19.555 185.537,19.378 185.38,19.216C185.225,19.054 185.027,18.919 184.786,18.811C184.547,18.703 184.246,18.649 183.886,18.649C183.562,18.649 183.274,18.694 183.022,18.784C182.77,18.874 182.549,18.985 182.356,19.117C182.165,19.249 182.003,19.399 181.87,19.567C181.739,19.735 181.618,19.891 181.51,20.035L180.304,19.171C180.425,18.955 180.59,18.73 180.799,18.496C181.01,18.262 181.262,18.046 181.555,17.848C181.85,17.65 182.198,17.488 182.599,17.362C183.002,17.236 183.467,17.173 183.994,17.173C184.606,17.173 185.137,17.257 185.587,17.425C186.037,17.593 186.406,17.818 186.694,18.1C186.982,18.382 187.198,18.703 187.342,19.063C187.486,19.423 187.558,19.801 187.558,20.197C187.558,20.617 187.486,21.01 187.342,21.376C187.198,21.742 187.007,22.081 186.766,22.393C186.527,22.705 186.253,23.002 185.947,23.284C185.641,23.566 185.326,23.833 185.002,24.085C184.619,24.385 184.262,24.673 183.931,24.949C183.602,25.225 183.314,25.495 183.067,25.759C182.822,26.023 182.63,26.287 182.491,26.551C182.354,26.815 182.284,27.085 182.284,27.361L187.684,27.361L187.684,28.837L180.484,28.837L180.484,27.667Z" style="fill-rule:nonzero;"/>
        <path d="M8.317,276.745L10.849,276.745C11.393,276.745 11.843,276.821 12.199,276.973C12.555,277.125 12.839,277.317 13.051,277.549C13.263,277.781 13.411,278.041 13.495,278.329C13.579,278.617 13.621,278.897 13.621,279.169C13.621,279.569 13.553,279.921 13.417,280.225C13.281,280.529 13.093,280.783 12.853,280.987C12.613,281.191 12.327,281.345 11.995,281.449C11.663,281.553 11.301,281.605 10.909,281.605L9.457,281.605L9.457,284.749L8.317,284.749L8.317,276.745ZM10.897,280.621C11.393,280.621 11.775,280.495 12.043,280.243C12.311,279.991 12.445,279.641 12.445,279.193C12.445,278.737 12.307,278.379 12.031,278.119C11.755,277.859 11.377,277.729 10.897,277.729L9.457,277.729L9.457,280.621L10.897,280.621Z" style="fill-rule:nonzero;"/>
        <path d="M14.665,276.745L15.733,276.745L15.733,279.997C15.805,279.901 15.893,279.797 15.997,279.685C16.101,279.573 16.229,279.469 16.381,279.373C16.533,279.277 16.709,279.197 16.909,279.133C17.109,279.069 17.337,279.037 17.593,279.037C18.321,279.037 18.861,279.249 19.213,279.673C19.565,280.097 19.741,280.673 19.741,281.401L19.741,284.749L18.661,284.749L18.661,281.485C18.661,280.965 18.549,280.583 18.325,280.339C18.101,280.095 17.785,279.973 17.377,279.973C17.065,279.973 16.805,280.037 16.597,280.165C16.389,280.293 16.223,280.459 16.099,280.663C15.975,280.867 15.885,281.099 15.829,281.359C15.773,281.619 15.745,281.885 15.745,282.157L15.745,284.749L14.665,284.749L14.665,276.745Z" style="fill-rule:nonzero;"/>
        <path d="M24.649,282.109C24.617,282.101 24.555,282.091 24.463,282.079C24.371,282.067 24.265,282.057 24.145,282.049C24.025,282.041 23.897,282.033 23.761,282.025C23.625,282.017 23.493,282.013 23.365,282.013C23.061,282.013 22.815,282.049 22.627,282.121C22.439,282.193 22.291,282.283 22.183,282.391C22.075,282.499 22.001,282.619 21.961,282.751C21.921,282.883 21.901,283.009 21.901,283.129C21.901,283.433 22.005,283.663 22.213,283.819C22.421,283.975 22.709,284.053 23.077,284.053C23.285,284.053 23.483,284.017 23.671,283.945C23.859,283.873 24.025,283.777 24.169,283.657C24.313,283.537 24.429,283.397 24.517,283.237C24.605,283.077 24.649,282.913 24.649,282.745L24.649,282.109ZM24.661,284.077C24.453,284.357 24.179,284.565 23.839,284.701C23.499,284.837 23.149,284.905 22.789,284.905C22.557,284.905 22.327,284.875 22.099,284.815C21.871,284.755 21.663,284.655 21.475,284.515C21.287,284.375 21.135,284.195 21.019,283.975C20.903,283.755 20.845,283.485 20.845,283.165C20.845,282.565 21.055,282.085 21.475,281.725C21.895,281.365 22.501,281.185 23.293,281.185C23.421,281.185 23.557,281.189 23.701,281.197C23.845,281.205 23.981,281.213 24.109,281.221C24.237,281.229 24.349,281.237 24.445,281.245C24.541,281.253 24.609,281.261 24.649,281.269L24.649,281.065C24.649,280.649 24.523,280.351 24.271,280.171C24.019,279.991 23.677,279.901 23.245,279.901C22.821,279.901 22.485,279.959 22.237,280.075C21.989,280.191 21.781,280.309 21.613,280.429L21.109,279.697C21.205,279.617 21.321,279.537 21.457,279.457C21.593,279.377 21.753,279.303 21.937,279.235C22.121,279.167 22.329,279.111 22.561,279.067C22.793,279.023 23.061,279.001 23.365,279.001C24.085,279.001 24.651,279.175 25.063,279.523C25.475,279.871 25.681,280.365 25.681,281.005L25.681,284.251C25.681,284.447 25.685,284.613 25.693,284.749L24.685,284.749L24.661,284.077Z" style="fill-rule:nonzero;"/>
        <path d="M27.493,283.345C27.693,283.545 27.933,283.705 28.213,283.825C28.493,283.945 28.817,284.005 29.185,284.005C29.545,284.005 29.845,283.947 30.085,283.831C30.325,283.715 30.445,283.533 30.445,283.285C30.445,283.157 30.419,283.047 30.367,282.955C30.315,282.863 30.227,282.781 30.103,282.709C29.979,282.637 29.815,282.571 29.611,282.511C29.407,282.451 29.153,282.385 28.849,282.313C28.633,282.265 28.419,282.201 28.207,282.121C27.995,282.041 27.805,281.935 27.637,281.803C27.469,281.671 27.333,281.511 27.229,281.323C27.125,281.135 27.073,280.909 27.073,280.645C27.073,280.373 27.135,280.135 27.259,279.931C27.383,279.727 27.549,279.555 27.757,279.415C27.965,279.275 28.199,279.169 28.459,279.097C28.719,279.025 28.989,278.989 29.269,278.989C29.741,278.989 30.147,279.051 30.487,279.175C30.827,279.299 31.125,279.473 31.381,279.697L30.793,280.441C30.625,280.289 30.415,280.161 30.163,280.057C29.911,279.953 29.617,279.901 29.281,279.901C28.937,279.901 28.661,279.957 28.453,280.069C28.245,280.181 28.141,280.365 28.141,280.621C28.141,280.861 28.279,281.039 28.555,281.155C28.831,281.271 29.193,281.381 29.641,281.485C29.905,281.549 30.151,281.623 30.379,281.707C30.607,281.791 30.807,281.899 30.979,282.031C31.151,282.163 31.287,282.325 31.387,282.517C31.487,282.709 31.537,282.941 31.537,283.213C31.537,283.493 31.473,283.739 31.345,283.951C31.217,284.163 31.045,284.341 30.829,284.485C30.613,284.629 30.365,284.737 30.085,284.809C29.805,284.881 29.513,284.917 29.209,284.917C28.153,284.917 27.361,284.633 26.833,284.065L27.493,283.345Z" style="fill-rule:nonzero;"/>
        <path d="M35.461,284.917C35.029,284.917 34.633,284.839 34.273,284.683C33.913,284.527 33.603,284.313 33.343,284.041C33.083,283.769 32.879,283.455 32.731,283.099C32.583,282.743 32.509,282.361 32.509,281.953C32.509,281.545 32.583,281.163 32.731,280.807C32.879,280.451 33.083,280.137 33.343,279.865C33.603,279.593 33.913,279.379 34.273,279.223C34.633,279.067 35.029,278.989 35.461,278.989C35.885,278.989 36.277,279.067 36.637,279.223C36.997,279.379 37.309,279.593 37.573,279.865C37.837,280.137 38.043,280.451 38.191,280.807C38.339,281.163 38.413,281.545 38.413,281.953C38.413,282.361 38.339,282.743 38.191,283.099C38.043,283.455 37.837,283.769 37.573,284.041C37.309,284.313 36.997,284.527 36.637,284.683C36.277,284.839 35.885,284.917 35.461,284.917ZM35.461,283.981C35.749,283.981 36.009,283.923 36.241,283.807C36.473,283.691 36.669,283.539 36.829,283.351C36.989,283.163 37.111,282.947 37.195,282.703C37.279,282.459 37.321,282.209 37.321,281.953C37.321,281.705 37.279,281.459 37.195,281.215C37.111,280.971 36.987,280.753 36.823,280.561C36.659,280.369 36.463,280.215 36.235,280.099C36.007,279.983 35.749,279.925 35.461,279.925C35.173,279.925 34.913,279.983 34.681,280.099C34.449,280.215 34.253,280.367 34.093,280.555C33.933,280.743 33.811,280.959 33.727,281.203C33.643,281.447 33.601,281.697 33.601,281.953C33.601,282.209 33.643,282.457 33.727,282.697C33.811,282.937 33.935,283.153 34.099,283.345C34.263,283.537 34.459,283.691 34.687,283.807C34.915,283.923 35.173,283.981 35.461,283.981Z" style="fill-rule:nonzero;"/>
        <path d="M39.613,284.749L39.613,279.703C39.613,279.531 39.609,279.353 39.601,279.169L40.633,279.169L40.669,280.069C40.733,279.973 40.817,279.867 40.921,279.751C41.025,279.635 41.151,279.529 41.299,279.433C41.447,279.337 41.619,279.255 41.815,279.187C42.011,279.119 42.237,279.085 42.493,279.085C42.613,279.085 42.723,279.093 42.823,279.109C42.923,279.125 43.017,279.149 43.105,279.181L42.865,280.189C42.721,280.133 42.537,280.105 42.313,280.105C42.081,280.105 41.867,280.149 41.671,280.237C41.475,280.325 41.305,280.447 41.161,280.603C41.017,280.759 40.903,280.941 40.819,281.149C40.735,281.357 40.693,281.577 40.693,281.809L40.693,284.749L39.613,284.749Z" style="fill-rule:nonzero;"/>
        <rect x="46.273" y="276.745" width="1.152" height="8.004" style="fill-rule:nonzero;"/>
        <path d="M49.057,284.749L49.057,279.739C49.057,279.559 49.053,279.369 49.045,279.169L50.077,279.169L50.113,280.009C50.185,279.913 50.273,279.807 50.377,279.691C50.481,279.575 50.609,279.469 50.761,279.373C50.913,279.277 51.091,279.197 51.295,279.133C51.499,279.069 51.729,279.037 51.985,279.037C52.713,279.037 53.253,279.249 53.605,279.673C53.957,280.097 54.133,280.673 54.133,281.401L54.133,284.749L53.053,284.749L53.053,281.485C53.053,280.965 52.941,280.583 52.717,280.339C52.493,280.095 52.177,279.973 51.769,279.973C51.457,279.973 51.197,280.037 50.989,280.165C50.781,280.293 50.615,280.459 50.491,280.663C50.367,280.867 50.277,281.099 50.221,281.359C50.165,281.619 50.137,281.885 50.137,282.157L50.137,284.749L49.057,284.749Z" style="fill-rule:nonzero;"/>
        <path d="M80.311,276.745L82.867,276.745C83.379,276.745 83.811,276.815 84.163,276.955C84.515,277.095 84.801,277.275 85.021,277.495C85.241,277.715 85.401,277.965 85.501,278.245C85.601,278.525 85.651,278.809 85.651,279.097C85.651,279.609 85.531,280.061 85.291,280.453C85.051,280.845 84.679,281.137 84.175,281.329L86.047,284.749L84.751,284.749L83.035,281.473L81.427,281.473L81.427,284.749L80.311,284.749L80.311,276.745ZM82.963,280.501C83.467,280.501 83.845,280.377 84.097,280.129C84.349,279.881 84.475,279.549 84.475,279.133C84.475,278.693 84.339,278.351 84.067,278.107C83.795,277.863 83.419,277.741 82.939,277.741L81.427,277.741L81.427,280.501L82.963,280.501Z" style="fill-rule:nonzero;"/>
        <path d="M87.163,279.169L88.243,279.169L88.243,282.445C88.243,282.973 88.351,283.355 88.567,283.591C88.783,283.827 89.095,283.945 89.503,283.945C89.815,283.945 90.073,283.881 90.277,283.753C90.481,283.625 90.647,283.459 90.775,283.255C90.903,283.051 90.993,282.819 91.045,282.559C91.097,282.299 91.123,282.033 91.123,281.761L91.123,279.169L92.203,279.169L92.203,284.179C92.203,284.359 92.207,284.549 92.215,284.749L91.183,284.749L91.147,283.921C91.075,284.017 90.987,284.121 90.883,284.233C90.779,284.345 90.651,284.447 90.499,284.539C90.347,284.631 90.171,284.709 89.971,284.773C89.771,284.837 89.543,284.869 89.287,284.869C88.559,284.869 88.023,284.659 87.679,284.239C87.335,283.819 87.163,283.245 87.163,282.517L87.163,279.169Z" style="fill-rule:nonzero;"/>
        <path d="M93.679,284.749L93.679,279.739C93.679,279.559 93.675,279.369 93.667,279.169L94.699,279.169L94.735,280.009C94.807,279.913 94.895,279.807 94.999,279.691C95.103,279.575 95.231,279.469 95.383,279.373C95.535,279.277 95.713,279.197 95.917,279.133C96.121,279.069 96.351,279.037 96.607,279.037C97.335,279.037 97.875,279.249 98.227,279.673C98.579,280.097 98.755,280.673 98.755,281.401L98.755,284.749L97.675,284.749L97.675,281.485C97.675,280.965 97.563,280.583 97.339,280.339C97.115,280.095 96.799,279.973 96.391,279.973C96.079,279.973 95.819,280.037 95.611,280.165C95.403,280.293 95.237,280.459 95.113,280.663C94.989,280.867 94.899,281.099 94.843,281.359C94.787,281.619 94.759,281.885 94.759,282.157L94.759,284.749L93.679,284.749Z" style="fill-rule:nonzero;"/>
        <g id="XY-Controls" serif:id="XY Controls">
            <g id="X">
                <path d="M18.27,43.441L19.542,43.441L21.078,49.897L22.818,43.681L23.934,43.681L25.638,49.885L27.174,43.441L28.374,43.441L26.226,51.445L25.002,51.445L23.334,45.529L21.618,51.445L20.406,51.445L18.27,43.441Z" style="fill-rule:nonzero;"/>
                <path d="M29.238,43.657L30.45,43.657L30.45,44.869L29.238,44.869L29.238,43.657ZM29.31,45.865L30.39,45.865L30.39,51.445L29.31,51.445L29.31,45.865Z" style="fill-rule:nonzero;"/>
                <path d="M35.862,47.101C35.782,47.037 35.634,46.951 35.418,46.843C35.202,46.735 34.894,46.681 34.494,46.681C34.23,46.681 33.988,46.729 33.768,46.825C33.548,46.921 33.356,47.057 33.192,47.233C33.028,47.409 32.9,47.625 32.808,47.881C32.716,48.137 32.67,48.425 32.67,48.745C32.67,49.009 32.702,49.259 32.766,49.495C32.83,49.731 32.928,49.937 33.06,50.113C33.192,50.289 33.36,50.427 33.564,50.527C33.768,50.627 34.01,50.677 34.29,50.677C34.57,50.677 34.81,50.625 35.01,50.521C35.21,50.417 35.372,50.287 35.496,50.131C35.62,49.975 35.712,49.803 35.772,49.615C35.832,49.427 35.862,49.253 35.862,49.093L35.862,47.101ZM35.862,50.737C35.822,50.785 35.756,50.859 35.664,50.959C35.572,51.059 35.45,51.157 35.298,51.253C35.146,51.349 34.968,51.433 34.764,51.505C34.56,51.577 34.322,51.613 34.05,51.613C33.698,51.613 33.37,51.545 33.066,51.409C32.762,51.273 32.498,51.081 32.274,50.833C32.05,50.585 31.876,50.283 31.752,49.927C31.628,49.571 31.566,49.173 31.566,48.733C31.566,48.205 31.658,47.751 31.842,47.371C32.026,46.991 32.26,46.679 32.544,46.435C32.828,46.191 33.136,46.013 33.468,45.901C33.8,45.789 34.114,45.733 34.41,45.733C34.81,45.733 35.122,45.781 35.346,45.877C35.57,45.973 35.742,46.045 35.862,46.093L35.862,43.441L36.942,43.441L36.942,50.875C36.942,51.055 36.946,51.245 36.954,51.445L35.898,51.445L35.862,50.737Z" style="fill-rule:nonzero;"/>
                <path d="M38.838,46.765L37.83,46.765L37.83,45.865L38.838,45.865L38.838,44.041L39.918,44.041L39.918,45.865L41.55,45.865L41.55,46.765L39.918,46.765L39.918,49.513C39.918,49.961 39.988,50.269 40.128,50.437C40.268,50.605 40.466,50.689 40.722,50.689C40.93,50.689 41.102,50.657 41.238,50.593C41.374,50.529 41.51,50.433 41.646,50.305L42.138,50.965C41.906,51.189 41.668,51.351 41.424,51.451C41.18,51.551 40.89,51.601 40.554,51.601C39.962,51.601 39.528,51.441 39.252,51.121C38.976,50.801 38.838,50.301 38.838,49.621L38.838,46.765Z" style="fill-rule:nonzero;"/>
                <path d="M42.87,43.441L43.938,43.441L43.938,46.693C44.01,46.597 44.098,46.493 44.202,46.381C44.306,46.269 44.434,46.165 44.586,46.069C44.738,45.973 44.914,45.893 45.114,45.829C45.314,45.765 45.542,45.733 45.798,45.733C46.526,45.733 47.066,45.945 47.418,46.369C47.77,46.793 47.946,47.369 47.946,48.097L47.946,51.445L46.866,51.445L46.866,48.181C46.866,47.661 46.754,47.279 46.53,47.035C46.306,46.791 45.99,46.669 45.582,46.669C45.27,46.669 45.01,46.733 44.802,46.861C44.594,46.989 44.428,47.155 44.304,47.359C44.18,47.563 44.09,47.795 44.034,48.055C43.978,48.315 43.95,48.581 43.95,48.853L43.95,51.445L42.87,51.445L42.87,43.441Z" style="fill-rule:nonzero;"/>
                <path d="M33.36,70.2L33.36,181.877" style="fill:none;stroke:black;stroke-width:1px;stroke-dasharray:2,2,0,0;"/>
                <rect x="19.9" y="133.031" width="2.216" height="0.943" style="fill-rule:nonzero;"/>
                <path d="M46.708,134.358L46.708,133.255L45.292,133.255L45.292,131.839L44.189,131.839L44.189,133.255L42.773,133.255L42.773,134.358L44.189,134.358L44.189,135.774L45.292,135.774L45.292,134.358L46.708,134.358Z" style="fill-rule:nonzero;"/>
            </g>
            <g id="Y">
                <path d="M74.806,49.501C74.918,49.629 75.044,49.759 75.184,49.891C75.324,50.023 75.482,50.141 75.658,50.245C75.834,50.349 76.03,50.433 76.246,50.497C76.462,50.561 76.698,50.593 76.954,50.593C77.482,50.593 77.894,50.473 78.19,50.233C78.486,49.993 78.634,49.669 78.634,49.261C78.634,48.821 78.466,48.491 78.13,48.271C77.794,48.051 77.31,47.873 76.678,47.737C76.334,47.665 76.022,47.565 75.742,47.437C75.462,47.309 75.22,47.149 75.016,46.957C74.812,46.765 74.654,46.543 74.542,46.291C74.43,46.039 74.374,45.753 74.374,45.433C74.374,45.137 74.43,44.857 74.542,44.593C74.654,44.329 74.822,44.097 75.046,43.897C75.27,43.697 75.55,43.537 75.886,43.417C76.222,43.297 76.61,43.237 77.05,43.237C77.442,43.237 77.78,43.279 78.064,43.363C78.348,43.447 78.59,43.549 78.79,43.669C78.99,43.789 79.15,43.913 79.27,44.041C79.39,44.169 79.482,44.273 79.546,44.353L78.778,45.061C78.73,45.005 78.658,44.931 78.562,44.839C78.466,44.747 78.344,44.657 78.196,44.569C78.048,44.481 77.876,44.407 77.68,44.347C77.484,44.287 77.258,44.257 77.002,44.257C76.746,44.257 76.526,44.291 76.342,44.359C76.158,44.427 76.006,44.515 75.886,44.623C75.766,44.731 75.678,44.853 75.622,44.989C75.566,45.125 75.538,45.261 75.538,45.397C75.538,45.597 75.58,45.767 75.664,45.907C75.748,46.047 75.87,46.171 76.03,46.279C76.19,46.387 76.388,46.479 76.624,46.555C76.86,46.631 77.13,46.705 77.434,46.777C77.73,46.849 78.02,46.943 78.304,47.059C78.588,47.175 78.842,47.331 79.066,47.527C79.29,47.723 79.468,47.963 79.6,48.247C79.732,48.531 79.798,48.877 79.798,49.285C79.798,49.629 79.726,49.945 79.582,50.233C79.438,50.521 79.24,50.771 78.988,50.983C78.736,51.195 78.438,51.359 78.094,51.475C77.75,51.591 77.378,51.649 76.978,51.649C76.602,51.649 76.26,51.605 75.952,51.517C75.644,51.429 75.364,51.317 75.112,51.181C74.86,51.045 74.64,50.895 74.452,50.731C74.264,50.567 74.11,50.405 73.99,50.245L74.806,49.501Z" style="fill-rule:nonzero;"/>
                <path d="M81.25,46.765L80.242,46.765L80.242,45.865L81.25,45.865L81.25,44.041L82.33,44.041L82.33,45.865L83.962,45.865L83.962,46.765L82.33,46.765L82.33,49.513C82.33,49.961 82.4,50.269 82.54,50.437C82.68,50.605 82.878,50.689 83.134,50.689C83.342,50.689 83.514,50.657 83.65,50.593C83.786,50.529 83.922,50.433 84.058,50.305L84.55,50.965C84.318,51.189 84.08,51.351 83.836,51.451C83.592,51.551 83.302,51.601 82.966,51.601C82.374,51.601 81.94,51.441 81.664,51.121C81.388,50.801 81.25,50.301 81.25,49.621L81.25,46.765Z" style="fill-rule:nonzero;"/>
                <path d="M90.382,50.629C90.318,50.701 90.222,50.793 90.094,50.905C89.966,51.017 89.8,51.125 89.596,51.229C89.392,51.333 89.152,51.423 88.876,51.499C88.6,51.575 88.286,51.613 87.934,51.613C87.502,51.613 87.106,51.541 86.746,51.397C86.386,51.253 86.078,51.049 85.822,50.785C85.566,50.521 85.368,50.205 85.228,49.837C85.088,49.469 85.018,49.061 85.018,48.613C85.018,48.205 85.086,47.823 85.222,47.467C85.358,47.111 85.55,46.803 85.798,46.543C86.046,46.283 86.34,46.077 86.68,45.925C87.02,45.773 87.394,45.697 87.802,45.697C88.282,45.697 88.694,45.789 89.038,45.973C89.382,46.157 89.664,46.401 89.884,46.705C90.104,47.009 90.266,47.357 90.37,47.749C90.474,48.141 90.526,48.549 90.526,48.973L86.122,48.973C86.13,49.221 86.184,49.449 86.284,49.657C86.384,49.865 86.518,50.045 86.686,50.197C86.854,50.349 87.046,50.469 87.262,50.557C87.478,50.645 87.706,50.689 87.946,50.689C88.418,50.689 88.806,50.609 89.11,50.449C89.414,50.289 89.634,50.133 89.77,49.981L90.382,50.629ZM89.41,48.169C89.378,47.737 89.226,47.369 88.954,47.065C88.682,46.761 88.298,46.609 87.802,46.609C87.546,46.609 87.316,46.653 87.112,46.741C86.908,46.829 86.734,46.945 86.59,47.089C86.446,47.233 86.334,47.399 86.254,47.587C86.174,47.775 86.13,47.969 86.122,48.169L89.41,48.169Z" style="fill-rule:nonzero;"/>
                <path d="M91.642,53.845L91.642,46.435C91.642,46.255 91.638,46.065 91.63,45.865L92.662,45.865L92.698,46.657C92.754,46.585 92.834,46.497 92.938,46.393C93.042,46.289 93.172,46.189 93.328,46.093C93.484,45.997 93.666,45.915 93.874,45.847C94.082,45.779 94.322,45.745 94.594,45.745C95.026,45.745 95.4,45.825 95.716,45.985C96.032,46.145 96.294,46.361 96.502,46.633C96.71,46.905 96.864,47.217 96.964,47.569C97.064,47.921 97.114,48.293 97.114,48.685C97.114,49.189 97.028,49.625 96.856,49.993C96.684,50.361 96.46,50.665 96.184,50.905C95.908,51.145 95.6,51.323 95.26,51.439C94.92,51.555 94.586,51.613 94.258,51.613C93.882,51.613 93.58,51.575 93.352,51.499C93.124,51.423 92.91,51.341 92.71,51.253L92.71,53.845L91.642,53.845ZM92.71,50.233C92.838,50.337 93.022,50.437 93.262,50.533C93.502,50.629 93.802,50.677 94.162,50.677C94.434,50.677 94.684,50.627 94.912,50.527C95.14,50.427 95.336,50.287 95.5,50.107C95.664,49.927 95.79,49.717 95.878,49.477C95.966,49.237 96.01,48.973 96.01,48.685C96.01,48.413 95.98,48.157 95.92,47.917C95.86,47.677 95.764,47.465 95.632,47.281C95.5,47.097 95.33,46.951 95.122,46.843C94.914,46.735 94.658,46.681 94.354,46.681C93.97,46.681 93.642,46.787 93.37,46.999C93.098,47.211 92.906,47.521 92.794,47.929C92.754,48.057 92.73,48.195 92.722,48.343C92.714,48.491 92.71,48.645 92.71,48.805L92.71,50.233Z" style="fill-rule:nonzero;"/>
                <path d="M98.614,50.041C98.814,50.241 99.054,50.401 99.334,50.521C99.614,50.641 99.938,50.701 100.306,50.701C100.666,50.701 100.966,50.643 101.206,50.527C101.446,50.411 101.566,50.229 101.566,49.981C101.566,49.853 101.54,49.743 101.488,49.651C101.436,49.559 101.348,49.477 101.224,49.405C101.1,49.333 100.936,49.267 100.732,49.207C100.528,49.147 100.274,49.081 99.97,49.009C99.754,48.961 99.54,48.897 99.328,48.817C99.116,48.737 98.926,48.631 98.758,48.499C98.59,48.367 98.454,48.207 98.35,48.019C98.246,47.831 98.194,47.605 98.194,47.341C98.194,47.069 98.256,46.831 98.38,46.627C98.504,46.423 98.67,46.251 98.878,46.111C99.086,45.971 99.32,45.865 99.58,45.793C99.84,45.721 100.11,45.685 100.39,45.685C100.862,45.685 101.268,45.747 101.608,45.871C101.948,45.995 102.246,46.169 102.502,46.393L101.914,47.137C101.746,46.985 101.536,46.857 101.284,46.753C101.032,46.649 100.738,46.597 100.402,46.597C100.058,46.597 99.782,46.653 99.574,46.765C99.366,46.877 99.262,47.061 99.262,47.317C99.262,47.557 99.4,47.735 99.676,47.851C99.952,47.967 100.314,48.077 100.762,48.181C101.026,48.245 101.272,48.319 101.5,48.403C101.728,48.487 101.928,48.595 102.1,48.727C102.272,48.859 102.408,49.021 102.508,49.213C102.608,49.405 102.658,49.637 102.658,49.909C102.658,50.189 102.594,50.435 102.466,50.647C102.338,50.859 102.166,51.037 101.95,51.181C101.734,51.325 101.486,51.433 101.206,51.505C100.926,51.577 100.634,51.613 100.33,51.613C99.274,51.613 98.482,51.329 97.954,50.761L98.614,50.041Z" style="fill-rule:nonzero;"/>
                <path d="M88.36,70.2L88.36,181.877" style="fill:none;stroke:black;stroke-width:1px;stroke-dasharray:2,2,0,0;"/>
                <rect x="74.9" y="133.031" width="2.216" height="0.943" style="fill-rule:nonzero;"/>
                <path d="M101.708,134.358L101.708,133.255L100.292,133.255L100.292,131.839L99.189,131.839L99.189,133.255L97.773,133.255L97.773,134.358L99.189,134.358L99.189,135.774L100.292,135.774L100.292,134.358L101.708,134.358Z" style="fill-rule:nonzero;"/>
            </g>
        </g>
        <g>
            <path d="M53.271,232.899L54.975,232.899C55.317,232.899 55.605,232.946 55.839,233.039C56.074,233.132 56.265,233.252 56.411,233.399C56.558,233.546 56.665,233.712 56.731,233.899C56.798,234.086 56.831,234.275 56.831,234.467C56.831,234.808 56.751,235.11 56.591,235.371C56.431,235.632 56.183,235.827 55.847,235.955L57.095,238.235L56.231,238.235L55.087,236.051L54.015,236.051L54.015,238.235L53.271,238.235L53.271,232.899ZM55.039,235.403C55.375,235.403 55.627,235.32 55.795,235.155C55.963,234.99 56.047,234.768 56.047,234.491C56.047,234.198 55.957,233.97 55.775,233.807C55.594,233.644 55.343,233.563 55.023,233.563L54.015,233.563L54.015,235.403L55.039,235.403Z" style="fill-rule:nonzero;"/>
            <path d="M60.299,236.475C60.278,236.47 60.237,236.463 60.175,236.455C60.114,236.447 60.043,236.44 59.963,236.435C59.883,236.43 59.798,236.424 59.707,236.419C59.617,236.414 59.529,236.411 59.443,236.411C59.241,236.411 59.077,236.435 58.951,236.483C58.826,236.531 58.727,236.591 58.655,236.663C58.583,236.735 58.534,236.815 58.507,236.903C58.481,236.991 58.467,237.075 58.467,237.155C58.467,237.358 58.537,237.511 58.675,237.615C58.814,237.719 59.006,237.771 59.251,237.771C59.39,237.771 59.522,237.747 59.647,237.699C59.773,237.651 59.883,237.587 59.979,237.507C60.075,237.427 60.153,237.334 60.211,237.227C60.27,237.12 60.299,237.011 60.299,236.899L60.299,236.475ZM60.307,237.787C60.169,237.974 59.986,238.112 59.759,238.203C59.533,238.294 59.299,238.339 59.059,238.339C58.905,238.339 58.751,238.319 58.599,238.279C58.447,238.239 58.309,238.172 58.183,238.079C58.058,237.986 57.957,237.866 57.879,237.719C57.802,237.572 57.763,237.392 57.763,237.179C57.763,236.779 57.903,236.459 58.183,236.219C58.463,235.979 58.867,235.859 59.395,235.859C59.481,235.859 59.571,235.862 59.667,235.867C59.763,235.872 59.854,235.878 59.939,235.883C60.025,235.888 60.099,235.894 60.163,235.899C60.227,235.904 60.273,235.91 60.299,235.915L60.299,235.779C60.299,235.502 60.215,235.303 60.047,235.183C59.879,235.063 59.651,235.003 59.363,235.003C59.081,235.003 58.857,235.042 58.691,235.119C58.526,235.196 58.387,235.275 58.275,235.355L57.939,234.867C58.003,234.814 58.081,234.76 58.171,234.707C58.262,234.654 58.369,234.604 58.491,234.559C58.614,234.514 58.753,234.476 58.907,234.447C59.062,234.418 59.241,234.403 59.443,234.403C59.923,234.403 60.301,234.519 60.575,234.751C60.85,234.983 60.987,235.312 60.987,235.739L60.987,237.903C60.987,238.034 60.99,238.144 60.995,238.235L60.323,238.235L60.307,237.787Z" style="fill-rule:nonzero;"/>
            <path d="M61.743,234.515L62.535,234.515L63.367,237.355L64.263,234.515L64.879,234.515L65.775,237.379L66.591,234.515L67.335,234.515L66.103,238.235L65.391,238.235L64.527,235.635L63.671,238.235L62.999,238.235L61.743,234.515Z" style="fill-rule:nonzero;"/>
            <path d="M49.731,201.713C49.806,201.798 49.89,201.885 49.983,201.973C50.077,202.061 50.182,202.139 50.299,202.209C50.417,202.278 50.547,202.334 50.691,202.377C50.835,202.419 50.993,202.441 51.163,202.441C51.515,202.441 51.79,202.361 51.987,202.201C52.185,202.041 52.283,201.825 52.283,201.553C52.283,201.259 52.171,201.039 51.947,200.893C51.723,200.746 51.401,200.627 50.979,200.537C50.75,200.489 50.542,200.422 50.355,200.337C50.169,200.251 50.007,200.145 49.871,200.017C49.735,199.889 49.63,199.741 49.555,199.573C49.481,199.405 49.443,199.214 49.443,199.001C49.443,198.803 49.481,198.617 49.555,198.441C49.63,198.265 49.742,198.11 49.891,197.977C50.041,197.843 50.227,197.737 50.451,197.657C50.675,197.577 50.934,197.537 51.227,197.537C51.489,197.537 51.714,197.565 51.903,197.621C52.093,197.677 52.254,197.745 52.387,197.825C52.521,197.905 52.627,197.987 52.707,198.073C52.787,198.158 52.849,198.227 52.891,198.281L52.379,198.753C52.347,198.715 52.299,198.666 52.235,198.605C52.171,198.543 52.09,198.483 51.991,198.425C51.893,198.366 51.778,198.317 51.647,198.277C51.517,198.237 51.366,198.217 51.195,198.217C51.025,198.217 50.878,198.239 50.755,198.285C50.633,198.33 50.531,198.389 50.451,198.461C50.371,198.533 50.313,198.614 50.275,198.705C50.238,198.795 50.219,198.886 50.219,198.977C50.219,199.11 50.247,199.223 50.303,199.317C50.359,199.41 50.441,199.493 50.547,199.565C50.654,199.637 50.786,199.698 50.943,199.749C51.101,199.799 51.281,199.849 51.483,199.897C51.681,199.945 51.874,200.007 52.063,200.085C52.253,200.162 52.422,200.266 52.571,200.397C52.721,200.527 52.839,200.687 52.927,200.877C53.015,201.066 53.059,201.297 53.059,201.569C53.059,201.798 53.011,202.009 52.915,202.201C52.819,202.393 52.687,202.559 52.519,202.701C52.351,202.842 52.153,202.951 51.923,203.029C51.694,203.106 51.446,203.145 51.179,203.145C50.929,203.145 50.701,203.115 50.495,203.057C50.29,202.998 50.103,202.923 49.935,202.833C49.767,202.742 49.621,202.642 49.495,202.533C49.37,202.423 49.267,202.315 49.187,202.209L49.731,201.713Z" style="fill-rule:nonzero;"/>
            <path d="M54.143,203.009L54.143,199.669C54.143,199.549 54.141,199.422 54.135,199.289L54.823,199.289L54.847,199.849C54.89,199.785 54.946,199.714 55.015,199.637C55.085,199.559 55.167,199.489 55.263,199.425C55.359,199.361 55.473,199.307 55.603,199.265C55.734,199.222 55.885,199.201 56.055,199.201C56.343,199.201 56.582,199.258 56.771,199.373C56.961,199.487 57.109,199.654 57.215,199.873C57.365,199.697 57.547,199.541 57.763,199.405C57.979,199.269 58.247,199.201 58.567,199.201C59.047,199.201 59.402,199.343 59.631,199.629C59.861,199.914 59.975,200.297 59.975,200.777L59.975,203.009L59.255,203.009L59.255,200.833C59.255,200.486 59.187,200.231 59.051,200.069C58.915,199.906 58.717,199.825 58.455,199.825C58.306,199.825 58.169,199.855 58.043,199.917C57.918,199.978 57.809,200.059 57.715,200.161C57.622,200.262 57.55,200.381 57.499,200.517C57.449,200.653 57.423,200.795 57.423,200.945L57.423,203.009L56.703,203.009L56.703,200.833C56.703,200.486 56.635,200.231 56.499,200.069C56.363,199.906 56.167,199.825 55.911,199.825C55.714,199.825 55.549,199.867 55.415,199.953C55.282,200.038 55.174,200.149 55.091,200.285C55.009,200.421 54.95,200.577 54.915,200.753C54.881,200.929 54.863,201.105 54.863,201.281L54.863,203.009L54.143,203.009Z" style="fill-rule:nonzero;"/>
            <path d="M63.523,201.249C63.502,201.243 63.461,201.237 63.399,201.229C63.338,201.221 63.267,201.214 63.187,201.209C63.107,201.203 63.022,201.198 62.931,201.193C62.841,201.187 62.753,201.185 62.667,201.185C62.465,201.185 62.301,201.209 62.175,201.257C62.05,201.305 61.951,201.365 61.879,201.437C61.807,201.509 61.758,201.589 61.731,201.677C61.705,201.765 61.691,201.849 61.691,201.929C61.691,202.131 61.761,202.285 61.899,202.389C62.038,202.493 62.23,202.545 62.475,202.545C62.614,202.545 62.746,202.521 62.871,202.473C62.997,202.425 63.107,202.361 63.203,202.281C63.299,202.201 63.377,202.107 63.435,202.001C63.494,201.894 63.523,201.785 63.523,201.673L63.523,201.249ZM63.531,202.561C63.393,202.747 63.21,202.886 62.983,202.977C62.757,203.067 62.523,203.113 62.283,203.113C62.129,203.113 61.975,203.093 61.823,203.053C61.671,203.013 61.533,202.946 61.407,202.853C61.282,202.759 61.181,202.639 61.103,202.493C61.026,202.346 60.987,202.166 60.987,201.953C60.987,201.553 61.127,201.233 61.407,200.993C61.687,200.753 62.091,200.633 62.619,200.633C62.705,200.633 62.795,200.635 62.891,200.641C62.987,200.646 63.078,200.651 63.163,200.657C63.249,200.662 63.323,200.667 63.387,200.673C63.451,200.678 63.497,200.683 63.523,200.689L63.523,200.553C63.523,200.275 63.439,200.077 63.271,199.957C63.103,199.837 62.875,199.777 62.587,199.777C62.305,199.777 62.081,199.815 61.915,199.893C61.75,199.97 61.611,200.049 61.499,200.129L61.163,199.641C61.227,199.587 61.305,199.534 61.395,199.481C61.486,199.427 61.593,199.378 61.715,199.333C61.838,199.287 61.977,199.25 62.131,199.221C62.286,199.191 62.465,199.177 62.667,199.177C63.147,199.177 63.525,199.293 63.799,199.525C64.074,199.757 64.211,200.086 64.211,200.513L64.211,202.677C64.211,202.807 64.214,202.918 64.219,203.009L63.547,203.009L63.531,202.561Z" style="fill-rule:nonzero;"/>
            <path d="M65.455,203.009L65.455,199.645C65.455,199.53 65.453,199.411 65.447,199.289L66.135,199.289L66.159,199.889C66.202,199.825 66.258,199.754 66.327,199.677C66.397,199.599 66.481,199.529 66.579,199.465C66.678,199.401 66.793,199.346 66.923,199.301C67.054,199.255 67.205,199.233 67.375,199.233C67.455,199.233 67.529,199.238 67.595,199.249C67.662,199.259 67.725,199.275 67.783,199.297L67.623,199.969C67.527,199.931 67.405,199.913 67.255,199.913C67.101,199.913 66.958,199.942 66.827,200.001C66.697,200.059 66.583,200.141 66.487,200.245C66.391,200.349 66.315,200.47 66.259,200.609C66.203,200.747 66.175,200.894 66.175,201.049L66.175,203.009L65.455,203.009Z" style="fill-rule:nonzero;"/>
            <path d="M68.947,199.889L68.275,199.889L68.275,199.289L68.947,199.289L68.947,198.073L69.667,198.073L69.667,199.289L70.755,199.289L70.755,199.889L69.667,199.889L69.667,201.721C69.667,202.019 69.714,202.225 69.807,202.337C69.901,202.449 70.033,202.505 70.203,202.505C70.342,202.505 70.457,202.483 70.547,202.441C70.638,202.398 70.729,202.334 70.819,202.249L71.147,202.689C70.993,202.838 70.834,202.946 70.671,203.013C70.509,203.079 70.315,203.113 70.091,203.113C69.697,203.113 69.407,203.006 69.223,202.793C69.039,202.579 68.947,202.246 68.947,201.793L68.947,199.889Z" style="fill-rule:nonzero;"/>
            <g transform="matrix(1,0,0,1,-16.9183,18.9185)">
                <g transform="matrix(8,0,0,8,47.9766,197.497)">
                    <path d="M0.417,-0.339L0.651,-0.339L0.651,-0.073C0.638,-0.062 0.624,-0.051 0.608,-0.04C0.591,-0.029 0.572,-0.02 0.551,-0.012C0.529,-0.003 0.505,0.003 0.478,0.008C0.451,0.013 0.421,0.016 0.388,0.016C0.336,0.016 0.289,0.007 0.248,-0.011C0.206,-0.028 0.17,-0.053 0.141,-0.084C0.111,-0.115 0.088,-0.151 0.073,-0.194C0.057,-0.236 0.049,-0.282 0.049,-0.332C0.049,-0.381 0.057,-0.426 0.074,-0.469C0.09,-0.512 0.113,-0.549 0.142,-0.581C0.171,-0.612 0.206,-0.637 0.248,-0.656C0.289,-0.674 0.334,-0.683 0.384,-0.683C0.419,-0.683 0.451,-0.679 0.479,-0.671C0.507,-0.662 0.532,-0.652 0.553,-0.639C0.574,-0.625 0.591,-0.611 0.606,-0.596C0.621,-0.581 0.633,-0.566 0.643,-0.552L0.575,-0.494C0.567,-0.505 0.557,-0.517 0.546,-0.53C0.535,-0.542 0.521,-0.553 0.506,-0.563C0.491,-0.573 0.473,-0.581 0.454,-0.588C0.434,-0.595 0.411,-0.598 0.386,-0.598C0.349,-0.598 0.316,-0.591 0.287,-0.577C0.258,-0.563 0.233,-0.544 0.213,-0.52C0.192,-0.496 0.177,-0.468 0.166,-0.436C0.155,-0.403 0.149,-0.369 0.149,-0.333C0.149,-0.294 0.155,-0.259 0.167,-0.227C0.179,-0.195 0.196,-0.168 0.218,-0.145C0.239,-0.122 0.265,-0.103 0.294,-0.091C0.323,-0.078 0.356,-0.071 0.391,-0.071C0.43,-0.071 0.463,-0.075 0.49,-0.084C0.517,-0.093 0.54,-0.105 0.559,-0.12L0.559,-0.256L0.417,-0.256L0.417,-0.339Z" style="fill-rule:nonzero;"/>
                </g>
                <g transform="matrix(8,0,0,8,53.7566,197.497)">
                    <path d="M0.352,-0.22C0.349,-0.221 0.344,-0.222 0.337,-0.223C0.329,-0.224 0.32,-0.224 0.31,-0.225C0.3,-0.226 0.289,-0.226 0.278,-0.227C0.267,-0.228 0.256,-0.228 0.245,-0.228C0.22,-0.228 0.199,-0.225 0.184,-0.219C0.168,-0.213 0.156,-0.205 0.147,-0.197C0.138,-0.188 0.131,-0.178 0.128,-0.167C0.125,-0.156 0.123,-0.145 0.123,-0.135C0.123,-0.11 0.132,-0.091 0.149,-0.078C0.166,-0.065 0.19,-0.058 0.221,-0.058C0.238,-0.058 0.255,-0.061 0.271,-0.067C0.286,-0.073 0.3,-0.081 0.312,-0.091C0.324,-0.101 0.334,-0.113 0.341,-0.126C0.348,-0.139 0.352,-0.153 0.352,-0.167L0.352,-0.22ZM0.353,-0.056C0.336,-0.033 0.313,-0.015 0.284,-0.004C0.256,0.007 0.227,0.013 0.197,0.013C0.178,0.013 0.159,0.01 0.14,0.005C0.121,0 0.103,-0.008 0.087,-0.02C0.072,-0.031 0.059,-0.046 0.05,-0.065C0.04,-0.083 0.035,-0.105 0.035,-0.132C0.035,-0.182 0.053,-0.222 0.087,-0.252C0.123,-0.282 0.173,-0.297 0.239,-0.297C0.25,-0.297 0.261,-0.297 0.273,-0.296C0.285,-0.295 0.296,-0.295 0.307,-0.294C0.318,-0.293 0.327,-0.293 0.335,-0.292C0.343,-0.291 0.349,-0.291 0.352,-0.29L0.352,-0.307C0.352,-0.342 0.342,-0.367 0.321,-0.382C0.3,-0.397 0.271,-0.404 0.235,-0.404C0.2,-0.404 0.172,-0.399 0.151,-0.39C0.13,-0.38 0.113,-0.37 0.099,-0.36L0.057,-0.421C0.065,-0.428 0.075,-0.434 0.086,-0.441C0.097,-0.448 0.111,-0.454 0.126,-0.46C0.141,-0.465 0.159,-0.47 0.178,-0.473C0.197,-0.477 0.22,-0.479 0.245,-0.479C0.305,-0.479 0.352,-0.465 0.387,-0.436C0.421,-0.406 0.438,-0.365 0.438,-0.312L0.438,-0.042C0.438,-0.025 0.438,-0.011 0.439,-0L0.355,-0L0.353,-0.056Z" style="fill-rule:nonzero;"/>
                </g>
                <g transform="matrix(8,0,0,8,57.7606,197.497)">
                    <path d="M0.102,-0.39L0.018,-0.39L0.018,-0.465L0.102,-0.465L0.102,-0.617L0.192,-0.617L0.192,-0.465L0.328,-0.465L0.328,-0.39L0.192,-0.39L0.192,-0.161C0.192,-0.124 0.198,-0.098 0.21,-0.084C0.221,-0.07 0.238,-0.063 0.259,-0.063C0.276,-0.063 0.291,-0.066 0.302,-0.071C0.313,-0.076 0.325,-0.084 0.336,-0.095L0.377,-0.04C0.358,-0.021 0.338,-0.008 0.318,0C0.297,0.009 0.273,0.013 0.245,0.013C0.196,0.013 0.16,-0 0.137,-0.027C0.114,-0.054 0.102,-0.095 0.102,-0.152L0.102,-0.39Z" style="fill-rule:nonzero;"/>
                </g>
                <g transform="matrix(8,0,0,8,60.8446,197.497)">
                    <path d="M0.486,-0.068C0.481,-0.062 0.473,-0.054 0.462,-0.045C0.451,-0.036 0.438,-0.027 0.421,-0.018C0.404,-0.009 0.384,-0.002 0.361,0.004C0.338,0.011 0.311,0.014 0.282,0.014C0.246,0.014 0.213,0.008 0.183,-0.004C0.153,-0.016 0.127,-0.033 0.106,-0.055C0.085,-0.077 0.068,-0.103 0.057,-0.134C0.045,-0.165 0.039,-0.199 0.039,-0.236C0.039,-0.27 0.045,-0.302 0.056,-0.332C0.067,-0.361 0.083,-0.387 0.104,-0.408C0.125,-0.43 0.149,-0.447 0.178,-0.46C0.206,-0.473 0.237,-0.479 0.271,-0.479C0.311,-0.479 0.345,-0.471 0.374,-0.456C0.403,-0.441 0.426,-0.42 0.445,-0.395C0.463,-0.37 0.476,-0.341 0.485,-0.308C0.494,-0.275 0.498,-0.241 0.498,-0.206L0.131,-0.206C0.132,-0.185 0.136,-0.166 0.145,-0.149C0.153,-0.132 0.164,-0.117 0.178,-0.104C0.192,-0.091 0.208,-0.081 0.226,-0.074C0.244,-0.067 0.263,-0.063 0.283,-0.063C0.322,-0.063 0.355,-0.07 0.38,-0.083C0.405,-0.096 0.424,-0.109 0.435,-0.122L0.486,-0.068ZM0.405,-0.273C0.402,-0.309 0.39,-0.34 0.367,-0.365C0.344,-0.39 0.312,-0.403 0.271,-0.403C0.25,-0.403 0.231,-0.399 0.214,-0.392C0.197,-0.385 0.182,-0.375 0.17,-0.363C0.158,-0.351 0.149,-0.337 0.142,-0.322C0.135,-0.306 0.132,-0.29 0.131,-0.273L0.405,-0.273Z" style="fill-rule:nonzero;"/>
                </g>
                <g transform="matrix(8,0,0,8,39.5606,207.247)">
                    <path d="M0.389,0.017C0.341,0.017 0.296,0.008 0.255,-0.011C0.214,-0.029 0.178,-0.054 0.147,-0.086C0.116,-0.117 0.092,-0.154 0.075,-0.197C0.058,-0.24 0.049,-0.285 0.049,-0.334C0.049,-0.383 0.058,-0.428 0.075,-0.47C0.092,-0.513 0.116,-0.55 0.147,-0.582C0.177,-0.613 0.213,-0.638 0.255,-0.657C0.296,-0.675 0.341,-0.684 0.389,-0.684C0.437,-0.684 0.482,-0.675 0.524,-0.657C0.565,-0.638 0.601,-0.613 0.632,-0.582C0.663,-0.55 0.687,-0.513 0.704,-0.47C0.721,-0.428 0.73,-0.383 0.73,-0.334C0.73,-0.285 0.721,-0.24 0.704,-0.197C0.687,-0.154 0.663,-0.117 0.632,-0.086C0.601,-0.054 0.565,-0.029 0.524,-0.011C0.482,0.008 0.437,0.017 0.389,0.017ZM0.389,-0.073C0.426,-0.073 0.459,-0.08 0.489,-0.094C0.518,-0.108 0.544,-0.127 0.565,-0.151C0.586,-0.175 0.602,-0.203 0.613,-0.234C0.624,-0.266 0.63,-0.3 0.63,-0.335C0.63,-0.371 0.624,-0.405 0.613,-0.437C0.602,-0.468 0.586,-0.496 0.565,-0.52C0.544,-0.544 0.518,-0.563 0.489,-0.577C0.459,-0.59 0.426,-0.597 0.389,-0.597C0.352,-0.597 0.319,-0.59 0.29,-0.577C0.261,-0.563 0.235,-0.544 0.215,-0.52C0.194,-0.496 0.177,-0.468 0.166,-0.437C0.155,-0.405 0.149,-0.371 0.149,-0.335C0.149,-0.3 0.155,-0.266 0.166,-0.234C0.177,-0.203 0.194,-0.175 0.215,-0.151C0.235,-0.127 0.261,-0.108 0.29,-0.094C0.319,-0.08 0.352,-0.073 0.389,-0.073Z" style="fill-rule:nonzero;"/>
                </g>
                <g transform="matrix(8,0,0,8,45.8046,207.247)">
                    <path d="M0.059,-0.465L0.149,-0.465L0.149,-0.192C0.149,-0.148 0.158,-0.116 0.176,-0.097C0.194,-0.077 0.22,-0.067 0.254,-0.067C0.28,-0.067 0.302,-0.072 0.319,-0.083C0.336,-0.094 0.349,-0.108 0.36,-0.125C0.371,-0.141 0.378,-0.161 0.383,-0.183C0.387,-0.204 0.389,-0.226 0.389,-0.249L0.389,-0.465L0.479,-0.465L0.479,-0.048C0.479,-0.033 0.479,-0.017 0.48,-0L0.394,-0L0.391,-0.069C0.385,-0.061 0.378,-0.052 0.369,-0.043C0.36,-0.034 0.35,-0.025 0.337,-0.018C0.324,-0.01 0.31,-0.003 0.293,0.002C0.276,0.007 0.257,0.01 0.236,0.01C0.175,0.01 0.131,-0.008 0.102,-0.043C0.073,-0.078 0.059,-0.125 0.059,-0.186L0.059,-0.465Z" style="fill-rule:nonzero;"/>
                </g>
                <g transform="matrix(8,0,0,8,50.1526,207.247)">
                    <path d="M0.102,-0.39L0.018,-0.39L0.018,-0.465L0.102,-0.465L0.102,-0.617L0.192,-0.617L0.192,-0.465L0.328,-0.465L0.328,-0.39L0.192,-0.39L0.192,-0.161C0.192,-0.124 0.198,-0.098 0.21,-0.084C0.221,-0.07 0.238,-0.063 0.259,-0.063C0.276,-0.063 0.291,-0.066 0.302,-0.071C0.313,-0.076 0.325,-0.084 0.336,-0.095L0.377,-0.04C0.358,-0.021 0.338,-0.008 0.318,0C0.297,0.009 0.273,0.013 0.245,0.013C0.196,0.013 0.16,-0 0.137,-0.027C0.114,-0.054 0.102,-0.095 0.102,-0.152L0.102,-0.39Z" style="fill-rule:nonzero;"/>
                </g>
                <g transform="matrix(8,0,0,8,53.2366,207.247)">
                    <path d="M0.062,0.2L0.062,-0.418C0.062,-0.433 0.062,-0.448 0.061,-0.465L0.147,-0.465L0.15,-0.399C0.155,-0.405 0.161,-0.412 0.17,-0.421C0.179,-0.43 0.19,-0.438 0.203,-0.446C0.216,-0.454 0.231,-0.461 0.248,-0.467C0.265,-0.472 0.285,-0.475 0.308,-0.475C0.344,-0.475 0.375,-0.468 0.402,-0.455C0.428,-0.442 0.45,-0.424 0.467,-0.401C0.484,-0.378 0.497,-0.352 0.505,-0.323C0.514,-0.294 0.518,-0.263 0.518,-0.23C0.518,-0.188 0.511,-0.152 0.497,-0.121C0.482,-0.09 0.464,-0.065 0.441,-0.045C0.418,-0.025 0.392,-0.01 0.364,-0.001C0.335,0.009 0.307,0.014 0.28,0.014C0.249,0.014 0.224,0.011 0.204,0.004C0.186,-0.002 0.168,-0.009 0.151,-0.016L0.151,0.2L0.062,0.2ZM0.151,-0.101C0.162,-0.092 0.177,-0.084 0.197,-0.076C0.217,-0.068 0.242,-0.064 0.272,-0.064C0.295,-0.064 0.316,-0.068 0.335,-0.077C0.354,-0.085 0.37,-0.097 0.384,-0.112C0.397,-0.127 0.408,-0.144 0.415,-0.164C0.422,-0.184 0.426,-0.206 0.426,-0.23C0.426,-0.253 0.424,-0.274 0.419,-0.294C0.413,-0.314 0.406,-0.332 0.395,-0.347C0.384,-0.362 0.369,-0.375 0.352,-0.384C0.335,-0.393 0.313,-0.397 0.288,-0.397C0.256,-0.397 0.229,-0.388 0.206,-0.371C0.183,-0.353 0.167,-0.327 0.158,-0.293C0.155,-0.282 0.153,-0.271 0.152,-0.259C0.151,-0.246 0.151,-0.233 0.151,-0.22L0.151,-0.101Z" style="fill-rule:nonzero;"/>
                </g>
                <g transform="matrix(8,0,0,8,57.7126,207.247)">
                    <path d="M0.059,-0.465L0.149,-0.465L0.149,-0.192C0.149,-0.148 0.158,-0.116 0.176,-0.097C0.194,-0.077 0.22,-0.067 0.254,-0.067C0.28,-0.067 0.302,-0.072 0.319,-0.083C0.336,-0.094 0.349,-0.108 0.36,-0.125C0.371,-0.141 0.378,-0.161 0.383,-0.183C0.387,-0.204 0.389,-0.226 0.389,-0.249L0.389,-0.465L0.479,-0.465L0.479,-0.048C0.479,-0.033 0.479,-0.017 0.48,-0L0.394,-0L0.391,-0.069C0.385,-0.061 0.378,-0.052 0.369,-0.043C0.36,-0.034 0.35,-0.025 0.337,-0.018C0.324,-0.01 0.31,-0.003 0.293,0.002C0.276,0.007 0.257,0.01 0.236,0.01C0.175,0.01 0.131,-0.008 0.102,-0.043C0.073,-0.078 0.059,-0.125 0.059,-0.186L0.059,-0.465Z" style="fill-rule:nonzero;"/>
                </g>
                <g transform="matrix(8,0,0,8,62.0606,207.247)">
                    <path d="M0.102,-0.39L0.018,-0.39L0.018,-0.465L0.102,-0.465L0.102,-0.617L0.192,-0.617L0.192,-0.465L0.328,-0.465L0.328,-0.39L0.192,-0.39L0.192,-0.161C0.192,-0.124 0.198,-0.098 0.21,-0.084C0.221,-0.07 0.238,-0.063 0.259,-0.063C0.276,-0.063 0.291,-0.066 0.302,-0.071C0.313,-0.076 0.325,-0.084 0.336,-0.095L0.377,-0.04C0.358,-0.021 0.338,-0.008 0.318,0C0.297,0.009 0.273,0.013 0.245,0.013C0.196,0.013 0.16,-0 0.137,-0.027C0.114,-0.054 0.102,-0.095 0.102,-0.152L0.102,-0.39Z" style="fill-rule:nonzero;"/>
                </g>
            </g>
        </g>
    </g>
</svg>
