<?xml version="1.0" encoding="UTF-8" standalone="no"?>
<!DOCTYPE svg PUBLIC "-//W3C//DTD SVG 1.1//EN" "http://www.w3.org/Graphics/SVG/1.1/DTD/svg11.dtd">
<svg width="100%" height="100%" viewBox="0 0 90 380" version="1.1" xmlns="http://www.w3.org/2000/svg" xmlns:xlink="http://www.w3.org/1999/xlink" xml:space="preserve" xmlns:serif="http://www.serif.com/" style="fill-rule:evenodd;clip-rule:evenodd;stroke-miterlimit:10;">
    <g id="svg8">
        <rect x="0" y="0" width="90" height="380" style="fill:rgb(240,240,240);"/>
        <path d="M25.784,361.578L24.178,361.578L24.178,356.247L18.102,356.247L18.102,361.578L16.496,361.578L16.496,350.154L18.102,350.154L18.102,354.873L24.178,354.873L24.178,350.154L25.784,350.154L25.784,361.578Z" style="fill:rgb(35,31,32);fill-rule:nonzero;"/>
        <path d="M33.992,361.578L27.171,361.578L27.171,350.154L33.86,350.154L33.86,351.496L28.777,351.496L28.777,354.906L33.578,354.906L33.578,356.247L28.777,356.247L28.777,360.221L33.992,360.221L33.992,361.578Z" style="fill:rgb(35,31,32);fill-rule:nonzero;"/>
        <path d="M42.865,351.496L39.653,351.496L39.653,361.578L38.047,361.578L38.047,351.496L34.819,351.496L34.819,350.154L42.865,350.154L42.865,351.496Z" style="fill:rgb(35,31,32);fill-rule:nonzero;"/>
        <path d="M48.575,351.877C48.062,351.496 47.449,351.463 46.655,351.463L45.479,351.463L45.479,355.337L46.655,355.337C47.449,355.337 48.062,355.304 48.575,354.94C49.089,354.559 49.304,354.095 49.304,353.399C49.304,352.721 49.089,352.241 48.575,351.877M51.622,361.578L49.684,361.578L46.704,356.661L45.479,356.661L45.479,361.578L43.873,361.578L43.873,350.154L47.101,350.154C48.244,350.154 49.171,350.42 49.85,350.949C50.529,351.496 50.959,352.323 50.959,353.366C50.959,355.37 49.568,356.264 48.36,356.496L51.622,361.578Z" style="fill:rgb(35,31,32);fill-rule:nonzero;"/>
        <rect x="52.814" y="350.154" width="1.605" height="11.424" style="fill:rgb(35,31,32);"/>
        <path d="M65.542,360.088C64.83,360.883 63.539,361.777 61.37,361.777C58.042,361.777 55.525,359.442 55.525,355.883C55.525,352.323 58.092,349.989 61.37,349.989C63.506,349.989 64.797,350.883 65.426,351.496L64.747,352.787C64.301,352.225 63.025,351.397 61.437,351.397C58.97,351.397 57.182,353.168 57.182,355.85C57.182,358.532 58.986,360.304 61.437,360.304C62.942,360.304 64.102,359.725 64.847,358.913L65.542,360.088Z" style="fill:rgb(237,50,36);fill-rule:nonzero;"/>
        <path d="M75.452,361.578L73.499,361.578L69.707,355.849L68.532,357.042L68.532,361.578L66.926,361.578L66.926,350.154L68.532,350.154L68.532,355.022L73.184,350.154L75.138,350.154L70.783,354.658L75.452,361.578Z" style="fill:rgb(237,50,36);fill-rule:nonzero;"/>
        <path d="M75.452,361.578L73.499,361.578L69.707,355.849L68.532,357.042L68.532,361.578L66.926,361.578L66.926,357.019L68.532,357.042L69.707,355.849L70.783,354.658L71.4,355.571L71.897,356.308L75.452,361.578Z" style="fill-rule:nonzero;"/>
        <path d="M57.571,280L32.429,280C28.029,280 24.429,283.6 24.429,288L24.429,317.333C24.429,321.733 28.029,325.333 32.429,325.333L57.571,325.333C61.97,325.333 65.571,321.733 65.571,317.333L65.571,288C65.571,283.6 61.97,280 57.571,280Z" style="fill-rule:nonzero;stroke:white;stroke-width:1px;"/>
        <path d="M63.79,106.597L26.211,106.597C19.634,106.597 14.253,110.956 14.253,116.283L14.253,315.648C14.253,320.975 19.634,325.334 26.211,325.334L63.79,325.334C70.365,325.334 75.748,320.975 75.748,315.648L75.748,116.283C75.748,110.956 70.365,106.597 63.79,106.597" style="fill-rule:nonzero;"/>
        <g transform="matrix(1,0,0,1,-29.6641,3.55271e-15)">
            <g transform="matrix(18,0,0,18,48.5776,28.8369)">
                <path d="M0.076,-0.667L0.287,-0.667C0.332,-0.667 0.37,-0.661 0.4,-0.648C0.429,-0.635 0.453,-0.619 0.47,-0.6C0.488,-0.581 0.5,-0.559 0.507,-0.535C0.515,-0.511 0.518,-0.488 0.518,-0.465C0.518,-0.432 0.512,-0.402 0.501,-0.377C0.49,-0.352 0.474,-0.331 0.454,-0.314C0.434,-0.297 0.41,-0.284 0.383,-0.275C0.355,-0.266 0.325,-0.262 0.292,-0.262L0.171,-0.262L0.171,-0L0.076,-0L0.076,-0.667ZM0.291,-0.344C0.332,-0.344 0.364,-0.355 0.387,-0.376C0.409,-0.397 0.42,-0.426 0.42,-0.463C0.42,-0.501 0.408,-0.531 0.386,-0.553C0.363,-0.574 0.331,-0.585 0.291,-0.585L0.171,-0.585L0.171,-0.344L0.291,-0.344Z" style="fill-rule:nonzero;"/>
            </g>
            <g transform="matrix(18,0,0,18,58.0546,28.8369)">
                <path d="M0.061,-0.667L0.15,-0.667L0.15,-0.396C0.156,-0.404 0.163,-0.413 0.172,-0.422C0.181,-0.431 0.191,-0.44 0.204,-0.448C0.217,-0.456 0.231,-0.463 0.248,-0.468C0.265,-0.473 0.284,-0.476 0.305,-0.476C0.366,-0.476 0.411,-0.458 0.44,-0.423C0.469,-0.388 0.484,-0.34 0.484,-0.279L0.484,-0L0.394,-0L0.394,-0.272C0.394,-0.315 0.385,-0.347 0.366,-0.368C0.347,-0.388 0.321,-0.398 0.287,-0.398C0.261,-0.398 0.239,-0.393 0.222,-0.382C0.205,-0.371 0.191,-0.358 0.181,-0.341C0.17,-0.324 0.163,-0.304 0.158,-0.282C0.153,-0.261 0.151,-0.239 0.151,-0.216L0.151,-0L0.061,-0L0.061,-0.667Z" style="fill-rule:nonzero;"/>
            </g>
            <g transform="matrix(18,0,0,18,67.4776,28.8369)">
                <path d="M0.352,-0.22C0.349,-0.221 0.344,-0.222 0.337,-0.223C0.329,-0.224 0.32,-0.224 0.31,-0.225C0.3,-0.226 0.289,-0.226 0.278,-0.227C0.267,-0.228 0.256,-0.228 0.245,-0.228C0.22,-0.228 0.199,-0.225 0.184,-0.219C0.168,-0.213 0.156,-0.205 0.147,-0.197C0.138,-0.188 0.131,-0.178 0.128,-0.167C0.125,-0.156 0.123,-0.145 0.123,-0.135C0.123,-0.11 0.132,-0.091 0.149,-0.078C0.166,-0.065 0.19,-0.058 0.221,-0.058C0.238,-0.058 0.255,-0.061 0.271,-0.067C0.286,-0.073 0.3,-0.081 0.312,-0.091C0.324,-0.101 0.334,-0.113 0.341,-0.126C0.348,-0.139 0.352,-0.153 0.352,-0.167L0.352,-0.22ZM0.353,-0.056C0.336,-0.033 0.313,-0.015 0.284,-0.004C0.256,0.007 0.227,0.013 0.197,0.013C0.178,0.013 0.159,0.01 0.14,0.005C0.121,0 0.103,-0.008 0.087,-0.02C0.072,-0.031 0.059,-0.046 0.05,-0.065C0.04,-0.083 0.035,-0.105 0.035,-0.132C0.035,-0.182 0.053,-0.222 0.087,-0.252C0.123,-0.282 0.173,-0.297 0.239,-0.297C0.25,-0.297 0.261,-0.297 0.273,-0.296C0.285,-0.295 0.296,-0.295 0.307,-0.294C0.318,-0.293 0.327,-0.293 0.335,-0.292C0.343,-0.291 0.349,-0.291 0.352,-0.29L0.352,-0.307C0.352,-0.342 0.342,-0.367 0.321,-0.382C0.3,-0.397 0.271,-0.404 0.235,-0.404C0.2,-0.404 0.172,-0.399 0.151,-0.39C0.13,-0.38 0.113,-0.37 0.099,-0.36L0.057,-0.421C0.065,-0.428 0.075,-0.434 0.086,-0.441C0.097,-0.448 0.111,-0.454 0.126,-0.46C0.141,-0.465 0.159,-0.47 0.178,-0.473C0.197,-0.477 0.22,-0.479 0.245,-0.479C0.305,-0.479 0.352,-0.465 0.387,-0.436C0.421,-0.406 0.438,-0.365 0.438,-0.312L0.438,-0.042C0.438,-0.025 0.438,-0.011 0.439,-0L0.355,-0L0.353,-0.056Z" style="fill-rule:nonzero;"/>
            </g>
            <g transform="matrix(18,0,0,18,76.1086,28.8369)">
                <path d="M0.092,-0.117C0.109,-0.1 0.129,-0.087 0.152,-0.077C0.175,-0.067 0.202,-0.062 0.233,-0.062C0.263,-0.062 0.288,-0.067 0.308,-0.077C0.328,-0.086 0.338,-0.101 0.338,-0.122C0.338,-0.133 0.336,-0.142 0.332,-0.15C0.327,-0.157 0.32,-0.164 0.31,-0.17C0.299,-0.176 0.285,-0.182 0.269,-0.187C0.252,-0.192 0.23,-0.197 0.205,-0.203C0.187,-0.207 0.169,-0.212 0.152,-0.219C0.134,-0.226 0.118,-0.234 0.104,-0.246C0.09,-0.257 0.079,-0.27 0.07,-0.285C0.061,-0.301 0.057,-0.32 0.057,-0.342C0.057,-0.365 0.062,-0.385 0.073,-0.402C0.083,-0.419 0.097,-0.433 0.114,-0.445C0.131,-0.456 0.151,-0.465 0.172,-0.471C0.194,-0.477 0.217,-0.48 0.24,-0.48C0.279,-0.48 0.313,-0.475 0.342,-0.465C0.37,-0.454 0.395,-0.44 0.416,-0.421L0.367,-0.359C0.353,-0.372 0.336,-0.382 0.315,-0.391C0.294,-0.4 0.269,-0.404 0.241,-0.404C0.212,-0.404 0.189,-0.399 0.172,-0.39C0.155,-0.381 0.146,-0.365 0.146,-0.344C0.146,-0.324 0.158,-0.309 0.181,-0.3C0.203,-0.29 0.234,-0.281 0.271,-0.272C0.293,-0.267 0.314,-0.261 0.333,-0.254C0.352,-0.247 0.368,-0.237 0.383,-0.227C0.397,-0.216 0.408,-0.202 0.417,-0.186C0.425,-0.17 0.429,-0.151 0.429,-0.128C0.429,-0.105 0.424,-0.084 0.413,-0.067C0.402,-0.049 0.388,-0.034 0.37,-0.022C0.352,-0.01 0.331,-0.001 0.308,0.005C0.285,0.011 0.26,0.014 0.235,0.014C0.147,0.014 0.081,-0.01 0.037,-0.057L0.092,-0.117Z" style="fill-rule:nonzero;"/>
            </g>
            <g transform="matrix(18,0,0,18,84.2536,28.8369)">
                <path d="M0.286,0.014C0.25,0.014 0.217,0.007 0.187,-0.006C0.157,-0.019 0.131,-0.036 0.11,-0.059C0.088,-0.082 0.071,-0.108 0.059,-0.138C0.046,-0.167 0.04,-0.199 0.04,-0.233C0.04,-0.267 0.046,-0.299 0.059,-0.329C0.071,-0.358 0.088,-0.384 0.11,-0.407C0.131,-0.43 0.157,-0.448 0.187,-0.461C0.217,-0.473 0.25,-0.48 0.286,-0.48C0.321,-0.48 0.354,-0.473 0.384,-0.461C0.414,-0.448 0.44,-0.43 0.462,-0.407C0.484,-0.384 0.501,-0.358 0.514,-0.329C0.526,-0.299 0.532,-0.267 0.532,-0.233C0.532,-0.199 0.526,-0.167 0.514,-0.138C0.501,-0.108 0.484,-0.082 0.462,-0.059C0.44,-0.036 0.414,-0.019 0.384,-0.006C0.354,0.007 0.321,0.014 0.286,0.014ZM0.286,-0.064C0.31,-0.064 0.332,-0.069 0.351,-0.079C0.37,-0.088 0.387,-0.101 0.4,-0.117C0.413,-0.132 0.424,-0.15 0.431,-0.171C0.438,-0.191 0.441,-0.212 0.441,-0.233C0.441,-0.254 0.438,-0.274 0.431,-0.295C0.424,-0.315 0.413,-0.333 0.4,-0.349C0.386,-0.365 0.37,-0.378 0.35,-0.388C0.332,-0.397 0.31,-0.402 0.286,-0.402C0.262,-0.402 0.24,-0.397 0.221,-0.388C0.202,-0.378 0.185,-0.365 0.172,-0.349C0.159,-0.334 0.149,-0.316 0.141,-0.296C0.135,-0.275 0.131,-0.254 0.131,-0.233C0.131,-0.212 0.135,-0.191 0.141,-0.171C0.149,-0.151 0.159,-0.133 0.172,-0.117C0.186,-0.101 0.203,-0.088 0.222,-0.079C0.241,-0.069 0.262,-0.064 0.286,-0.064Z" style="fill-rule:nonzero;"/>
            </g>
            <g transform="matrix(18,0,0,18,94.1986,28.8369)">
                <path d="M0.062,-0L0.062,-0.421C0.062,-0.435 0.062,-0.45 0.061,-0.465L0.147,-0.465L0.15,-0.39C0.155,-0.398 0.162,-0.407 0.171,-0.417C0.18,-0.426 0.19,-0.435 0.203,-0.443C0.215,-0.451 0.229,-0.458 0.246,-0.464C0.262,-0.469 0.281,-0.472 0.302,-0.472C0.312,-0.472 0.321,-0.471 0.33,-0.47C0.338,-0.469 0.346,-0.467 0.353,-0.464L0.333,-0.38C0.321,-0.385 0.306,-0.387 0.287,-0.387C0.268,-0.387 0.25,-0.383 0.234,-0.376C0.217,-0.369 0.203,-0.359 0.191,-0.345C0.179,-0.333 0.17,-0.317 0.163,-0.3C0.156,-0.283 0.152,-0.264 0.152,-0.245L0.152,-0L0.062,-0Z" style="fill-rule:nonzero;"/>
            </g>
            <g transform="matrix(18,0,0,18,42.0436,46.8369)">
                <path d="M0.271,-0.667L0.369,-0.667L0.63,-0L0.523,-0L0.454,-0.186L0.18,-0.186L0.111,-0L0.01,-0L0.271,-0.667ZM0.425,-0.267L0.317,-0.56L0.208,-0.267L0.425,-0.267Z" style="fill-rule:nonzero;"/>
            </g>
            <g transform="matrix(18,0,0,18,53.2306,46.8369)">
                <path d="M0.062,-0L0.062,-0.418C0.062,-0.433 0.062,-0.448 0.061,-0.465L0.147,-0.465L0.15,-0.395C0.156,-0.403 0.163,-0.412 0.172,-0.422C0.181,-0.431 0.191,-0.44 0.204,-0.448C0.217,-0.456 0.232,-0.463 0.249,-0.468C0.266,-0.473 0.285,-0.476 0.306,-0.476C0.367,-0.476 0.412,-0.458 0.441,-0.423C0.47,-0.388 0.485,-0.34 0.485,-0.279L0.485,-0L0.395,-0L0.395,-0.272C0.395,-0.315 0.386,-0.347 0.367,-0.368C0.348,-0.388 0.322,-0.398 0.288,-0.398C0.262,-0.398 0.24,-0.393 0.223,-0.382C0.206,-0.371 0.192,-0.358 0.182,-0.341C0.171,-0.324 0.164,-0.304 0.159,-0.282C0.154,-0.261 0.152,-0.239 0.152,-0.216L0.152,-0L0.062,-0Z" style="fill-rule:nonzero;"/>
            </g>
            <g transform="matrix(18,0,0,18,62.6716,46.8369)">
                <path d="M0.352,-0.22C0.349,-0.221 0.344,-0.222 0.337,-0.223C0.329,-0.224 0.32,-0.224 0.31,-0.225C0.3,-0.226 0.289,-0.226 0.278,-0.227C0.267,-0.228 0.256,-0.228 0.245,-0.228C0.22,-0.228 0.199,-0.225 0.184,-0.219C0.168,-0.213 0.156,-0.205 0.147,-0.197C0.138,-0.188 0.131,-0.178 0.128,-0.167C0.125,-0.156 0.123,-0.145 0.123,-0.135C0.123,-0.11 0.132,-0.091 0.149,-0.078C0.166,-0.065 0.19,-0.058 0.221,-0.058C0.238,-0.058 0.255,-0.061 0.271,-0.067C0.286,-0.073 0.3,-0.081 0.312,-0.091C0.324,-0.101 0.334,-0.113 0.341,-0.126C0.348,-0.139 0.352,-0.153 0.352,-0.167L0.352,-0.22ZM0.353,-0.056C0.336,-0.033 0.313,-0.015 0.284,-0.004C0.256,0.007 0.227,0.013 0.197,0.013C0.178,0.013 0.159,0.01 0.14,0.005C0.121,0 0.103,-0.008 0.087,-0.02C0.072,-0.031 0.059,-0.046 0.05,-0.065C0.04,-0.083 0.035,-0.105 0.035,-0.132C0.035,-0.182 0.053,-0.222 0.087,-0.252C0.123,-0.282 0.173,-0.297 0.239,-0.297C0.25,-0.297 0.261,-0.297 0.273,-0.296C0.285,-0.295 0.296,-0.295 0.307,-0.294C0.318,-0.293 0.327,-0.293 0.335,-0.292C0.343,-0.291 0.349,-0.291 0.352,-0.29L0.352,-0.307C0.352,-0.342 0.342,-0.367 0.321,-0.382C0.3,-0.397 0.271,-0.404 0.235,-0.404C0.2,-0.404 0.172,-0.399 0.151,-0.39C0.13,-0.38 0.113,-0.37 0.099,-0.36L0.057,-0.421C0.065,-0.428 0.075,-0.434 0.086,-0.441C0.097,-0.448 0.111,-0.454 0.126,-0.46C0.141,-0.465 0.159,-0.47 0.178,-0.473C0.197,-0.477 0.22,-0.479 0.245,-0.479C0.305,-0.479 0.352,-0.465 0.387,-0.436C0.421,-0.406 0.438,-0.365 0.438,-0.312L0.438,-0.042C0.438,-0.025 0.438,-0.011 0.439,-0L0.355,-0L0.353,-0.056Z" style="fill-rule:nonzero;"/>
            </g>
            <g transform="matrix(18,0,0,18,71.3026,46.8369)">
                <rect x="0.062" y="-0.667" width="0.09" height="0.667" style="fill-rule:nonzero;"/>
            </g>
            <g transform="matrix(18,0,0,18,74.8036,46.8369)">
                <path d="M0.064,0.114C0.071,0.12 0.078,0.125 0.087,0.13C0.096,0.135 0.106,0.137 0.119,0.137C0.13,0.137 0.139,0.135 0.147,0.13C0.154,0.125 0.161,0.118 0.168,0.108C0.174,0.099 0.18,0.087 0.186,0.073C0.191,0.06 0.198,0.044 0.205,0.026L0.217,-0.004L0.009,-0.465L0.112,-0.465L0.262,-0.114L0.394,-0.465L0.492,-0.465L0.306,-0.012C0.297,0.009 0.289,0.033 0.28,0.058C0.271,0.084 0.259,0.108 0.246,0.131C0.233,0.154 0.216,0.174 0.197,0.189C0.178,0.204 0.153,0.212 0.124,0.212C0.101,0.212 0.081,0.209 0.065,0.202C0.049,0.196 0.035,0.188 0.023,0.177L0.064,0.114Z" style="fill-rule:nonzero;"/>
            </g>
            <g transform="matrix(18,0,0,18,83.2186,46.8369)">
                <path d="M0.052,-0.071L0.318,-0.389L0.061,-0.389L0.061,-0.465L0.428,-0.465L0.428,-0.393L0.157,-0.075L0.431,-0.075L0.431,-0L0.052,-0L0.052,-0.071Z" style="fill-rule:nonzero;"/>
            </g>
            <g transform="matrix(18,0,0,18,91.4356,46.8369)">
                <path d="M0.486,-0.068C0.481,-0.062 0.473,-0.054 0.462,-0.045C0.451,-0.036 0.438,-0.027 0.421,-0.018C0.404,-0.009 0.384,-0.002 0.361,0.004C0.338,0.011 0.311,0.014 0.282,0.014C0.246,0.014 0.213,0.008 0.183,-0.004C0.153,-0.016 0.127,-0.033 0.106,-0.055C0.085,-0.077 0.068,-0.103 0.057,-0.134C0.045,-0.165 0.039,-0.199 0.039,-0.236C0.039,-0.27 0.045,-0.302 0.056,-0.332C0.067,-0.361 0.083,-0.387 0.104,-0.408C0.125,-0.43 0.149,-0.447 0.178,-0.46C0.206,-0.473 0.237,-0.479 0.271,-0.479C0.311,-0.479 0.345,-0.471 0.374,-0.456C0.403,-0.441 0.426,-0.42 0.445,-0.395C0.463,-0.37 0.476,-0.341 0.485,-0.308C0.494,-0.275 0.498,-0.241 0.498,-0.206L0.131,-0.206C0.132,-0.185 0.136,-0.166 0.145,-0.149C0.153,-0.132 0.164,-0.117 0.178,-0.104C0.192,-0.091 0.208,-0.081 0.226,-0.074C0.244,-0.067 0.263,-0.063 0.283,-0.063C0.322,-0.063 0.355,-0.07 0.38,-0.083C0.405,-0.096 0.424,-0.109 0.435,-0.122L0.486,-0.068ZM0.405,-0.273C0.402,-0.309 0.39,-0.34 0.367,-0.365C0.344,-0.39 0.312,-0.403 0.271,-0.403C0.25,-0.403 0.231,-0.399 0.214,-0.392C0.197,-0.385 0.182,-0.375 0.17,-0.363C0.158,-0.351 0.149,-0.337 0.142,-0.322C0.135,-0.306 0.132,-0.29 0.131,-0.273L0.405,-0.273Z" style="fill-rule:nonzero;"/>
            </g>
            <g transform="matrix(18,0,0,18,100.733,46.8369)">
                <path d="M0.062,-0L0.062,-0.421C0.062,-0.435 0.062,-0.45 0.061,-0.465L0.147,-0.465L0.15,-0.39C0.155,-0.398 0.162,-0.407 0.171,-0.417C0.18,-0.426 0.19,-0.435 0.203,-0.443C0.215,-0.451 0.229,-0.458 0.246,-0.464C0.262,-0.469 0.281,-0.472 0.302,-0.472C0.312,-0.472 0.321,-0.471 0.33,-0.47C0.338,-0.469 0.346,-0.467 0.353,-0.464L0.333,-0.38C0.321,-0.385 0.306,-0.387 0.287,-0.387C0.268,-0.387 0.25,-0.383 0.234,-0.376C0.217,-0.369 0.203,-0.359 0.191,-0.345C0.179,-0.333 0.17,-0.317 0.163,-0.3C0.156,-0.283 0.152,-0.264 0.152,-0.245L0.152,-0L0.062,-0Z" style="fill-rule:nonzero;"/>
            </g>
        </g>
        <rect x="41.154" y="88.552" width="1.152" height="8.004" style="fill-rule:nonzero;"/>
        <path d="M43.974,96.556L43.974,91.546C43.974,91.366 43.97,91.176 43.962,90.976L44.994,90.976L45.03,91.816C45.102,91.72 45.19,91.614 45.294,91.498C45.398,91.382 45.526,91.276 45.678,91.18C45.83,91.084 46.008,91.004 46.212,90.94C46.416,90.876 46.646,90.844 46.902,90.844C47.63,90.844 48.17,91.056 48.522,91.48C48.874,91.904 49.05,92.48 49.05,93.208L49.05,96.556L47.97,96.556L47.97,93.292C47.97,92.772 47.858,92.39 47.634,92.146C47.41,91.902 47.094,91.78 46.686,91.78C46.374,91.78 46.114,91.844 45.906,91.972C45.698,92.1 45.532,92.266 45.408,92.47C45.284,92.674 45.194,92.906 45.138,93.166C45.082,93.426 45.054,93.692 45.054,93.964L45.054,96.556L43.974,96.556Z" style="fill-rule:nonzero;"/>
        <path d="M21.6,141.068L24.276,141.068C24.908,141.068 25.49,141.146 26.022,141.302C26.554,141.458 27.012,141.702 27.396,142.034C27.78,142.366 28.08,142.784 28.296,143.288C28.512,143.792 28.62,144.392 28.62,145.088C28.62,145.76 28.512,146.346 28.296,146.846C28.08,147.346 27.78,147.762 27.396,148.094C27.012,148.426 26.552,148.672 26.016,148.832C25.48,148.992 24.896,149.072 24.264,149.072L21.6,149.072L21.6,141.068ZM24.24,148.04C25.24,148.04 26.018,147.794 26.574,147.302C27.13,146.81 27.408,146.08 27.408,145.112C27.408,144.136 27.14,143.39 26.604,142.874C26.068,142.358 25.268,142.1 24.204,142.1L22.752,142.1L22.752,148.04L24.24,148.04Z" style="fill:white;fill-rule:nonzero;"/>
        <path d="M29.988,141.284L31.2,141.284L31.2,142.496L29.988,142.496L29.988,141.284ZM30.06,143.492L31.14,143.492L31.14,149.072L30.06,149.072L30.06,143.492Z" style="fill:white;fill-rule:nonzero;"/>
        <path d="M32.676,149.072L32.676,144.026C32.676,143.854 32.672,143.676 32.664,143.492L33.696,143.492L33.732,144.392C33.796,144.296 33.88,144.19 33.984,144.074C34.088,143.958 34.214,143.852 34.362,143.756C34.51,143.66 34.682,143.578 34.878,143.51C35.074,143.442 35.3,143.408 35.556,143.408C35.676,143.408 35.786,143.416 35.886,143.432C35.986,143.448 36.08,143.472 36.168,143.504L35.928,144.512C35.784,144.456 35.6,144.428 35.376,144.428C35.144,144.428 34.93,144.472 34.734,144.56C34.538,144.648 34.368,144.77 34.224,144.926C34.08,145.082 33.966,145.264 33.882,145.472C33.798,145.68 33.756,145.9 33.756,146.132L33.756,149.072L32.676,149.072Z" style="fill:white;fill-rule:nonzero;"/>
        <path d="M42.132,148.256C42.068,148.328 41.972,148.42 41.844,148.532C41.716,148.644 41.55,148.752 41.346,148.856C41.142,148.96 40.902,149.05 40.626,149.126C40.35,149.202 40.036,149.24 39.684,149.24C39.252,149.24 38.856,149.168 38.496,149.024C38.136,148.88 37.828,148.676 37.572,148.412C37.316,148.148 37.118,147.832 36.978,147.464C36.838,147.096 36.768,146.688 36.768,146.24C36.768,145.832 36.836,145.45 36.972,145.094C37.108,144.738 37.3,144.43 37.548,144.17C37.796,143.91 38.09,143.704 38.43,143.552C38.77,143.4 39.144,143.324 39.552,143.324C40.032,143.324 40.444,143.416 40.788,143.6C41.132,143.784 41.414,144.028 41.634,144.332C41.854,144.636 42.016,144.984 42.12,145.376C42.224,145.768 42.276,146.176 42.276,146.6L37.872,146.6C37.88,146.848 37.934,147.076 38.034,147.284C38.134,147.492 38.268,147.672 38.436,147.824C38.604,147.976 38.796,148.096 39.012,148.184C39.228,148.272 39.456,148.316 39.696,148.316C40.168,148.316 40.556,148.236 40.86,148.076C41.164,147.916 41.384,147.76 41.52,147.608L42.132,148.256ZM41.16,145.796C41.128,145.364 40.976,144.996 40.704,144.692C40.432,144.388 40.048,144.236 39.552,144.236C39.296,144.236 39.066,144.28 38.862,144.368C38.658,144.456 38.484,144.572 38.34,144.716C38.196,144.86 38.084,145.026 38.004,145.214C37.924,145.402 37.88,145.596 37.872,145.796L41.16,145.796Z" style="fill:white;fill-rule:nonzero;"/>
        <path d="M48.324,148.304C48.076,148.584 47.77,148.81 47.406,148.982C47.042,149.154 46.62,149.24 46.14,149.24C45.692,149.24 45.286,149.166 44.922,149.018C44.558,148.87 44.25,148.666 43.998,148.406C43.746,148.146 43.552,147.834 43.416,147.47C43.28,147.106 43.212,146.708 43.212,146.276C43.212,145.868 43.284,145.484 43.428,145.124C43.572,144.764 43.774,144.45 44.034,144.182C44.294,143.914 44.602,143.702 44.958,143.546C45.314,143.39 45.708,143.312 46.14,143.312C46.612,143.312 47.028,143.396 47.388,143.564C47.748,143.732 48.056,143.96 48.312,144.248L47.604,144.932C47.436,144.724 47.232,144.56 46.992,144.44C46.752,144.32 46.468,144.26 46.14,144.26C45.852,144.26 45.594,144.314 45.366,144.422C45.138,144.53 44.946,144.678 44.79,144.866C44.634,145.054 44.514,145.27 44.43,145.514C44.346,145.758 44.304,146.012 44.304,146.276C44.304,146.532 44.346,146.782 44.43,147.026C44.514,147.27 44.634,147.486 44.79,147.674C44.946,147.862 45.138,148.012 45.366,148.124C45.594,148.236 45.852,148.292 46.14,148.292C46.468,148.292 46.762,148.23 47.022,148.106C47.282,147.982 47.496,147.816 47.664,147.608L48.324,148.304Z" style="fill:white;fill-rule:nonzero;"/>
        <path d="M49.872,144.392L48.864,144.392L48.864,143.492L49.872,143.492L49.872,141.668L50.952,141.668L50.952,143.492L52.584,143.492L52.584,144.392L50.952,144.392L50.952,147.14C50.952,147.588 51.022,147.896 51.162,148.064C51.302,148.232 51.5,148.316 51.756,148.316C51.964,148.316 52.136,148.284 52.272,148.22C52.408,148.156 52.544,148.06 52.68,147.932L53.172,148.592C52.94,148.816 52.702,148.978 52.458,149.078C52.214,149.178 51.924,149.228 51.588,149.228C50.996,149.228 50.562,149.068 50.286,148.748C50.01,148.428 49.872,147.928 49.872,147.248L49.872,144.392Z" style="fill:white;fill-rule:nonzero;"/>
        <path d="M53.976,141.284L55.188,141.284L55.188,142.496L53.976,142.496L53.976,141.284ZM54.048,143.492L55.128,143.492L55.128,149.072L54.048,149.072L54.048,143.492Z" style="fill:white;fill-rule:nonzero;"/>
        <path d="M59.352,149.24C58.92,149.24 58.524,149.162 58.164,149.006C57.804,148.85 57.494,148.636 57.234,148.364C56.974,148.092 56.77,147.778 56.622,147.422C56.474,147.066 56.4,146.684 56.4,146.276C56.4,145.868 56.474,145.486 56.622,145.13C56.77,144.774 56.974,144.46 57.234,144.188C57.494,143.916 57.804,143.702 58.164,143.546C58.524,143.39 58.92,143.312 59.352,143.312C59.776,143.312 60.168,143.39 60.528,143.546C60.888,143.702 61.2,143.916 61.464,144.188C61.728,144.46 61.934,144.774 62.082,145.13C62.23,145.486 62.304,145.868 62.304,146.276C62.304,146.684 62.23,147.066 62.082,147.422C61.934,147.778 61.728,148.092 61.464,148.364C61.2,148.636 60.888,148.85 60.528,149.006C60.168,149.162 59.776,149.24 59.352,149.24ZM59.352,148.304C59.64,148.304 59.9,148.246 60.132,148.13C60.364,148.014 60.56,147.862 60.72,147.674C60.88,147.486 61.002,147.27 61.086,147.026C61.17,146.782 61.212,146.532 61.212,146.276C61.212,146.028 61.17,145.782 61.086,145.538C61.002,145.294 60.878,145.076 60.714,144.884C60.55,144.692 60.354,144.538 60.126,144.422C59.898,144.306 59.64,144.248 59.352,144.248C59.064,144.248 58.804,144.306 58.572,144.422C58.34,144.538 58.144,144.69 57.984,144.878C57.824,145.066 57.702,145.282 57.618,145.526C57.534,145.77 57.492,146.02 57.492,146.276C57.492,146.532 57.534,146.78 57.618,147.02C57.702,147.26 57.826,147.476 57.99,147.668C58.154,147.86 58.35,148.014 58.578,148.13C58.806,148.246 59.064,148.304 59.352,148.304Z" style="fill:white;fill-rule:nonzero;"/>
        <path d="M63.528,149.072L63.528,144.062C63.528,143.882 63.524,143.692 63.516,143.492L64.548,143.492L64.584,144.332C64.656,144.236 64.744,144.13 64.848,144.014C64.952,143.898 65.08,143.792 65.232,143.696C65.384,143.6 65.562,143.52 65.766,143.456C65.97,143.392 66.2,143.36 66.456,143.36C67.184,143.36 67.724,143.572 68.076,143.996C68.428,144.42 68.604,144.996 68.604,145.724L68.604,149.072L67.524,149.072L67.524,145.808C67.524,145.288 67.412,144.906 67.188,144.662C66.964,144.418 66.648,144.296 66.24,144.296C65.928,144.296 65.668,144.36 65.46,144.488C65.252,144.616 65.086,144.782 64.962,144.986C64.838,145.19 64.748,145.422 64.692,145.682C64.636,145.942 64.608,146.208 64.608,146.48L64.608,149.072L63.528,149.072Z" style="fill:white;fill-rule:nonzero;"/>
        <path d="M31.32,272.042C31.552,272.306 31.786,272.498 32.022,272.618C32.258,272.738 32.54,272.798 32.868,272.798C33.06,272.798 33.238,272.768 33.402,272.708C33.566,272.648 33.712,272.554 33.84,272.426C33.968,272.298 34.068,272.134 34.14,271.934C34.212,271.734 34.248,271.494 34.248,271.214L34.248,265.658L35.4,265.658L35.4,271.31C35.4,271.774 35.332,272.168 35.196,272.492C35.06,272.816 34.878,273.08 34.65,273.284C34.422,273.488 34.156,273.636 33.852,273.728C33.548,273.82 33.228,273.866 32.892,273.866C32.3,273.866 31.816,273.762 31.44,273.554C31.064,273.346 30.752,273.082 30.504,272.762L31.32,272.042Z" style="fill:white;fill-rule:nonzero;"/>
        <path d="M36.972,268.082L38.052,268.082L38.052,271.358C38.052,271.886 38.16,272.268 38.376,272.504C38.592,272.74 38.904,272.858 39.312,272.858C39.624,272.858 39.882,272.794 40.086,272.666C40.29,272.538 40.456,272.372 40.584,272.168C40.712,271.964 40.802,271.732 40.854,271.472C40.906,271.212 40.932,270.946 40.932,270.674L40.932,268.082L42.012,268.082L42.012,273.092C42.012,273.272 42.016,273.462 42.024,273.662L40.992,273.662L40.956,272.834C40.884,272.93 40.796,273.034 40.692,273.146C40.588,273.258 40.46,273.36 40.308,273.452C40.156,273.544 39.98,273.622 39.78,273.686C39.58,273.75 39.352,273.782 39.096,273.782C38.368,273.782 37.832,273.572 37.488,273.152C37.144,272.732 36.972,272.158 36.972,271.43L36.972,268.082Z" style="fill:white;fill-rule:nonzero;"/>
        <path d="M43.512,273.662L43.512,268.652C43.512,268.472 43.508,268.282 43.5,268.082L44.532,268.082L44.568,268.922C44.632,268.826 44.716,268.72 44.82,268.604C44.924,268.488 45.048,268.382 45.192,268.286C45.336,268.19 45.506,268.11 45.702,268.046C45.898,267.982 46.124,267.95 46.38,267.95C46.812,267.95 47.17,268.036 47.454,268.208C47.738,268.38 47.96,268.63 48.12,268.958C48.344,268.694 48.618,268.46 48.942,268.256C49.266,268.052 49.668,267.95 50.148,267.95C50.868,267.95 51.4,268.164 51.744,268.592C52.088,269.02 52.26,269.594 52.26,270.314L52.26,273.662L51.18,273.662L51.18,270.398C51.18,269.878 51.078,269.496 50.874,269.252C50.67,269.008 50.372,268.886 49.98,268.886C49.756,268.886 49.55,268.932 49.362,269.024C49.174,269.116 49.01,269.238 48.87,269.39C48.73,269.542 48.622,269.72 48.546,269.924C48.47,270.128 48.432,270.342 48.432,270.566L48.432,273.662L47.352,273.662L47.352,270.398C47.352,269.878 47.25,269.496 47.046,269.252C46.842,269.008 46.548,268.886 46.164,268.886C45.868,268.886 45.62,268.95 45.42,269.078C45.22,269.206 45.058,269.372 44.934,269.576C44.81,269.78 44.722,270.014 44.67,270.278C44.618,270.542 44.592,270.806 44.592,271.07L44.592,273.662L43.512,273.662Z" style="fill:white;fill-rule:nonzero;"/>
        <path d="M53.712,276.062L53.712,268.652C53.712,268.472 53.708,268.282 53.7,268.082L54.732,268.082L54.768,268.874C54.824,268.802 54.904,268.714 55.008,268.61C55.112,268.506 55.242,268.406 55.398,268.31C55.554,268.214 55.736,268.132 55.944,268.064C56.152,267.996 56.392,267.962 56.664,267.962C57.096,267.962 57.47,268.042 57.786,268.202C58.102,268.362 58.364,268.578 58.572,268.85C58.78,269.122 58.934,269.434 59.034,269.786C59.134,270.138 59.184,270.51 59.184,270.902C59.184,271.406 59.098,271.842 58.926,272.21C58.754,272.578 58.53,272.882 58.254,273.122C57.978,273.362 57.67,273.54 57.33,273.656C56.99,273.772 56.656,273.83 56.328,273.83C55.952,273.83 55.65,273.792 55.422,273.716C55.194,273.64 54.98,273.558 54.78,273.47L54.78,276.062L53.712,276.062ZM54.78,272.45C54.908,272.554 55.092,272.654 55.332,272.75C55.572,272.846 55.872,272.894 56.232,272.894C56.504,272.894 56.754,272.844 56.982,272.744C57.21,272.644 57.406,272.504 57.57,272.324C57.734,272.144 57.86,271.934 57.948,271.694C58.036,271.454 58.08,271.19 58.08,270.902C58.08,270.63 58.05,270.374 57.99,270.134C57.93,269.894 57.834,269.682 57.702,269.498C57.57,269.314 57.4,269.168 57.192,269.06C56.984,268.952 56.728,268.898 56.424,268.898C56.04,268.898 55.712,269.004 55.44,269.216C55.168,269.428 54.976,269.738 54.864,270.146C54.824,270.274 54.8,270.412 54.792,270.56C54.784,270.708 54.78,270.862 54.78,271.022L54.78,272.45Z" style="fill:white;fill-rule:nonzero;"/>
        <path d="M34.764,307.188L35.904,307.188L35.904,310.824L39.252,307.188L40.572,307.188L37.596,310.452L40.932,315.192L39.552,315.192L36.816,311.268L35.904,312.252L35.904,315.192L34.764,315.192L34.764,307.188Z" style="fill:white;fill-rule:nonzero;"/>
        <path d="M41.808,307.404L43.02,307.404L43.02,308.616L41.808,308.616L41.808,307.404ZM41.88,309.612L42.96,309.612L42.96,315.192L41.88,315.192L41.88,309.612Z" style="fill:white;fill-rule:nonzero;"/>
        <path d="M44.496,315.192L44.496,310.182C44.496,310.002 44.492,309.812 44.484,309.612L45.516,309.612L45.552,310.452C45.624,310.356 45.712,310.25 45.816,310.134C45.92,310.018 46.048,309.912 46.2,309.816C46.352,309.72 46.53,309.64 46.734,309.576C46.938,309.512 47.168,309.48 47.424,309.48C48.152,309.48 48.692,309.692 49.044,310.116C49.396,310.54 49.572,311.116 49.572,311.844L49.572,315.192L48.492,315.192L48.492,311.928C48.492,311.408 48.38,311.026 48.156,310.782C47.932,310.538 47.616,310.416 47.208,310.416C46.896,310.416 46.636,310.48 46.428,310.608C46.22,310.736 46.054,310.902 45.93,311.106C45.806,311.31 45.716,311.542 45.66,311.802C45.604,312.062 45.576,312.328 45.576,312.6L45.576,315.192L44.496,315.192Z" style="fill:white;fill-rule:nonzero;"/>
        <path d="M51.012,307.188L52.092,307.188L52.092,311.904L54.432,309.612L55.728,309.612L53.616,311.676L56.04,315.192L54.756,315.192L52.86,312.396L52.092,313.14L52.092,315.192L51.012,315.192L51.012,307.188Z" style="fill:white;fill-rule:nonzero;"/>
        <path d="M31.584,224.128L32.76,224.128L35.892,232.132L34.608,232.132L33.78,229.9L30.492,229.9L29.664,232.132L28.452,232.132L31.584,224.128ZM33.432,228.928L32.136,225.412L30.828,228.928L33.432,228.928Z" style="fill:white;fill-rule:nonzero;"/>
        <path d="M41.616,231.364C41.368,231.644 41.062,231.87 40.698,232.042C40.334,232.214 39.912,232.3 39.432,232.3C38.984,232.3 38.578,232.226 38.214,232.078C37.85,231.93 37.542,231.726 37.29,231.466C37.038,231.206 36.844,230.894 36.708,230.53C36.572,230.166 36.504,229.768 36.504,229.336C36.504,228.928 36.576,228.544 36.72,228.184C36.864,227.824 37.066,227.51 37.326,227.242C37.586,226.974 37.894,226.762 38.25,226.606C38.606,226.45 39,226.372 39.432,226.372C39.904,226.372 40.32,226.456 40.68,226.624C41.04,226.792 41.348,227.02 41.604,227.308L40.896,227.992C40.728,227.784 40.524,227.62 40.284,227.5C40.044,227.38 39.76,227.32 39.432,227.32C39.144,227.32 38.886,227.374 38.658,227.482C38.43,227.59 38.238,227.738 38.082,227.926C37.926,228.114 37.806,228.33 37.722,228.574C37.638,228.818 37.596,229.072 37.596,229.336C37.596,229.592 37.638,229.842 37.722,230.086C37.806,230.33 37.926,230.546 38.082,230.734C38.238,230.922 38.43,231.072 38.658,231.184C38.886,231.296 39.144,231.352 39.432,231.352C39.76,231.352 40.054,231.29 40.314,231.166C40.574,231.042 40.788,230.876 40.956,230.668L41.616,231.364Z" style="fill:white;fill-rule:nonzero;"/>
        <path d="M43.164,227.452L42.156,227.452L42.156,226.552L43.164,226.552L43.164,224.728L44.244,224.728L44.244,226.552L45.876,226.552L45.876,227.452L44.244,227.452L44.244,230.2C44.244,230.648 44.314,230.956 44.454,231.124C44.594,231.292 44.792,231.376 45.048,231.376C45.256,231.376 45.428,231.344 45.564,231.28C45.7,231.216 45.836,231.12 45.972,230.992L46.464,231.652C46.232,231.876 45.994,232.038 45.75,232.138C45.506,232.238 45.216,232.288 44.88,232.288C44.288,232.288 43.854,232.128 43.578,231.808C43.302,231.488 43.164,230.988 43.164,230.308L43.164,227.452Z" style="fill:white;fill-rule:nonzero;"/>
        <path d="M47.268,224.344L48.48,224.344L48.48,225.556L47.268,225.556L47.268,224.344ZM47.34,226.552L48.42,226.552L48.42,232.132L47.34,232.132L47.34,226.552Z" style="fill:white;fill-rule:nonzero;"/>
        <path d="M49.284,226.552L50.52,226.552L52.26,230.908L53.988,226.552L55.152,226.552L52.764,232.132L51.684,232.132L49.284,226.552Z" style="fill:white;fill-rule:nonzero;"/>
        <path d="M61.068,231.316C61.004,231.388 60.908,231.48 60.78,231.592C60.652,231.704 60.486,231.812 60.282,231.916C60.078,232.02 59.838,232.11 59.562,232.186C59.286,232.262 58.972,232.3 58.62,232.3C58.188,232.3 57.792,232.228 57.432,232.084C57.072,231.94 56.764,231.736 56.508,231.472C56.252,231.208 56.054,230.892 55.914,230.524C55.774,230.156 55.704,229.748 55.704,229.3C55.704,228.892 55.772,228.51 55.908,228.154C56.044,227.798 56.236,227.49 56.484,227.23C56.732,226.97 57.026,226.764 57.366,226.612C57.706,226.46 58.08,226.384 58.488,226.384C58.968,226.384 59.38,226.476 59.724,226.66C60.068,226.844 60.35,227.088 60.57,227.392C60.79,227.696 60.952,228.044 61.056,228.436C61.16,228.828 61.212,229.236 61.212,229.66L56.808,229.66C56.816,229.908 56.87,230.136 56.97,230.344C57.07,230.552 57.204,230.732 57.372,230.884C57.54,231.036 57.732,231.156 57.948,231.244C58.164,231.332 58.392,231.376 58.632,231.376C59.104,231.376 59.492,231.296 59.796,231.136C60.1,230.976 60.32,230.82 60.456,230.668L61.068,231.316ZM60.096,228.856C60.064,228.424 59.912,228.056 59.64,227.752C59.368,227.448 58.984,227.296 58.488,227.296C58.232,227.296 58.002,227.34 57.798,227.428C57.594,227.516 57.42,227.632 57.276,227.776C57.132,227.92 57.02,228.086 56.94,228.274C56.86,228.462 56.816,228.656 56.808,228.856L60.096,228.856Z" style="fill:white;fill-rule:nonzero;"/>
        <path d="M30.804,182.598L33.36,182.598C33.872,182.598 34.304,182.668 34.656,182.808C35.008,182.948 35.294,183.128 35.514,183.348C35.734,183.568 35.894,183.818 35.994,184.098C36.094,184.378 36.144,184.662 36.144,184.95C36.144,185.462 36.024,185.914 35.784,186.306C35.544,186.698 35.172,186.99 34.668,187.182L36.54,190.602L35.244,190.602L33.528,187.326L31.92,187.326L31.92,190.602L30.804,190.602L30.804,182.598ZM33.456,186.354C33.96,186.354 34.338,186.23 34.59,185.982C34.842,185.734 34.968,185.402 34.968,184.986C34.968,184.546 34.832,184.204 34.56,183.96C34.288,183.716 33.912,183.594 33.432,183.594L31.92,183.594L31.92,186.354L33.456,186.354Z" style="fill:white;fill-rule:nonzero;"/>
        <path d="M42.804,189.786C42.74,189.858 42.644,189.95 42.516,190.062C42.388,190.174 42.222,190.282 42.018,190.386C41.814,190.49 41.574,190.58 41.298,190.656C41.022,190.732 40.708,190.77 40.356,190.77C39.924,190.77 39.528,190.698 39.168,190.554C38.808,190.41 38.5,190.206 38.244,189.942C37.988,189.678 37.79,189.362 37.65,188.994C37.51,188.626 37.44,188.218 37.44,187.77C37.44,187.362 37.508,186.98 37.644,186.624C37.78,186.268 37.972,185.96 38.22,185.7C38.468,185.44 38.762,185.234 39.102,185.082C39.442,184.93 39.816,184.854 40.224,184.854C40.704,184.854 41.116,184.946 41.46,185.13C41.804,185.314 42.086,185.558 42.306,185.862C42.526,186.166 42.688,186.514 42.792,186.906C42.896,187.298 42.948,187.706 42.948,188.13L38.544,188.13C38.552,188.378 38.606,188.606 38.706,188.814C38.806,189.022 38.94,189.202 39.108,189.354C39.276,189.506 39.468,189.626 39.684,189.714C39.9,189.802 40.128,189.846 40.368,189.846C40.84,189.846 41.228,189.766 41.532,189.606C41.836,189.446 42.056,189.29 42.192,189.138L42.804,189.786ZM41.832,187.326C41.8,186.894 41.648,186.526 41.376,186.222C41.104,185.918 40.72,185.766 40.224,185.766C39.968,185.766 39.738,185.81 39.534,185.898C39.33,185.986 39.156,186.102 39.012,186.246C38.868,186.39 38.756,186.556 38.676,186.744C38.596,186.932 38.552,187.126 38.544,187.326L41.832,187.326Z" style="fill:white;fill-rule:nonzero;"/>
        <path d="M44.508,189.198C44.708,189.398 44.948,189.558 45.228,189.678C45.508,189.798 45.832,189.858 46.2,189.858C46.56,189.858 46.86,189.8 47.1,189.684C47.34,189.568 47.46,189.386 47.46,189.138C47.46,189.01 47.434,188.9 47.382,188.808C47.33,188.716 47.242,188.634 47.118,188.562C46.994,188.49 46.83,188.424 46.626,188.364C46.422,188.304 46.168,188.238 45.864,188.166C45.648,188.118 45.434,188.054 45.222,187.974C45.01,187.894 44.82,187.788 44.652,187.656C44.484,187.524 44.348,187.364 44.244,187.176C44.14,186.988 44.088,186.762 44.088,186.498C44.088,186.226 44.15,185.988 44.274,185.784C44.398,185.58 44.564,185.408 44.772,185.268C44.98,185.128 45.214,185.022 45.474,184.95C45.734,184.878 46.004,184.842 46.284,184.842C46.756,184.842 47.162,184.904 47.502,185.028C47.842,185.152 48.14,185.326 48.396,185.55L47.808,186.294C47.64,186.142 47.43,186.014 47.178,185.91C46.926,185.806 46.632,185.754 46.296,185.754C45.952,185.754 45.676,185.81 45.468,185.922C45.26,186.034 45.156,186.218 45.156,186.474C45.156,186.714 45.294,186.892 45.57,187.008C45.846,187.124 46.208,187.234 46.656,187.338C46.92,187.402 47.166,187.476 47.394,187.56C47.622,187.644 47.822,187.752 47.994,187.884C48.166,188.016 48.302,188.178 48.402,188.37C48.502,188.562 48.552,188.794 48.552,189.066C48.552,189.346 48.488,189.592 48.36,189.804C48.232,190.016 48.06,190.194 47.844,190.338C47.628,190.482 47.38,190.59 47.1,190.662C46.82,190.734 46.528,190.77 46.224,190.77C45.168,190.77 44.376,190.486 43.848,189.918L44.508,189.198Z" style="fill:white;fill-rule:nonzero;"/>
        <path d="M54.9,189.786C54.836,189.858 54.74,189.95 54.612,190.062C54.484,190.174 54.318,190.282 54.114,190.386C53.91,190.49 53.67,190.58 53.394,190.656C53.118,190.732 52.804,190.77 52.452,190.77C52.02,190.77 51.624,190.698 51.264,190.554C50.904,190.41 50.596,190.206 50.34,189.942C50.084,189.678 49.886,189.362 49.746,188.994C49.606,188.626 49.536,188.218 49.536,187.77C49.536,187.362 49.604,186.98 49.74,186.624C49.876,186.268 50.068,185.96 50.316,185.7C50.564,185.44 50.858,185.234 51.198,185.082C51.538,184.93 51.912,184.854 52.32,184.854C52.8,184.854 53.212,184.946 53.556,185.13C53.9,185.314 54.182,185.558 54.402,185.862C54.622,186.166 54.784,186.514 54.888,186.906C54.992,187.298 55.044,187.706 55.044,188.13L50.64,188.13C50.648,188.378 50.702,188.606 50.802,188.814C50.902,189.022 51.036,189.202 51.204,189.354C51.372,189.506 51.564,189.626 51.78,189.714C51.996,189.802 52.224,189.846 52.464,189.846C52.936,189.846 53.324,189.766 53.628,189.606C53.932,189.446 54.152,189.29 54.288,189.138L54.9,189.786ZM53.928,187.326C53.896,186.894 53.744,186.526 53.472,186.222C53.2,185.918 52.816,185.766 52.32,185.766C52.064,185.766 51.834,185.81 51.63,185.898C51.426,185.986 51.252,186.102 51.108,186.246C50.964,186.39 50.852,186.556 50.772,186.744C50.692,186.932 50.648,187.126 50.64,187.326L53.928,187.326Z" style="fill:white;fill-rule:nonzero;"/>
        <path d="M56.724,185.922L55.716,185.922L55.716,185.022L56.724,185.022L56.724,183.198L57.804,183.198L57.804,185.022L59.436,185.022L59.436,185.922L57.804,185.922L57.804,188.67C57.804,189.118 57.874,189.426 58.014,189.594C58.154,189.762 58.352,189.846 58.608,189.846C58.816,189.846 58.988,189.814 59.124,189.75C59.26,189.686 59.396,189.59 59.532,189.462L60.024,190.122C59.792,190.346 59.554,190.508 59.31,190.608C59.066,190.708 58.776,190.758 58.44,190.758C57.848,190.758 57.414,190.598 57.138,190.278C56.862,189.958 56.724,189.458 56.724,188.778L56.724,185.922Z" style="fill:white;fill-rule:nonzero;"/>
    </g>
</svg>
