<?xml version="1.0" encoding="UTF-8" standalone="no"?>
<!DOCTYPE svg PUBLIC "-//W3C//DTD SVG 1.1//EN" "http://www.w3.org/Graphics/SVG/1.1/DTD/svg11.dtd">
<svg width="100%" height="100%" viewBox="0 0 90 380" version="1.1" xmlns="http://www.w3.org/2000/svg" xmlns:xlink="http://www.w3.org/1999/xlink" xml:space="preserve" xmlns:serif="http://www.serif.com/" style="fill-rule:evenodd;clip-rule:evenodd;stroke-linejoin:round;stroke-miterlimit:2;">
    <g id="svg8">
        <rect x="0" y="0" width="90" height="380" style="fill:rgb(240,240,240);"/>
        <path d="M25.784,361.578L24.178,361.578L24.178,356.247L18.102,356.247L18.102,361.578L16.496,361.578L16.496,350.154L18.102,350.154L18.102,354.873L24.178,354.873L24.178,350.154L25.784,350.154L25.784,361.578Z" style="fill:rgb(35,31,32);fill-rule:nonzero;"/>
        <path d="M33.992,361.578L27.171,361.578L27.171,350.154L33.86,350.154L33.86,351.496L28.777,351.496L28.777,354.906L33.578,354.906L33.578,356.247L28.777,356.247L28.777,360.221L33.992,360.221L33.992,361.578Z" style="fill:rgb(35,31,32);fill-rule:nonzero;"/>
        <path d="M42.865,351.496L39.653,351.496L39.653,361.578L38.047,361.578L38.047,351.496L34.819,351.496L34.819,350.154L42.865,350.154L42.865,351.496Z" style="fill:rgb(35,31,32);fill-rule:nonzero;"/>
        <path d="M48.575,351.877C48.062,351.496 47.449,351.463 46.655,351.463L45.479,351.463L45.479,355.337L46.655,355.337C47.449,355.337 48.062,355.304 48.575,354.94C49.089,354.559 49.304,354.095 49.304,353.399C49.304,352.721 49.089,352.241 48.575,351.877M51.622,361.578L49.684,361.578L46.704,356.661L45.479,356.661L45.479,361.578L43.873,361.578L43.873,350.154L47.101,350.154C48.244,350.154 49.171,350.42 49.85,350.949C50.529,351.496 50.959,352.323 50.959,353.366C50.959,355.37 49.568,356.264 48.36,356.496L51.622,361.578Z" style="fill:rgb(35,31,32);fill-rule:nonzero;"/>
        <rect x="52.814" y="350.154" width="1.605" height="11.424" style="fill:rgb(35,31,32);"/>
        <path d="M65.542,360.088C64.83,360.883 63.539,361.777 61.37,361.777C58.042,361.777 55.525,359.442 55.525,355.883C55.525,352.323 58.092,349.989 61.37,349.989C63.506,349.989 64.797,350.883 65.426,351.496L64.747,352.787C64.301,352.225 63.025,351.397 61.437,351.397C58.97,351.397 57.182,353.168 57.182,355.85C57.182,358.532 58.986,360.304 61.437,360.304C62.942,360.304 64.102,359.725 64.847,358.913L65.542,360.088Z" style="fill:rgb(237,50,36);fill-rule:nonzero;"/>
        <path d="M75.452,361.578L73.499,361.578L69.707,355.849L68.532,357.042L68.532,361.578L66.926,361.578L66.926,350.154L68.532,350.154L68.532,355.022L73.184,350.154L75.138,350.154L70.783,354.658L75.452,361.578Z" style="fill:rgb(237,50,36);fill-rule:nonzero;"/>
        <path d="M75.452,361.578L73.499,361.578L69.707,355.849L68.532,357.042L68.532,361.578L66.926,361.578L66.926,357.019L68.532,357.042L69.707,355.849L70.783,354.658L71.4,355.571L71.897,356.308L75.452,361.578Z" style="fill-rule:nonzero;"/>
        <g>
            <path d="M69.685,124.597L20.315,124.597C11.675,124.597 4.606,128.956 4.606,134.283L4.606,333.648C4.606,338.975 11.675,343.334 20.315,343.334L69.685,343.334C78.323,343.334 85.394,338.975 85.394,333.648L85.394,134.283C85.394,128.956 78.323,124.597 69.685,124.597" style="fill-rule:nonzero;"/>
            <path d="M22.589,158.852L23.657,158.852L20.489,167.264L19.397,167.264L22.589,158.852Z" style="fill:white;fill-rule:nonzero;"/>
            <path d="M24.785,166.292C24.785,165.868 24.885,165.496 25.085,165.176C25.285,164.856 25.525,164.556 25.805,164.276C26.149,163.932 26.475,163.636 26.783,163.388C27.091,163.14 27.361,162.912 27.593,162.704C27.825,162.496 28.007,162.29 28.139,162.086C28.271,161.882 28.337,161.648 28.337,161.384C28.337,161.264 28.315,161.14 28.271,161.012C28.227,160.884 28.153,160.766 28.049,160.658C27.945,160.55 27.813,160.46 27.653,160.388C27.493,160.316 27.293,160.28 27.053,160.28C26.837,160.28 26.645,160.31 26.477,160.37C26.309,160.43 26.161,160.504 26.033,160.592C25.905,160.68 25.797,160.78 25.709,160.892C25.621,161.004 25.541,161.108 25.469,161.204L24.665,160.628C24.745,160.484 24.855,160.334 24.995,160.178C25.135,160.022 25.303,159.878 25.499,159.746C25.695,159.614 25.927,159.506 26.195,159.422C26.463,159.338 26.773,159.296 27.125,159.296C27.533,159.296 27.887,159.352 28.187,159.464C28.487,159.576 28.733,159.726 28.925,159.914C29.117,160.102 29.261,160.316 29.357,160.556C29.453,160.796 29.501,161.048 29.501,161.312C29.501,161.592 29.453,161.854 29.357,162.098C29.261,162.342 29.133,162.568 28.973,162.776C28.813,162.984 28.631,163.182 28.427,163.37C28.223,163.558 28.013,163.736 27.797,163.904C27.541,164.104 27.303,164.296 27.083,164.48C26.863,164.664 26.671,164.844 26.507,165.02C26.343,165.196 26.215,165.372 26.123,165.548C26.031,165.724 25.985,165.904 25.985,166.088L29.585,166.088L29.585,167.072L24.785,167.072L24.785,166.292Z" style="fill:white;fill-rule:nonzero;"/>
            <path d="M61.261,164.192L59.257,161.492L60.601,161.492L61.945,163.34L63.265,161.492L64.465,161.492L62.521,164.108L64.741,167.072L63.385,167.072L61.837,164.96L60.313,167.072L59.101,167.072L61.261,164.192Z" style="fill:white;fill-rule:nonzero;"/>
            <path d="M65.665,166.292C65.665,165.868 65.765,165.496 65.965,165.176C66.165,164.856 66.405,164.556 66.685,164.276C67.029,163.932 67.355,163.636 67.663,163.388C67.971,163.14 68.241,162.912 68.473,162.704C68.705,162.496 68.887,162.29 69.019,162.086C69.151,161.882 69.217,161.648 69.217,161.384C69.217,161.264 69.195,161.14 69.151,161.012C69.107,160.884 69.033,160.766 68.929,160.658C68.825,160.55 68.693,160.46 68.533,160.388C68.373,160.316 68.173,160.28 67.933,160.28C67.717,160.28 67.525,160.31 67.357,160.37C67.189,160.43 67.041,160.504 66.913,160.592C66.785,160.68 66.677,160.78 66.589,160.892C66.501,161.004 66.421,161.108 66.349,161.204L65.545,160.628C65.625,160.484 65.735,160.334 65.875,160.178C66.015,160.022 66.183,159.878 66.379,159.746C66.575,159.614 66.807,159.506 67.075,159.422C67.343,159.338 67.653,159.296 68.005,159.296C68.413,159.296 68.767,159.352 69.067,159.464C69.367,159.576 69.613,159.726 69.805,159.914C69.997,160.102 70.141,160.316 70.237,160.556C70.333,160.796 70.381,161.048 70.381,161.312C70.381,161.592 70.333,161.854 70.237,162.098C70.141,162.342 70.013,162.568 69.853,162.776C69.693,162.984 69.511,163.182 69.307,163.37C69.103,163.558 68.893,163.736 68.677,163.904C68.421,164.104 68.183,164.296 67.963,164.48C67.743,164.664 67.551,164.844 67.387,165.02C67.223,165.196 67.095,165.372 67.003,165.548C66.911,165.724 66.865,165.904 66.865,166.088L70.465,166.088L70.465,167.072L65.665,167.072L65.665,166.292Z" style="fill:white;fill-rule:nonzero;"/>
            <path d="M22.589,283.442L23.657,283.442L20.489,291.854L19.397,291.854L22.589,283.442Z" style="fill:white;fill-rule:nonzero;"/>
            <path d="M25.037,290.246C25.261,290.43 25.507,290.584 25.775,290.708C26.043,290.832 26.377,290.894 26.777,290.894C27.057,290.894 27.301,290.852 27.509,290.768C27.717,290.684 27.891,290.57 28.031,290.426C28.171,290.282 28.275,290.114 28.343,289.922C28.411,289.73 28.445,289.522 28.445,289.298C28.445,289.146 28.421,288.982 28.373,288.806C28.325,288.63 28.241,288.468 28.121,288.32C28.001,288.172 27.837,288.05 27.629,287.954C27.421,287.858 27.157,287.81 26.837,287.81C26.509,287.81 26.249,287.842 26.057,287.906C25.865,287.97 25.689,288.042 25.529,288.122L24.977,287.702L25.697,284.102L29.405,284.102L29.405,285.11L26.453,285.11L26.105,287.09C26.185,287.042 26.313,286.996 26.489,286.952C26.665,286.908 26.877,286.886 27.125,286.886C27.485,286.886 27.815,286.938 28.115,287.042C28.415,287.146 28.673,287.3 28.889,287.504C29.105,287.708 29.273,287.956 29.393,288.248C29.513,288.54 29.573,288.878 29.573,289.262C29.573,289.614 29.517,289.946 29.405,290.258C29.293,290.57 29.121,290.846 28.889,291.086C28.657,291.326 28.361,291.516 28.001,291.656C27.641,291.796 27.213,291.866 26.717,291.866C26.189,291.866 25.739,291.786 25.367,291.626C24.995,291.466 24.681,291.27 24.425,291.038L25.037,290.246Z" style="fill:white;fill-rule:nonzero;"/>
            <path d="M61.261,288.782L59.257,286.082L60.601,286.082L61.945,287.93L63.265,286.082L64.465,286.082L62.521,288.698L64.741,291.662L63.385,291.662L61.837,289.55L60.313,291.662L59.101,291.662L61.261,288.782Z" style="fill:white;fill-rule:nonzero;"/>
            <path d="M65.917,290.246C66.141,290.43 66.387,290.584 66.655,290.708C66.923,290.832 67.257,290.894 67.657,290.894C67.937,290.894 68.181,290.852 68.389,290.768C68.597,290.684 68.771,290.57 68.911,290.426C69.051,290.282 69.155,290.114 69.223,289.922C69.291,289.73 69.325,289.522 69.325,289.298C69.325,289.146 69.301,288.982 69.253,288.806C69.205,288.63 69.121,288.468 69.001,288.32C68.881,288.172 68.717,288.05 68.509,287.954C68.301,287.858 68.037,287.81 67.717,287.81C67.389,287.81 67.129,287.842 66.937,287.906C66.745,287.97 66.569,288.042 66.409,288.122L65.857,287.702L66.577,284.102L70.285,284.102L70.285,285.11L67.333,285.11L66.985,287.09C67.065,287.042 67.193,286.996 67.369,286.952C67.545,286.908 67.757,286.886 68.005,286.886C68.365,286.886 68.695,286.938 68.995,287.042C69.295,287.146 69.553,287.3 69.769,287.504C69.985,287.708 70.153,287.956 70.273,288.248C70.393,288.54 70.453,288.878 70.453,289.262C70.453,289.614 70.397,289.946 70.285,290.258C70.173,290.57 70.001,290.846 69.769,291.086C69.537,291.326 69.241,291.516 68.881,291.656C68.521,291.796 68.093,291.866 67.597,291.866C67.069,291.866 66.619,291.786 66.247,291.626C65.875,291.466 65.561,291.27 65.305,291.038L65.917,290.246Z" style="fill:white;fill-rule:nonzero;"/>
            <path d="M22.589,324.972L23.657,324.972L20.489,333.384L19.397,333.384L22.589,324.972Z" style="fill:white;fill-rule:nonzero;"/>
            <path d="M27.245,328.644C27.629,328.524 27.937,328.348 28.169,328.116C28.401,327.884 28.517,327.612 28.517,327.3C28.517,327.004 28.401,326.758 28.169,326.562C27.937,326.366 27.629,326.268 27.245,326.268C26.861,326.268 26.553,326.366 26.321,326.562C26.089,326.758 25.973,327.024 25.973,327.36C25.973,327.632 26.083,327.884 26.303,328.116C26.523,328.348 26.837,328.524 27.245,328.644ZM27.197,329.568C26.981,329.624 26.777,329.702 26.585,329.802C26.393,329.902 26.225,330.018 26.081,330.15C25.937,330.282 25.823,330.43 25.739,330.594C25.655,330.758 25.613,330.936 25.613,331.128C25.613,331.368 25.663,331.574 25.763,331.746C25.863,331.918 25.991,332.058 26.147,332.166C26.303,332.274 26.477,332.352 26.669,332.4C26.861,332.448 27.053,332.472 27.245,332.472C27.437,332.472 27.629,332.448 27.821,332.4C28.013,332.352 28.187,332.274 28.343,332.166C28.499,332.058 28.625,331.918 28.721,331.746C28.817,331.574 28.865,331.368 28.865,331.128C28.865,330.936 28.819,330.758 28.727,330.594C28.635,330.43 28.511,330.282 28.355,330.15C28.199,330.018 28.021,329.902 27.821,329.802C27.621,329.702 27.413,329.624 27.197,329.568ZM26.081,329.064C25.761,328.896 25.489,328.672 25.265,328.392C25.041,328.112 24.929,327.768 24.929,327.36C24.929,327.08 24.983,326.82 25.091,326.58C25.199,326.34 25.353,326.134 25.553,325.962C25.753,325.79 25.995,325.656 26.279,325.56C26.563,325.464 26.885,325.416 27.245,325.416C27.621,325.416 27.953,325.464 28.241,325.56C28.529,325.656 28.769,325.788 28.961,325.956C29.153,326.124 29.299,326.322 29.399,326.55C29.499,326.778 29.549,327.024 29.549,327.288C29.549,327.664 29.445,328.004 29.237,328.308C29.029,328.612 28.733,328.852 28.349,329.028C28.493,329.092 28.659,329.18 28.847,329.292C29.035,329.404 29.213,329.548 29.381,329.724C29.549,329.9 29.691,330.106 29.807,330.342C29.923,330.578 29.981,330.848 29.981,331.152C29.981,331.408 29.931,331.668 29.831,331.932C29.731,332.196 29.571,332.436 29.351,332.652C29.131,332.868 28.847,333.044 28.499,333.18C28.151,333.316 27.733,333.384 27.245,333.384C26.741,333.384 26.315,333.316 25.967,333.18C25.619,333.044 25.337,332.868 25.121,332.652C24.905,332.436 24.747,332.198 24.647,331.938C24.547,331.678 24.497,331.42 24.497,331.164C24.497,330.9 24.541,330.66 24.629,330.444C24.717,330.228 24.835,330.032 24.983,329.856C25.131,329.68 25.301,329.526 25.493,329.394C25.685,329.262 25.881,329.152 26.081,329.064Z" style="fill:white;fill-rule:nonzero;"/>
            <path d="M61.261,330.312L59.257,327.612L60.601,327.612L61.945,329.46L63.265,327.612L64.465,327.612L62.521,330.228L64.741,333.192L63.385,333.192L61.837,331.08L60.313,333.192L59.101,333.192L61.261,330.312Z" style="fill:white;fill-rule:nonzero;"/>
            <path d="M68.125,328.644C68.509,328.524 68.817,328.348 69.049,328.116C69.281,327.884 69.397,327.612 69.397,327.3C69.397,327.004 69.281,326.758 69.049,326.562C68.817,326.366 68.509,326.268 68.125,326.268C67.741,326.268 67.433,326.366 67.201,326.562C66.969,326.758 66.853,327.024 66.853,327.36C66.853,327.632 66.963,327.884 67.183,328.116C67.403,328.348 67.717,328.524 68.125,328.644ZM68.077,329.568C67.861,329.624 67.657,329.702 67.465,329.802C67.273,329.902 67.105,330.018 66.961,330.15C66.817,330.282 66.703,330.43 66.619,330.594C66.535,330.758 66.493,330.936 66.493,331.128C66.493,331.368 66.543,331.574 66.643,331.746C66.743,331.918 66.871,332.058 67.027,332.166C67.183,332.274 67.357,332.352 67.549,332.4C67.741,332.448 67.933,332.472 68.125,332.472C68.317,332.472 68.509,332.448 68.701,332.4C68.893,332.352 69.067,332.274 69.223,332.166C69.379,332.058 69.505,331.918 69.601,331.746C69.697,331.574 69.745,331.368 69.745,331.128C69.745,330.936 69.699,330.758 69.607,330.594C69.515,330.43 69.391,330.282 69.235,330.15C69.079,330.018 68.901,329.902 68.701,329.802C68.501,329.702 68.293,329.624 68.077,329.568ZM66.961,329.064C66.641,328.896 66.369,328.672 66.145,328.392C65.921,328.112 65.809,327.768 65.809,327.36C65.809,327.08 65.863,326.82 65.971,326.58C66.079,326.34 66.233,326.134 66.433,325.962C66.633,325.79 66.875,325.656 67.159,325.56C67.443,325.464 67.765,325.416 68.125,325.416C68.501,325.416 68.833,325.464 69.121,325.56C69.409,325.656 69.649,325.788 69.841,325.956C70.033,326.124 70.179,326.322 70.279,326.55C70.379,326.778 70.429,327.024 70.429,327.288C70.429,327.664 70.325,328.004 70.117,328.308C69.909,328.612 69.613,328.852 69.229,329.028C69.373,329.092 69.539,329.18 69.727,329.292C69.915,329.404 70.093,329.548 70.261,329.724C70.429,329.9 70.571,330.106 70.687,330.342C70.803,330.578 70.861,330.848 70.861,331.152C70.861,331.408 70.811,331.668 70.711,331.932C70.611,332.196 70.451,332.436 70.231,332.652C70.011,332.868 69.727,333.044 69.379,333.18C69.031,333.316 68.613,333.384 68.125,333.384C67.621,333.384 67.195,333.316 66.847,333.18C66.499,333.044 66.217,332.868 66.001,332.652C65.785,332.436 65.627,332.198 65.527,331.938C65.427,331.678 65.377,331.42 65.377,331.164C65.377,330.9 65.421,330.66 65.509,330.444C65.597,330.228 65.715,330.032 65.863,329.856C66.011,329.68 66.181,329.526 66.373,329.394C66.565,329.262 66.761,329.152 66.961,329.064Z" style="fill:white;fill-rule:nonzero;"/>
            <path d="M22.589,241.912L23.657,241.912L20.489,250.324L19.397,250.324L22.589,241.912Z" style="fill:white;fill-rule:nonzero;"/>
            <path d="M24.557,247.636L27.989,242.56L29.081,242.56L29.081,247.624L29.897,247.624L29.897,248.56L29.081,248.56L29.081,250.132L28.037,250.132L28.037,248.56L24.557,248.56L24.557,247.636ZM28.037,247.624L28.037,244.012L25.625,247.624L28.037,247.624Z" style="fill:white;fill-rule:nonzero;"/>
            <path d="M61.261,247.252L59.257,244.552L60.601,244.552L61.945,246.4L63.265,244.552L64.465,244.552L62.521,247.168L64.741,250.132L63.385,250.132L61.837,248.02L60.313,250.132L59.101,250.132L61.261,247.252Z" style="fill:white;fill-rule:nonzero;"/>
            <path d="M65.437,247.636L68.869,242.56L69.961,242.56L69.961,247.624L70.777,247.624L70.777,248.56L69.961,248.56L69.961,250.132L68.917,250.132L68.917,248.56L65.437,248.56L65.437,247.636ZM68.917,247.624L68.917,244.012L66.505,247.624L68.917,247.624Z" style="fill:white;fill-rule:nonzero;"/>
            <path d="M22.589,200.382L23.657,200.382L20.489,208.794L19.397,208.794L22.589,200.382Z" style="fill:white;fill-rule:nonzero;"/>
            <path d="M25.013,207.186C25.213,207.346 25.449,207.496 25.721,207.636C25.993,207.776 26.337,207.846 26.753,207.846C27.257,207.846 27.657,207.71 27.953,207.438C28.249,207.166 28.397,206.802 28.397,206.346C28.397,205.938 28.271,205.602 28.019,205.338C27.767,205.074 27.397,204.942 26.909,204.942C26.765,204.942 26.633,204.954 26.513,204.978C26.393,205.002 26.277,205.034 26.165,205.074L25.817,204.51L27.941,202.038L24.917,202.038L24.917,201.042L29.261,201.042L29.261,201.906L27.317,204.174C27.653,204.174 27.957,204.226 28.229,204.33C28.501,204.434 28.735,204.582 28.931,204.774C29.127,204.966 29.277,205.196 29.381,205.464C29.485,205.732 29.537,206.03 29.537,206.358C29.537,206.758 29.465,207.11 29.321,207.414C29.177,207.718 28.979,207.972 28.727,208.176C28.475,208.38 28.179,208.536 27.839,208.644C27.499,208.752 27.133,208.806 26.741,208.806C26.453,208.806 26.189,208.782 25.949,208.734C25.709,208.686 25.493,208.622 25.301,208.542C25.109,208.462 24.937,208.372 24.785,208.272C24.633,208.172 24.497,208.07 24.377,207.966L25.013,207.186Z" style="fill:white;fill-rule:nonzero;"/>
            <path d="M61.261,205.722L59.257,203.022L60.601,203.022L61.945,204.87L63.265,203.022L64.465,203.022L62.521,205.638L64.741,208.602L63.385,208.602L61.837,206.49L60.313,208.602L59.101,208.602L61.261,205.722Z" style="fill:white;fill-rule:nonzero;"/>
            <path d="M65.893,207.186C66.093,207.346 66.329,207.496 66.601,207.636C66.873,207.776 67.217,207.846 67.633,207.846C68.137,207.846 68.537,207.71 68.833,207.438C69.129,207.166 69.277,206.802 69.277,206.346C69.277,205.938 69.151,205.602 68.899,205.338C68.647,205.074 68.277,204.942 67.789,204.942C67.645,204.942 67.513,204.954 67.393,204.978C67.273,205.002 67.157,205.034 67.045,205.074L66.697,204.51L68.821,202.038L65.797,202.038L65.797,201.042L70.141,201.042L70.141,201.906L68.197,204.174C68.533,204.174 68.837,204.226 69.109,204.33C69.381,204.434 69.615,204.582 69.811,204.774C70.007,204.966 70.157,205.196 70.261,205.464C70.365,205.732 70.417,206.03 70.417,206.358C70.417,206.758 70.345,207.11 70.201,207.414C70.057,207.718 69.859,207.972 69.607,208.176C69.355,208.38 69.059,208.536 68.719,208.644C68.379,208.752 68.013,208.806 67.621,208.806C67.333,208.806 67.069,208.782 66.829,208.734C66.589,208.686 66.373,208.622 66.181,208.542C65.989,208.462 65.817,208.372 65.665,208.272C65.513,208.172 65.377,208.07 65.257,207.966L65.893,207.186Z" style="fill:white;fill-rule:nonzero;"/>
        </g>
        <g transform="matrix(1,0,0,1,-29.6641,3.55271e-15)">
            <g transform="matrix(18,0,0,18,48.5776,28.8369)">
                <path d="M0.076,-0.667L0.287,-0.667C0.332,-0.667 0.37,-0.661 0.4,-0.648C0.429,-0.635 0.453,-0.619 0.47,-0.6C0.488,-0.581 0.5,-0.559 0.507,-0.535C0.515,-0.511 0.518,-0.488 0.518,-0.465C0.518,-0.432 0.512,-0.402 0.501,-0.377C0.49,-0.352 0.474,-0.331 0.454,-0.314C0.434,-0.297 0.41,-0.284 0.383,-0.275C0.355,-0.266 0.325,-0.262 0.292,-0.262L0.171,-0.262L0.171,-0L0.076,-0L0.076,-0.667ZM0.291,-0.344C0.332,-0.344 0.364,-0.355 0.387,-0.376C0.409,-0.397 0.42,-0.426 0.42,-0.463C0.42,-0.501 0.408,-0.531 0.386,-0.553C0.363,-0.574 0.331,-0.585 0.291,-0.585L0.171,-0.585L0.171,-0.344L0.291,-0.344Z" style="fill-rule:nonzero;"/>
            </g>
            <g transform="matrix(18,0,0,18,58.0546,28.8369)">
                <path d="M0.061,-0.667L0.15,-0.667L0.15,-0.396C0.156,-0.404 0.163,-0.413 0.172,-0.422C0.181,-0.431 0.191,-0.44 0.204,-0.448C0.217,-0.456 0.231,-0.463 0.248,-0.468C0.265,-0.473 0.284,-0.476 0.305,-0.476C0.366,-0.476 0.411,-0.458 0.44,-0.423C0.469,-0.388 0.484,-0.34 0.484,-0.279L0.484,-0L0.394,-0L0.394,-0.272C0.394,-0.315 0.385,-0.347 0.366,-0.368C0.347,-0.388 0.321,-0.398 0.287,-0.398C0.261,-0.398 0.239,-0.393 0.222,-0.382C0.205,-0.371 0.191,-0.358 0.181,-0.341C0.17,-0.324 0.163,-0.304 0.158,-0.282C0.153,-0.261 0.151,-0.239 0.151,-0.216L0.151,-0L0.061,-0L0.061,-0.667Z" style="fill-rule:nonzero;"/>
            </g>
            <g transform="matrix(18,0,0,18,67.4776,28.8369)">
                <path d="M0.352,-0.22C0.349,-0.221 0.344,-0.222 0.337,-0.223C0.329,-0.224 0.32,-0.224 0.31,-0.225C0.3,-0.226 0.289,-0.226 0.278,-0.227C0.267,-0.228 0.256,-0.228 0.245,-0.228C0.22,-0.228 0.199,-0.225 0.184,-0.219C0.168,-0.213 0.156,-0.205 0.147,-0.197C0.138,-0.188 0.131,-0.178 0.128,-0.167C0.125,-0.156 0.123,-0.145 0.123,-0.135C0.123,-0.11 0.132,-0.091 0.149,-0.078C0.166,-0.065 0.19,-0.058 0.221,-0.058C0.238,-0.058 0.255,-0.061 0.271,-0.067C0.286,-0.073 0.3,-0.081 0.312,-0.091C0.324,-0.101 0.334,-0.113 0.341,-0.126C0.348,-0.139 0.352,-0.153 0.352,-0.167L0.352,-0.22ZM0.353,-0.056C0.336,-0.033 0.313,-0.015 0.284,-0.004C0.256,0.007 0.227,0.013 0.197,0.013C0.178,0.013 0.159,0.01 0.14,0.005C0.121,0 0.103,-0.008 0.087,-0.02C0.072,-0.031 0.059,-0.046 0.05,-0.065C0.04,-0.083 0.035,-0.105 0.035,-0.132C0.035,-0.182 0.053,-0.222 0.087,-0.252C0.123,-0.282 0.173,-0.297 0.239,-0.297C0.25,-0.297 0.261,-0.297 0.273,-0.296C0.285,-0.295 0.296,-0.295 0.307,-0.294C0.318,-0.293 0.327,-0.293 0.335,-0.292C0.343,-0.291 0.349,-0.291 0.352,-0.29L0.352,-0.307C0.352,-0.342 0.342,-0.367 0.321,-0.382C0.3,-0.397 0.271,-0.404 0.235,-0.404C0.2,-0.404 0.172,-0.399 0.151,-0.39C0.13,-0.38 0.113,-0.37 0.099,-0.36L0.057,-0.421C0.065,-0.428 0.075,-0.434 0.086,-0.441C0.097,-0.448 0.111,-0.454 0.126,-0.46C0.141,-0.465 0.159,-0.47 0.178,-0.473C0.197,-0.477 0.22,-0.479 0.245,-0.479C0.305,-0.479 0.352,-0.465 0.387,-0.436C0.421,-0.406 0.438,-0.365 0.438,-0.312L0.438,-0.042C0.438,-0.025 0.438,-0.011 0.439,-0L0.355,-0L0.353,-0.056Z" style="fill-rule:nonzero;"/>
            </g>
            <g transform="matrix(18,0,0,18,76.1086,28.8369)">
                <path d="M0.092,-0.117C0.109,-0.1 0.129,-0.087 0.152,-0.077C0.175,-0.067 0.202,-0.062 0.233,-0.062C0.263,-0.062 0.288,-0.067 0.308,-0.077C0.328,-0.086 0.338,-0.101 0.338,-0.122C0.338,-0.133 0.336,-0.142 0.332,-0.15C0.327,-0.157 0.32,-0.164 0.31,-0.17C0.299,-0.176 0.285,-0.182 0.269,-0.187C0.252,-0.192 0.23,-0.197 0.205,-0.203C0.187,-0.207 0.169,-0.212 0.152,-0.219C0.134,-0.226 0.118,-0.234 0.104,-0.246C0.09,-0.257 0.079,-0.27 0.07,-0.285C0.061,-0.301 0.057,-0.32 0.057,-0.342C0.057,-0.365 0.062,-0.385 0.073,-0.402C0.083,-0.419 0.097,-0.433 0.114,-0.445C0.131,-0.456 0.151,-0.465 0.172,-0.471C0.194,-0.477 0.217,-0.48 0.24,-0.48C0.279,-0.48 0.313,-0.475 0.342,-0.465C0.37,-0.454 0.395,-0.44 0.416,-0.421L0.367,-0.359C0.353,-0.372 0.336,-0.382 0.315,-0.391C0.294,-0.4 0.269,-0.404 0.241,-0.404C0.212,-0.404 0.189,-0.399 0.172,-0.39C0.155,-0.381 0.146,-0.365 0.146,-0.344C0.146,-0.324 0.158,-0.309 0.181,-0.3C0.203,-0.29 0.234,-0.281 0.271,-0.272C0.293,-0.267 0.314,-0.261 0.333,-0.254C0.352,-0.247 0.368,-0.237 0.383,-0.227C0.397,-0.216 0.408,-0.202 0.417,-0.186C0.425,-0.17 0.429,-0.151 0.429,-0.128C0.429,-0.105 0.424,-0.084 0.413,-0.067C0.402,-0.049 0.388,-0.034 0.37,-0.022C0.352,-0.01 0.331,-0.001 0.308,0.005C0.285,0.011 0.26,0.014 0.235,0.014C0.147,0.014 0.081,-0.01 0.037,-0.057L0.092,-0.117Z" style="fill-rule:nonzero;"/>
            </g>
            <g transform="matrix(18,0,0,18,84.2536,28.8369)">
                <path d="M0.286,0.014C0.25,0.014 0.217,0.007 0.187,-0.006C0.157,-0.019 0.131,-0.036 0.11,-0.059C0.088,-0.082 0.071,-0.108 0.059,-0.138C0.046,-0.167 0.04,-0.199 0.04,-0.233C0.04,-0.267 0.046,-0.299 0.059,-0.329C0.071,-0.358 0.088,-0.384 0.11,-0.407C0.131,-0.43 0.157,-0.448 0.187,-0.461C0.217,-0.473 0.25,-0.48 0.286,-0.48C0.321,-0.48 0.354,-0.473 0.384,-0.461C0.414,-0.448 0.44,-0.43 0.462,-0.407C0.484,-0.384 0.501,-0.358 0.514,-0.329C0.526,-0.299 0.532,-0.267 0.532,-0.233C0.532,-0.199 0.526,-0.167 0.514,-0.138C0.501,-0.108 0.484,-0.082 0.462,-0.059C0.44,-0.036 0.414,-0.019 0.384,-0.006C0.354,0.007 0.321,0.014 0.286,0.014ZM0.286,-0.064C0.31,-0.064 0.332,-0.069 0.351,-0.079C0.37,-0.088 0.387,-0.101 0.4,-0.117C0.413,-0.132 0.424,-0.15 0.431,-0.171C0.438,-0.191 0.441,-0.212 0.441,-0.233C0.441,-0.254 0.438,-0.274 0.431,-0.295C0.424,-0.315 0.413,-0.333 0.4,-0.349C0.386,-0.365 0.37,-0.378 0.35,-0.388C0.332,-0.397 0.31,-0.402 0.286,-0.402C0.262,-0.402 0.24,-0.397 0.221,-0.388C0.202,-0.378 0.185,-0.365 0.172,-0.349C0.159,-0.334 0.149,-0.316 0.141,-0.296C0.135,-0.275 0.131,-0.254 0.131,-0.233C0.131,-0.212 0.135,-0.191 0.141,-0.171C0.149,-0.151 0.159,-0.133 0.172,-0.117C0.186,-0.101 0.203,-0.088 0.222,-0.079C0.241,-0.069 0.262,-0.064 0.286,-0.064Z" style="fill-rule:nonzero;"/>
            </g>
            <g transform="matrix(18,0,0,18,94.1986,28.8369)">
                <path d="M0.062,-0L0.062,-0.421C0.062,-0.435 0.062,-0.45 0.061,-0.465L0.147,-0.465L0.15,-0.39C0.155,-0.398 0.162,-0.407 0.171,-0.417C0.18,-0.426 0.19,-0.435 0.203,-0.443C0.215,-0.451 0.229,-0.458 0.246,-0.464C0.262,-0.469 0.281,-0.472 0.302,-0.472C0.312,-0.472 0.321,-0.471 0.33,-0.47C0.338,-0.469 0.346,-0.467 0.353,-0.464L0.333,-0.38C0.321,-0.385 0.306,-0.387 0.287,-0.387C0.268,-0.387 0.25,-0.383 0.234,-0.376C0.217,-0.369 0.203,-0.359 0.191,-0.345C0.179,-0.333 0.17,-0.317 0.163,-0.3C0.156,-0.283 0.152,-0.264 0.152,-0.245L0.152,-0L0.062,-0Z" style="fill-rule:nonzero;"/>
            </g>
            <g transform="matrix(18,0,0,18,36.5581,46.8369)">
                <path d="M0.263,-0.583L0.024,-0.583L0.024,-0.667L0.597,-0.667L0.597,-0.583L0.359,-0.583L0.359,-0L0.263,-0L0.263,-0.583Z" style="fill-rule:nonzero;"/>
            </g>
            <g transform="matrix(18,0,0,18,47.0251,46.8369)">
                <path d="M0.06,-0.649L0.161,-0.649L0.161,-0.548L0.06,-0.548L0.06,-0.649ZM0.066,-0.465L0.156,-0.465L0.156,-0L0.066,-0L0.066,-0.465Z" style="fill-rule:nonzero;"/>
            </g>
            <g transform="matrix(18,0,0,18,50.6701,46.8369)">
                <path d="M0.062,-0L0.062,-0.418C0.062,-0.433 0.062,-0.448 0.061,-0.465L0.147,-0.465L0.15,-0.395C0.155,-0.403 0.162,-0.412 0.171,-0.422C0.18,-0.431 0.19,-0.44 0.202,-0.448C0.214,-0.456 0.228,-0.463 0.245,-0.468C0.261,-0.473 0.28,-0.476 0.301,-0.476C0.337,-0.476 0.367,-0.469 0.391,-0.455C0.414,-0.44 0.433,-0.419 0.446,-0.392C0.465,-0.414 0.488,-0.434 0.515,-0.451C0.542,-0.468 0.575,-0.476 0.615,-0.476C0.675,-0.476 0.719,-0.458 0.748,-0.423C0.777,-0.387 0.791,-0.339 0.791,-0.279L0.791,-0L0.701,-0L0.701,-0.272C0.701,-0.315 0.693,-0.347 0.676,-0.368C0.659,-0.388 0.634,-0.398 0.601,-0.398C0.582,-0.398 0.565,-0.394 0.55,-0.387C0.534,-0.379 0.52,-0.369 0.508,-0.356C0.497,-0.343 0.488,-0.329 0.482,-0.312C0.475,-0.295 0.472,-0.277 0.472,-0.258L0.472,-0L0.382,-0L0.382,-0.272C0.382,-0.315 0.374,-0.347 0.357,-0.368C0.34,-0.388 0.315,-0.398 0.283,-0.398C0.258,-0.398 0.238,-0.393 0.221,-0.382C0.204,-0.371 0.191,-0.358 0.181,-0.341C0.17,-0.324 0.163,-0.304 0.159,-0.282C0.154,-0.26 0.152,-0.238 0.152,-0.216L0.152,-0L0.062,-0Z" style="fill-rule:nonzero;"/>
            </g>
            <g transform="matrix(18,0,0,18,65.6191,46.8369)">
                <path d="M0.486,-0.068C0.481,-0.062 0.473,-0.054 0.462,-0.045C0.451,-0.036 0.438,-0.027 0.421,-0.018C0.404,-0.009 0.384,-0.002 0.361,0.004C0.338,0.011 0.311,0.014 0.282,0.014C0.246,0.014 0.213,0.008 0.183,-0.004C0.153,-0.016 0.127,-0.033 0.106,-0.055C0.085,-0.077 0.068,-0.103 0.057,-0.134C0.045,-0.165 0.039,-0.199 0.039,-0.236C0.039,-0.27 0.045,-0.302 0.056,-0.332C0.067,-0.361 0.083,-0.387 0.104,-0.408C0.125,-0.43 0.149,-0.447 0.178,-0.46C0.206,-0.473 0.237,-0.479 0.271,-0.479C0.311,-0.479 0.345,-0.471 0.374,-0.456C0.403,-0.441 0.426,-0.42 0.445,-0.395C0.463,-0.37 0.476,-0.341 0.485,-0.308C0.494,-0.275 0.498,-0.241 0.498,-0.206L0.131,-0.206C0.132,-0.185 0.136,-0.166 0.145,-0.149C0.153,-0.132 0.164,-0.117 0.178,-0.104C0.192,-0.091 0.208,-0.081 0.226,-0.074C0.244,-0.067 0.263,-0.063 0.283,-0.063C0.322,-0.063 0.355,-0.07 0.38,-0.083C0.405,-0.096 0.424,-0.109 0.435,-0.122L0.486,-0.068ZM0.405,-0.273C0.402,-0.309 0.39,-0.34 0.367,-0.365C0.344,-0.39 0.312,-0.403 0.271,-0.403C0.25,-0.403 0.231,-0.399 0.214,-0.392C0.197,-0.385 0.182,-0.375 0.17,-0.363C0.158,-0.351 0.149,-0.337 0.142,-0.322C0.135,-0.306 0.132,-0.29 0.131,-0.273L0.405,-0.273Z" style="fill-rule:nonzero;"/>
            </g>
            <g transform="matrix(18,0,0,18,74.9161,46.8369)">
                <path d="M0.102,-0.39L0.018,-0.39L0.018,-0.465L0.102,-0.465L0.102,-0.617L0.192,-0.617L0.192,-0.465L0.328,-0.465L0.328,-0.39L0.192,-0.39L0.192,-0.161C0.192,-0.124 0.198,-0.098 0.21,-0.084C0.221,-0.07 0.238,-0.063 0.259,-0.063C0.276,-0.063 0.291,-0.066 0.302,-0.071C0.313,-0.076 0.325,-0.084 0.336,-0.095L0.377,-0.04C0.358,-0.021 0.338,-0.008 0.318,0C0.297,0.009 0.273,0.013 0.245,0.013C0.196,0.013 0.16,-0 0.137,-0.027C0.114,-0.054 0.102,-0.095 0.102,-0.152L0.102,-0.39Z" style="fill-rule:nonzero;"/>
            </g>
            <g transform="matrix(18,0,0,18,81.4771,46.8369)">
                <path d="M0.352,-0.22C0.349,-0.221 0.344,-0.222 0.337,-0.223C0.329,-0.224 0.32,-0.224 0.31,-0.225C0.3,-0.226 0.289,-0.226 0.278,-0.227C0.267,-0.228 0.256,-0.228 0.245,-0.228C0.22,-0.228 0.199,-0.225 0.184,-0.219C0.168,-0.213 0.156,-0.205 0.147,-0.197C0.138,-0.188 0.131,-0.178 0.128,-0.167C0.125,-0.156 0.123,-0.145 0.123,-0.135C0.123,-0.11 0.132,-0.091 0.149,-0.078C0.166,-0.065 0.19,-0.058 0.221,-0.058C0.238,-0.058 0.255,-0.061 0.271,-0.067C0.286,-0.073 0.3,-0.081 0.312,-0.091C0.324,-0.101 0.334,-0.113 0.341,-0.126C0.348,-0.139 0.352,-0.153 0.352,-0.167L0.352,-0.22ZM0.353,-0.056C0.336,-0.033 0.313,-0.015 0.284,-0.004C0.256,0.007 0.227,0.013 0.197,0.013C0.178,0.013 0.159,0.01 0.14,0.005C0.121,0 0.103,-0.008 0.087,-0.02C0.072,-0.031 0.059,-0.046 0.05,-0.065C0.04,-0.083 0.035,-0.105 0.035,-0.132C0.035,-0.182 0.053,-0.222 0.087,-0.252C0.123,-0.282 0.173,-0.297 0.239,-0.297C0.25,-0.297 0.261,-0.297 0.273,-0.296C0.285,-0.295 0.296,-0.295 0.307,-0.294C0.318,-0.293 0.327,-0.293 0.335,-0.292C0.343,-0.291 0.349,-0.291 0.352,-0.29L0.352,-0.307C0.352,-0.342 0.342,-0.367 0.321,-0.382C0.3,-0.397 0.271,-0.404 0.235,-0.404C0.2,-0.404 0.172,-0.399 0.151,-0.39C0.13,-0.38 0.113,-0.37 0.099,-0.36L0.057,-0.421C0.065,-0.428 0.075,-0.434 0.086,-0.441C0.097,-0.448 0.111,-0.454 0.126,-0.46C0.141,-0.465 0.159,-0.47 0.178,-0.473C0.197,-0.477 0.22,-0.479 0.245,-0.479C0.305,-0.479 0.352,-0.465 0.387,-0.436C0.421,-0.406 0.438,-0.365 0.438,-0.312L0.438,-0.042C0.438,-0.025 0.438,-0.011 0.439,-0L0.355,-0L0.353,-0.056Z" style="fill-rule:nonzero;"/>
            </g>
            <g transform="matrix(18,0,0,18,90.1081,46.8369)">
                <path d="M0.062,-0.667L0.152,-0.667L0.152,-0.414C0.157,-0.42 0.163,-0.427 0.172,-0.434C0.18,-0.441 0.19,-0.448 0.202,-0.455C0.214,-0.461 0.228,-0.466 0.244,-0.47C0.259,-0.474 0.277,-0.476 0.296,-0.476C0.331,-0.476 0.361,-0.47 0.388,-0.458C0.414,-0.445 0.436,-0.428 0.454,-0.406C0.472,-0.385 0.486,-0.359 0.495,-0.33C0.503,-0.301 0.508,-0.269 0.508,-0.236C0.508,-0.199 0.502,-0.166 0.489,-0.135C0.476,-0.104 0.459,-0.078 0.436,-0.056C0.412,-0.034 0.385,-0.017 0.353,-0.005C0.321,0.008 0.286,0.014 0.247,0.014C0.209,0.014 0.174,0.011 0.141,0.005C0.108,-0.001 0.082,-0.008 0.062,-0.016L0.062,-0.667ZM0.151,-0.077C0.16,-0.074 0.172,-0.071 0.186,-0.069C0.199,-0.066 0.219,-0.064 0.246,-0.064C0.272,-0.064 0.295,-0.068 0.316,-0.077C0.337,-0.085 0.355,-0.097 0.37,-0.112C0.385,-0.127 0.396,-0.145 0.404,-0.166C0.412,-0.187 0.416,-0.209 0.416,-0.234C0.416,-0.255 0.413,-0.276 0.408,-0.296C0.404,-0.315 0.396,-0.333 0.385,-0.347C0.374,-0.363 0.36,-0.375 0.343,-0.384C0.326,-0.393 0.306,-0.397 0.282,-0.397C0.26,-0.397 0.241,-0.393 0.225,-0.386C0.208,-0.378 0.195,-0.368 0.184,-0.356C0.172,-0.343 0.164,-0.329 0.159,-0.313C0.154,-0.296 0.151,-0.279 0.151,-0.262L0.151,-0.077Z" style="fill-rule:nonzero;"/>
            </g>
            <g transform="matrix(18,0,0,18,99.6211,46.8369)">
                <rect x="0.062" y="-0.667" width="0.09" height="0.667" style="fill-rule:nonzero;"/>
            </g>
            <g transform="matrix(18,0,0,18,103.122,46.8369)">
                <path d="M0.486,-0.068C0.481,-0.062 0.473,-0.054 0.462,-0.045C0.451,-0.036 0.438,-0.027 0.421,-0.018C0.404,-0.009 0.384,-0.002 0.361,0.004C0.338,0.011 0.311,0.014 0.282,0.014C0.246,0.014 0.213,0.008 0.183,-0.004C0.153,-0.016 0.127,-0.033 0.106,-0.055C0.085,-0.077 0.068,-0.103 0.057,-0.134C0.045,-0.165 0.039,-0.199 0.039,-0.236C0.039,-0.27 0.045,-0.302 0.056,-0.332C0.067,-0.361 0.083,-0.387 0.104,-0.408C0.125,-0.43 0.149,-0.447 0.178,-0.46C0.206,-0.473 0.237,-0.479 0.271,-0.479C0.311,-0.479 0.345,-0.471 0.374,-0.456C0.403,-0.441 0.426,-0.42 0.445,-0.395C0.463,-0.37 0.476,-0.341 0.485,-0.308C0.494,-0.275 0.498,-0.241 0.498,-0.206L0.131,-0.206C0.132,-0.185 0.136,-0.166 0.145,-0.149C0.153,-0.132 0.164,-0.117 0.178,-0.104C0.192,-0.091 0.208,-0.081 0.226,-0.074C0.244,-0.067 0.263,-0.063 0.283,-0.063C0.322,-0.063 0.355,-0.07 0.38,-0.083C0.405,-0.096 0.424,-0.109 0.435,-0.122L0.486,-0.068ZM0.405,-0.273C0.402,-0.309 0.39,-0.34 0.367,-0.365C0.344,-0.39 0.312,-0.403 0.271,-0.403C0.25,-0.403 0.231,-0.399 0.214,-0.392C0.197,-0.385 0.182,-0.375 0.17,-0.363C0.158,-0.351 0.149,-0.337 0.142,-0.322C0.135,-0.306 0.132,-0.29 0.131,-0.273L0.405,-0.273Z" style="fill-rule:nonzero;"/>
            </g>
        </g>
        <g transform="matrix(1,0,0,1,-17.5283,-41.4433)">
            <g transform="matrix(12,0,0,12,22.0223,137.999)">
                <path d="M0.076,-0.667L0.287,-0.667C0.332,-0.667 0.37,-0.661 0.4,-0.648C0.429,-0.635 0.453,-0.619 0.47,-0.6C0.488,-0.581 0.5,-0.559 0.507,-0.535C0.515,-0.511 0.518,-0.488 0.518,-0.465C0.518,-0.432 0.512,-0.402 0.501,-0.377C0.49,-0.352 0.474,-0.331 0.454,-0.314C0.434,-0.297 0.41,-0.284 0.383,-0.275C0.355,-0.266 0.325,-0.262 0.292,-0.262L0.171,-0.262L0.171,-0L0.076,-0L0.076,-0.667ZM0.291,-0.344C0.332,-0.344 0.364,-0.355 0.387,-0.376C0.409,-0.397 0.42,-0.426 0.42,-0.463C0.42,-0.501 0.408,-0.531 0.386,-0.553C0.363,-0.574 0.331,-0.585 0.291,-0.585L0.171,-0.585L0.171,-0.344L0.291,-0.344Z" style="fill-rule:nonzero;"/>
            </g>
            <g transform="matrix(12,0,0,12,28.5863,137.999)">
                <path d="M0.061,-0.667L0.15,-0.667L0.15,-0.396C0.156,-0.404 0.163,-0.413 0.172,-0.422C0.181,-0.431 0.191,-0.44 0.204,-0.448C0.217,-0.456 0.231,-0.463 0.248,-0.468C0.265,-0.473 0.284,-0.476 0.305,-0.476C0.366,-0.476 0.411,-0.458 0.44,-0.423C0.469,-0.388 0.484,-0.34 0.484,-0.279L0.484,-0L0.394,-0L0.394,-0.272C0.394,-0.315 0.385,-0.347 0.366,-0.368C0.347,-0.388 0.321,-0.398 0.287,-0.398C0.261,-0.398 0.239,-0.393 0.222,-0.382C0.205,-0.371 0.191,-0.358 0.181,-0.341C0.17,-0.324 0.163,-0.304 0.158,-0.282C0.153,-0.261 0.151,-0.239 0.151,-0.216L0.151,-0L0.061,-0L0.061,-0.667Z" style="fill-rule:nonzero;"/>
            </g>
            <g transform="matrix(12,0,0,12,35.1143,137.999)">
                <path d="M0.352,-0.22C0.349,-0.221 0.344,-0.222 0.337,-0.223C0.329,-0.224 0.32,-0.224 0.31,-0.225C0.3,-0.226 0.289,-0.226 0.278,-0.227C0.267,-0.228 0.256,-0.228 0.245,-0.228C0.22,-0.228 0.199,-0.225 0.184,-0.219C0.168,-0.213 0.156,-0.205 0.147,-0.197C0.138,-0.188 0.131,-0.178 0.128,-0.167C0.125,-0.156 0.123,-0.145 0.123,-0.135C0.123,-0.11 0.132,-0.091 0.149,-0.078C0.166,-0.065 0.19,-0.058 0.221,-0.058C0.238,-0.058 0.255,-0.061 0.271,-0.067C0.286,-0.073 0.3,-0.081 0.312,-0.091C0.324,-0.101 0.334,-0.113 0.341,-0.126C0.348,-0.139 0.352,-0.153 0.352,-0.167L0.352,-0.22ZM0.353,-0.056C0.336,-0.033 0.313,-0.015 0.284,-0.004C0.256,0.007 0.227,0.013 0.197,0.013C0.178,0.013 0.159,0.01 0.14,0.005C0.121,0 0.103,-0.008 0.087,-0.02C0.072,-0.031 0.059,-0.046 0.05,-0.065C0.04,-0.083 0.035,-0.105 0.035,-0.132C0.035,-0.182 0.053,-0.222 0.087,-0.252C0.123,-0.282 0.173,-0.297 0.239,-0.297C0.25,-0.297 0.261,-0.297 0.273,-0.296C0.285,-0.295 0.296,-0.295 0.307,-0.294C0.318,-0.293 0.327,-0.293 0.335,-0.292C0.343,-0.291 0.349,-0.291 0.352,-0.29L0.352,-0.307C0.352,-0.342 0.342,-0.367 0.321,-0.382C0.3,-0.397 0.271,-0.404 0.235,-0.404C0.2,-0.404 0.172,-0.399 0.151,-0.39C0.13,-0.38 0.113,-0.37 0.099,-0.36L0.057,-0.421C0.065,-0.428 0.075,-0.434 0.086,-0.441C0.097,-0.448 0.111,-0.454 0.126,-0.46C0.141,-0.465 0.159,-0.47 0.178,-0.473C0.197,-0.477 0.22,-0.479 0.245,-0.479C0.305,-0.479 0.352,-0.465 0.387,-0.436C0.421,-0.406 0.438,-0.365 0.438,-0.312L0.438,-0.042C0.438,-0.025 0.438,-0.011 0.439,-0L0.355,-0L0.353,-0.056Z" style="fill-rule:nonzero;"/>
            </g>
            <g transform="matrix(12,0,0,12,41.1143,137.999)">
                <path d="M0.092,-0.117C0.109,-0.1 0.129,-0.087 0.152,-0.077C0.175,-0.067 0.202,-0.062 0.233,-0.062C0.263,-0.062 0.288,-0.067 0.308,-0.077C0.328,-0.086 0.338,-0.101 0.338,-0.122C0.338,-0.133 0.336,-0.142 0.332,-0.15C0.327,-0.157 0.32,-0.164 0.31,-0.17C0.299,-0.176 0.285,-0.182 0.269,-0.187C0.252,-0.192 0.23,-0.197 0.205,-0.203C0.187,-0.207 0.169,-0.212 0.152,-0.219C0.134,-0.226 0.118,-0.234 0.104,-0.246C0.09,-0.257 0.079,-0.27 0.07,-0.285C0.061,-0.301 0.057,-0.32 0.057,-0.342C0.057,-0.365 0.062,-0.385 0.073,-0.402C0.083,-0.419 0.097,-0.433 0.114,-0.445C0.131,-0.456 0.151,-0.465 0.172,-0.471C0.194,-0.477 0.217,-0.48 0.24,-0.48C0.279,-0.48 0.313,-0.475 0.342,-0.465C0.37,-0.454 0.395,-0.44 0.416,-0.421L0.367,-0.359C0.353,-0.372 0.336,-0.382 0.315,-0.391C0.294,-0.4 0.269,-0.404 0.241,-0.404C0.212,-0.404 0.189,-0.399 0.172,-0.39C0.155,-0.381 0.146,-0.365 0.146,-0.344C0.146,-0.324 0.158,-0.309 0.181,-0.3C0.203,-0.29 0.234,-0.281 0.271,-0.272C0.293,-0.267 0.314,-0.261 0.333,-0.254C0.352,-0.247 0.368,-0.237 0.383,-0.227C0.397,-0.216 0.408,-0.202 0.417,-0.186C0.425,-0.17 0.429,-0.151 0.429,-0.128C0.429,-0.105 0.424,-0.084 0.413,-0.067C0.402,-0.049 0.388,-0.034 0.37,-0.022C0.352,-0.01 0.331,-0.001 0.308,0.005C0.285,0.011 0.26,0.014 0.235,0.014C0.147,0.014 0.081,-0.01 0.037,-0.057L0.092,-0.117Z" style="fill-rule:nonzero;"/>
            </g>
            <g transform="matrix(12,0,0,12,46.7903,137.999)">
                <path d="M0.286,0.014C0.25,0.014 0.217,0.007 0.187,-0.006C0.157,-0.019 0.131,-0.036 0.11,-0.059C0.088,-0.082 0.071,-0.108 0.059,-0.138C0.046,-0.167 0.04,-0.199 0.04,-0.233C0.04,-0.267 0.046,-0.299 0.059,-0.329C0.071,-0.358 0.088,-0.384 0.11,-0.407C0.131,-0.43 0.157,-0.448 0.187,-0.461C0.217,-0.473 0.25,-0.48 0.286,-0.48C0.321,-0.48 0.354,-0.473 0.384,-0.461C0.414,-0.448 0.44,-0.43 0.462,-0.407C0.484,-0.384 0.501,-0.358 0.514,-0.329C0.526,-0.299 0.532,-0.267 0.532,-0.233C0.532,-0.199 0.526,-0.167 0.514,-0.138C0.501,-0.108 0.484,-0.082 0.462,-0.059C0.44,-0.036 0.414,-0.019 0.384,-0.006C0.354,0.007 0.321,0.014 0.286,0.014ZM0.286,-0.064C0.31,-0.064 0.332,-0.069 0.351,-0.079C0.37,-0.088 0.387,-0.101 0.4,-0.117C0.413,-0.132 0.424,-0.15 0.431,-0.171C0.438,-0.191 0.441,-0.212 0.441,-0.233C0.441,-0.254 0.438,-0.274 0.431,-0.295C0.424,-0.315 0.413,-0.333 0.4,-0.349C0.386,-0.365 0.37,-0.378 0.35,-0.388C0.332,-0.397 0.31,-0.402 0.286,-0.402C0.262,-0.402 0.24,-0.397 0.221,-0.388C0.202,-0.378 0.185,-0.365 0.172,-0.349C0.159,-0.334 0.149,-0.316 0.141,-0.296C0.135,-0.275 0.131,-0.254 0.131,-0.233C0.131,-0.212 0.135,-0.191 0.141,-0.171C0.149,-0.151 0.159,-0.133 0.172,-0.117C0.186,-0.101 0.203,-0.088 0.222,-0.079C0.241,-0.069 0.262,-0.064 0.286,-0.064Z" style="fill-rule:nonzero;"/>
            </g>
            <g transform="matrix(12,0,0,12,53.6663,137.999)">
                <path d="M0.062,-0L0.062,-0.421C0.062,-0.435 0.062,-0.45 0.061,-0.465L0.147,-0.465L0.15,-0.39C0.155,-0.398 0.162,-0.407 0.171,-0.417C0.18,-0.426 0.19,-0.435 0.203,-0.443C0.215,-0.451 0.229,-0.458 0.246,-0.464C0.262,-0.469 0.281,-0.472 0.302,-0.472C0.312,-0.472 0.321,-0.471 0.33,-0.47C0.338,-0.469 0.346,-0.467 0.353,-0.464L0.333,-0.38C0.321,-0.385 0.306,-0.387 0.287,-0.387C0.268,-0.387 0.25,-0.383 0.234,-0.376C0.217,-0.369 0.203,-0.359 0.191,-0.345C0.179,-0.333 0.17,-0.317 0.163,-0.3C0.156,-0.283 0.152,-0.264 0.152,-0.245L0.152,-0L0.062,-0Z" style="fill-rule:nonzero;"/>
            </g>
            <g transform="matrix(12,0,0,12,35.2703,149.999)">
                <rect x="0.076" y="-0.667" width="0.096" height="0.667" style="fill-rule:nonzero;"/>
            </g>
            <g transform="matrix(12,0,0,12,38.2583,149.999)">
                <path d="M0.062,-0L0.062,-0.418C0.062,-0.433 0.062,-0.448 0.061,-0.465L0.147,-0.465L0.15,-0.395C0.156,-0.403 0.163,-0.412 0.172,-0.422C0.181,-0.431 0.191,-0.44 0.204,-0.448C0.217,-0.456 0.232,-0.463 0.249,-0.468C0.266,-0.473 0.285,-0.476 0.306,-0.476C0.367,-0.476 0.412,-0.458 0.441,-0.423C0.47,-0.388 0.485,-0.34 0.485,-0.279L0.485,-0L0.395,-0L0.395,-0.272C0.395,-0.315 0.386,-0.347 0.367,-0.368C0.348,-0.388 0.322,-0.398 0.288,-0.398C0.262,-0.398 0.24,-0.393 0.223,-0.382C0.206,-0.371 0.192,-0.358 0.182,-0.341C0.171,-0.324 0.164,-0.304 0.159,-0.282C0.154,-0.261 0.152,-0.239 0.152,-0.216L0.152,-0L0.062,-0Z" style="fill-rule:nonzero;"/>
            </g>
        </g>
        <path d="M53.28,88.552L55.836,88.552C56.348,88.552 56.78,88.622 57.132,88.762C57.484,88.902 57.77,89.082 57.99,89.302C58.21,89.522 58.37,89.772 58.47,90.052C58.57,90.332 58.62,90.616 58.62,90.904C58.62,91.416 58.5,91.868 58.26,92.26C58.02,92.652 57.648,92.944 57.144,93.136L59.016,96.556L57.72,96.556L56.004,93.28L54.396,93.28L54.396,96.556L53.28,96.556L53.28,88.552ZM55.932,92.308C56.436,92.308 56.814,92.184 57.066,91.936C57.318,91.688 57.444,91.356 57.444,90.94C57.444,90.5 57.308,90.158 57.036,89.914C56.764,89.67 56.388,89.548 55.908,89.548L54.396,89.548L54.396,92.308L55.932,92.308Z" style="fill-rule:nonzero;"/>
        <path d="M65.292,95.74C65.228,95.812 65.132,95.904 65.004,96.016C64.876,96.128 64.71,96.236 64.506,96.34C64.302,96.444 64.062,96.534 63.786,96.61C63.51,96.686 63.196,96.724 62.844,96.724C62.412,96.724 62.016,96.652 61.656,96.508C61.296,96.364 60.988,96.16 60.732,95.896C60.476,95.632 60.278,95.316 60.138,94.948C59.998,94.58 59.928,94.172 59.928,93.724C59.928,93.316 59.996,92.934 60.132,92.578C60.268,92.222 60.46,91.914 60.708,91.654C60.956,91.394 61.25,91.188 61.59,91.036C61.93,90.884 62.304,90.808 62.712,90.808C63.192,90.808 63.604,90.9 63.948,91.084C64.292,91.268 64.574,91.512 64.794,91.816C65.014,92.12 65.176,92.468 65.28,92.86C65.384,93.252 65.436,93.66 65.436,94.084L61.032,94.084C61.04,94.332 61.094,94.56 61.194,94.768C61.294,94.976 61.428,95.156 61.596,95.308C61.764,95.46 61.956,95.58 62.172,95.668C62.388,95.756 62.616,95.8 62.856,95.8C63.328,95.8 63.716,95.72 64.02,95.56C64.324,95.4 64.544,95.244 64.68,95.092L65.292,95.74ZM64.32,93.28C64.288,92.848 64.136,92.48 63.864,92.176C63.592,91.872 63.208,91.72 62.712,91.72C62.456,91.72 62.226,91.764 62.022,91.852C61.818,91.94 61.644,92.056 61.5,92.2C61.356,92.344 61.244,92.51 61.164,92.698C61.084,92.886 61.04,93.08 61.032,93.28L64.32,93.28Z" style="fill-rule:nonzero;"/>
        <path d="M67.008,95.152C67.208,95.352 67.448,95.512 67.728,95.632C68.008,95.752 68.332,95.812 68.7,95.812C69.06,95.812 69.36,95.754 69.6,95.638C69.84,95.522 69.96,95.34 69.96,95.092C69.96,94.964 69.934,94.854 69.882,94.762C69.83,94.67 69.742,94.588 69.618,94.516C69.494,94.444 69.33,94.378 69.126,94.318C68.922,94.258 68.668,94.192 68.364,94.12C68.148,94.072 67.934,94.008 67.722,93.928C67.51,93.848 67.32,93.742 67.152,93.61C66.984,93.478 66.848,93.318 66.744,93.13C66.64,92.942 66.588,92.716 66.588,92.452C66.588,92.18 66.65,91.942 66.774,91.738C66.898,91.534 67.064,91.362 67.272,91.222C67.48,91.082 67.714,90.976 67.974,90.904C68.234,90.832 68.504,90.796 68.784,90.796C69.256,90.796 69.662,90.858 70.002,90.982C70.342,91.106 70.64,91.28 70.896,91.504L70.308,92.248C70.14,92.096 69.93,91.968 69.678,91.864C69.426,91.76 69.132,91.708 68.796,91.708C68.452,91.708 68.176,91.764 67.968,91.876C67.76,91.988 67.656,92.172 67.656,92.428C67.656,92.668 67.794,92.846 68.07,92.962C68.346,93.078 68.708,93.188 69.156,93.292C69.42,93.356 69.666,93.43 69.894,93.514C70.122,93.598 70.322,93.706 70.494,93.838C70.666,93.97 70.802,94.132 70.902,94.324C71.002,94.516 71.052,94.748 71.052,95.02C71.052,95.3 70.988,95.546 70.86,95.758C70.732,95.97 70.56,96.148 70.344,96.292C70.128,96.436 69.88,96.544 69.6,96.616C69.32,96.688 69.028,96.724 68.724,96.724C67.668,96.724 66.876,96.44 66.348,95.872L67.008,95.152Z" style="fill-rule:nonzero;"/>
        <path d="M77.412,95.74C77.348,95.812 77.252,95.904 77.124,96.016C76.996,96.128 76.83,96.236 76.626,96.34C76.422,96.444 76.182,96.534 75.906,96.61C75.63,96.686 75.316,96.724 74.964,96.724C74.532,96.724 74.136,96.652 73.776,96.508C73.416,96.364 73.108,96.16 72.852,95.896C72.596,95.632 72.398,95.316 72.258,94.948C72.118,94.58 72.048,94.172 72.048,93.724C72.048,93.316 72.116,92.934 72.252,92.578C72.388,92.222 72.58,91.914 72.828,91.654C73.076,91.394 73.37,91.188 73.71,91.036C74.05,90.884 74.424,90.808 74.832,90.808C75.312,90.808 75.724,90.9 76.068,91.084C76.412,91.268 76.694,91.512 76.914,91.816C77.134,92.12 77.296,92.468 77.4,92.86C77.504,93.252 77.556,93.66 77.556,94.084L73.152,94.084C73.16,94.332 73.214,94.56 73.314,94.768C73.414,94.976 73.548,95.156 73.716,95.308C73.884,95.46 74.076,95.58 74.292,95.668C74.508,95.756 74.736,95.8 74.976,95.8C75.448,95.8 75.836,95.72 76.14,95.56C76.444,95.4 76.664,95.244 76.8,95.092L77.412,95.74ZM76.44,93.28C76.408,92.848 76.256,92.48 75.984,92.176C75.712,91.872 75.328,91.72 74.832,91.72C74.576,91.72 74.346,91.764 74.142,91.852C73.938,91.94 73.764,92.056 73.62,92.2C73.476,92.344 73.364,92.51 73.284,92.698C73.204,92.886 73.16,93.08 73.152,93.28L76.44,93.28Z" style="fill-rule:nonzero;"/>
        <path d="M79.248,91.876L78.24,91.876L78.24,90.976L79.248,90.976L79.248,89.152L80.328,89.152L80.328,90.976L81.96,90.976L81.96,91.876L80.328,91.876L80.328,94.624C80.328,95.072 80.398,95.38 80.538,95.548C80.678,95.716 80.876,95.8 81.132,95.8C81.34,95.8 81.512,95.768 81.648,95.704C81.784,95.64 81.92,95.544 82.056,95.416L82.548,96.076C82.316,96.3 82.078,96.462 81.834,96.562C81.59,96.662 81.3,96.712 80.964,96.712C80.372,96.712 79.938,96.552 79.662,96.232C79.386,95.912 79.248,95.412 79.248,94.732L79.248,91.876Z" style="fill-rule:nonzero;"/>
    </g>
</svg>
