<?xml version="1.0" encoding="UTF-8" standalone="no"?>
<!DOCTYPE svg PUBLIC "-//W3C//DTD SVG 1.1//EN" "http://www.w3.org/Graphics/SVG/1.1/DTD/svg11.dtd">
<svg width="100%" height="100%" viewBox="0 0 90 380" version="1.1" xmlns="http://www.w3.org/2000/svg" xmlns:xlink="http://www.w3.org/1999/xlink" xml:space="preserve" xmlns:serif="http://www.serif.com/" style="fill-rule:evenodd;clip-rule:evenodd;stroke-linejoin:round;stroke-miterlimit:2;">
    <g id="svg8">
        <rect x="0" y="0" width="90" height="380" style="fill:rgb(240,240,240);"/>
        <path d="M25.784,361.578L24.178,361.578L24.178,356.247L18.102,356.247L18.102,361.578L16.496,361.578L16.496,350.154L18.102,350.154L18.102,354.873L24.178,354.873L24.178,350.154L25.784,350.154L25.784,361.578Z" style="fill:rgb(35,31,32);fill-rule:nonzero;"/>
        <path d="M33.992,361.578L27.171,361.578L27.171,350.154L33.86,350.154L33.86,351.496L28.777,351.496L28.777,354.906L33.578,354.906L33.578,356.247L28.777,356.247L28.777,360.221L33.992,360.221L33.992,361.578Z" style="fill:rgb(35,31,32);fill-rule:nonzero;"/>
        <path d="M42.865,351.496L39.653,351.496L39.653,361.578L38.047,361.578L38.047,351.496L34.819,351.496L34.819,350.154L42.865,350.154L42.865,351.496Z" style="fill:rgb(35,31,32);fill-rule:nonzero;"/>
        <path d="M48.575,351.877C48.062,351.496 47.449,351.463 46.655,351.463L45.479,351.463L45.479,355.337L46.655,355.337C47.449,355.337 48.062,355.304 48.575,354.94C49.089,354.559 49.304,354.095 49.304,353.399C49.304,352.721 49.089,352.241 48.575,351.877M51.622,361.578L49.684,361.578L46.704,356.661L45.479,356.661L45.479,361.578L43.873,361.578L43.873,350.154L47.101,350.154C48.244,350.154 49.171,350.42 49.85,350.949C50.529,351.496 50.959,352.323 50.959,353.366C50.959,355.37 49.568,356.264 48.36,356.496L51.622,361.578Z" style="fill:rgb(35,31,32);fill-rule:nonzero;"/>
        <rect x="52.814" y="350.154" width="1.605" height="11.424" style="fill:rgb(35,31,32);"/>
        <path d="M65.542,360.088C64.83,360.883 63.539,361.777 61.37,361.777C58.042,361.777 55.525,359.442 55.525,355.883C55.525,352.323 58.092,349.989 61.37,349.989C63.506,349.989 64.797,350.883 65.426,351.496L64.747,352.787C64.301,352.225 63.025,351.397 61.437,351.397C58.97,351.397 57.182,353.168 57.182,355.85C57.182,358.532 58.986,360.304 61.437,360.304C62.942,360.304 64.102,359.725 64.847,358.913L65.542,360.088Z" style="fill:rgb(237,50,36);fill-rule:nonzero;"/>
        <path d="M75.452,361.578L73.499,361.578L69.707,355.849L68.532,357.042L68.532,361.578L66.926,361.578L66.926,350.154L68.532,350.154L68.532,355.022L73.184,350.154L75.138,350.154L70.783,354.658L75.452,361.578Z" style="fill:rgb(237,50,36);fill-rule:nonzero;"/>
        <path d="M75.452,361.578L73.499,361.578L69.707,355.849L68.532,357.042L68.532,361.578L66.926,361.578L66.926,357.019L68.532,357.042L69.707,355.849L70.783,354.658L71.4,355.571L71.897,356.308L75.452,361.578Z" style="fill-rule:nonzero;"/>
        <g>
            <path d="M23.225,96.112L24.569,96.112L24.569,90.652L23.009,91.492L22.565,90.64L24.689,89.476L25.661,89.476L25.661,96.112L26.981,96.112L26.981,97.072L23.225,97.072L23.225,96.112Z" style="fill-rule:nonzero;"/>
            <path d="M62.743,96.292C62.743,95.868 62.843,95.496 63.043,95.176C63.243,94.856 63.483,94.556 63.763,94.276C64.107,93.932 64.433,93.636 64.741,93.388C65.049,93.14 65.319,92.912 65.551,92.704C65.783,92.496 65.965,92.29 66.097,92.086C66.229,91.882 66.295,91.648 66.295,91.384C66.295,91.264 66.273,91.14 66.229,91.012C66.185,90.884 66.111,90.766 66.007,90.658C65.903,90.55 65.771,90.46 65.611,90.388C65.451,90.316 65.251,90.28 65.011,90.28C64.795,90.28 64.603,90.31 64.435,90.37C64.267,90.43 64.119,90.504 63.991,90.592C63.863,90.68 63.755,90.78 63.667,90.892C63.579,91.004 63.499,91.108 63.427,91.204L62.623,90.628C62.703,90.484 62.813,90.334 62.953,90.178C63.093,90.022 63.261,89.878 63.457,89.746C63.653,89.614 63.885,89.506 64.153,89.422C64.421,89.338 64.731,89.296 65.083,89.296C65.491,89.296 65.845,89.352 66.145,89.464C66.445,89.576 66.691,89.726 66.883,89.914C67.075,90.102 67.219,90.316 67.315,90.556C67.411,90.796 67.459,91.048 67.459,91.312C67.459,91.592 67.411,91.854 67.315,92.098C67.219,92.342 67.091,92.568 66.931,92.776C66.771,92.984 66.589,93.182 66.385,93.37C66.181,93.558 65.971,93.736 65.755,93.904C65.499,94.104 65.261,94.296 65.041,94.48C64.821,94.664 64.629,94.844 64.465,95.02C64.301,95.196 64.173,95.372 64.081,95.548C63.989,95.724 63.943,95.904 63.943,96.088L67.543,96.088L67.543,97.072L62.743,97.072L62.743,96.292Z" style="fill-rule:nonzero;"/>
            <path d="M23.213,221.662C23.397,221.094 23.617,220.488 23.873,219.844C24.129,219.2 24.391,218.574 24.659,217.966C24.927,217.358 25.187,216.802 25.439,216.298C25.691,215.794 25.905,215.398 26.081,215.11L22.361,215.11L22.361,214.09L27.197,214.09L27.197,215.074C27.077,215.258 26.939,215.506 26.783,215.818C26.627,216.13 26.459,216.476 26.279,216.856C26.099,217.236 25.915,217.642 25.727,218.074C25.539,218.506 25.361,218.934 25.193,219.358C25.025,219.782 24.869,220.194 24.725,220.594C24.581,220.994 24.465,221.35 24.377,221.662L23.213,221.662Z" style="fill-rule:nonzero;"/>
            <path d="M65.203,217.114C65.587,216.994 65.895,216.818 66.127,216.586C66.359,216.354 66.475,216.082 66.475,215.77C66.475,215.474 66.359,215.228 66.127,215.032C65.895,214.836 65.587,214.738 65.203,214.738C64.819,214.738 64.511,214.836 64.279,215.032C64.047,215.228 63.931,215.494 63.931,215.83C63.931,216.102 64.041,216.354 64.261,216.586C64.481,216.818 64.795,216.994 65.203,217.114ZM65.155,218.038C64.939,218.094 64.735,218.172 64.543,218.272C64.351,218.372 64.183,218.488 64.039,218.62C63.895,218.752 63.781,218.9 63.697,219.064C63.613,219.228 63.571,219.406 63.571,219.598C63.571,219.838 63.621,220.044 63.721,220.216C63.821,220.388 63.949,220.528 64.105,220.636C64.261,220.744 64.435,220.822 64.627,220.87C64.819,220.918 65.011,220.942 65.203,220.942C65.395,220.942 65.587,220.918 65.779,220.87C65.971,220.822 66.145,220.744 66.301,220.636C66.457,220.528 66.583,220.388 66.679,220.216C66.775,220.044 66.823,219.838 66.823,219.598C66.823,219.406 66.777,219.228 66.685,219.064C66.593,218.9 66.469,218.752 66.313,218.62C66.157,218.488 65.979,218.372 65.779,218.272C65.579,218.172 65.371,218.094 65.155,218.038ZM64.039,217.534C63.719,217.366 63.447,217.142 63.223,216.862C62.999,216.582 62.887,216.238 62.887,215.83C62.887,215.55 62.941,215.29 63.049,215.05C63.157,214.81 63.311,214.604 63.511,214.432C63.711,214.26 63.953,214.126 64.237,214.03C64.521,213.934 64.843,213.886 65.203,213.886C65.579,213.886 65.911,213.934 66.199,214.03C66.487,214.126 66.727,214.258 66.919,214.426C67.111,214.594 67.257,214.792 67.357,215.02C67.457,215.248 67.507,215.494 67.507,215.758C67.507,216.134 67.403,216.474 67.195,216.778C66.987,217.082 66.691,217.322 66.307,217.498C66.451,217.562 66.617,217.65 66.805,217.762C66.993,217.874 67.171,218.018 67.339,218.194C67.507,218.37 67.649,218.576 67.765,218.812C67.881,219.048 67.939,219.318 67.939,219.622C67.939,219.878 67.889,220.138 67.789,220.402C67.689,220.666 67.529,220.906 67.309,221.122C67.089,221.338 66.805,221.514 66.457,221.65C66.109,221.786 65.691,221.854 65.203,221.854C64.699,221.854 64.273,221.786 63.925,221.65C63.577,221.514 63.295,221.338 63.079,221.122C62.863,220.906 62.705,220.668 62.605,220.408C62.505,220.148 62.455,219.89 62.455,219.634C62.455,219.37 62.499,219.13 62.587,218.914C62.675,218.698 62.793,218.502 62.941,218.326C63.089,218.15 63.259,217.996 63.451,217.864C63.643,217.732 63.839,217.622 64.039,217.534Z" style="fill-rule:nonzero;"/>
            <path d="M22.805,262.004C22.829,262.02 22.881,262.05 22.961,262.094C23.041,262.138 23.143,262.184 23.267,262.232C23.391,262.28 23.531,262.322 23.687,262.358C23.843,262.394 24.009,262.412 24.185,262.412C24.521,262.412 24.813,262.342 25.061,262.202C25.309,262.062 25.515,261.876 25.679,261.644C25.843,261.412 25.967,261.142 26.051,260.834C26.135,260.526 26.185,260.208 26.201,259.88C26.057,260 25.843,260.128 25.559,260.264C25.275,260.4 24.897,260.468 24.425,260.468C24.065,260.468 23.741,260.406 23.453,260.282C23.165,260.158 22.919,259.986 22.715,259.766C22.511,259.546 22.355,259.284 22.247,258.98C22.139,258.676 22.085,258.34 22.085,257.972C22.085,257.596 22.149,257.252 22.277,256.94C22.405,256.628 22.581,256.358 22.805,256.13C23.029,255.902 23.295,255.726 23.603,255.602C23.911,255.478 24.245,255.416 24.605,255.416C25.453,255.416 26.115,255.718 26.591,256.322C27.067,256.926 27.305,257.836 27.305,259.052C27.305,259.716 27.239,260.314 27.107,260.846C26.975,261.378 26.777,261.83 26.513,262.202C26.249,262.574 25.921,262.862 25.529,263.066C25.137,263.27 24.681,263.372 24.161,263.372C23.953,263.372 23.755,263.354 23.567,263.318C23.379,263.282 23.205,263.24 23.045,263.192C22.885,263.144 22.745,263.092 22.625,263.036C22.505,262.98 22.409,262.928 22.337,262.88L22.805,262.004ZM26.213,258.908C26.213,258.124 26.087,257.508 25.835,257.06C25.583,256.612 25.177,256.388 24.617,256.388C24.425,256.388 24.239,256.422 24.059,256.49C23.879,256.558 23.721,256.66 23.585,256.796C23.449,256.932 23.337,257.1 23.249,257.3C23.161,257.5 23.117,257.728 23.117,257.984C23.117,258.192 23.145,258.386 23.201,258.566C23.257,258.746 23.343,258.904 23.459,259.04C23.575,259.176 23.725,259.284 23.909,259.364C24.093,259.444 24.317,259.484 24.581,259.484C24.981,259.484 25.307,259.428 25.559,259.316C25.811,259.204 26.029,259.068 26.213,258.908Z" style="fill-rule:nonzero;"/>
            <path d="M60.349,262.232L61.693,262.232L61.693,256.772L60.133,257.612L59.689,256.76L61.813,255.596L62.785,255.596L62.785,262.232L64.105,262.232L64.105,263.192L60.349,263.192L60.349,262.232Z" style="fill-rule:nonzero;"/>
            <path d="M68.461,263.36C67.989,263.36 67.575,263.264 67.219,263.072C66.863,262.88 66.563,262.608 66.319,262.256C66.075,261.904 65.891,261.48 65.767,260.984C65.643,260.488 65.581,259.936 65.581,259.328C65.581,258.728 65.643,258.188 65.767,257.708C65.891,257.228 66.077,256.818 66.325,256.478C66.573,256.138 66.875,255.876 67.231,255.692C67.587,255.508 68.001,255.416 68.473,255.416C68.937,255.416 69.349,255.508 69.709,255.692C70.069,255.876 70.371,256.138 70.615,256.478C70.859,256.818 71.043,257.228 71.167,257.708C71.291,258.188 71.353,258.728 71.353,259.328C71.353,259.936 71.291,260.488 71.167,260.984C71.043,261.48 70.857,261.904 70.609,262.256C70.361,262.608 70.057,262.88 69.697,263.072C69.337,263.264 68.925,263.36 68.461,263.36ZM68.461,262.364C68.749,262.364 69.003,262.29 69.223,262.142C69.443,261.994 69.627,261.786 69.775,261.518C69.923,261.25 70.035,260.93 70.111,260.558C70.187,260.186 70.225,259.776 70.225,259.328C70.225,258.888 70.187,258.488 70.111,258.128C70.035,257.768 69.921,257.462 69.769,257.21C69.617,256.958 69.433,256.764 69.217,256.628C69.001,256.492 68.749,256.424 68.461,256.424C68.173,256.424 67.921,256.492 67.705,256.628C67.489,256.764 67.307,256.958 67.159,257.21C67.011,257.462 66.899,257.768 66.823,258.128C66.747,258.488 66.709,258.888 66.709,259.328C66.709,259.776 66.747,260.186 66.823,260.558C66.899,260.93 67.011,261.25 67.159,261.518C67.307,261.786 67.489,261.994 67.705,262.142C67.921,262.29 68.173,262.364 68.461,262.364Z" style="fill-rule:nonzero;"/>
            <path d="M22.601,178.716C22.825,178.9 23.071,179.054 23.339,179.178C23.607,179.302 23.941,179.364 24.341,179.364C24.621,179.364 24.865,179.322 25.073,179.238C25.281,179.154 25.455,179.04 25.595,178.896C25.735,178.752 25.839,178.584 25.907,178.392C25.975,178.2 26.009,177.992 26.009,177.768C26.009,177.616 25.985,177.452 25.937,177.276C25.889,177.1 25.805,176.938 25.685,176.79C25.565,176.642 25.401,176.52 25.193,176.424C24.985,176.328 24.721,176.28 24.401,176.28C24.073,176.28 23.813,176.312 23.621,176.376C23.429,176.44 23.253,176.512 23.093,176.592L22.541,176.172L23.261,172.572L26.969,172.572L26.969,173.58L24.017,173.58L23.669,175.56C23.749,175.512 23.877,175.466 24.053,175.422C24.229,175.378 24.441,175.356 24.689,175.356C25.049,175.356 25.379,175.408 25.679,175.512C25.979,175.616 26.237,175.77 26.453,175.974C26.669,176.178 26.837,176.426 26.957,176.718C27.077,177.01 27.137,177.348 27.137,177.732C27.137,178.084 27.081,178.416 26.969,178.728C26.857,179.04 26.685,179.316 26.453,179.556C26.221,179.796 25.925,179.986 25.565,180.126C25.205,180.266 24.777,180.336 24.281,180.336C23.753,180.336 23.303,180.256 22.931,180.096C22.559,179.936 22.245,179.74 21.989,179.508L22.601,178.716Z" style="fill-rule:nonzero;"/>
            <path d="M67.171,173.724C67.147,173.708 67.101,173.68 67.033,173.64C66.965,173.6 66.875,173.558 66.763,173.514C66.651,173.47 66.521,173.43 66.373,173.394C66.225,173.358 66.063,173.34 65.887,173.34C65.551,173.34 65.255,173.412 64.999,173.556C64.743,173.7 64.527,173.892 64.351,174.132C64.175,174.372 64.039,174.646 63.943,174.954C63.847,175.262 63.795,175.58 63.787,175.908C63.963,175.788 64.191,175.658 64.471,175.518C64.751,175.378 65.107,175.308 65.539,175.308C66.267,175.308 66.837,175.524 67.249,175.956C67.661,176.388 67.867,177 67.867,177.792C67.867,178.168 67.805,178.512 67.681,178.824C67.557,179.136 67.385,179.404 67.165,179.628C66.945,179.852 66.683,180.026 66.379,180.15C66.075,180.274 65.743,180.336 65.383,180.336C64.535,180.336 63.873,180.036 63.397,179.436C62.921,178.836 62.683,177.928 62.683,176.712C62.683,176.04 62.753,175.436 62.893,174.9C63.033,174.364 63.241,173.908 63.517,173.532C63.793,173.156 64.131,172.868 64.531,172.668C64.931,172.468 65.395,172.368 65.923,172.368C66.331,172.368 66.685,172.428 66.985,172.548C67.285,172.668 67.511,172.776 67.663,172.872L67.171,173.724ZM63.775,176.856C63.775,177.648 63.899,178.266 64.147,178.71C64.395,179.154 64.803,179.376 65.371,179.376C65.563,179.376 65.747,179.34 65.923,179.268C66.099,179.196 66.255,179.092 66.391,178.956C66.527,178.82 66.635,178.652 66.715,178.452C66.795,178.252 66.835,178.024 66.835,177.768C66.835,177.336 66.725,176.978 66.505,176.694C66.285,176.41 65.927,176.268 65.431,176.268C65.047,176.268 64.721,176.326 64.453,176.442C64.185,176.558 63.959,176.696 63.775,176.856Z" style="fill-rule:nonzero;"/>
            <path d="M22.577,137.186C22.777,137.346 23.013,137.496 23.285,137.636C23.557,137.776 23.901,137.846 24.317,137.846C24.821,137.846 25.221,137.71 25.517,137.438C25.813,137.166 25.961,136.802 25.961,136.346C25.961,135.938 25.835,135.602 25.583,135.338C25.331,135.074 24.961,134.942 24.473,134.942C24.329,134.942 24.197,134.954 24.077,134.978C23.957,135.002 23.841,135.034 23.729,135.074L23.381,134.51L25.505,132.038L22.481,132.038L22.481,131.042L26.825,131.042L26.825,131.906L24.881,134.174C25.217,134.174 25.521,134.226 25.793,134.33C26.065,134.434 26.299,134.582 26.495,134.774C26.691,134.966 26.841,135.196 26.945,135.464C27.049,135.732 27.101,136.03 27.101,136.358C27.101,136.758 27.029,137.11 26.885,137.414C26.741,137.718 26.543,137.972 26.291,138.176C26.039,138.38 25.743,138.536 25.403,138.644C25.063,138.752 24.697,138.806 24.305,138.806C24.017,138.806 23.753,138.782 23.513,138.734C23.273,138.686 23.057,138.622 22.865,138.542C22.673,138.462 22.501,138.372 22.349,138.272C22.197,138.172 22.061,138.07 21.941,137.966L22.577,137.186Z" style="fill-rule:nonzero;"/>
            <path d="M62.515,136.106L65.947,131.03L67.039,131.03L67.039,136.094L67.855,136.094L67.855,137.03L67.039,137.03L67.039,138.602L65.995,138.602L65.995,137.03L62.515,137.03L62.515,136.106ZM65.995,136.094L65.995,132.482L63.583,136.094L65.995,136.094Z" style="fill-rule:nonzero;"/>
        </g>
        <g transform="matrix(1,0,0,1,-29.6641,3.55271e-15)">
            <g transform="matrix(18,0,0,18,48.5776,28.8369)">
                <path d="M0.076,-0.667L0.287,-0.667C0.332,-0.667 0.37,-0.661 0.4,-0.648C0.429,-0.635 0.453,-0.619 0.47,-0.6C0.488,-0.581 0.5,-0.559 0.507,-0.535C0.515,-0.511 0.518,-0.488 0.518,-0.465C0.518,-0.432 0.512,-0.402 0.501,-0.377C0.49,-0.352 0.474,-0.331 0.454,-0.314C0.434,-0.297 0.41,-0.284 0.383,-0.275C0.355,-0.266 0.325,-0.262 0.292,-0.262L0.171,-0.262L0.171,-0L0.076,-0L0.076,-0.667ZM0.291,-0.344C0.332,-0.344 0.364,-0.355 0.387,-0.376C0.409,-0.397 0.42,-0.426 0.42,-0.463C0.42,-0.501 0.408,-0.531 0.386,-0.553C0.363,-0.574 0.331,-0.585 0.291,-0.585L0.171,-0.585L0.171,-0.344L0.291,-0.344Z" style="fill-rule:nonzero;"/>
            </g>
            <g transform="matrix(18,0,0,18,58.0546,28.8369)">
                <path d="M0.061,-0.667L0.15,-0.667L0.15,-0.396C0.156,-0.404 0.163,-0.413 0.172,-0.422C0.181,-0.431 0.191,-0.44 0.204,-0.448C0.217,-0.456 0.231,-0.463 0.248,-0.468C0.265,-0.473 0.284,-0.476 0.305,-0.476C0.366,-0.476 0.411,-0.458 0.44,-0.423C0.469,-0.388 0.484,-0.34 0.484,-0.279L0.484,-0L0.394,-0L0.394,-0.272C0.394,-0.315 0.385,-0.347 0.366,-0.368C0.347,-0.388 0.321,-0.398 0.287,-0.398C0.261,-0.398 0.239,-0.393 0.222,-0.382C0.205,-0.371 0.191,-0.358 0.181,-0.341C0.17,-0.324 0.163,-0.304 0.158,-0.282C0.153,-0.261 0.151,-0.239 0.151,-0.216L0.151,-0L0.061,-0L0.061,-0.667Z" style="fill-rule:nonzero;"/>
            </g>
            <g transform="matrix(18,0,0,18,67.4776,28.8369)">
                <path d="M0.352,-0.22C0.349,-0.221 0.344,-0.222 0.337,-0.223C0.329,-0.224 0.32,-0.224 0.31,-0.225C0.3,-0.226 0.289,-0.226 0.278,-0.227C0.267,-0.228 0.256,-0.228 0.245,-0.228C0.22,-0.228 0.199,-0.225 0.184,-0.219C0.168,-0.213 0.156,-0.205 0.147,-0.197C0.138,-0.188 0.131,-0.178 0.128,-0.167C0.125,-0.156 0.123,-0.145 0.123,-0.135C0.123,-0.11 0.132,-0.091 0.149,-0.078C0.166,-0.065 0.19,-0.058 0.221,-0.058C0.238,-0.058 0.255,-0.061 0.271,-0.067C0.286,-0.073 0.3,-0.081 0.312,-0.091C0.324,-0.101 0.334,-0.113 0.341,-0.126C0.348,-0.139 0.352,-0.153 0.352,-0.167L0.352,-0.22ZM0.353,-0.056C0.336,-0.033 0.313,-0.015 0.284,-0.004C0.256,0.007 0.227,0.013 0.197,0.013C0.178,0.013 0.159,0.01 0.14,0.005C0.121,0 0.103,-0.008 0.087,-0.02C0.072,-0.031 0.059,-0.046 0.05,-0.065C0.04,-0.083 0.035,-0.105 0.035,-0.132C0.035,-0.182 0.053,-0.222 0.087,-0.252C0.123,-0.282 0.173,-0.297 0.239,-0.297C0.25,-0.297 0.261,-0.297 0.273,-0.296C0.285,-0.295 0.296,-0.295 0.307,-0.294C0.318,-0.293 0.327,-0.293 0.335,-0.292C0.343,-0.291 0.349,-0.291 0.352,-0.29L0.352,-0.307C0.352,-0.342 0.342,-0.367 0.321,-0.382C0.3,-0.397 0.271,-0.404 0.235,-0.404C0.2,-0.404 0.172,-0.399 0.151,-0.39C0.13,-0.38 0.113,-0.37 0.099,-0.36L0.057,-0.421C0.065,-0.428 0.075,-0.434 0.086,-0.441C0.097,-0.448 0.111,-0.454 0.126,-0.46C0.141,-0.465 0.159,-0.47 0.178,-0.473C0.197,-0.477 0.22,-0.479 0.245,-0.479C0.305,-0.479 0.352,-0.465 0.387,-0.436C0.421,-0.406 0.438,-0.365 0.438,-0.312L0.438,-0.042C0.438,-0.025 0.438,-0.011 0.439,-0L0.355,-0L0.353,-0.056Z" style="fill-rule:nonzero;"/>
            </g>
            <g transform="matrix(18,0,0,18,76.1086,28.8369)">
                <path d="M0.092,-0.117C0.109,-0.1 0.129,-0.087 0.152,-0.077C0.175,-0.067 0.202,-0.062 0.233,-0.062C0.263,-0.062 0.288,-0.067 0.308,-0.077C0.328,-0.086 0.338,-0.101 0.338,-0.122C0.338,-0.133 0.336,-0.142 0.332,-0.15C0.327,-0.157 0.32,-0.164 0.31,-0.17C0.299,-0.176 0.285,-0.182 0.269,-0.187C0.252,-0.192 0.23,-0.197 0.205,-0.203C0.187,-0.207 0.169,-0.212 0.152,-0.219C0.134,-0.226 0.118,-0.234 0.104,-0.246C0.09,-0.257 0.079,-0.27 0.07,-0.285C0.061,-0.301 0.057,-0.32 0.057,-0.342C0.057,-0.365 0.062,-0.385 0.073,-0.402C0.083,-0.419 0.097,-0.433 0.114,-0.445C0.131,-0.456 0.151,-0.465 0.172,-0.471C0.194,-0.477 0.217,-0.48 0.24,-0.48C0.279,-0.48 0.313,-0.475 0.342,-0.465C0.37,-0.454 0.395,-0.44 0.416,-0.421L0.367,-0.359C0.353,-0.372 0.336,-0.382 0.315,-0.391C0.294,-0.4 0.269,-0.404 0.241,-0.404C0.212,-0.404 0.189,-0.399 0.172,-0.39C0.155,-0.381 0.146,-0.365 0.146,-0.344C0.146,-0.324 0.158,-0.309 0.181,-0.3C0.203,-0.29 0.234,-0.281 0.271,-0.272C0.293,-0.267 0.314,-0.261 0.333,-0.254C0.352,-0.247 0.368,-0.237 0.383,-0.227C0.397,-0.216 0.408,-0.202 0.417,-0.186C0.425,-0.17 0.429,-0.151 0.429,-0.128C0.429,-0.105 0.424,-0.084 0.413,-0.067C0.402,-0.049 0.388,-0.034 0.37,-0.022C0.352,-0.01 0.331,-0.001 0.308,0.005C0.285,0.011 0.26,0.014 0.235,0.014C0.147,0.014 0.081,-0.01 0.037,-0.057L0.092,-0.117Z" style="fill-rule:nonzero;"/>
            </g>
            <g transform="matrix(18,0,0,18,84.2536,28.8369)">
                <path d="M0.286,0.014C0.25,0.014 0.217,0.007 0.187,-0.006C0.157,-0.019 0.131,-0.036 0.11,-0.059C0.088,-0.082 0.071,-0.108 0.059,-0.138C0.046,-0.167 0.04,-0.199 0.04,-0.233C0.04,-0.267 0.046,-0.299 0.059,-0.329C0.071,-0.358 0.088,-0.384 0.11,-0.407C0.131,-0.43 0.157,-0.448 0.187,-0.461C0.217,-0.473 0.25,-0.48 0.286,-0.48C0.321,-0.48 0.354,-0.473 0.384,-0.461C0.414,-0.448 0.44,-0.43 0.462,-0.407C0.484,-0.384 0.501,-0.358 0.514,-0.329C0.526,-0.299 0.532,-0.267 0.532,-0.233C0.532,-0.199 0.526,-0.167 0.514,-0.138C0.501,-0.108 0.484,-0.082 0.462,-0.059C0.44,-0.036 0.414,-0.019 0.384,-0.006C0.354,0.007 0.321,0.014 0.286,0.014ZM0.286,-0.064C0.31,-0.064 0.332,-0.069 0.351,-0.079C0.37,-0.088 0.387,-0.101 0.4,-0.117C0.413,-0.132 0.424,-0.15 0.431,-0.171C0.438,-0.191 0.441,-0.212 0.441,-0.233C0.441,-0.254 0.438,-0.274 0.431,-0.295C0.424,-0.315 0.413,-0.333 0.4,-0.349C0.386,-0.365 0.37,-0.378 0.35,-0.388C0.332,-0.397 0.31,-0.402 0.286,-0.402C0.262,-0.402 0.24,-0.397 0.221,-0.388C0.202,-0.378 0.185,-0.365 0.172,-0.349C0.159,-0.334 0.149,-0.316 0.141,-0.296C0.135,-0.275 0.131,-0.254 0.131,-0.233C0.131,-0.212 0.135,-0.191 0.141,-0.171C0.149,-0.151 0.159,-0.133 0.172,-0.117C0.186,-0.101 0.203,-0.088 0.222,-0.079C0.241,-0.069 0.262,-0.064 0.286,-0.064Z" style="fill-rule:nonzero;"/>
            </g>
            <g transform="matrix(18,0,0,18,94.1986,28.8369)">
                <path d="M0.062,-0L0.062,-0.421C0.062,-0.435 0.062,-0.45 0.061,-0.465L0.147,-0.465L0.15,-0.39C0.155,-0.398 0.162,-0.407 0.171,-0.417C0.18,-0.426 0.19,-0.435 0.203,-0.443C0.215,-0.451 0.229,-0.458 0.246,-0.464C0.262,-0.469 0.281,-0.472 0.302,-0.472C0.312,-0.472 0.321,-0.471 0.33,-0.47C0.338,-0.469 0.346,-0.467 0.353,-0.464L0.333,-0.38C0.321,-0.385 0.306,-0.387 0.287,-0.387C0.268,-0.387 0.25,-0.383 0.234,-0.376C0.217,-0.369 0.203,-0.359 0.191,-0.345C0.179,-0.333 0.17,-0.317 0.163,-0.3C0.156,-0.283 0.152,-0.264 0.152,-0.245L0.152,-0L0.062,-0Z" style="fill-rule:nonzero;"/>
            </g>
            <g transform="matrix(18,0,0,18,53.8021,46.8369)">
                <path d="M0.099,-0.667L0.191,-0.667L0.394,-0.32L0.597,-0.667L0.687,-0.667L0.718,-0L0.624,-0L0.602,-0.512L0.414,-0.197L0.366,-0.197L0.181,-0.508L0.158,-0L0.068,-0L0.099,-0.667Z" style="fill-rule:nonzero;"/>
            </g>
            <g transform="matrix(18,0,0,18,67.6171,46.8369)">
                <path d="M0.06,-0.649L0.161,-0.649L0.161,-0.548L0.06,-0.548L0.06,-0.649ZM0.066,-0.465L0.156,-0.465L0.156,-0L0.066,-0L0.066,-0.465Z" style="fill-rule:nonzero;"/>
            </g>
            <g transform="matrix(18,0,0,18,71.2621,46.8369)">
                <path d="M0.188,-0.24L0.021,-0.465L0.133,-0.465L0.245,-0.311L0.355,-0.465L0.455,-0.465L0.293,-0.247L0.478,-0L0.365,-0L0.236,-0.176L0.109,-0L0.008,-0L0.188,-0.24Z" style="fill-rule:nonzero;"/>
            </g>
            <g transform="matrix(18,0,0,18,79.6771,46.8369)">
                <path d="M0.486,-0.068C0.481,-0.062 0.473,-0.054 0.462,-0.045C0.451,-0.036 0.438,-0.027 0.421,-0.018C0.404,-0.009 0.384,-0.002 0.361,0.004C0.338,0.011 0.311,0.014 0.282,0.014C0.246,0.014 0.213,0.008 0.183,-0.004C0.153,-0.016 0.127,-0.033 0.106,-0.055C0.085,-0.077 0.068,-0.103 0.057,-0.134C0.045,-0.165 0.039,-0.199 0.039,-0.236C0.039,-0.27 0.045,-0.302 0.056,-0.332C0.067,-0.361 0.083,-0.387 0.104,-0.408C0.125,-0.43 0.149,-0.447 0.178,-0.46C0.206,-0.473 0.237,-0.479 0.271,-0.479C0.311,-0.479 0.345,-0.471 0.374,-0.456C0.403,-0.441 0.426,-0.42 0.445,-0.395C0.463,-0.37 0.476,-0.341 0.485,-0.308C0.494,-0.275 0.498,-0.241 0.498,-0.206L0.131,-0.206C0.132,-0.185 0.136,-0.166 0.145,-0.149C0.153,-0.132 0.164,-0.117 0.178,-0.104C0.192,-0.091 0.208,-0.081 0.226,-0.074C0.244,-0.067 0.263,-0.063 0.283,-0.063C0.322,-0.063 0.355,-0.07 0.38,-0.083C0.405,-0.096 0.424,-0.109 0.435,-0.122L0.486,-0.068ZM0.405,-0.273C0.402,-0.309 0.39,-0.34 0.367,-0.365C0.344,-0.39 0.312,-0.403 0.271,-0.403C0.25,-0.403 0.231,-0.399 0.214,-0.392C0.197,-0.385 0.182,-0.375 0.17,-0.363C0.158,-0.351 0.149,-0.337 0.142,-0.322C0.135,-0.306 0.132,-0.29 0.131,-0.273L0.405,-0.273Z" style="fill-rule:nonzero;"/>
            </g>
            <g transform="matrix(18,0,0,18,88.9741,46.8369)">
                <path d="M0.062,-0L0.062,-0.421C0.062,-0.435 0.062,-0.45 0.061,-0.465L0.147,-0.465L0.15,-0.39C0.155,-0.398 0.162,-0.407 0.171,-0.417C0.18,-0.426 0.19,-0.435 0.203,-0.443C0.215,-0.451 0.229,-0.458 0.246,-0.464C0.262,-0.469 0.281,-0.472 0.302,-0.472C0.312,-0.472 0.321,-0.471 0.33,-0.47C0.338,-0.469 0.346,-0.467 0.353,-0.464L0.333,-0.38C0.321,-0.385 0.306,-0.387 0.287,-0.387C0.268,-0.387 0.25,-0.383 0.234,-0.376C0.217,-0.369 0.203,-0.359 0.191,-0.345C0.179,-0.333 0.17,-0.317 0.163,-0.3C0.156,-0.283 0.152,-0.264 0.152,-0.245L0.152,-0L0.062,-0Z" style="fill-rule:nonzero;"/>
            </g>
        </g>
        <g>
            <path d="M88.859,298.066C88.859,293.049 84.786,288.976 79.769,288.976L10.231,288.976C5.214,288.976 1.141,293.049 1.141,298.066L1.141,325.219C1.141,330.236 5.214,334.309 10.231,334.309L79.769,334.309C84.786,334.309 88.859,330.236 88.859,325.219L88.859,298.066Z"/>
            <path d="M11.405,323.305L12.677,323.305L14.213,329.761L15.953,323.545L17.069,323.545L18.773,329.749L20.309,323.305L21.509,323.305L19.361,331.309L18.137,331.309L16.469,325.393L14.753,331.309L13.541,331.309L11.405,323.305Z" style="fill:white;fill-rule:nonzero;"/>
            <path d="M22.373,331.309L22.373,326.263C22.373,326.091 22.369,325.913 22.361,325.729L23.393,325.729L23.429,326.629C23.493,326.533 23.577,326.427 23.681,326.311C23.785,326.195 23.911,326.089 24.059,325.993C24.207,325.897 24.379,325.815 24.575,325.747C24.771,325.679 24.997,325.645 25.253,325.645C25.373,325.645 25.483,325.653 25.583,325.669C25.683,325.685 25.777,325.709 25.865,325.741L25.625,326.749C25.481,326.693 25.297,326.665 25.073,326.665C24.841,326.665 24.627,326.709 24.431,326.797C24.235,326.885 24.065,327.007 23.921,327.163C23.777,327.319 23.663,327.501 23.579,327.709C23.495,327.917 23.453,328.137 23.453,328.369L23.453,331.309L22.373,331.309Z" style="fill:white;fill-rule:nonzero;"/>
            <path d="M29.933,328.669C29.901,328.661 29.839,328.651 29.747,328.639C29.655,328.627 29.549,328.617 29.429,328.609C29.309,328.601 29.181,328.593 29.045,328.585C28.909,328.577 28.777,328.573 28.649,328.573C28.345,328.573 28.099,328.609 27.911,328.681C27.723,328.753 27.575,328.843 27.467,328.951C27.359,329.059 27.285,329.179 27.245,329.311C27.205,329.443 27.185,329.569 27.185,329.689C27.185,329.993 27.289,330.223 27.497,330.379C27.705,330.535 27.993,330.613 28.361,330.613C28.569,330.613 28.767,330.577 28.955,330.505C29.143,330.433 29.309,330.337 29.453,330.217C29.597,330.097 29.713,329.957 29.801,329.797C29.889,329.637 29.933,329.473 29.933,329.305L29.933,328.669ZM29.945,330.637C29.737,330.917 29.463,331.125 29.123,331.261C28.783,331.397 28.433,331.465 28.073,331.465C27.841,331.465 27.611,331.435 27.383,331.375C27.155,331.315 26.947,331.215 26.759,331.075C26.571,330.935 26.419,330.755 26.303,330.535C26.187,330.315 26.129,330.045 26.129,329.725C26.129,329.125 26.339,328.645 26.759,328.285C27.179,327.925 27.785,327.745 28.577,327.745C28.705,327.745 28.841,327.749 28.985,327.757C29.129,327.765 29.265,327.773 29.393,327.781C29.521,327.789 29.633,327.797 29.729,327.805C29.825,327.813 29.893,327.821 29.933,327.829L29.933,327.625C29.933,327.209 29.807,326.911 29.555,326.731C29.303,326.551 28.961,326.461 28.529,326.461C28.105,326.461 27.769,326.519 27.521,326.635C27.273,326.751 27.065,326.869 26.897,326.989L26.393,326.257C26.489,326.177 26.605,326.097 26.741,326.017C26.877,325.937 27.037,325.863 27.221,325.795C27.405,325.727 27.613,325.671 27.845,325.627C28.077,325.583 28.345,325.561 28.649,325.561C29.369,325.561 29.935,325.735 30.347,326.083C30.759,326.431 30.965,326.925 30.965,327.565L30.965,330.811C30.965,331.007 30.969,331.173 30.977,331.309L29.969,331.309L29.945,330.637Z" style="fill:white;fill-rule:nonzero;"/>
            <path d="M32.453,333.709L32.453,326.299C32.453,326.119 32.449,325.929 32.441,325.729L33.473,325.729L33.509,326.521C33.565,326.449 33.645,326.361 33.749,326.257C33.853,326.153 33.983,326.053 34.139,325.957C34.295,325.861 34.477,325.779 34.685,325.711C34.893,325.643 35.133,325.609 35.405,325.609C35.837,325.609 36.211,325.689 36.527,325.849C36.843,326.009 37.105,326.225 37.313,326.497C37.521,326.769 37.675,327.081 37.775,327.433C37.875,327.785 37.925,328.157 37.925,328.549C37.925,329.053 37.839,329.489 37.667,329.857C37.495,330.225 37.271,330.529 36.995,330.769C36.719,331.009 36.411,331.187 36.071,331.303C35.731,331.419 35.397,331.477 35.069,331.477C34.693,331.477 34.391,331.439 34.163,331.363C33.935,331.287 33.721,331.205 33.521,331.117L33.521,333.709L32.453,333.709ZM33.521,330.097C33.649,330.201 33.833,330.301 34.073,330.397C34.313,330.493 34.613,330.541 34.973,330.541C35.245,330.541 35.495,330.491 35.723,330.391C35.951,330.291 36.147,330.151 36.311,329.971C36.475,329.791 36.601,329.581 36.689,329.341C36.777,329.101 36.821,328.837 36.821,328.549C36.821,328.277 36.791,328.021 36.731,327.781C36.671,327.541 36.575,327.329 36.443,327.145C36.311,326.961 36.141,326.815 35.933,326.707C35.725,326.599 35.469,326.545 35.165,326.545C34.781,326.545 34.453,326.651 34.181,326.863C33.909,327.075 33.717,327.385 33.605,327.793C33.565,327.921 33.541,328.059 33.533,328.207C33.525,328.355 33.521,328.509 33.521,328.669L33.521,330.097Z" style="fill:white;fill-rule:nonzero;"/>
            <path d="M55.321,323.305L60.349,323.305L60.349,324.337L56.473,324.337L56.473,326.785L59.425,326.785L59.425,327.805L56.473,327.805L56.473,331.309L55.321,331.309L55.321,323.305Z" style="fill:white;fill-rule:nonzero;"/>
            <path d="M63.361,331.477C62.929,331.477 62.533,331.399 62.173,331.243C61.813,331.087 61.503,330.873 61.243,330.601C60.983,330.329 60.779,330.015 60.631,329.659C60.483,329.303 60.409,328.921 60.409,328.513C60.409,328.105 60.483,327.723 60.631,327.367C60.779,327.011 60.983,326.697 61.243,326.425C61.503,326.153 61.813,325.939 62.173,325.783C62.533,325.627 62.929,325.549 63.361,325.549C63.785,325.549 64.177,325.627 64.537,325.783C64.897,325.939 65.209,326.153 65.473,326.425C65.737,326.697 65.943,327.011 66.091,327.367C66.239,327.723 66.313,328.105 66.313,328.513C66.313,328.921 66.239,329.303 66.091,329.659C65.943,330.015 65.737,330.329 65.473,330.601C65.209,330.873 64.897,331.087 64.537,331.243C64.177,331.399 63.785,331.477 63.361,331.477ZM63.361,330.541C63.649,330.541 63.909,330.483 64.141,330.367C64.373,330.251 64.569,330.099 64.729,329.911C64.889,329.723 65.011,329.507 65.095,329.263C65.179,329.019 65.221,328.769 65.221,328.513C65.221,328.265 65.179,328.019 65.095,327.775C65.011,327.531 64.887,327.313 64.723,327.121C64.559,326.929 64.363,326.775 64.135,326.659C63.907,326.543 63.649,326.485 63.361,326.485C63.073,326.485 62.813,326.543 62.581,326.659C62.349,326.775 62.153,326.927 61.993,327.115C61.833,327.303 61.711,327.519 61.627,327.763C61.543,328.007 61.501,328.257 61.501,328.513C61.501,328.769 61.543,329.017 61.627,329.257C61.711,329.497 61.835,329.713 61.999,329.905C62.163,330.097 62.359,330.251 62.587,330.367C62.815,330.483 63.073,330.541 63.361,330.541Z" style="fill:white;fill-rule:nonzero;"/>
            <rect x="67.549" y="323.305" width="1.08" height="8.004" style="fill:white;fill-rule:nonzero;"/>
            <path d="M74.149,326.965C74.069,326.901 73.921,326.815 73.705,326.707C73.489,326.599 73.181,326.545 72.781,326.545C72.517,326.545 72.275,326.593 72.055,326.689C71.835,326.785 71.643,326.921 71.479,327.097C71.315,327.273 71.187,327.489 71.095,327.745C71.003,328.001 70.957,328.289 70.957,328.609C70.957,328.873 70.989,329.123 71.053,329.359C71.117,329.595 71.215,329.801 71.347,329.977C71.479,330.153 71.647,330.291 71.851,330.391C72.055,330.491 72.297,330.541 72.577,330.541C72.857,330.541 73.097,330.489 73.297,330.385C73.497,330.281 73.659,330.151 73.783,329.995C73.907,329.839 73.999,329.667 74.059,329.479C74.119,329.291 74.149,329.117 74.149,328.957L74.149,326.965ZM74.149,330.601C74.109,330.649 74.043,330.723 73.951,330.823C73.859,330.923 73.737,331.021 73.585,331.117C73.433,331.213 73.255,331.297 73.051,331.369C72.847,331.441 72.609,331.477 72.337,331.477C71.985,331.477 71.657,331.409 71.353,331.273C71.049,331.137 70.785,330.945 70.561,330.697C70.337,330.449 70.163,330.147 70.039,329.791C69.915,329.435 69.853,329.037 69.853,328.597C69.853,328.069 69.945,327.615 70.129,327.235C70.313,326.855 70.547,326.543 70.831,326.299C71.115,326.055 71.423,325.877 71.755,325.765C72.087,325.653 72.401,325.597 72.697,325.597C73.097,325.597 73.409,325.645 73.633,325.741C73.857,325.837 74.029,325.909 74.149,325.957L74.149,323.305L75.229,323.305L75.229,330.739C75.229,330.919 75.233,331.109 75.241,331.309L74.185,331.309L74.149,330.601Z" style="fill:white;fill-rule:nonzero;"/>
        </g>
    </g>
</svg>
