<?xml version="1.0" encoding="UTF-8" standalone="no"?>
<!DOCTYPE svg PUBLIC "-//W3C//DTD SVG 1.1//EN" "http://www.w3.org/Graphics/SVG/1.1/DTD/svg11.dtd">
<svg width="100%" height="100%" viewBox="0 0 180 380" version="1.1" xmlns="http://www.w3.org/2000/svg" xmlns:xlink="http://www.w3.org/1999/xlink" xml:space="preserve" xmlns:serif="http://www.serif.com/" style="fill-rule:evenodd;clip-rule:evenodd;stroke-linejoin:round;stroke-miterlimit:2;">
    <g id="svg8">
        <rect x="0" y="0" width="180" height="380" style="fill:rgb(240,240,240);"/>
        <g>
            <path d="M70.784,374.578L69.178,374.578L69.178,369.247L63.102,369.247L63.102,374.578L61.496,374.578L61.496,363.154L63.102,363.154L63.102,367.873L69.178,367.873L69.178,363.154L70.784,363.154L70.784,374.578Z" style="fill:rgb(35,31,32);fill-rule:nonzero;"/>
            <path d="M78.992,374.578L72.171,374.578L72.171,363.154L78.86,363.154L78.86,364.496L73.777,364.496L73.777,367.906L78.578,367.906L78.578,369.247L73.777,369.247L73.777,373.221L78.992,373.221L78.992,374.578Z" style="fill:rgb(35,31,32);fill-rule:nonzero;"/>
            <path d="M87.865,364.496L84.653,364.496L84.653,374.578L83.047,374.578L83.047,364.496L79.819,364.496L79.819,363.154L87.865,363.154L87.865,364.496Z" style="fill:rgb(35,31,32);fill-rule:nonzero;"/>
            <path d="M93.575,364.877C93.062,364.496 92.449,364.463 91.655,364.463L90.479,364.463L90.479,368.337L91.655,368.337C92.449,368.337 93.062,368.304 93.575,367.94C94.089,367.559 94.304,367.095 94.304,366.399C94.304,365.721 94.089,365.241 93.575,364.877M96.622,374.578L94.684,374.578L91.704,369.661L90.479,369.661L90.479,374.578L88.873,374.578L88.873,363.154L92.101,363.154C93.244,363.154 94.171,363.42 94.85,363.949C95.529,364.496 95.959,365.323 95.959,366.366C95.959,368.37 94.568,369.264 93.36,369.496L96.622,374.578Z" style="fill:rgb(35,31,32);fill-rule:nonzero;"/>
            <rect x="97.814" y="363.154" width="1.605" height="11.424" style="fill:rgb(35,31,32);"/>
            <path d="M110.542,373.088C109.83,373.883 108.539,374.777 106.37,374.777C103.042,374.777 100.525,372.442 100.525,368.883C100.525,365.323 103.092,362.989 106.37,362.989C108.506,362.989 109.797,363.883 110.426,364.496L109.747,365.787C109.301,365.225 108.025,364.397 106.437,364.397C103.97,364.397 102.182,366.168 102.182,368.85C102.182,371.532 103.986,373.304 106.437,373.304C107.942,373.304 109.102,372.725 109.847,371.913L110.542,373.088Z" style="fill:rgb(237,50,36);fill-rule:nonzero;"/>
            <path d="M120.452,374.578L118.499,374.578L114.707,368.849L113.532,370.042L113.532,374.578L111.926,374.578L111.926,363.154L113.532,363.154L113.532,368.022L118.184,363.154L120.138,363.154L115.783,367.658L120.452,374.578Z" style="fill:rgb(237,50,36);fill-rule:nonzero;"/>
            <path d="M120.452,374.578L118.499,374.578L114.707,368.849L113.532,370.042L113.532,374.578L111.926,374.578L111.926,370.019L113.532,370.042L114.707,368.849L115.783,367.658L116.4,368.571L116.897,369.308L120.452,374.578Z" style="fill-rule:nonzero;"/>
        </g>
        <path d="M41.91,16.831L45.708,16.831C46.524,16.831 47.199,16.945 47.733,17.173C48.267,17.401 48.693,17.689 49.011,18.037C49.329,18.385 49.551,18.775 49.677,19.207C49.803,19.639 49.866,20.059 49.866,20.467C49.866,21.067 49.764,21.595 49.56,22.051C49.356,22.507 49.074,22.888 48.714,23.194C48.354,23.5 47.925,23.731 47.427,23.887C46.929,24.043 46.386,24.121 45.798,24.121L43.62,24.121L43.62,28.837L41.91,28.837L41.91,16.831ZM45.78,22.645C46.524,22.645 47.097,22.456 47.499,22.078C47.901,21.7 48.102,21.175 48.102,20.503C48.102,19.819 47.895,19.282 47.481,18.892C47.067,18.502 46.5,18.307 45.78,18.307L43.62,18.307L43.62,22.645L45.78,22.645Z" style="fill-rule:nonzero;"/>
        <path d="M51.012,16.831L52.614,16.831L52.614,21.709C52.722,21.565 52.854,21.409 53.01,21.241C53.166,21.073 53.358,20.917 53.586,20.773C53.814,20.629 54.078,20.509 54.378,20.413C54.678,20.317 55.02,20.269 55.404,20.269C56.496,20.269 57.306,20.587 57.834,21.223C58.362,21.859 58.626,22.723 58.626,23.815L58.626,28.837L57.006,28.837L57.006,23.941C57.006,23.161 56.838,22.588 56.502,22.222C56.166,21.856 55.692,21.673 55.08,21.673C54.612,21.673 54.222,21.769 53.91,21.961C53.598,22.153 53.349,22.402 53.163,22.708C52.977,23.014 52.842,23.362 52.758,23.752C52.674,24.142 52.632,24.541 52.632,24.949L52.632,28.837L51.012,28.837L51.012,16.831Z" style="fill-rule:nonzero;"/>
        <path d="M65.568,24.877C65.52,24.865 65.427,24.85 65.289,24.832C65.151,24.814 64.992,24.799 64.812,24.787C64.632,24.775 64.44,24.763 64.236,24.751C64.032,24.739 63.834,24.733 63.642,24.733C63.186,24.733 62.817,24.787 62.535,24.895C62.253,25.003 62.031,25.138 61.869,25.3C61.707,25.462 61.596,25.642 61.536,25.84C61.476,26.038 61.446,26.227 61.446,26.407C61.446,26.863 61.602,27.208 61.914,27.442C62.226,27.676 62.658,27.793 63.21,27.793C63.522,27.793 63.819,27.739 64.101,27.631C64.383,27.523 64.632,27.379 64.848,27.199C65.064,27.019 65.238,26.809 65.37,26.569C65.502,26.329 65.568,26.083 65.568,25.831L65.568,24.877ZM65.586,27.829C65.274,28.249 64.863,28.561 64.353,28.765C63.843,28.969 63.318,29.071 62.778,29.071C62.43,29.071 62.085,29.026 61.743,28.936C61.401,28.846 61.089,28.696 60.807,28.486C60.525,28.276 60.297,28.006 60.123,27.676C59.949,27.346 59.862,26.941 59.862,26.461C59.862,25.561 60.177,24.841 60.807,24.301C61.437,23.761 62.346,23.491 63.534,23.491C63.726,23.491 63.93,23.497 64.146,23.509C64.362,23.521 64.566,23.533 64.758,23.545C64.95,23.557 65.118,23.569 65.262,23.581C65.406,23.593 65.508,23.605 65.568,23.617L65.568,23.311C65.568,22.687 65.379,22.24 65.001,21.97C64.623,21.7 64.11,21.565 63.462,21.565C62.826,21.565 62.322,21.652 61.95,21.826C61.578,22 61.266,22.177 61.014,22.357L60.258,21.259C60.402,21.139 60.576,21.019 60.78,20.899C60.984,20.779 61.224,20.668 61.5,20.566C61.776,20.464 62.088,20.38 62.436,20.314C62.784,20.248 63.186,20.215 63.642,20.215C64.722,20.215 65.571,20.476 66.189,20.998C66.807,21.52 67.116,22.261 67.116,23.221L67.116,28.09C67.116,28.384 67.122,28.633 67.134,28.837L65.622,28.837L65.586,27.829Z" style="fill-rule:nonzero;"/>
        <path d="M69.414,26.731C69.714,27.031 70.074,27.271 70.494,27.451C70.914,27.631 71.4,27.721 71.952,27.721C72.492,27.721 72.942,27.634 73.302,27.46C73.662,27.286 73.842,27.013 73.842,26.641C73.842,26.449 73.803,26.284 73.725,26.146C73.647,26.008 73.515,25.885 73.329,25.777C73.143,25.669 72.897,25.57 72.591,25.48C72.285,25.39 71.904,25.291 71.448,25.183C71.124,25.111 70.803,25.015 70.485,24.895C70.167,24.775 69.882,24.616 69.63,24.418C69.378,24.22 69.174,23.98 69.018,23.698C68.862,23.416 68.784,23.077 68.784,22.681C68.784,22.273 68.877,21.916 69.063,21.61C69.249,21.304 69.498,21.046 69.81,20.836C70.122,20.626 70.473,20.467 70.863,20.359C71.253,20.251 71.658,20.197 72.078,20.197C72.786,20.197 73.395,20.29 73.905,20.476C74.415,20.662 74.862,20.923 75.246,21.259L74.364,22.375C74.112,22.147 73.797,21.955 73.419,21.799C73.041,21.643 72.6,21.565 72.096,21.565C71.58,21.565 71.166,21.649 70.854,21.817C70.542,21.985 70.386,22.261 70.386,22.645C70.386,23.005 70.593,23.272 71.007,23.446C71.421,23.62 71.964,23.785 72.636,23.941C73.032,24.037 73.401,24.148 73.743,24.274C74.085,24.4 74.385,24.562 74.643,24.76C74.901,24.958 75.105,25.201 75.255,25.489C75.405,25.777 75.48,26.125 75.48,26.533C75.48,26.953 75.384,27.322 75.192,27.64C75,27.958 74.742,28.225 74.418,28.441C74.094,28.657 73.722,28.819 73.302,28.927C72.882,29.035 72.444,29.089 71.988,29.089C70.404,29.089 69.216,28.663 68.424,27.811L69.414,26.731Z" style="fill-rule:nonzero;"/>
        <path d="M80.946,29.089C80.298,29.089 79.704,28.972 79.164,28.738C78.624,28.504 78.159,28.183 77.769,27.775C77.379,27.367 77.073,26.896 76.851,26.362C76.629,25.828 76.518,25.255 76.518,24.643C76.518,24.031 76.629,23.458 76.851,22.924C77.073,22.39 77.379,21.919 77.769,21.511C78.159,21.103 78.624,20.782 79.164,20.548C79.704,20.314 80.298,20.197 80.946,20.197C81.582,20.197 82.17,20.314 82.71,20.548C83.25,20.782 83.718,21.103 84.114,21.511C84.51,21.919 84.819,22.39 85.041,22.924C85.263,23.458 85.374,24.031 85.374,24.643C85.374,25.255 85.263,25.828 85.041,26.362C84.819,26.896 84.51,27.367 84.114,27.775C83.718,28.183 83.25,28.504 82.71,28.738C82.17,28.972 81.582,29.089 80.946,29.089ZM80.946,27.685C81.378,27.685 81.768,27.598 82.116,27.424C82.464,27.25 82.758,27.022 82.998,26.74C83.238,26.458 83.421,26.134 83.547,25.768C83.673,25.402 83.736,25.027 83.736,24.643C83.736,24.271 83.673,23.902 83.547,23.536C83.421,23.17 83.235,22.843 82.989,22.555C82.743,22.267 82.449,22.036 82.107,21.862C81.765,21.688 81.378,21.601 80.946,21.601C80.514,21.601 80.124,21.688 79.776,21.862C79.428,22.036 79.134,22.264 78.894,22.546C78.654,22.828 78.471,23.152 78.345,23.518C78.219,23.884 78.156,24.259 78.156,24.643C78.156,25.027 78.219,25.399 78.345,25.759C78.471,26.119 78.657,26.443 78.903,26.731C79.149,27.019 79.443,27.25 79.785,27.424C80.127,27.598 80.514,27.685 80.946,27.685Z" style="fill-rule:nonzero;"/>
        <path d="M86.754,28.837L86.754,21.268C86.754,21.01 86.748,20.743 86.736,20.467L88.284,20.467L88.338,21.817C88.434,21.673 88.56,21.514 88.716,21.34C88.872,21.166 89.061,21.007 89.283,20.863C89.505,20.719 89.763,20.596 90.057,20.494C90.351,20.392 90.69,20.341 91.074,20.341C91.254,20.341 91.419,20.353 91.569,20.377C91.719,20.401 91.86,20.437 91.992,20.485L91.632,21.997C91.416,21.913 91.14,21.871 90.804,21.871C90.456,21.871 90.135,21.937 89.841,22.069C89.547,22.201 89.292,22.384 89.076,22.618C88.86,22.852 88.689,23.125 88.563,23.437C88.437,23.749 88.374,24.079 88.374,24.427L88.374,28.837L86.754,28.837Z" style="fill-rule:nonzero;"/>
        <path d="M96.426,25.921C96.594,26.113 96.783,26.308 96.993,26.506C97.203,26.704 97.44,26.881 97.704,27.037C97.968,27.193 98.262,27.319 98.586,27.415C98.91,27.511 99.264,27.559 99.648,27.559C100.44,27.559 101.058,27.379 101.502,27.019C101.946,26.659 102.168,26.173 102.168,25.561C102.168,24.901 101.916,24.406 101.412,24.076C100.908,23.746 100.182,23.479 99.234,23.275C98.718,23.167 98.25,23.017 97.83,22.825C97.41,22.633 97.047,22.393 96.741,22.105C96.435,21.817 96.198,21.484 96.03,21.106C95.862,20.728 95.778,20.299 95.778,19.819C95.778,19.375 95.862,18.955 96.03,18.559C96.198,18.163 96.45,17.815 96.786,17.515C97.122,17.215 97.542,16.975 98.046,16.795C98.55,16.615 99.132,16.525 99.792,16.525C100.38,16.525 100.887,16.588 101.313,16.714C101.739,16.84 102.102,16.993 102.402,17.173C102.702,17.353 102.942,17.539 103.122,17.731C103.302,17.923 103.44,18.079 103.536,18.199L102.384,19.261C102.312,19.177 102.204,19.066 102.06,18.928C101.916,18.79 101.733,18.655 101.511,18.523C101.289,18.391 101.031,18.28 100.737,18.19C100.443,18.1 100.104,18.055 99.72,18.055C99.336,18.055 99.006,18.106 98.73,18.208C98.454,18.31 98.226,18.442 98.046,18.604C97.866,18.766 97.734,18.949 97.65,19.153C97.566,19.357 97.524,19.561 97.524,19.765C97.524,20.065 97.587,20.32 97.713,20.53C97.839,20.74 98.022,20.926 98.262,21.088C98.502,21.25 98.799,21.388 99.153,21.502C99.507,21.616 99.912,21.727 100.368,21.835C100.812,21.943 101.247,22.084 101.673,22.258C102.099,22.432 102.48,22.666 102.816,22.96C103.152,23.254 103.419,23.614 103.617,24.04C103.815,24.466 103.914,24.985 103.914,25.597C103.914,26.113 103.806,26.587 103.59,27.019C103.374,27.451 103.077,27.826 102.699,28.144C102.321,28.462 101.874,28.708 101.358,28.882C100.842,29.056 100.284,29.143 99.684,29.143C99.12,29.143 98.607,29.077 98.145,28.945C97.683,28.813 97.263,28.645 96.885,28.441C96.507,28.237 96.177,28.012 95.895,27.766C95.613,27.52 95.382,27.277 95.202,27.037L96.426,25.921Z" style="fill-rule:nonzero;"/>
        <path d="M104.394,20.467L106.176,20.467L108.048,26.857L110.064,20.467L111.45,20.467L113.466,26.911L115.302,20.467L116.976,20.467L114.204,28.837L112.602,28.837L110.658,22.987L108.732,28.837L107.22,28.837L104.394,20.467Z" style="fill-rule:nonzero;"/>
        <path d="M117.816,17.155L119.634,17.155L119.634,18.973L117.816,18.973L117.816,17.155ZM117.924,20.467L119.544,20.467L119.544,28.837L117.924,28.837L117.924,20.467Z" style="fill-rule:nonzero;"/>
        <path d="M121.392,28.837L121.392,21.322C121.392,21.052 121.386,20.767 121.374,20.467L122.922,20.467L122.976,21.727C123.084,21.583 123.216,21.424 123.372,21.25C123.528,21.076 123.72,20.917 123.948,20.773C124.176,20.629 124.443,20.509 124.749,20.413C125.055,20.317 125.4,20.269 125.784,20.269C126.876,20.269 127.686,20.587 128.214,21.223C128.742,21.859 129.006,22.723 129.006,23.815L129.006,28.837L127.386,28.837L127.386,23.941C127.386,23.161 127.218,22.588 126.882,22.222C126.546,21.856 126.072,21.673 125.46,21.673C124.992,21.673 124.602,21.769 124.29,21.961C123.978,22.153 123.729,22.402 123.543,22.708C123.357,23.014 123.222,23.362 123.138,23.752C123.054,24.142 123.012,24.541 123.012,24.949L123.012,28.837L121.392,28.837Z" style="fill-rule:nonzero;"/>
        <path d="M136.74,21.943C136.632,21.907 136.449,21.856 136.191,21.79C135.933,21.724 135.546,21.691 135.03,21.691C134.574,21.691 134.16,21.766 133.788,21.916C133.416,22.066 133.095,22.276 132.825,22.546C132.555,22.816 132.345,23.137 132.195,23.509C132.045,23.881 131.97,24.289 131.97,24.733C131.97,25.117 132.015,25.477 132.105,25.813C132.195,26.149 132.339,26.443 132.537,26.695C132.735,26.947 132.984,27.145 133.284,27.289C133.584,27.433 133.95,27.505 134.382,27.505C134.778,27.505 135.126,27.445 135.426,27.325C135.726,27.205 135.972,27.046 136.164,26.848C136.356,26.65 136.5,26.428 136.596,26.182C136.692,25.936 136.74,25.681 136.74,25.417L136.74,21.943ZM131.844,30.547C132.12,30.739 132.459,30.904 132.861,31.042C133.263,31.18 133.752,31.249 134.328,31.249C135.132,31.249 135.732,31.027 136.128,30.583C136.524,30.139 136.722,29.557 136.722,28.837L136.722,27.811C136.638,27.883 136.527,27.982 136.389,28.108C136.251,28.234 136.077,28.354 135.867,28.468C135.657,28.582 135.408,28.684 135.12,28.774C134.832,28.864 134.502,28.909 134.13,28.909C133.518,28.909 132.975,28.804 132.501,28.594C132.027,28.384 131.628,28.096 131.304,27.73C130.98,27.364 130.734,26.926 130.566,26.416C130.398,25.906 130.314,25.351 130.314,24.751C130.314,24.103 130.428,23.506 130.656,22.96C130.884,22.414 131.205,21.94 131.619,21.538C132.033,21.136 132.528,20.824 133.104,20.602C133.68,20.38 134.322,20.269 135.03,20.269C135.714,20.269 136.35,20.329 136.938,20.449C137.526,20.569 138,20.701 138.36,20.845L138.36,28.837C138.36,30.049 138.009,30.988 137.307,31.654C136.605,32.32 135.618,32.653 134.346,32.653C133.494,32.653 132.816,32.56 132.312,32.374C131.808,32.188 131.4,31.975 131.088,31.735L131.844,30.547Z" style="fill-rule:nonzero;"/>
        <g>
            <path d="M78.565,73.243C78.658,73.35 78.763,73.458 78.88,73.568C78.997,73.678 79.128,73.776 79.275,73.863C79.422,73.95 79.585,74.02 79.765,74.073C79.945,74.126 80.142,74.153 80.355,74.153C80.795,74.153 81.138,74.053 81.385,73.853C81.632,73.653 81.755,73.383 81.755,73.043C81.755,72.676 81.615,72.401 81.335,72.218C81.055,72.035 80.652,71.886 80.125,71.773C79.838,71.713 79.578,71.63 79.345,71.523C79.112,71.416 78.91,71.283 78.74,71.123C78.57,70.963 78.438,70.778 78.345,70.568C78.252,70.358 78.205,70.12 78.205,69.853C78.205,69.606 78.252,69.373 78.345,69.153C78.438,68.933 78.578,68.74 78.765,68.573C78.952,68.406 79.185,68.273 79.465,68.173C79.745,68.073 80.068,68.023 80.435,68.023C80.762,68.023 81.043,68.058 81.28,68.128C81.517,68.198 81.718,68.283 81.885,68.383C82.052,68.483 82.185,68.586 82.285,68.693C82.385,68.8 82.462,68.886 82.515,68.953L81.875,69.543C81.835,69.496 81.775,69.435 81.695,69.358C81.615,69.281 81.513,69.206 81.39,69.133C81.267,69.06 81.123,68.998 80.96,68.948C80.797,68.898 80.608,68.873 80.395,68.873C80.182,68.873 79.998,68.901 79.845,68.958C79.692,69.015 79.565,69.088 79.465,69.178C79.365,69.268 79.292,69.37 79.245,69.483C79.198,69.596 79.175,69.71 79.175,69.823C79.175,69.99 79.21,70.131 79.28,70.248C79.35,70.365 79.452,70.468 79.585,70.558C79.718,70.648 79.883,70.725 80.08,70.788C80.277,70.851 80.502,70.913 80.755,70.973C81.002,71.033 81.243,71.111 81.48,71.208C81.717,71.305 81.928,71.435 82.115,71.598C82.302,71.761 82.45,71.961 82.56,72.198C82.67,72.435 82.725,72.723 82.725,73.063C82.725,73.35 82.665,73.613 82.545,73.853C82.425,74.093 82.26,74.301 82.05,74.478C81.84,74.655 81.592,74.791 81.305,74.888C81.018,74.985 80.708,75.033 80.375,75.033C80.062,75.033 79.777,74.996 79.52,74.923C79.263,74.85 79.03,74.756 78.82,74.643C78.61,74.53 78.427,74.405 78.27,74.268C78.113,74.131 77.985,73.996 77.885,73.863L78.565,73.243Z" style="fill-rule:nonzero;"/>
            <path d="M84.005,70.963L83.165,70.963L83.165,70.213L84.005,70.213L84.005,68.693L84.905,68.693L84.905,70.213L86.265,70.213L86.265,70.963L84.905,70.963L84.905,73.253C84.905,73.626 84.963,73.883 85.08,74.023C85.197,74.163 85.362,74.233 85.575,74.233C85.748,74.233 85.892,74.206 86.005,74.153C86.118,74.1 86.232,74.02 86.345,73.913L86.755,74.463C86.562,74.65 86.363,74.785 86.16,74.868C85.957,74.951 85.715,74.993 85.435,74.993C84.942,74.993 84.58,74.86 84.35,74.593C84.12,74.326 84.005,73.91 84.005,73.343L84.005,70.963Z" style="fill-rule:nonzero;"/>
            <path d="M91.685,74.183C91.632,74.243 91.552,74.32 91.445,74.413C91.338,74.506 91.2,74.596 91.03,74.683C90.86,74.77 90.66,74.845 90.43,74.908C90.2,74.971 89.938,75.003 89.645,75.003C89.285,75.003 88.955,74.943 88.655,74.823C88.355,74.703 88.098,74.533 87.885,74.313C87.672,74.093 87.507,73.83 87.39,73.523C87.273,73.216 87.215,72.876 87.215,72.503C87.215,72.163 87.272,71.845 87.385,71.548C87.498,71.251 87.658,70.995 87.865,70.778C88.072,70.561 88.317,70.39 88.6,70.263C88.883,70.136 89.195,70.073 89.535,70.073C89.935,70.073 90.278,70.15 90.565,70.303C90.852,70.456 91.087,70.66 91.27,70.913C91.453,71.166 91.588,71.456 91.675,71.783C91.762,72.11 91.805,72.45 91.805,72.803L88.135,72.803C88.142,73.01 88.187,73.2 88.27,73.373C88.353,73.546 88.465,73.696 88.605,73.823C88.745,73.95 88.905,74.05 89.085,74.123C89.265,74.196 89.455,74.233 89.655,74.233C90.048,74.233 90.372,74.166 90.625,74.033C90.878,73.9 91.062,73.77 91.175,73.643L91.685,74.183ZM90.875,72.133C90.848,71.773 90.722,71.466 90.495,71.213C90.268,70.96 89.948,70.833 89.535,70.833C89.322,70.833 89.13,70.87 88.96,70.943C88.79,71.016 88.645,71.113 88.525,71.233C88.405,71.353 88.312,71.491 88.245,71.648C88.178,71.805 88.142,71.966 88.135,72.133L90.875,72.133Z" style="fill-rule:nonzero;"/>
            <path d="M92.805,76.863L92.805,70.688C92.805,70.538 92.802,70.38 92.795,70.213L93.655,70.213L93.685,70.873C93.732,70.813 93.798,70.74 93.885,70.653C93.972,70.566 94.08,70.483 94.21,70.403C94.34,70.323 94.492,70.255 94.665,70.198C94.838,70.141 95.038,70.113 95.265,70.113C95.625,70.113 95.937,70.18 96.2,70.313C96.463,70.446 96.682,70.626 96.855,70.853C97.028,71.08 97.157,71.34 97.24,71.633C97.323,71.926 97.365,72.236 97.365,72.563C97.365,72.983 97.293,73.346 97.15,73.653C97.007,73.96 96.82,74.213 96.59,74.413C96.36,74.613 96.103,74.761 95.82,74.858C95.537,74.955 95.258,75.003 94.985,75.003C94.672,75.003 94.42,74.971 94.23,74.908C94.04,74.845 93.862,74.776 93.695,74.703L93.695,76.863L92.805,76.863ZM93.695,73.853C93.802,73.94 93.955,74.023 94.155,74.103C94.355,74.183 94.605,74.223 94.905,74.223C95.132,74.223 95.34,74.181 95.53,74.098C95.72,74.015 95.883,73.898 96.02,73.748C96.157,73.598 96.262,73.423 96.335,73.223C96.408,73.023 96.445,72.803 96.445,72.563C96.445,72.336 96.42,72.123 96.37,71.923C96.32,71.723 96.24,71.546 96.13,71.393C96.02,71.24 95.878,71.118 95.705,71.028C95.532,70.938 95.318,70.893 95.065,70.893C94.745,70.893 94.472,70.981 94.245,71.158C94.018,71.335 93.858,71.593 93.765,71.933C93.732,72.04 93.712,72.155 93.705,72.278C93.698,72.401 93.695,72.53 93.695,72.663L93.695,73.853Z" style="fill-rule:nonzero;"/>
            <path d="M98.685,73.693C98.852,73.86 99.052,73.993 99.285,74.093C99.518,74.193 99.788,74.243 100.095,74.243C100.395,74.243 100.645,74.195 100.845,74.098C101.045,74.001 101.145,73.85 101.145,73.643C101.145,73.536 101.123,73.445 101.08,73.368C101.037,73.291 100.963,73.223 100.86,73.163C100.757,73.103 100.62,73.048 100.45,72.998C100.28,72.948 100.068,72.893 99.815,72.833C99.635,72.793 99.457,72.74 99.28,72.673C99.103,72.606 98.945,72.518 98.805,72.408C98.665,72.298 98.552,72.165 98.465,72.008C98.378,71.851 98.335,71.663 98.335,71.443C98.335,71.216 98.387,71.018 98.49,70.848C98.593,70.678 98.732,70.535 98.905,70.418C99.078,70.301 99.273,70.213 99.49,70.153C99.707,70.093 99.932,70.063 100.165,70.063C100.558,70.063 100.897,70.115 101.18,70.218C101.463,70.321 101.712,70.466 101.925,70.653L101.435,71.273C101.295,71.146 101.12,71.04 100.91,70.953C100.7,70.866 100.455,70.823 100.175,70.823C99.888,70.823 99.658,70.87 99.485,70.963C99.312,71.056 99.225,71.21 99.225,71.423C99.225,71.623 99.34,71.771 99.57,71.868C99.8,71.965 100.102,72.056 100.475,72.143C100.695,72.196 100.9,72.258 101.09,72.328C101.28,72.398 101.447,72.488 101.59,72.598C101.733,72.708 101.847,72.843 101.93,73.003C102.013,73.163 102.055,73.356 102.055,73.583C102.055,73.816 102.002,74.021 101.895,74.198C101.788,74.375 101.645,74.523 101.465,74.643C101.285,74.763 101.078,74.853 100.845,74.913C100.612,74.973 100.368,75.003 100.115,75.003C99.235,75.003 98.575,74.766 98.135,74.293L98.685,73.693Z" style="fill-rule:nonzero;"/>
            <rect x="76.242" y="59.078" width="2.216" height="0.943" style="fill-rule:nonzero;"/>
            <path d="M103.05,60.405L103.05,59.302L101.634,59.302L101.634,57.886L100.531,57.886L100.531,59.302L99.115,59.302L99.115,60.405L100.531,60.405L100.531,61.821L101.634,61.821L101.634,60.405L103.05,60.405Z" style="fill-rule:nonzero;"/>
            <path d="M30,55L32,55L32,54L30,54" style="fill-rule:nonzero;"/>
            <path d="M34,55L38,55L38,54L34,54L34,55ZM40,55L44,55L44,54L40,54L40,55ZM46,55L50,55L50,54L46,54L46,55ZM52,55L56,55L56,54L52,54L52,55ZM58,55L62,55L62,54L58,54L58,55ZM64,55L68,55L68,54L64,54L64,55ZM70,55L74,55L74,54L70,54L70,55ZM76,55L80,55L80,54L76,54L76,55ZM82,55L86,55L86,54L82,54L82,55ZM88,55L92,55L92,54L88,54L88,55ZM94,55L98,55L98,54L94,54L94,55ZM100,55L104,55L104,54L100,54L100,55ZM106,55L110,55L110,54L106,54L106,55ZM112,55L116,55L116,54L112,54L112,55ZM118,55L122,55L122,54L118,54L118,55ZM124,55L128,55L128,54L124,54L124,55ZM130,55L134,55L134,54L130,54L130,55ZM136,55L140,55L140,54L136,54L136,55ZM142,55L146,55L146,54L142,54L142,55Z" style="fill-rule:nonzero;"/>
            <path d="M148,55L150,55L150,54L148,54" style="fill-rule:nonzero;"/>
        </g>
        <g>
            <path d="M73.945,122.183L76.285,122.183L76.285,124.843C76.158,124.957 76.013,125.067 75.85,125.173C75.687,125.28 75.497,125.375 75.28,125.458C75.063,125.542 74.822,125.608 74.555,125.658C74.288,125.708 73.988,125.733 73.655,125.733C73.135,125.733 72.667,125.645 72.25,125.468C71.833,125.292 71.477,125.048 71.18,124.738C70.883,124.428 70.657,124.062 70.5,123.638C70.343,123.215 70.265,122.753 70.265,122.253C70.265,121.767 70.347,121.31 70.51,120.883C70.673,120.457 70.902,120.085 71.195,119.768C71.488,119.452 71.84,119.202 72.25,119.018C72.66,118.835 73.115,118.743 73.615,118.743C73.968,118.743 74.285,118.785 74.565,118.868C74.845,118.952 75.09,119.058 75.3,119.188C75.51,119.318 75.688,119.46 75.835,119.613C75.982,119.767 76.105,119.913 76.205,120.053L75.525,120.633C75.445,120.52 75.348,120.402 75.235,120.278C75.122,120.155 74.988,120.043 74.835,119.943C74.682,119.843 74.507,119.76 74.31,119.693C74.113,119.627 73.888,119.593 73.635,119.593C73.268,119.593 72.938,119.663 72.645,119.803C72.352,119.943 72.103,120.133 71.9,120.373C71.697,120.613 71.54,120.895 71.43,121.218C71.32,121.542 71.265,121.883 71.265,122.243C71.265,122.63 71.325,122.983 71.445,123.303C71.565,123.623 71.733,123.898 71.95,124.128C72.167,124.358 72.422,124.538 72.715,124.668C73.008,124.798 73.332,124.863 73.685,124.863C74.072,124.863 74.4,124.82 74.67,124.733C74.94,124.647 75.172,124.527 75.365,124.373L75.365,123.013L73.945,123.013L73.945,122.183Z" style="fill-rule:nonzero;"/>
            <path d="M77.605,125.573L77.605,121.368C77.605,121.225 77.602,121.077 77.595,120.923L78.455,120.923L78.485,121.673C78.538,121.593 78.608,121.505 78.695,121.408C78.782,121.312 78.887,121.223 79.01,121.143C79.133,121.063 79.277,120.995 79.44,120.938C79.603,120.882 79.792,120.853 80.005,120.853C80.105,120.853 80.197,120.86 80.28,120.873C80.363,120.887 80.442,120.907 80.515,120.933L80.315,121.773C80.195,121.727 80.042,121.703 79.855,121.703C79.662,121.703 79.483,121.74 79.32,121.813C79.157,121.887 79.015,121.988 78.895,122.118C78.775,122.248 78.68,122.4 78.61,122.573C78.54,122.747 78.505,122.93 78.505,123.123L78.505,125.573L77.605,125.573Z" style="fill-rule:nonzero;"/>
            <path d="M83.235,125.713C82.875,125.713 82.545,125.648 82.245,125.518C81.945,125.388 81.687,125.21 81.47,124.983C81.253,124.757 81.083,124.495 80.96,124.198C80.837,123.902 80.775,123.583 80.775,123.243C80.775,122.903 80.837,122.585 80.96,122.288C81.083,121.992 81.253,121.73 81.47,121.503C81.687,121.277 81.945,121.098 82.245,120.968C82.545,120.838 82.875,120.773 83.235,120.773C83.588,120.773 83.915,120.838 84.215,120.968C84.515,121.098 84.775,121.277 84.995,121.503C85.215,121.73 85.387,121.992 85.51,122.288C85.633,122.585 85.695,122.903 85.695,123.243C85.695,123.583 85.633,123.902 85.51,124.198C85.387,124.495 85.215,124.757 84.995,124.983C84.775,125.21 84.515,125.388 84.215,125.518C83.915,125.648 83.588,125.713 83.235,125.713ZM83.235,124.933C83.475,124.933 83.692,124.885 83.885,124.788C84.078,124.692 84.242,124.565 84.375,124.408C84.508,124.252 84.61,124.072 84.68,123.868C84.75,123.665 84.785,123.457 84.785,123.243C84.785,123.037 84.75,122.832 84.68,122.628C84.61,122.425 84.507,122.243 84.37,122.083C84.233,121.923 84.07,121.795 83.88,121.698C83.69,121.602 83.475,121.553 83.235,121.553C82.995,121.553 82.778,121.602 82.585,121.698C82.392,121.795 82.228,121.922 82.095,122.078C81.962,122.235 81.86,122.415 81.79,122.618C81.72,122.822 81.685,123.03 81.685,123.243C81.685,123.457 81.72,123.663 81.79,123.863C81.86,124.063 81.963,124.243 82.1,124.403C82.237,124.563 82.4,124.692 82.59,124.788C82.78,124.885 82.995,124.933 83.235,124.933Z" style="fill-rule:nonzero;"/>
            <path d="M86.685,120.923L87.585,120.923L87.585,123.653C87.585,124.093 87.675,124.412 87.855,124.608C88.035,124.805 88.295,124.903 88.635,124.903C88.895,124.903 89.11,124.85 89.28,124.743C89.45,124.637 89.588,124.498 89.695,124.328C89.802,124.158 89.877,123.965 89.92,123.748C89.963,123.532 89.985,123.31 89.985,123.083L89.985,120.923L90.885,120.923L90.885,125.098C90.885,125.248 90.888,125.407 90.895,125.573L90.035,125.573L90.005,124.883C89.945,124.963 89.872,125.05 89.785,125.143C89.698,125.237 89.592,125.322 89.465,125.398C89.338,125.475 89.192,125.54 89.025,125.593C88.858,125.647 88.668,125.673 88.455,125.673C87.848,125.673 87.402,125.498 87.115,125.148C86.828,124.798 86.685,124.32 86.685,123.713L86.685,120.923Z" style="fill-rule:nonzero;"/>
            <path d="M92.135,127.573L92.135,121.398C92.135,121.248 92.132,121.09 92.125,120.923L92.985,120.923L93.015,121.583C93.062,121.523 93.128,121.45 93.215,121.363C93.302,121.277 93.41,121.193 93.54,121.113C93.67,121.033 93.822,120.965 93.995,120.908C94.168,120.852 94.368,120.823 94.595,120.823C94.955,120.823 95.267,120.89 95.53,121.023C95.793,121.157 96.012,121.337 96.185,121.563C96.358,121.79 96.487,122.05 96.57,122.343C96.653,122.637 96.695,122.947 96.695,123.273C96.695,123.693 96.623,124.057 96.48,124.363C96.337,124.67 96.15,124.923 95.92,125.123C95.69,125.323 95.433,125.472 95.15,125.568C94.867,125.665 94.588,125.713 94.315,125.713C94.002,125.713 93.75,125.682 93.56,125.618C93.37,125.555 93.192,125.487 93.025,125.413L93.025,127.573L92.135,127.573ZM93.025,124.563C93.132,124.65 93.285,124.733 93.485,124.813C93.685,124.893 93.935,124.933 94.235,124.933C94.462,124.933 94.67,124.892 94.86,124.808C95.05,124.725 95.213,124.608 95.35,124.458C95.487,124.308 95.592,124.133 95.665,123.933C95.738,123.733 95.775,123.513 95.775,123.273C95.775,123.047 95.75,122.833 95.7,122.633C95.65,122.433 95.57,122.257 95.46,122.103C95.35,121.95 95.208,121.828 95.035,121.738C94.862,121.648 94.648,121.603 94.395,121.603C94.075,121.603 93.802,121.692 93.575,121.868C93.348,122.045 93.188,122.303 93.095,122.643C93.062,122.75 93.042,122.865 93.035,122.988C93.028,123.112 93.025,123.24 93.025,123.373L93.025,124.563Z" style="fill-rule:nonzero;"/>
            <path d="M97.695,119.083L98.705,119.083L98.705,120.093L97.695,120.093L97.695,119.083ZM97.755,120.923L98.655,120.923L98.655,125.573L97.755,125.573L97.755,120.923Z" style="fill-rule:nonzero;"/>
            <path d="M99.935,125.573L99.935,121.398C99.935,121.248 99.932,121.09 99.925,120.923L100.785,120.923L100.815,121.623C100.875,121.543 100.948,121.455 101.035,121.358C101.122,121.262 101.228,121.173 101.355,121.093C101.482,121.013 101.63,120.947 101.8,120.893C101.97,120.84 102.162,120.813 102.375,120.813C102.982,120.813 103.432,120.99 103.725,121.343C104.018,121.697 104.165,122.177 104.165,122.783L104.165,125.573L103.265,125.573L103.265,122.853C103.265,122.42 103.172,122.102 102.985,121.898C102.798,121.695 102.535,121.593 102.195,121.593C101.935,121.593 101.718,121.647 101.545,121.753C101.372,121.86 101.233,121.998 101.13,122.168C101.027,122.338 100.952,122.532 100.905,122.748C100.858,122.965 100.835,123.187 100.835,123.413L100.835,125.573L99.935,125.573Z" style="fill-rule:nonzero;"/>
            <path d="M108.715,121.743C108.655,121.723 108.553,121.695 108.41,121.658C108.267,121.622 108.052,121.603 107.765,121.603C107.512,121.603 107.282,121.645 107.075,121.728C106.868,121.812 106.69,121.928 106.54,122.078C106.39,122.228 106.273,122.407 106.19,122.613C106.107,122.82 106.065,123.047 106.065,123.293C106.065,123.507 106.09,123.707 106.14,123.893C106.19,124.08 106.27,124.243 106.38,124.383C106.49,124.523 106.628,124.633 106.795,124.713C106.962,124.793 107.165,124.833 107.405,124.833C107.625,124.833 107.818,124.8 107.985,124.733C108.152,124.667 108.288,124.578 108.395,124.468C108.502,124.358 108.582,124.235 108.635,124.098C108.688,123.962 108.715,123.82 108.715,123.673L108.715,121.743ZM105.995,126.523C106.148,126.63 106.337,126.722 106.56,126.798C106.783,126.875 107.055,126.913 107.375,126.913C107.822,126.913 108.155,126.79 108.375,126.543C108.595,126.297 108.705,125.973 108.705,125.573L108.705,125.003C108.658,125.043 108.597,125.098 108.52,125.168C108.443,125.238 108.347,125.305 108.23,125.368C108.113,125.432 107.975,125.488 107.815,125.538C107.655,125.588 107.472,125.613 107.265,125.613C106.925,125.613 106.623,125.555 106.36,125.438C106.097,125.322 105.875,125.162 105.695,124.958C105.515,124.755 105.378,124.512 105.285,124.228C105.192,123.945 105.145,123.637 105.145,123.303C105.145,122.943 105.208,122.612 105.335,122.308C105.462,122.005 105.64,121.742 105.87,121.518C106.1,121.295 106.375,121.122 106.695,120.998C107.015,120.875 107.372,120.813 107.765,120.813C108.145,120.813 108.498,120.847 108.825,120.913C109.152,120.98 109.415,121.053 109.615,121.133L109.615,125.573C109.615,126.247 109.42,126.768 109.03,127.138C108.64,127.508 108.092,127.693 107.385,127.693C106.912,127.693 106.535,127.642 106.255,127.538C105.975,127.435 105.748,127.317 105.575,127.183L105.995,126.523Z" style="fill-rule:nonzero;"/>
            <rect x="76.242" y="108.812" width="2.216" height="0.943" style="fill-rule:nonzero;"/>
            <path d="M103.05,110.139L103.05,109.036L101.634,109.036L101.634,107.62L100.531,107.62L100.531,109.036L99.115,109.036L99.115,110.139L100.531,110.139L100.531,111.555L101.634,111.555L101.634,110.139L103.05,110.139Z" style="fill-rule:nonzero;"/>
            <path d="M30,104.654L32,104.654L32,103.654L30,103.654" style="fill-rule:nonzero;"/>
            <path d="M34,104.654L38,104.654L38,103.654L34,103.654L34,104.654ZM40,104.654L44,104.654L44,103.654L40,103.654L40,104.654ZM46,104.654L50,104.654L50,103.654L46,103.654L46,104.654ZM52,104.654L56,104.654L56,103.654L52,103.654L52,104.654ZM58,104.654L62,104.654L62,103.654L58,103.654L58,104.654ZM64,104.654L68,104.654L68,103.654L64,103.654L64,104.654ZM70,104.654L74,104.654L74,103.654L70,103.654L70,104.654ZM76,104.654L80,104.654L80,103.654L76,103.654L76,104.654ZM82,104.654L86,104.654L86,103.654L82,103.654L82,104.654ZM88,104.654L92,104.654L92,103.654L88,103.654L88,104.654ZM94,104.654L98,104.654L98,103.654L94,103.654L94,104.654ZM100,104.654L104,104.654L104,103.654L100,103.654L100,104.654ZM106,104.654L110,104.654L110,103.654L106,103.654L106,104.654ZM112,104.654L116,104.654L116,103.654L112,103.654L112,104.654ZM118,104.654L122,104.654L122,103.654L118,103.654L118,104.654ZM124,104.654L128,104.654L128,103.654L124,103.654L124,104.654ZM130,104.654L134,104.654L134,103.654L130,103.654L130,104.654ZM136,104.654L140,104.654L140,103.654L136,103.654L136,104.654ZM142,104.654L146,104.654L146,103.654L142,103.654L142,104.654Z" style="fill-rule:nonzero;"/>
            <path d="M148,104.654L150,104.654L150,103.654L148,103.654" style="fill-rule:nonzero;"/>
        </g>
        <g>
            <path d="M78.065,174.027C78.158,174.133 78.263,174.242 78.38,174.352C78.497,174.462 78.628,174.56 78.775,174.647C78.922,174.733 79.085,174.803 79.265,174.857C79.445,174.91 79.642,174.937 79.855,174.937C80.295,174.937 80.638,174.837 80.885,174.637C81.132,174.437 81.255,174.167 81.255,173.827C81.255,173.46 81.115,173.185 80.835,173.002C80.555,172.818 80.152,172.67 79.625,172.557C79.338,172.497 79.078,172.413 78.845,172.307C78.612,172.2 78.41,172.067 78.24,171.907C78.07,171.747 77.938,171.562 77.845,171.352C77.752,171.142 77.705,170.903 77.705,170.637C77.705,170.39 77.752,170.157 77.845,169.937C77.938,169.717 78.078,169.523 78.265,169.357C78.452,169.19 78.685,169.057 78.965,168.957C79.245,168.857 79.568,168.807 79.935,168.807C80.262,168.807 80.543,168.842 80.78,168.912C81.017,168.982 81.218,169.067 81.385,169.167C81.552,169.267 81.685,169.37 81.785,169.477C81.885,169.583 81.962,169.67 82.015,169.737L81.375,170.327C81.335,170.28 81.275,170.218 81.195,170.142C81.115,170.065 81.013,169.99 80.89,169.917C80.767,169.843 80.623,169.782 80.46,169.732C80.297,169.682 80.108,169.657 79.895,169.657C79.682,169.657 79.498,169.685 79.345,169.742C79.192,169.798 79.065,169.872 78.965,169.962C78.865,170.052 78.792,170.153 78.745,170.267C78.698,170.38 78.675,170.493 78.675,170.607C78.675,170.773 78.71,170.915 78.78,171.032C78.85,171.148 78.952,171.252 79.085,171.342C79.218,171.432 79.383,171.508 79.58,171.572C79.777,171.635 80.002,171.697 80.255,171.757C80.502,171.817 80.743,171.895 80.98,171.992C81.217,172.088 81.428,172.218 81.615,172.382C81.802,172.545 81.95,172.745 82.06,172.982C82.17,173.218 82.225,173.507 82.225,173.847C82.225,174.133 82.165,174.397 82.045,174.637C81.925,174.877 81.76,175.085 81.55,175.262C81.34,175.438 81.092,175.575 80.805,175.672C80.518,175.768 80.208,175.817 79.875,175.817C79.562,175.817 79.277,175.78 79.02,175.707C78.763,175.633 78.53,175.54 78.32,175.427C78.11,175.313 77.927,175.188 77.77,175.052C77.613,174.915 77.485,174.78 77.385,174.647L78.065,174.027Z" style="fill-rule:nonzero;"/>
            <path d="M82.745,170.997L83.735,170.997L84.775,174.547L85.895,170.997L86.665,170.997L87.785,174.577L88.805,170.997L89.735,170.997L88.195,175.647L87.305,175.647L86.225,172.397L85.155,175.647L84.315,175.647L82.745,170.997Z" style="fill-rule:nonzero;"/>
            <path d="M90.455,169.157L91.465,169.157L91.465,170.167L90.455,170.167L90.455,169.157ZM90.515,170.997L91.415,170.997L91.415,175.647L90.515,175.647L90.515,170.997Z" style="fill-rule:nonzero;"/>
            <path d="M92.695,175.647L92.695,171.472C92.695,171.322 92.692,171.163 92.685,170.997L93.545,170.997L93.575,171.697C93.635,171.617 93.708,171.528 93.795,171.432C93.882,171.335 93.988,171.247 94.115,171.167C94.242,171.087 94.39,171.02 94.56,170.967C94.73,170.913 94.922,170.887 95.135,170.887C95.742,170.887 96.192,171.063 96.485,171.417C96.778,171.77 96.925,172.25 96.925,172.857L96.925,175.647L96.025,175.647L96.025,172.927C96.025,172.493 95.932,172.175 95.745,171.972C95.558,171.768 95.295,171.667 94.955,171.667C94.695,171.667 94.478,171.72 94.305,171.827C94.132,171.933 93.993,172.072 93.89,172.242C93.787,172.412 93.712,172.605 93.665,172.822C93.618,173.038 93.595,173.26 93.595,173.487L93.595,175.647L92.695,175.647Z" style="fill-rule:nonzero;"/>
            <path d="M101.475,171.817C101.415,171.797 101.313,171.768 101.17,171.732C101.027,171.695 100.812,171.677 100.525,171.677C100.272,171.677 100.042,171.718 99.835,171.802C99.628,171.885 99.45,172.002 99.3,172.152C99.15,172.302 99.033,172.48 98.95,172.687C98.867,172.893 98.825,173.12 98.825,173.367C98.825,173.58 98.85,173.78 98.9,173.967C98.95,174.153 99.03,174.317 99.14,174.457C99.25,174.597 99.388,174.707 99.555,174.787C99.722,174.867 99.925,174.907 100.165,174.907C100.385,174.907 100.578,174.873 100.745,174.807C100.912,174.74 101.048,174.652 101.155,174.542C101.262,174.432 101.342,174.308 101.395,174.172C101.448,174.035 101.475,173.893 101.475,173.747L101.475,171.817ZM98.755,176.597C98.908,176.703 99.097,176.795 99.32,176.872C99.543,176.948 99.815,176.987 100.135,176.987C100.582,176.987 100.915,176.863 101.135,176.617C101.355,176.37 101.465,176.047 101.465,175.647L101.465,175.077C101.418,175.117 101.357,175.172 101.28,175.242C101.203,175.312 101.107,175.378 100.99,175.442C100.873,175.505 100.735,175.562 100.575,175.612C100.415,175.662 100.232,175.687 100.025,175.687C99.685,175.687 99.383,175.628 99.12,175.512C98.857,175.395 98.635,175.235 98.455,175.032C98.275,174.828 98.138,174.585 98.045,174.302C97.952,174.018 97.905,173.71 97.905,173.377C97.905,173.017 97.968,172.685 98.095,172.382C98.222,172.078 98.4,171.815 98.63,171.592C98.86,171.368 99.135,171.195 99.455,171.072C99.775,170.948 100.132,170.887 100.525,170.887C100.905,170.887 101.258,170.92 101.585,170.987C101.912,171.053 102.175,171.127 102.375,171.207L102.375,175.647C102.375,176.32 102.18,176.842 101.79,177.212C101.4,177.582 100.852,177.767 100.145,177.767C99.672,177.767 99.295,177.715 99.015,177.612C98.735,177.508 98.508,177.39 98.335,177.257L98.755,176.597Z" style="fill-rule:nonzero;"/>
            <rect x="76.242" y="159.48" width="2.216" height="0.943" style="fill-rule:nonzero;"/>
            <path d="M103.05,160.807L103.05,159.704L101.634,159.704L101.634,158.288L100.531,158.288L100.531,159.704L99.115,159.704L99.115,160.807L100.531,160.807L100.531,162.223L101.634,162.223L101.634,160.807L103.05,160.807Z" style="fill-rule:nonzero;"/>
            <path d="M30,154.946L32,154.946L32,153.946L30,153.946" style="fill-rule:nonzero;"/>
            <path d="M34,154.946L38,154.946L38,153.946L34,153.946L34,154.946ZM40,154.946L44,154.946L44,153.946L40,153.946L40,154.946ZM46,154.946L50,154.946L50,153.946L46,153.946L46,154.946ZM52,154.946L56,154.946L56,153.946L52,153.946L52,154.946ZM58,154.946L62,154.946L62,153.946L58,153.946L58,154.946ZM64,154.946L68,154.946L68,153.946L64,153.946L64,154.946ZM70,154.946L74,154.946L74,153.946L70,153.946L70,154.946ZM76,154.946L80,154.946L80,153.946L76,153.946L76,154.946ZM82,154.946L86,154.946L86,153.946L82,153.946L82,154.946ZM88,154.946L92,154.946L92,153.946L88,153.946L88,154.946ZM94,154.946L98,154.946L98,153.946L94,153.946L94,154.946ZM100,154.946L104,154.946L104,153.946L100,153.946L100,154.946ZM106,154.946L110,154.946L110,153.946L106,153.946L106,154.946ZM112,154.946L116,154.946L116,153.946L112,153.946L112,154.946ZM118,154.946L122,154.946L122,153.946L118,153.946L118,154.946ZM124,154.946L128,154.946L128,153.946L124,153.946L124,154.946ZM130,154.946L134,154.946L134,153.946L130,153.946L130,154.946ZM136,154.946L140,154.946L140,153.946L136,153.946L136,154.946ZM142,154.946L146,154.946L146,153.946L142,153.946L142,154.946Z" style="fill-rule:nonzero;"/>
            <path d="M148,154.946L150,154.946L150,153.946L148,153.946" style="fill-rule:nonzero;"/>
        </g>
        <g>
            <path d="M70.7,219.159L71.77,219.159L73.8,224.639L75.83,219.159L76.84,219.159L74.26,225.829L73.28,225.829L70.7,219.159Z" style="fill-rule:nonzero;"/>
            <path d="M79.86,223.629C79.833,223.622 79.782,223.614 79.705,223.604C79.628,223.594 79.54,223.586 79.44,223.579C79.34,223.572 79.233,223.566 79.12,223.559C79.007,223.552 78.897,223.549 78.79,223.549C78.537,223.549 78.332,223.579 78.175,223.639C78.018,223.699 77.895,223.774 77.805,223.864C77.715,223.954 77.653,224.054 77.62,224.164C77.587,224.274 77.57,224.379 77.57,224.479C77.57,224.732 77.657,224.924 77.83,225.054C78.003,225.184 78.243,225.249 78.55,225.249C78.723,225.249 78.888,225.219 79.045,225.159C79.202,225.099 79.34,225.019 79.46,224.919C79.58,224.819 79.677,224.702 79.75,224.569C79.823,224.436 79.86,224.299 79.86,224.159L79.86,223.629ZM79.87,225.269C79.697,225.502 79.468,225.676 79.185,225.789C78.902,225.902 78.61,225.959 78.31,225.959C78.117,225.959 77.925,225.934 77.735,225.884C77.545,225.834 77.372,225.751 77.215,225.634C77.058,225.517 76.932,225.367 76.835,225.184C76.738,225.001 76.69,224.776 76.69,224.509C76.69,224.009 76.865,223.609 77.215,223.309C77.565,223.009 78.07,222.859 78.73,222.859C78.837,222.859 78.95,222.862 79.07,222.869C79.19,222.876 79.303,222.882 79.41,222.889C79.517,222.896 79.61,222.902 79.69,222.909C79.77,222.916 79.827,222.922 79.86,222.929L79.86,222.759C79.86,222.412 79.755,222.164 79.545,222.014C79.335,221.864 79.05,221.789 78.69,221.789C78.337,221.789 78.057,221.837 77.85,221.934C77.643,222.031 77.47,222.129 77.33,222.229L76.91,221.619C76.99,221.552 77.087,221.486 77.2,221.419C77.313,221.352 77.447,221.291 77.6,221.234C77.753,221.177 77.927,221.131 78.12,221.094C78.313,221.057 78.537,221.039 78.79,221.039C79.39,221.039 79.862,221.184 80.205,221.474C80.548,221.764 80.72,222.176 80.72,222.709L80.72,225.414C80.72,225.577 80.723,225.716 80.73,225.829L79.89,225.829L79.87,225.269Z" style="fill-rule:nonzero;"/>
            <path d="M81.95,225.829L81.95,221.624C81.95,221.481 81.947,221.332 81.94,221.179L82.8,221.179L82.83,221.929C82.883,221.849 82.953,221.761 83.04,221.664C83.127,221.567 83.232,221.479 83.355,221.399C83.478,221.319 83.622,221.251 83.785,221.194C83.948,221.137 84.137,221.109 84.35,221.109C84.45,221.109 84.542,221.116 84.625,221.129C84.708,221.142 84.787,221.162 84.86,221.189L84.66,222.029C84.54,221.982 84.387,221.959 84.2,221.959C84.007,221.959 83.828,221.996 83.665,222.069C83.502,222.142 83.36,222.244 83.24,222.374C83.12,222.504 83.025,222.656 82.955,222.829C82.885,223.002 82.85,223.186 82.85,223.379L82.85,225.829L81.95,225.829Z" style="fill-rule:nonzero;"/>
            <path d="M85.57,219.339L86.58,219.339L86.58,220.349L85.57,220.349L85.57,219.339ZM85.63,221.179L86.53,221.179L86.53,225.829L85.63,225.829L85.63,221.179Z" style="fill-rule:nonzero;"/>
            <path d="M90.71,223.629C90.683,223.622 90.632,223.614 90.555,223.604C90.478,223.594 90.39,223.586 90.29,223.579C90.19,223.572 90.083,223.566 89.97,223.559C89.857,223.552 89.747,223.549 89.64,223.549C89.387,223.549 89.182,223.579 89.025,223.639C88.868,223.699 88.745,223.774 88.655,223.864C88.565,223.954 88.503,224.054 88.47,224.164C88.437,224.274 88.42,224.379 88.42,224.479C88.42,224.732 88.507,224.924 88.68,225.054C88.853,225.184 89.093,225.249 89.4,225.249C89.573,225.249 89.738,225.219 89.895,225.159C90.052,225.099 90.19,225.019 90.31,224.919C90.43,224.819 90.527,224.702 90.6,224.569C90.673,224.436 90.71,224.299 90.71,224.159L90.71,223.629ZM90.72,225.269C90.547,225.502 90.318,225.676 90.035,225.789C89.752,225.902 89.46,225.959 89.16,225.959C88.967,225.959 88.775,225.934 88.585,225.884C88.395,225.834 88.222,225.751 88.065,225.634C87.908,225.517 87.782,225.367 87.685,225.184C87.588,225.001 87.54,224.776 87.54,224.509C87.54,224.009 87.715,223.609 88.065,223.309C88.415,223.009 88.92,222.859 89.58,222.859C89.687,222.859 89.8,222.862 89.92,222.869C90.04,222.876 90.153,222.882 90.26,222.889C90.367,222.896 90.46,222.902 90.54,222.909C90.62,222.916 90.677,222.922 90.71,222.929L90.71,222.759C90.71,222.412 90.605,222.164 90.395,222.014C90.185,221.864 89.9,221.789 89.54,221.789C89.187,221.789 88.907,221.837 88.7,221.934C88.493,222.031 88.32,222.129 88.18,222.229L87.76,221.619C87.84,221.552 87.937,221.486 88.05,221.419C88.163,221.352 88.297,221.291 88.45,221.234C88.603,221.177 88.777,221.131 88.97,221.094C89.163,221.057 89.387,221.039 89.64,221.039C90.24,221.039 90.712,221.184 91.055,221.474C91.398,221.764 91.57,222.176 91.57,222.709L91.57,225.414C91.57,225.577 91.573,225.716 91.58,225.829L90.74,225.829L90.72,225.269Z" style="fill-rule:nonzero;"/>
            <path d="M93.2,221.929L92.36,221.929L92.36,221.179L93.2,221.179L93.2,219.659L94.1,219.659L94.1,221.179L95.46,221.179L95.46,221.929L94.1,221.929L94.1,224.219C94.1,224.592 94.158,224.849 94.275,224.989C94.392,225.129 94.557,225.199 94.77,225.199C94.943,225.199 95.087,225.172 95.2,225.119C95.313,225.066 95.427,224.986 95.54,224.879L95.95,225.429C95.757,225.616 95.558,225.751 95.355,225.834C95.152,225.917 94.91,225.959 94.63,225.959C94.137,225.959 93.775,225.826 93.545,225.559C93.315,225.292 93.2,224.876 93.2,224.309L93.2,221.929Z" style="fill-rule:nonzero;"/>
            <path d="M96.62,219.339L97.63,219.339L97.63,220.349L96.62,220.349L96.62,219.339ZM96.68,221.179L97.58,221.179L97.58,225.829L96.68,225.829L96.68,221.179Z" style="fill-rule:nonzero;"/>
            <path d="M101.1,225.969C100.74,225.969 100.41,225.904 100.11,225.774C99.81,225.644 99.552,225.466 99.335,225.239C99.118,225.012 98.948,224.751 98.825,224.454C98.702,224.157 98.64,223.839 98.64,223.499C98.64,223.159 98.702,222.841 98.825,222.544C98.948,222.247 99.118,221.986 99.335,221.759C99.552,221.532 99.81,221.354 100.11,221.224C100.41,221.094 100.74,221.029 101.1,221.029C101.453,221.029 101.78,221.094 102.08,221.224C102.38,221.354 102.64,221.532 102.86,221.759C103.08,221.986 103.252,222.247 103.375,222.544C103.498,222.841 103.56,223.159 103.56,223.499C103.56,223.839 103.498,224.157 103.375,224.454C103.252,224.751 103.08,225.012 102.86,225.239C102.64,225.466 102.38,225.644 102.08,225.774C101.78,225.904 101.453,225.969 101.1,225.969ZM101.1,225.189C101.34,225.189 101.557,225.141 101.75,225.044C101.943,224.947 102.107,224.821 102.24,224.664C102.373,224.507 102.475,224.327 102.545,224.124C102.615,223.921 102.65,223.712 102.65,223.499C102.65,223.292 102.615,223.087 102.545,222.884C102.475,222.681 102.372,222.499 102.235,222.339C102.098,222.179 101.935,222.051 101.745,221.954C101.555,221.857 101.34,221.809 101.1,221.809C100.86,221.809 100.643,221.857 100.45,221.954C100.257,222.051 100.093,222.177 99.96,222.334C99.827,222.491 99.725,222.671 99.655,222.874C99.585,223.077 99.55,223.286 99.55,223.499C99.55,223.712 99.585,223.919 99.655,224.119C99.725,224.319 99.828,224.499 99.965,224.659C100.102,224.819 100.265,224.947 100.455,225.044C100.645,225.141 100.86,225.189 101.1,225.189Z" style="fill-rule:nonzero;"/>
            <path d="M104.58,225.829L104.58,221.654C104.58,221.504 104.577,221.346 104.57,221.179L105.43,221.179L105.46,221.879C105.52,221.799 105.593,221.711 105.68,221.614C105.767,221.517 105.873,221.429 106,221.349C106.127,221.269 106.275,221.202 106.445,221.149C106.615,221.096 106.807,221.069 107.02,221.069C107.627,221.069 108.077,221.246 108.37,221.599C108.663,221.952 108.81,222.432 108.81,223.039L108.81,225.829L107.91,225.829L107.91,223.109C107.91,222.676 107.817,222.357 107.63,222.154C107.443,221.951 107.18,221.849 106.84,221.849C106.58,221.849 106.363,221.902 106.19,222.009C106.017,222.116 105.878,222.254 105.775,222.424C105.672,222.594 105.597,222.787 105.55,223.004C105.503,223.221 105.48,223.442 105.48,223.669L105.48,225.829L104.58,225.829Z" style="fill-rule:nonzero;"/>
            <rect x="74.406" y="209.662" width="2.216" height="0.943" style="fill-rule:nonzero;"/>
            <path d="M101.214,210.989L101.214,209.886L99.798,209.886L99.798,208.47L98.695,208.47L98.695,209.886L97.279,209.886L97.279,210.989L98.695,210.989L98.695,212.405L99.798,212.405L99.798,210.989L101.214,210.989Z" style="fill-rule:nonzero;"/>
            <path d="M28.164,205.128L30.164,205.128L30.164,204.128L28.164,204.128" style="fill-rule:nonzero;"/>
            <path d="M32.164,205.128L36.164,205.128L36.164,204.128L32.164,204.128L32.164,205.128ZM38.164,205.128L42.164,205.128L42.164,204.128L38.164,204.128L38.164,205.128ZM44.164,205.128L48.164,205.128L48.164,204.128L44.164,204.128L44.164,205.128ZM50.164,205.128L54.164,205.128L54.164,204.128L50.164,204.128L50.164,205.128ZM56.164,205.128L60.164,205.128L60.164,204.128L56.164,204.128L56.164,205.128ZM62.164,205.128L66.164,205.128L66.164,204.128L62.164,204.128L62.164,205.128ZM68.164,205.128L72.164,205.128L72.164,204.128L68.164,204.128L68.164,205.128ZM74.164,205.128L78.164,205.128L78.164,204.128L74.164,204.128L74.164,205.128ZM80.164,205.128L84.164,205.128L84.164,204.128L80.164,204.128L80.164,205.128ZM86.164,205.128L90.164,205.128L90.164,204.128L86.164,204.128L86.164,205.128ZM92.164,205.128L96.164,205.128L96.164,204.128L92.164,204.128L92.164,205.128ZM98.164,205.128L102.164,205.128L102.164,204.128L98.164,204.128L98.164,205.128ZM104.164,205.128L108.164,205.128L108.164,204.128L104.164,204.128L104.164,205.128ZM110.164,205.128L114.164,205.128L114.164,204.128L110.164,204.128L110.164,205.128ZM116.164,205.128L120.164,205.128L120.164,204.128L116.164,204.128L116.164,205.128ZM122.164,205.128L126.164,205.128L126.164,204.128L122.164,204.128L122.164,205.128ZM128.164,205.128L132.164,205.128L132.164,204.128L128.164,204.128L128.164,205.128ZM134.164,205.128L138.164,205.128L138.164,204.128L134.164,204.128L134.164,205.128ZM140.164,205.128L144.164,205.128L144.164,204.128L140.164,204.128L140.164,205.128Z" style="fill-rule:nonzero;"/>
            <path d="M146.164,205.128L148.164,205.128L148.164,204.128L146.164,204.128" style="fill-rule:nonzero;"/>
        </g>
        <g>
            <path d="M175.381,318.414C175.381,313.397 171.308,309.324 166.291,309.324L14.117,309.324C9.1,309.324 5.027,313.397 5.027,318.414L5.027,345.567C5.027,350.584 9.1,354.657 14.117,354.657L166.291,354.657C171.308,354.657 175.381,350.584 175.381,345.567L175.381,318.414Z"/>
            <path d="M140.723,347.589L143.531,347.589L143.531,350.781C143.379,350.917 143.205,351.049 143.009,351.177C142.813,351.305 142.585,351.419 142.325,351.519C142.065,351.619 141.775,351.699 141.455,351.759C141.135,351.819 140.775,351.849 140.375,351.849C139.751,351.849 139.189,351.743 138.689,351.531C138.189,351.319 137.761,351.027 137.405,350.655C137.049,350.283 136.777,349.843 136.589,349.335C136.401,348.827 136.307,348.273 136.307,347.673C136.307,347.089 136.405,346.541 136.601,346.029C136.797,345.517 137.071,345.071 137.423,344.691C137.775,344.311 138.197,344.011 138.689,343.791C139.181,343.571 139.727,343.461 140.327,343.461C140.751,343.461 141.131,343.511 141.467,343.611C141.803,343.711 142.097,343.839 142.349,343.995C142.601,344.151 142.815,344.321 142.991,344.505C143.167,344.689 143.315,344.865 143.435,345.033L142.619,345.729C142.523,345.593 142.407,345.451 142.271,345.303C142.135,345.155 141.975,345.021 141.791,344.901C141.607,344.781 141.397,344.681 141.161,344.601C140.925,344.521 140.655,344.481 140.351,344.481C139.911,344.481 139.515,344.565 139.163,344.733C138.811,344.901 138.513,345.129 138.269,345.417C138.025,345.705 137.837,346.043 137.705,346.431C137.573,346.819 137.507,347.229 137.507,347.661C137.507,348.125 137.579,348.549 137.723,348.933C137.867,349.317 138.069,349.647 138.329,349.923C138.589,350.199 138.895,350.415 139.247,350.571C139.599,350.727 139.987,350.805 140.411,350.805C140.875,350.805 141.269,350.753 141.593,350.649C141.917,350.545 142.195,350.401 142.427,350.217L142.427,348.585L140.723,348.585L140.723,347.589Z" style="fill:white;fill-rule:nonzero;"/>
            <path d="M148.601,349.017C148.569,349.009 148.507,348.999 148.415,348.987C148.323,348.975 148.217,348.965 148.097,348.957C147.977,348.949 147.849,348.941 147.713,348.933C147.577,348.925 147.445,348.921 147.317,348.921C147.013,348.921 146.767,348.957 146.579,349.029C146.391,349.101 146.243,349.191 146.135,349.299C146.027,349.407 145.953,349.527 145.913,349.659C145.873,349.791 145.853,349.917 145.853,350.037C145.853,350.341 145.957,350.571 146.165,350.727C146.373,350.883 146.661,350.961 147.029,350.961C147.237,350.961 147.435,350.925 147.623,350.853C147.811,350.781 147.977,350.685 148.121,350.565C148.265,350.445 148.381,350.305 148.469,350.145C148.557,349.985 148.601,349.821 148.601,349.653L148.601,349.017ZM148.613,350.985C148.405,351.265 148.131,351.473 147.791,351.609C147.451,351.745 147.101,351.813 146.741,351.813C146.509,351.813 146.279,351.783 146.051,351.723C145.823,351.663 145.615,351.563 145.427,351.423C145.239,351.283 145.087,351.103 144.971,350.883C144.855,350.663 144.797,350.393 144.797,350.073C144.797,349.473 145.007,348.993 145.427,348.633C145.847,348.273 146.453,348.093 147.245,348.093C147.373,348.093 147.509,348.097 147.653,348.105C147.797,348.113 147.933,348.121 148.061,348.129C148.189,348.137 148.301,348.145 148.397,348.153C148.493,348.161 148.561,348.169 148.601,348.177L148.601,347.973C148.601,347.557 148.475,347.259 148.223,347.079C147.971,346.899 147.629,346.809 147.197,346.809C146.773,346.809 146.437,346.867 146.189,346.983C145.941,347.099 145.733,347.217 145.565,347.337L145.061,346.605C145.157,346.525 145.273,346.445 145.409,346.365C145.545,346.285 145.705,346.211 145.889,346.143C146.073,346.075 146.281,346.019 146.513,345.975C146.745,345.931 147.013,345.909 147.317,345.909C148.037,345.909 148.603,346.083 149.015,346.431C149.427,346.779 149.633,347.273 149.633,347.913L149.633,351.159C149.633,351.355 149.637,351.521 149.645,351.657L148.637,351.657L148.613,350.985Z" style="fill:white;fill-rule:nonzero;"/>
            <path d="M151.595,346.977L150.587,346.977L150.587,346.077L151.595,346.077L151.595,344.253L152.675,344.253L152.675,346.077L154.307,346.077L154.307,346.977L152.675,346.977L152.675,349.725C152.675,350.173 152.745,350.481 152.885,350.649C153.025,350.817 153.223,350.901 153.479,350.901C153.687,350.901 153.859,350.869 153.995,350.805C154.131,350.741 154.267,350.645 154.403,350.517L154.895,351.177C154.663,351.401 154.425,351.563 154.181,351.663C153.937,351.763 153.647,351.813 153.311,351.813C152.719,351.813 152.285,351.653 152.009,351.333C151.733,351.013 151.595,350.513 151.595,349.833L151.595,346.977Z" style="fill:white;fill-rule:nonzero;"/>
            <path d="M160.817,350.841C160.753,350.913 160.657,351.005 160.529,351.117C160.401,351.229 160.235,351.337 160.031,351.441C159.827,351.545 159.587,351.635 159.311,351.711C159.035,351.787 158.721,351.825 158.369,351.825C157.937,351.825 157.541,351.753 157.181,351.609C156.821,351.465 156.513,351.261 156.257,350.997C156.001,350.733 155.803,350.417 155.663,350.049C155.523,349.681 155.453,349.273 155.453,348.825C155.453,348.417 155.521,348.035 155.657,347.679C155.793,347.323 155.985,347.015 156.233,346.755C156.481,346.495 156.775,346.289 157.115,346.137C157.455,345.985 157.829,345.909 158.237,345.909C158.717,345.909 159.129,346.001 159.473,346.185C159.817,346.369 160.099,346.613 160.319,346.917C160.539,347.221 160.701,347.569 160.805,347.961C160.909,348.353 160.961,348.761 160.961,349.185L156.557,349.185C156.565,349.433 156.619,349.661 156.719,349.869C156.819,350.077 156.953,350.257 157.121,350.409C157.289,350.561 157.481,350.681 157.697,350.769C157.913,350.857 158.141,350.901 158.381,350.901C158.853,350.901 159.241,350.821 159.545,350.661C159.849,350.501 160.069,350.345 160.205,350.193L160.817,350.841ZM159.845,348.381C159.813,347.949 159.661,347.581 159.389,347.277C159.117,346.973 158.733,346.821 158.237,346.821C157.981,346.821 157.751,346.865 157.547,346.953C157.343,347.041 157.169,347.157 157.025,347.301C156.881,347.445 156.769,347.611 156.689,347.799C156.609,347.987 156.565,348.181 156.557,348.381L159.845,348.381Z" style="fill:white;fill-rule:nonzero;"/>
            <path d="M162.527,350.253C162.727,350.453 162.967,350.613 163.247,350.733C163.527,350.853 163.851,350.913 164.219,350.913C164.579,350.913 164.879,350.855 165.119,350.739C165.359,350.623 165.479,350.441 165.479,350.193C165.479,350.065 165.453,349.955 165.401,349.863C165.349,349.771 165.261,349.689 165.137,349.617C165.013,349.545 164.849,349.479 164.645,349.419C164.441,349.359 164.187,349.293 163.883,349.221C163.667,349.173 163.453,349.109 163.241,349.029C163.029,348.949 162.839,348.843 162.671,348.711C162.503,348.579 162.367,348.419 162.263,348.231C162.159,348.043 162.107,347.817 162.107,347.553C162.107,347.281 162.169,347.043 162.293,346.839C162.417,346.635 162.583,346.463 162.791,346.323C162.999,346.183 163.233,346.077 163.493,346.005C163.753,345.933 164.023,345.897 164.303,345.897C164.775,345.897 165.181,345.959 165.521,346.083C165.861,346.207 166.159,346.381 166.415,346.605L165.827,347.349C165.659,347.197 165.449,347.069 165.197,346.965C164.945,346.861 164.651,346.809 164.315,346.809C163.971,346.809 163.695,346.865 163.487,346.977C163.279,347.089 163.175,347.273 163.175,347.529C163.175,347.769 163.313,347.947 163.589,348.063C163.865,348.179 164.227,348.289 164.675,348.393C164.939,348.457 165.185,348.531 165.413,348.615C165.641,348.699 165.841,348.807 166.013,348.939C166.185,349.071 166.321,349.233 166.421,349.425C166.521,349.617 166.571,349.849 166.571,350.121C166.571,350.401 166.507,350.647 166.379,350.859C166.251,351.071 166.079,351.249 165.863,351.393C165.647,351.537 165.399,351.645 165.119,351.717C164.839,351.789 164.547,351.825 164.243,351.825C163.187,351.825 162.395,351.541 161.867,350.973L162.527,350.253Z" style="fill:white;fill-rule:nonzero;"/>
            <path d="M70.236,343.653L72.768,343.653C73.312,343.653 73.762,343.729 74.118,343.881C74.474,344.033 74.758,344.225 74.97,344.457C75.182,344.689 75.33,344.949 75.414,345.237C75.498,345.525 75.54,345.805 75.54,346.077C75.54,346.477 75.472,346.829 75.336,347.133C75.2,347.437 75.012,347.691 74.772,347.895C74.532,348.099 74.246,348.253 73.914,348.357C73.582,348.461 73.22,348.513 72.828,348.513L71.376,348.513L71.376,351.657L70.236,351.657L70.236,343.653ZM72.816,347.529C73.312,347.529 73.694,347.403 73.962,347.151C74.23,346.899 74.364,346.549 74.364,346.101C74.364,345.645 74.226,345.287 73.95,345.027C73.674,344.767 73.296,344.637 72.816,344.637L71.376,344.637L71.376,347.529L72.816,347.529Z" style="fill:white;fill-rule:nonzero;"/>
            <path d="M76.614,343.653L77.682,343.653L77.682,346.905C77.754,346.809 77.842,346.705 77.946,346.593C78.05,346.481 78.178,346.377 78.33,346.281C78.482,346.185 78.658,346.105 78.858,346.041C79.058,345.977 79.286,345.945 79.542,345.945C80.27,345.945 80.81,346.157 81.162,346.581C81.514,347.005 81.69,347.581 81.69,348.309L81.69,351.657L80.61,351.657L80.61,348.393C80.61,347.873 80.498,347.491 80.274,347.247C80.05,347.003 79.734,346.881 79.326,346.881C79.014,346.881 78.754,346.945 78.546,347.073C78.338,347.201 78.172,347.367 78.048,347.571C77.924,347.775 77.834,348.007 77.778,348.267C77.722,348.527 77.694,348.793 77.694,349.065L77.694,351.657L76.614,351.657L76.614,343.653Z" style="fill:white;fill-rule:nonzero;"/>
            <path d="M86.628,349.017C86.596,349.009 86.534,348.999 86.442,348.987C86.35,348.975 86.244,348.965 86.124,348.957C86.004,348.949 85.876,348.941 85.74,348.933C85.604,348.925 85.472,348.921 85.344,348.921C85.04,348.921 84.794,348.957 84.606,349.029C84.418,349.101 84.27,349.191 84.162,349.299C84.054,349.407 83.98,349.527 83.94,349.659C83.9,349.791 83.88,349.917 83.88,350.037C83.88,350.341 83.984,350.571 84.192,350.727C84.4,350.883 84.688,350.961 85.056,350.961C85.264,350.961 85.462,350.925 85.65,350.853C85.838,350.781 86.004,350.685 86.148,350.565C86.292,350.445 86.408,350.305 86.496,350.145C86.584,349.985 86.628,349.821 86.628,349.653L86.628,349.017ZM86.64,350.985C86.432,351.265 86.158,351.473 85.818,351.609C85.478,351.745 85.128,351.813 84.768,351.813C84.536,351.813 84.306,351.783 84.078,351.723C83.85,351.663 83.642,351.563 83.454,351.423C83.266,351.283 83.114,351.103 82.998,350.883C82.882,350.663 82.824,350.393 82.824,350.073C82.824,349.473 83.034,348.993 83.454,348.633C83.874,348.273 84.48,348.093 85.272,348.093C85.4,348.093 85.536,348.097 85.68,348.105C85.824,348.113 85.96,348.121 86.088,348.129C86.216,348.137 86.328,348.145 86.424,348.153C86.52,348.161 86.588,348.169 86.628,348.177L86.628,347.973C86.628,347.557 86.502,347.259 86.25,347.079C85.998,346.899 85.656,346.809 85.224,346.809C84.8,346.809 84.464,346.867 84.216,346.983C83.968,347.099 83.76,347.217 83.592,347.337L83.088,346.605C83.184,346.525 83.3,346.445 83.436,346.365C83.572,346.285 83.732,346.211 83.916,346.143C84.1,346.075 84.308,346.019 84.54,345.975C84.772,345.931 85.04,345.909 85.344,345.909C86.064,345.909 86.63,346.083 87.042,346.431C87.454,346.779 87.66,347.273 87.66,347.913L87.66,351.159C87.66,351.355 87.664,351.521 87.672,351.657L86.664,351.657L86.64,350.985Z" style="fill:white;fill-rule:nonzero;"/>
            <path d="M89.502,350.253C89.702,350.453 89.942,350.613 90.222,350.733C90.502,350.853 90.826,350.913 91.194,350.913C91.554,350.913 91.854,350.855 92.094,350.739C92.334,350.623 92.454,350.441 92.454,350.193C92.454,350.065 92.428,349.955 92.376,349.863C92.324,349.771 92.236,349.689 92.112,349.617C91.988,349.545 91.824,349.479 91.62,349.419C91.416,349.359 91.162,349.293 90.858,349.221C90.642,349.173 90.428,349.109 90.216,349.029C90.004,348.949 89.814,348.843 89.646,348.711C89.478,348.579 89.342,348.419 89.238,348.231C89.134,348.043 89.082,347.817 89.082,347.553C89.082,347.281 89.144,347.043 89.268,346.839C89.392,346.635 89.558,346.463 89.766,346.323C89.974,346.183 90.208,346.077 90.468,346.005C90.728,345.933 90.998,345.897 91.278,345.897C91.75,345.897 92.156,345.959 92.496,346.083C92.836,346.207 93.134,346.381 93.39,346.605L92.802,347.349C92.634,347.197 92.424,347.069 92.172,346.965C91.92,346.861 91.626,346.809 91.29,346.809C90.946,346.809 90.67,346.865 90.462,346.977C90.254,347.089 90.15,347.273 90.15,347.529C90.15,347.769 90.288,347.947 90.564,348.063C90.84,348.179 91.202,348.289 91.65,348.393C91.914,348.457 92.16,348.531 92.388,348.615C92.616,348.699 92.816,348.807 92.988,348.939C93.16,349.071 93.296,349.233 93.396,349.425C93.496,349.617 93.546,349.849 93.546,350.121C93.546,350.401 93.482,350.647 93.354,350.859C93.226,351.071 93.054,351.249 92.838,351.393C92.622,351.537 92.374,351.645 92.094,351.717C91.814,351.789 91.522,351.825 91.218,351.825C90.162,351.825 89.37,351.541 88.842,350.973L89.502,350.253Z" style="fill:white;fill-rule:nonzero;"/>
            <path d="M97.5,351.825C97.068,351.825 96.672,351.747 96.312,351.591C95.952,351.435 95.642,351.221 95.382,350.949C95.122,350.677 94.918,350.363 94.77,350.007C94.622,349.651 94.548,349.269 94.548,348.861C94.548,348.453 94.622,348.071 94.77,347.715C94.918,347.359 95.122,347.045 95.382,346.773C95.642,346.501 95.952,346.287 96.312,346.131C96.672,345.975 97.068,345.897 97.5,345.897C97.924,345.897 98.316,345.975 98.676,346.131C99.036,346.287 99.348,346.501 99.612,346.773C99.876,347.045 100.082,347.359 100.23,347.715C100.378,348.071 100.452,348.453 100.452,348.861C100.452,349.269 100.378,349.651 100.23,350.007C100.082,350.363 99.876,350.677 99.612,350.949C99.348,351.221 99.036,351.435 98.676,351.591C98.316,351.747 97.924,351.825 97.5,351.825ZM97.5,350.889C97.788,350.889 98.048,350.831 98.28,350.715C98.512,350.599 98.708,350.447 98.868,350.259C99.028,350.071 99.15,349.855 99.234,349.611C99.318,349.367 99.36,349.117 99.36,348.861C99.36,348.613 99.318,348.367 99.234,348.123C99.15,347.879 99.026,347.661 98.862,347.469C98.698,347.277 98.502,347.123 98.274,347.007C98.046,346.891 97.788,346.833 97.5,346.833C97.212,346.833 96.952,346.891 96.72,347.007C96.488,347.123 96.292,347.275 96.132,347.463C95.972,347.651 95.85,347.867 95.766,348.111C95.682,348.355 95.64,348.605 95.64,348.861C95.64,349.117 95.682,349.365 95.766,349.605C95.85,349.845 95.974,350.061 96.138,350.253C96.302,350.445 96.498,350.599 96.726,350.715C96.954,350.831 97.212,350.889 97.5,350.889Z" style="fill:white;fill-rule:nonzero;"/>
            <path d="M101.682,351.657L101.682,346.611C101.682,346.439 101.678,346.261 101.67,346.077L102.702,346.077L102.738,346.977C102.802,346.881 102.886,346.775 102.99,346.659C103.094,346.543 103.22,346.437 103.368,346.341C103.516,346.245 103.688,346.163 103.884,346.095C104.08,346.027 104.306,345.993 104.562,345.993C104.682,345.993 104.792,346.001 104.892,346.017C104.992,346.033 105.086,346.057 105.174,346.089L104.934,347.097C104.79,347.041 104.606,347.013 104.382,347.013C104.15,347.013 103.936,347.057 103.74,347.145C103.544,347.233 103.374,347.355 103.23,347.511C103.086,347.667 102.972,347.849 102.888,348.057C102.804,348.265 102.762,348.485 102.762,348.717L102.762,351.657L101.682,351.657Z" style="fill:white;fill-rule:nonzero;"/>
            <path d="M106.116,350.253C106.316,350.453 106.556,350.613 106.836,350.733C107.116,350.853 107.44,350.913 107.808,350.913C108.168,350.913 108.468,350.855 108.708,350.739C108.948,350.623 109.068,350.441 109.068,350.193C109.068,350.065 109.042,349.955 108.99,349.863C108.938,349.771 108.85,349.689 108.726,349.617C108.602,349.545 108.438,349.479 108.234,349.419C108.03,349.359 107.776,349.293 107.472,349.221C107.256,349.173 107.042,349.109 106.83,349.029C106.618,348.949 106.428,348.843 106.26,348.711C106.092,348.579 105.956,348.419 105.852,348.231C105.748,348.043 105.696,347.817 105.696,347.553C105.696,347.281 105.758,347.043 105.882,346.839C106.006,346.635 106.172,346.463 106.38,346.323C106.588,346.183 106.822,346.077 107.082,346.005C107.342,345.933 107.612,345.897 107.892,345.897C108.364,345.897 108.77,345.959 109.11,346.083C109.45,346.207 109.748,346.381 110.004,346.605L109.416,347.349C109.248,347.197 109.038,347.069 108.786,346.965C108.534,346.861 108.24,346.809 107.904,346.809C107.56,346.809 107.284,346.865 107.076,346.977C106.868,347.089 106.764,347.273 106.764,347.529C106.764,347.769 106.902,347.947 107.178,348.063C107.454,348.179 107.816,348.289 108.264,348.393C108.528,348.457 108.774,348.531 109.002,348.615C109.23,348.699 109.43,348.807 109.602,348.939C109.774,349.071 109.91,349.233 110.01,349.425C110.11,349.617 110.16,349.849 110.16,350.121C110.16,350.401 110.096,350.647 109.968,350.859C109.84,351.071 109.668,351.249 109.452,351.393C109.236,351.537 108.988,351.645 108.708,351.717C108.428,351.789 108.136,351.825 107.832,351.825C106.776,351.825 105.984,351.541 105.456,350.973L106.116,350.253Z" style="fill:white;fill-rule:nonzero;"/>
            <path d="M22.596,351.861C22.02,351.861 21.484,351.751 20.988,351.531C20.492,351.311 20.06,351.011 19.692,350.631C19.324,350.251 19.036,349.805 18.828,349.293C18.62,348.781 18.516,348.233 18.516,347.649C18.516,347.065 18.62,346.519 18.828,346.011C19.036,345.503 19.322,345.059 19.686,344.679C20.05,344.299 20.482,343.999 20.982,343.779C21.482,343.559 22.02,343.449 22.596,343.449C23.172,343.449 23.71,343.559 24.21,343.779C24.71,343.999 25.144,344.299 25.512,344.679C25.88,345.059 26.168,345.503 26.376,346.011C26.584,346.519 26.688,347.065 26.688,347.649C26.688,348.233 26.584,348.781 26.376,349.293C26.168,349.805 25.88,350.251 25.512,350.631C25.144,351.011 24.71,351.311 24.21,351.531C23.71,351.751 23.172,351.861 22.596,351.861ZM22.596,350.781C23.036,350.781 23.434,350.697 23.79,350.529C24.146,350.361 24.45,350.133 24.702,349.845C24.954,349.557 25.148,349.223 25.284,348.843C25.42,348.463 25.488,348.061 25.488,347.637C25.488,347.205 25.42,346.799 25.284,346.419C25.148,346.039 24.954,345.705 24.702,345.417C24.45,345.129 24.146,344.903 23.79,344.739C23.434,344.575 23.036,344.493 22.596,344.493C22.156,344.493 21.76,344.575 21.408,344.739C21.056,344.903 20.754,345.129 20.502,345.417C20.25,345.705 20.056,346.039 19.92,346.419C19.784,346.799 19.716,347.205 19.716,347.637C19.716,348.061 19.784,348.463 19.92,348.843C20.056,349.223 20.25,349.557 20.502,349.845C20.754,350.133 21.056,350.361 21.408,350.529C21.76,350.697 22.156,350.781 22.596,350.781Z" style="fill:white;fill-rule:nonzero;"/>
            <path d="M27.99,346.077L29.07,346.077L29.07,349.353C29.07,349.881 29.178,350.263 29.394,350.499C29.61,350.735 29.922,350.853 30.33,350.853C30.642,350.853 30.9,350.789 31.104,350.661C31.308,350.533 31.474,350.367 31.602,350.163C31.73,349.959 31.82,349.727 31.872,349.467C31.924,349.207 31.95,348.941 31.95,348.669L31.95,346.077L33.03,346.077L33.03,351.087C33.03,351.267 33.034,351.457 33.042,351.657L32.01,351.657L31.974,350.829C31.902,350.925 31.814,351.029 31.71,351.141C31.606,351.253 31.478,351.355 31.326,351.447C31.174,351.539 30.998,351.617 30.798,351.681C30.598,351.745 30.37,351.777 30.114,351.777C29.386,351.777 28.85,351.567 28.506,351.147C28.162,350.727 27.99,350.153 27.99,349.425L27.99,346.077Z" style="fill:white;fill-rule:nonzero;"/>
            <path d="M35.016,346.977L34.008,346.977L34.008,346.077L35.016,346.077L35.016,344.253L36.096,344.253L36.096,346.077L37.728,346.077L37.728,346.977L36.096,346.977L36.096,349.725C36.096,350.173 36.166,350.481 36.306,350.649C36.446,350.817 36.644,350.901 36.9,350.901C37.108,350.901 37.28,350.869 37.416,350.805C37.552,350.741 37.688,350.645 37.824,350.517L38.316,351.177C38.084,351.401 37.846,351.563 37.602,351.663C37.358,351.763 37.068,351.813 36.732,351.813C36.14,351.813 35.706,351.653 35.43,351.333C35.154,351.013 35.016,350.513 35.016,349.833L35.016,346.977Z" style="fill:white;fill-rule:nonzero;"/>
        </g>
        <rect x="24.318" y="286.042" width="1.152" height="8.004" style="fill-rule:nonzero;"/>
        <path d="M27.138,294.046L27.138,289.036C27.138,288.856 27.134,288.666 27.126,288.466L28.158,288.466L28.194,289.306C28.266,289.21 28.354,289.104 28.458,288.988C28.562,288.872 28.69,288.766 28.842,288.67C28.994,288.574 29.172,288.494 29.376,288.43C29.58,288.366 29.81,288.334 30.066,288.334C30.794,288.334 31.334,288.546 31.686,288.97C32.038,289.394 32.214,289.97 32.214,290.698L32.214,294.046L31.134,294.046L31.134,290.782C31.134,290.262 31.022,289.88 30.798,289.636C30.574,289.392 30.258,289.27 29.85,289.27C29.538,289.27 29.278,289.334 29.07,289.462C28.862,289.59 28.696,289.756 28.572,289.96C28.448,290.164 28.358,290.396 28.302,290.656C28.246,290.916 28.218,291.182 28.218,291.454L28.218,294.046L27.138,294.046Z" style="fill-rule:nonzero;"/>
        <path d="M76.388,286.042L77.564,286.042L80.696,294.046L79.412,294.046L78.584,291.814L75.296,291.814L74.468,294.046L73.256,294.046L76.388,286.042ZM78.236,290.842L76.94,287.326L75.632,290.842L78.236,290.842Z" style="fill-rule:nonzero;"/>
        <path d="M86.432,293.278C86.184,293.558 85.878,293.784 85.514,293.956C85.15,294.128 84.728,294.214 84.248,294.214C83.8,294.214 83.394,294.14 83.03,293.992C82.666,293.844 82.358,293.64 82.106,293.38C81.854,293.12 81.66,292.808 81.524,292.444C81.388,292.08 81.32,291.682 81.32,291.25C81.32,290.842 81.392,290.458 81.536,290.098C81.68,289.738 81.882,289.424 82.142,289.156C82.402,288.888 82.71,288.676 83.066,288.52C83.422,288.364 83.816,288.286 84.248,288.286C84.72,288.286 85.136,288.37 85.496,288.538C85.856,288.706 86.164,288.934 86.42,289.222L85.712,289.906C85.544,289.698 85.34,289.534 85.1,289.414C84.86,289.294 84.576,289.234 84.248,289.234C83.96,289.234 83.702,289.288 83.474,289.396C83.246,289.504 83.054,289.652 82.898,289.84C82.742,290.028 82.622,290.244 82.538,290.488C82.454,290.732 82.412,290.986 82.412,291.25C82.412,291.506 82.454,291.756 82.538,292C82.622,292.244 82.742,292.46 82.898,292.648C83.054,292.836 83.246,292.986 83.474,293.098C83.702,293.21 83.96,293.266 84.248,293.266C84.576,293.266 84.87,293.204 85.13,293.08C85.39,292.956 85.604,292.79 85.772,292.582L86.432,293.278Z" style="fill-rule:nonzero;"/>
        <path d="M87.992,289.366L86.984,289.366L86.984,288.466L87.992,288.466L87.992,286.642L89.072,286.642L89.072,288.466L90.704,288.466L90.704,289.366L89.072,289.366L89.072,292.114C89.072,292.562 89.142,292.87 89.282,293.038C89.422,293.206 89.62,293.29 89.876,293.29C90.084,293.29 90.256,293.258 90.392,293.194C90.528,293.13 90.664,293.034 90.8,292.906L91.292,293.566C91.06,293.79 90.822,293.952 90.578,294.052C90.334,294.152 90.044,294.202 89.708,294.202C89.116,294.202 88.682,294.042 88.406,293.722C88.13,293.402 87.992,292.902 87.992,292.222L87.992,289.366Z" style="fill-rule:nonzero;"/>
        <path d="M92.108,286.258L93.32,286.258L93.32,287.47L92.108,287.47L92.108,286.258ZM92.18,288.466L93.26,288.466L93.26,294.046L92.18,294.046L92.18,288.466Z" style="fill-rule:nonzero;"/>
        <path d="M94.136,288.466L95.372,288.466L97.112,292.822L98.84,288.466L100.004,288.466L97.616,294.046L96.536,294.046L94.136,288.466Z" style="fill-rule:nonzero;"/>
        <path d="M105.932,293.23C105.868,293.302 105.772,293.394 105.644,293.506C105.516,293.618 105.35,293.726 105.146,293.83C104.942,293.934 104.702,294.024 104.426,294.1C104.15,294.176 103.836,294.214 103.484,294.214C103.052,294.214 102.656,294.142 102.296,293.998C101.936,293.854 101.628,293.65 101.372,293.386C101.116,293.122 100.918,292.806 100.778,292.438C100.638,292.07 100.568,291.662 100.568,291.214C100.568,290.806 100.636,290.424 100.772,290.068C100.908,289.712 101.1,289.404 101.348,289.144C101.596,288.884 101.89,288.678 102.23,288.526C102.57,288.374 102.944,288.298 103.352,288.298C103.832,288.298 104.244,288.39 104.588,288.574C104.932,288.758 105.214,289.002 105.434,289.306C105.654,289.61 105.816,289.958 105.92,290.35C106.024,290.742 106.076,291.15 106.076,291.574L101.672,291.574C101.68,291.822 101.734,292.05 101.834,292.258C101.934,292.466 102.068,292.646 102.236,292.798C102.404,292.95 102.596,293.07 102.812,293.158C103.028,293.246 103.256,293.29 103.496,293.29C103.968,293.29 104.356,293.21 104.66,293.05C104.964,292.89 105.184,292.734 105.32,292.582L105.932,293.23ZM104.96,290.77C104.928,290.338 104.776,289.97 104.504,289.666C104.232,289.362 103.848,289.21 103.352,289.21C103.096,289.21 102.866,289.254 102.662,289.342C102.458,289.43 102.284,289.546 102.14,289.69C101.996,289.834 101.884,290 101.804,290.188C101.724,290.376 101.68,290.57 101.672,290.77L104.96,290.77Z" style="fill-rule:nonzero;"/>
    </g>
</svg>
