<?xml version="1.0" encoding="UTF-8" standalone="no"?>
<!DOCTYPE svg PUBLIC "-//W3C//DTD SVG 1.1//EN" "http://www.w3.org/Graphics/SVG/1.1/DTD/svg11.dtd">
<svg width="100%" height="100%" viewBox="0 0 90 380" version="1.1" xmlns="http://www.w3.org/2000/svg" xmlns:xlink="http://www.w3.org/1999/xlink" xml:space="preserve" xmlns:serif="http://www.serif.com/" style="fill-rule:evenodd;clip-rule:evenodd;stroke-miterlimit:10;">
    <g id="svg8">
        <rect x="0" y="0" width="90" height="380" style="fill:rgb(240,240,240);"/>
        <g transform="matrix(1,0,0,1,25.7842,350.154)">
            <path d="M0,11.424L-1.606,11.424L-1.606,6.093L-7.682,6.093L-7.682,11.424L-9.288,11.424L-9.288,0L-7.682,0L-7.682,4.719L-1.606,4.719L-1.606,0L0,0L0,11.424Z" style="fill:rgb(35,31,32);fill-rule:nonzero;"/>
        </g>
        <g transform="matrix(1,0,0,1,33.9917,350.154)">
            <path d="M0,11.424L-6.821,11.424L-6.821,0L-0.132,0L-0.132,1.342L-5.215,1.342L-5.215,4.752L-0.414,4.752L-0.414,6.093L-5.215,6.093L-5.215,10.067L0,10.067L0,11.424Z" style="fill:rgb(35,31,32);fill-rule:nonzero;"/>
        </g>
        <g transform="matrix(1,0,0,1,42.8652,360.236)">
            <path d="M0,-8.74L-3.212,-8.74L-3.212,1.342L-4.818,1.342L-4.818,-8.74L-8.046,-8.74L-8.046,-10.082L0,-10.082L0,-8.74Z" style="fill:rgb(35,31,32);fill-rule:nonzero;"/>
        </g>
        <g transform="matrix(1,0,0,1,48.5752,359.855)">
            <path d="M0,-7.978C-0.513,-8.359 -1.126,-8.392 -1.92,-8.392L-3.096,-8.392L-3.096,-4.518L-1.92,-4.518C-1.126,-4.518 -0.513,-4.551 0,-4.915C0.514,-5.296 0.729,-5.76 0.729,-6.456C0.729,-7.134 0.514,-7.614 0,-7.978M3.047,1.723L1.109,1.723L-1.871,-3.194L-3.096,-3.194L-3.096,1.723L-4.702,1.723L-4.702,-9.701L-1.474,-9.701C-0.331,-9.701 0.596,-9.435 1.275,-8.906C1.954,-8.359 2.384,-7.532 2.384,-6.489C2.384,-4.485 0.993,-3.591 -0.215,-3.359L3.047,1.723Z" style="fill:rgb(35,31,32);fill-rule:nonzero;"/>
        </g>
        <g transform="matrix(-1,0,0,1,107.233,331.732)">
            <rect x="52.814" y="18.422" width="1.605" height="11.424" style="fill:rgb(35,31,32);"/>
        </g>
        <g transform="matrix(1,0,0,1,65.542,351.678)">
            <path d="M0,8.41C-0.712,9.205 -2.003,10.099 -4.172,10.099C-7.5,10.099 -10.017,7.764 -10.017,4.205C-10.017,0.645 -7.45,-1.689 -4.172,-1.689C-2.036,-1.689 -0.745,-0.795 -0.116,-0.182L-0.795,1.109C-1.241,0.547 -2.517,-0.281 -4.105,-0.281C-6.572,-0.281 -8.36,1.49 -8.36,4.172C-8.36,6.854 -6.556,8.626 -4.105,8.626C-2.6,8.626 -1.44,8.047 -0.695,7.235L0,8.41Z" style="fill:rgb(237,50,36);fill-rule:nonzero;"/>
        </g>
        <g transform="matrix(1,0,0,1,75.4521,350.154)">
            <path d="M0,11.424L-1.953,11.424L-5.745,5.695L-6.92,6.888L-6.92,11.424L-8.526,11.424L-8.526,0L-6.92,0L-6.92,4.868L-2.268,0L-0.314,0L-4.669,4.504L0,11.424Z" style="fill:rgb(237,50,36);fill-rule:nonzero;"/>
        </g>
        <g transform="matrix(1,0,0,1,75.4521,354.658)">
            <path d="M0,6.92L-1.953,6.92L-5.745,1.191L-6.92,2.384L-6.92,6.92L-8.526,6.92L-8.526,2.361L-6.92,2.384L-5.745,1.191L-4.669,0L-4.052,0.913L-3.555,1.65L0,6.92Z" style="fill-rule:nonzero;"/>
        </g>
        <g transform="matrix(1,0,0,1,57.5713,325.333)">
            <path d="M0,-45.333L-25.142,-45.333C-29.542,-45.333 -33.142,-41.733 -33.142,-37.333L-33.142,-8C-33.142,-3.6 -29.542,0 -25.142,0L0,0C4.399,0 8,-3.6 8,-8L8,-37.333C8,-41.733 4.399,-45.333 0,-45.333Z" style="fill-rule:nonzero;stroke:white;stroke-width:1px;"/>
        </g>
        <g transform="matrix(1.49469,0,0,1.21072,63.7901,325.334)">
            <path d="M0,-180.667L-25.142,-180.667C-29.542,-180.667 -33.142,-177.067 -33.142,-172.667L-33.142,-8C-33.142,-3.6 -29.542,0 -25.142,0L0,0C4.399,0 8,-3.6 8,-8L8,-172.667C8,-177.067 4.399,-180.667 0,-180.667" style="fill-rule:nonzero;"/>
        </g>
        <g transform="matrix(1,0,0,1,-29.6641,3.55271e-15)">
            <g transform="matrix(18,0,0,18,48.5776,28.8369)">
                <path d="M0.076,-0.667L0.287,-0.667C0.332,-0.667 0.37,-0.661 0.4,-0.648C0.429,-0.635 0.453,-0.619 0.471,-0.6C0.488,-0.581 0.501,-0.559 0.508,-0.535C0.515,-0.511 0.518,-0.488 0.518,-0.465C0.518,-0.432 0.512,-0.402 0.501,-0.377C0.49,-0.352 0.474,-0.331 0.454,-0.314C0.434,-0.297 0.41,-0.284 0.383,-0.275C0.355,-0.266 0.325,-0.262 0.292,-0.262L0.171,-0.262L0.171,-0L0.076,-0L0.076,-0.667ZM0.291,-0.344C0.332,-0.344 0.364,-0.355 0.387,-0.376C0.409,-0.397 0.42,-0.426 0.42,-0.463C0.42,-0.501 0.409,-0.531 0.386,-0.553C0.363,-0.574 0.331,-0.585 0.291,-0.585L0.171,-0.585L0.171,-0.344L0.291,-0.344Z" style="fill-rule:nonzero;"/>
            </g>
            <g transform="matrix(18,0,0,18,58.0546,28.8369)">
                <path d="M0.061,-0.667L0.15,-0.667L0.15,-0.396C0.156,-0.404 0.163,-0.413 0.172,-0.422C0.181,-0.431 0.191,-0.44 0.204,-0.448C0.217,-0.456 0.231,-0.463 0.248,-0.468C0.265,-0.473 0.284,-0.476 0.305,-0.476C0.366,-0.476 0.411,-0.458 0.44,-0.423C0.469,-0.388 0.484,-0.34 0.484,-0.279L0.484,-0L0.394,-0L0.394,-0.272C0.394,-0.315 0.385,-0.347 0.366,-0.368C0.347,-0.388 0.321,-0.398 0.287,-0.398C0.261,-0.398 0.239,-0.393 0.222,-0.382C0.205,-0.371 0.191,-0.358 0.181,-0.341C0.17,-0.324 0.163,-0.304 0.158,-0.283C0.153,-0.261 0.151,-0.239 0.151,-0.216L0.151,-0L0.061,-0L0.061,-0.667Z" style="fill-rule:nonzero;"/>
            </g>
            <g transform="matrix(18,0,0,18,67.4776,28.8369)">
                <path d="M0.352,-0.22C0.349,-0.221 0.344,-0.222 0.337,-0.223C0.329,-0.224 0.32,-0.224 0.31,-0.225C0.3,-0.226 0.289,-0.226 0.278,-0.227C0.267,-0.228 0.256,-0.228 0.245,-0.228C0.22,-0.228 0.199,-0.225 0.184,-0.219C0.168,-0.213 0.156,-0.206 0.147,-0.197C0.137,-0.188 0.131,-0.178 0.128,-0.167C0.125,-0.156 0.123,-0.145 0.123,-0.135C0.123,-0.11 0.132,-0.091 0.149,-0.078C0.166,-0.065 0.19,-0.058 0.221,-0.058C0.238,-0.058 0.255,-0.061 0.271,-0.067C0.286,-0.073 0.3,-0.081 0.312,-0.091C0.324,-0.101 0.334,-0.113 0.341,-0.126C0.348,-0.139 0.352,-0.153 0.352,-0.167L0.352,-0.22ZM0.353,-0.056C0.336,-0.033 0.313,-0.015 0.285,-0.004C0.256,0.007 0.227,0.013 0.197,0.013C0.178,0.013 0.159,0.011 0.14,0.006C0.121,0 0.103,-0.008 0.088,-0.02C0.072,-0.031 0.059,-0.046 0.05,-0.065C0.04,-0.083 0.035,-0.105 0.035,-0.132C0.035,-0.182 0.053,-0.222 0.088,-0.252C0.123,-0.282 0.173,-0.297 0.239,-0.297C0.25,-0.297 0.261,-0.297 0.273,-0.296C0.285,-0.295 0.296,-0.295 0.307,-0.294C0.318,-0.293 0.327,-0.293 0.335,-0.292C0.343,-0.291 0.349,-0.291 0.352,-0.29L0.352,-0.307C0.352,-0.342 0.341,-0.367 0.321,-0.382C0.3,-0.397 0.271,-0.404 0.235,-0.404C0.2,-0.404 0.172,-0.399 0.151,-0.39C0.13,-0.38 0.113,-0.37 0.099,-0.36L0.057,-0.421C0.065,-0.428 0.075,-0.434 0.086,-0.441C0.097,-0.448 0.111,-0.454 0.126,-0.46C0.141,-0.465 0.159,-0.47 0.178,-0.474C0.197,-0.477 0.22,-0.479 0.245,-0.479C0.305,-0.479 0.352,-0.464 0.387,-0.436C0.421,-0.407 0.438,-0.365 0.438,-0.312L0.438,-0.042C0.438,-0.025 0.438,-0.011 0.439,-0L0.355,-0L0.353,-0.056Z" style="fill-rule:nonzero;"/>
            </g>
            <g transform="matrix(18,0,0,18,76.1086,28.8369)">
                <path d="M0.092,-0.117C0.109,-0.1 0.129,-0.087 0.152,-0.077C0.175,-0.067 0.202,-0.062 0.233,-0.062C0.263,-0.062 0.288,-0.067 0.308,-0.077C0.328,-0.086 0.338,-0.101 0.338,-0.122C0.338,-0.133 0.336,-0.142 0.332,-0.15C0.327,-0.157 0.32,-0.164 0.31,-0.17C0.299,-0.176 0.286,-0.182 0.269,-0.187C0.252,-0.192 0.23,-0.197 0.205,-0.203C0.187,-0.207 0.169,-0.212 0.152,-0.219C0.134,-0.226 0.118,-0.235 0.104,-0.246C0.09,-0.257 0.079,-0.27 0.07,-0.286C0.061,-0.301 0.057,-0.32 0.057,-0.342C0.057,-0.365 0.062,-0.385 0.073,-0.402C0.083,-0.419 0.097,-0.433 0.114,-0.445C0.131,-0.456 0.151,-0.465 0.173,-0.471C0.194,-0.477 0.217,-0.48 0.24,-0.48C0.279,-0.48 0.313,-0.475 0.342,-0.465C0.37,-0.454 0.395,-0.44 0.416,-0.421L0.367,-0.359C0.353,-0.372 0.335,-0.382 0.315,-0.391C0.294,-0.4 0.269,-0.404 0.241,-0.404C0.212,-0.404 0.189,-0.399 0.172,-0.39C0.155,-0.381 0.146,-0.365 0.146,-0.344C0.146,-0.324 0.158,-0.309 0.181,-0.3C0.204,-0.29 0.234,-0.281 0.271,-0.272C0.293,-0.267 0.314,-0.261 0.333,-0.254C0.352,-0.247 0.368,-0.238 0.383,-0.227C0.397,-0.216 0.408,-0.202 0.417,-0.186C0.425,-0.17 0.429,-0.151 0.429,-0.128C0.429,-0.105 0.424,-0.084 0.413,-0.067C0.402,-0.049 0.388,-0.034 0.37,-0.022C0.352,-0.01 0.331,-0.001 0.308,0.005C0.285,0.011 0.26,0.014 0.235,0.014C0.147,0.014 0.081,-0.01 0.037,-0.057L0.092,-0.117Z" style="fill-rule:nonzero;"/>
            </g>
            <g transform="matrix(18,0,0,18,84.2536,28.8369)">
                <path d="M0.286,0.014C0.25,0.014 0.217,0.008 0.187,-0.006C0.157,-0.019 0.131,-0.036 0.11,-0.059C0.088,-0.082 0.071,-0.108 0.059,-0.138C0.046,-0.167 0.04,-0.199 0.04,-0.233C0.04,-0.267 0.046,-0.299 0.059,-0.329C0.071,-0.358 0.088,-0.384 0.11,-0.407C0.131,-0.43 0.157,-0.448 0.187,-0.461C0.217,-0.474 0.25,-0.48 0.286,-0.48C0.321,-0.48 0.354,-0.474 0.384,-0.461C0.414,-0.448 0.44,-0.43 0.462,-0.407C0.484,-0.384 0.501,-0.358 0.514,-0.329C0.526,-0.299 0.532,-0.267 0.532,-0.233C0.532,-0.199 0.526,-0.167 0.514,-0.138C0.501,-0.108 0.484,-0.082 0.462,-0.059C0.44,-0.036 0.414,-0.019 0.384,-0.006C0.354,0.008 0.321,0.014 0.286,0.014ZM0.286,-0.064C0.31,-0.064 0.332,-0.069 0.351,-0.079C0.37,-0.088 0.387,-0.101 0.4,-0.117C0.413,-0.132 0.424,-0.15 0.431,-0.171C0.438,-0.191 0.441,-0.212 0.441,-0.233C0.441,-0.254 0.438,-0.274 0.431,-0.295C0.424,-0.315 0.413,-0.333 0.4,-0.349C0.386,-0.365 0.37,-0.378 0.351,-0.388C0.332,-0.397 0.31,-0.402 0.286,-0.402C0.262,-0.402 0.24,-0.397 0.221,-0.388C0.202,-0.378 0.185,-0.365 0.172,-0.35C0.159,-0.334 0.149,-0.316 0.142,-0.296C0.135,-0.275 0.131,-0.254 0.131,-0.233C0.131,-0.212 0.135,-0.191 0.142,-0.171C0.149,-0.151 0.159,-0.133 0.173,-0.117C0.186,-0.101 0.203,-0.088 0.222,-0.079C0.241,-0.069 0.262,-0.064 0.286,-0.064Z" style="fill-rule:nonzero;"/>
            </g>
            <g transform="matrix(18,0,0,18,94.1986,28.8369)">
                <path d="M0.062,-0L0.062,-0.421C0.062,-0.435 0.062,-0.45 0.061,-0.465L0.147,-0.465L0.15,-0.39C0.155,-0.398 0.162,-0.407 0.171,-0.417C0.18,-0.426 0.19,-0.435 0.203,-0.443C0.215,-0.451 0.229,-0.458 0.246,-0.464C0.262,-0.469 0.281,-0.472 0.302,-0.472C0.312,-0.472 0.321,-0.471 0.33,-0.47C0.338,-0.469 0.346,-0.467 0.353,-0.464L0.333,-0.38C0.321,-0.385 0.306,-0.387 0.287,-0.387C0.268,-0.387 0.25,-0.383 0.234,-0.376C0.217,-0.369 0.203,-0.359 0.191,-0.346C0.179,-0.333 0.17,-0.317 0.163,-0.3C0.156,-0.283 0.152,-0.264 0.152,-0.245L0.152,-0L0.062,-0Z" style="fill-rule:nonzero;"/>
            </g>
            <g transform="matrix(18,0,0,18,48.0016,46.8369)">
                <path d="M0.076,-0.667L0.289,-0.667C0.332,-0.667 0.368,-0.661 0.397,-0.65C0.426,-0.638 0.45,-0.623 0.469,-0.605C0.487,-0.586 0.5,-0.565 0.509,-0.542C0.517,-0.519 0.521,-0.495 0.521,-0.471C0.521,-0.428 0.511,-0.391 0.491,-0.358C0.471,-0.325 0.44,-0.301 0.398,-0.285L0.554,-0L0.446,-0L0.303,-0.273L0.169,-0.273L0.169,-0L0.076,-0L0.076,-0.667ZM0.297,-0.354C0.339,-0.354 0.371,-0.364 0.392,-0.385C0.413,-0.406 0.423,-0.433 0.423,-0.468C0.423,-0.505 0.412,-0.533 0.389,-0.554C0.366,-0.574 0.335,-0.584 0.295,-0.584L0.169,-0.584L0.169,-0.354L0.297,-0.354Z" style="fill-rule:nonzero;"/>
            </g>
            <g transform="matrix(18,0,0,18,57.9106,46.8369)">
                <path d="M0.352,-0.22C0.349,-0.221 0.344,-0.222 0.337,-0.223C0.329,-0.224 0.32,-0.224 0.31,-0.225C0.3,-0.226 0.289,-0.226 0.278,-0.227C0.267,-0.228 0.256,-0.228 0.245,-0.228C0.22,-0.228 0.199,-0.225 0.184,-0.219C0.168,-0.213 0.156,-0.206 0.147,-0.197C0.137,-0.188 0.131,-0.178 0.128,-0.167C0.125,-0.156 0.123,-0.145 0.123,-0.135C0.123,-0.11 0.132,-0.091 0.149,-0.078C0.166,-0.065 0.19,-0.058 0.221,-0.058C0.238,-0.058 0.255,-0.061 0.271,-0.067C0.286,-0.073 0.3,-0.081 0.312,-0.091C0.324,-0.101 0.334,-0.113 0.341,-0.126C0.348,-0.139 0.352,-0.153 0.352,-0.167L0.352,-0.22ZM0.353,-0.056C0.336,-0.033 0.313,-0.015 0.285,-0.004C0.256,0.007 0.227,0.013 0.197,0.013C0.178,0.013 0.159,0.011 0.14,0.006C0.121,0 0.103,-0.008 0.088,-0.02C0.072,-0.031 0.059,-0.046 0.05,-0.065C0.04,-0.083 0.035,-0.105 0.035,-0.132C0.035,-0.182 0.053,-0.222 0.088,-0.252C0.123,-0.282 0.173,-0.297 0.239,-0.297C0.25,-0.297 0.261,-0.297 0.273,-0.296C0.285,-0.295 0.296,-0.295 0.307,-0.294C0.318,-0.293 0.327,-0.293 0.335,-0.292C0.343,-0.291 0.349,-0.291 0.352,-0.29L0.352,-0.307C0.352,-0.342 0.341,-0.367 0.321,-0.382C0.3,-0.397 0.271,-0.404 0.235,-0.404C0.2,-0.404 0.172,-0.399 0.151,-0.39C0.13,-0.38 0.113,-0.37 0.099,-0.36L0.057,-0.421C0.065,-0.428 0.075,-0.434 0.086,-0.441C0.097,-0.448 0.111,-0.454 0.126,-0.46C0.141,-0.465 0.159,-0.47 0.178,-0.474C0.197,-0.477 0.22,-0.479 0.245,-0.479C0.305,-0.479 0.352,-0.464 0.387,-0.436C0.421,-0.407 0.438,-0.365 0.438,-0.312L0.438,-0.042C0.438,-0.025 0.438,-0.011 0.439,-0L0.355,-0L0.353,-0.056Z" style="fill-rule:nonzero;"/>
            </g>
            <g transform="matrix(18,0,0,18,66.5416,46.8369)">
                <path d="M0.062,-0L0.062,-0.418C0.062,-0.432 0.062,-0.448 0.061,-0.465L0.147,-0.465L0.15,-0.395C0.156,-0.403 0.163,-0.412 0.172,-0.422C0.181,-0.431 0.191,-0.44 0.204,-0.448C0.217,-0.456 0.232,-0.463 0.249,-0.468C0.266,-0.473 0.285,-0.476 0.306,-0.476C0.367,-0.476 0.412,-0.458 0.441,-0.423C0.47,-0.388 0.485,-0.34 0.485,-0.279L0.485,-0L0.395,-0L0.395,-0.272C0.395,-0.315 0.386,-0.347 0.367,-0.368C0.348,-0.388 0.322,-0.398 0.288,-0.398C0.262,-0.398 0.24,-0.393 0.223,-0.382C0.206,-0.371 0.192,-0.358 0.182,-0.341C0.171,-0.324 0.164,-0.304 0.159,-0.283C0.154,-0.261 0.152,-0.239 0.152,-0.216L0.152,-0L0.062,-0Z" style="fill-rule:nonzero;"/>
            </g>
            <g transform="matrix(18,0,0,18,75.9826,46.8369)">
                <path d="M0.396,-0.383C0.39,-0.385 0.38,-0.388 0.366,-0.392C0.351,-0.395 0.33,-0.397 0.301,-0.397C0.276,-0.397 0.253,-0.393 0.232,-0.385C0.211,-0.376 0.194,-0.365 0.179,-0.35C0.164,-0.335 0.152,-0.317 0.144,-0.296C0.135,-0.275 0.131,-0.253 0.131,-0.228C0.131,-0.207 0.134,-0.187 0.139,-0.168C0.143,-0.149 0.152,-0.133 0.163,-0.119C0.173,-0.105 0.187,-0.094 0.204,-0.086C0.221,-0.078 0.241,-0.074 0.265,-0.074C0.287,-0.074 0.306,-0.077 0.323,-0.084C0.34,-0.091 0.353,-0.099 0.364,-0.111C0.375,-0.122 0.383,-0.134 0.388,-0.148C0.393,-0.161 0.396,-0.175 0.396,-0.19L0.396,-0.383ZM0.124,0.095C0.139,0.106 0.158,0.115 0.181,0.123C0.203,0.13 0.23,0.134 0.262,0.134C0.307,0.134 0.34,0.122 0.362,0.097C0.384,0.072 0.395,0.04 0.395,-0L0.395,-0.057C0.39,-0.053 0.384,-0.048 0.377,-0.041C0.369,-0.034 0.359,-0.027 0.348,-0.021C0.336,-0.014 0.322,-0.008 0.306,-0.004C0.29,0.002 0.272,0.004 0.251,0.004C0.217,0.004 0.187,-0.002 0.161,-0.014C0.134,-0.025 0.112,-0.041 0.094,-0.062C0.076,-0.082 0.062,-0.106 0.053,-0.135C0.044,-0.163 0.039,-0.194 0.039,-0.227C0.039,-0.263 0.045,-0.296 0.058,-0.327C0.071,-0.357 0.089,-0.383 0.112,-0.406C0.134,-0.428 0.162,-0.445 0.194,-0.458C0.226,-0.47 0.262,-0.476 0.301,-0.476C0.339,-0.476 0.374,-0.473 0.407,-0.466C0.44,-0.459 0.466,-0.452 0.486,-0.444L0.486,-0C0.486,0.067 0.466,0.12 0.428,0.157C0.389,0.194 0.334,0.212 0.263,0.212C0.216,0.212 0.178,0.207 0.15,0.197C0.122,0.186 0.099,0.174 0.082,0.161L0.124,0.095Z" style="fill-rule:nonzero;"/>
            </g>
            <g transform="matrix(18,0,0,18,85.4776,46.8369)">
                <path d="M0.486,-0.068C0.481,-0.062 0.473,-0.054 0.462,-0.045C0.451,-0.036 0.438,-0.027 0.421,-0.018C0.404,-0.009 0.384,-0.002 0.361,0.005C0.337,0.011 0.311,0.014 0.282,0.014C0.246,0.014 0.213,0.008 0.183,-0.004C0.153,-0.016 0.127,-0.033 0.106,-0.055C0.085,-0.077 0.068,-0.103 0.057,-0.134C0.045,-0.165 0.039,-0.199 0.039,-0.236C0.039,-0.27 0.045,-0.302 0.056,-0.332C0.067,-0.361 0.083,-0.387 0.104,-0.409C0.125,-0.43 0.149,-0.447 0.178,-0.46C0.206,-0.473 0.237,-0.479 0.271,-0.479C0.311,-0.479 0.345,-0.471 0.374,-0.456C0.403,-0.441 0.426,-0.42 0.445,-0.395C0.463,-0.37 0.476,-0.341 0.485,-0.308C0.494,-0.275 0.498,-0.241 0.498,-0.206L0.131,-0.206C0.132,-0.185 0.136,-0.166 0.145,-0.149C0.153,-0.132 0.164,-0.117 0.178,-0.104C0.192,-0.091 0.208,-0.081 0.226,-0.074C0.244,-0.067 0.263,-0.063 0.283,-0.063C0.322,-0.063 0.355,-0.07 0.38,-0.083C0.405,-0.096 0.424,-0.109 0.435,-0.122L0.486,-0.068ZM0.405,-0.273C0.402,-0.309 0.39,-0.34 0.367,-0.365C0.344,-0.39 0.312,-0.403 0.271,-0.403C0.25,-0.403 0.231,-0.399 0.214,-0.392C0.197,-0.385 0.182,-0.375 0.17,-0.363C0.158,-0.351 0.149,-0.337 0.142,-0.322C0.135,-0.306 0.132,-0.29 0.131,-0.273L0.405,-0.273Z" style="fill-rule:nonzero;"/>
            </g>
            <g transform="matrix(18,0,0,18,94.7746,46.8369)">
                <path d="M0.062,-0L0.062,-0.421C0.062,-0.435 0.062,-0.45 0.061,-0.465L0.147,-0.465L0.15,-0.39C0.155,-0.398 0.162,-0.407 0.171,-0.417C0.18,-0.426 0.19,-0.435 0.203,-0.443C0.215,-0.451 0.229,-0.458 0.246,-0.464C0.262,-0.469 0.281,-0.472 0.302,-0.472C0.312,-0.472 0.321,-0.471 0.33,-0.47C0.338,-0.469 0.346,-0.467 0.353,-0.464L0.333,-0.38C0.321,-0.385 0.306,-0.387 0.287,-0.387C0.268,-0.387 0.25,-0.383 0.234,-0.376C0.217,-0.369 0.203,-0.359 0.191,-0.346C0.179,-0.333 0.17,-0.317 0.163,-0.3C0.156,-0.283 0.152,-0.264 0.152,-0.245L0.152,-0L0.062,-0Z" style="fill-rule:nonzero;"/>
            </g>
        </g>
        <g transform="matrix(1,0,0,1,-17.5283,-41.4433)">
            <g transform="matrix(12,0,0,12,40.4003,138)">
                <path d="M0.272,0.014C0.233,0.014 0.198,0.006 0.169,-0.01C0.139,-0.026 0.114,-0.049 0.094,-0.078C0.073,-0.107 0.058,-0.143 0.048,-0.184C0.037,-0.225 0.032,-0.271 0.032,-0.322C0.032,-0.372 0.037,-0.417 0.048,-0.457C0.058,-0.497 0.073,-0.531 0.094,-0.56C0.115,-0.588 0.14,-0.61 0.17,-0.625C0.199,-0.64 0.234,-0.648 0.273,-0.648C0.312,-0.648 0.346,-0.64 0.376,-0.625C0.406,-0.61 0.431,-0.588 0.452,-0.56C0.472,-0.531 0.487,-0.497 0.498,-0.457C0.508,-0.417 0.513,-0.372 0.513,-0.322C0.513,-0.271 0.508,-0.225 0.498,-0.184C0.487,-0.143 0.472,-0.107 0.451,-0.078C0.43,-0.049 0.405,-0.026 0.375,-0.01C0.345,0.006 0.311,0.014 0.272,0.014ZM0.272,-0.069C0.296,-0.069 0.317,-0.075 0.336,-0.088C0.354,-0.1 0.369,-0.117 0.382,-0.14C0.394,-0.162 0.403,-0.189 0.41,-0.22C0.416,-0.251 0.419,-0.285 0.419,-0.322C0.419,-0.359 0.416,-0.392 0.41,-0.422C0.403,-0.452 0.394,-0.478 0.381,-0.499C0.368,-0.52 0.353,-0.536 0.335,-0.547C0.317,-0.558 0.296,-0.564 0.272,-0.564C0.248,-0.564 0.227,-0.558 0.209,-0.547C0.191,-0.536 0.176,-0.52 0.164,-0.499C0.151,-0.478 0.142,-0.452 0.136,-0.422C0.129,-0.392 0.126,-0.359 0.126,-0.322C0.126,-0.285 0.129,-0.251 0.136,-0.22C0.142,-0.189 0.151,-0.162 0.164,-0.14C0.176,-0.117 0.191,-0.1 0.209,-0.088C0.227,-0.075 0.248,-0.069 0.272,-0.069Z" style="fill-rule:nonzero;"/>
            </g>
            <g transform="matrix(12,0,0,12,46.9523,138)">
                <rect x="0.073" y="-0.323" width="0.293" height="0.086" style="fill-rule:nonzero;"/>
            </g>
            <g transform="matrix(12,0,0,12,52.2323,138)">
                <path d="M0.141,-0.08L0.253,-0.08L0.253,-0.535L0.123,-0.465L0.086,-0.536L0.263,-0.633L0.344,-0.633L0.344,-0.08L0.454,-0.08L0.454,-0L0.141,-0L0.141,-0.08Z" style="fill-rule:nonzero;"/>
            </g>
            <g transform="matrix(12,0,0,12,58.7843,138)">
                <path d="M0.272,0.014C0.233,0.014 0.198,0.006 0.169,-0.01C0.139,-0.026 0.114,-0.049 0.094,-0.078C0.073,-0.107 0.058,-0.143 0.048,-0.184C0.037,-0.225 0.032,-0.271 0.032,-0.322C0.032,-0.372 0.037,-0.417 0.048,-0.457C0.058,-0.497 0.073,-0.531 0.094,-0.56C0.115,-0.588 0.14,-0.61 0.17,-0.625C0.199,-0.64 0.234,-0.648 0.273,-0.648C0.312,-0.648 0.346,-0.64 0.376,-0.625C0.406,-0.61 0.431,-0.588 0.452,-0.56C0.472,-0.531 0.487,-0.497 0.498,-0.457C0.508,-0.417 0.513,-0.372 0.513,-0.322C0.513,-0.271 0.508,-0.225 0.498,-0.184C0.487,-0.143 0.472,-0.107 0.451,-0.078C0.43,-0.049 0.405,-0.026 0.375,-0.01C0.345,0.006 0.311,0.014 0.272,0.014ZM0.272,-0.069C0.296,-0.069 0.317,-0.075 0.336,-0.088C0.354,-0.1 0.369,-0.117 0.382,-0.14C0.394,-0.162 0.403,-0.189 0.41,-0.22C0.416,-0.251 0.419,-0.285 0.419,-0.322C0.419,-0.359 0.416,-0.392 0.41,-0.422C0.403,-0.452 0.394,-0.478 0.381,-0.499C0.368,-0.52 0.353,-0.536 0.335,-0.547C0.317,-0.558 0.296,-0.564 0.272,-0.564C0.248,-0.564 0.227,-0.558 0.209,-0.547C0.191,-0.536 0.176,-0.52 0.164,-0.499C0.151,-0.478 0.142,-0.452 0.136,-0.422C0.129,-0.392 0.126,-0.359 0.126,-0.322C0.126,-0.285 0.129,-0.251 0.136,-0.22C0.142,-0.189 0.151,-0.162 0.164,-0.14C0.176,-0.117 0.191,-0.1 0.209,-0.088C0.227,-0.075 0.248,-0.069 0.272,-0.069Z" style="fill-rule:nonzero;"/>
            </g>
            <g transform="matrix(12,0,0,12,65.3363,138)">
                <path d="M0.01,-0.667L0.117,-0.667L0.32,-0.119L0.523,-0.667L0.624,-0.667L0.366,-0L0.268,-0L0.01,-0.667Z" style="fill-rule:nonzero;"/>
            </g>
            <g transform="matrix(12,0,0,12,75.1403,138)">
                <rect x="0.076" y="-0.667" width="0.096" height="0.667" style="fill-rule:nonzero;"/>
            </g>
            <g transform="matrix(12,0,0,12,78.1283,138)">
                <path d="M0.062,-0L0.062,-0.418C0.062,-0.432 0.062,-0.448 0.061,-0.465L0.147,-0.465L0.15,-0.395C0.156,-0.403 0.163,-0.412 0.172,-0.422C0.181,-0.431 0.191,-0.44 0.204,-0.448C0.217,-0.456 0.232,-0.463 0.249,-0.468C0.266,-0.473 0.285,-0.476 0.306,-0.476C0.367,-0.476 0.412,-0.458 0.441,-0.423C0.47,-0.388 0.485,-0.34 0.485,-0.279L0.485,-0L0.395,-0L0.395,-0.272C0.395,-0.315 0.386,-0.347 0.367,-0.368C0.348,-0.388 0.322,-0.398 0.288,-0.398C0.262,-0.398 0.24,-0.393 0.223,-0.382C0.206,-0.371 0.192,-0.358 0.182,-0.341C0.171,-0.324 0.164,-0.304 0.159,-0.283C0.154,-0.261 0.152,-0.239 0.152,-0.216L0.152,-0L0.062,-0Z" style="fill-rule:nonzero;"/>
            </g>
        </g>
        <g transform="matrix(1,0,0,1,-28.1313,-36.9278)">
            <g transform="matrix(12,0,0,12,53.3616,186)">
                <path d="M0.073,-0.36L0.234,-0.36L0.234,-0.517L0.312,-0.517L0.312,-0.36L0.472,-0.36L0.472,-0.282L0.313,-0.282L0.313,-0.125L0.234,-0.125L0.234,-0.282L0.073,-0.282L0.073,-0.36Z" style="fill:white;fill-rule:nonzero;"/>
            </g>
            <g transform="matrix(12,0,0,12,59.9016,186)">
                <path d="M0.291,-0.685L0.38,-0.685L0.116,0.016L0.025,0.016L0.291,-0.685Z" style="fill:white;fill-rule:nonzero;"/>
            </g>
            <g transform="matrix(12,0,0,12,64.7736,186)">
                <rect x="0.073" y="-0.323" width="0.293" height="0.086" style="fill:white;fill-rule:nonzero;"/>
            </g>
            <g transform="matrix(12,0,0,12,72.2136,186)">
                <path d="M0.141,-0.08L0.253,-0.08L0.253,-0.535L0.123,-0.465L0.086,-0.536L0.263,-0.633L0.344,-0.633L0.344,-0.08L0.454,-0.08L0.454,-0L0.141,-0L0.141,-0.08Z" style="fill:white;fill-rule:nonzero;"/>
            </g>
            <g transform="matrix(12,0,0,12,78.7536,186)">
                <path d="M0.272,0.014C0.233,0.014 0.198,0.006 0.169,-0.01C0.139,-0.026 0.114,-0.049 0.094,-0.078C0.073,-0.107 0.058,-0.143 0.048,-0.184C0.037,-0.225 0.032,-0.271 0.032,-0.322C0.032,-0.372 0.037,-0.417 0.048,-0.457C0.058,-0.497 0.073,-0.531 0.094,-0.56C0.115,-0.588 0.14,-0.61 0.17,-0.625C0.199,-0.64 0.234,-0.648 0.273,-0.648C0.312,-0.648 0.346,-0.64 0.376,-0.625C0.406,-0.61 0.431,-0.588 0.452,-0.56C0.472,-0.531 0.487,-0.497 0.498,-0.457C0.508,-0.417 0.513,-0.372 0.513,-0.322C0.513,-0.271 0.508,-0.225 0.498,-0.184C0.487,-0.143 0.472,-0.107 0.451,-0.078C0.43,-0.049 0.405,-0.026 0.375,-0.01C0.345,0.006 0.311,0.014 0.272,0.014ZM0.272,-0.069C0.296,-0.069 0.317,-0.075 0.336,-0.088C0.354,-0.1 0.369,-0.117 0.382,-0.14C0.394,-0.162 0.403,-0.189 0.41,-0.22C0.416,-0.251 0.419,-0.285 0.419,-0.322C0.419,-0.359 0.416,-0.392 0.41,-0.422C0.403,-0.452 0.394,-0.478 0.381,-0.499C0.368,-0.52 0.353,-0.536 0.335,-0.547C0.317,-0.558 0.296,-0.564 0.272,-0.564C0.248,-0.564 0.227,-0.558 0.209,-0.547C0.191,-0.536 0.176,-0.52 0.164,-0.499C0.151,-0.478 0.142,-0.452 0.136,-0.422C0.129,-0.392 0.126,-0.359 0.126,-0.322C0.126,-0.285 0.129,-0.251 0.136,-0.22C0.142,-0.189 0.151,-0.162 0.164,-0.14C0.176,-0.117 0.191,-0.1 0.209,-0.088C0.227,-0.075 0.248,-0.069 0.272,-0.069Z" style="fill:white;fill-rule:nonzero;"/>
            </g>
            <g transform="matrix(12,0,0,12,85.2936,186)">
                <path d="M0.01,-0.667L0.117,-0.667L0.32,-0.119L0.523,-0.667L0.624,-0.667L0.366,-0L0.268,-0L0.01,-0.667Z" style="fill:white;fill-rule:nonzero;"/>
            </g>
        </g>
        <g transform="matrix(1,0,0,1,-27.2309,-47.6715)">
            <g transform="matrix(12,0,0,12,59.2532,321.334)">
                <path d="M0.272,0.014C0.233,0.014 0.198,0.006 0.169,-0.01C0.139,-0.026 0.114,-0.049 0.094,-0.078C0.073,-0.107 0.058,-0.143 0.048,-0.184C0.037,-0.225 0.032,-0.271 0.032,-0.322C0.032,-0.372 0.037,-0.417 0.048,-0.457C0.058,-0.497 0.073,-0.531 0.094,-0.56C0.115,-0.588 0.14,-0.61 0.17,-0.625C0.199,-0.64 0.234,-0.648 0.273,-0.648C0.312,-0.648 0.346,-0.64 0.376,-0.625C0.406,-0.61 0.431,-0.588 0.452,-0.56C0.472,-0.531 0.487,-0.497 0.498,-0.457C0.508,-0.417 0.513,-0.372 0.513,-0.322C0.513,-0.271 0.508,-0.225 0.498,-0.184C0.487,-0.143 0.472,-0.107 0.451,-0.078C0.43,-0.049 0.405,-0.026 0.375,-0.01C0.345,0.006 0.311,0.014 0.272,0.014ZM0.272,-0.069C0.296,-0.069 0.317,-0.075 0.336,-0.088C0.354,-0.1 0.369,-0.117 0.382,-0.14C0.394,-0.162 0.403,-0.189 0.41,-0.22C0.416,-0.251 0.419,-0.285 0.419,-0.322C0.419,-0.359 0.416,-0.392 0.41,-0.422C0.403,-0.452 0.394,-0.478 0.381,-0.499C0.368,-0.52 0.353,-0.536 0.335,-0.547C0.317,-0.558 0.296,-0.564 0.272,-0.564C0.248,-0.564 0.227,-0.558 0.209,-0.547C0.191,-0.536 0.176,-0.52 0.164,-0.499C0.151,-0.478 0.142,-0.452 0.136,-0.422C0.129,-0.392 0.126,-0.359 0.126,-0.322C0.126,-0.285 0.129,-0.251 0.136,-0.22C0.142,-0.189 0.151,-0.162 0.164,-0.14C0.176,-0.117 0.191,-0.1 0.209,-0.088C0.227,-0.075 0.248,-0.069 0.272,-0.069Z" style="fill:white;fill-rule:nonzero;"/>
            </g>
            <g transform="matrix(12,0,0,12,65.7932,321.334)">
                <rect x="0.073" y="-0.323" width="0.293" height="0.086" style="fill:white;fill-rule:nonzero;"/>
            </g>
            <g transform="matrix(12,0,0,12,71.0612,321.334)">
                <path d="M0.141,-0.08L0.253,-0.08L0.253,-0.535L0.123,-0.465L0.086,-0.536L0.263,-0.633L0.344,-0.633L0.344,-0.08L0.454,-0.08L0.454,-0L0.141,-0L0.141,-0.08Z" style="fill:white;fill-rule:nonzero;"/>
            </g>
            <g transform="matrix(12,0,0,12,77.6012,321.334)">
                <path d="M0.01,-0.667L0.117,-0.667L0.32,-0.119L0.523,-0.667L0.624,-0.667L0.366,-0L0.268,-0L0.01,-0.667Z" style="fill:white;fill-rule:nonzero;"/>
            </g>
        </g>
        <g transform="matrix(1,0,0,1,-27.2309,-6.14138)">
            <g transform="matrix(12,0,0,12,55.7312,321.334)">
                <path d="M0.073,-0.36L0.234,-0.36L0.234,-0.517L0.312,-0.517L0.312,-0.36L0.472,-0.36L0.472,-0.282L0.313,-0.282L0.313,-0.125L0.234,-0.125L0.234,-0.282L0.073,-0.282L0.073,-0.36Z" style="fill:white;fill-rule:nonzero;"/>
            </g>
            <g transform="matrix(12,0,0,12,62.2712,321.334)">
                <path d="M0.291,-0.685L0.38,-0.685L0.116,0.016L0.025,0.016L0.291,-0.685Z" style="fill:white;fill-rule:nonzero;"/>
            </g>
            <g transform="matrix(12,0,0,12,67.1432,321.334)">
                <rect x="0.073" y="-0.323" width="0.293" height="0.086" style="fill:white;fill-rule:nonzero;"/>
            </g>
            <g transform="matrix(12,0,0,12,74.5832,321.334)">
                <path d="M0.141,-0.08L0.253,-0.08L0.253,-0.535L0.123,-0.465L0.086,-0.536L0.263,-0.633L0.344,-0.633L0.344,-0.08L0.454,-0.08L0.454,-0L0.141,-0L0.141,-0.08Z" style="fill:white;fill-rule:nonzero;"/>
            </g>
            <g transform="matrix(12,0,0,12,81.1232,321.334)">
                <path d="M0.01,-0.667L0.117,-0.667L0.32,-0.119L0.523,-0.667L0.624,-0.667L0.366,-0L0.268,-0L0.01,-0.667Z" style="fill:white;fill-rule:nonzero;"/>
            </g>
        </g>
        <g transform="matrix(1,0,0,1,-27.2309,-43.8656)">
            <g transform="matrix(12,0,0,12,55.7312,275.998)">
                <path d="M0.073,-0.36L0.234,-0.36L0.234,-0.517L0.312,-0.517L0.312,-0.36L0.472,-0.36L0.472,-0.282L0.313,-0.282L0.313,-0.125L0.234,-0.125L0.234,-0.282L0.073,-0.282L0.073,-0.36Z" style="fill:white;fill-rule:nonzero;"/>
            </g>
            <g transform="matrix(12,0,0,12,62.2712,275.998)">
                <path d="M0.291,-0.685L0.38,-0.685L0.116,0.016L0.025,0.016L0.291,-0.685Z" style="fill:white;fill-rule:nonzero;"/>
            </g>
            <g transform="matrix(12,0,0,12,67.1432,275.998)">
                <rect x="0.073" y="-0.323" width="0.293" height="0.086" style="fill:white;fill-rule:nonzero;"/>
            </g>
            <g transform="matrix(12,0,0,12,74.5832,275.998)">
                <path d="M0.089,-0.118C0.108,-0.103 0.128,-0.09 0.151,-0.08C0.173,-0.069 0.201,-0.064 0.234,-0.064C0.257,-0.064 0.278,-0.068 0.295,-0.075C0.312,-0.082 0.327,-0.091 0.339,-0.103C0.35,-0.115 0.359,-0.129 0.365,-0.145C0.37,-0.161 0.373,-0.178 0.373,-0.197C0.373,-0.21 0.371,-0.223 0.367,-0.238C0.363,-0.253 0.356,-0.266 0.346,-0.279C0.336,-0.291 0.322,-0.301 0.305,-0.309C0.288,-0.317 0.266,-0.321 0.239,-0.321C0.212,-0.321 0.19,-0.318 0.174,-0.313C0.158,-0.308 0.143,-0.302 0.13,-0.295L0.084,-0.33L0.144,-0.63L0.453,-0.63L0.453,-0.546L0.207,-0.546L0.178,-0.381C0.185,-0.385 0.195,-0.389 0.21,-0.393C0.225,-0.396 0.242,-0.398 0.263,-0.398C0.293,-0.398 0.321,-0.394 0.346,-0.385C0.371,-0.376 0.392,-0.364 0.41,-0.347C0.428,-0.33 0.442,-0.309 0.452,-0.285C0.462,-0.26 0.467,-0.232 0.467,-0.2C0.467,-0.171 0.462,-0.143 0.453,-0.117C0.444,-0.091 0.429,-0.068 0.41,-0.048C0.391,-0.028 0.366,-0.012 0.336,-0.001C0.306,0.011 0.27,0.017 0.229,0.017C0.185,0.017 0.148,0.01 0.117,-0.003C0.086,-0.016 0.059,-0.033 0.038,-0.052L0.089,-0.118Z" style="fill:white;fill-rule:nonzero;"/>
            </g>
            <g transform="matrix(12,0,0,12,81.1232,275.998)">
                <path d="M0.01,-0.667L0.117,-0.667L0.32,-0.119L0.523,-0.667L0.624,-0.667L0.366,-0L0.268,-0L0.01,-0.667Z" style="fill:white;fill-rule:nonzero;"/>
            </g>
        </g>
        <g transform="matrix(1,0,0,1,-27.2309,-40.7317)">
            <g transform="matrix(12,0,0,12,57.0812,231.334)">
                <path d="M0.272,0.014C0.233,0.014 0.198,0.006 0.169,-0.01C0.139,-0.026 0.114,-0.049 0.094,-0.078C0.073,-0.107 0.058,-0.143 0.048,-0.184C0.037,-0.225 0.032,-0.271 0.032,-0.322C0.032,-0.372 0.037,-0.417 0.048,-0.457C0.058,-0.497 0.073,-0.531 0.094,-0.56C0.115,-0.588 0.14,-0.61 0.17,-0.625C0.199,-0.64 0.234,-0.648 0.273,-0.648C0.312,-0.648 0.346,-0.64 0.376,-0.625C0.406,-0.61 0.431,-0.588 0.452,-0.56C0.472,-0.531 0.487,-0.497 0.498,-0.457C0.508,-0.417 0.513,-0.372 0.513,-0.322C0.513,-0.271 0.508,-0.225 0.498,-0.184C0.487,-0.143 0.472,-0.107 0.451,-0.078C0.43,-0.049 0.405,-0.026 0.375,-0.01C0.345,0.006 0.311,0.014 0.272,0.014ZM0.272,-0.069C0.296,-0.069 0.317,-0.075 0.336,-0.088C0.354,-0.1 0.369,-0.117 0.382,-0.14C0.394,-0.162 0.403,-0.189 0.41,-0.22C0.416,-0.251 0.419,-0.285 0.419,-0.322C0.419,-0.359 0.416,-0.392 0.41,-0.422C0.403,-0.452 0.394,-0.478 0.381,-0.499C0.368,-0.52 0.353,-0.536 0.335,-0.547C0.317,-0.558 0.296,-0.564 0.272,-0.564C0.248,-0.564 0.227,-0.558 0.209,-0.547C0.191,-0.536 0.176,-0.52 0.164,-0.499C0.151,-0.478 0.142,-0.452 0.136,-0.422C0.129,-0.392 0.126,-0.359 0.126,-0.322C0.126,-0.285 0.129,-0.251 0.136,-0.22C0.142,-0.189 0.151,-0.162 0.164,-0.14C0.176,-0.117 0.191,-0.1 0.209,-0.088C0.227,-0.075 0.248,-0.069 0.272,-0.069Z" style="fill:white;fill-rule:nonzero;"/>
            </g>
            <g transform="matrix(12,0,0,12,65.7932,231.334)">
                <rect x="0.073" y="-0.323" width="0.293" height="0.086" style="fill:white;fill-rule:nonzero;"/>
            </g>
            <g transform="matrix(12,0,0,12,73.2332,231.334)">
                <path d="M0.089,-0.118C0.108,-0.103 0.128,-0.09 0.151,-0.08C0.173,-0.069 0.201,-0.064 0.234,-0.064C0.257,-0.064 0.278,-0.068 0.295,-0.075C0.312,-0.082 0.327,-0.091 0.339,-0.103C0.35,-0.115 0.359,-0.129 0.365,-0.145C0.37,-0.161 0.373,-0.178 0.373,-0.197C0.373,-0.21 0.371,-0.223 0.367,-0.238C0.363,-0.253 0.356,-0.266 0.346,-0.279C0.336,-0.291 0.322,-0.301 0.305,-0.309C0.288,-0.317 0.266,-0.321 0.239,-0.321C0.212,-0.321 0.19,-0.318 0.174,-0.313C0.158,-0.308 0.143,-0.302 0.13,-0.295L0.084,-0.33L0.144,-0.63L0.453,-0.63L0.453,-0.546L0.207,-0.546L0.178,-0.381C0.185,-0.385 0.195,-0.389 0.21,-0.393C0.225,-0.396 0.242,-0.398 0.263,-0.398C0.293,-0.398 0.321,-0.394 0.346,-0.385C0.371,-0.376 0.392,-0.364 0.41,-0.347C0.428,-0.33 0.442,-0.309 0.452,-0.285C0.462,-0.26 0.467,-0.232 0.467,-0.2C0.467,-0.171 0.462,-0.143 0.453,-0.117C0.444,-0.091 0.429,-0.068 0.41,-0.048C0.391,-0.028 0.366,-0.012 0.336,-0.001C0.306,0.011 0.27,0.017 0.229,0.017C0.185,0.017 0.148,0.01 0.117,-0.003C0.086,-0.016 0.059,-0.033 0.038,-0.052L0.089,-0.118Z" style="fill:white;fill-rule:nonzero;"/>
            </g>
            <g transform="matrix(12,0,0,12,79.7732,231.334)">
                <path d="M0.01,-0.667L0.117,-0.667L0.32,-0.119L0.523,-0.667L0.624,-0.667L0.366,-0L0.268,-0L0.01,-0.667Z" style="fill:white;fill-rule:nonzero;"/>
            </g>
        </g>
    </g>
</svg>
