<?xml version="1.0" encoding="UTF-8" standalone="no"?>
<!DOCTYPE svg PUBLIC "-//W3C//DTD SVG 1.1//EN" "http://www.w3.org/Graphics/SVG/1.1/DTD/svg11.dtd">
<svg width="100%" height="100%" viewBox="0 0 180 380" version="1.1" xmlns="http://www.w3.org/2000/svg" xmlns:xlink="http://www.w3.org/1999/xlink" xml:space="preserve" xmlns:serif="http://www.serif.com/" style="fill-rule:evenodd;clip-rule:evenodd;stroke-linejoin:round;stroke-miterlimit:2;">
    <g id="svg8">
        <rect x="0" y="0" width="180" height="380" style="fill:rgb(240,240,240);"/>
        <g>
            <path d="M70.784,361.578L69.178,361.578L69.178,356.247L63.102,356.247L63.102,361.578L61.496,361.578L61.496,350.154L63.102,350.154L63.102,354.873L69.178,354.873L69.178,350.154L70.784,350.154L70.784,361.578Z" style="fill:rgb(35,31,32);fill-rule:nonzero;"/>
            <path d="M78.992,361.578L72.171,361.578L72.171,350.154L78.86,350.154L78.86,351.496L73.777,351.496L73.777,354.906L78.578,354.906L78.578,356.247L73.777,356.247L73.777,360.221L78.992,360.221L78.992,361.578Z" style="fill:rgb(35,31,32);fill-rule:nonzero;"/>
            <path d="M87.865,351.496L84.653,351.496L84.653,361.578L83.047,361.578L83.047,351.496L79.819,351.496L79.819,350.154L87.865,350.154L87.865,351.496Z" style="fill:rgb(35,31,32);fill-rule:nonzero;"/>
            <path d="M93.575,351.877C93.062,351.496 92.449,351.463 91.655,351.463L90.479,351.463L90.479,355.337L91.655,355.337C92.449,355.337 93.062,355.304 93.575,354.94C94.089,354.559 94.304,354.095 94.304,353.399C94.304,352.721 94.089,352.241 93.575,351.877M96.622,361.578L94.684,361.578L91.704,356.661L90.479,356.661L90.479,361.578L88.873,361.578L88.873,350.154L92.101,350.154C93.244,350.154 94.171,350.42 94.85,350.949C95.529,351.496 95.959,352.323 95.959,353.366C95.959,355.37 94.568,356.264 93.36,356.496L96.622,361.578Z" style="fill:rgb(35,31,32);fill-rule:nonzero;"/>
            <rect x="97.814" y="350.154" width="1.605" height="11.424" style="fill:rgb(35,31,32);"/>
            <path d="M110.542,360.088C109.83,360.883 108.539,361.777 106.37,361.777C103.042,361.777 100.525,359.442 100.525,355.883C100.525,352.323 103.092,349.989 106.37,349.989C108.506,349.989 109.797,350.883 110.426,351.496L109.747,352.787C109.301,352.225 108.025,351.397 106.437,351.397C103.97,351.397 102.182,353.168 102.182,355.85C102.182,358.532 103.986,360.304 106.437,360.304C107.942,360.304 109.102,359.725 109.847,358.913L110.542,360.088Z" style="fill:rgb(237,50,36);fill-rule:nonzero;"/>
            <path d="M120.452,361.578L118.499,361.578L114.707,355.849L113.532,357.042L113.532,361.578L111.926,361.578L111.926,350.154L113.532,350.154L113.532,355.022L118.184,350.154L120.138,350.154L115.783,354.658L120.452,361.578Z" style="fill:rgb(237,50,36);fill-rule:nonzero;"/>
            <path d="M120.452,361.578L118.499,361.578L114.707,355.849L113.532,357.042L113.532,361.578L111.926,361.578L111.926,357.019L113.532,357.042L114.707,355.849L115.783,354.658L116.4,355.571L116.897,356.308L120.452,361.578Z" style="fill-rule:nonzero;"/>
        </g>
        <path d="M41.889,16.831L45.687,16.831C46.503,16.831 47.178,16.945 47.712,17.173C48.246,17.401 48.672,17.689 48.99,18.037C49.308,18.385 49.53,18.775 49.656,19.207C49.782,19.639 49.845,20.059 49.845,20.467C49.845,21.067 49.743,21.595 49.539,22.051C49.335,22.507 49.053,22.888 48.693,23.194C48.333,23.5 47.904,23.731 47.406,23.887C46.908,24.043 46.365,24.121 45.777,24.121L43.599,24.121L43.599,28.837L41.889,28.837L41.889,16.831ZM45.759,22.645C46.503,22.645 47.076,22.456 47.478,22.078C47.88,21.7 48.081,21.175 48.081,20.503C48.081,19.819 47.874,19.282 47.46,18.892C47.046,18.502 46.479,18.307 45.759,18.307L43.599,18.307L43.599,22.645L45.759,22.645Z" style="fill-rule:nonzero;"/>
        <path d="M50.991,16.831L52.593,16.831L52.593,21.709C52.701,21.565 52.833,21.409 52.989,21.241C53.145,21.073 53.337,20.917 53.565,20.773C53.793,20.629 54.057,20.509 54.357,20.413C54.657,20.317 54.999,20.269 55.383,20.269C56.475,20.269 57.285,20.587 57.813,21.223C58.341,21.859 58.605,22.723 58.605,23.815L58.605,28.837L56.985,28.837L56.985,23.941C56.985,23.161 56.817,22.588 56.481,22.222C56.145,21.856 55.671,21.673 55.059,21.673C54.591,21.673 54.201,21.769 53.889,21.961C53.577,22.153 53.328,22.402 53.142,22.708C52.956,23.014 52.821,23.362 52.737,23.752C52.653,24.142 52.611,24.541 52.611,24.949L52.611,28.837L50.991,28.837L50.991,16.831Z" style="fill-rule:nonzero;"/>
        <path d="M65.547,24.877C65.499,24.865 65.406,24.85 65.268,24.832C65.13,24.814 64.971,24.799 64.791,24.787C64.611,24.775 64.419,24.763 64.215,24.751C64.011,24.739 63.813,24.733 63.621,24.733C63.165,24.733 62.796,24.787 62.514,24.895C62.232,25.003 62.01,25.138 61.848,25.3C61.686,25.462 61.575,25.642 61.515,25.84C61.455,26.038 61.425,26.227 61.425,26.407C61.425,26.863 61.581,27.208 61.893,27.442C62.205,27.676 62.637,27.793 63.189,27.793C63.501,27.793 63.798,27.739 64.08,27.631C64.362,27.523 64.611,27.379 64.827,27.199C65.043,27.019 65.217,26.809 65.349,26.569C65.481,26.329 65.547,26.083 65.547,25.831L65.547,24.877ZM65.565,27.829C65.253,28.249 64.842,28.561 64.332,28.765C63.822,28.969 63.297,29.071 62.757,29.071C62.409,29.071 62.064,29.026 61.722,28.936C61.38,28.846 61.068,28.696 60.786,28.486C60.504,28.276 60.276,28.006 60.102,27.676C59.928,27.346 59.841,26.941 59.841,26.461C59.841,25.561 60.156,24.841 60.786,24.301C61.416,23.761 62.325,23.491 63.513,23.491C63.705,23.491 63.909,23.497 64.125,23.509C64.341,23.521 64.545,23.533 64.737,23.545C64.929,23.557 65.097,23.569 65.241,23.581C65.385,23.593 65.487,23.605 65.547,23.617L65.547,23.311C65.547,22.687 65.358,22.24 64.98,21.97C64.602,21.7 64.089,21.565 63.441,21.565C62.805,21.565 62.301,21.652 61.929,21.826C61.557,22 61.245,22.177 60.993,22.357L60.237,21.259C60.381,21.139 60.555,21.019 60.759,20.899C60.963,20.779 61.203,20.668 61.479,20.566C61.755,20.464 62.067,20.38 62.415,20.314C62.763,20.248 63.165,20.215 63.621,20.215C64.701,20.215 65.55,20.476 66.168,20.998C66.786,21.52 67.095,22.261 67.095,23.221L67.095,28.09C67.095,28.384 67.101,28.633 67.113,28.837L65.601,28.837L65.565,27.829Z" style="fill-rule:nonzero;"/>
        <path d="M69.393,26.731C69.693,27.031 70.053,27.271 70.473,27.451C70.893,27.631 71.379,27.721 71.931,27.721C72.471,27.721 72.921,27.634 73.281,27.46C73.641,27.286 73.821,27.013 73.821,26.641C73.821,26.449 73.782,26.284 73.704,26.146C73.626,26.008 73.494,25.885 73.308,25.777C73.122,25.669 72.876,25.57 72.57,25.48C72.264,25.39 71.883,25.291 71.427,25.183C71.103,25.111 70.782,25.015 70.464,24.895C70.146,24.775 69.861,24.616 69.609,24.418C69.357,24.22 69.153,23.98 68.997,23.698C68.841,23.416 68.763,23.077 68.763,22.681C68.763,22.273 68.856,21.916 69.042,21.61C69.228,21.304 69.477,21.046 69.789,20.836C70.101,20.626 70.452,20.467 70.842,20.359C71.232,20.251 71.637,20.197 72.057,20.197C72.765,20.197 73.374,20.29 73.884,20.476C74.394,20.662 74.841,20.923 75.225,21.259L74.343,22.375C74.091,22.147 73.776,21.955 73.398,21.799C73.02,21.643 72.579,21.565 72.075,21.565C71.559,21.565 71.145,21.649 70.833,21.817C70.521,21.985 70.365,22.261 70.365,22.645C70.365,23.005 70.572,23.272 70.986,23.446C71.4,23.62 71.943,23.785 72.615,23.941C73.011,24.037 73.38,24.148 73.722,24.274C74.064,24.4 74.364,24.562 74.622,24.76C74.88,24.958 75.084,25.201 75.234,25.489C75.384,25.777 75.459,26.125 75.459,26.533C75.459,26.953 75.363,27.322 75.171,27.64C74.979,27.958 74.721,28.225 74.397,28.441C74.073,28.657 73.701,28.819 73.281,28.927C72.861,29.035 72.423,29.089 71.967,29.089C70.383,29.089 69.195,28.663 68.403,27.811L69.393,26.731Z" style="fill-rule:nonzero;"/>
        <path d="M80.925,29.089C80.277,29.089 79.683,28.972 79.143,28.738C78.603,28.504 78.138,28.183 77.748,27.775C77.358,27.367 77.052,26.896 76.83,26.362C76.608,25.828 76.497,25.255 76.497,24.643C76.497,24.031 76.608,23.458 76.83,22.924C77.052,22.39 77.358,21.919 77.748,21.511C78.138,21.103 78.603,20.782 79.143,20.548C79.683,20.314 80.277,20.197 80.925,20.197C81.561,20.197 82.149,20.314 82.689,20.548C83.229,20.782 83.697,21.103 84.093,21.511C84.489,21.919 84.798,22.39 85.02,22.924C85.242,23.458 85.353,24.031 85.353,24.643C85.353,25.255 85.242,25.828 85.02,26.362C84.798,26.896 84.489,27.367 84.093,27.775C83.697,28.183 83.229,28.504 82.689,28.738C82.149,28.972 81.561,29.089 80.925,29.089ZM80.925,27.685C81.357,27.685 81.747,27.598 82.095,27.424C82.443,27.25 82.737,27.022 82.977,26.74C83.217,26.458 83.4,26.134 83.526,25.768C83.652,25.402 83.715,25.027 83.715,24.643C83.715,24.271 83.652,23.902 83.526,23.536C83.4,23.17 83.214,22.843 82.968,22.555C82.722,22.267 82.428,22.036 82.086,21.862C81.744,21.688 81.357,21.601 80.925,21.601C80.493,21.601 80.103,21.688 79.755,21.862C79.407,22.036 79.113,22.264 78.873,22.546C78.633,22.828 78.45,23.152 78.324,23.518C78.198,23.884 78.135,24.259 78.135,24.643C78.135,25.027 78.198,25.399 78.324,25.759C78.45,26.119 78.636,26.443 78.882,26.731C79.128,27.019 79.422,27.25 79.764,27.424C80.106,27.598 80.493,27.685 80.925,27.685Z" style="fill-rule:nonzero;"/>
        <path d="M86.733,28.837L86.733,21.268C86.733,21.01 86.727,20.743 86.715,20.467L88.263,20.467L88.317,21.817C88.413,21.673 88.539,21.514 88.695,21.34C88.851,21.166 89.04,21.007 89.262,20.863C89.484,20.719 89.742,20.596 90.036,20.494C90.33,20.392 90.669,20.341 91.053,20.341C91.233,20.341 91.398,20.353 91.548,20.377C91.698,20.401 91.839,20.437 91.971,20.485L91.611,21.997C91.395,21.913 91.119,21.871 90.783,21.871C90.435,21.871 90.114,21.937 89.82,22.069C89.526,22.201 89.271,22.384 89.055,22.618C88.839,22.852 88.668,23.125 88.542,23.437C88.416,23.749 88.353,24.079 88.353,24.427L88.353,28.837L86.733,28.837Z" style="fill-rule:nonzero;"/>
        <rect x="92.307" y="23.023" width="5.274" height="1.548" style="fill-rule:nonzero;"/>
        <path d="M99.753,25.831L105.063,23.077L99.753,20.323L100.365,19.099L106.953,22.555L106.953,23.599L100.365,27.055L99.753,25.831Z" style="fill-rule:nonzero;"/>
        <path d="M109.161,16.831L110.889,16.831L110.889,27.307L117.135,27.307L117.135,28.837L109.161,28.837L109.161,16.831Z" style="fill-rule:nonzero;"/>
        <path d="M118.569,16.831L126.111,16.831L126.111,18.379L120.297,18.379L120.297,22.051L124.725,22.051L124.725,23.581L120.297,23.581L120.297,28.837L118.569,28.837L118.569,16.831Z" style="fill-rule:nonzero;"/>
        <path d="M132.459,29.143C131.595,29.143 130.791,28.978 130.047,28.648C129.303,28.318 128.655,27.868 128.103,27.298C127.551,26.728 127.119,26.059 126.807,25.291C126.495,24.523 126.339,23.701 126.339,22.825C126.339,21.949 126.495,21.13 126.807,20.368C127.119,19.606 127.548,18.94 128.094,18.37C128.64,17.8 129.288,17.35 130.038,17.02C130.788,16.69 131.595,16.525 132.459,16.525C133.323,16.525 134.13,16.69 134.88,17.02C135.63,17.35 136.281,17.8 136.833,18.37C137.385,18.94 137.817,19.606 138.129,20.368C138.441,21.13 138.597,21.949 138.597,22.825C138.597,23.701 138.441,24.523 138.129,25.291C137.817,26.059 137.385,26.728 136.833,27.298C136.281,27.868 135.63,28.318 134.88,28.648C134.13,28.978 133.323,29.143 132.459,29.143ZM132.459,27.523C133.119,27.523 133.716,27.397 134.25,27.145C134.784,26.893 135.24,26.551 135.618,26.119C135.996,25.687 136.287,25.186 136.491,24.616C136.695,24.046 136.797,23.443 136.797,22.807C136.797,22.159 136.695,21.55 136.491,20.98C136.287,20.41 135.996,19.909 135.618,19.477C135.24,19.045 134.784,18.706 134.25,18.46C133.716,18.214 133.119,18.091 132.459,18.091C131.799,18.091 131.205,18.214 130.677,18.46C130.149,18.706 129.696,19.045 129.318,19.477C128.94,19.909 128.649,20.41 128.445,20.98C128.241,21.55 128.139,22.159 128.139,22.807C128.139,23.443 128.241,24.046 128.445,24.616C128.649,25.186 128.94,25.687 129.318,26.119C129.696,26.551 130.149,26.893 130.677,27.145C131.205,27.397 131.799,27.523 132.459,27.523Z" style="fill-rule:nonzero;"/>
        <path d="M39.851,266.264L40.811,266.264L40.811,270.164C40.811,270.464 40.837,270.739 40.891,270.989C40.944,271.239 41.036,271.454 41.166,271.634C41.296,271.814 41.469,271.952 41.686,272.049C41.902,272.145 42.177,272.194 42.511,272.194C42.837,272.194 43.109,272.145 43.326,272.049C43.542,271.952 43.716,271.814 43.846,271.634C43.976,271.454 44.067,271.239 44.121,270.989C44.174,270.739 44.201,270.464 44.201,270.164L44.201,266.264L45.161,266.264L45.161,270.394C45.161,270.774 45.107,271.129 45.001,271.459C44.894,271.789 44.732,272.075 44.516,272.319C44.299,272.562 44.024,272.754 43.691,272.894C43.357,273.034 42.964,273.104 42.511,273.104C42.057,273.104 41.664,273.034 41.331,272.894C40.997,272.754 40.721,272.562 40.501,272.319C40.281,272.075 40.117,271.789 40.011,271.459C39.904,271.129 39.851,270.774 39.851,270.394L39.851,266.264Z" style="fill-rule:nonzero;"/>
        <path d="M46.491,272.934L46.491,268.759C46.491,268.609 46.487,268.45 46.481,268.284L47.341,268.284L47.371,268.984C47.431,268.904 47.504,268.815 47.591,268.719C47.677,268.622 47.784,268.534 47.911,268.454C48.037,268.374 48.186,268.307 48.356,268.254C48.526,268.2 48.717,268.174 48.931,268.174C49.537,268.174 49.987,268.35 50.281,268.704C50.574,269.057 50.721,269.537 50.721,270.144L50.721,272.934L49.821,272.934L49.821,270.214C49.821,269.78 49.727,269.462 49.541,269.259C49.354,269.055 49.091,268.954 48.751,268.954C48.491,268.954 48.274,269.007 48.101,269.114C47.927,269.22 47.789,269.359 47.686,269.529C47.582,269.699 47.507,269.892 47.461,270.109C47.414,270.325 47.391,270.547 47.391,270.774L47.391,272.934L46.491,272.934Z" style="fill-rule:nonzero;"/>
        <path d="M51.911,266.444L52.921,266.444L52.921,267.454L51.911,267.454L51.911,266.444ZM51.971,268.284L52.871,268.284L52.871,272.934L51.971,272.934L51.971,268.284Z" style="fill-rule:nonzero;"/>
        <path d="M54.151,274.934L54.151,268.759C54.151,268.609 54.147,268.45 54.141,268.284L55.001,268.284L55.031,268.944C55.077,268.884 55.144,268.81 55.231,268.724C55.317,268.637 55.426,268.554 55.556,268.474C55.686,268.394 55.837,268.325 56.011,268.269C56.184,268.212 56.384,268.184 56.611,268.184C56.971,268.184 57.282,268.25 57.546,268.384C57.809,268.517 58.027,268.697 58.201,268.924C58.374,269.15 58.502,269.41 58.586,269.704C58.669,269.997 58.711,270.307 58.711,270.634C58.711,271.054 58.639,271.417 58.496,271.724C58.352,272.03 58.166,272.284 57.936,272.484C57.706,272.684 57.449,272.832 57.166,272.929C56.882,273.025 56.604,273.074 56.331,273.074C56.017,273.074 55.766,273.042 55.576,272.979C55.386,272.915 55.207,272.847 55.041,272.774L55.041,274.934L54.151,274.934ZM55.041,271.924C55.147,272.01 55.301,272.094 55.501,272.174C55.701,272.254 55.951,272.294 56.251,272.294C56.477,272.294 56.686,272.252 56.876,272.169C57.066,272.085 57.229,271.969 57.366,271.819C57.502,271.669 57.607,271.494 57.681,271.294C57.754,271.094 57.791,270.874 57.791,270.634C57.791,270.407 57.766,270.194 57.716,269.994C57.666,269.794 57.586,269.617 57.476,269.464C57.366,269.31 57.224,269.189 57.051,269.099C56.877,269.009 56.664,268.964 56.411,268.964C56.091,268.964 55.817,269.052 55.591,269.229C55.364,269.405 55.204,269.664 55.111,270.004C55.077,270.11 55.057,270.225 55.051,270.349C55.044,270.472 55.041,270.6 55.041,270.734L55.041,271.924Z" style="fill-rule:nonzero;"/>
        <path d="M61.971,273.074C61.611,273.074 61.281,273.009 60.981,272.879C60.681,272.749 60.422,272.57 60.206,272.344C59.989,272.117 59.819,271.855 59.696,271.559C59.572,271.262 59.511,270.944 59.511,270.604C59.511,270.264 59.572,269.945 59.696,269.649C59.819,269.352 59.989,269.09 60.206,268.864C60.422,268.637 60.681,268.459 60.981,268.329C61.281,268.199 61.611,268.134 61.971,268.134C62.324,268.134 62.651,268.199 62.951,268.329C63.251,268.459 63.511,268.637 63.731,268.864C63.951,269.09 64.122,269.352 64.246,269.649C64.369,269.945 64.431,270.264 64.431,270.604C64.431,270.944 64.369,271.262 64.246,271.559C64.122,271.855 63.951,272.117 63.731,272.344C63.511,272.57 63.251,272.749 62.951,272.879C62.651,273.009 62.324,273.074 61.971,273.074ZM61.971,272.294C62.211,272.294 62.427,272.245 62.621,272.149C62.814,272.052 62.977,271.925 63.111,271.769C63.244,271.612 63.346,271.432 63.416,271.229C63.486,271.025 63.521,270.817 63.521,270.604C63.521,270.397 63.486,270.192 63.416,269.989C63.346,269.785 63.242,269.604 63.106,269.444C62.969,269.284 62.806,269.155 62.616,269.059C62.426,268.962 62.211,268.914 61.971,268.914C61.731,268.914 61.514,268.962 61.321,269.059C61.127,269.155 60.964,269.282 60.831,269.439C60.697,269.595 60.596,269.775 60.526,269.979C60.456,270.182 60.421,270.39 60.421,270.604C60.421,270.817 60.456,271.024 60.526,271.224C60.596,271.424 60.699,271.604 60.836,271.764C60.972,271.924 61.136,272.052 61.326,272.149C61.516,272.245 61.731,272.294 61.971,272.294Z" style="fill-rule:nonzero;"/>
        <rect x="65.451" y="266.264" width="0.9" height="6.67" style="fill-rule:nonzero;"/>
        <path d="M70.491,270.734C70.464,270.727 70.412,270.719 70.336,270.709C70.259,270.699 70.171,270.69 70.071,270.684C69.971,270.677 69.864,270.67 69.751,270.664C69.637,270.657 69.527,270.654 69.421,270.654C69.167,270.654 68.962,270.684 68.806,270.744C68.649,270.804 68.526,270.879 68.436,270.969C68.346,271.059 68.284,271.159 68.251,271.269C68.217,271.379 68.201,271.484 68.201,271.584C68.201,271.837 68.287,272.029 68.461,272.159C68.634,272.289 68.874,272.354 69.181,272.354C69.354,272.354 69.519,272.324 69.676,272.264C69.832,272.204 69.971,272.124 70.091,272.024C70.211,271.924 70.307,271.807 70.381,271.674C70.454,271.54 70.491,271.404 70.491,271.264L70.491,270.734ZM70.501,272.374C70.327,272.607 70.099,272.78 69.816,272.894C69.532,273.007 69.241,273.064 68.941,273.064C68.747,273.064 68.556,273.039 68.366,272.989C68.176,272.939 68.002,272.855 67.846,272.739C67.689,272.622 67.562,272.472 67.466,272.289C67.369,272.105 67.321,271.88 67.321,271.614C67.321,271.114 67.496,270.714 67.846,270.414C68.196,270.114 68.701,269.964 69.361,269.964C69.467,269.964 69.581,269.967 69.701,269.974C69.821,269.98 69.934,269.987 70.041,269.994C70.147,270 70.241,270.007 70.321,270.014C70.401,270.02 70.457,270.027 70.491,270.034L70.491,269.864C70.491,269.517 70.386,269.269 70.176,269.119C69.966,268.969 69.681,268.894 69.321,268.894C68.967,268.894 68.687,268.942 68.481,269.039C68.274,269.135 68.101,269.234 67.961,269.334L67.541,268.724C67.621,268.657 67.717,268.59 67.831,268.524C67.944,268.457 68.077,268.395 68.231,268.339C68.384,268.282 68.557,268.235 68.751,268.199C68.944,268.162 69.167,268.144 69.421,268.144C70.021,268.144 70.492,268.289 70.836,268.579C71.179,268.869 71.351,269.28 71.351,269.814L71.351,272.519C71.351,272.682 71.354,272.82 71.361,272.934L70.521,272.934L70.501,272.374Z" style="fill-rule:nonzero;"/>
        <path d="M72.581,272.934L72.581,268.729C72.581,268.585 72.577,268.437 72.571,268.284L73.431,268.284L73.461,269.034C73.514,268.954 73.584,268.865 73.671,268.769C73.757,268.672 73.862,268.584 73.986,268.504C74.109,268.424 74.252,268.355 74.416,268.299C74.579,268.242 74.767,268.214 74.981,268.214C75.081,268.214 75.172,268.22 75.256,268.234C75.339,268.247 75.417,268.267 75.491,268.294L75.291,269.134C75.171,269.087 75.017,269.064 74.831,269.064C74.637,269.064 74.459,269.1 74.296,269.174C74.132,269.247 73.991,269.349 73.871,269.479C73.751,269.609 73.656,269.76 73.586,269.934C73.516,270.107 73.481,270.29 73.481,270.484L73.481,272.934L72.581,272.934Z" style="fill-rule:nonzero;"/>
        <path d="M105.159,266.264L107.419,266.264C107.766,266.264 108.066,266.309 108.319,266.399C108.573,266.489 108.783,266.61 108.949,266.764C109.116,266.917 109.241,267.097 109.324,267.304C109.408,267.51 109.449,267.73 109.449,267.964C109.449,268.177 109.411,268.37 109.334,268.544C109.258,268.717 109.164,268.864 109.054,268.984C108.944,269.104 108.824,269.2 108.694,269.274C108.564,269.347 108.446,269.39 108.339,269.404C108.479,269.424 108.634,269.465 108.804,269.529C108.974,269.592 109.133,269.687 109.279,269.814C109.426,269.94 109.549,270.105 109.649,270.309C109.749,270.512 109.799,270.764 109.799,271.064C109.799,271.424 109.734,271.722 109.604,271.959C109.474,272.195 109.298,272.387 109.074,272.534C108.851,272.68 108.586,272.784 108.279,272.844C107.973,272.904 107.646,272.934 107.299,272.934L105.159,272.934L105.159,266.264ZM107.279,269.044C107.426,269.044 107.573,269.025 107.719,268.989C107.866,268.952 107.999,268.894 108.119,268.814C108.239,268.734 108.336,268.63 108.409,268.504C108.483,268.377 108.519,268.224 108.519,268.044C108.519,267.844 108.483,267.682 108.409,267.559C108.336,267.435 108.239,267.339 108.119,267.269C107.999,267.199 107.866,267.152 107.719,267.129C107.573,267.105 107.426,267.094 107.279,267.094L106.089,267.094L106.089,269.044L107.279,269.044ZM107.249,272.104C107.423,272.104 107.603,272.094 107.789,272.074C107.976,272.054 108.148,272.007 108.304,271.934C108.461,271.86 108.589,271.752 108.689,271.609C108.789,271.465 108.839,271.267 108.839,271.014C108.839,270.774 108.791,270.58 108.694,270.434C108.598,270.287 108.474,270.17 108.324,270.084C108.174,269.997 108.009,269.939 107.829,269.909C107.649,269.879 107.476,269.864 107.309,269.864L106.089,269.864L106.089,272.104L107.249,272.104Z" style="fill-rule:nonzero;"/>
        <path d="M110.899,266.444L111.909,266.444L111.909,267.454L110.899,267.454L110.899,266.444ZM110.959,268.284L111.859,268.284L111.859,272.934L110.959,272.934L110.959,268.284Z" style="fill-rule:nonzero;"/>
        <path d="M113.139,274.934L113.139,268.759C113.139,268.609 113.136,268.45 113.129,268.284L113.989,268.284L114.019,268.944C114.066,268.884 114.133,268.81 114.219,268.724C114.306,268.637 114.414,268.554 114.544,268.474C114.674,268.394 114.826,268.325 114.999,268.269C115.173,268.212 115.373,268.184 115.599,268.184C115.959,268.184 116.271,268.25 116.534,268.384C116.798,268.517 117.016,268.697 117.189,268.924C117.363,269.15 117.491,269.41 117.574,269.704C117.658,269.997 117.699,270.307 117.699,270.634C117.699,271.054 117.628,271.417 117.484,271.724C117.341,272.03 117.154,272.284 116.924,272.484C116.694,272.684 116.438,272.832 116.154,272.929C115.871,273.025 115.593,273.074 115.319,273.074C115.006,273.074 114.754,273.042 114.564,272.979C114.374,272.915 114.196,272.847 114.029,272.774L114.029,274.934L113.139,274.934ZM114.029,271.924C114.136,272.01 114.289,272.094 114.489,272.174C114.689,272.254 114.939,272.294 115.239,272.294C115.466,272.294 115.674,272.252 115.864,272.169C116.054,272.085 116.218,271.969 116.354,271.819C116.491,271.669 116.596,271.494 116.669,271.294C116.743,271.094 116.779,270.874 116.779,270.634C116.779,270.407 116.754,270.194 116.704,269.994C116.654,269.794 116.574,269.617 116.464,269.464C116.354,269.31 116.213,269.189 116.039,269.099C115.866,269.009 115.653,268.964 115.399,268.964C115.079,268.964 114.806,269.052 114.579,269.229C114.353,269.405 114.193,269.664 114.099,270.004C114.066,270.11 114.046,270.225 114.039,270.349C114.033,270.472 114.029,270.6 114.029,270.734L114.029,271.924Z" style="fill-rule:nonzero;"/>
        <path d="M120.959,273.074C120.599,273.074 120.269,273.009 119.969,272.879C119.669,272.749 119.411,272.57 119.194,272.344C118.978,272.117 118.808,271.855 118.684,271.559C118.561,271.262 118.499,270.944 118.499,270.604C118.499,270.264 118.561,269.945 118.684,269.649C118.808,269.352 118.978,269.09 119.194,268.864C119.411,268.637 119.669,268.459 119.969,268.329C120.269,268.199 120.599,268.134 120.959,268.134C121.313,268.134 121.639,268.199 121.939,268.329C122.239,268.459 122.499,268.637 122.719,268.864C122.939,269.09 123.111,269.352 123.234,269.649C123.358,269.945 123.419,270.264 123.419,270.604C123.419,270.944 123.358,271.262 123.234,271.559C123.111,271.855 122.939,272.117 122.719,272.344C122.499,272.57 122.239,272.749 121.939,272.879C121.639,273.009 121.313,273.074 120.959,273.074ZM120.959,272.294C121.199,272.294 121.416,272.245 121.609,272.149C121.803,272.052 121.966,271.925 122.099,271.769C122.233,271.612 122.334,271.432 122.404,271.229C122.474,271.025 122.509,270.817 122.509,270.604C122.509,270.397 122.474,270.192 122.404,269.989C122.334,269.785 122.231,269.604 122.094,269.444C121.958,269.284 121.794,269.155 121.604,269.059C121.414,268.962 121.199,268.914 120.959,268.914C120.719,268.914 120.503,268.962 120.309,269.059C120.116,269.155 119.953,269.282 119.819,269.439C119.686,269.595 119.584,269.775 119.514,269.979C119.444,270.182 119.409,270.39 119.409,270.604C119.409,270.817 119.444,271.024 119.514,271.224C119.584,271.424 119.688,271.604 119.824,271.764C119.961,271.924 120.124,272.052 120.314,272.149C120.504,272.245 120.719,272.294 120.959,272.294Z" style="fill-rule:nonzero;"/>
        <rect x="124.439" y="266.264" width="0.9" height="6.67" style="fill-rule:nonzero;"/>
        <path d="M129.479,270.734C129.453,270.727 129.401,270.719 129.324,270.709C129.248,270.699 129.159,270.69 129.059,270.684C128.959,270.677 128.853,270.67 128.739,270.664C128.626,270.657 128.516,270.654 128.409,270.654C128.156,270.654 127.951,270.684 127.794,270.744C127.638,270.804 127.514,270.879 127.424,270.969C127.334,271.059 127.273,271.159 127.239,271.269C127.206,271.379 127.189,271.484 127.189,271.584C127.189,271.837 127.276,272.029 127.449,272.159C127.623,272.289 127.863,272.354 128.169,272.354C128.343,272.354 128.508,272.324 128.664,272.264C128.821,272.204 128.959,272.124 129.079,272.024C129.199,271.924 129.296,271.807 129.369,271.674C129.443,271.54 129.479,271.404 129.479,271.264L129.479,270.734ZM129.489,272.374C129.316,272.607 129.088,272.78 128.804,272.894C128.521,273.007 128.229,273.064 127.929,273.064C127.736,273.064 127.544,273.039 127.354,272.989C127.164,272.939 126.991,272.855 126.834,272.739C126.678,272.622 126.551,272.472 126.454,272.289C126.358,272.105 126.309,271.88 126.309,271.614C126.309,271.114 126.484,270.714 126.834,270.414C127.184,270.114 127.689,269.964 128.349,269.964C128.456,269.964 128.569,269.967 128.689,269.974C128.809,269.98 128.923,269.987 129.029,269.994C129.136,270 129.229,270.007 129.309,270.014C129.389,270.02 129.446,270.027 129.479,270.034L129.479,269.864C129.479,269.517 129.374,269.269 129.164,269.119C128.954,268.969 128.669,268.894 128.309,268.894C127.956,268.894 127.676,268.942 127.469,269.039C127.263,269.135 127.089,269.234 126.949,269.334L126.529,268.724C126.609,268.657 126.706,268.59 126.819,268.524C126.933,268.457 127.066,268.395 127.219,268.339C127.373,268.282 127.546,268.235 127.739,268.199C127.933,268.162 128.156,268.144 128.409,268.144C129.009,268.144 129.481,268.289 129.824,268.579C130.168,268.869 130.339,269.28 130.339,269.814L130.339,272.519C130.339,272.682 130.343,272.82 130.349,272.934L129.509,272.934L129.489,272.374Z" style="fill-rule:nonzero;"/>
        <path d="M131.569,272.934L131.569,268.729C131.569,268.585 131.566,268.437 131.559,268.284L132.419,268.284L132.449,269.034C132.503,268.954 132.573,268.865 132.659,268.769C132.746,268.672 132.851,268.584 132.974,268.504C133.098,268.424 133.241,268.355 133.404,268.299C133.568,268.242 133.756,268.214 133.969,268.214C134.069,268.214 134.161,268.22 134.244,268.234C134.328,268.247 134.406,268.267 134.479,268.294L134.279,269.134C134.159,269.087 134.006,269.064 133.819,269.064C133.626,269.064 133.448,269.1 133.284,269.174C133.121,269.247 132.979,269.349 132.859,269.479C132.739,269.609 132.644,269.76 132.574,269.934C132.504,270.107 132.469,270.29 132.469,270.484L132.469,272.934L131.569,272.934Z" style="fill-rule:nonzero;"/>
        <g>
            <path d="M78.465,98.243C78.558,98.35 78.663,98.458 78.78,98.568C78.897,98.678 79.028,98.776 79.175,98.863C79.322,98.95 79.485,99.02 79.665,99.073C79.845,99.126 80.042,99.153 80.255,99.153C80.695,99.153 81.038,99.053 81.285,98.853C81.532,98.653 81.655,98.383 81.655,98.043C81.655,97.676 81.515,97.401 81.235,97.218C80.955,97.035 80.552,96.886 80.025,96.773C79.738,96.713 79.478,96.63 79.245,96.523C79.012,96.416 78.81,96.283 78.64,96.123C78.47,95.963 78.338,95.778 78.245,95.568C78.152,95.358 78.105,95.12 78.105,94.853C78.105,94.606 78.152,94.373 78.245,94.153C78.338,93.933 78.478,93.74 78.665,93.573C78.852,93.406 79.085,93.273 79.365,93.173C79.645,93.073 79.968,93.023 80.335,93.023C80.662,93.023 80.943,93.058 81.18,93.128C81.417,93.198 81.618,93.283 81.785,93.383C81.952,93.483 82.085,93.586 82.185,93.693C82.285,93.8 82.362,93.886 82.415,93.953L81.775,94.543C81.735,94.496 81.675,94.435 81.595,94.358C81.515,94.281 81.413,94.206 81.29,94.133C81.167,94.06 81.023,93.998 80.86,93.948C80.697,93.898 80.508,93.873 80.295,93.873C80.082,93.873 79.898,93.901 79.745,93.958C79.592,94.015 79.465,94.088 79.365,94.178C79.265,94.268 79.192,94.37 79.145,94.483C79.098,94.596 79.075,94.71 79.075,94.823C79.075,94.99 79.11,95.131 79.18,95.248C79.25,95.365 79.352,95.468 79.485,95.558C79.618,95.648 79.783,95.725 79.98,95.788C80.177,95.851 80.402,95.913 80.655,95.973C80.902,96.033 81.143,96.111 81.38,96.208C81.617,96.305 81.828,96.435 82.015,96.598C82.202,96.761 82.35,96.961 82.46,97.198C82.57,97.435 82.625,97.723 82.625,98.063C82.625,98.35 82.565,98.613 82.445,98.853C82.325,99.093 82.16,99.301 81.95,99.478C81.74,99.655 81.492,99.791 81.205,99.888C80.918,99.985 80.608,100.033 80.275,100.033C79.962,100.033 79.677,99.996 79.42,99.923C79.163,99.85 78.93,99.756 78.72,99.643C78.51,99.53 78.327,99.405 78.17,99.268C78.013,99.131 77.885,98.996 77.785,98.863L78.465,98.243Z" style="fill-rule:nonzero;"/>
            <path d="M83.845,93.193L84.745,93.193L84.745,97.123L86.695,95.213L87.775,95.213L86.015,96.933L88.035,99.863L86.965,99.863L85.385,97.533L84.745,98.153L84.745,99.863L83.845,99.863L83.845,93.193Z" style="fill-rule:nonzero;"/>
            <path d="M92.985,99.183C92.932,99.243 92.852,99.32 92.745,99.413C92.638,99.506 92.5,99.596 92.33,99.683C92.16,99.77 91.96,99.845 91.73,99.908C91.5,99.971 91.238,100.003 90.945,100.003C90.585,100.003 90.255,99.943 89.955,99.823C89.655,99.703 89.398,99.533 89.185,99.313C88.972,99.093 88.807,98.83 88.69,98.523C88.573,98.216 88.515,97.876 88.515,97.503C88.515,97.163 88.572,96.845 88.685,96.548C88.798,96.251 88.958,95.995 89.165,95.778C89.372,95.561 89.617,95.39 89.9,95.263C90.183,95.136 90.495,95.073 90.835,95.073C91.235,95.073 91.578,95.15 91.865,95.303C92.152,95.456 92.387,95.66 92.57,95.913C92.753,96.166 92.888,96.456 92.975,96.783C93.062,97.11 93.105,97.45 93.105,97.803L89.435,97.803C89.442,98.01 89.487,98.2 89.57,98.373C89.653,98.546 89.765,98.696 89.905,98.823C90.045,98.95 90.205,99.05 90.385,99.123C90.565,99.196 90.755,99.233 90.955,99.233C91.348,99.233 91.672,99.166 91.925,99.033C92.178,98.9 92.362,98.77 92.475,98.643L92.985,99.183ZM92.175,97.133C92.148,96.773 92.022,96.466 91.795,96.213C91.568,95.96 91.248,95.833 90.835,95.833C90.622,95.833 90.43,95.87 90.26,95.943C90.09,96.016 89.945,96.113 89.825,96.233C89.705,96.353 89.612,96.491 89.545,96.648C89.478,96.805 89.442,96.966 89.435,97.133L92.175,97.133Z" style="fill-rule:nonzero;"/>
            <path d="M93.475,95.213L94.465,95.213L95.505,98.763L96.625,95.213L97.395,95.213L98.515,98.793L99.535,95.213L100.465,95.213L98.925,99.863L98.035,99.863L96.955,96.613L95.885,99.863L95.045,99.863L93.475,95.213Z" style="fill-rule:nonzero;"/>
            <rect x="76.242" y="84.078" width="2.216" height="0.943" style="fill-rule:nonzero;"/>
            <path d="M103.05,85.405L103.05,84.302L101.634,84.302L101.634,82.886L100.531,82.886L100.531,84.302L99.115,84.302L99.115,85.405L100.531,85.405L100.531,86.821L101.634,86.821L101.634,85.405L103.05,85.405Z" style="fill-rule:nonzero;"/>
            <path d="M30,80L32,80L32,79L30,79" style="fill-rule:nonzero;"/>
            <path d="M34,80L38,80L38,79L34,79L34,80ZM40,80L44,80L44,79L40,79L40,80ZM46,80L50,80L50,79L46,79L46,80ZM52,80L56,80L56,79L52,79L52,80ZM58,80L62,80L62,79L58,79L58,80ZM64,80L68,80L68,79L64,79L64,80ZM70,80L74,80L74,79L70,79L70,80ZM76,80L80,80L80,79L76,79L76,80ZM82,80L86,80L86,79L82,79L82,80ZM88,80L92,80L92,79L88,79L88,80ZM94,80L98,80L98,79L94,79L94,80ZM100,80L104,80L104,79L100,79L100,80ZM106,80L110,80L110,79L106,79L106,80ZM112,80L116,80L116,79L112,79L112,80ZM118,80L122,80L122,79L118,79L118,80ZM124,80L128,80L128,79L124,79L124,80ZM130,80L134,80L134,79L130,79L130,80ZM136,80L140,80L140,79L136,79L136,80ZM142,80L146,80L146,79L142,79L142,80Z" style="fill-rule:nonzero;"/>
            <path d="M148,80L150,80L150,79L148,79" style="fill-rule:nonzero;"/>
        </g>
        <g>
            <path d="M76.285,143.439L77.345,143.439L78.625,148.819L80.075,143.639L81.005,143.639L82.425,148.809L83.705,143.439L84.705,143.439L82.915,150.109L81.895,150.109L80.505,145.179L79.075,150.109L78.065,150.109L76.285,143.439Z" style="fill-rule:nonzero;"/>
            <path d="M85.495,143.619L86.505,143.619L86.505,144.629L85.495,144.629L85.495,143.619ZM85.555,145.459L86.455,145.459L86.455,150.109L85.555,150.109L85.555,145.459Z" style="fill-rule:nonzero;"/>
            <path d="M91.085,146.489C91.018,146.435 90.895,146.364 90.715,146.274C90.535,146.184 90.278,146.139 89.945,146.139C89.725,146.139 89.523,146.179 89.34,146.259C89.157,146.339 88.997,146.452 88.86,146.599C88.723,146.745 88.617,146.925 88.54,147.139C88.463,147.352 88.425,147.592 88.425,147.859C88.425,148.079 88.452,148.287 88.505,148.484C88.558,148.68 88.64,148.852 88.75,148.999C88.86,149.145 89,149.26 89.17,149.344C89.34,149.427 89.542,149.469 89.775,149.469C90.008,149.469 90.208,149.425 90.375,149.339C90.542,149.252 90.677,149.144 90.78,149.014C90.883,148.884 90.96,148.74 91.01,148.584C91.06,148.427 91.085,148.282 91.085,148.149L91.085,146.489ZM91.085,149.519C91.052,149.559 90.997,149.62 90.92,149.704C90.843,149.787 90.742,149.869 90.615,149.949C90.488,150.029 90.34,150.099 90.17,150.159C90,150.219 89.802,150.249 89.575,150.249C89.282,150.249 89.008,150.192 88.755,150.079C88.502,149.965 88.282,149.805 88.095,149.599C87.908,149.392 87.763,149.14 87.66,148.844C87.557,148.547 87.505,148.215 87.505,147.849C87.505,147.409 87.582,147.03 87.735,146.714C87.888,146.397 88.083,146.137 88.32,145.934C88.557,145.73 88.813,145.582 89.09,145.489C89.367,145.395 89.628,145.349 89.875,145.349C90.208,145.349 90.468,145.389 90.655,145.469C90.842,145.549 90.985,145.609 91.085,145.649L91.085,143.439L91.985,143.439L91.985,149.634C91.985,149.784 91.988,149.942 91.995,150.109L91.115,150.109L91.085,149.519Z" style="fill-rule:nonzero;"/>
            <path d="M93.635,146.209L92.795,146.209L92.795,145.459L93.635,145.459L93.635,143.939L94.535,143.939L94.535,145.459L95.895,145.459L95.895,146.209L94.535,146.209L94.535,148.499C94.535,148.872 94.593,149.129 94.71,149.269C94.827,149.409 94.992,149.479 95.205,149.479C95.378,149.479 95.522,149.452 95.635,149.399C95.748,149.345 95.862,149.265 95.975,149.159L96.385,149.709C96.192,149.895 95.993,150.03 95.79,150.114C95.587,150.197 95.345,150.239 95.065,150.239C94.572,150.239 94.21,150.105 93.98,149.839C93.75,149.572 93.635,149.155 93.635,148.589L93.635,146.209Z" style="fill-rule:nonzero;"/>
            <path d="M97.065,143.439L97.955,143.439L97.955,146.149C98.015,146.069 98.088,145.982 98.175,145.889C98.262,145.795 98.368,145.709 98.495,145.629C98.622,145.549 98.768,145.482 98.935,145.429C99.102,145.375 99.292,145.349 99.505,145.349C100.112,145.349 100.562,145.525 100.855,145.879C101.148,146.232 101.295,146.712 101.295,147.319L101.295,150.109L100.395,150.109L100.395,147.389C100.395,146.955 100.302,146.637 100.115,146.434C99.928,146.23 99.665,146.129 99.325,146.129C99.065,146.129 98.848,146.182 98.675,146.289C98.502,146.395 98.363,146.534 98.26,146.704C98.157,146.874 98.082,147.067 98.035,147.284C97.988,147.5 97.965,147.722 97.965,147.949L97.965,150.109L97.065,150.109L97.065,143.439Z" style="fill-rule:nonzero;"/>
            <rect x="76.242" y="133.348" width="2.216" height="0.943" style="fill-rule:nonzero;"/>
            <path d="M103.05,134.675L103.05,133.572L101.634,133.572L101.634,132.156L100.531,132.156L100.531,133.572L99.115,133.572L99.115,134.675L100.531,134.675L100.531,136.091L101.634,136.091L101.634,134.675L103.05,134.675Z" style="fill-rule:nonzero;"/>
            <path d="M30,129.19L32,129.19L32,128.19L30,128.19" style="fill-rule:nonzero;"/>
            <path d="M34,129.19L38,129.19L38,128.19L34,128.19L34,129.19ZM40,129.19L44,129.19L44,128.19L40,128.19L40,129.19ZM46,129.19L50,129.19L50,128.19L46,128.19L46,129.19ZM52,129.19L56,129.19L56,128.19L52,128.19L52,129.19ZM58,129.19L62,129.19L62,128.19L58,128.19L58,129.19ZM64,129.19L68,129.19L68,128.19L64,128.19L64,129.19ZM70,129.19L74,129.19L74,128.19L70,128.19L70,129.19ZM76,129.19L80,129.19L80,128.19L76,128.19L76,129.19ZM82,129.19L86,129.19L86,128.19L82,128.19L82,129.19ZM88,129.19L92,129.19L92,128.19L88,128.19L88,129.19ZM94,129.19L98,129.19L98,128.19L94,128.19L94,129.19ZM100,129.19L104,129.19L104,128.19L100,128.19L100,129.19ZM106,129.19L110,129.19L110,128.19L106,128.19L106,129.19ZM112,129.19L116,129.19L116,128.19L112,128.19L112,129.19ZM118,129.19L122,129.19L122,128.19L118,128.19L118,129.19ZM124,129.19L128,129.19L128,128.19L124,128.19L124,129.19ZM130,129.19L134,129.19L134,128.19L130,128.19L130,129.19ZM136,129.19L140,129.19L140,128.19L136,128.19L136,129.19ZM142,129.19L146,129.19L146,128.19L142,128.19L142,129.19Z" style="fill-rule:nonzero;"/>
            <path d="M148,129.19L150,129.19L150,128.19L148,128.19" style="fill-rule:nonzero;"/>
        </g>
        <g>
            <path d="M76.46,198.098C76.553,198.204 76.658,198.313 76.775,198.423C76.892,198.533 77.023,198.631 77.17,198.718C77.317,198.804 77.48,198.874 77.66,198.928C77.84,198.981 78.037,199.008 78.25,199.008C78.69,199.008 79.033,198.908 79.28,198.708C79.527,198.508 79.65,198.238 79.65,197.898C79.65,197.531 79.51,197.256 79.23,197.073C78.95,196.889 78.547,196.741 78.02,196.628C77.733,196.568 77.473,196.484 77.24,196.378C77.007,196.271 76.805,196.138 76.635,195.978C76.465,195.818 76.333,195.633 76.24,195.423C76.147,195.213 76.1,194.974 76.1,194.708C76.1,194.461 76.147,194.228 76.24,194.008C76.333,193.788 76.473,193.594 76.66,193.428C76.847,193.261 77.08,193.128 77.36,193.028C77.64,192.928 77.963,192.878 78.33,192.878C78.657,192.878 78.938,192.913 79.175,192.983C79.412,193.053 79.613,193.138 79.78,193.238C79.947,193.338 80.08,193.441 80.18,193.548C80.28,193.654 80.357,193.741 80.41,193.808L79.77,194.398C79.73,194.351 79.67,194.289 79.59,194.213C79.51,194.136 79.408,194.061 79.285,193.988C79.162,193.914 79.018,193.853 78.855,193.803C78.692,193.753 78.503,193.728 78.29,193.728C78.077,193.728 77.893,193.756 77.74,193.813C77.587,193.869 77.46,193.943 77.36,194.033C77.26,194.123 77.187,194.224 77.14,194.338C77.093,194.451 77.07,194.564 77.07,194.678C77.07,194.844 77.105,194.986 77.175,195.103C77.245,195.219 77.347,195.323 77.48,195.413C77.613,195.503 77.778,195.579 77.975,195.643C78.172,195.706 78.397,195.768 78.65,195.828C78.897,195.888 79.138,195.966 79.375,196.063C79.612,196.159 79.823,196.289 80.01,196.453C80.197,196.616 80.345,196.816 80.455,197.053C80.565,197.289 80.62,197.578 80.62,197.918C80.62,198.204 80.56,198.468 80.44,198.708C80.32,198.948 80.155,199.156 79.945,199.333C79.735,199.509 79.487,199.646 79.2,199.743C78.913,199.839 78.603,199.888 78.27,199.888C77.957,199.888 77.672,199.851 77.415,199.778C77.158,199.704 76.925,199.611 76.715,199.498C76.505,199.384 76.322,199.259 76.165,199.123C76.008,198.986 75.88,198.851 75.78,198.718L76.46,198.098Z" style="fill-rule:nonzero;"/>
            <path d="M81.84,193.048L82.73,193.048L82.73,195.758C82.79,195.678 82.863,195.591 82.95,195.498C83.037,195.404 83.143,195.318 83.27,195.238C83.397,195.158 83.543,195.091 83.71,195.038C83.877,194.984 84.067,194.958 84.28,194.958C84.887,194.958 85.337,195.134 85.63,195.488C85.923,195.841 86.07,196.321 86.07,196.928L86.07,199.718L85.17,199.718L85.17,196.998C85.17,196.564 85.077,196.246 84.89,196.043C84.703,195.839 84.44,195.738 84.1,195.738C83.84,195.738 83.623,195.791 83.45,195.898C83.277,196.004 83.138,196.143 83.035,196.313C82.932,196.483 82.857,196.676 82.81,196.893C82.763,197.109 82.74,197.331 82.74,197.558L82.74,199.718L81.84,199.718L81.84,193.048Z" style="fill-rule:nonzero;"/>
            <path d="M90.18,197.518C90.153,197.511 90.102,197.503 90.025,197.493C89.948,197.483 89.86,197.474 89.76,197.468C89.66,197.461 89.553,197.454 89.44,197.448C89.327,197.441 89.217,197.438 89.11,197.438C88.857,197.438 88.652,197.468 88.495,197.528C88.338,197.588 88.215,197.663 88.125,197.753C88.035,197.843 87.973,197.943 87.94,198.053C87.907,198.163 87.89,198.268 87.89,198.368C87.89,198.621 87.977,198.813 88.15,198.943C88.323,199.073 88.563,199.138 88.87,199.138C89.043,199.138 89.208,199.108 89.365,199.048C89.522,198.988 89.66,198.908 89.78,198.808C89.9,198.708 89.997,198.591 90.07,198.458C90.143,198.324 90.18,198.188 90.18,198.048L90.18,197.518ZM90.19,199.158C90.017,199.391 89.788,199.564 89.505,199.678C89.222,199.791 88.93,199.848 88.63,199.848C88.437,199.848 88.245,199.823 88.055,199.773C87.865,199.723 87.692,199.639 87.535,199.523C87.378,199.406 87.252,199.256 87.155,199.073C87.058,198.889 87.01,198.664 87.01,198.398C87.01,197.898 87.185,197.498 87.535,197.198C87.885,196.898 88.39,196.748 89.05,196.748C89.157,196.748 89.27,196.751 89.39,196.758C89.51,196.764 89.623,196.771 89.73,196.778C89.837,196.784 89.93,196.791 90.01,196.798C90.09,196.804 90.147,196.811 90.18,196.818L90.18,196.648C90.18,196.301 90.075,196.053 89.865,195.903C89.655,195.753 89.37,195.678 89.01,195.678C88.657,195.678 88.377,195.726 88.17,195.823C87.963,195.919 87.79,196.018 87.65,196.118L87.23,195.508C87.31,195.441 87.407,195.374 87.52,195.308C87.633,195.241 87.767,195.179 87.92,195.123C88.073,195.066 88.247,195.019 88.44,194.983C88.633,194.946 88.857,194.928 89.11,194.928C89.71,194.928 90.182,195.073 90.525,195.363C90.868,195.653 91.04,196.064 91.04,196.598L91.04,199.303C91.04,199.466 91.043,199.604 91.05,199.718L90.21,199.718L90.19,199.158Z" style="fill-rule:nonzero;"/>
            <path d="M92.27,201.718L92.27,195.543C92.27,195.393 92.267,195.234 92.26,195.068L93.12,195.068L93.15,195.728C93.197,195.668 93.263,195.594 93.35,195.508C93.437,195.421 93.545,195.338 93.675,195.258C93.805,195.178 93.957,195.109 94.13,195.053C94.303,194.996 94.503,194.968 94.73,194.968C95.09,194.968 95.402,195.034 95.665,195.168C95.928,195.301 96.147,195.481 96.32,195.708C96.493,195.934 96.622,196.194 96.705,196.488C96.788,196.781 96.83,197.091 96.83,197.418C96.83,197.838 96.758,198.201 96.615,198.508C96.472,198.814 96.285,199.068 96.055,199.268C95.825,199.468 95.568,199.616 95.285,199.713C95.002,199.809 94.723,199.858 94.45,199.858C94.137,199.858 93.885,199.826 93.695,199.763C93.505,199.699 93.327,199.631 93.16,199.558L93.16,201.718L92.27,201.718ZM93.16,198.708C93.267,198.794 93.42,198.878 93.62,198.958C93.82,199.038 94.07,199.078 94.37,199.078C94.597,199.078 94.805,199.036 94.995,198.953C95.185,198.869 95.348,198.753 95.485,198.603C95.622,198.453 95.727,198.278 95.8,198.078C95.873,197.878 95.91,197.658 95.91,197.418C95.91,197.191 95.885,196.978 95.835,196.778C95.785,196.578 95.705,196.401 95.595,196.248C95.485,196.094 95.343,195.973 95.17,195.883C94.997,195.793 94.783,195.748 94.53,195.748C94.21,195.748 93.937,195.836 93.71,196.013C93.483,196.189 93.323,196.448 93.23,196.788C93.197,196.894 93.177,197.009 93.17,197.133C93.163,197.256 93.16,197.384 93.16,197.518L93.16,198.708Z" style="fill-rule:nonzero;"/>
            <path d="M102.09,199.038C102.037,199.098 101.957,199.174 101.85,199.268C101.743,199.361 101.605,199.451 101.435,199.538C101.265,199.624 101.065,199.699 100.835,199.763C100.605,199.826 100.343,199.858 100.05,199.858C99.69,199.858 99.36,199.798 99.06,199.678C98.76,199.558 98.503,199.388 98.29,199.168C98.077,198.948 97.912,198.684 97.795,198.378C97.678,198.071 97.62,197.731 97.62,197.358C97.62,197.018 97.677,196.699 97.79,196.403C97.903,196.106 98.063,195.849 98.27,195.633C98.477,195.416 98.722,195.244 99.005,195.118C99.288,194.991 99.6,194.928 99.94,194.928C100.34,194.928 100.683,195.004 100.97,195.158C101.257,195.311 101.492,195.514 101.675,195.768C101.858,196.021 101.993,196.311 102.08,196.638C102.167,196.964 102.21,197.304 102.21,197.658L98.54,197.658C98.547,197.864 98.592,198.054 98.675,198.228C98.758,198.401 98.87,198.551 99.01,198.678C99.15,198.804 99.31,198.904 99.49,198.978C99.67,199.051 99.86,199.088 100.06,199.088C100.453,199.088 100.777,199.021 101.03,198.888C101.283,198.754 101.467,198.624 101.58,198.498L102.09,199.038ZM101.28,196.988C101.253,196.628 101.127,196.321 100.9,196.068C100.673,195.814 100.353,195.688 99.94,195.688C99.727,195.688 99.535,195.724 99.365,195.798C99.195,195.871 99.05,195.968 98.93,196.088C98.81,196.208 98.717,196.346 98.65,196.503C98.583,196.659 98.547,196.821 98.54,196.988L101.28,196.988Z" style="fill-rule:nonzero;"/>
            <rect x="76.242" y="183.551" width="2.216" height="0.943" style="fill-rule:nonzero;"/>
            <path d="M103.05,184.878L103.05,183.775L101.634,183.775L101.634,182.359L100.531,182.359L100.531,183.775L99.115,183.775L99.115,184.878L100.531,184.878L100.531,186.294L101.634,186.294L101.634,184.878L103.05,184.878Z" style="fill-rule:nonzero;"/>
            <path d="M30,179.017L32,179.017L32,178.017L30,178.017" style="fill-rule:nonzero;"/>
            <path d="M34,179.017L38,179.017L38,178.017L34,178.017L34,179.017ZM40,179.017L44,179.017L44,178.017L40,178.017L40,179.017ZM46,179.017L50,179.017L50,178.017L46,178.017L46,179.017ZM52,179.017L56,179.017L56,178.017L52,178.017L52,179.017ZM58,179.017L62,179.017L62,178.017L58,178.017L58,179.017ZM64,179.017L68,179.017L68,178.017L64,178.017L64,179.017ZM70,179.017L74,179.017L74,178.017L70,178.017L70,179.017ZM76,179.017L80,179.017L80,178.017L76,178.017L76,179.017ZM82,179.017L86,179.017L86,178.017L82,178.017L82,179.017ZM88,179.017L92,179.017L92,178.017L88,178.017L88,179.017ZM94,179.017L98,179.017L98,178.017L94,178.017L94,179.017ZM100,179.017L104,179.017L104,178.017L100,178.017L100,179.017ZM106,179.017L110,179.017L110,178.017L106,178.017L106,179.017ZM112,179.017L116,179.017L116,178.017L112,178.017L112,179.017ZM118,179.017L122,179.017L122,178.017L118,178.017L118,179.017ZM124,179.017L128,179.017L128,178.017L124,178.017L124,179.017ZM130,179.017L134,179.017L134,178.017L130,178.017L130,179.017ZM136,179.017L140,179.017L140,178.017L136,178.017L136,179.017ZM142,179.017L146,179.017L146,178.017L142,178.017L142,179.017Z" style="fill-rule:nonzero;"/>
            <path d="M148,179.017L150,179.017L150,178.017L148,178.017" style="fill-rule:nonzero;"/>
        </g>
        <g>
            <path d="M83.315,248.265C83.242,248.385 83.128,248.522 82.975,248.675C82.822,248.829 82.635,248.974 82.415,249.11C82.195,249.247 81.942,249.362 81.655,249.455C81.368,249.549 81.052,249.595 80.705,249.595C80.212,249.595 79.762,249.509 79.355,249.335C78.948,249.162 78.598,248.92 78.305,248.61C78.012,248.3 77.783,247.934 77.62,247.51C77.457,247.087 77.375,246.625 77.375,246.125C77.375,245.639 77.457,245.182 77.62,244.755C77.783,244.329 78.012,243.955 78.305,243.635C78.598,243.315 78.95,243.064 79.36,242.88C79.77,242.697 80.225,242.605 80.725,242.605C81.078,242.605 81.395,242.649 81.675,242.735C81.955,242.822 82.2,242.93 82.41,243.06C82.62,243.19 82.8,243.332 82.95,243.485C83.1,243.639 83.222,243.785 83.315,243.925L82.635,244.505C82.555,244.392 82.46,244.274 82.35,244.15C82.24,244.027 82.108,243.915 81.955,243.815C81.802,243.715 81.625,243.632 81.425,243.565C81.225,243.499 80.995,243.465 80.735,243.465C80.368,243.465 80.04,243.535 79.75,243.675C79.46,243.815 79.213,244.005 79.01,244.245C78.807,244.485 78.652,244.765 78.545,245.085C78.438,245.405 78.385,245.745 78.385,246.105C78.385,246.465 78.44,246.804 78.55,247.12C78.66,247.437 78.815,247.712 79.015,247.945C79.215,248.179 79.458,248.362 79.745,248.495C80.032,248.629 80.352,248.695 80.705,248.695C81.005,248.695 81.263,248.657 81.48,248.58C81.697,248.504 81.88,248.412 82.03,248.305C82.18,248.199 82.303,248.09 82.4,247.98C82.497,247.87 82.578,247.779 82.645,247.705L83.315,248.265Z" style="fill-rule:nonzero;"/>
            <path d="M84.255,244.785L85.155,244.785L85.155,247.515C85.155,247.955 85.245,248.274 85.425,248.47C85.605,248.667 85.865,248.765 86.205,248.765C86.465,248.765 86.68,248.712 86.85,248.605C87.02,248.499 87.158,248.36 87.265,248.19C87.372,248.02 87.447,247.827 87.49,247.61C87.533,247.394 87.555,247.172 87.555,246.945L87.555,244.785L88.455,244.785L88.455,248.96C88.455,249.11 88.458,249.269 88.465,249.435L87.605,249.435L87.575,248.745C87.515,248.825 87.442,248.912 87.355,249.005C87.268,249.099 87.162,249.184 87.035,249.26C86.908,249.337 86.762,249.402 86.595,249.455C86.428,249.509 86.238,249.535 86.025,249.535C85.418,249.535 84.972,249.36 84.685,249.01C84.398,248.66 84.255,248.182 84.255,247.575L84.255,244.785Z" style="fill-rule:nonzero;"/>
            <path d="M89.705,249.435L89.705,245.23C89.705,245.087 89.702,244.939 89.695,244.785L90.555,244.785L90.585,245.535C90.638,245.455 90.708,245.367 90.795,245.27C90.882,245.174 90.987,245.085 91.11,245.005C91.233,244.925 91.377,244.857 91.54,244.8C91.703,244.744 91.892,244.715 92.105,244.715C92.205,244.715 92.297,244.722 92.38,244.735C92.463,244.749 92.542,244.769 92.615,244.795L92.415,245.635C92.295,245.589 92.142,245.565 91.955,245.565C91.762,245.565 91.583,245.602 91.42,245.675C91.257,245.749 91.115,245.85 90.995,245.98C90.875,246.11 90.78,246.262 90.71,246.435C90.64,246.609 90.605,246.792 90.605,246.985L90.605,249.435L89.705,249.435Z" style="fill-rule:nonzero;"/>
            <path d="M92.785,244.785L93.815,244.785L95.265,248.415L96.705,244.785L97.675,244.785L95.685,249.435L94.785,249.435L92.785,244.785Z" style="fill-rule:nonzero;"/>
            <path d="M102.605,248.755C102.552,248.815 102.472,248.892 102.365,248.985C102.258,249.079 102.12,249.169 101.95,249.255C101.78,249.342 101.58,249.417 101.35,249.48C101.12,249.544 100.858,249.575 100.565,249.575C100.205,249.575 99.875,249.515 99.575,249.395C99.275,249.275 99.018,249.105 98.805,248.885C98.592,248.665 98.427,248.402 98.31,248.095C98.193,247.789 98.135,247.449 98.135,247.075C98.135,246.735 98.192,246.417 98.305,246.12C98.418,245.824 98.578,245.567 98.785,245.35C98.992,245.134 99.237,244.962 99.52,244.835C99.803,244.709 100.115,244.645 100.455,244.645C100.855,244.645 101.198,244.722 101.485,244.875C101.772,245.029 102.007,245.232 102.19,245.485C102.373,245.739 102.508,246.029 102.595,246.355C102.682,246.682 102.725,247.022 102.725,247.375L99.055,247.375C99.062,247.582 99.107,247.772 99.19,247.945C99.273,248.119 99.385,248.269 99.525,248.395C99.665,248.522 99.825,248.622 100.005,248.695C100.185,248.769 100.375,248.805 100.575,248.805C100.968,248.805 101.292,248.739 101.545,248.605C101.798,248.472 101.982,248.342 102.095,248.215L102.605,248.755ZM101.795,246.705C101.768,246.345 101.642,246.039 101.415,245.785C101.188,245.532 100.868,245.405 100.455,245.405C100.242,245.405 100.05,245.442 99.88,245.515C99.71,245.589 99.565,245.685 99.445,245.805C99.325,245.925 99.232,246.064 99.165,246.22C99.098,246.377 99.062,246.539 99.055,246.705L101.795,246.705Z" style="fill-rule:nonzero;"/>
            <rect x="76.242" y="233.269" width="2.216" height="0.943" style="fill-rule:nonzero;"/>
            <path d="M103.05,234.596L103.05,233.493L101.634,233.493L101.634,232.077L100.531,232.077L100.531,233.493L99.115,233.493L99.115,234.596L100.531,234.596L100.531,236.012L101.634,236.012L101.634,234.596L103.05,234.596Z" style="fill-rule:nonzero;"/>
            <path d="M30,228.735L32,228.735L32,227.735L30,227.735" style="fill-rule:nonzero;"/>
            <path d="M34,228.735L38,228.735L38,227.735L34,227.735L34,228.735ZM40,228.735L44,228.735L44,227.735L40,227.735L40,228.735ZM46,228.735L50,228.735L50,227.735L46,227.735L46,228.735ZM52,228.735L56,228.735L56,227.735L52,227.735L52,228.735ZM58,228.735L62,228.735L62,227.735L58,227.735L58,228.735ZM64,228.735L68,228.735L68,227.735L64,227.735L64,228.735ZM70,228.735L74,228.735L74,227.735L70,227.735L70,228.735ZM76,228.735L80,228.735L80,227.735L76,227.735L76,228.735ZM82,228.735L86,228.735L86,227.735L82,227.735L82,228.735ZM88,228.735L92,228.735L92,227.735L88,227.735L88,228.735ZM94,228.735L98,228.735L98,227.735L94,227.735L94,228.735ZM100,228.735L104,228.735L104,227.735L100,227.735L100,228.735ZM106,228.735L110,228.735L110,227.735L106,227.735L106,228.735ZM112,228.735L116,228.735L116,227.735L112,227.735L112,228.735ZM118,228.735L122,228.735L122,227.735L118,227.735L118,228.735ZM124,228.735L128,228.735L128,227.735L124,227.735L124,228.735ZM130,228.735L134,228.735L134,227.735L130,227.735L130,228.735ZM136,228.735L140,228.735L140,227.735L136,227.735L136,228.735ZM142,228.735L146,228.735L146,227.735L142,227.735L142,228.735Z" style="fill-rule:nonzero;"/>
            <path d="M148,228.735L150,228.735L150,227.735L148,227.735" style="fill-rule:nonzero;"/>
        </g>
        <g>
            <path d="M177.06,305.541C177.06,300.524 172.987,296.451 167.97,296.451L61.495,296.451C56.478,296.451 52.405,300.524 52.405,305.541L52.405,332.695C52.405,337.711 56.478,341.784 61.495,341.784L167.97,341.784C172.987,341.784 177.06,337.711 177.06,332.695L177.06,305.541Z"/>
            <path d="M112.998,331.788L110.13,331.788L110.13,330.78L117.006,330.78L117.006,331.788L114.15,331.788L114.15,338.784L112.998,338.784L112.998,331.788Z" style="fill:white;fill-rule:nonzero;"/>
            <path d="M116.364,338.784L116.364,333.738C116.364,333.566 116.36,333.388 116.352,333.204L117.384,333.204L117.42,334.104C117.484,334.008 117.568,333.902 117.672,333.786C117.776,333.67 117.902,333.564 118.05,333.468C118.198,333.372 118.37,333.29 118.566,333.222C118.762,333.154 118.988,333.12 119.244,333.12C119.364,333.12 119.474,333.128 119.574,333.144C119.674,333.16 119.768,333.184 119.856,333.216L119.616,334.224C119.472,334.168 119.288,334.14 119.064,334.14C118.832,334.14 118.618,334.184 118.422,334.272C118.226,334.36 118.056,334.482 117.912,334.638C117.768,334.794 117.654,334.976 117.57,335.184C117.486,335.392 117.444,335.612 117.444,335.844L117.444,338.784L116.364,338.784Z" style="fill:white;fill-rule:nonzero;"/>
            <path d="M120.714,330.996L121.926,330.996L121.926,332.208L120.714,332.208L120.714,330.996ZM120.786,333.204L121.866,333.204L121.866,338.784L120.786,338.784L120.786,333.204Z" style="fill:white;fill-rule:nonzero;"/>
            <path d="M144.337,330.78L146.869,330.78C147.413,330.78 147.863,330.856 148.219,331.008C148.575,331.16 148.859,331.352 149.071,331.584C149.283,331.816 149.431,332.076 149.515,332.364C149.599,332.652 149.641,332.932 149.641,333.204C149.641,333.604 149.573,333.956 149.437,334.26C149.301,334.564 149.113,334.818 148.873,335.022C148.633,335.226 148.347,335.38 148.015,335.484C147.683,335.588 147.321,335.64 146.929,335.64L145.477,335.64L145.477,338.784L144.337,338.784L144.337,330.78ZM146.917,334.656C147.413,334.656 147.795,334.53 148.063,334.278C148.331,334.026 148.465,333.676 148.465,333.228C148.465,332.772 148.327,332.414 148.051,332.154C147.775,331.894 147.397,331.764 146.917,331.764L145.477,331.764L145.477,334.656L146.917,334.656Z" style="fill:white;fill-rule:nonzero;"/>
            <path d="M150.691,333.204L151.771,333.204L151.771,336.48C151.771,337.008 151.879,337.39 152.095,337.626C152.311,337.862 152.623,337.98 153.031,337.98C153.343,337.98 153.601,337.916 153.805,337.788C154.009,337.66 154.175,337.494 154.303,337.29C154.431,337.086 154.521,336.854 154.573,336.594C154.625,336.334 154.651,336.068 154.651,335.796L154.651,333.204L155.731,333.204L155.731,338.214C155.731,338.394 155.735,338.584 155.743,338.784L154.711,338.784L154.675,337.956C154.603,338.052 154.515,338.156 154.411,338.268C154.307,338.38 154.179,338.482 154.027,338.574C153.875,338.666 153.699,338.744 153.499,338.808C153.299,338.872 153.071,338.904 152.815,338.904C152.087,338.904 151.551,338.694 151.207,338.274C150.863,337.854 150.691,337.28 150.691,336.552L150.691,333.204Z" style="fill:white;fill-rule:nonzero;"/>
            <rect x="157.237" y="330.78" width="1.08" height="8.004" style="fill:white;fill-rule:nonzero;"/>
            <path d="M160.171,337.38C160.371,337.58 160.611,337.74 160.891,337.86C161.171,337.98 161.495,338.04 161.863,338.04C162.223,338.04 162.523,337.982 162.763,337.866C163.003,337.75 163.123,337.568 163.123,337.32C163.123,337.192 163.097,337.082 163.045,336.99C162.993,336.898 162.905,336.816 162.781,336.744C162.657,336.672 162.493,336.606 162.289,336.546C162.085,336.486 161.831,336.42 161.527,336.348C161.311,336.3 161.097,336.236 160.885,336.156C160.673,336.076 160.483,335.97 160.315,335.838C160.147,335.706 160.011,335.546 159.907,335.358C159.803,335.17 159.751,334.944 159.751,334.68C159.751,334.408 159.813,334.17 159.937,333.966C160.061,333.762 160.227,333.59 160.435,333.45C160.643,333.31 160.877,333.204 161.137,333.132C161.397,333.06 161.667,333.024 161.947,333.024C162.419,333.024 162.825,333.086 163.165,333.21C163.505,333.334 163.803,333.508 164.059,333.732L163.471,334.476C163.303,334.324 163.093,334.196 162.841,334.092C162.589,333.988 162.295,333.936 161.959,333.936C161.615,333.936 161.339,333.992 161.131,334.104C160.923,334.216 160.819,334.4 160.819,334.656C160.819,334.896 160.957,335.074 161.233,335.19C161.509,335.306 161.871,335.416 162.319,335.52C162.583,335.584 162.829,335.658 163.057,335.742C163.285,335.826 163.485,335.934 163.657,336.066C163.829,336.198 163.965,336.36 164.065,336.552C164.165,336.744 164.215,336.976 164.215,337.248C164.215,337.528 164.151,337.774 164.023,337.986C163.895,338.198 163.723,338.376 163.507,338.52C163.291,338.664 163.043,338.772 162.763,338.844C162.483,338.916 162.191,338.952 161.887,338.952C160.831,338.952 160.039,338.668 159.511,338.1L160.171,337.38Z" style="fill:white;fill-rule:nonzero;"/>
            <path d="M170.569,337.968C170.505,338.04 170.409,338.132 170.281,338.244C170.153,338.356 169.987,338.464 169.783,338.568C169.579,338.672 169.339,338.762 169.063,338.838C168.787,338.914 168.473,338.952 168.121,338.952C167.689,338.952 167.293,338.88 166.933,338.736C166.573,338.592 166.265,338.388 166.009,338.124C165.753,337.86 165.555,337.544 165.415,337.176C165.275,336.808 165.205,336.4 165.205,335.952C165.205,335.544 165.273,335.162 165.409,334.806C165.545,334.45 165.737,334.142 165.985,333.882C166.233,333.622 166.527,333.416 166.867,333.264C167.207,333.112 167.581,333.036 167.989,333.036C168.469,333.036 168.881,333.128 169.225,333.312C169.569,333.496 169.851,333.74 170.071,334.044C170.291,334.348 170.453,334.696 170.557,335.088C170.661,335.48 170.713,335.888 170.713,336.312L166.309,336.312C166.317,336.56 166.371,336.788 166.471,336.996C166.571,337.204 166.705,337.384 166.873,337.536C167.041,337.688 167.233,337.808 167.449,337.896C167.665,337.984 167.893,338.028 168.133,338.028C168.605,338.028 168.993,337.948 169.297,337.788C169.601,337.628 169.821,337.472 169.957,337.32L170.569,337.968ZM169.597,335.508C169.565,335.076 169.413,334.708 169.141,334.404C168.869,334.1 168.485,333.948 167.989,333.948C167.733,333.948 167.503,333.992 167.299,334.08C167.095,334.168 166.921,334.284 166.777,334.428C166.633,334.572 166.521,334.738 166.441,334.926C166.361,335.114 166.317,335.308 166.309,335.508L169.597,335.508Z" style="fill:white;fill-rule:nonzero;"/>
            <path d="M64.129,330.78L65.233,330.78L67.669,334.944L70.105,330.78L71.185,330.78L71.557,338.784L70.429,338.784L70.165,332.64L67.909,336.42L67.333,336.42L65.113,332.688L64.837,338.784L63.757,338.784L64.129,330.78Z" style="fill:white;fill-rule:nonzero;"/>
            <path d="M76.495,336.144C76.463,336.136 76.401,336.126 76.309,336.114C76.217,336.102 76.111,336.092 75.991,336.084C75.871,336.076 75.743,336.068 75.607,336.06C75.471,336.052 75.339,336.048 75.211,336.048C74.907,336.048 74.661,336.084 74.473,336.156C74.285,336.228 74.137,336.318 74.029,336.426C73.921,336.534 73.847,336.654 73.807,336.786C73.767,336.918 73.747,337.044 73.747,337.164C73.747,337.468 73.851,337.698 74.059,337.854C74.267,338.01 74.555,338.088 74.923,338.088C75.131,338.088 75.329,338.052 75.517,337.98C75.705,337.908 75.871,337.812 76.015,337.692C76.159,337.572 76.275,337.432 76.363,337.272C76.451,337.112 76.495,336.948 76.495,336.78L76.495,336.144ZM76.507,338.112C76.299,338.392 76.025,338.6 75.685,338.736C75.345,338.872 74.995,338.94 74.635,338.94C74.403,338.94 74.173,338.91 73.945,338.85C73.717,338.79 73.509,338.69 73.321,338.55C73.133,338.41 72.981,338.23 72.865,338.01C72.749,337.79 72.691,337.52 72.691,337.2C72.691,336.6 72.901,336.12 73.321,335.76C73.741,335.4 74.347,335.22 75.139,335.22C75.267,335.22 75.403,335.224 75.547,335.232C75.691,335.24 75.827,335.248 75.955,335.256C76.083,335.264 76.195,335.272 76.291,335.28C76.387,335.288 76.455,335.296 76.495,335.304L76.495,335.1C76.495,334.684 76.369,334.386 76.117,334.206C75.865,334.026 75.523,333.936 75.091,333.936C74.667,333.936 74.331,333.994 74.083,334.11C73.835,334.226 73.627,334.344 73.459,334.464L72.955,333.732C73.051,333.652 73.167,333.572 73.303,333.492C73.439,333.412 73.599,333.338 73.783,333.27C73.967,333.202 74.175,333.146 74.407,333.102C74.639,333.058 74.907,333.036 75.211,333.036C75.931,333.036 76.497,333.21 76.909,333.558C77.321,333.906 77.527,334.4 77.527,335.04L77.527,338.286C77.527,338.482 77.531,338.648 77.539,338.784L76.531,338.784L76.507,338.112Z" style="fill:white;fill-rule:nonzero;"/>
            <path d="M78.985,330.996L80.197,330.996L80.197,332.208L78.985,332.208L78.985,330.996ZM79.057,333.204L80.137,333.204L80.137,338.784L79.057,338.784L79.057,333.204Z" style="fill:white;fill-rule:nonzero;"/>
            <path d="M81.679,338.784L81.679,333.774C81.679,333.594 81.675,333.404 81.667,333.204L82.699,333.204L82.735,334.044C82.807,333.948 82.895,333.842 82.999,333.726C83.103,333.61 83.231,333.504 83.383,333.408C83.535,333.312 83.713,333.232 83.917,333.168C84.121,333.104 84.351,333.072 84.607,333.072C85.335,333.072 85.875,333.284 86.227,333.708C86.579,334.132 86.755,334.708 86.755,335.436L86.755,338.784L85.675,338.784L85.675,335.52C85.675,335 85.563,334.618 85.339,334.374C85.115,334.13 84.799,334.008 84.391,334.008C84.079,334.008 83.819,334.072 83.611,334.2C83.403,334.328 83.237,334.494 83.113,334.698C82.989,334.902 82.899,335.134 82.843,335.394C82.787,335.654 82.759,335.92 82.759,336.192L82.759,338.784L81.679,338.784Z" style="fill:white;fill-rule:nonzero;"/>
        </g>
        <path d="M8.009,330.78L10.541,330.78C11.085,330.78 11.535,330.856 11.891,331.008C12.247,331.16 12.531,331.352 12.743,331.584C12.955,331.816 13.103,332.076 13.187,332.364C13.271,332.652 13.313,332.932 13.313,333.204C13.313,333.604 13.245,333.956 13.109,334.26C12.973,334.564 12.785,334.818 12.545,335.022C12.305,335.226 12.019,335.38 11.687,335.484C11.355,335.588 10.993,335.64 10.601,335.64L9.149,335.64L9.149,338.784L8.009,338.784L8.009,330.78ZM10.589,334.656C11.085,334.656 11.467,334.53 11.735,334.278C12.003,334.026 12.137,333.676 12.137,333.228C12.137,332.772 11.999,332.414 11.723,332.154C11.447,331.894 11.069,331.764 10.589,331.764L9.149,331.764L9.149,334.656L10.589,334.656Z" style="fill-rule:nonzero;"/>
        <path d="M14.393,330.78L15.461,330.78L15.461,334.032C15.533,333.936 15.621,333.832 15.725,333.72C15.829,333.608 15.957,333.504 16.109,333.408C16.261,333.312 16.437,333.232 16.637,333.168C16.837,333.104 17.065,333.072 17.321,333.072C18.049,333.072 18.589,333.284 18.941,333.708C19.293,334.132 19.469,334.708 19.469,335.436L19.469,338.784L18.389,338.784L18.389,335.52C18.389,335 18.277,334.618 18.053,334.374C17.829,334.13 17.513,334.008 17.105,334.008C16.793,334.008 16.533,334.072 16.325,334.2C16.117,334.328 15.951,334.494 15.827,334.698C15.703,334.902 15.613,335.134 15.557,335.394C15.501,335.654 15.473,335.92 15.473,336.192L15.473,338.784L14.393,338.784L14.393,330.78Z" style="fill-rule:nonzero;"/>
        <path d="M24.413,336.144C24.381,336.136 24.319,336.126 24.227,336.114C24.135,336.102 24.029,336.092 23.909,336.084C23.789,336.076 23.661,336.068 23.525,336.06C23.389,336.052 23.257,336.048 23.129,336.048C22.825,336.048 22.579,336.084 22.391,336.156C22.203,336.228 22.055,336.318 21.947,336.426C21.839,336.534 21.765,336.654 21.725,336.786C21.685,336.918 21.665,337.044 21.665,337.164C21.665,337.468 21.769,337.698 21.977,337.854C22.185,338.01 22.473,338.088 22.841,338.088C23.049,338.088 23.247,338.052 23.435,337.98C23.623,337.908 23.789,337.812 23.933,337.692C24.077,337.572 24.193,337.432 24.281,337.272C24.369,337.112 24.413,336.948 24.413,336.78L24.413,336.144ZM24.425,338.112C24.217,338.392 23.943,338.6 23.603,338.736C23.263,338.872 22.913,338.94 22.553,338.94C22.321,338.94 22.091,338.91 21.863,338.85C21.635,338.79 21.427,338.69 21.239,338.55C21.051,338.41 20.899,338.23 20.783,338.01C20.667,337.79 20.609,337.52 20.609,337.2C20.609,336.6 20.819,336.12 21.239,335.76C21.659,335.4 22.265,335.22 23.057,335.22C23.185,335.22 23.321,335.224 23.465,335.232C23.609,335.24 23.745,335.248 23.873,335.256C24.001,335.264 24.113,335.272 24.209,335.28C24.305,335.288 24.373,335.296 24.413,335.304L24.413,335.1C24.413,334.684 24.287,334.386 24.035,334.206C23.783,334.026 23.441,333.936 23.009,333.936C22.585,333.936 22.249,333.994 22.001,334.11C21.753,334.226 21.545,334.344 21.377,334.464L20.873,333.732C20.969,333.652 21.085,333.572 21.221,333.492C21.357,333.412 21.517,333.338 21.701,333.27C21.885,333.202 22.093,333.146 22.325,333.102C22.557,333.058 22.825,333.036 23.129,333.036C23.849,333.036 24.415,333.21 24.827,333.558C25.239,333.906 25.445,334.4 25.445,335.04L25.445,338.286C25.445,338.482 25.449,338.648 25.457,338.784L24.449,338.784L24.425,338.112Z" style="fill-rule:nonzero;"/>
        <path d="M27.293,337.38C27.493,337.58 27.733,337.74 28.013,337.86C28.293,337.98 28.617,338.04 28.985,338.04C29.345,338.04 29.645,337.982 29.885,337.866C30.125,337.75 30.245,337.568 30.245,337.32C30.245,337.192 30.219,337.082 30.167,336.99C30.115,336.898 30.027,336.816 29.903,336.744C29.779,336.672 29.615,336.606 29.411,336.546C29.207,336.486 28.953,336.42 28.649,336.348C28.433,336.3 28.219,336.236 28.007,336.156C27.795,336.076 27.605,335.97 27.437,335.838C27.269,335.706 27.133,335.546 27.029,335.358C26.925,335.17 26.873,334.944 26.873,334.68C26.873,334.408 26.935,334.17 27.059,333.966C27.183,333.762 27.349,333.59 27.557,333.45C27.765,333.31 27.999,333.204 28.259,333.132C28.519,333.06 28.789,333.024 29.069,333.024C29.541,333.024 29.947,333.086 30.287,333.21C30.627,333.334 30.925,333.508 31.181,333.732L30.593,334.476C30.425,334.324 30.215,334.196 29.963,334.092C29.711,333.988 29.417,333.936 29.081,333.936C28.737,333.936 28.461,333.992 28.253,334.104C28.045,334.216 27.941,334.4 27.941,334.656C27.941,334.896 28.079,335.074 28.355,335.19C28.631,335.306 28.993,335.416 29.441,335.52C29.705,335.584 29.951,335.658 30.179,335.742C30.407,335.826 30.607,335.934 30.779,336.066C30.951,336.198 31.087,336.36 31.187,336.552C31.287,336.744 31.337,336.976 31.337,337.248C31.337,337.528 31.273,337.774 31.145,337.986C31.017,338.198 30.845,338.376 30.629,338.52C30.413,338.664 30.165,338.772 29.885,338.844C29.605,338.916 29.313,338.952 29.009,338.952C27.953,338.952 27.161,338.668 26.633,338.1L27.293,337.38Z" style="fill-rule:nonzero;"/>
        <path d="M35.297,338.952C34.865,338.952 34.469,338.874 34.109,338.718C33.749,338.562 33.439,338.348 33.179,338.076C32.919,337.804 32.715,337.49 32.567,337.134C32.419,336.778 32.345,336.396 32.345,335.988C32.345,335.58 32.419,335.198 32.567,334.842C32.715,334.486 32.919,334.172 33.179,333.9C33.439,333.628 33.749,333.414 34.109,333.258C34.469,333.102 34.865,333.024 35.297,333.024C35.721,333.024 36.113,333.102 36.473,333.258C36.833,333.414 37.145,333.628 37.409,333.9C37.673,334.172 37.879,334.486 38.027,334.842C38.175,335.198 38.249,335.58 38.249,335.988C38.249,336.396 38.175,336.778 38.027,337.134C37.879,337.49 37.673,337.804 37.409,338.076C37.145,338.348 36.833,338.562 36.473,338.718C36.113,338.874 35.721,338.952 35.297,338.952ZM35.297,338.016C35.585,338.016 35.845,337.958 36.077,337.842C36.309,337.726 36.505,337.574 36.665,337.386C36.825,337.198 36.947,336.982 37.031,336.738C37.115,336.494 37.157,336.244 37.157,335.988C37.157,335.74 37.115,335.494 37.031,335.25C36.947,335.006 36.823,334.788 36.659,334.596C36.495,334.404 36.299,334.25 36.071,334.134C35.843,334.018 35.585,333.96 35.297,333.96C35.009,333.96 34.749,334.018 34.517,334.134C34.285,334.25 34.089,334.402 33.929,334.59C33.769,334.778 33.647,334.994 33.563,335.238C33.479,335.482 33.437,335.732 33.437,335.988C33.437,336.244 33.479,336.492 33.563,336.732C33.647,336.972 33.771,337.188 33.935,337.38C34.099,337.572 34.295,337.726 34.523,337.842C34.751,337.958 35.009,338.016 35.297,338.016Z" style="fill-rule:nonzero;"/>
        <path d="M39.485,338.784L39.485,333.738C39.485,333.566 39.481,333.388 39.473,333.204L40.505,333.204L40.541,334.104C40.605,334.008 40.689,333.902 40.793,333.786C40.897,333.67 41.023,333.564 41.171,333.468C41.319,333.372 41.491,333.29 41.687,333.222C41.883,333.154 42.109,333.12 42.365,333.12C42.485,333.12 42.595,333.128 42.695,333.144C42.795,333.16 42.889,333.184 42.977,333.216L42.737,334.224C42.593,334.168 42.409,334.14 42.185,334.14C41.953,334.14 41.739,334.184 41.543,334.272C41.347,334.36 41.177,334.482 41.033,334.638C40.889,334.794 40.775,334.976 40.691,335.184C40.607,335.392 40.565,335.612 40.565,335.844L40.565,338.784L39.485,338.784Z" style="fill-rule:nonzero;"/>
    </g>
</svg>
