<?xml version="1.0" encoding="UTF-8" standalone="no"?>
<!DOCTYPE svg PUBLIC "-//W3C//DTD SVG 1.1//EN" "http://www.w3.org/Graphics/SVG/1.1/DTD/svg11.dtd">
<svg width="100%" height="100%" viewBox="0 0 120 380" version="1.1" xmlns="http://www.w3.org/2000/svg" xmlns:xlink="http://www.w3.org/1999/xlink" xml:space="preserve" xmlns:serif="http://www.serif.com/" style="fill-rule:evenodd;clip-rule:evenodd;stroke-linecap:round;stroke-linejoin:round;stroke-miterlimit:1.5;">
    <g id="svg8">
        <rect x="0" y="0" width="120" height="380" style="fill:rgb(240,240,240);"/>
        <g id="HCV-Logo" serif:id="HCV Logo">
            <path d="M39.81,374.578L38.204,374.578L38.204,369.247L32.128,369.247L32.128,374.578L30.522,374.578L30.522,363.154L32.128,363.154L32.128,367.873L38.204,367.873L38.204,363.154L39.81,363.154L39.81,374.578Z" style="fill:rgb(35,31,32);fill-rule:nonzero;"/>
            <path d="M48.018,374.578L41.197,374.578L41.197,363.154L47.886,363.154L47.886,364.496L42.803,364.496L42.803,367.906L47.604,367.906L47.604,369.247L42.803,369.247L42.803,373.221L48.018,373.221L48.018,374.578Z" style="fill:rgb(35,31,32);fill-rule:nonzero;"/>
            <path d="M56.891,364.496L53.679,364.496L53.679,374.578L52.073,374.578L52.073,364.496L48.845,364.496L48.845,363.154L56.891,363.154L56.891,364.496Z" style="fill:rgb(35,31,32);fill-rule:nonzero;"/>
            <path d="M62.601,364.877C62.088,364.496 61.475,364.463 60.681,364.463L59.505,364.463L59.505,368.337L60.681,368.337C61.475,368.337 62.088,368.304 62.601,367.94C63.115,367.559 63.33,367.095 63.33,366.399C63.33,365.721 63.115,365.241 62.601,364.877M65.648,374.578L63.71,374.578L60.73,369.661L59.505,369.661L59.505,374.578L57.899,374.578L57.899,363.154L61.127,363.154C62.27,363.154 63.197,363.42 63.876,363.949C64.555,364.496 64.985,365.323 64.985,366.366C64.985,368.37 63.594,369.264 62.386,369.496L65.648,374.578Z" style="fill:rgb(35,31,32);fill-rule:nonzero;"/>
            <rect x="66.84" y="363.154" width="1.605" height="11.424" style="fill:rgb(35,31,32);"/>
            <path d="M79.568,373.088C78.856,373.883 77.565,374.777 75.396,374.777C72.068,374.777 69.551,372.442 69.551,368.883C69.551,365.323 72.118,362.989 75.396,362.989C77.532,362.989 78.823,363.883 79.452,364.496L78.773,365.787C78.327,365.225 77.051,364.397 75.463,364.397C72.996,364.397 71.208,366.168 71.208,368.85C71.208,371.532 73.012,373.304 75.463,373.304C76.968,373.304 78.128,372.725 78.873,371.913L79.568,373.088Z" style="fill:rgb(237,50,36);fill-rule:nonzero;"/>
            <path d="M89.478,374.578L87.525,374.578L83.733,368.849L82.558,370.042L82.558,374.578L80.952,374.578L80.952,363.154L82.558,363.154L82.558,368.022L87.21,363.154L89.164,363.154L84.809,367.658L89.478,374.578Z" style="fill:rgb(237,50,36);fill-rule:nonzero;"/>
            <path d="M89.478,374.578L87.525,374.578L83.733,368.849L82.558,370.042L82.558,374.578L80.952,374.578L80.952,370.019L82.558,370.042L83.733,368.849L84.809,367.658L85.426,368.571L85.923,369.308L89.478,374.578Z" style="fill-rule:nonzero;"/>
        </g>
        <g id="Out">
            <path d="M114.634,300.534C114.634,297.223 111.945,294.534 108.634,294.534L11.366,294.534C8.055,294.534 5.366,297.223 5.366,300.534L5.366,348.534C5.366,351.846 8.055,354.534 11.366,354.534L108.634,354.534C111.945,354.534 114.634,351.846 114.634,348.534L114.634,300.534Z"/>
            <path d="M25.765,347.13C25.677,347.274 25.541,347.438 25.357,347.622C25.173,347.806 24.949,347.98 24.685,348.144C24.421,348.308 24.117,348.446 23.773,348.558C23.429,348.67 23.049,348.726 22.633,348.726C22.041,348.726 21.501,348.622 21.013,348.414C20.525,348.206 20.105,347.916 19.753,347.544C19.401,347.172 19.127,346.732 18.931,346.224C18.735,345.716 18.637,345.162 18.637,344.562C18.637,343.978 18.735,343.43 18.931,342.918C19.127,342.406 19.401,341.958 19.753,341.574C20.105,341.19 20.527,340.888 21.019,340.668C21.511,340.448 22.057,340.338 22.657,340.338C23.081,340.338 23.461,340.39 23.797,340.494C24.133,340.598 24.427,340.728 24.679,340.884C24.931,341.04 25.147,341.21 25.327,341.394C25.507,341.578 25.653,341.754 25.765,341.922L24.949,342.618C24.853,342.482 24.739,342.34 24.607,342.192C24.475,342.044 24.317,341.91 24.133,341.79C23.949,341.67 23.737,341.57 23.497,341.49C23.257,341.41 22.981,341.37 22.669,341.37C22.229,341.37 21.835,341.454 21.487,341.622C21.139,341.79 20.843,342.018 20.599,342.306C20.355,342.594 20.169,342.93 20.041,343.314C19.913,343.698 19.849,344.106 19.849,344.538C19.849,344.97 19.915,345.376 20.047,345.756C20.179,346.136 20.365,346.466 20.605,346.746C20.845,347.026 21.137,347.246 21.481,347.406C21.825,347.566 22.209,347.646 22.633,347.646C22.993,347.646 23.303,347.6 23.563,347.508C23.823,347.416 24.043,347.306 24.223,347.178C24.403,347.05 24.551,346.92 24.667,346.788C24.783,346.656 24.881,346.546 24.961,346.458L25.765,347.13Z" style="fill:white;fill-rule:nonzero;"/>
            <rect x="26.905" y="340.53" width="1.08" height="8.004" style="fill:white;fill-rule:nonzero;"/>
            <path d="M32.137,348.702C31.705,348.702 31.309,348.624 30.949,348.468C30.589,348.312 30.279,348.098 30.019,347.826C29.759,347.554 29.555,347.24 29.407,346.884C29.259,346.528 29.185,346.146 29.185,345.738C29.185,345.33 29.259,344.948 29.407,344.592C29.555,344.236 29.759,343.922 30.019,343.65C30.279,343.378 30.589,343.164 30.949,343.008C31.309,342.852 31.705,342.774 32.137,342.774C32.561,342.774 32.953,342.852 33.313,343.008C33.673,343.164 33.985,343.378 34.249,343.65C34.513,343.922 34.719,344.236 34.867,344.592C35.015,344.948 35.089,345.33 35.089,345.738C35.089,346.146 35.015,346.528 34.867,346.884C34.719,347.24 34.513,347.554 34.249,347.826C33.985,348.098 33.673,348.312 33.313,348.468C32.953,348.624 32.561,348.702 32.137,348.702ZM32.137,347.766C32.425,347.766 32.685,347.708 32.917,347.592C33.149,347.476 33.345,347.324 33.505,347.136C33.665,346.948 33.787,346.732 33.871,346.488C33.955,346.244 33.997,345.994 33.997,345.738C33.997,345.49 33.955,345.244 33.871,345C33.787,344.756 33.663,344.538 33.499,344.346C33.335,344.154 33.139,344 32.911,343.884C32.683,343.768 32.425,343.71 32.137,343.71C31.849,343.71 31.589,343.768 31.357,343.884C31.125,344 30.929,344.152 30.769,344.34C30.609,344.528 30.487,344.744 30.403,344.988C30.319,345.232 30.277,345.482 30.277,345.738C30.277,345.994 30.319,346.242 30.403,346.482C30.487,346.722 30.611,346.938 30.775,347.13C30.939,347.322 31.135,347.476 31.363,347.592C31.591,347.708 31.849,347.766 32.137,347.766Z" style="fill:white;fill-rule:nonzero;"/>
            <path d="M41.137,347.766C40.889,348.046 40.583,348.272 40.219,348.444C39.855,348.616 39.433,348.702 38.953,348.702C38.505,348.702 38.099,348.628 37.735,348.48C37.371,348.332 37.063,348.128 36.811,347.868C36.559,347.608 36.365,347.296 36.229,346.932C36.093,346.568 36.025,346.17 36.025,345.738C36.025,345.33 36.097,344.946 36.241,344.586C36.385,344.226 36.587,343.912 36.847,343.644C37.107,343.376 37.415,343.164 37.771,343.008C38.127,342.852 38.521,342.774 38.953,342.774C39.425,342.774 39.841,342.858 40.201,343.026C40.561,343.194 40.869,343.422 41.125,343.71L40.417,344.394C40.249,344.186 40.045,344.022 39.805,343.902C39.565,343.782 39.281,343.722 38.953,343.722C38.665,343.722 38.407,343.776 38.179,343.884C37.951,343.992 37.759,344.14 37.603,344.328C37.447,344.516 37.327,344.732 37.243,344.976C37.159,345.22 37.117,345.474 37.117,345.738C37.117,345.994 37.159,346.244 37.243,346.488C37.327,346.732 37.447,346.948 37.603,347.136C37.759,347.324 37.951,347.474 38.179,347.586C38.407,347.698 38.665,347.754 38.953,347.754C39.281,347.754 39.575,347.692 39.835,347.568C40.095,347.444 40.309,347.278 40.477,347.07L41.137,347.766Z" style="fill:white;fill-rule:nonzero;"/>
            <path d="M42.169,340.53L43.249,340.53L43.249,345.246L45.589,342.954L46.885,342.954L44.773,345.018L47.197,348.534L45.913,348.534L44.017,345.738L43.249,346.482L43.249,348.534L42.169,348.534L42.169,340.53Z" style="fill:white;fill-rule:nonzero;"/>
            <path d="M67.643,340.53L70.175,340.53C70.719,340.53 71.169,340.606 71.525,340.758C71.881,340.91 72.165,341.102 72.377,341.334C72.589,341.566 72.737,341.826 72.821,342.114C72.905,342.402 72.947,342.682 72.947,342.954C72.947,343.354 72.879,343.706 72.743,344.01C72.607,344.314 72.419,344.568 72.179,344.772C71.939,344.976 71.653,345.13 71.321,345.234C70.989,345.338 70.627,345.39 70.235,345.39L68.783,345.39L68.783,348.534L67.643,348.534L67.643,340.53ZM70.223,344.406C70.719,344.406 71.101,344.28 71.369,344.028C71.637,343.776 71.771,343.426 71.771,342.978C71.771,342.522 71.633,342.164 71.357,341.904C71.081,341.644 70.703,341.514 70.223,341.514L68.783,341.514L68.783,344.406L70.223,344.406Z" style="fill:white;fill-rule:nonzero;"/>
            <path d="M73.991,340.53L75.059,340.53L75.059,343.782C75.131,343.686 75.219,343.582 75.323,343.47C75.427,343.358 75.555,343.254 75.707,343.158C75.859,343.062 76.035,342.982 76.235,342.918C76.435,342.854 76.663,342.822 76.919,342.822C77.647,342.822 78.187,343.034 78.539,343.458C78.891,343.882 79.067,344.458 79.067,345.186L79.067,348.534L77.987,348.534L77.987,345.27C77.987,344.75 77.875,344.368 77.651,344.124C77.427,343.88 77.111,343.758 76.703,343.758C76.391,343.758 76.131,343.822 75.923,343.95C75.715,344.078 75.549,344.244 75.425,344.448C75.301,344.652 75.211,344.884 75.155,345.144C75.099,345.404 75.071,345.67 75.071,345.942L75.071,348.534L73.991,348.534L73.991,340.53Z" style="fill:white;fill-rule:nonzero;"/>
            <path d="M83.975,345.894C83.943,345.886 83.881,345.876 83.789,345.864C83.697,345.852 83.591,345.842 83.471,345.834C83.351,345.826 83.223,345.818 83.087,345.81C82.951,345.802 82.819,345.798 82.691,345.798C82.387,345.798 82.141,345.834 81.953,345.906C81.765,345.978 81.617,346.068 81.509,346.176C81.401,346.284 81.327,346.404 81.287,346.536C81.247,346.668 81.227,346.794 81.227,346.914C81.227,347.218 81.331,347.448 81.539,347.604C81.747,347.76 82.035,347.838 82.403,347.838C82.611,347.838 82.809,347.802 82.997,347.73C83.185,347.658 83.351,347.562 83.495,347.442C83.639,347.322 83.755,347.182 83.843,347.022C83.931,346.862 83.975,346.698 83.975,346.53L83.975,345.894ZM83.987,347.862C83.779,348.142 83.505,348.35 83.165,348.486C82.825,348.622 82.475,348.69 82.115,348.69C81.883,348.69 81.653,348.66 81.425,348.6C81.197,348.54 80.989,348.44 80.801,348.3C80.613,348.16 80.461,347.98 80.345,347.76C80.229,347.54 80.171,347.27 80.171,346.95C80.171,346.35 80.381,345.87 80.801,345.51C81.221,345.15 81.827,344.97 82.619,344.97C82.747,344.97 82.883,344.974 83.027,344.982C83.171,344.99 83.307,344.998 83.435,345.006C83.563,345.014 83.675,345.022 83.771,345.03C83.867,345.038 83.935,345.046 83.975,345.054L83.975,344.85C83.975,344.434 83.849,344.136 83.597,343.956C83.345,343.776 83.003,343.686 82.571,343.686C82.147,343.686 81.811,343.744 81.563,343.86C81.315,343.976 81.107,344.094 80.939,344.214L80.435,343.482C80.531,343.402 80.647,343.322 80.783,343.242C80.919,343.162 81.079,343.088 81.263,343.02C81.447,342.952 81.655,342.896 81.887,342.852C82.119,342.808 82.387,342.786 82.691,342.786C83.411,342.786 83.977,342.96 84.389,343.308C84.801,343.656 85.007,344.15 85.007,344.79L85.007,348.036C85.007,348.232 85.011,348.398 85.019,348.534L84.011,348.534L83.987,347.862Z" style="fill:white;fill-rule:nonzero;"/>
            <path d="M86.819,347.13C87.019,347.33 87.259,347.49 87.539,347.61C87.819,347.73 88.143,347.79 88.511,347.79C88.871,347.79 89.171,347.732 89.411,347.616C89.651,347.5 89.771,347.318 89.771,347.07C89.771,346.942 89.745,346.832 89.693,346.74C89.641,346.648 89.553,346.566 89.429,346.494C89.305,346.422 89.141,346.356 88.937,346.296C88.733,346.236 88.479,346.17 88.175,346.098C87.959,346.05 87.745,345.986 87.533,345.906C87.321,345.826 87.131,345.72 86.963,345.588C86.795,345.456 86.659,345.296 86.555,345.108C86.451,344.92 86.399,344.694 86.399,344.43C86.399,344.158 86.461,343.92 86.585,343.716C86.709,343.512 86.875,343.34 87.083,343.2C87.291,343.06 87.525,342.954 87.785,342.882C88.045,342.81 88.315,342.774 88.595,342.774C89.067,342.774 89.473,342.836 89.813,342.96C90.153,343.084 90.451,343.258 90.707,343.482L90.119,344.226C89.951,344.074 89.741,343.946 89.489,343.842C89.237,343.738 88.943,343.686 88.607,343.686C88.263,343.686 87.987,343.742 87.779,343.854C87.571,343.966 87.467,344.15 87.467,344.406C87.467,344.646 87.605,344.824 87.881,344.94C88.157,345.056 88.519,345.166 88.967,345.27C89.231,345.334 89.477,345.408 89.705,345.492C89.933,345.576 90.133,345.684 90.305,345.816C90.477,345.948 90.613,346.11 90.713,346.302C90.813,346.494 90.863,346.726 90.863,346.998C90.863,347.278 90.799,347.524 90.671,347.736C90.543,347.948 90.371,348.126 90.155,348.27C89.939,348.414 89.691,348.522 89.411,348.594C89.131,348.666 88.839,348.702 88.535,348.702C87.479,348.702 86.687,348.418 86.159,347.85L86.819,347.13Z" style="fill:white;fill-rule:nonzero;"/>
            <path d="M94.787,348.702C94.355,348.702 93.959,348.624 93.599,348.468C93.239,348.312 92.929,348.098 92.669,347.826C92.409,347.554 92.205,347.24 92.057,346.884C91.909,346.528 91.835,346.146 91.835,345.738C91.835,345.33 91.909,344.948 92.057,344.592C92.205,344.236 92.409,343.922 92.669,343.65C92.929,343.378 93.239,343.164 93.599,343.008C93.959,342.852 94.355,342.774 94.787,342.774C95.211,342.774 95.603,342.852 95.963,343.008C96.323,343.164 96.635,343.378 96.899,343.65C97.163,343.922 97.369,344.236 97.517,344.592C97.665,344.948 97.739,345.33 97.739,345.738C97.739,346.146 97.665,346.528 97.517,346.884C97.369,347.24 97.163,347.554 96.899,347.826C96.635,348.098 96.323,348.312 95.963,348.468C95.603,348.624 95.211,348.702 94.787,348.702ZM94.787,347.766C95.075,347.766 95.335,347.708 95.567,347.592C95.799,347.476 95.995,347.324 96.155,347.136C96.315,346.948 96.437,346.732 96.521,346.488C96.605,346.244 96.647,345.994 96.647,345.738C96.647,345.49 96.605,345.244 96.521,345C96.437,344.756 96.313,344.538 96.149,344.346C95.985,344.154 95.789,344 95.561,343.884C95.333,343.768 95.075,343.71 94.787,343.71C94.499,343.71 94.239,343.768 94.007,343.884C93.775,344 93.579,344.152 93.419,344.34C93.259,344.528 93.137,344.744 93.053,344.988C92.969,345.232 92.927,345.482 92.927,345.738C92.927,345.994 92.969,346.242 93.053,346.482C93.137,346.722 93.261,346.938 93.425,347.13C93.589,347.322 93.785,347.476 94.013,347.592C94.241,347.708 94.499,347.766 94.787,347.766Z" style="fill:white;fill-rule:nonzero;"/>
            <path d="M98.939,348.534L98.939,343.488C98.939,343.316 98.935,343.138 98.927,342.954L99.959,342.954L99.995,343.854C100.059,343.758 100.143,343.652 100.247,343.536C100.351,343.42 100.477,343.314 100.625,343.218C100.773,343.122 100.945,343.04 101.141,342.972C101.337,342.904 101.563,342.87 101.819,342.87C101.939,342.87 102.049,342.878 102.149,342.894C102.249,342.91 102.343,342.934 102.431,342.966L102.191,343.974C102.047,343.918 101.863,343.89 101.639,343.89C101.407,343.89 101.193,343.934 100.997,344.022C100.801,344.11 100.631,344.232 100.487,344.388C100.343,344.544 100.229,344.726 100.145,344.934C100.061,345.142 100.019,345.362 100.019,345.594L100.019,348.534L98.939,348.534Z" style="fill:white;fill-rule:nonzero;"/>
            <path d="M103.343,347.13C103.543,347.33 103.783,347.49 104.063,347.61C104.343,347.73 104.667,347.79 105.035,347.79C105.395,347.79 105.695,347.732 105.935,347.616C106.175,347.5 106.295,347.318 106.295,347.07C106.295,346.942 106.269,346.832 106.217,346.74C106.165,346.648 106.077,346.566 105.953,346.494C105.829,346.422 105.665,346.356 105.461,346.296C105.257,346.236 105.003,346.17 104.699,346.098C104.483,346.05 104.269,345.986 104.057,345.906C103.845,345.826 103.655,345.72 103.487,345.588C103.319,345.456 103.183,345.296 103.079,345.108C102.975,344.92 102.923,344.694 102.923,344.43C102.923,344.158 102.985,343.92 103.109,343.716C103.233,343.512 103.399,343.34 103.607,343.2C103.815,343.06 104.049,342.954 104.309,342.882C104.569,342.81 104.839,342.774 105.119,342.774C105.591,342.774 105.997,342.836 106.337,342.96C106.677,343.084 106.975,343.258 107.231,343.482L106.643,344.226C106.475,344.074 106.265,343.946 106.013,343.842C105.761,343.738 105.467,343.686 105.131,343.686C104.787,343.686 104.511,343.742 104.303,343.854C104.095,343.966 103.991,344.15 103.991,344.406C103.991,344.646 104.129,344.824 104.405,344.94C104.681,345.056 105.043,345.166 105.491,345.27C105.755,345.334 106.001,345.408 106.229,345.492C106.457,345.576 106.657,345.684 106.829,345.816C107.001,345.948 107.137,346.11 107.237,346.302C107.337,346.494 107.387,346.726 107.387,346.998C107.387,347.278 107.323,347.524 107.195,347.736C107.067,347.948 106.895,348.126 106.679,348.27C106.463,348.414 106.215,348.522 105.935,348.594C105.655,348.666 105.363,348.702 105.059,348.702C104.003,348.702 103.211,348.418 102.683,347.85L103.343,347.13Z" style="fill:white;fill-rule:nonzero;"/>
        </g>
        <path d="M4.972,16.831L8.77,16.831C9.586,16.831 10.261,16.945 10.795,17.173C11.329,17.401 11.755,17.689 12.073,18.037C12.391,18.385 12.613,18.775 12.739,19.207C12.865,19.639 12.928,20.059 12.928,20.467C12.928,21.067 12.826,21.595 12.622,22.051C12.418,22.507 12.136,22.888 11.776,23.194C11.416,23.5 10.987,23.731 10.489,23.887C9.991,24.043 9.448,24.121 8.86,24.121L6.682,24.121L6.682,28.837L4.972,28.837L4.972,16.831ZM8.842,22.645C9.586,22.645 10.159,22.456 10.561,22.078C10.963,21.7 11.164,21.175 11.164,20.503C11.164,19.819 10.957,19.282 10.543,18.892C10.129,18.502 9.562,18.307 8.842,18.307L6.682,18.307L6.682,22.645L8.842,22.645Z" style="fill-rule:nonzero;"/>
        <path d="M14.352,16.831L15.954,16.831L15.954,21.709C16.062,21.565 16.194,21.409 16.35,21.241C16.506,21.073 16.698,20.917 16.926,20.773C17.154,20.629 17.418,20.509 17.718,20.413C18.018,20.317 18.36,20.269 18.744,20.269C19.836,20.269 20.646,20.587 21.174,21.223C21.702,21.859 21.966,22.723 21.966,23.815L21.966,28.837L20.346,28.837L20.346,23.941C20.346,23.161 20.178,22.588 19.842,22.222C19.506,21.856 19.032,21.673 18.42,21.673C17.952,21.673 17.562,21.769 17.25,21.961C16.938,22.153 16.689,22.402 16.503,22.708C16.317,23.014 16.182,23.362 16.098,23.752C16.014,24.142 15.972,24.541 15.972,24.949L15.972,28.837L14.352,28.837L14.352,16.831Z" style="fill-rule:nonzero;"/>
        <path d="M29.186,24.877C29.138,24.865 29.045,24.85 28.907,24.832C28.769,24.814 28.61,24.799 28.43,24.787C28.25,24.775 28.058,24.763 27.854,24.751C27.65,24.739 27.452,24.733 27.26,24.733C26.804,24.733 26.435,24.787 26.153,24.895C25.871,25.003 25.649,25.138 25.487,25.3C25.325,25.462 25.214,25.642 25.154,25.84C25.094,26.038 25.064,26.227 25.064,26.407C25.064,26.863 25.22,27.208 25.532,27.442C25.844,27.676 26.276,27.793 26.828,27.793C27.14,27.793 27.437,27.739 27.719,27.631C28.001,27.523 28.25,27.379 28.466,27.199C28.682,27.019 28.856,26.809 28.988,26.569C29.12,26.329 29.186,26.083 29.186,25.831L29.186,24.877ZM29.204,27.829C28.892,28.249 28.481,28.561 27.971,28.765C27.461,28.969 26.936,29.071 26.396,29.071C26.048,29.071 25.703,29.026 25.361,28.936C25.019,28.846 24.707,28.696 24.425,28.486C24.143,28.276 23.915,28.006 23.741,27.676C23.567,27.346 23.48,26.941 23.48,26.461C23.48,25.561 23.795,24.841 24.425,24.301C25.055,23.761 25.964,23.491 27.152,23.491C27.344,23.491 27.548,23.497 27.764,23.509C27.98,23.521 28.184,23.533 28.376,23.545C28.568,23.557 28.736,23.569 28.88,23.581C29.024,23.593 29.126,23.605 29.186,23.617L29.186,23.311C29.186,22.687 28.997,22.24 28.619,21.97C28.241,21.7 27.728,21.565 27.08,21.565C26.444,21.565 25.94,21.652 25.568,21.826C25.196,22 24.884,22.177 24.632,22.357L23.876,21.259C24.02,21.139 24.194,21.019 24.398,20.899C24.602,20.779 24.842,20.668 25.118,20.566C25.394,20.464 25.706,20.38 26.054,20.314C26.402,20.248 26.804,20.215 27.26,20.215C28.34,20.215 29.189,20.476 29.807,20.998C30.425,21.52 30.734,22.261 30.734,23.221L30.734,28.09C30.734,28.384 30.74,28.633 30.752,28.837L29.24,28.837L29.204,27.829Z" style="fill-rule:nonzero;"/>
        <path d="M33.31,26.731C33.61,27.031 33.97,27.271 34.39,27.451C34.81,27.631 35.296,27.721 35.848,27.721C36.388,27.721 36.838,27.634 37.198,27.46C37.558,27.286 37.738,27.013 37.738,26.641C37.738,26.449 37.699,26.284 37.621,26.146C37.543,26.008 37.411,25.885 37.225,25.777C37.039,25.669 36.793,25.57 36.487,25.48C36.181,25.39 35.8,25.291 35.344,25.183C35.02,25.111 34.699,25.015 34.381,24.895C34.063,24.775 33.778,24.616 33.526,24.418C33.274,24.22 33.07,23.98 32.914,23.698C32.758,23.416 32.68,23.077 32.68,22.681C32.68,22.273 32.773,21.916 32.959,21.61C33.145,21.304 33.394,21.046 33.706,20.836C34.018,20.626 34.369,20.467 34.759,20.359C35.149,20.251 35.554,20.197 35.974,20.197C36.682,20.197 37.291,20.29 37.801,20.476C38.311,20.662 38.758,20.923 39.142,21.259L38.26,22.375C38.008,22.147 37.693,21.955 37.315,21.799C36.937,21.643 36.496,21.565 35.992,21.565C35.476,21.565 35.062,21.649 34.75,21.817C34.438,21.985 34.282,22.261 34.282,22.645C34.282,23.005 34.489,23.272 34.903,23.446C35.317,23.62 35.86,23.785 36.532,23.941C36.928,24.037 37.297,24.148 37.639,24.274C37.981,24.4 38.281,24.562 38.539,24.76C38.797,24.958 39.001,25.201 39.151,25.489C39.301,25.777 39.376,26.125 39.376,26.533C39.376,26.953 39.28,27.322 39.088,27.64C38.896,27.958 38.638,28.225 38.314,28.441C37.99,28.657 37.618,28.819 37.198,28.927C36.778,29.035 36.34,29.089 35.884,29.089C34.3,29.089 33.112,28.663 32.32,27.811L33.31,26.731Z" style="fill-rule:nonzero;"/>
        <path d="M45.119,29.089C44.471,29.089 43.877,28.972 43.337,28.738C42.797,28.504 42.332,28.183 41.942,27.775C41.552,27.367 41.246,26.896 41.024,26.362C40.802,25.828 40.691,25.255 40.691,24.643C40.691,24.031 40.802,23.458 41.024,22.924C41.246,22.39 41.552,21.919 41.942,21.511C42.332,21.103 42.797,20.782 43.337,20.548C43.877,20.314 44.471,20.197 45.119,20.197C45.755,20.197 46.343,20.314 46.883,20.548C47.423,20.782 47.891,21.103 48.287,21.511C48.683,21.919 48.992,22.39 49.214,22.924C49.436,23.458 49.547,24.031 49.547,24.643C49.547,25.255 49.436,25.828 49.214,26.362C48.992,26.896 48.683,27.367 48.287,27.775C47.891,28.183 47.423,28.504 46.883,28.738C46.343,28.972 45.755,29.089 45.119,29.089ZM45.119,27.685C45.551,27.685 45.941,27.598 46.289,27.424C46.637,27.25 46.931,27.022 47.171,26.74C47.411,26.458 47.594,26.134 47.72,25.768C47.846,25.402 47.909,25.027 47.909,24.643C47.909,24.271 47.846,23.902 47.72,23.536C47.594,23.17 47.408,22.843 47.162,22.555C46.916,22.267 46.622,22.036 46.28,21.862C45.938,21.688 45.551,21.601 45.119,21.601C44.687,21.601 44.297,21.688 43.949,21.862C43.601,22.036 43.307,22.264 43.067,22.546C42.827,22.828 42.644,23.152 42.518,23.518C42.392,23.884 42.329,24.259 42.329,24.643C42.329,25.027 42.392,25.399 42.518,25.759C42.644,26.119 42.83,26.443 43.076,26.731C43.322,27.019 43.616,27.25 43.958,27.424C44.3,27.598 44.687,27.685 45.119,27.685Z" style="fill-rule:nonzero;"/>
        <path d="M51.205,28.837L51.205,21.268C51.205,21.01 51.199,20.743 51.187,20.467L52.735,20.467L52.789,21.817C52.885,21.673 53.011,21.514 53.167,21.34C53.323,21.166 53.512,21.007 53.734,20.863C53.956,20.719 54.214,20.596 54.508,20.494C54.802,20.392 55.141,20.341 55.525,20.341C55.705,20.341 55.87,20.353 56.02,20.377C56.17,20.401 56.311,20.437 56.443,20.485L56.083,21.997C55.867,21.913 55.591,21.871 55.255,21.871C54.907,21.871 54.586,21.937 54.292,22.069C53.998,22.201 53.743,22.384 53.527,22.618C53.311,22.852 53.14,23.125 53.014,23.437C52.888,23.749 52.825,24.079 52.825,24.427L52.825,28.837L51.205,28.837Z" style="fill-rule:nonzero;"/>
        <rect x="57.057" y="23.023" width="5.274" height="1.548" style="fill-rule:nonzero;"/>
        <path d="M64.781,25.831L70.091,23.077L64.781,20.323L65.393,19.099L71.981,22.555L71.981,23.599L65.393,27.055L64.781,25.831Z" style="fill-rule:nonzero;"/>
        <path d="M84.655,26.731C84.523,26.947 84.319,27.193 84.043,27.469C83.767,27.745 83.431,28.006 83.035,28.252C82.639,28.498 82.183,28.705 81.667,28.873C81.151,29.041 80.581,29.125 79.957,29.125C79.069,29.125 78.259,28.969 77.527,28.657C76.795,28.345 76.165,27.91 75.637,27.352C75.109,26.794 74.698,26.134 74.404,25.372C74.11,24.61 73.963,23.779 73.963,22.879C73.963,22.003 74.11,21.181 74.404,20.413C74.698,19.645 75.109,18.973 75.637,18.397C76.165,17.821 76.798,17.368 77.536,17.038C78.274,16.708 79.093,16.543 79.993,16.543C80.629,16.543 81.199,16.621 81.703,16.777C82.207,16.933 82.648,17.128 83.026,17.362C83.404,17.596 83.728,17.851 83.998,18.127C84.268,18.403 84.487,18.667 84.655,18.919L83.431,19.963C83.287,19.759 83.116,19.546 82.918,19.324C82.72,19.102 82.483,18.901 82.207,18.721C81.931,18.541 81.613,18.391 81.253,18.271C80.893,18.151 80.479,18.091 80.011,18.091C79.351,18.091 78.76,18.217 78.238,18.469C77.716,18.721 77.272,19.063 76.906,19.495C76.54,19.927 76.261,20.431 76.069,21.007C75.877,21.583 75.781,22.195 75.781,22.843C75.781,23.491 75.88,24.1 76.078,24.67C76.276,25.24 76.555,25.735 76.915,26.155C77.275,26.575 77.713,26.905 78.229,27.145C78.745,27.385 79.321,27.505 79.957,27.505C80.497,27.505 80.962,27.436 81.352,27.298C81.742,27.16 82.072,26.995 82.342,26.803C82.612,26.611 82.834,26.416 83.008,26.218C83.182,26.02 83.329,25.855 83.449,25.723L84.655,26.731Z" style="fill-rule:nonzero;"/>
        <rect x="86.222" y="16.831" width="1.62" height="12.006" style="fill-rule:nonzero;"/>
        <path d="M93.928,29.089C93.28,29.089 92.686,28.972 92.146,28.738C91.606,28.504 91.141,28.183 90.751,27.775C90.361,27.367 90.055,26.896 89.833,26.362C89.611,25.828 89.5,25.255 89.5,24.643C89.5,24.031 89.611,23.458 89.833,22.924C90.055,22.39 90.361,21.919 90.751,21.511C91.141,21.103 91.606,20.782 92.146,20.548C92.686,20.314 93.28,20.197 93.928,20.197C94.564,20.197 95.152,20.314 95.692,20.548C96.232,20.782 96.7,21.103 97.096,21.511C97.492,21.919 97.801,22.39 98.023,22.924C98.245,23.458 98.356,24.031 98.356,24.643C98.356,25.255 98.245,25.828 98.023,26.362C97.801,26.896 97.492,27.367 97.096,27.775C96.7,28.183 96.232,28.504 95.692,28.738C95.152,28.972 94.564,29.089 93.928,29.089ZM93.928,27.685C94.36,27.685 94.75,27.598 95.098,27.424C95.446,27.25 95.74,27.022 95.98,26.74C96.22,26.458 96.403,26.134 96.529,25.768C96.655,25.402 96.718,25.027 96.718,24.643C96.718,24.271 96.655,23.902 96.529,23.536C96.403,23.17 96.217,22.843 95.971,22.555C95.725,22.267 95.431,22.036 95.089,21.862C94.747,21.688 94.36,21.601 93.928,21.601C93.496,21.601 93.106,21.688 92.758,21.862C92.41,22.036 92.116,22.264 91.876,22.546C91.636,22.828 91.453,23.152 91.327,23.518C91.201,23.884 91.138,24.259 91.138,24.643C91.138,25.027 91.201,25.399 91.327,25.759C91.453,26.119 91.639,26.443 91.885,26.731C92.131,27.019 92.425,27.25 92.767,27.424C93.109,27.598 93.496,27.685 93.928,27.685Z" style="fill-rule:nonzero;"/>
        <path d="M107.286,27.685C106.914,28.105 106.455,28.444 105.909,28.702C105.363,28.96 104.73,29.089 104.01,29.089C103.338,29.089 102.729,28.978 102.183,28.756C101.637,28.534 101.175,28.228 100.797,27.838C100.419,27.448 100.128,26.98 99.924,26.434C99.72,25.888 99.618,25.291 99.618,24.643C99.618,24.031 99.726,23.455 99.942,22.915C100.158,22.375 100.461,21.904 100.851,21.502C101.241,21.1 101.703,20.782 102.237,20.548C102.771,20.314 103.362,20.197 104.01,20.197C104.718,20.197 105.342,20.323 105.882,20.575C106.422,20.827 106.884,21.169 107.268,21.601L106.206,22.627C105.954,22.315 105.648,22.069 105.288,21.889C104.928,21.709 104.502,21.619 104.01,21.619C103.578,21.619 103.191,21.7 102.849,21.862C102.507,22.024 102.219,22.246 101.985,22.528C101.751,22.81 101.571,23.134 101.445,23.5C101.319,23.866 101.256,24.247 101.256,24.643C101.256,25.027 101.319,25.402 101.445,25.768C101.571,26.134 101.751,26.458 101.985,26.74C102.219,27.022 102.507,27.247 102.849,27.415C103.191,27.583 103.578,27.667 104.01,27.667C104.502,27.667 104.943,27.574 105.333,27.388C105.723,27.202 106.044,26.953 106.296,26.641L107.286,27.685Z" style="fill-rule:nonzero;"/>
        <path d="M108.692,16.831L110.312,16.831L110.312,23.905L113.822,20.467L115.766,20.467L112.598,23.563L116.234,28.837L114.308,28.837L111.464,24.643L110.312,25.759L110.312,28.837L108.692,28.837L108.692,16.831Z" style="fill-rule:nonzero;"/>
        <path d="M37.194,273.827L39.726,273.827C40.27,273.827 40.72,273.903 41.076,274.055C41.432,274.207 41.716,274.399 41.928,274.631C42.14,274.863 42.288,275.123 42.372,275.411C42.456,275.699 42.498,275.979 42.498,276.251C42.498,276.651 42.43,277.003 42.294,277.307C42.158,277.611 41.97,277.865 41.73,278.069C41.49,278.273 41.204,278.427 40.872,278.531C40.54,278.635 40.178,278.687 39.786,278.687L38.334,278.687L38.334,281.831L37.194,281.831L37.194,273.827ZM39.774,277.703C40.27,277.703 40.652,277.577 40.92,277.325C41.188,277.073 41.322,276.723 41.322,276.275C41.322,275.819 41.184,275.461 40.908,275.201C40.632,274.941 40.254,274.811 39.774,274.811L38.334,274.811L38.334,277.703L39.774,277.703Z" style="fill-rule:nonzero;"/>
        <path d="M43.542,273.827L44.61,273.827L44.61,277.079C44.682,276.983 44.77,276.879 44.874,276.767C44.978,276.655 45.106,276.551 45.258,276.455C45.41,276.359 45.586,276.279 45.786,276.215C45.986,276.151 46.214,276.119 46.47,276.119C47.198,276.119 47.738,276.331 48.09,276.755C48.442,277.179 48.618,277.755 48.618,278.483L48.618,281.831L47.538,281.831L47.538,278.567C47.538,278.047 47.426,277.665 47.202,277.421C46.978,277.177 46.662,277.055 46.254,277.055C45.942,277.055 45.682,277.119 45.474,277.247C45.266,277.375 45.1,277.541 44.976,277.745C44.852,277.949 44.762,278.181 44.706,278.441C44.65,278.701 44.622,278.967 44.622,279.239L44.622,281.831L43.542,281.831L43.542,273.827Z" style="fill-rule:nonzero;"/>
        <path d="M53.526,279.191C53.494,279.183 53.432,279.173 53.34,279.161C53.248,279.149 53.142,279.139 53.022,279.131C52.902,279.123 52.774,279.115 52.638,279.107C52.502,279.099 52.37,279.095 52.242,279.095C51.938,279.095 51.692,279.131 51.504,279.203C51.316,279.275 51.168,279.365 51.06,279.473C50.952,279.581 50.878,279.701 50.838,279.833C50.798,279.965 50.778,280.091 50.778,280.211C50.778,280.515 50.882,280.745 51.09,280.901C51.298,281.057 51.586,281.135 51.954,281.135C52.162,281.135 52.36,281.099 52.548,281.027C52.736,280.955 52.902,280.859 53.046,280.739C53.19,280.619 53.306,280.479 53.394,280.319C53.482,280.159 53.526,279.995 53.526,279.827L53.526,279.191ZM53.538,281.159C53.33,281.439 53.056,281.647 52.716,281.783C52.376,281.919 52.026,281.987 51.666,281.987C51.434,281.987 51.204,281.957 50.976,281.897C50.748,281.837 50.54,281.737 50.352,281.597C50.164,281.457 50.012,281.277 49.896,281.057C49.78,280.837 49.722,280.567 49.722,280.247C49.722,279.647 49.932,279.167 50.352,278.807C50.772,278.447 51.378,278.267 52.17,278.267C52.298,278.267 52.434,278.271 52.578,278.279C52.722,278.287 52.858,278.295 52.986,278.303C53.114,278.311 53.226,278.319 53.322,278.327C53.418,278.335 53.486,278.343 53.526,278.351L53.526,278.147C53.526,277.731 53.4,277.433 53.148,277.253C52.896,277.073 52.554,276.983 52.122,276.983C51.698,276.983 51.362,277.041 51.114,277.157C50.866,277.273 50.658,277.391 50.49,277.511L49.986,276.779C50.082,276.699 50.198,276.619 50.334,276.539C50.47,276.459 50.63,276.385 50.814,276.317C50.998,276.249 51.206,276.193 51.438,276.149C51.67,276.105 51.938,276.083 52.242,276.083C52.962,276.083 53.528,276.257 53.94,276.605C54.352,276.953 54.558,277.447 54.558,278.087L54.558,281.333C54.558,281.529 54.562,281.695 54.57,281.831L53.562,281.831L53.538,281.159Z" style="fill-rule:nonzero;"/>
        <path d="M56.37,280.427C56.57,280.627 56.81,280.787 57.09,280.907C57.37,281.027 57.694,281.087 58.062,281.087C58.422,281.087 58.722,281.029 58.962,280.913C59.202,280.797 59.322,280.615 59.322,280.367C59.322,280.239 59.296,280.129 59.244,280.037C59.192,279.945 59.104,279.863 58.98,279.791C58.856,279.719 58.692,279.653 58.488,279.593C58.284,279.533 58.03,279.467 57.726,279.395C57.51,279.347 57.296,279.283 57.084,279.203C56.872,279.123 56.682,279.017 56.514,278.885C56.346,278.753 56.21,278.593 56.106,278.405C56.002,278.217 55.95,277.991 55.95,277.727C55.95,277.455 56.012,277.217 56.136,277.013C56.26,276.809 56.426,276.637 56.634,276.497C56.842,276.357 57.076,276.251 57.336,276.179C57.596,276.107 57.866,276.071 58.146,276.071C58.618,276.071 59.024,276.133 59.364,276.257C59.704,276.381 60.002,276.555 60.258,276.779L59.67,277.523C59.502,277.371 59.292,277.243 59.04,277.139C58.788,277.035 58.494,276.983 58.158,276.983C57.814,276.983 57.538,277.039 57.33,277.151C57.122,277.263 57.018,277.447 57.018,277.703C57.018,277.943 57.156,278.121 57.432,278.237C57.708,278.353 58.07,278.463 58.518,278.567C58.782,278.631 59.028,278.705 59.256,278.789C59.484,278.873 59.684,278.981 59.856,279.113C60.028,279.245 60.164,279.407 60.264,279.599C60.364,279.791 60.414,280.023 60.414,280.295C60.414,280.575 60.35,280.821 60.222,281.033C60.094,281.245 59.922,281.423 59.706,281.567C59.49,281.711 59.242,281.819 58.962,281.891C58.682,281.963 58.39,281.999 58.086,281.999C57.03,281.999 56.238,281.715 55.71,281.147L56.37,280.427Z" style="fill-rule:nonzero;"/>
        <path d="M64.338,281.999C63.906,281.999 63.51,281.921 63.15,281.765C62.79,281.609 62.48,281.395 62.22,281.123C61.96,280.851 61.756,280.537 61.608,280.181C61.46,279.825 61.386,279.443 61.386,279.035C61.386,278.627 61.46,278.245 61.608,277.889C61.756,277.533 61.96,277.219 62.22,276.947C62.48,276.675 62.79,276.461 63.15,276.305C63.51,276.149 63.906,276.071 64.338,276.071C64.762,276.071 65.154,276.149 65.514,276.305C65.874,276.461 66.186,276.675 66.45,276.947C66.714,277.219 66.92,277.533 67.068,277.889C67.216,278.245 67.29,278.627 67.29,279.035C67.29,279.443 67.216,279.825 67.068,280.181C66.92,280.537 66.714,280.851 66.45,281.123C66.186,281.395 65.874,281.609 65.514,281.765C65.154,281.921 64.762,281.999 64.338,281.999ZM64.338,281.063C64.626,281.063 64.886,281.005 65.118,280.889C65.35,280.773 65.546,280.621 65.706,280.433C65.866,280.245 65.988,280.029 66.072,279.785C66.156,279.541 66.198,279.291 66.198,279.035C66.198,278.787 66.156,278.541 66.072,278.297C65.988,278.053 65.864,277.835 65.7,277.643C65.536,277.451 65.34,277.297 65.112,277.181C64.884,277.065 64.626,277.007 64.338,277.007C64.05,277.007 63.79,277.065 63.558,277.181C63.326,277.297 63.13,277.449 62.97,277.637C62.81,277.825 62.688,278.041 62.604,278.285C62.52,278.529 62.478,278.779 62.478,279.035C62.478,279.291 62.52,279.539 62.604,279.779C62.688,280.019 62.812,280.235 62.976,280.427C63.14,280.619 63.336,280.773 63.564,280.889C63.792,281.005 64.05,281.063 64.338,281.063Z" style="fill-rule:nonzero;"/>
        <path d="M68.49,281.831L68.49,276.785C68.49,276.613 68.486,276.435 68.478,276.251L69.51,276.251L69.546,277.151C69.61,277.055 69.694,276.949 69.798,276.833C69.902,276.717 70.028,276.611 70.176,276.515C70.324,276.419 70.496,276.337 70.692,276.269C70.888,276.201 71.114,276.167 71.37,276.167C71.49,276.167 71.6,276.175 71.7,276.191C71.8,276.207 71.894,276.231 71.982,276.263L71.742,277.271C71.598,277.215 71.414,277.187 71.19,277.187C70.958,277.187 70.744,277.231 70.548,277.319C70.352,277.407 70.182,277.529 70.038,277.685C69.894,277.841 69.78,278.023 69.696,278.231C69.612,278.439 69.57,278.659 69.57,278.891L69.57,281.831L68.49,281.831Z" style="fill-rule:nonzero;"/>
        <rect x="75.15" y="273.827" width="1.152" height="8.004" style="fill-rule:nonzero;"/>
        <path d="M77.934,281.831L77.934,276.821C77.934,276.641 77.93,276.451 77.922,276.251L78.954,276.251L78.99,277.091C79.062,276.995 79.15,276.889 79.254,276.773C79.358,276.657 79.486,276.551 79.638,276.455C79.79,276.359 79.968,276.279 80.172,276.215C80.376,276.151 80.606,276.119 80.862,276.119C81.59,276.119 82.13,276.331 82.482,276.755C82.834,277.179 83.01,277.755 83.01,278.483L83.01,281.831L81.93,281.831L81.93,278.567C81.93,278.047 81.818,277.665 81.594,277.421C81.37,277.177 81.054,277.055 80.646,277.055C80.334,277.055 80.074,277.119 79.866,277.247C79.658,277.375 79.492,277.541 79.368,277.745C79.244,277.949 79.154,278.181 79.098,278.441C79.042,278.701 79.014,278.967 79.014,279.239L79.014,281.831L77.934,281.831Z" style="fill-rule:nonzero;"/>
        <g id="XY-Controls" serif:id="XY Controls">
            <g id="X">
                <path d="M19.806,81.501C19.918,81.629 20.044,81.759 20.184,81.891C20.324,82.023 20.482,82.141 20.658,82.245C20.834,82.349 21.03,82.433 21.246,82.497C21.462,82.561 21.698,82.593 21.954,82.593C22.482,82.593 22.894,82.473 23.19,82.233C23.486,81.993 23.634,81.669 23.634,81.261C23.634,80.821 23.466,80.491 23.13,80.271C22.794,80.051 22.31,79.873 21.678,79.737C21.334,79.665 21.022,79.565 20.742,79.437C20.462,79.309 20.22,79.149 20.016,78.957C19.812,78.765 19.654,78.543 19.542,78.291C19.43,78.039 19.374,77.753 19.374,77.433C19.374,77.137 19.43,76.857 19.542,76.593C19.654,76.329 19.822,76.097 20.046,75.897C20.27,75.697 20.55,75.537 20.886,75.417C21.222,75.297 21.61,75.237 22.05,75.237C22.442,75.237 22.78,75.279 23.064,75.363C23.348,75.447 23.59,75.549 23.79,75.669C23.99,75.789 24.15,75.913 24.27,76.041C24.39,76.169 24.482,76.273 24.546,76.353L23.778,77.061C23.73,77.005 23.658,76.931 23.562,76.839C23.466,76.747 23.344,76.657 23.196,76.569C23.048,76.481 22.876,76.407 22.68,76.347C22.484,76.287 22.258,76.257 22.002,76.257C21.746,76.257 21.526,76.291 21.342,76.359C21.158,76.427 21.006,76.515 20.886,76.623C20.766,76.731 20.678,76.853 20.622,76.989C20.566,77.125 20.538,77.261 20.538,77.397C20.538,77.597 20.58,77.767 20.664,77.907C20.748,78.047 20.87,78.171 21.03,78.279C21.19,78.387 21.388,78.479 21.624,78.555C21.86,78.631 22.13,78.705 22.434,78.777C22.73,78.849 23.02,78.943 23.304,79.059C23.588,79.175 23.842,79.331 24.066,79.527C24.29,79.723 24.468,79.963 24.6,80.247C24.732,80.531 24.798,80.877 24.798,81.285C24.798,81.629 24.726,81.945 24.582,82.233C24.438,82.521 24.24,82.771 23.988,82.983C23.736,83.195 23.438,83.359 23.094,83.475C22.75,83.591 22.378,83.649 21.978,83.649C21.602,83.649 21.26,83.605 20.952,83.517C20.644,83.429 20.364,83.317 20.112,83.181C19.86,83.045 19.64,82.895 19.452,82.731C19.264,82.567 19.11,82.405 18.99,82.245L19.806,81.501Z" style="fill-rule:nonzero;"/>
                <path d="M26.25,78.765L25.242,78.765L25.242,77.865L26.25,77.865L26.25,76.041L27.33,76.041L27.33,77.865L28.962,77.865L28.962,78.765L27.33,78.765L27.33,81.513C27.33,81.961 27.4,82.269 27.54,82.437C27.68,82.605 27.878,82.689 28.134,82.689C28.342,82.689 28.514,82.657 28.65,82.593C28.786,82.529 28.922,82.433 29.058,82.305L29.55,82.965C29.318,83.189 29.08,83.351 28.836,83.451C28.592,83.551 28.302,83.601 27.966,83.601C27.374,83.601 26.94,83.441 26.664,83.121C26.388,82.801 26.25,82.301 26.25,81.621L26.25,78.765Z" style="fill-rule:nonzero;"/>
                <path d="M35.382,82.629C35.318,82.701 35.222,82.793 35.094,82.905C34.966,83.017 34.8,83.125 34.596,83.229C34.392,83.333 34.152,83.423 33.876,83.499C33.6,83.575 33.286,83.613 32.934,83.613C32.502,83.613 32.106,83.541 31.746,83.397C31.386,83.253 31.078,83.049 30.822,82.785C30.566,82.521 30.368,82.205 30.228,81.837C30.088,81.469 30.018,81.061 30.018,80.613C30.018,80.205 30.086,79.823 30.222,79.467C30.358,79.111 30.55,78.803 30.798,78.543C31.046,78.283 31.34,78.077 31.68,77.925C32.02,77.773 32.394,77.697 32.802,77.697C33.282,77.697 33.694,77.789 34.038,77.973C34.382,78.157 34.664,78.401 34.884,78.705C35.104,79.009 35.266,79.357 35.37,79.749C35.474,80.141 35.526,80.549 35.526,80.973L31.122,80.973C31.13,81.221 31.184,81.449 31.284,81.657C31.384,81.865 31.518,82.045 31.686,82.197C31.854,82.349 32.046,82.469 32.262,82.557C32.478,82.645 32.706,82.689 32.946,82.689C33.418,82.689 33.806,82.609 34.11,82.449C34.414,82.289 34.634,82.133 34.77,81.981L35.382,82.629ZM34.41,80.169C34.378,79.737 34.226,79.369 33.954,79.065C33.682,78.761 33.298,78.609 32.802,78.609C32.546,78.609 32.316,78.653 32.112,78.741C31.908,78.829 31.734,78.945 31.59,79.089C31.446,79.233 31.334,79.399 31.254,79.587C31.174,79.775 31.13,79.969 31.122,80.169L34.41,80.169Z" style="fill-rule:nonzero;"/>
                <path d="M36.642,85.845L36.642,78.435C36.642,78.255 36.638,78.065 36.63,77.865L37.662,77.865L37.698,78.657C37.754,78.585 37.834,78.497 37.938,78.393C38.042,78.289 38.172,78.189 38.328,78.093C38.484,77.997 38.666,77.915 38.874,77.847C39.082,77.779 39.322,77.745 39.594,77.745C40.026,77.745 40.4,77.825 40.716,77.985C41.032,78.145 41.294,78.361 41.502,78.633C41.71,78.905 41.864,79.217 41.964,79.569C42.064,79.921 42.114,80.293 42.114,80.685C42.114,81.189 42.028,81.625 41.856,81.993C41.684,82.361 41.46,82.665 41.184,82.905C40.908,83.145 40.6,83.323 40.26,83.439C39.92,83.555 39.586,83.613 39.258,83.613C38.882,83.613 38.58,83.575 38.352,83.499C38.124,83.423 37.91,83.341 37.71,83.253L37.71,85.845L36.642,85.845ZM37.71,82.233C37.838,82.337 38.022,82.437 38.262,82.533C38.502,82.629 38.802,82.677 39.162,82.677C39.434,82.677 39.684,82.627 39.912,82.527C40.14,82.427 40.336,82.287 40.5,82.107C40.664,81.927 40.79,81.717 40.878,81.477C40.966,81.237 41.01,80.973 41.01,80.685C41.01,80.413 40.98,80.157 40.92,79.917C40.86,79.677 40.764,79.465 40.632,79.281C40.5,79.097 40.33,78.951 40.122,78.843C39.914,78.735 39.658,78.681 39.354,78.681C38.97,78.681 38.642,78.787 38.37,78.999C38.098,79.211 37.906,79.521 37.794,79.929C37.754,80.057 37.73,80.195 37.722,80.343C37.714,80.491 37.71,80.645 37.71,80.805L37.71,82.233Z" style="fill-rule:nonzero;"/>
                <path d="M43.614,82.041C43.814,82.241 44.054,82.401 44.334,82.521C44.614,82.641 44.938,82.701 45.306,82.701C45.666,82.701 45.966,82.643 46.206,82.527C46.446,82.411 46.566,82.229 46.566,81.981C46.566,81.853 46.54,81.743 46.488,81.651C46.436,81.559 46.348,81.477 46.224,81.405C46.1,81.333 45.936,81.267 45.732,81.207C45.528,81.147 45.274,81.081 44.97,81.009C44.754,80.961 44.54,80.897 44.328,80.817C44.116,80.737 43.926,80.631 43.758,80.499C43.59,80.367 43.454,80.207 43.35,80.019C43.246,79.831 43.194,79.605 43.194,79.341C43.194,79.069 43.256,78.831 43.38,78.627C43.504,78.423 43.67,78.251 43.878,78.111C44.086,77.971 44.32,77.865 44.58,77.793C44.84,77.721 45.11,77.685 45.39,77.685C45.862,77.685 46.268,77.747 46.608,77.871C46.948,77.995 47.246,78.169 47.502,78.393L46.914,79.137C46.746,78.985 46.536,78.857 46.284,78.753C46.032,78.649 45.738,78.597 45.402,78.597C45.058,78.597 44.782,78.653 44.574,78.765C44.366,78.877 44.262,79.061 44.262,79.317C44.262,79.557 44.4,79.735 44.676,79.851C44.952,79.967 45.314,80.077 45.762,80.181C46.026,80.245 46.272,80.319 46.5,80.403C46.728,80.487 46.928,80.595 47.1,80.727C47.272,80.859 47.408,81.021 47.508,81.213C47.608,81.405 47.658,81.637 47.658,81.909C47.658,82.189 47.594,82.435 47.466,82.647C47.338,82.859 47.166,83.037 46.95,83.181C46.734,83.325 46.486,83.433 46.206,83.505C45.926,83.577 45.634,83.613 45.33,83.613C44.274,83.613 43.482,83.329 42.954,82.761L43.614,82.041Z" style="fill-rule:nonzero;"/>
                <path d="M33.36,102.2L33.36,213.877" style="fill:none;stroke:black;stroke-width:1px;stroke-dasharray:2,2,0,0;"/>
                <rect x="19.9" y="165.031" width="2.216" height="0.943" style="fill-rule:nonzero;"/>
                <path d="M46.708,166.358L46.708,165.255L45.292,165.255L45.292,163.839L44.189,163.839L44.189,165.255L42.773,165.255L42.773,166.358L44.189,166.358L44.189,167.774L45.292,167.774L45.292,166.358L46.708,166.358Z" style="fill-rule:nonzero;"/>
            </g>
            <g id="Y">
                <path d="M73.27,75.441L74.542,75.441L76.078,81.897L77.818,75.681L78.934,75.681L80.638,81.885L82.174,75.441L83.374,75.441L81.226,83.445L80.002,83.445L78.334,77.529L76.618,83.445L75.406,83.445L73.27,75.441Z" style="fill-rule:nonzero;"/>
                <path d="M84.238,75.657L85.45,75.657L85.45,76.869L84.238,76.869L84.238,75.657ZM84.31,77.865L85.39,77.865L85.39,83.445L84.31,83.445L84.31,77.865Z" style="fill-rule:nonzero;"/>
                <path d="M90.862,79.101C90.782,79.037 90.634,78.951 90.418,78.843C90.202,78.735 89.894,78.681 89.494,78.681C89.23,78.681 88.988,78.729 88.768,78.825C88.548,78.921 88.356,79.057 88.192,79.233C88.028,79.409 87.9,79.625 87.808,79.881C87.716,80.137 87.67,80.425 87.67,80.745C87.67,81.009 87.702,81.259 87.766,81.495C87.83,81.731 87.928,81.937 88.06,82.113C88.192,82.289 88.36,82.427 88.564,82.527C88.768,82.627 89.01,82.677 89.29,82.677C89.57,82.677 89.81,82.625 90.01,82.521C90.21,82.417 90.372,82.287 90.496,82.131C90.62,81.975 90.712,81.803 90.772,81.615C90.832,81.427 90.862,81.253 90.862,81.093L90.862,79.101ZM90.862,82.737C90.822,82.785 90.756,82.859 90.664,82.959C90.572,83.059 90.45,83.157 90.298,83.253C90.146,83.349 89.968,83.433 89.764,83.505C89.56,83.577 89.322,83.613 89.05,83.613C88.698,83.613 88.37,83.545 88.066,83.409C87.762,83.273 87.498,83.081 87.274,82.833C87.05,82.585 86.876,82.283 86.752,81.927C86.628,81.571 86.566,81.173 86.566,80.733C86.566,80.205 86.658,79.751 86.842,79.371C87.026,78.991 87.26,78.679 87.544,78.435C87.828,78.191 88.136,78.013 88.468,77.901C88.8,77.789 89.114,77.733 89.41,77.733C89.81,77.733 90.122,77.781 90.346,77.877C90.57,77.973 90.742,78.045 90.862,78.093L90.862,75.441L91.942,75.441L91.942,82.875C91.942,83.055 91.946,83.245 91.954,83.445L90.898,83.445L90.862,82.737Z" style="fill-rule:nonzero;"/>
                <path d="M93.838,78.765L92.83,78.765L92.83,77.865L93.838,77.865L93.838,76.041L94.918,76.041L94.918,77.865L96.55,77.865L96.55,78.765L94.918,78.765L94.918,81.513C94.918,81.961 94.988,82.269 95.128,82.437C95.268,82.605 95.466,82.689 95.722,82.689C95.93,82.689 96.102,82.657 96.238,82.593C96.374,82.529 96.51,82.433 96.646,82.305L97.138,82.965C96.906,83.189 96.668,83.351 96.424,83.451C96.18,83.551 95.89,83.601 95.554,83.601C94.962,83.601 94.528,83.441 94.252,83.121C93.976,82.801 93.838,82.301 93.838,81.621L93.838,78.765Z" style="fill-rule:nonzero;"/>
                <path d="M97.87,75.441L98.938,75.441L98.938,78.693C99.01,78.597 99.098,78.493 99.202,78.381C99.306,78.269 99.434,78.165 99.586,78.069C99.738,77.973 99.914,77.893 100.114,77.829C100.314,77.765 100.542,77.733 100.798,77.733C101.526,77.733 102.066,77.945 102.418,78.369C102.77,78.793 102.946,79.369 102.946,80.097L102.946,83.445L101.866,83.445L101.866,80.181C101.866,79.661 101.754,79.279 101.53,79.035C101.306,78.791 100.99,78.669 100.582,78.669C100.27,78.669 100.01,78.733 99.802,78.861C99.594,78.989 99.428,79.155 99.304,79.359C99.18,79.563 99.09,79.795 99.034,80.055C98.978,80.315 98.95,80.581 98.95,80.853L98.95,83.445L97.87,83.445L97.87,75.441Z" style="fill-rule:nonzero;"/>
                <path d="M88.36,102.2L88.36,213.877" style="fill:none;stroke:black;stroke-width:1px;stroke-dasharray:2,2,0,0;"/>
                <rect x="74.9" y="165.031" width="2.216" height="0.943" style="fill-rule:nonzero;"/>
                <path d="M101.708,166.358L101.708,165.255L100.292,165.255L100.292,163.839L99.189,163.839L99.189,165.255L97.773,165.255L97.773,166.358L99.189,166.358L99.189,167.774L100.292,167.774L100.292,166.358L101.708,166.358Z" style="fill-rule:nonzero;"/>
            </g>
        </g>
    </g>
</svg>
