<?xml version="1.0" encoding="UTF-8" standalone="no"?>
<!DOCTYPE svg PUBLIC "-//W3C//DTD SVG 1.1//EN" "http://www.w3.org/Graphics/SVG/1.1/DTD/svg11.dtd">
<svg width="100%" height="100%" viewBox="0 0 180 380" version="1.1" xmlns="http://www.w3.org/2000/svg" xmlns:xlink="http://www.w3.org/1999/xlink" xml:space="preserve" xmlns:serif="http://www.serif.com/" style="fill-rule:evenodd;clip-rule:evenodd;stroke-linejoin:round;stroke-miterlimit:2;">
    <g id="svg8">
        <rect x="0" y="0" width="180" height="380" style="fill:rgb(240,240,240);"/>
        <g>
            <path d="M70.784,361.578L69.178,361.578L69.178,356.247L63.102,356.247L63.102,361.578L61.496,361.578L61.496,350.154L63.102,350.154L63.102,354.873L69.178,354.873L69.178,350.154L70.784,350.154L70.784,361.578Z" style="fill:rgb(35,31,32);fill-rule:nonzero;"/>
            <path d="M78.992,361.578L72.171,361.578L72.171,350.154L78.86,350.154L78.86,351.496L73.777,351.496L73.777,354.906L78.578,354.906L78.578,356.247L73.777,356.247L73.777,360.221L78.992,360.221L78.992,361.578Z" style="fill:rgb(35,31,32);fill-rule:nonzero;"/>
            <path d="M87.865,351.496L84.653,351.496L84.653,361.578L83.047,361.578L83.047,351.496L79.819,351.496L79.819,350.154L87.865,350.154L87.865,351.496Z" style="fill:rgb(35,31,32);fill-rule:nonzero;"/>
            <path d="M93.575,351.877C93.062,351.496 92.449,351.463 91.655,351.463L90.479,351.463L90.479,355.337L91.655,355.337C92.449,355.337 93.062,355.304 93.575,354.94C94.089,354.559 94.304,354.095 94.304,353.399C94.304,352.721 94.089,352.241 93.575,351.877M96.622,361.578L94.684,361.578L91.704,356.661L90.479,356.661L90.479,361.578L88.873,361.578L88.873,350.154L92.101,350.154C93.244,350.154 94.171,350.42 94.85,350.949C95.529,351.496 95.959,352.323 95.959,353.366C95.959,355.37 94.568,356.264 93.36,356.496L96.622,361.578Z" style="fill:rgb(35,31,32);fill-rule:nonzero;"/>
            <rect x="97.814" y="350.154" width="1.605" height="11.424" style="fill:rgb(35,31,32);"/>
            <path d="M110.542,360.088C109.83,360.883 108.539,361.777 106.37,361.777C103.042,361.777 100.525,359.442 100.525,355.883C100.525,352.323 103.092,349.989 106.37,349.989C108.506,349.989 109.797,350.883 110.426,351.496L109.747,352.787C109.301,352.225 108.025,351.397 106.437,351.397C103.97,351.397 102.182,353.168 102.182,355.85C102.182,358.532 103.986,360.304 106.437,360.304C107.942,360.304 109.102,359.725 109.847,358.913L110.542,360.088Z" style="fill:rgb(237,50,36);fill-rule:nonzero;"/>
            <path d="M120.452,361.578L118.499,361.578L114.707,355.849L113.532,357.042L113.532,361.578L111.926,361.578L111.926,350.154L113.532,350.154L113.532,355.022L118.184,350.154L120.138,350.154L115.783,354.658L120.452,361.578Z" style="fill:rgb(237,50,36);fill-rule:nonzero;"/>
            <path d="M120.452,361.578L118.499,361.578L114.707,355.849L113.532,357.042L113.532,361.578L111.926,361.578L111.926,357.019L113.532,357.042L114.707,355.849L115.783,354.658L116.4,355.571L116.897,356.308L120.452,361.578Z" style="fill-rule:nonzero;"/>
        </g>
        <path d="M22.17,16.831L25.968,16.831C26.784,16.831 27.459,16.945 27.993,17.173C28.527,17.401 28.953,17.689 29.271,18.037C29.589,18.385 29.811,18.775 29.937,19.207C30.063,19.639 30.126,20.059 30.126,20.467C30.126,21.067 30.024,21.595 29.82,22.051C29.616,22.507 29.334,22.888 28.974,23.194C28.614,23.5 28.185,23.731 27.687,23.887C27.189,24.043 26.646,24.121 26.058,24.121L23.88,24.121L23.88,28.837L22.17,28.837L22.17,16.831ZM26.04,22.645C26.784,22.645 27.357,22.456 27.759,22.078C28.161,21.7 28.362,21.175 28.362,20.503C28.362,19.819 28.155,19.282 27.741,18.892C27.327,18.502 26.76,18.307 26.04,18.307L23.88,18.307L23.88,22.645L26.04,22.645Z" style="fill-rule:nonzero;"/>
        <path d="M31.272,16.831L32.874,16.831L32.874,21.709C32.982,21.565 33.114,21.409 33.27,21.241C33.426,21.073 33.618,20.917 33.846,20.773C34.074,20.629 34.338,20.509 34.638,20.413C34.938,20.317 35.28,20.269 35.664,20.269C36.756,20.269 37.566,20.587 38.094,21.223C38.622,21.859 38.886,22.723 38.886,23.815L38.886,28.837L37.266,28.837L37.266,23.941C37.266,23.161 37.098,22.588 36.762,22.222C36.426,21.856 35.952,21.673 35.34,21.673C34.872,21.673 34.482,21.769 34.17,21.961C33.858,22.153 33.609,22.402 33.423,22.708C33.237,23.014 33.102,23.362 33.018,23.752C32.934,24.142 32.892,24.541 32.892,24.949L32.892,28.837L31.272,28.837L31.272,16.831Z" style="fill-rule:nonzero;"/>
        <path d="M45.828,24.877C45.78,24.865 45.687,24.85 45.549,24.832C45.411,24.814 45.252,24.799 45.072,24.787C44.892,24.775 44.7,24.763 44.496,24.751C44.292,24.739 44.094,24.733 43.902,24.733C43.446,24.733 43.077,24.787 42.795,24.895C42.513,25.003 42.291,25.138 42.129,25.3C41.967,25.462 41.856,25.642 41.796,25.84C41.736,26.038 41.706,26.227 41.706,26.407C41.706,26.863 41.862,27.208 42.174,27.442C42.486,27.676 42.918,27.793 43.47,27.793C43.782,27.793 44.079,27.739 44.361,27.631C44.643,27.523 44.892,27.379 45.108,27.199C45.324,27.019 45.498,26.809 45.63,26.569C45.762,26.329 45.828,26.083 45.828,25.831L45.828,24.877ZM45.846,27.829C45.534,28.249 45.123,28.561 44.613,28.765C44.103,28.969 43.578,29.071 43.038,29.071C42.69,29.071 42.345,29.026 42.003,28.936C41.661,28.846 41.349,28.696 41.067,28.486C40.785,28.276 40.557,28.006 40.383,27.676C40.209,27.346 40.122,26.941 40.122,26.461C40.122,25.561 40.437,24.841 41.067,24.301C41.697,23.761 42.606,23.491 43.794,23.491C43.986,23.491 44.19,23.497 44.406,23.509C44.622,23.521 44.826,23.533 45.018,23.545C45.21,23.557 45.378,23.569 45.522,23.581C45.666,23.593 45.768,23.605 45.828,23.617L45.828,23.311C45.828,22.687 45.639,22.24 45.261,21.97C44.883,21.7 44.37,21.565 43.722,21.565C43.086,21.565 42.582,21.652 42.21,21.826C41.838,22 41.526,22.177 41.274,22.357L40.518,21.259C40.662,21.139 40.836,21.019 41.04,20.899C41.244,20.779 41.484,20.668 41.76,20.566C42.036,20.464 42.348,20.38 42.696,20.314C43.044,20.248 43.446,20.215 43.902,20.215C44.982,20.215 45.831,20.476 46.449,20.998C47.067,21.52 47.376,22.261 47.376,23.221L47.376,28.09C47.376,28.384 47.382,28.633 47.394,28.837L45.882,28.837L45.846,27.829Z" style="fill-rule:nonzero;"/>
        <path d="M49.674,26.731C49.974,27.031 50.334,27.271 50.754,27.451C51.174,27.631 51.66,27.721 52.212,27.721C52.752,27.721 53.202,27.634 53.562,27.46C53.922,27.286 54.102,27.013 54.102,26.641C54.102,26.449 54.063,26.284 53.985,26.146C53.907,26.008 53.775,25.885 53.589,25.777C53.403,25.669 53.157,25.57 52.851,25.48C52.545,25.39 52.164,25.291 51.708,25.183C51.384,25.111 51.063,25.015 50.745,24.895C50.427,24.775 50.142,24.616 49.89,24.418C49.638,24.22 49.434,23.98 49.278,23.698C49.122,23.416 49.044,23.077 49.044,22.681C49.044,22.273 49.137,21.916 49.323,21.61C49.509,21.304 49.758,21.046 50.07,20.836C50.382,20.626 50.733,20.467 51.123,20.359C51.513,20.251 51.918,20.197 52.338,20.197C53.046,20.197 53.655,20.29 54.165,20.476C54.675,20.662 55.122,20.923 55.506,21.259L54.624,22.375C54.372,22.147 54.057,21.955 53.679,21.799C53.301,21.643 52.86,21.565 52.356,21.565C51.84,21.565 51.426,21.649 51.114,21.817C50.802,21.985 50.646,22.261 50.646,22.645C50.646,23.005 50.853,23.272 51.267,23.446C51.681,23.62 52.224,23.785 52.896,23.941C53.292,24.037 53.661,24.148 54.003,24.274C54.345,24.4 54.645,24.562 54.903,24.76C55.161,24.958 55.365,25.201 55.515,25.489C55.665,25.777 55.74,26.125 55.74,26.533C55.74,26.953 55.644,27.322 55.452,27.64C55.26,27.958 55.002,28.225 54.678,28.441C54.354,28.657 53.982,28.819 53.562,28.927C53.142,29.035 52.704,29.089 52.248,29.089C50.664,29.089 49.476,28.663 48.684,27.811L49.674,26.731Z" style="fill-rule:nonzero;"/>
        <path d="M61.206,29.089C60.558,29.089 59.964,28.972 59.424,28.738C58.884,28.504 58.419,28.183 58.029,27.775C57.639,27.367 57.333,26.896 57.111,26.362C56.889,25.828 56.778,25.255 56.778,24.643C56.778,24.031 56.889,23.458 57.111,22.924C57.333,22.39 57.639,21.919 58.029,21.511C58.419,21.103 58.884,20.782 59.424,20.548C59.964,20.314 60.558,20.197 61.206,20.197C61.842,20.197 62.43,20.314 62.97,20.548C63.51,20.782 63.978,21.103 64.374,21.511C64.77,21.919 65.079,22.39 65.301,22.924C65.523,23.458 65.634,24.031 65.634,24.643C65.634,25.255 65.523,25.828 65.301,26.362C65.079,26.896 64.77,27.367 64.374,27.775C63.978,28.183 63.51,28.504 62.97,28.738C62.43,28.972 61.842,29.089 61.206,29.089ZM61.206,27.685C61.638,27.685 62.028,27.598 62.376,27.424C62.724,27.25 63.018,27.022 63.258,26.74C63.498,26.458 63.681,26.134 63.807,25.768C63.933,25.402 63.996,25.027 63.996,24.643C63.996,24.271 63.933,23.902 63.807,23.536C63.681,23.17 63.495,22.843 63.249,22.555C63.003,22.267 62.709,22.036 62.367,21.862C62.025,21.688 61.638,21.601 61.206,21.601C60.774,21.601 60.384,21.688 60.036,21.862C59.688,22.036 59.394,22.264 59.154,22.546C58.914,22.828 58.731,23.152 58.605,23.518C58.479,23.884 58.416,24.259 58.416,24.643C58.416,25.027 58.479,25.399 58.605,25.759C58.731,26.119 58.917,26.443 59.163,26.731C59.409,27.019 59.703,27.25 60.045,27.424C60.387,27.598 60.774,27.685 61.206,27.685Z" style="fill-rule:nonzero;"/>
        <path d="M67.014,28.837L67.014,21.268C67.014,21.01 67.008,20.743 66.996,20.467L68.544,20.467L68.598,21.817C68.694,21.673 68.82,21.514 68.976,21.34C69.132,21.166 69.321,21.007 69.543,20.863C69.765,20.719 70.023,20.596 70.317,20.494C70.611,20.392 70.95,20.341 71.334,20.341C71.514,20.341 71.679,20.353 71.829,20.377C71.979,20.401 72.12,20.437 72.252,20.485L71.892,21.997C71.676,21.913 71.4,21.871 71.064,21.871C70.716,21.871 70.395,21.937 70.101,22.069C69.807,22.201 69.552,22.384 69.336,22.618C69.12,22.852 68.949,23.125 68.823,23.437C68.697,23.749 68.634,24.079 68.634,24.427L68.634,28.837L67.014,28.837Z" style="fill-rule:nonzero;"/>
        <rect x="72.588" y="23.023" width="5.274" height="1.548" style="fill-rule:nonzero;"/>
        <path d="M80.034,25.831L85.344,23.077L80.034,20.323L80.646,19.099L87.234,22.555L87.234,23.599L80.646,27.055L80.034,25.831Z" style="fill-rule:nonzero;"/>
        <path d="M89.442,16.831L97.002,16.831L97.002,18.361L91.17,18.361L91.17,21.853L95.562,21.853L95.562,23.401L91.17,23.401L91.17,27.289L97.434,27.289L97.434,28.837L89.442,28.837L89.442,16.831Z" style="fill-rule:nonzero;"/>
        <path d="M98.652,20.467L100.272,20.467L100.272,25.381C100.272,26.173 100.434,26.746 100.758,27.1C101.082,27.454 101.55,27.631 102.162,27.631C102.63,27.631 103.017,27.535 103.323,27.343C103.629,27.151 103.878,26.902 104.07,26.596C104.262,26.29 104.397,25.942 104.475,25.552C104.553,25.162 104.592,24.763 104.592,24.355L104.592,20.467L106.212,20.467L106.212,27.982C106.212,28.252 106.218,28.537 106.23,28.837L104.682,28.837L104.628,27.595C104.52,27.739 104.388,27.895 104.232,28.063C104.076,28.231 103.884,28.384 103.656,28.522C103.428,28.66 103.164,28.777 102.864,28.873C102.564,28.969 102.222,29.017 101.838,29.017C100.746,29.017 99.942,28.702 99.426,28.072C98.91,27.442 98.652,26.581 98.652,25.489L98.652,20.467Z" style="fill-rule:nonzero;"/>
        <path d="M115.278,27.685C114.906,28.105 114.447,28.444 113.901,28.702C113.355,28.96 112.722,29.089 112.002,29.089C111.33,29.089 110.721,28.978 110.175,28.756C109.629,28.534 109.167,28.228 108.789,27.838C108.411,27.448 108.12,26.98 107.916,26.434C107.712,25.888 107.61,25.291 107.61,24.643C107.61,24.031 107.718,23.455 107.934,22.915C108.15,22.375 108.453,21.904 108.843,21.502C109.233,21.1 109.695,20.782 110.229,20.548C110.763,20.314 111.354,20.197 112.002,20.197C112.71,20.197 113.334,20.323 113.874,20.575C114.414,20.827 114.876,21.169 115.26,21.601L114.198,22.627C113.946,22.315 113.64,22.069 113.28,21.889C112.92,21.709 112.494,21.619 112.002,21.619C111.57,21.619 111.183,21.7 110.841,21.862C110.499,22.024 110.211,22.246 109.977,22.528C109.743,22.81 109.563,23.134 109.437,23.5C109.311,23.866 109.248,24.247 109.248,24.643C109.248,25.027 109.311,25.402 109.437,25.768C109.563,26.134 109.743,26.458 109.977,26.74C110.211,27.022 110.499,27.247 110.841,27.415C111.183,27.583 111.57,27.667 112.002,27.667C112.494,27.667 112.935,27.574 113.325,27.388C113.715,27.202 114.036,26.953 114.288,26.641L115.278,27.685Z" style="fill-rule:nonzero;"/>
        <rect x="116.424" y="16.831" width="1.62" height="12.006" style="fill-rule:nonzero;"/>
        <path d="M119.784,17.155L121.602,17.155L121.602,18.973L119.784,18.973L119.784,17.155ZM119.892,20.467L121.512,20.467L121.512,28.837L119.892,28.837L119.892,20.467Z" style="fill-rule:nonzero;"/>
        <path d="M129.39,22.321C129.27,22.225 129.048,22.096 128.724,21.934C128.4,21.772 127.938,21.691 127.338,21.691C126.942,21.691 126.579,21.763 126.249,21.907C125.919,22.051 125.631,22.255 125.385,22.519C125.139,22.783 124.947,23.107 124.809,23.491C124.671,23.875 124.602,24.307 124.602,24.787C124.602,25.183 124.65,25.558 124.746,25.912C124.842,26.266 124.989,26.575 125.187,26.839C125.385,27.103 125.637,27.31 125.943,27.46C126.249,27.61 126.612,27.685 127.032,27.685C127.452,27.685 127.812,27.607 128.112,27.451C128.412,27.295 128.655,27.1 128.841,26.866C129.027,26.632 129.165,26.374 129.255,26.092C129.345,25.81 129.39,25.549 129.39,25.309L129.39,22.321ZM129.39,27.775C129.33,27.847 129.231,27.958 129.093,28.108C128.955,28.258 128.772,28.405 128.544,28.549C128.316,28.693 128.049,28.819 127.743,28.927C127.437,29.035 127.08,29.089 126.672,29.089C126.144,29.089 125.652,28.987 125.196,28.783C124.74,28.579 124.344,28.291 124.008,27.919C123.672,27.547 123.411,27.094 123.225,26.56C123.039,26.026 122.946,25.429 122.946,24.769C122.946,23.977 123.084,23.296 123.36,22.726C123.636,22.156 123.987,21.688 124.413,21.322C124.839,20.956 125.301,20.689 125.799,20.521C126.297,20.353 126.768,20.269 127.212,20.269C127.812,20.269 128.28,20.341 128.616,20.485C128.952,20.629 129.21,20.737 129.39,20.809L129.39,16.831L131.01,16.831L131.01,27.982C131.01,28.252 131.016,28.537 131.028,28.837L129.444,28.837L129.39,27.775Z" style="fill-rule:nonzero;"/>
        <path d="M140.436,27.613C140.34,27.721 140.196,27.859 140.004,28.027C139.812,28.195 139.563,28.357 139.257,28.513C138.951,28.669 138.591,28.804 138.177,28.918C137.763,29.032 137.292,29.089 136.764,29.089C136.116,29.089 135.522,28.981 134.982,28.765C134.442,28.549 133.98,28.243 133.596,27.847C133.212,27.451 132.915,26.977 132.705,26.425C132.495,25.873 132.39,25.261 132.39,24.589C132.39,23.977 132.492,23.404 132.696,22.87C132.9,22.336 133.188,21.874 133.56,21.484C133.932,21.094 134.373,20.785 134.883,20.557C135.393,20.329 135.954,20.215 136.566,20.215C137.286,20.215 137.904,20.353 138.42,20.629C138.936,20.905 139.359,21.271 139.689,21.727C140.019,22.183 140.262,22.705 140.418,23.293C140.574,23.881 140.652,24.493 140.652,25.129L134.046,25.129C134.058,25.501 134.139,25.843 134.289,26.155C134.439,26.467 134.64,26.737 134.892,26.965C135.144,27.193 135.432,27.373 135.756,27.505C136.08,27.637 136.422,27.703 136.782,27.703C137.49,27.703 138.072,27.583 138.528,27.343C138.984,27.103 139.314,26.869 139.518,26.641L140.436,27.613ZM138.978,23.923C138.93,23.275 138.702,22.723 138.294,22.267C137.886,21.811 137.31,21.583 136.566,21.583C136.182,21.583 135.837,21.649 135.531,21.781C135.225,21.913 134.964,22.087 134.748,22.303C134.532,22.519 134.364,22.768 134.244,23.05C134.124,23.332 134.058,23.623 134.046,23.923L138.978,23.923Z" style="fill-rule:nonzero;"/>
        <path d="M147.216,24.877C147.168,24.865 147.075,24.85 146.937,24.832C146.799,24.814 146.64,24.799 146.46,24.787C146.28,24.775 146.088,24.763 145.884,24.751C145.68,24.739 145.482,24.733 145.29,24.733C144.834,24.733 144.465,24.787 144.183,24.895C143.901,25.003 143.679,25.138 143.517,25.3C143.355,25.462 143.244,25.642 143.184,25.84C143.124,26.038 143.094,26.227 143.094,26.407C143.094,26.863 143.25,27.208 143.562,27.442C143.874,27.676 144.306,27.793 144.858,27.793C145.17,27.793 145.467,27.739 145.749,27.631C146.031,27.523 146.28,27.379 146.496,27.199C146.712,27.019 146.886,26.809 147.018,26.569C147.15,26.329 147.216,26.083 147.216,25.831L147.216,24.877ZM147.234,27.829C146.922,28.249 146.511,28.561 146.001,28.765C145.491,28.969 144.966,29.071 144.426,29.071C144.078,29.071 143.733,29.026 143.391,28.936C143.049,28.846 142.737,28.696 142.455,28.486C142.173,28.276 141.945,28.006 141.771,27.676C141.597,27.346 141.51,26.941 141.51,26.461C141.51,25.561 141.825,24.841 142.455,24.301C143.085,23.761 143.994,23.491 145.182,23.491C145.374,23.491 145.578,23.497 145.794,23.509C146.01,23.521 146.214,23.533 146.406,23.545C146.598,23.557 146.766,23.569 146.91,23.581C147.054,23.593 147.156,23.605 147.216,23.617L147.216,23.311C147.216,22.687 147.027,22.24 146.649,21.97C146.271,21.7 145.758,21.565 145.11,21.565C144.474,21.565 143.97,21.652 143.598,21.826C143.226,22 142.914,22.177 142.662,22.357L141.906,21.259C142.05,21.139 142.224,21.019 142.428,20.899C142.632,20.779 142.872,20.668 143.148,20.566C143.424,20.464 143.736,20.38 144.084,20.314C144.432,20.248 144.834,20.215 145.29,20.215C146.37,20.215 147.219,20.476 147.837,20.998C148.455,21.52 148.764,22.261 148.764,23.221L148.764,28.09C148.764,28.384 148.77,28.633 148.782,28.837L147.27,28.837L147.234,27.829Z" style="fill-rule:nonzero;"/>
        <path d="M150.522,28.837L150.522,21.322C150.522,21.052 150.516,20.767 150.504,20.467L152.052,20.467L152.106,21.727C152.214,21.583 152.346,21.424 152.502,21.25C152.658,21.076 152.85,20.917 153.078,20.773C153.306,20.629 153.573,20.509 153.879,20.413C154.185,20.317 154.53,20.269 154.914,20.269C156.006,20.269 156.816,20.587 157.344,21.223C157.872,21.859 158.136,22.723 158.136,23.815L158.136,28.837L156.516,28.837L156.516,23.941C156.516,23.161 156.348,22.588 156.012,22.222C155.676,21.856 155.202,21.673 154.59,21.673C154.122,21.673 153.732,21.769 153.42,21.961C153.108,22.153 152.859,22.402 152.673,22.708C152.487,23.014 152.352,23.362 152.268,23.752C152.184,24.142 152.142,24.541 152.142,24.949L152.142,28.837L150.522,28.837Z" style="fill-rule:nonzero;"/>
        <g>
            <path d="M77.565,98.243C77.658,98.35 77.763,98.458 77.88,98.568C77.997,98.678 78.128,98.776 78.275,98.863C78.422,98.95 78.585,99.02 78.765,99.073C78.945,99.126 79.142,99.153 79.355,99.153C79.795,99.153 80.138,99.053 80.385,98.853C80.632,98.653 80.755,98.383 80.755,98.043C80.755,97.676 80.615,97.401 80.335,97.218C80.055,97.035 79.652,96.886 79.125,96.773C78.838,96.713 78.578,96.63 78.345,96.523C78.112,96.416 77.91,96.283 77.74,96.123C77.57,95.963 77.438,95.778 77.345,95.568C77.252,95.358 77.205,95.12 77.205,94.853C77.205,94.606 77.252,94.373 77.345,94.153C77.438,93.933 77.578,93.74 77.765,93.573C77.952,93.406 78.185,93.273 78.465,93.173C78.745,93.073 79.068,93.023 79.435,93.023C79.762,93.023 80.043,93.058 80.28,93.128C80.517,93.198 80.718,93.283 80.885,93.383C81.052,93.483 81.185,93.586 81.285,93.693C81.385,93.8 81.462,93.886 81.515,93.953L80.875,94.543C80.835,94.496 80.775,94.435 80.695,94.358C80.615,94.281 80.513,94.206 80.39,94.133C80.267,94.06 80.123,93.998 79.96,93.948C79.797,93.898 79.608,93.873 79.395,93.873C79.182,93.873 78.998,93.901 78.845,93.958C78.692,94.015 78.565,94.088 78.465,94.178C78.365,94.268 78.292,94.37 78.245,94.483C78.198,94.596 78.175,94.71 78.175,94.823C78.175,94.99 78.21,95.131 78.28,95.248C78.35,95.365 78.452,95.468 78.585,95.558C78.718,95.648 78.883,95.725 79.08,95.788C79.277,95.851 79.502,95.913 79.755,95.973C80.002,96.033 80.243,96.111 80.48,96.208C80.717,96.305 80.928,96.435 81.115,96.598C81.302,96.761 81.45,96.961 81.56,97.198C81.67,97.435 81.725,97.723 81.725,98.063C81.725,98.35 81.665,98.613 81.545,98.853C81.425,99.093 81.26,99.301 81.05,99.478C80.84,99.655 80.592,99.791 80.305,99.888C80.018,99.985 79.708,100.033 79.375,100.033C79.062,100.033 78.777,99.996 78.52,99.923C78.263,99.85 78.03,99.756 77.82,99.643C77.61,99.53 77.427,99.405 77.27,99.268C77.113,99.131 76.985,98.996 76.885,98.863L77.565,98.243Z" style="fill-rule:nonzero;"/>
            <path d="M83.005,95.963L82.165,95.963L82.165,95.213L83.005,95.213L83.005,93.693L83.905,93.693L83.905,95.213L85.265,95.213L85.265,95.963L83.905,95.963L83.905,98.253C83.905,98.626 83.963,98.883 84.08,99.023C84.197,99.163 84.362,99.233 84.575,99.233C84.748,99.233 84.892,99.206 85.005,99.153C85.118,99.1 85.232,99.02 85.345,98.913L85.755,99.463C85.562,99.65 85.363,99.785 85.16,99.868C84.957,99.951 84.715,99.993 84.435,99.993C83.942,99.993 83.58,99.86 83.35,99.593C83.12,99.326 83.005,98.91 83.005,98.343L83.005,95.963Z" style="fill-rule:nonzero;"/>
            <path d="M90.685,99.183C90.632,99.243 90.552,99.32 90.445,99.413C90.338,99.506 90.2,99.596 90.03,99.683C89.86,99.77 89.66,99.845 89.43,99.908C89.2,99.971 88.938,100.003 88.645,100.003C88.285,100.003 87.955,99.943 87.655,99.823C87.355,99.703 87.098,99.533 86.885,99.313C86.672,99.093 86.507,98.83 86.39,98.523C86.273,98.216 86.215,97.876 86.215,97.503C86.215,97.163 86.272,96.845 86.385,96.548C86.498,96.251 86.658,95.995 86.865,95.778C87.072,95.561 87.317,95.39 87.6,95.263C87.883,95.136 88.195,95.073 88.535,95.073C88.935,95.073 89.278,95.15 89.565,95.303C89.852,95.456 90.087,95.66 90.27,95.913C90.453,96.166 90.588,96.456 90.675,96.783C90.762,97.11 90.805,97.45 90.805,97.803L87.135,97.803C87.142,98.01 87.187,98.2 87.27,98.373C87.353,98.546 87.465,98.696 87.605,98.823C87.745,98.95 87.905,99.05 88.085,99.123C88.265,99.196 88.455,99.233 88.655,99.233C89.048,99.233 89.372,99.166 89.625,99.033C89.878,98.9 90.062,98.77 90.175,98.643L90.685,99.183ZM89.875,97.133C89.848,96.773 89.722,96.466 89.495,96.213C89.268,95.96 88.948,95.833 88.535,95.833C88.322,95.833 88.13,95.87 87.96,95.943C87.79,96.016 87.645,96.113 87.525,96.233C87.405,96.353 87.312,96.491 87.245,96.648C87.178,96.805 87.142,96.966 87.135,97.133L89.875,97.133Z" style="fill-rule:nonzero;"/>
            <path d="M91.805,101.863L91.805,95.688C91.805,95.538 91.802,95.38 91.795,95.213L92.655,95.213L92.685,95.873C92.732,95.813 92.798,95.74 92.885,95.653C92.972,95.566 93.08,95.483 93.21,95.403C93.34,95.323 93.492,95.255 93.665,95.198C93.838,95.141 94.038,95.113 94.265,95.113C94.625,95.113 94.937,95.18 95.2,95.313C95.463,95.446 95.682,95.626 95.855,95.853C96.028,96.08 96.157,96.34 96.24,96.633C96.323,96.926 96.365,97.236 96.365,97.563C96.365,97.983 96.293,98.346 96.15,98.653C96.007,98.96 95.82,99.213 95.59,99.413C95.36,99.613 95.103,99.761 94.82,99.858C94.537,99.955 94.258,100.003 93.985,100.003C93.672,100.003 93.42,99.971 93.23,99.908C93.04,99.845 92.862,99.776 92.695,99.703L92.695,101.863L91.805,101.863ZM92.695,98.853C92.802,98.94 92.955,99.023 93.155,99.103C93.355,99.183 93.605,99.223 93.905,99.223C94.132,99.223 94.34,99.181 94.53,99.098C94.72,99.015 94.883,98.898 95.02,98.748C95.157,98.598 95.262,98.423 95.335,98.223C95.408,98.023 95.445,97.803 95.445,97.563C95.445,97.336 95.42,97.123 95.37,96.923C95.32,96.723 95.24,96.546 95.13,96.393C95.02,96.24 94.878,96.118 94.705,96.028C94.532,95.938 94.318,95.893 94.065,95.893C93.745,95.893 93.472,95.981 93.245,96.158C93.018,96.335 92.858,96.593 92.765,96.933C92.732,97.04 92.712,97.155 92.705,97.278C92.698,97.401 92.695,97.53 92.695,97.663L92.695,98.853Z" style="fill-rule:nonzero;"/>
            <path d="M97.685,98.693C97.852,98.86 98.052,98.993 98.285,99.093C98.518,99.193 98.788,99.243 99.095,99.243C99.395,99.243 99.645,99.195 99.845,99.098C100.045,99.001 100.145,98.85 100.145,98.643C100.145,98.536 100.123,98.445 100.08,98.368C100.037,98.291 99.963,98.223 99.86,98.163C99.757,98.103 99.62,98.048 99.45,97.998C99.28,97.948 99.068,97.893 98.815,97.833C98.635,97.793 98.457,97.74 98.28,97.673C98.103,97.606 97.945,97.518 97.805,97.408C97.665,97.298 97.552,97.165 97.465,97.008C97.378,96.851 97.335,96.663 97.335,96.443C97.335,96.216 97.387,96.018 97.49,95.848C97.593,95.678 97.732,95.535 97.905,95.418C98.078,95.301 98.273,95.213 98.49,95.153C98.707,95.093 98.932,95.063 99.165,95.063C99.558,95.063 99.897,95.115 100.18,95.218C100.463,95.321 100.712,95.466 100.925,95.653L100.435,96.273C100.295,96.146 100.12,96.04 99.91,95.953C99.7,95.866 99.455,95.823 99.175,95.823C98.888,95.823 98.658,95.87 98.485,95.963C98.312,96.056 98.225,96.21 98.225,96.423C98.225,96.623 98.34,96.771 98.57,96.868C98.8,96.965 99.102,97.056 99.475,97.143C99.695,97.196 99.9,97.258 100.09,97.328C100.28,97.398 100.447,97.488 100.59,97.598C100.733,97.708 100.847,97.843 100.93,98.003C101.013,98.163 101.055,98.356 101.055,98.583C101.055,98.816 101.002,99.021 100.895,99.198C100.788,99.375 100.645,99.523 100.465,99.643C100.285,99.763 100.078,99.853 99.845,99.913C99.612,99.973 99.368,100.003 99.115,100.003C98.235,100.003 97.575,99.766 97.135,99.293L97.685,98.693Z" style="fill-rule:nonzero;"/>
            <rect x="76.242" y="84.078" width="2.216" height="0.943" style="fill-rule:nonzero;"/>
            <path d="M103.05,85.405L103.05,84.302L101.634,84.302L101.634,82.886L100.531,82.886L100.531,84.302L99.115,84.302L99.115,85.405L100.531,85.405L100.531,86.821L101.634,86.821L101.634,85.405L103.05,85.405Z" style="fill-rule:nonzero;"/>
            <path d="M30,80L32,80L32,79L30,79" style="fill-rule:nonzero;"/>
            <path d="M34,80L38,80L38,79L34,79L34,80ZM40,80L44,80L44,79L40,79L40,80ZM46,80L50,80L50,79L46,79L46,80ZM52,80L56,80L56,79L52,79L52,80ZM58,80L62,80L62,79L58,79L58,80ZM64,80L68,80L68,79L64,79L64,80ZM70,80L74,80L74,79L70,79L70,80ZM76,80L80,80L80,79L76,79L76,80ZM82,80L86,80L86,79L82,79L82,80ZM88,80L92,80L92,79L88,79L88,80ZM94,80L98,80L98,79L94,79L94,80ZM100,80L104,80L104,79L100,79L100,80ZM106,80L110,80L110,79L106,79L106,80ZM112,80L116,80L116,79L112,79L112,80ZM118,80L122,80L122,79L118,79L118,80ZM124,80L128,80L128,79L124,79L124,80ZM130,80L134,80L134,79L130,79L130,80ZM136,80L140,80L140,79L136,79L136,80ZM142,80L146,80L146,79L142,79L142,80Z" style="fill-rule:nonzero;"/>
            <path d="M148,80L150,80L150,79L148,79" style="fill-rule:nonzero;"/>
        </g>
        <g>
            <path d="M84.015,143.439L88.205,143.439L88.205,144.299L84.975,144.299L84.975,146.339L87.435,146.339L87.435,147.189L84.975,147.189L84.975,150.109L84.015,150.109L84.015,143.439Z" style="fill-rule:nonzero;"/>
            <path d="M88.845,143.619L89.855,143.619L89.855,144.629L88.845,144.629L88.845,143.619ZM88.905,145.459L89.805,145.459L89.805,150.109L88.905,150.109L88.905,145.459Z" style="fill-rule:nonzero;"/>
            <rect x="91.085" y="143.439" width="0.9" height="6.67" style="fill-rule:nonzero;"/>
            <rect x="93.225" y="143.439" width="0.9" height="6.67" style="fill-rule:nonzero;"/>
            <rect x="76.242" y="133.348" width="2.216" height="0.943" style="fill-rule:nonzero;"/>
            <path d="M103.05,134.675L103.05,133.572L101.634,133.572L101.634,132.156L100.531,132.156L100.531,133.572L99.115,133.572L99.115,134.675L100.531,134.675L100.531,136.091L101.634,136.091L101.634,134.675L103.05,134.675Z" style="fill-rule:nonzero;"/>
            <path d="M30,129.19L32,129.19L32,128.19L30,128.19" style="fill-rule:nonzero;"/>
            <path d="M34,129.19L38,129.19L38,128.19L34,128.19L34,129.19ZM40,129.19L44,129.19L44,128.19L40,128.19L40,129.19ZM46,129.19L50,129.19L50,128.19L46,128.19L46,129.19ZM52,129.19L56,129.19L56,128.19L52,128.19L52,129.19ZM58,129.19L62,129.19L62,128.19L58,128.19L58,129.19ZM64,129.19L68,129.19L68,128.19L64,128.19L64,129.19ZM70,129.19L74,129.19L74,128.19L70,128.19L70,129.19ZM76,129.19L80,129.19L80,128.19L76,128.19L76,129.19ZM82,129.19L86,129.19L86,128.19L82,128.19L82,129.19ZM88,129.19L92,129.19L92,128.19L88,128.19L88,129.19ZM94,129.19L98,129.19L98,128.19L94,128.19L94,129.19ZM100,129.19L104,129.19L104,128.19L100,128.19L100,129.19ZM106,129.19L110,129.19L110,128.19L106,128.19L106,129.19ZM112,129.19L116,129.19L116,128.19L112,128.19L112,129.19ZM118,129.19L122,129.19L122,128.19L118,128.19L118,129.19ZM124,129.19L128,129.19L128,128.19L124,128.19L124,129.19ZM130,129.19L134,129.19L134,128.19L130,128.19L130,129.19ZM136,129.19L140,129.19L140,128.19L136,128.19L136,129.19ZM142,129.19L146,129.19L146,128.19L142,128.19L142,129.19Z" style="fill-rule:nonzero;"/>
            <path d="M148,129.19L150,129.19L150,128.19L148,128.19" style="fill-rule:nonzero;"/>
        </g>
        <g>
            <path d="M71.14,193.048L73.27,193.048C73.697,193.048 74.057,193.106 74.35,193.223C74.643,193.339 74.882,193.489 75.065,193.673C75.248,193.856 75.382,194.064 75.465,194.298C75.548,194.531 75.59,194.768 75.59,195.008C75.59,195.434 75.49,195.811 75.29,196.138C75.09,196.464 74.78,196.708 74.36,196.868L75.92,199.718L74.84,199.718L73.41,196.988L72.07,196.988L72.07,199.718L71.14,199.718L71.14,193.048ZM73.35,196.178C73.77,196.178 74.085,196.074 74.295,195.868C74.505,195.661 74.61,195.384 74.61,195.038C74.61,194.671 74.497,194.386 74.27,194.183C74.043,193.979 73.73,193.878 73.33,193.878L72.07,193.878L72.07,196.178L73.35,196.178Z" style="fill-rule:nonzero;"/>
            <path d="M78.76,199.858C78.4,199.858 78.07,199.793 77.77,199.663C77.47,199.533 77.212,199.354 76.995,199.128C76.778,198.901 76.608,198.639 76.485,198.343C76.362,198.046 76.3,197.728 76.3,197.388C76.3,197.048 76.362,196.729 76.485,196.433C76.608,196.136 76.778,195.874 76.995,195.648C77.212,195.421 77.47,195.243 77.77,195.113C78.07,194.983 78.4,194.918 78.76,194.918C79.113,194.918 79.44,194.983 79.74,195.113C80.04,195.243 80.3,195.421 80.52,195.648C80.74,195.874 80.912,196.136 81.035,196.433C81.158,196.729 81.22,197.048 81.22,197.388C81.22,197.728 81.158,198.046 81.035,198.343C80.912,198.639 80.74,198.901 80.52,199.128C80.3,199.354 80.04,199.533 79.74,199.663C79.44,199.793 79.113,199.858 78.76,199.858ZM78.76,199.078C79,199.078 79.217,199.029 79.41,198.933C79.603,198.836 79.767,198.709 79.9,198.553C80.033,198.396 80.135,198.216 80.205,198.013C80.275,197.809 80.31,197.601 80.31,197.388C80.31,197.181 80.275,196.976 80.205,196.773C80.135,196.569 80.032,196.388 79.895,196.228C79.758,196.068 79.595,195.939 79.405,195.843C79.215,195.746 79,195.698 78.76,195.698C78.52,195.698 78.303,195.746 78.11,195.843C77.917,195.939 77.753,196.066 77.62,196.223C77.487,196.379 77.385,196.559 77.315,196.763C77.245,196.966 77.21,197.174 77.21,197.388C77.21,197.601 77.245,197.808 77.315,198.008C77.385,198.208 77.488,198.388 77.625,198.548C77.762,198.708 77.925,198.836 78.115,198.933C78.305,199.029 78.52,199.078 78.76,199.078Z" style="fill-rule:nonzero;"/>
            <path d="M82.59,195.818L81.75,195.818L81.75,195.068L82.59,195.068L82.59,193.548L83.49,193.548L83.49,195.068L84.85,195.068L84.85,195.818L83.49,195.818L83.49,198.108C83.49,198.481 83.548,198.738 83.665,198.878C83.782,199.018 83.947,199.088 84.16,199.088C84.333,199.088 84.477,199.061 84.59,199.008C84.703,198.954 84.817,198.874 84.93,198.768L85.34,199.318C85.147,199.504 84.948,199.639 84.745,199.723C84.542,199.806 84.3,199.848 84.02,199.848C83.527,199.848 83.165,199.714 82.935,199.448C82.705,199.181 82.59,198.764 82.59,198.198L82.59,195.818Z" style="fill-rule:nonzero;"/>
            <path d="M88.93,197.518C88.903,197.511 88.852,197.503 88.775,197.493C88.698,197.483 88.61,197.474 88.51,197.468C88.41,197.461 88.303,197.454 88.19,197.448C88.077,197.441 87.967,197.438 87.86,197.438C87.607,197.438 87.402,197.468 87.245,197.528C87.088,197.588 86.965,197.663 86.875,197.753C86.785,197.843 86.723,197.943 86.69,198.053C86.657,198.163 86.64,198.268 86.64,198.368C86.64,198.621 86.727,198.813 86.9,198.943C87.073,199.073 87.313,199.138 87.62,199.138C87.793,199.138 87.958,199.108 88.115,199.048C88.272,198.988 88.41,198.908 88.53,198.808C88.65,198.708 88.747,198.591 88.82,198.458C88.893,198.324 88.93,198.188 88.93,198.048L88.93,197.518ZM88.94,199.158C88.767,199.391 88.538,199.564 88.255,199.678C87.972,199.791 87.68,199.848 87.38,199.848C87.187,199.848 86.995,199.823 86.805,199.773C86.615,199.723 86.442,199.639 86.285,199.523C86.128,199.406 86.002,199.256 85.905,199.073C85.808,198.889 85.76,198.664 85.76,198.398C85.76,197.898 85.935,197.498 86.285,197.198C86.635,196.898 87.14,196.748 87.8,196.748C87.907,196.748 88.02,196.751 88.14,196.758C88.26,196.764 88.373,196.771 88.48,196.778C88.587,196.784 88.68,196.791 88.76,196.798C88.84,196.804 88.897,196.811 88.93,196.818L88.93,196.648C88.93,196.301 88.825,196.053 88.615,195.903C88.405,195.753 88.12,195.678 87.76,195.678C87.407,195.678 87.127,195.726 86.92,195.823C86.713,195.919 86.54,196.018 86.4,196.118L85.98,195.508C86.06,195.441 86.157,195.374 86.27,195.308C86.383,195.241 86.517,195.179 86.67,195.123C86.823,195.066 86.997,195.019 87.19,194.983C87.383,194.946 87.607,194.928 87.86,194.928C88.46,194.928 88.932,195.073 89.275,195.363C89.618,195.653 89.79,196.064 89.79,196.598L89.79,199.303C89.79,199.466 89.793,199.604 89.8,199.718L88.96,199.718L88.94,199.158Z" style="fill-rule:nonzero;"/>
            <path d="M91.42,195.818L90.58,195.818L90.58,195.068L91.42,195.068L91.42,193.548L92.32,193.548L92.32,195.068L93.68,195.068L93.68,195.818L92.32,195.818L92.32,198.108C92.32,198.481 92.378,198.738 92.495,198.878C92.612,199.018 92.777,199.088 92.99,199.088C93.163,199.088 93.307,199.061 93.42,199.008C93.533,198.954 93.647,198.874 93.76,198.768L94.17,199.318C93.977,199.504 93.778,199.639 93.575,199.723C93.372,199.806 93.13,199.848 92.85,199.848C92.357,199.848 91.995,199.714 91.765,199.448C91.535,199.181 91.42,198.764 91.42,198.198L91.42,195.818Z" style="fill-rule:nonzero;"/>
            <path d="M94.84,193.228L95.85,193.228L95.85,194.238L94.84,194.238L94.84,193.228ZM94.9,195.068L95.8,195.068L95.8,199.718L94.9,199.718L94.9,195.068Z" style="fill-rule:nonzero;"/>
            <path d="M99.32,199.858C98.96,199.858 98.63,199.793 98.33,199.663C98.03,199.533 97.772,199.354 97.555,199.128C97.338,198.901 97.168,198.639 97.045,198.343C96.922,198.046 96.86,197.728 96.86,197.388C96.86,197.048 96.922,196.729 97.045,196.433C97.168,196.136 97.338,195.874 97.555,195.648C97.772,195.421 98.03,195.243 98.33,195.113C98.63,194.983 98.96,194.918 99.32,194.918C99.673,194.918 100,194.983 100.3,195.113C100.6,195.243 100.86,195.421 101.08,195.648C101.3,195.874 101.472,196.136 101.595,196.433C101.718,196.729 101.78,197.048 101.78,197.388C101.78,197.728 101.718,198.046 101.595,198.343C101.472,198.639 101.3,198.901 101.08,199.128C100.86,199.354 100.6,199.533 100.3,199.663C100,199.793 99.673,199.858 99.32,199.858ZM99.32,199.078C99.56,199.078 99.777,199.029 99.97,198.933C100.163,198.836 100.327,198.709 100.46,198.553C100.593,198.396 100.695,198.216 100.765,198.013C100.835,197.809 100.87,197.601 100.87,197.388C100.87,197.181 100.835,196.976 100.765,196.773C100.695,196.569 100.592,196.388 100.455,196.228C100.318,196.068 100.155,195.939 99.965,195.843C99.775,195.746 99.56,195.698 99.32,195.698C99.08,195.698 98.863,195.746 98.67,195.843C98.477,195.939 98.313,196.066 98.18,196.223C98.047,196.379 97.945,196.559 97.875,196.763C97.805,196.966 97.77,197.174 97.77,197.388C97.77,197.601 97.805,197.808 97.875,198.008C97.945,198.208 98.048,198.388 98.185,198.548C98.322,198.708 98.485,198.836 98.675,198.933C98.865,199.029 99.08,199.078 99.32,199.078Z" style="fill-rule:nonzero;"/>
            <path d="M102.8,199.718L102.8,195.543C102.8,195.393 102.797,195.234 102.79,195.068L103.65,195.068L103.68,195.768C103.74,195.688 103.813,195.599 103.9,195.503C103.987,195.406 104.093,195.318 104.22,195.238C104.347,195.158 104.495,195.091 104.665,195.038C104.835,194.984 105.027,194.958 105.24,194.958C105.847,194.958 106.297,195.134 106.59,195.488C106.883,195.841 107.03,196.321 107.03,196.928L107.03,199.718L106.13,199.718L106.13,196.998C106.13,196.564 106.037,196.246 105.85,196.043C105.663,195.839 105.4,195.738 105.06,195.738C104.8,195.738 104.583,195.791 104.41,195.898C104.237,196.004 104.098,196.143 103.995,196.313C103.892,196.483 103.817,196.676 103.77,196.893C103.723,197.109 103.7,197.331 103.7,197.558L103.7,199.718L102.8,199.718Z" style="fill-rule:nonzero;"/>
            <rect x="76.242" y="183.551" width="2.216" height="0.943" style="fill-rule:nonzero;"/>
            <path d="M103.05,184.878L103.05,183.775L101.634,183.775L101.634,182.359L100.531,182.359L100.531,183.775L99.115,183.775L99.115,184.878L100.531,184.878L100.531,186.294L101.634,186.294L101.634,184.878L103.05,184.878Z" style="fill-rule:nonzero;"/>
            <path d="M30,179.017L32,179.017L32,178.017L30,178.017" style="fill-rule:nonzero;"/>
            <path d="M34,179.017L38,179.017L38,178.017L34,178.017L34,179.017ZM40,179.017L44,179.017L44,178.017L40,178.017L40,179.017ZM46,179.017L50,179.017L50,178.017L46,178.017L46,179.017ZM52,179.017L56,179.017L56,178.017L52,178.017L52,179.017ZM58,179.017L62,179.017L62,178.017L58,178.017L58,179.017ZM64,179.017L68,179.017L68,178.017L64,178.017L64,179.017ZM70,179.017L74,179.017L74,178.017L70,178.017L70,179.017ZM76,179.017L80,179.017L80,178.017L76,178.017L76,179.017ZM82,179.017L86,179.017L86,178.017L82,178.017L82,179.017ZM88,179.017L92,179.017L92,178.017L88,178.017L88,179.017ZM94,179.017L98,179.017L98,178.017L94,178.017L94,179.017ZM100,179.017L104,179.017L104,178.017L100,178.017L100,179.017ZM106,179.017L110,179.017L110,178.017L106,178.017L106,179.017ZM112,179.017L116,179.017L116,178.017L112,178.017L112,179.017ZM118,179.017L122,179.017L122,178.017L118,178.017L118,179.017ZM124,179.017L128,179.017L128,178.017L124,178.017L124,179.017ZM130,179.017L134,179.017L134,178.017L130,178.017L130,179.017ZM136,179.017L140,179.017L140,178.017L136,178.017L136,179.017ZM142,179.017L146,179.017L146,178.017L142,178.017L142,179.017Z" style="fill-rule:nonzero;"/>
            <path d="M148,179.017L150,179.017L150,178.017L148,178.017" style="fill-rule:nonzero;"/>
        </g>
        <g>
            <path d="M65.42,242.765L67.53,242.765C67.983,242.765 68.358,242.829 68.655,242.955C68.952,243.082 69.188,243.242 69.365,243.435C69.542,243.629 69.665,243.845 69.735,244.085C69.805,244.325 69.84,244.559 69.84,244.785C69.84,245.119 69.783,245.412 69.67,245.665C69.557,245.919 69.4,246.13 69.2,246.3C69,246.47 68.762,246.599 68.485,246.685C68.208,246.772 67.907,246.815 67.58,246.815L66.37,246.815L66.37,249.435L65.42,249.435L65.42,242.765ZM67.57,245.995C67.983,245.995 68.302,245.89 68.525,245.68C68.748,245.47 68.86,245.179 68.86,244.805C68.86,244.425 68.745,244.127 68.515,243.91C68.285,243.694 67.97,243.585 67.57,243.585L66.37,243.585L66.37,245.995L67.57,245.995Z" style="fill-rule:nonzero;"/>
            <path d="M70.71,244.785L71.61,244.785L71.61,247.515C71.61,247.955 71.7,248.274 71.88,248.47C72.06,248.667 72.32,248.765 72.66,248.765C72.92,248.765 73.135,248.712 73.305,248.605C73.475,248.499 73.613,248.36 73.72,248.19C73.827,248.02 73.902,247.827 73.945,247.61C73.988,247.394 74.01,247.172 74.01,246.945L74.01,244.785L74.91,244.785L74.91,248.96C74.91,249.11 74.913,249.269 74.92,249.435L74.06,249.435L74.03,248.745C73.97,248.825 73.897,248.912 73.81,249.005C73.723,249.099 73.617,249.184 73.49,249.26C73.363,249.337 73.217,249.402 73.05,249.455C72.883,249.509 72.693,249.535 72.48,249.535C71.873,249.535 71.427,249.36 71.14,249.01C70.853,248.66 70.71,248.182 70.71,247.575L70.71,244.785Z" style="fill-rule:nonzero;"/>
            <rect x="76.16" y="242.765" width="0.9" height="6.67" style="fill-rule:nonzero;"/>
            <path d="M78.6,248.265C78.767,248.432 78.967,248.565 79.2,248.665C79.433,248.765 79.703,248.815 80.01,248.815C80.31,248.815 80.56,248.767 80.76,248.67C80.96,248.574 81.06,248.422 81.06,248.215C81.06,248.109 81.038,248.017 80.995,247.94C80.952,247.864 80.878,247.795 80.775,247.735C80.672,247.675 80.535,247.62 80.365,247.57C80.195,247.52 79.983,247.465 79.73,247.405C79.55,247.365 79.372,247.312 79.195,247.245C79.018,247.179 78.86,247.09 78.72,246.98C78.58,246.87 78.467,246.737 78.38,246.58C78.293,246.424 78.25,246.235 78.25,246.015C78.25,245.789 78.302,245.59 78.405,245.42C78.508,245.25 78.647,245.107 78.82,244.99C78.993,244.874 79.188,244.785 79.405,244.725C79.622,244.665 79.847,244.635 80.08,244.635C80.473,244.635 80.812,244.687 81.095,244.79C81.378,244.894 81.627,245.039 81.84,245.225L81.35,245.845C81.21,245.719 81.035,245.612 80.825,245.525C80.615,245.439 80.37,245.395 80.09,245.395C79.803,245.395 79.573,245.442 79.4,245.535C79.227,245.629 79.14,245.782 79.14,245.995C79.14,246.195 79.255,246.344 79.485,246.44C79.715,246.537 80.017,246.629 80.39,246.715C80.61,246.769 80.815,246.83 81.005,246.9C81.195,246.97 81.362,247.06 81.505,247.17C81.648,247.28 81.762,247.415 81.845,247.575C81.928,247.735 81.97,247.929 81.97,248.155C81.97,248.389 81.917,248.594 81.81,248.77C81.703,248.947 81.56,249.095 81.38,249.215C81.2,249.335 80.993,249.425 80.76,249.485C80.527,249.545 80.283,249.575 80.03,249.575C79.15,249.575 78.49,249.339 78.05,248.865L78.6,248.265Z" style="fill-rule:nonzero;"/>
            <path d="M87.26,248.755C87.207,248.815 87.127,248.892 87.02,248.985C86.913,249.079 86.775,249.169 86.605,249.255C86.435,249.342 86.235,249.417 86.005,249.48C85.775,249.544 85.513,249.575 85.22,249.575C84.86,249.575 84.53,249.515 84.23,249.395C83.93,249.275 83.673,249.105 83.46,248.885C83.247,248.665 83.082,248.402 82.965,248.095C82.848,247.789 82.79,247.449 82.79,247.075C82.79,246.735 82.847,246.417 82.96,246.12C83.073,245.824 83.233,245.567 83.44,245.35C83.647,245.134 83.892,244.962 84.175,244.835C84.458,244.709 84.77,244.645 85.11,244.645C85.51,244.645 85.853,244.722 86.14,244.875C86.427,245.029 86.662,245.232 86.845,245.485C87.028,245.739 87.163,246.029 87.25,246.355C87.337,246.682 87.38,247.022 87.38,247.375L83.71,247.375C83.717,247.582 83.762,247.772 83.845,247.945C83.928,248.119 84.04,248.269 84.18,248.395C84.32,248.522 84.48,248.622 84.66,248.695C84.84,248.769 85.03,248.805 85.23,248.805C85.623,248.805 85.947,248.739 86.2,248.605C86.453,248.472 86.637,248.342 86.75,248.215L87.26,248.755ZM86.45,246.705C86.423,246.345 86.297,246.039 86.07,245.785C85.843,245.532 85.523,245.405 85.11,245.405C84.897,245.405 84.705,245.442 84.535,245.515C84.365,245.589 84.22,245.685 84.1,245.805C83.98,245.925 83.887,246.064 83.82,246.22C83.753,246.377 83.717,246.539 83.71,246.705L86.45,246.705Z" style="fill-rule:nonzero;"/>
            <path d="M89.74,242.765L90.8,242.765L92.08,248.145L93.53,242.965L94.46,242.965L95.88,248.135L97.16,242.765L98.16,242.765L96.37,249.435L95.35,249.435L93.96,244.505L92.53,249.435L91.52,249.435L89.74,242.765Z" style="fill-rule:nonzero;"/>
            <path d="M98.95,242.945L99.96,242.945L99.96,243.955L98.95,243.955L98.95,242.945ZM99.01,244.785L99.91,244.785L99.91,249.435L99.01,249.435L99.01,244.785Z" style="fill-rule:nonzero;"/>
            <path d="M104.54,245.815C104.473,245.762 104.35,245.69 104.17,245.6C103.99,245.51 103.733,245.465 103.4,245.465C103.18,245.465 102.978,245.505 102.795,245.585C102.612,245.665 102.452,245.779 102.315,245.925C102.178,246.072 102.072,246.252 101.995,246.465C101.918,246.679 101.88,246.919 101.88,247.185C101.88,247.405 101.907,247.614 101.96,247.81C102.013,248.007 102.095,248.179 102.205,248.325C102.315,248.472 102.455,248.587 102.625,248.67C102.795,248.754 102.997,248.795 103.23,248.795C103.463,248.795 103.663,248.752 103.83,248.665C103.997,248.579 104.132,248.47 104.235,248.34C104.338,248.21 104.415,248.067 104.465,247.91C104.515,247.754 104.54,247.609 104.54,247.475L104.54,245.815ZM104.54,248.845C104.507,248.885 104.452,248.947 104.375,249.03C104.298,249.114 104.197,249.195 104.07,249.275C103.943,249.355 103.795,249.425 103.625,249.485C103.455,249.545 103.257,249.575 103.03,249.575C102.737,249.575 102.463,249.519 102.21,249.405C101.957,249.292 101.737,249.132 101.55,248.925C101.363,248.719 101.218,248.467 101.115,248.17C101.012,247.874 100.96,247.542 100.96,247.175C100.96,246.735 101.037,246.357 101.19,246.04C101.343,245.724 101.538,245.464 101.775,245.26C102.012,245.057 102.268,244.909 102.545,244.815C102.822,244.722 103.083,244.675 103.33,244.675C103.663,244.675 103.923,244.715 104.11,244.795C104.297,244.875 104.44,244.935 104.54,244.975L104.54,242.765L105.44,242.765L105.44,248.96C105.44,249.11 105.443,249.269 105.45,249.435L104.57,249.435L104.54,248.845Z" style="fill-rule:nonzero;"/>
            <path d="M107.09,245.535L106.25,245.535L106.25,244.785L107.09,244.785L107.09,243.265L107.99,243.265L107.99,244.785L109.35,244.785L109.35,245.535L107.99,245.535L107.99,247.825C107.99,248.199 108.048,248.455 108.165,248.595C108.282,248.735 108.447,248.805 108.66,248.805C108.833,248.805 108.977,248.779 109.09,248.725C109.203,248.672 109.317,248.592 109.43,248.485L109.84,249.035C109.647,249.222 109.448,249.357 109.245,249.44C109.042,249.524 108.8,249.565 108.52,249.565C108.027,249.565 107.665,249.432 107.435,249.165C107.205,248.899 107.09,248.482 107.09,247.915L107.09,245.535Z" style="fill-rule:nonzero;"/>
            <path d="M110.52,242.765L111.41,242.765L111.41,245.475C111.47,245.395 111.543,245.309 111.63,245.215C111.717,245.122 111.823,245.035 111.95,244.955C112.077,244.875 112.223,244.809 112.39,244.755C112.557,244.702 112.747,244.675 112.96,244.675C113.567,244.675 114.017,244.852 114.31,245.205C114.603,245.559 114.75,246.039 114.75,246.645L114.75,249.435L113.85,249.435L113.85,246.715C113.85,246.282 113.757,245.964 113.57,245.76C113.383,245.557 113.12,245.455 112.78,245.455C112.52,245.455 112.303,245.509 112.13,245.615C111.957,245.722 111.818,245.86 111.715,246.03C111.612,246.2 111.537,246.394 111.49,246.61C111.443,246.827 111.42,247.049 111.42,247.275L111.42,249.435L110.52,249.435L110.52,242.765Z" style="fill-rule:nonzero;"/>
            <rect x="76.242" y="233.269" width="2.216" height="0.943" style="fill-rule:nonzero;"/>
            <path d="M103.05,234.596L103.05,233.493L101.634,233.493L101.634,232.077L100.531,232.077L100.531,233.493L99.115,233.493L99.115,234.596L100.531,234.596L100.531,236.012L101.634,236.012L101.634,234.596L103.05,234.596Z" style="fill-rule:nonzero;"/>
            <path d="M30,228.735L32,228.735L32,227.735L30,227.735" style="fill-rule:nonzero;"/>
            <path d="M34,228.735L38,228.735L38,227.735L34,227.735L34,228.735ZM40,228.735L44,228.735L44,227.735L40,227.735L40,228.735ZM46,228.735L50,228.735L50,227.735L46,227.735L46,228.735ZM52,228.735L56,228.735L56,227.735L52,227.735L52,228.735ZM58,228.735L62,228.735L62,227.735L58,227.735L58,228.735ZM64,228.735L68,228.735L68,227.735L64,227.735L64,228.735ZM70,228.735L74,228.735L74,227.735L70,227.735L70,228.735ZM76,228.735L80,228.735L80,227.735L76,227.735L76,228.735ZM82,228.735L86,228.735L86,227.735L82,227.735L82,228.735ZM88,228.735L92,228.735L92,227.735L88,227.735L88,228.735ZM94,228.735L98,228.735L98,227.735L94,227.735L94,228.735ZM100,228.735L104,228.735L104,227.735L100,227.735L100,228.735ZM106,228.735L110,228.735L110,227.735L106,227.735L106,228.735ZM112,228.735L116,228.735L116,227.735L112,227.735L112,228.735ZM118,228.735L122,228.735L122,227.735L118,227.735L118,228.735ZM124,228.735L128,228.735L128,227.735L124,227.735L124,228.735ZM130,228.735L134,228.735L134,227.735L130,227.735L130,228.735ZM136,228.735L140,228.735L140,227.735L136,227.735L136,228.735ZM142,228.735L146,228.735L146,227.735L142,227.735L142,228.735Z" style="fill-rule:nonzero;"/>
            <path d="M148,228.735L150,228.735L150,227.735L148,227.735" style="fill-rule:nonzero;"/>
        </g>
        <g>
            <path d="M177.06,305.541C177.06,300.524 172.987,296.451 167.97,296.451L61.495,296.451C56.478,296.451 52.405,300.524 52.405,305.541L52.405,332.695C52.405,337.711 56.478,341.784 61.495,341.784L167.97,341.784C172.987,341.784 177.06,337.711 177.06,332.695L177.06,305.541Z"/>
            <path d="M108.405,334.716L111.213,334.716L111.213,337.908C111.061,338.044 110.887,338.176 110.691,338.304C110.495,338.432 110.267,338.546 110.007,338.646C109.747,338.746 109.457,338.826 109.137,338.886C108.817,338.946 108.457,338.976 108.057,338.976C107.433,338.976 106.871,338.87 106.371,338.658C105.871,338.446 105.443,338.154 105.087,337.782C104.731,337.41 104.459,336.97 104.271,336.462C104.083,335.954 103.989,335.4 103.989,334.8C103.989,334.216 104.087,333.668 104.283,333.156C104.479,332.644 104.753,332.198 105.105,331.818C105.457,331.438 105.879,331.138 106.371,330.918C106.863,330.698 107.409,330.588 108.009,330.588C108.433,330.588 108.813,330.638 109.149,330.738C109.485,330.838 109.779,330.966 110.031,331.122C110.283,331.278 110.497,331.448 110.673,331.632C110.849,331.816 110.997,331.992 111.117,332.16L110.301,332.856C110.205,332.72 110.089,332.578 109.953,332.43C109.817,332.282 109.657,332.148 109.473,332.028C109.289,331.908 109.079,331.808 108.843,331.728C108.607,331.648 108.337,331.608 108.033,331.608C107.593,331.608 107.197,331.692 106.845,331.86C106.493,332.028 106.195,332.256 105.951,332.544C105.707,332.832 105.519,333.17 105.387,333.558C105.255,333.946 105.189,334.356 105.189,334.788C105.189,335.252 105.261,335.676 105.405,336.06C105.549,336.444 105.751,336.774 106.011,337.05C106.271,337.326 106.577,337.542 106.929,337.698C107.281,337.854 107.669,337.932 108.093,337.932C108.557,337.932 108.951,337.88 109.275,337.776C109.599,337.672 109.877,337.528 110.109,337.344L110.109,335.712L108.405,335.712L108.405,334.716Z" style="fill:white;fill-rule:nonzero;"/>
            <path d="M116.283,336.144C116.251,336.136 116.189,336.126 116.097,336.114C116.005,336.102 115.899,336.092 115.779,336.084C115.659,336.076 115.531,336.068 115.395,336.06C115.259,336.052 115.127,336.048 114.999,336.048C114.695,336.048 114.449,336.084 114.261,336.156C114.073,336.228 113.925,336.318 113.817,336.426C113.709,336.534 113.635,336.654 113.595,336.786C113.555,336.918 113.535,337.044 113.535,337.164C113.535,337.468 113.639,337.698 113.847,337.854C114.055,338.01 114.343,338.088 114.711,338.088C114.919,338.088 115.117,338.052 115.305,337.98C115.493,337.908 115.659,337.812 115.803,337.692C115.947,337.572 116.063,337.432 116.151,337.272C116.239,337.112 116.283,336.948 116.283,336.78L116.283,336.144ZM116.295,338.112C116.087,338.392 115.813,338.6 115.473,338.736C115.133,338.872 114.783,338.94 114.423,338.94C114.191,338.94 113.961,338.91 113.733,338.85C113.505,338.79 113.297,338.69 113.109,338.55C112.921,338.41 112.769,338.23 112.653,338.01C112.537,337.79 112.479,337.52 112.479,337.2C112.479,336.6 112.689,336.12 113.109,335.76C113.529,335.4 114.135,335.22 114.927,335.22C115.055,335.22 115.191,335.224 115.335,335.232C115.479,335.24 115.615,335.248 115.743,335.256C115.871,335.264 115.983,335.272 116.079,335.28C116.175,335.288 116.243,335.296 116.283,335.304L116.283,335.1C116.283,334.684 116.157,334.386 115.905,334.206C115.653,334.026 115.311,333.936 114.879,333.936C114.455,333.936 114.119,333.994 113.871,334.11C113.623,334.226 113.415,334.344 113.247,334.464L112.743,333.732C112.839,333.652 112.955,333.572 113.091,333.492C113.227,333.412 113.387,333.338 113.571,333.27C113.755,333.202 113.963,333.146 114.195,333.102C114.427,333.058 114.695,333.036 114.999,333.036C115.719,333.036 116.285,333.21 116.697,333.558C117.109,333.906 117.315,334.4 117.315,335.04L117.315,338.286C117.315,338.482 117.319,338.648 117.327,338.784L116.319,338.784L116.295,338.112Z" style="fill:white;fill-rule:nonzero;"/>
            <path d="M119.277,334.104L118.269,334.104L118.269,333.204L119.277,333.204L119.277,331.38L120.357,331.38L120.357,333.204L121.989,333.204L121.989,334.104L120.357,334.104L120.357,336.852C120.357,337.3 120.427,337.608 120.567,337.776C120.707,337.944 120.905,338.028 121.161,338.028C121.369,338.028 121.541,337.996 121.677,337.932C121.813,337.868 121.949,337.772 122.085,337.644L122.577,338.304C122.345,338.528 122.107,338.69 121.863,338.79C121.619,338.89 121.329,338.94 120.993,338.94C120.401,338.94 119.967,338.78 119.691,338.46C119.415,338.14 119.277,337.64 119.277,336.96L119.277,334.104Z" style="fill:white;fill-rule:nonzero;"/>
            <path d="M128.499,337.968C128.435,338.04 128.339,338.132 128.211,338.244C128.083,338.356 127.917,338.464 127.713,338.568C127.509,338.672 127.269,338.762 126.993,338.838C126.717,338.914 126.403,338.952 126.051,338.952C125.619,338.952 125.223,338.88 124.863,338.736C124.503,338.592 124.195,338.388 123.939,338.124C123.683,337.86 123.485,337.544 123.345,337.176C123.205,336.808 123.135,336.4 123.135,335.952C123.135,335.544 123.203,335.162 123.339,334.806C123.475,334.45 123.667,334.142 123.915,333.882C124.163,333.622 124.457,333.416 124.797,333.264C125.137,333.112 125.511,333.036 125.919,333.036C126.399,333.036 126.811,333.128 127.155,333.312C127.499,333.496 127.781,333.74 128.001,334.044C128.221,334.348 128.383,334.696 128.487,335.088C128.591,335.48 128.643,335.888 128.643,336.312L124.239,336.312C124.247,336.56 124.301,336.788 124.401,336.996C124.501,337.204 124.635,337.384 124.803,337.536C124.971,337.688 125.163,337.808 125.379,337.896C125.595,337.984 125.823,338.028 126.063,338.028C126.535,338.028 126.923,337.948 127.227,337.788C127.531,337.628 127.751,337.472 127.887,337.32L128.499,337.968ZM127.527,335.508C127.495,335.076 127.343,334.708 127.071,334.404C126.799,334.1 126.415,333.948 125.919,333.948C125.663,333.948 125.433,333.992 125.229,334.08C125.025,334.168 124.851,334.284 124.707,334.428C124.563,334.572 124.451,334.738 124.371,334.926C124.291,335.114 124.247,335.308 124.239,335.508L127.527,335.508Z" style="fill:white;fill-rule:nonzero;"/>
            <path d="M150.319,337.38C150.231,337.524 150.095,337.688 149.911,337.872C149.727,338.056 149.503,338.23 149.239,338.394C148.975,338.558 148.671,338.696 148.327,338.808C147.983,338.92 147.603,338.976 147.187,338.976C146.595,338.976 146.055,338.872 145.567,338.664C145.079,338.456 144.659,338.166 144.307,337.794C143.955,337.422 143.681,336.982 143.485,336.474C143.289,335.966 143.191,335.412 143.191,334.812C143.191,334.228 143.289,333.68 143.485,333.168C143.681,332.656 143.955,332.208 144.307,331.824C144.659,331.44 145.081,331.138 145.573,330.918C146.065,330.698 146.611,330.588 147.211,330.588C147.635,330.588 148.015,330.64 148.351,330.744C148.687,330.848 148.981,330.978 149.233,331.134C149.485,331.29 149.701,331.46 149.881,331.644C150.061,331.828 150.207,332.004 150.319,332.172L149.503,332.868C149.407,332.732 149.293,332.59 149.161,332.442C149.029,332.294 148.871,332.16 148.687,332.04C148.503,331.92 148.291,331.82 148.051,331.74C147.811,331.66 147.535,331.62 147.223,331.62C146.783,331.62 146.389,331.704 146.041,331.872C145.693,332.04 145.397,332.268 145.153,332.556C144.909,332.844 144.723,333.18 144.595,333.564C144.467,333.948 144.403,334.356 144.403,334.788C144.403,335.22 144.469,335.626 144.601,336.006C144.733,336.386 144.919,336.716 145.159,336.996C145.399,337.276 145.691,337.496 146.035,337.656C146.379,337.816 146.763,337.896 147.187,337.896C147.547,337.896 147.857,337.85 148.117,337.758C148.377,337.666 148.597,337.556 148.777,337.428C148.957,337.3 149.105,337.17 149.221,337.038C149.337,336.906 149.435,336.796 149.515,336.708L150.319,337.38Z" style="fill:white;fill-rule:nonzero;"/>
            <rect x="151.489" y="330.78" width="1.08" height="8.004" style="fill:white;fill-rule:nonzero;"/>
            <path d="M156.751,338.952C156.319,338.952 155.923,338.874 155.563,338.718C155.203,338.562 154.893,338.348 154.633,338.076C154.373,337.804 154.169,337.49 154.021,337.134C153.873,336.778 153.799,336.396 153.799,335.988C153.799,335.58 153.873,335.198 154.021,334.842C154.169,334.486 154.373,334.172 154.633,333.9C154.893,333.628 155.203,333.414 155.563,333.258C155.923,333.102 156.319,333.024 156.751,333.024C157.175,333.024 157.567,333.102 157.927,333.258C158.287,333.414 158.599,333.628 158.863,333.9C159.127,334.172 159.333,334.486 159.481,334.842C159.629,335.198 159.703,335.58 159.703,335.988C159.703,336.396 159.629,336.778 159.481,337.134C159.333,337.49 159.127,337.804 158.863,338.076C158.599,338.348 158.287,338.562 157.927,338.718C157.567,338.874 157.175,338.952 156.751,338.952ZM156.751,338.016C157.039,338.016 157.299,337.958 157.531,337.842C157.763,337.726 157.959,337.574 158.119,337.386C158.279,337.198 158.401,336.982 158.485,336.738C158.569,336.494 158.611,336.244 158.611,335.988C158.611,335.74 158.569,335.494 158.485,335.25C158.401,335.006 158.277,334.788 158.113,334.596C157.949,334.404 157.753,334.25 157.525,334.134C157.297,334.018 157.039,333.96 156.751,333.96C156.463,333.96 156.203,334.018 155.971,334.134C155.739,334.25 155.543,334.402 155.383,334.59C155.223,334.778 155.101,334.994 155.017,335.238C154.933,335.482 154.891,335.732 154.891,335.988C154.891,336.244 154.933,336.492 155.017,336.732C155.101,336.972 155.225,337.188 155.389,337.38C155.553,337.572 155.749,337.726 155.977,337.842C156.205,337.958 156.463,338.016 156.751,338.016Z" style="fill:white;fill-rule:nonzero;"/>
            <path d="M165.781,338.016C165.533,338.296 165.227,338.522 164.863,338.694C164.499,338.866 164.077,338.952 163.597,338.952C163.149,338.952 162.743,338.878 162.379,338.73C162.015,338.582 161.707,338.378 161.455,338.118C161.203,337.858 161.009,337.546 160.873,337.182C160.737,336.818 160.669,336.42 160.669,335.988C160.669,335.58 160.741,335.196 160.885,334.836C161.029,334.476 161.231,334.162 161.491,333.894C161.751,333.626 162.059,333.414 162.415,333.258C162.771,333.102 163.165,333.024 163.597,333.024C164.069,333.024 164.485,333.108 164.845,333.276C165.205,333.444 165.513,333.672 165.769,333.96L165.061,334.644C164.893,334.436 164.689,334.272 164.449,334.152C164.209,334.032 163.925,333.972 163.597,333.972C163.309,333.972 163.051,334.026 162.823,334.134C162.595,334.242 162.403,334.39 162.247,334.578C162.091,334.766 161.971,334.982 161.887,335.226C161.803,335.47 161.761,335.724 161.761,335.988C161.761,336.244 161.803,336.494 161.887,336.738C161.971,336.982 162.091,337.198 162.247,337.386C162.403,337.574 162.595,337.724 162.823,337.836C163.051,337.948 163.309,338.004 163.597,338.004C163.925,338.004 164.219,337.942 164.479,337.818C164.739,337.694 164.953,337.528 165.121,337.32L165.781,338.016Z" style="fill:white;fill-rule:nonzero;"/>
            <path d="M166.843,330.78L167.923,330.78L167.923,335.496L170.263,333.204L171.559,333.204L169.447,335.268L171.871,338.784L170.587,338.784L168.691,335.988L167.923,336.732L167.923,338.784L166.843,338.784L166.843,330.78Z" style="fill:white;fill-rule:nonzero;"/>
            <path d="M60.526,330.78L63.058,330.78C63.602,330.78 64.052,330.856 64.408,331.008C64.764,331.16 65.048,331.352 65.26,331.584C65.472,331.816 65.62,332.076 65.704,332.364C65.788,332.652 65.83,332.932 65.83,333.204C65.83,333.604 65.762,333.956 65.626,334.26C65.49,334.564 65.302,334.818 65.062,335.022C64.822,335.226 64.536,335.38 64.204,335.484C63.872,335.588 63.51,335.64 63.118,335.64L61.666,335.64L61.666,338.784L60.526,338.784L60.526,330.78ZM63.106,334.656C63.602,334.656 63.984,334.53 64.252,334.278C64.52,334.026 64.654,333.676 64.654,333.228C64.654,332.772 64.516,332.414 64.24,332.154C63.964,331.894 63.586,331.764 63.106,331.764L61.666,331.764L61.666,334.656L63.106,334.656Z" style="fill:white;fill-rule:nonzero;"/>
            <path d="M66.904,330.78L67.972,330.78L67.972,334.032C68.044,333.936 68.132,333.832 68.236,333.72C68.34,333.608 68.468,333.504 68.62,333.408C68.772,333.312 68.948,333.232 69.148,333.168C69.348,333.104 69.576,333.072 69.832,333.072C70.56,333.072 71.1,333.284 71.452,333.708C71.804,334.132 71.98,334.708 71.98,335.436L71.98,338.784L70.9,338.784L70.9,335.52C70.9,335 70.788,334.618 70.564,334.374C70.34,334.13 70.024,334.008 69.616,334.008C69.304,334.008 69.044,334.072 68.836,334.2C68.628,334.328 68.462,334.494 68.338,334.698C68.214,334.902 68.124,335.134 68.068,335.394C68.012,335.654 67.984,335.92 67.984,336.192L67.984,338.784L66.904,338.784L66.904,330.78Z" style="fill:white;fill-rule:nonzero;"/>
            <path d="M76.918,336.144C76.886,336.136 76.824,336.126 76.732,336.114C76.64,336.102 76.534,336.092 76.414,336.084C76.294,336.076 76.166,336.068 76.03,336.06C75.894,336.052 75.762,336.048 75.634,336.048C75.33,336.048 75.084,336.084 74.896,336.156C74.708,336.228 74.56,336.318 74.452,336.426C74.344,336.534 74.27,336.654 74.23,336.786C74.19,336.918 74.17,337.044 74.17,337.164C74.17,337.468 74.274,337.698 74.482,337.854C74.69,338.01 74.978,338.088 75.346,338.088C75.554,338.088 75.752,338.052 75.94,337.98C76.128,337.908 76.294,337.812 76.438,337.692C76.582,337.572 76.698,337.432 76.786,337.272C76.874,337.112 76.918,336.948 76.918,336.78L76.918,336.144ZM76.93,338.112C76.722,338.392 76.448,338.6 76.108,338.736C75.768,338.872 75.418,338.94 75.058,338.94C74.826,338.94 74.596,338.91 74.368,338.85C74.14,338.79 73.932,338.69 73.744,338.55C73.556,338.41 73.404,338.23 73.288,338.01C73.172,337.79 73.114,337.52 73.114,337.2C73.114,336.6 73.324,336.12 73.744,335.76C74.164,335.4 74.77,335.22 75.562,335.22C75.69,335.22 75.826,335.224 75.97,335.232C76.114,335.24 76.25,335.248 76.378,335.256C76.506,335.264 76.618,335.272 76.714,335.28C76.81,335.288 76.878,335.296 76.918,335.304L76.918,335.1C76.918,334.684 76.792,334.386 76.54,334.206C76.288,334.026 75.946,333.936 75.514,333.936C75.09,333.936 74.754,333.994 74.506,334.11C74.258,334.226 74.05,334.344 73.882,334.464L73.378,333.732C73.474,333.652 73.59,333.572 73.726,333.492C73.862,333.412 74.022,333.338 74.206,333.27C74.39,333.202 74.598,333.146 74.83,333.102C75.062,333.058 75.33,333.036 75.634,333.036C76.354,333.036 76.92,333.21 77.332,333.558C77.744,333.906 77.95,334.4 77.95,335.04L77.95,338.286C77.95,338.482 77.954,338.648 77.962,338.784L76.954,338.784L76.93,338.112Z" style="fill:white;fill-rule:nonzero;"/>
            <path d="M79.792,337.38C79.992,337.58 80.232,337.74 80.512,337.86C80.792,337.98 81.116,338.04 81.484,338.04C81.844,338.04 82.144,337.982 82.384,337.866C82.624,337.75 82.744,337.568 82.744,337.32C82.744,337.192 82.718,337.082 82.666,336.99C82.614,336.898 82.526,336.816 82.402,336.744C82.278,336.672 82.114,336.606 81.91,336.546C81.706,336.486 81.452,336.42 81.148,336.348C80.932,336.3 80.718,336.236 80.506,336.156C80.294,336.076 80.104,335.97 79.936,335.838C79.768,335.706 79.632,335.546 79.528,335.358C79.424,335.17 79.372,334.944 79.372,334.68C79.372,334.408 79.434,334.17 79.558,333.966C79.682,333.762 79.848,333.59 80.056,333.45C80.264,333.31 80.498,333.204 80.758,333.132C81.018,333.06 81.288,333.024 81.568,333.024C82.04,333.024 82.446,333.086 82.786,333.21C83.126,333.334 83.424,333.508 83.68,333.732L83.092,334.476C82.924,334.324 82.714,334.196 82.462,334.092C82.21,333.988 81.916,333.936 81.58,333.936C81.236,333.936 80.96,333.992 80.752,334.104C80.544,334.216 80.44,334.4 80.44,334.656C80.44,334.896 80.578,335.074 80.854,335.19C81.13,335.306 81.492,335.416 81.94,335.52C82.204,335.584 82.45,335.658 82.678,335.742C82.906,335.826 83.106,335.934 83.278,336.066C83.45,336.198 83.586,336.36 83.686,336.552C83.786,336.744 83.836,336.976 83.836,337.248C83.836,337.528 83.772,337.774 83.644,337.986C83.516,338.198 83.344,338.376 83.128,338.52C82.912,338.664 82.664,338.772 82.384,338.844C82.104,338.916 81.812,338.952 81.508,338.952C80.452,338.952 79.66,338.668 79.132,338.1L79.792,337.38Z" style="fill:white;fill-rule:nonzero;"/>
            <path d="M90.19,337.968C90.126,338.04 90.03,338.132 89.902,338.244C89.774,338.356 89.608,338.464 89.404,338.568C89.2,338.672 88.96,338.762 88.684,338.838C88.408,338.914 88.094,338.952 87.742,338.952C87.31,338.952 86.914,338.88 86.554,338.736C86.194,338.592 85.886,338.388 85.63,338.124C85.374,337.86 85.176,337.544 85.036,337.176C84.896,336.808 84.826,336.4 84.826,335.952C84.826,335.544 84.894,335.162 85.03,334.806C85.166,334.45 85.358,334.142 85.606,333.882C85.854,333.622 86.148,333.416 86.488,333.264C86.828,333.112 87.202,333.036 87.61,333.036C88.09,333.036 88.502,333.128 88.846,333.312C89.19,333.496 89.472,333.74 89.692,334.044C89.912,334.348 90.074,334.696 90.178,335.088C90.282,335.48 90.334,335.888 90.334,336.312L85.93,336.312C85.938,336.56 85.992,336.788 86.092,336.996C86.192,337.204 86.326,337.384 86.494,337.536C86.662,337.688 86.854,337.808 87.07,337.896C87.286,337.984 87.514,338.028 87.754,338.028C88.226,338.028 88.614,337.948 88.918,337.788C89.222,337.628 89.442,337.472 89.578,337.32L90.19,337.968ZM89.218,335.508C89.186,335.076 89.034,334.708 88.762,334.404C88.49,334.1 88.106,333.948 87.61,333.948C87.354,333.948 87.124,333.992 86.92,334.08C86.716,334.168 86.542,334.284 86.398,334.428C86.254,334.572 86.142,334.738 86.062,334.926C85.982,335.114 85.938,335.308 85.93,335.508L89.218,335.508Z" style="fill:white;fill-rule:nonzero;"/>
        </g>
        <path d="M8.009,330.78L10.541,330.78C11.085,330.78 11.535,330.856 11.891,331.008C12.247,331.16 12.531,331.352 12.743,331.584C12.955,331.816 13.103,332.076 13.187,332.364C13.271,332.652 13.313,332.932 13.313,333.204C13.313,333.604 13.245,333.956 13.109,334.26C12.973,334.564 12.785,334.818 12.545,335.022C12.305,335.226 12.019,335.38 11.687,335.484C11.355,335.588 10.993,335.64 10.601,335.64L9.149,335.64L9.149,338.784L8.009,338.784L8.009,330.78ZM10.589,334.656C11.085,334.656 11.467,334.53 11.735,334.278C12.003,334.026 12.137,333.676 12.137,333.228C12.137,332.772 11.999,332.414 11.723,332.154C11.447,331.894 11.069,331.764 10.589,331.764L9.149,331.764L9.149,334.656L10.589,334.656Z" style="fill-rule:nonzero;"/>
        <path d="M14.393,330.78L15.461,330.78L15.461,334.032C15.533,333.936 15.621,333.832 15.725,333.72C15.829,333.608 15.957,333.504 16.109,333.408C16.261,333.312 16.437,333.232 16.637,333.168C16.837,333.104 17.065,333.072 17.321,333.072C18.049,333.072 18.589,333.284 18.941,333.708C19.293,334.132 19.469,334.708 19.469,335.436L19.469,338.784L18.389,338.784L18.389,335.52C18.389,335 18.277,334.618 18.053,334.374C17.829,334.13 17.513,334.008 17.105,334.008C16.793,334.008 16.533,334.072 16.325,334.2C16.117,334.328 15.951,334.494 15.827,334.698C15.703,334.902 15.613,335.134 15.557,335.394C15.501,335.654 15.473,335.92 15.473,336.192L15.473,338.784L14.393,338.784L14.393,330.78Z" style="fill-rule:nonzero;"/>
        <path d="M24.413,336.144C24.381,336.136 24.319,336.126 24.227,336.114C24.135,336.102 24.029,336.092 23.909,336.084C23.789,336.076 23.661,336.068 23.525,336.06C23.389,336.052 23.257,336.048 23.129,336.048C22.825,336.048 22.579,336.084 22.391,336.156C22.203,336.228 22.055,336.318 21.947,336.426C21.839,336.534 21.765,336.654 21.725,336.786C21.685,336.918 21.665,337.044 21.665,337.164C21.665,337.468 21.769,337.698 21.977,337.854C22.185,338.01 22.473,338.088 22.841,338.088C23.049,338.088 23.247,338.052 23.435,337.98C23.623,337.908 23.789,337.812 23.933,337.692C24.077,337.572 24.193,337.432 24.281,337.272C24.369,337.112 24.413,336.948 24.413,336.78L24.413,336.144ZM24.425,338.112C24.217,338.392 23.943,338.6 23.603,338.736C23.263,338.872 22.913,338.94 22.553,338.94C22.321,338.94 22.091,338.91 21.863,338.85C21.635,338.79 21.427,338.69 21.239,338.55C21.051,338.41 20.899,338.23 20.783,338.01C20.667,337.79 20.609,337.52 20.609,337.2C20.609,336.6 20.819,336.12 21.239,335.76C21.659,335.4 22.265,335.22 23.057,335.22C23.185,335.22 23.321,335.224 23.465,335.232C23.609,335.24 23.745,335.248 23.873,335.256C24.001,335.264 24.113,335.272 24.209,335.28C24.305,335.288 24.373,335.296 24.413,335.304L24.413,335.1C24.413,334.684 24.287,334.386 24.035,334.206C23.783,334.026 23.441,333.936 23.009,333.936C22.585,333.936 22.249,333.994 22.001,334.11C21.753,334.226 21.545,334.344 21.377,334.464L20.873,333.732C20.969,333.652 21.085,333.572 21.221,333.492C21.357,333.412 21.517,333.338 21.701,333.27C21.885,333.202 22.093,333.146 22.325,333.102C22.557,333.058 22.825,333.036 23.129,333.036C23.849,333.036 24.415,333.21 24.827,333.558C25.239,333.906 25.445,334.4 25.445,335.04L25.445,338.286C25.445,338.482 25.449,338.648 25.457,338.784L24.449,338.784L24.425,338.112Z" style="fill-rule:nonzero;"/>
        <path d="M27.293,337.38C27.493,337.58 27.733,337.74 28.013,337.86C28.293,337.98 28.617,338.04 28.985,338.04C29.345,338.04 29.645,337.982 29.885,337.866C30.125,337.75 30.245,337.568 30.245,337.32C30.245,337.192 30.219,337.082 30.167,336.99C30.115,336.898 30.027,336.816 29.903,336.744C29.779,336.672 29.615,336.606 29.411,336.546C29.207,336.486 28.953,336.42 28.649,336.348C28.433,336.3 28.219,336.236 28.007,336.156C27.795,336.076 27.605,335.97 27.437,335.838C27.269,335.706 27.133,335.546 27.029,335.358C26.925,335.17 26.873,334.944 26.873,334.68C26.873,334.408 26.935,334.17 27.059,333.966C27.183,333.762 27.349,333.59 27.557,333.45C27.765,333.31 27.999,333.204 28.259,333.132C28.519,333.06 28.789,333.024 29.069,333.024C29.541,333.024 29.947,333.086 30.287,333.21C30.627,333.334 30.925,333.508 31.181,333.732L30.593,334.476C30.425,334.324 30.215,334.196 29.963,334.092C29.711,333.988 29.417,333.936 29.081,333.936C28.737,333.936 28.461,333.992 28.253,334.104C28.045,334.216 27.941,334.4 27.941,334.656C27.941,334.896 28.079,335.074 28.355,335.19C28.631,335.306 28.993,335.416 29.441,335.52C29.705,335.584 29.951,335.658 30.179,335.742C30.407,335.826 30.607,335.934 30.779,336.066C30.951,336.198 31.087,336.36 31.187,336.552C31.287,336.744 31.337,336.976 31.337,337.248C31.337,337.528 31.273,337.774 31.145,337.986C31.017,338.198 30.845,338.376 30.629,338.52C30.413,338.664 30.165,338.772 29.885,338.844C29.605,338.916 29.313,338.952 29.009,338.952C27.953,338.952 27.161,338.668 26.633,338.1L27.293,337.38Z" style="fill-rule:nonzero;"/>
        <path d="M35.297,338.952C34.865,338.952 34.469,338.874 34.109,338.718C33.749,338.562 33.439,338.348 33.179,338.076C32.919,337.804 32.715,337.49 32.567,337.134C32.419,336.778 32.345,336.396 32.345,335.988C32.345,335.58 32.419,335.198 32.567,334.842C32.715,334.486 32.919,334.172 33.179,333.9C33.439,333.628 33.749,333.414 34.109,333.258C34.469,333.102 34.865,333.024 35.297,333.024C35.721,333.024 36.113,333.102 36.473,333.258C36.833,333.414 37.145,333.628 37.409,333.9C37.673,334.172 37.879,334.486 38.027,334.842C38.175,335.198 38.249,335.58 38.249,335.988C38.249,336.396 38.175,336.778 38.027,337.134C37.879,337.49 37.673,337.804 37.409,338.076C37.145,338.348 36.833,338.562 36.473,338.718C36.113,338.874 35.721,338.952 35.297,338.952ZM35.297,338.016C35.585,338.016 35.845,337.958 36.077,337.842C36.309,337.726 36.505,337.574 36.665,337.386C36.825,337.198 36.947,336.982 37.031,336.738C37.115,336.494 37.157,336.244 37.157,335.988C37.157,335.74 37.115,335.494 37.031,335.25C36.947,335.006 36.823,334.788 36.659,334.596C36.495,334.404 36.299,334.25 36.071,334.134C35.843,334.018 35.585,333.96 35.297,333.96C35.009,333.96 34.749,334.018 34.517,334.134C34.285,334.25 34.089,334.402 33.929,334.59C33.769,334.778 33.647,334.994 33.563,335.238C33.479,335.482 33.437,335.732 33.437,335.988C33.437,336.244 33.479,336.492 33.563,336.732C33.647,336.972 33.771,337.188 33.935,337.38C34.099,337.572 34.295,337.726 34.523,337.842C34.751,337.958 35.009,338.016 35.297,338.016Z" style="fill-rule:nonzero;"/>
        <path d="M39.485,338.784L39.485,333.738C39.485,333.566 39.481,333.388 39.473,333.204L40.505,333.204L40.541,334.104C40.605,334.008 40.689,333.902 40.793,333.786C40.897,333.67 41.023,333.564 41.171,333.468C41.319,333.372 41.491,333.29 41.687,333.222C41.883,333.154 42.109,333.12 42.365,333.12C42.485,333.12 42.595,333.128 42.695,333.144C42.795,333.16 42.889,333.184 42.977,333.216L42.737,334.224C42.593,334.168 42.409,334.14 42.185,334.14C41.953,334.14 41.739,334.184 41.543,334.272C41.347,334.36 41.177,334.482 41.033,334.638C40.889,334.794 40.775,334.976 40.691,335.184C40.607,335.392 40.565,335.612 40.565,335.844L40.565,338.784L39.485,338.784Z" style="fill-rule:nonzero;"/>
        <g>
            <path d="M149.985,285.945L151.689,285.945C152.031,285.945 152.319,285.991 152.553,286.085C152.788,286.178 152.979,286.298 153.125,286.445C153.272,286.591 153.379,286.758 153.445,286.945C153.512,287.131 153.545,287.321 153.545,287.513C153.545,287.854 153.465,288.155 153.305,288.417C153.145,288.678 152.897,288.873 152.561,289.001L153.809,291.281L152.945,291.281L151.801,289.097L150.729,289.097L150.729,291.281L149.985,291.281L149.985,285.945ZM151.753,288.449C152.089,288.449 152.341,288.366 152.509,288.201C152.677,288.035 152.761,287.814 152.761,287.537C152.761,287.243 152.671,287.015 152.489,286.853C152.308,286.69 152.057,286.609 151.737,286.609L150.729,286.609L150.729,288.449L151.753,288.449Z" style="fill-rule:nonzero;"/>
            <path d="M157.013,289.521C156.992,289.515 156.951,289.509 156.889,289.501C156.828,289.493 156.757,289.486 156.677,289.481C156.597,289.475 156.512,289.47 156.421,289.465C156.331,289.459 156.243,289.457 156.157,289.457C155.955,289.457 155.791,289.481 155.665,289.529C155.54,289.577 155.441,289.637 155.369,289.709C155.297,289.781 155.248,289.861 155.221,289.949C155.195,290.037 155.181,290.121 155.181,290.201C155.181,290.403 155.251,290.557 155.389,290.661C155.528,290.765 155.72,290.817 155.965,290.817C156.104,290.817 156.236,290.793 156.361,290.745C156.487,290.697 156.597,290.633 156.693,290.553C156.789,290.473 156.867,290.379 156.925,290.273C156.984,290.166 157.013,290.057 157.013,289.945L157.013,289.521ZM157.021,290.833C156.883,291.019 156.7,291.158 156.473,291.249C156.247,291.339 156.013,291.385 155.773,291.385C155.619,291.385 155.465,291.365 155.313,291.325C155.161,291.285 155.023,291.218 154.897,291.125C154.772,291.031 154.671,290.911 154.593,290.765C154.516,290.618 154.477,290.438 154.477,290.225C154.477,289.825 154.617,289.505 154.897,289.265C155.177,289.025 155.581,288.905 156.109,288.905C156.195,288.905 156.285,288.907 156.381,288.913C156.477,288.918 156.568,288.923 156.653,288.929C156.739,288.934 156.813,288.939 156.877,288.945C156.941,288.95 156.987,288.955 157.013,288.961L157.013,288.825C157.013,288.547 156.929,288.349 156.761,288.229C156.593,288.109 156.365,288.049 156.077,288.049C155.795,288.049 155.571,288.087 155.405,288.165C155.24,288.242 155.101,288.321 154.989,288.401L154.653,287.913C154.717,287.859 154.795,287.806 154.885,287.753C154.976,287.699 155.083,287.65 155.205,287.605C155.328,287.559 155.467,287.522 155.621,287.493C155.776,287.463 155.955,287.449 156.157,287.449C156.637,287.449 157.015,287.565 157.289,287.797C157.564,288.029 157.701,288.358 157.701,288.785L157.701,290.949C157.701,291.079 157.704,291.19 157.709,291.281L157.037,291.281L157.021,290.833Z" style="fill-rule:nonzero;"/>
            <path d="M158.457,287.561L159.249,287.561L160.081,290.401L160.977,287.561L161.593,287.561L162.489,290.425L163.305,287.561L164.049,287.561L162.817,291.281L162.105,291.281L161.241,288.681L160.385,291.281L159.713,291.281L158.457,287.561Z" style="fill-rule:nonzero;"/>
            <path d="M146.445,254.759C146.52,254.844 146.604,254.931 146.697,255.019C146.791,255.107 146.896,255.185 147.013,255.255C147.131,255.324 147.261,255.38 147.405,255.423C147.549,255.465 147.707,255.487 147.877,255.487C148.229,255.487 148.504,255.407 148.701,255.247C148.899,255.087 148.997,254.871 148.997,254.599C148.997,254.305 148.885,254.085 148.661,253.939C148.437,253.792 148.115,253.673 147.693,253.583C147.464,253.535 147.256,253.468 147.069,253.383C146.883,253.297 146.721,253.191 146.585,253.063C146.449,252.935 146.344,252.787 146.269,252.619C146.195,252.451 146.157,252.26 146.157,252.047C146.157,251.849 146.195,251.663 146.269,251.487C146.344,251.311 146.456,251.156 146.605,251.023C146.755,250.889 146.941,250.783 147.165,250.703C147.389,250.623 147.648,250.583 147.941,250.583C148.203,250.583 148.428,250.611 148.617,250.667C148.807,250.723 148.968,250.791 149.101,250.871C149.235,250.951 149.341,251.033 149.421,251.119C149.501,251.204 149.563,251.273 149.605,251.327L149.093,251.799C149.061,251.761 149.013,251.712 148.949,251.651C148.885,251.589 148.804,251.529 148.705,251.471C148.607,251.412 148.492,251.363 148.361,251.323C148.231,251.283 148.08,251.263 147.909,251.263C147.739,251.263 147.592,251.285 147.469,251.331C147.347,251.376 147.245,251.435 147.165,251.507C147.085,251.579 147.027,251.66 146.989,251.751C146.952,251.841 146.933,251.932 146.933,252.023C146.933,252.156 146.961,252.269 147.017,252.363C147.073,252.456 147.155,252.539 147.261,252.611C147.368,252.683 147.5,252.744 147.657,252.795C147.815,252.845 147.995,252.895 148.197,252.943C148.395,252.991 148.588,253.053 148.777,253.131C148.967,253.208 149.136,253.312 149.285,253.443C149.435,253.573 149.553,253.733 149.641,253.923C149.729,254.112 149.773,254.343 149.773,254.615C149.773,254.844 149.725,255.055 149.629,255.247C149.533,255.439 149.401,255.605 149.233,255.747C149.065,255.888 148.867,255.997 148.637,256.075C148.408,256.152 148.16,256.191 147.893,256.191C147.643,256.191 147.415,256.161 147.209,256.103C147.004,256.044 146.817,255.969 146.649,255.879C146.481,255.788 146.335,255.688 146.209,255.579C146.084,255.469 145.981,255.361 145.901,255.255L146.445,254.759Z" style="fill-rule:nonzero;"/>
            <path d="M150.857,256.055L150.857,252.715C150.857,252.595 150.855,252.468 150.849,252.335L151.537,252.335L151.561,252.895C151.604,252.831 151.66,252.76 151.729,252.683C151.799,252.605 151.881,252.535 151.977,252.471C152.073,252.407 152.187,252.353 152.317,252.311C152.448,252.268 152.599,252.247 152.769,252.247C153.057,252.247 153.296,252.304 153.485,252.419C153.675,252.533 153.823,252.7 153.929,252.919C154.079,252.743 154.261,252.587 154.477,252.451C154.693,252.315 154.961,252.247 155.281,252.247C155.761,252.247 156.116,252.389 156.345,252.675C156.575,252.96 156.689,253.343 156.689,253.823L156.689,256.055L155.969,256.055L155.969,253.879C155.969,253.532 155.901,253.277 155.765,253.115C155.629,252.952 155.431,252.871 155.169,252.871C155.02,252.871 154.883,252.901 154.757,252.963C154.632,253.024 154.523,253.105 154.429,253.207C154.336,253.308 154.264,253.427 154.213,253.563C154.163,253.699 154.137,253.841 154.137,253.991L154.137,256.055L153.417,256.055L153.417,253.879C153.417,253.532 153.349,253.277 153.213,253.115C153.077,252.952 152.881,252.871 152.625,252.871C152.428,252.871 152.263,252.913 152.129,252.999C151.996,253.084 151.888,253.195 151.805,253.331C151.723,253.467 151.664,253.623 151.629,253.799C151.595,253.975 151.577,254.151 151.577,254.327L151.577,256.055L150.857,256.055Z" style="fill-rule:nonzero;"/>
            <path d="M160.237,254.295C160.216,254.289 160.175,254.283 160.113,254.275C160.052,254.267 159.981,254.26 159.901,254.255C159.821,254.249 159.736,254.244 159.645,254.239C159.555,254.233 159.467,254.231 159.381,254.231C159.179,254.231 159.015,254.255 158.889,254.303C158.764,254.351 158.665,254.411 158.593,254.483C158.521,254.555 158.472,254.635 158.445,254.723C158.419,254.811 158.405,254.895 158.405,254.975C158.405,255.177 158.475,255.331 158.613,255.435C158.752,255.539 158.944,255.591 159.189,255.591C159.328,255.591 159.46,255.567 159.585,255.519C159.711,255.471 159.821,255.407 159.917,255.327C160.013,255.247 160.091,255.153 160.149,255.047C160.208,254.94 160.237,254.831 160.237,254.719L160.237,254.295ZM160.245,255.607C160.107,255.793 159.924,255.932 159.697,256.023C159.471,256.113 159.237,256.159 158.997,256.159C158.843,256.159 158.689,256.139 158.537,256.099C158.385,256.059 158.247,255.992 158.121,255.899C157.996,255.805 157.895,255.685 157.817,255.539C157.74,255.392 157.701,255.212 157.701,254.999C157.701,254.599 157.841,254.279 158.121,254.039C158.401,253.799 158.805,253.679 159.333,253.679C159.419,253.679 159.509,253.681 159.605,253.687C159.701,253.692 159.792,253.697 159.877,253.703C159.963,253.708 160.037,253.713 160.101,253.719C160.165,253.724 160.211,253.729 160.237,253.735L160.237,253.599C160.237,253.321 160.153,253.123 159.985,253.003C159.817,252.883 159.589,252.823 159.301,252.823C159.019,252.823 158.795,252.861 158.629,252.939C158.464,253.016 158.325,253.095 158.213,253.175L157.877,252.687C157.941,252.633 158.019,252.58 158.109,252.527C158.2,252.473 158.307,252.424 158.429,252.379C158.552,252.333 158.691,252.296 158.845,252.267C159,252.237 159.179,252.223 159.381,252.223C159.861,252.223 160.239,252.339 160.513,252.571C160.788,252.803 160.925,253.132 160.925,253.559L160.925,255.723C160.925,255.853 160.928,255.964 160.933,256.055L160.261,256.055L160.245,255.607Z" style="fill-rule:nonzero;"/>
            <path d="M162.169,256.055L162.169,252.691C162.169,252.576 162.167,252.457 162.161,252.335L162.849,252.335L162.873,252.935C162.916,252.871 162.972,252.8 163.041,252.723C163.111,252.645 163.195,252.575 163.293,252.511C163.392,252.447 163.507,252.392 163.637,252.347C163.768,252.301 163.919,252.279 164.089,252.279C164.169,252.279 164.243,252.284 164.309,252.295C164.376,252.305 164.439,252.321 164.497,252.343L164.337,253.015C164.241,252.977 164.119,252.959 163.969,252.959C163.815,252.959 163.672,252.988 163.541,253.047C163.411,253.105 163.297,253.187 163.201,253.291C163.105,253.395 163.029,253.516 162.973,253.655C162.917,253.793 162.889,253.94 162.889,254.095L162.889,256.055L162.169,256.055Z" style="fill-rule:nonzero;"/>
            <path d="M165.661,252.935L164.989,252.935L164.989,252.335L165.661,252.335L165.661,251.119L166.381,251.119L166.381,252.335L167.469,252.335L167.469,252.935L166.381,252.935L166.381,254.767C166.381,255.065 166.428,255.271 166.521,255.383C166.615,255.495 166.747,255.551 166.917,255.551C167.056,255.551 167.171,255.529 167.261,255.487C167.352,255.444 167.443,255.38 167.533,255.295L167.861,255.735C167.707,255.884 167.548,255.992 167.385,256.059C167.223,256.125 167.029,256.159 166.805,256.159C166.411,256.159 166.121,256.052 165.937,255.839C165.753,255.625 165.661,255.292 165.661,254.839L165.661,252.935Z" style="fill-rule:nonzero;"/>
            <g transform="matrix(1,0,0,1,79.7955,71.9644)">
                <g transform="matrix(8,0,0,8,47.9766,197.497)">
                    <path d="M0.417,-0.339L0.651,-0.339L0.651,-0.073C0.638,-0.062 0.624,-0.051 0.608,-0.04C0.591,-0.029 0.572,-0.02 0.551,-0.012C0.529,-0.003 0.505,0.003 0.478,0.008C0.451,0.013 0.421,0.016 0.388,0.016C0.336,0.016 0.289,0.007 0.248,-0.011C0.206,-0.028 0.17,-0.053 0.141,-0.084C0.111,-0.115 0.088,-0.151 0.073,-0.194C0.057,-0.236 0.049,-0.282 0.049,-0.332C0.049,-0.381 0.057,-0.426 0.074,-0.469C0.09,-0.512 0.113,-0.549 0.142,-0.581C0.171,-0.612 0.206,-0.637 0.248,-0.656C0.289,-0.674 0.334,-0.683 0.384,-0.683C0.419,-0.683 0.451,-0.679 0.479,-0.671C0.507,-0.662 0.532,-0.652 0.553,-0.639C0.574,-0.625 0.591,-0.611 0.606,-0.596C0.621,-0.581 0.633,-0.566 0.643,-0.552L0.575,-0.494C0.567,-0.505 0.557,-0.517 0.546,-0.53C0.535,-0.542 0.521,-0.553 0.506,-0.563C0.491,-0.573 0.473,-0.581 0.454,-0.588C0.434,-0.595 0.411,-0.598 0.386,-0.598C0.349,-0.598 0.316,-0.591 0.287,-0.577C0.258,-0.563 0.233,-0.544 0.213,-0.52C0.192,-0.496 0.177,-0.468 0.166,-0.436C0.155,-0.403 0.149,-0.369 0.149,-0.333C0.149,-0.294 0.155,-0.259 0.167,-0.227C0.179,-0.195 0.196,-0.168 0.218,-0.145C0.239,-0.122 0.265,-0.103 0.294,-0.091C0.323,-0.078 0.356,-0.071 0.391,-0.071C0.43,-0.071 0.463,-0.075 0.49,-0.084C0.517,-0.093 0.54,-0.105 0.559,-0.12L0.559,-0.256L0.417,-0.256L0.417,-0.339Z" style="fill-rule:nonzero;"/>
                </g>
                <g transform="matrix(8,0,0,8,53.7566,197.497)">
                    <path d="M0.352,-0.22C0.349,-0.221 0.344,-0.222 0.337,-0.223C0.329,-0.224 0.32,-0.224 0.31,-0.225C0.3,-0.226 0.289,-0.226 0.278,-0.227C0.267,-0.228 0.256,-0.228 0.245,-0.228C0.22,-0.228 0.199,-0.225 0.184,-0.219C0.168,-0.213 0.156,-0.205 0.147,-0.197C0.138,-0.188 0.131,-0.178 0.128,-0.167C0.125,-0.156 0.123,-0.145 0.123,-0.135C0.123,-0.11 0.132,-0.091 0.149,-0.078C0.166,-0.065 0.19,-0.058 0.221,-0.058C0.238,-0.058 0.255,-0.061 0.271,-0.067C0.286,-0.073 0.3,-0.081 0.312,-0.091C0.324,-0.101 0.334,-0.113 0.341,-0.126C0.348,-0.139 0.352,-0.153 0.352,-0.167L0.352,-0.22ZM0.353,-0.056C0.336,-0.033 0.313,-0.015 0.284,-0.004C0.256,0.007 0.227,0.013 0.197,0.013C0.178,0.013 0.159,0.01 0.14,0.005C0.121,0 0.103,-0.008 0.087,-0.02C0.072,-0.031 0.059,-0.046 0.05,-0.065C0.04,-0.083 0.035,-0.105 0.035,-0.132C0.035,-0.182 0.053,-0.222 0.087,-0.252C0.123,-0.282 0.173,-0.297 0.239,-0.297C0.25,-0.297 0.261,-0.297 0.273,-0.296C0.285,-0.295 0.296,-0.295 0.307,-0.294C0.318,-0.293 0.327,-0.293 0.335,-0.292C0.343,-0.291 0.349,-0.291 0.352,-0.29L0.352,-0.307C0.352,-0.342 0.342,-0.367 0.321,-0.382C0.3,-0.397 0.271,-0.404 0.235,-0.404C0.2,-0.404 0.172,-0.399 0.151,-0.39C0.13,-0.38 0.113,-0.37 0.099,-0.36L0.057,-0.421C0.065,-0.428 0.075,-0.434 0.086,-0.441C0.097,-0.448 0.111,-0.454 0.126,-0.46C0.141,-0.465 0.159,-0.47 0.178,-0.473C0.197,-0.477 0.22,-0.479 0.245,-0.479C0.305,-0.479 0.352,-0.465 0.387,-0.436C0.421,-0.406 0.438,-0.365 0.438,-0.312L0.438,-0.042C0.438,-0.025 0.438,-0.011 0.439,-0L0.355,-0L0.353,-0.056Z" style="fill-rule:nonzero;"/>
                </g>
                <g transform="matrix(8,0,0,8,57.7606,197.497)">
                    <path d="M0.102,-0.39L0.018,-0.39L0.018,-0.465L0.102,-0.465L0.102,-0.617L0.192,-0.617L0.192,-0.465L0.328,-0.465L0.328,-0.39L0.192,-0.39L0.192,-0.161C0.192,-0.124 0.198,-0.098 0.21,-0.084C0.221,-0.07 0.238,-0.063 0.259,-0.063C0.276,-0.063 0.291,-0.066 0.302,-0.071C0.313,-0.076 0.325,-0.084 0.336,-0.095L0.377,-0.04C0.358,-0.021 0.338,-0.008 0.318,0C0.297,0.009 0.273,0.013 0.245,0.013C0.196,0.013 0.16,-0 0.137,-0.027C0.114,-0.054 0.102,-0.095 0.102,-0.152L0.102,-0.39Z" style="fill-rule:nonzero;"/>
                </g>
                <g transform="matrix(8,0,0,8,60.8446,197.497)">
                    <path d="M0.486,-0.068C0.481,-0.062 0.473,-0.054 0.462,-0.045C0.451,-0.036 0.438,-0.027 0.421,-0.018C0.404,-0.009 0.384,-0.002 0.361,0.004C0.338,0.011 0.311,0.014 0.282,0.014C0.246,0.014 0.213,0.008 0.183,-0.004C0.153,-0.016 0.127,-0.033 0.106,-0.055C0.085,-0.077 0.068,-0.103 0.057,-0.134C0.045,-0.165 0.039,-0.199 0.039,-0.236C0.039,-0.27 0.045,-0.302 0.056,-0.332C0.067,-0.361 0.083,-0.387 0.104,-0.408C0.125,-0.43 0.149,-0.447 0.178,-0.46C0.206,-0.473 0.237,-0.479 0.271,-0.479C0.311,-0.479 0.345,-0.471 0.374,-0.456C0.403,-0.441 0.426,-0.42 0.445,-0.395C0.463,-0.37 0.476,-0.341 0.485,-0.308C0.494,-0.275 0.498,-0.241 0.498,-0.206L0.131,-0.206C0.132,-0.185 0.136,-0.166 0.145,-0.149C0.153,-0.132 0.164,-0.117 0.178,-0.104C0.192,-0.091 0.208,-0.081 0.226,-0.074C0.244,-0.067 0.263,-0.063 0.283,-0.063C0.322,-0.063 0.355,-0.07 0.38,-0.083C0.405,-0.096 0.424,-0.109 0.435,-0.122L0.486,-0.068ZM0.405,-0.273C0.402,-0.309 0.39,-0.34 0.367,-0.365C0.344,-0.39 0.312,-0.403 0.271,-0.403C0.25,-0.403 0.231,-0.399 0.214,-0.392C0.197,-0.385 0.182,-0.375 0.17,-0.363C0.158,-0.351 0.149,-0.337 0.142,-0.322C0.135,-0.306 0.132,-0.29 0.131,-0.273L0.405,-0.273Z" style="fill-rule:nonzero;"/>
                </g>
                <g transform="matrix(8,0,0,8,39.5606,207.247)">
                    <path d="M0.389,0.017C0.341,0.017 0.296,0.008 0.255,-0.011C0.214,-0.029 0.178,-0.054 0.147,-0.086C0.116,-0.117 0.092,-0.154 0.075,-0.197C0.058,-0.24 0.049,-0.285 0.049,-0.334C0.049,-0.383 0.058,-0.428 0.075,-0.47C0.092,-0.513 0.116,-0.55 0.147,-0.582C0.177,-0.613 0.213,-0.638 0.255,-0.657C0.296,-0.675 0.341,-0.684 0.389,-0.684C0.437,-0.684 0.482,-0.675 0.524,-0.657C0.565,-0.638 0.601,-0.613 0.632,-0.582C0.663,-0.55 0.687,-0.513 0.704,-0.47C0.721,-0.428 0.73,-0.383 0.73,-0.334C0.73,-0.285 0.721,-0.24 0.704,-0.197C0.687,-0.154 0.663,-0.117 0.632,-0.086C0.601,-0.054 0.565,-0.029 0.524,-0.011C0.482,0.008 0.437,0.017 0.389,0.017ZM0.389,-0.073C0.426,-0.073 0.459,-0.08 0.489,-0.094C0.518,-0.108 0.544,-0.127 0.565,-0.151C0.586,-0.175 0.602,-0.203 0.613,-0.234C0.624,-0.266 0.63,-0.3 0.63,-0.335C0.63,-0.371 0.624,-0.405 0.613,-0.437C0.602,-0.468 0.586,-0.496 0.565,-0.52C0.544,-0.544 0.518,-0.563 0.489,-0.577C0.459,-0.59 0.426,-0.597 0.389,-0.597C0.352,-0.597 0.319,-0.59 0.29,-0.577C0.261,-0.563 0.235,-0.544 0.215,-0.52C0.194,-0.496 0.177,-0.468 0.166,-0.437C0.155,-0.405 0.149,-0.371 0.149,-0.335C0.149,-0.3 0.155,-0.266 0.166,-0.234C0.177,-0.203 0.194,-0.175 0.215,-0.151C0.235,-0.127 0.261,-0.108 0.29,-0.094C0.319,-0.08 0.352,-0.073 0.389,-0.073Z" style="fill-rule:nonzero;"/>
                </g>
                <g transform="matrix(8,0,0,8,45.8046,207.247)">
                    <path d="M0.059,-0.465L0.149,-0.465L0.149,-0.192C0.149,-0.148 0.158,-0.116 0.176,-0.097C0.194,-0.077 0.22,-0.067 0.254,-0.067C0.28,-0.067 0.302,-0.072 0.319,-0.083C0.336,-0.094 0.349,-0.108 0.36,-0.125C0.371,-0.141 0.378,-0.161 0.383,-0.183C0.387,-0.204 0.389,-0.226 0.389,-0.249L0.389,-0.465L0.479,-0.465L0.479,-0.048C0.479,-0.033 0.479,-0.017 0.48,-0L0.394,-0L0.391,-0.069C0.385,-0.061 0.378,-0.052 0.369,-0.043C0.36,-0.034 0.35,-0.025 0.337,-0.018C0.324,-0.01 0.31,-0.003 0.293,0.002C0.276,0.007 0.257,0.01 0.236,0.01C0.175,0.01 0.131,-0.008 0.102,-0.043C0.073,-0.078 0.059,-0.125 0.059,-0.186L0.059,-0.465Z" style="fill-rule:nonzero;"/>
                </g>
                <g transform="matrix(8,0,0,8,50.1526,207.247)">
                    <path d="M0.102,-0.39L0.018,-0.39L0.018,-0.465L0.102,-0.465L0.102,-0.617L0.192,-0.617L0.192,-0.465L0.328,-0.465L0.328,-0.39L0.192,-0.39L0.192,-0.161C0.192,-0.124 0.198,-0.098 0.21,-0.084C0.221,-0.07 0.238,-0.063 0.259,-0.063C0.276,-0.063 0.291,-0.066 0.302,-0.071C0.313,-0.076 0.325,-0.084 0.336,-0.095L0.377,-0.04C0.358,-0.021 0.338,-0.008 0.318,0C0.297,0.009 0.273,0.013 0.245,0.013C0.196,0.013 0.16,-0 0.137,-0.027C0.114,-0.054 0.102,-0.095 0.102,-0.152L0.102,-0.39Z" style="fill-rule:nonzero;"/>
                </g>
                <g transform="matrix(8,0,0,8,53.2366,207.247)">
                    <path d="M0.062,0.2L0.062,-0.418C0.062,-0.433 0.062,-0.448 0.061,-0.465L0.147,-0.465L0.15,-0.399C0.155,-0.405 0.161,-0.412 0.17,-0.421C0.179,-0.43 0.19,-0.438 0.203,-0.446C0.216,-0.454 0.231,-0.461 0.248,-0.467C0.265,-0.472 0.285,-0.475 0.308,-0.475C0.344,-0.475 0.375,-0.468 0.402,-0.455C0.428,-0.442 0.45,-0.424 0.467,-0.401C0.484,-0.378 0.497,-0.352 0.505,-0.323C0.514,-0.294 0.518,-0.263 0.518,-0.23C0.518,-0.188 0.511,-0.152 0.497,-0.121C0.482,-0.09 0.464,-0.065 0.441,-0.045C0.418,-0.025 0.392,-0.01 0.364,-0.001C0.335,0.009 0.307,0.014 0.28,0.014C0.249,0.014 0.224,0.011 0.204,0.004C0.186,-0.002 0.168,-0.009 0.151,-0.016L0.151,0.2L0.062,0.2ZM0.151,-0.101C0.162,-0.092 0.177,-0.084 0.197,-0.076C0.217,-0.068 0.242,-0.064 0.272,-0.064C0.295,-0.064 0.316,-0.068 0.335,-0.077C0.354,-0.085 0.37,-0.097 0.384,-0.112C0.397,-0.127 0.408,-0.144 0.415,-0.164C0.422,-0.184 0.426,-0.206 0.426,-0.23C0.426,-0.253 0.424,-0.274 0.419,-0.294C0.413,-0.314 0.406,-0.332 0.395,-0.347C0.384,-0.362 0.369,-0.375 0.352,-0.384C0.335,-0.393 0.313,-0.397 0.288,-0.397C0.256,-0.397 0.229,-0.388 0.206,-0.371C0.183,-0.353 0.167,-0.327 0.158,-0.293C0.155,-0.282 0.153,-0.271 0.152,-0.259C0.151,-0.246 0.151,-0.233 0.151,-0.22L0.151,-0.101Z" style="fill-rule:nonzero;"/>
                </g>
                <g transform="matrix(8,0,0,8,57.7126,207.247)">
                    <path d="M0.059,-0.465L0.149,-0.465L0.149,-0.192C0.149,-0.148 0.158,-0.116 0.176,-0.097C0.194,-0.077 0.22,-0.067 0.254,-0.067C0.28,-0.067 0.302,-0.072 0.319,-0.083C0.336,-0.094 0.349,-0.108 0.36,-0.125C0.371,-0.141 0.378,-0.161 0.383,-0.183C0.387,-0.204 0.389,-0.226 0.389,-0.249L0.389,-0.465L0.479,-0.465L0.479,-0.048C0.479,-0.033 0.479,-0.017 0.48,-0L0.394,-0L0.391,-0.069C0.385,-0.061 0.378,-0.052 0.369,-0.043C0.36,-0.034 0.35,-0.025 0.337,-0.018C0.324,-0.01 0.31,-0.003 0.293,0.002C0.276,0.007 0.257,0.01 0.236,0.01C0.175,0.01 0.131,-0.008 0.102,-0.043C0.073,-0.078 0.059,-0.125 0.059,-0.186L0.059,-0.465Z" style="fill-rule:nonzero;"/>
                </g>
                <g transform="matrix(8,0,0,8,62.0606,207.247)">
                    <path d="M0.102,-0.39L0.018,-0.39L0.018,-0.465L0.102,-0.465L0.102,-0.617L0.192,-0.617L0.192,-0.465L0.328,-0.465L0.328,-0.39L0.192,-0.39L0.192,-0.161C0.192,-0.124 0.198,-0.098 0.21,-0.084C0.221,-0.07 0.238,-0.063 0.259,-0.063C0.276,-0.063 0.291,-0.066 0.302,-0.071C0.313,-0.076 0.325,-0.084 0.336,-0.095L0.377,-0.04C0.358,-0.021 0.338,-0.008 0.318,0C0.297,0.009 0.273,0.013 0.245,0.013C0.196,0.013 0.16,-0 0.137,-0.027C0.114,-0.054 0.102,-0.095 0.102,-0.152L0.102,-0.39Z" style="fill-rule:nonzero;"/>
                </g>
            </g>
        </g>
    </g>
</svg>
