<?xml version="1.0" encoding="UTF-8" standalone="no"?>
<!DOCTYPE svg PUBLIC "-//W3C//DTD SVG 1.1//EN" "http://www.w3.org/Graphics/SVG/1.1/DTD/svg11.dtd">
<svg width="100%" height="100%" viewBox="0 0 270 380" version="1.1" xmlns="http://www.w3.org/2000/svg" xmlns:xlink="http://www.w3.org/1999/xlink" xml:space="preserve" xmlns:serif="http://www.serif.com/" style="fill-rule:evenodd;clip-rule:evenodd;stroke-linejoin:round;stroke-miterlimit:2;">
    <g id="svg8">
        <rect x="0" y="0" width="270" height="380" style="fill:rgb(240,240,240);"/>
        <g transform="matrix(1,0,0,1,115.784,363.154)">
            <path d="M0,11.424L-1.606,11.424L-1.606,6.093L-7.682,6.093L-7.682,11.424L-9.288,11.424L-9.288,0L-7.682,0L-7.682,4.719L-1.606,4.719L-1.606,0L0,0L0,11.424Z" style="fill:rgb(35,31,32);fill-rule:nonzero;"/>
        </g>
        <g transform="matrix(1,0,0,1,123.992,363.154)">
            <path d="M0,11.424L-6.821,11.424L-6.821,0L-0.132,0L-0.132,1.342L-5.215,1.342L-5.215,4.752L-0.414,4.752L-0.414,6.093L-5.215,6.093L-5.215,10.067L0,10.067L0,11.424Z" style="fill:rgb(35,31,32);fill-rule:nonzero;"/>
        </g>
        <g transform="matrix(1,0,0,1,132.865,373.236)">
            <path d="M0,-8.74L-3.212,-8.74L-3.212,1.342L-4.818,1.342L-4.818,-8.74L-8.046,-8.74L-8.046,-10.082L0,-10.082L0,-8.74Z" style="fill:rgb(35,31,32);fill-rule:nonzero;"/>
        </g>
        <g transform="matrix(1,0,0,1,138.575,372.855)">
            <path d="M0,-7.978C-0.513,-8.359 -1.126,-8.392 -1.92,-8.392L-3.096,-8.392L-3.096,-4.518L-1.92,-4.518C-1.126,-4.518 -0.513,-4.551 0,-4.915C0.514,-5.296 0.729,-5.76 0.729,-6.456C0.729,-7.134 0.514,-7.614 0,-7.978M3.047,1.723L1.109,1.723L-1.871,-3.194L-3.096,-3.194L-3.096,1.723L-4.702,1.723L-4.702,-9.701L-1.474,-9.701C-0.331,-9.701 0.596,-9.435 1.275,-8.906C1.954,-8.359 2.384,-7.532 2.384,-6.489C2.384,-4.485 0.993,-3.591 -0.215,-3.359L3.047,1.723Z" style="fill:rgb(35,31,32);fill-rule:nonzero;"/>
        </g>
        <g transform="matrix(-1,0,0,1,287.233,357.732)">
            <rect x="142.814" y="5.422" width="1.605" height="11.424" style="fill:rgb(35,31,32);"/>
        </g>
        <g transform="matrix(1,0,0,1,155.542,364.678)">
            <path d="M0,8.41C-0.712,9.205 -2.003,10.099 -4.172,10.099C-7.5,10.099 -10.017,7.764 -10.017,4.205C-10.017,0.645 -7.45,-1.689 -4.172,-1.689C-2.036,-1.689 -0.745,-0.795 -0.116,-0.182L-0.795,1.109C-1.241,0.547 -2.517,-0.281 -4.105,-0.281C-6.572,-0.281 -8.36,1.49 -8.36,4.172C-8.36,6.854 -6.556,8.626 -4.105,8.626C-2.6,8.626 -1.44,8.047 -0.695,7.235L0,8.41Z" style="fill:rgb(237,50,36);fill-rule:nonzero;"/>
        </g>
        <g transform="matrix(1,0,0,1,165.452,363.154)">
            <path d="M0,11.424L-1.953,11.424L-5.745,5.695L-6.92,6.888L-6.92,11.424L-8.526,11.424L-8.526,0L-6.92,0L-6.92,4.868L-2.268,0L-0.314,0L-4.669,4.504L0,11.424Z" style="fill:rgb(237,50,36);fill-rule:nonzero;"/>
        </g>
        <g transform="matrix(1,0,0,1,165.452,367.658)">
            <path d="M0,6.92L-1.953,6.92L-5.745,1.191L-6.92,2.384L-6.92,6.92L-8.526,6.92L-8.526,2.361L-6.92,2.384L-5.745,1.191L-4.669,0L-4.052,0.913L-3.555,1.65L0,6.92Z" style="fill-rule:nonzero;"/>
        </g>
        <g transform="matrix(1,0,0,1,257.438,359.729)">
            <path d="M0,-313.687L-43.952,-313.687C-48.353,-313.687 -51.952,-310.087 -51.952,-305.687L-51.952,-8C-51.952,-3.601 -48.353,0 -43.952,0L0,0C4.4,0 8,-3.601 8,-8L8,-305.687C8,-310.087 4.4,-313.687 0,-313.687" style="fill-rule:nonzero;"/>
        </g>
        <g transform="matrix(1,0,0,1,148.233,359.729)">
            <path d="M0,-55.924L10.642,-55.924C17.241,-55.924 22.642,-50.524 22.642,-43.924L22.642,-12C22.642,-5.401 17.241,0 10.642,0L0,0C-6.6,0 -12,-5.401 -12,-12L-12,-43.924C-12,-50.524 -6.6,-55.924 0,-55.924" style="fill-rule:nonzero;"/>
        </g>
        <g transform="matrix(18,0,0,18,103.978,28.8369)">
            <path d="M0.105,-0.162C0.114,-0.151 0.125,-0.141 0.137,-0.13C0.148,-0.118 0.161,-0.109 0.176,-0.1C0.191,-0.091 0.207,-0.084 0.225,-0.079C0.243,-0.074 0.263,-0.071 0.284,-0.071C0.328,-0.071 0.362,-0.081 0.387,-0.101C0.412,-0.121 0.424,-0.148 0.424,-0.182C0.424,-0.219 0.41,-0.246 0.382,-0.265C0.354,-0.283 0.314,-0.298 0.261,-0.309C0.232,-0.315 0.206,-0.323 0.183,-0.334C0.16,-0.345 0.14,-0.358 0.123,-0.374C0.106,-0.39 0.092,-0.408 0.083,-0.43C0.074,-0.451 0.069,-0.474 0.069,-0.501C0.069,-0.526 0.074,-0.549 0.083,-0.571C0.092,-0.593 0.106,-0.612 0.125,-0.629C0.144,-0.646 0.167,-0.659 0.195,-0.669C0.223,-0.679 0.255,-0.684 0.292,-0.684C0.325,-0.684 0.353,-0.681 0.377,-0.674C0.4,-0.667 0.42,-0.658 0.437,-0.648C0.454,-0.638 0.467,-0.628 0.477,-0.617C0.487,-0.606 0.495,-0.598 0.5,-0.591L0.436,-0.532C0.432,-0.537 0.426,-0.543 0.418,-0.551C0.41,-0.558 0.4,-0.566 0.388,-0.573C0.375,-0.58 0.361,-0.587 0.344,-0.592C0.328,-0.597 0.309,-0.599 0.288,-0.599C0.267,-0.599 0.248,-0.596 0.233,-0.591C0.218,-0.585 0.205,-0.578 0.195,-0.569C0.185,-0.56 0.178,-0.549 0.173,-0.538C0.168,-0.527 0.166,-0.515 0.166,-0.504C0.166,-0.487 0.17,-0.473 0.177,-0.462C0.184,-0.45 0.194,-0.44 0.207,-0.431C0.22,-0.422 0.237,-0.414 0.257,-0.407C0.276,-0.401 0.299,-0.395 0.324,-0.389C0.349,-0.383 0.373,-0.375 0.397,-0.366C0.42,-0.356 0.441,-0.343 0.46,-0.327C0.479,-0.31 0.494,-0.29 0.504,-0.267C0.516,-0.243 0.521,-0.214 0.521,-0.18C0.521,-0.151 0.515,-0.125 0.503,-0.101C0.491,-0.077 0.474,-0.056 0.454,-0.039C0.433,-0.021 0.408,-0.007 0.379,0.002C0.35,0.012 0.319,0.017 0.286,0.017C0.255,0.017 0.226,0.013 0.201,0.006C0.175,-0.001 0.152,-0.011 0.131,-0.022C0.11,-0.033 0.091,-0.046 0.076,-0.059C0.06,-0.073 0.047,-0.087 0.037,-0.1L0.105,-0.162Z" style="fill-rule:nonzero;"/>
        </g>
        <g transform="matrix(18,0,0,18,114.196,28.8369)">
            <path d="M0.466,-0.064C0.445,-0.041 0.42,-0.022 0.39,-0.008C0.359,0.007 0.324,0.014 0.284,0.014C0.247,0.014 0.213,0.008 0.183,-0.005C0.152,-0.017 0.127,-0.034 0.106,-0.056C0.085,-0.077 0.068,-0.103 0.057,-0.134C0.046,-0.164 0.04,-0.197 0.04,-0.233C0.04,-0.267 0.046,-0.299 0.058,-0.329C0.07,-0.359 0.087,-0.385 0.109,-0.407C0.13,-0.43 0.156,-0.448 0.186,-0.461C0.215,-0.473 0.248,-0.48 0.284,-0.48C0.323,-0.48 0.358,-0.473 0.388,-0.459C0.418,-0.445 0.444,-0.426 0.465,-0.402L0.406,-0.345C0.392,-0.362 0.375,-0.376 0.355,-0.386C0.335,-0.396 0.311,-0.401 0.284,-0.401C0.26,-0.401 0.238,-0.397 0.22,-0.388C0.201,-0.379 0.185,-0.366 0.172,-0.35C0.159,-0.335 0.149,-0.317 0.141,-0.297C0.135,-0.276 0.131,-0.255 0.131,-0.233C0.131,-0.212 0.135,-0.191 0.141,-0.171C0.149,-0.15 0.159,-0.132 0.172,-0.117C0.185,-0.101 0.201,-0.088 0.22,-0.079C0.238,-0.07 0.26,-0.065 0.284,-0.065C0.311,-0.065 0.336,-0.07 0.358,-0.081C0.379,-0.091 0.397,-0.105 0.411,-0.122L0.466,-0.064Z" style="fill-rule:nonzero;"/>
        </g>
        <g transform="matrix(18,0,0,18,122.812,28.8369)">
            <path d="M0.352,-0.22C0.349,-0.221 0.344,-0.222 0.337,-0.223C0.329,-0.224 0.32,-0.224 0.31,-0.225C0.3,-0.226 0.289,-0.226 0.278,-0.227C0.267,-0.228 0.256,-0.228 0.245,-0.228C0.22,-0.228 0.199,-0.225 0.184,-0.219C0.168,-0.213 0.156,-0.205 0.147,-0.197C0.138,-0.188 0.131,-0.178 0.128,-0.167C0.125,-0.156 0.123,-0.145 0.123,-0.135C0.123,-0.11 0.132,-0.091 0.149,-0.078C0.166,-0.065 0.19,-0.058 0.221,-0.058C0.238,-0.058 0.255,-0.061 0.271,-0.067C0.286,-0.073 0.3,-0.081 0.312,-0.091C0.324,-0.101 0.334,-0.113 0.341,-0.126C0.348,-0.139 0.352,-0.153 0.352,-0.167L0.352,-0.22ZM0.353,-0.056C0.336,-0.033 0.313,-0.015 0.284,-0.004C0.256,0.007 0.227,0.013 0.197,0.013C0.178,0.013 0.159,0.01 0.14,0.005C0.121,0 0.103,-0.008 0.087,-0.02C0.072,-0.031 0.059,-0.046 0.05,-0.065C0.04,-0.083 0.035,-0.105 0.035,-0.132C0.035,-0.182 0.053,-0.222 0.087,-0.252C0.123,-0.282 0.173,-0.297 0.239,-0.297C0.25,-0.297 0.261,-0.297 0.273,-0.296C0.285,-0.295 0.296,-0.295 0.307,-0.294C0.318,-0.293 0.327,-0.293 0.335,-0.292C0.343,-0.291 0.349,-0.291 0.352,-0.29L0.352,-0.307C0.352,-0.342 0.342,-0.367 0.321,-0.382C0.3,-0.397 0.271,-0.404 0.235,-0.404C0.2,-0.404 0.172,-0.399 0.151,-0.39C0.13,-0.38 0.113,-0.37 0.099,-0.36L0.057,-0.421C0.065,-0.428 0.075,-0.434 0.086,-0.441C0.097,-0.448 0.111,-0.454 0.126,-0.46C0.141,-0.465 0.159,-0.47 0.178,-0.473C0.197,-0.477 0.22,-0.479 0.245,-0.479C0.305,-0.479 0.352,-0.465 0.387,-0.436C0.421,-0.406 0.438,-0.365 0.438,-0.312L0.438,-0.042C0.438,-0.025 0.438,-0.011 0.439,-0L0.355,-0L0.353,-0.056Z" style="fill-rule:nonzero;"/>
        </g>
        <g transform="matrix(18,0,0,18,131.536,28.8369)">
            <path d="M0.062,-0L0.062,-0.418C0.062,-0.433 0.062,-0.448 0.061,-0.465L0.147,-0.465L0.15,-0.395C0.156,-0.403 0.163,-0.412 0.172,-0.422C0.181,-0.431 0.191,-0.44 0.204,-0.448C0.217,-0.456 0.232,-0.463 0.249,-0.468C0.266,-0.473 0.285,-0.476 0.306,-0.476C0.367,-0.476 0.412,-0.458 0.441,-0.423C0.47,-0.388 0.485,-0.34 0.485,-0.279L0.485,-0L0.395,-0L0.395,-0.272C0.395,-0.315 0.386,-0.347 0.367,-0.368C0.348,-0.388 0.322,-0.398 0.288,-0.398C0.262,-0.398 0.24,-0.393 0.223,-0.382C0.206,-0.371 0.192,-0.358 0.182,-0.341C0.171,-0.324 0.164,-0.304 0.159,-0.282C0.154,-0.261 0.152,-0.239 0.152,-0.216L0.152,-0L0.062,-0Z" style="fill-rule:nonzero;"/>
        </g>
        <g transform="matrix(18,0,0,18,141.07,28.8369)">
            <path d="M0.062,-0L0.062,-0.418C0.062,-0.433 0.062,-0.448 0.061,-0.465L0.147,-0.465L0.15,-0.395C0.156,-0.403 0.163,-0.412 0.172,-0.422C0.181,-0.431 0.191,-0.44 0.204,-0.448C0.217,-0.456 0.232,-0.463 0.249,-0.468C0.266,-0.473 0.285,-0.476 0.306,-0.476C0.367,-0.476 0.412,-0.458 0.441,-0.423C0.47,-0.388 0.485,-0.34 0.485,-0.279L0.485,-0L0.395,-0L0.395,-0.272C0.395,-0.315 0.386,-0.347 0.367,-0.368C0.348,-0.388 0.322,-0.398 0.288,-0.398C0.262,-0.398 0.24,-0.393 0.223,-0.382C0.206,-0.371 0.192,-0.358 0.182,-0.341C0.171,-0.324 0.164,-0.304 0.159,-0.282C0.154,-0.261 0.152,-0.239 0.152,-0.216L0.152,-0L0.062,-0Z" style="fill-rule:nonzero;"/>
        </g>
        <g transform="matrix(18,0,0,18,150.603,28.8369)">
            <path d="M0.486,-0.068C0.481,-0.062 0.473,-0.054 0.462,-0.045C0.451,-0.036 0.438,-0.027 0.421,-0.018C0.404,-0.009 0.384,-0.002 0.361,0.004C0.338,0.011 0.311,0.014 0.282,0.014C0.246,0.014 0.213,0.008 0.183,-0.004C0.153,-0.016 0.127,-0.033 0.106,-0.055C0.085,-0.077 0.068,-0.103 0.057,-0.134C0.045,-0.165 0.039,-0.199 0.039,-0.236C0.039,-0.27 0.045,-0.302 0.056,-0.332C0.067,-0.361 0.083,-0.387 0.104,-0.408C0.125,-0.43 0.149,-0.447 0.178,-0.46C0.206,-0.473 0.237,-0.479 0.271,-0.479C0.311,-0.479 0.345,-0.471 0.374,-0.456C0.403,-0.441 0.426,-0.42 0.445,-0.395C0.463,-0.37 0.476,-0.341 0.485,-0.308C0.494,-0.275 0.498,-0.241 0.498,-0.206L0.131,-0.206C0.132,-0.185 0.136,-0.166 0.145,-0.149C0.153,-0.132 0.164,-0.117 0.178,-0.104C0.192,-0.091 0.208,-0.081 0.226,-0.074C0.244,-0.067 0.263,-0.063 0.283,-0.063C0.322,-0.063 0.355,-0.07 0.38,-0.083C0.405,-0.096 0.424,-0.109 0.435,-0.122L0.486,-0.068ZM0.405,-0.273C0.402,-0.309 0.39,-0.34 0.367,-0.365C0.344,-0.39 0.312,-0.403 0.271,-0.403C0.25,-0.403 0.231,-0.399 0.214,-0.392C0.197,-0.385 0.182,-0.375 0.17,-0.363C0.158,-0.351 0.149,-0.337 0.142,-0.322C0.135,-0.306 0.132,-0.29 0.131,-0.273L0.405,-0.273Z" style="fill-rule:nonzero;"/>
        </g>
        <g transform="matrix(18,0,0,18,159.993,28.8369)">
            <path d="M0.062,-0L0.062,-0.421C0.062,-0.435 0.062,-0.45 0.061,-0.465L0.147,-0.465L0.15,-0.39C0.155,-0.398 0.162,-0.407 0.171,-0.417C0.18,-0.426 0.19,-0.435 0.203,-0.443C0.215,-0.451 0.229,-0.458 0.246,-0.464C0.262,-0.469 0.281,-0.472 0.302,-0.472C0.312,-0.472 0.321,-0.471 0.33,-0.47C0.338,-0.469 0.346,-0.467 0.353,-0.464L0.333,-0.38C0.321,-0.385 0.306,-0.387 0.287,-0.387C0.268,-0.387 0.25,-0.383 0.234,-0.376C0.217,-0.369 0.203,-0.359 0.191,-0.345C0.179,-0.333 0.17,-0.317 0.163,-0.3C0.156,-0.283 0.152,-0.264 0.152,-0.245L0.152,-0L0.062,-0Z" style="fill-rule:nonzero;"/>
        </g>
        <g>
            <g transform="matrix(12,0,0,12,37.5503,66.1392)">
                <path d="M0.141,-0.08L0.253,-0.08L0.253,-0.535L0.123,-0.465L0.086,-0.536L0.263,-0.633L0.344,-0.633L0.344,-0.08L0.454,-0.08L0.454,-0L0.141,-0L0.141,-0.08Z" style="fill-rule:nonzero;"/>
            </g>
            <g transform="matrix(12,0,0,12,36.6503,106.179)">
                <path d="M0.068,-0.065C0.068,-0.1 0.076,-0.131 0.093,-0.158C0.11,-0.185 0.13,-0.21 0.153,-0.233C0.182,-0.262 0.209,-0.286 0.234,-0.307C0.26,-0.328 0.283,-0.347 0.302,-0.364C0.321,-0.381 0.337,-0.399 0.347,-0.416C0.359,-0.433 0.364,-0.452 0.364,-0.474C0.364,-0.484 0.362,-0.494 0.359,-0.505C0.355,-0.516 0.349,-0.526 0.34,-0.535C0.331,-0.544 0.32,-0.551 0.307,-0.557C0.294,-0.563 0.277,-0.566 0.257,-0.566C0.239,-0.566 0.223,-0.564 0.209,-0.559C0.195,-0.554 0.183,-0.547 0.172,-0.54C0.161,-0.533 0.152,-0.524 0.145,-0.515C0.138,-0.506 0.131,-0.497 0.125,-0.489L0.058,-0.537C0.065,-0.549 0.074,-0.562 0.086,-0.575C0.097,-0.588 0.111,-0.6 0.128,-0.611C0.144,-0.622 0.163,-0.63 0.186,-0.637C0.208,-0.645 0.234,-0.648 0.263,-0.648C0.297,-0.648 0.327,-0.643 0.352,-0.634C0.377,-0.625 0.397,-0.612 0.413,-0.597C0.429,-0.581 0.441,-0.563 0.449,-0.543C0.457,-0.523 0.461,-0.502 0.461,-0.48C0.461,-0.457 0.457,-0.435 0.449,-0.414C0.441,-0.394 0.43,-0.375 0.417,-0.358C0.404,-0.341 0.389,-0.324 0.372,-0.309C0.355,-0.293 0.337,-0.278 0.319,-0.264C0.298,-0.247 0.278,-0.231 0.26,-0.216C0.241,-0.201 0.225,-0.186 0.212,-0.171C0.198,-0.156 0.187,-0.142 0.18,-0.127C0.172,-0.112 0.168,-0.097 0.168,-0.082L0.468,-0.082L0.468,-0L0.068,-0L0.068,-0.065Z" style="fill-rule:nonzero;"/>
            </g>
            <g transform="matrix(12,0,0,12,36.6503,146.959)">
                <path d="M0.087,-0.118C0.104,-0.105 0.123,-0.092 0.146,-0.081C0.169,-0.069 0.197,-0.063 0.232,-0.063C0.274,-0.063 0.307,-0.074 0.332,-0.097C0.357,-0.12 0.369,-0.15 0.369,-0.188C0.369,-0.222 0.359,-0.25 0.338,-0.272C0.317,-0.294 0.286,-0.305 0.245,-0.305C0.233,-0.305 0.222,-0.304 0.212,-0.302C0.202,-0.3 0.192,-0.297 0.183,-0.294L0.154,-0.341L0.331,-0.547L0.079,-0.547L0.079,-0.63L0.441,-0.63L0.441,-0.558L0.279,-0.369C0.307,-0.369 0.332,-0.365 0.355,-0.356C0.378,-0.347 0.397,-0.335 0.413,-0.319C0.43,-0.303 0.442,-0.284 0.451,-0.262C0.46,-0.239 0.464,-0.214 0.464,-0.187C0.464,-0.154 0.458,-0.124 0.446,-0.099C0.434,-0.074 0.418,-0.053 0.397,-0.035C0.376,-0.019 0.351,-0.006 0.323,0.003C0.294,0.012 0.264,0.017 0.231,0.017C0.207,0.017 0.185,0.015 0.165,0.011C0.145,0.007 0.127,0.002 0.111,-0.005C0.095,-0.012 0.081,-0.019 0.068,-0.028C0.055,-0.036 0.044,-0.044 0.034,-0.053L0.087,-0.118Z" style="fill-rule:nonzero;"/>
            </g>
            <g transform="matrix(12,0,0,12,36.6503,186.999)">
                <path d="M0.049,-0.208L0.335,-0.631L0.426,-0.631L0.426,-0.209L0.494,-0.209L0.494,-0.131L0.426,-0.131L0.426,-0L0.339,-0L0.339,-0.131L0.049,-0.131L0.049,-0.208ZM0.339,-0.209L0.339,-0.51L0.138,-0.209L0.339,-0.209Z" style="fill-rule:nonzero;"/>
            </g>
            <g transform="matrix(12,0,0,12,36.6503,226.179)">
                <path d="M0.089,-0.118C0.108,-0.103 0.128,-0.09 0.151,-0.08C0.173,-0.069 0.201,-0.064 0.234,-0.064C0.257,-0.064 0.278,-0.068 0.295,-0.075C0.312,-0.082 0.327,-0.091 0.339,-0.103C0.35,-0.115 0.359,-0.129 0.365,-0.145C0.37,-0.161 0.373,-0.178 0.373,-0.197C0.373,-0.21 0.371,-0.223 0.367,-0.238C0.363,-0.253 0.356,-0.266 0.346,-0.279C0.336,-0.291 0.322,-0.301 0.305,-0.309C0.288,-0.317 0.266,-0.321 0.239,-0.321C0.212,-0.321 0.19,-0.318 0.174,-0.313C0.158,-0.308 0.143,-0.302 0.13,-0.295L0.084,-0.33L0.144,-0.63L0.453,-0.63L0.453,-0.546L0.207,-0.546L0.178,-0.381C0.185,-0.385 0.195,-0.389 0.21,-0.393C0.225,-0.396 0.242,-0.398 0.263,-0.398C0.293,-0.398 0.321,-0.394 0.345,-0.385C0.371,-0.376 0.392,-0.364 0.41,-0.346C0.428,-0.33 0.442,-0.309 0.452,-0.284C0.462,-0.26 0.467,-0.232 0.467,-0.2C0.467,-0.171 0.462,-0.143 0.453,-0.117C0.444,-0.091 0.429,-0.068 0.41,-0.048C0.391,-0.028 0.366,-0.012 0.336,-0.001C0.306,0.011 0.27,0.017 0.229,0.017C0.185,0.017 0.148,0.01 0.117,-0.003C0.086,-0.016 0.059,-0.033 0.038,-0.052L0.089,-0.118Z" style="fill-rule:nonzero;"/>
            </g>
            <g transform="matrix(12,0,0,12,36.6503,266.219)">
                <path d="M0.437,-0.534C0.435,-0.535 0.431,-0.538 0.426,-0.541C0.42,-0.544 0.412,-0.548 0.403,-0.552C0.394,-0.555 0.383,-0.559 0.371,-0.562C0.358,-0.565 0.345,-0.566 0.33,-0.566C0.302,-0.566 0.277,-0.56 0.256,-0.548C0.235,-0.536 0.217,-0.52 0.202,-0.5C0.187,-0.48 0.176,-0.457 0.168,-0.432C0.16,-0.406 0.156,-0.379 0.155,-0.352C0.17,-0.362 0.189,-0.373 0.212,-0.385C0.235,-0.396 0.265,-0.402 0.301,-0.402C0.362,-0.402 0.409,-0.384 0.444,-0.348C0.478,-0.312 0.495,-0.261 0.495,-0.195C0.495,-0.164 0.49,-0.135 0.48,-0.109C0.469,-0.083 0.455,-0.061 0.437,-0.042C0.418,-0.023 0.396,-0.009 0.371,0.001C0.346,0.012 0.318,0.017 0.288,0.017C0.217,0.017 0.162,-0.008 0.123,-0.058C0.083,-0.108 0.063,-0.184 0.063,-0.285C0.063,-0.341 0.069,-0.391 0.081,-0.436C0.092,-0.481 0.11,-0.519 0.133,-0.55C0.156,-0.581 0.184,-0.605 0.217,-0.622C0.25,-0.639 0.289,-0.647 0.333,-0.647C0.367,-0.647 0.397,-0.642 0.422,-0.632C0.447,-0.622 0.465,-0.613 0.478,-0.605L0.437,-0.534ZM0.154,-0.273C0.154,-0.207 0.164,-0.156 0.185,-0.118C0.206,-0.082 0.24,-0.063 0.287,-0.063C0.303,-0.063 0.318,-0.066 0.333,-0.072C0.348,-0.078 0.361,-0.087 0.372,-0.098C0.383,-0.109 0.392,-0.123 0.399,-0.14C0.406,-0.157 0.409,-0.176 0.409,-0.197C0.409,-0.233 0.4,-0.263 0.382,-0.286C0.363,-0.31 0.333,-0.322 0.292,-0.322C0.26,-0.322 0.233,-0.317 0.211,-0.308C0.188,-0.298 0.169,-0.286 0.154,-0.273Z" style="fill-rule:nonzero;"/>
            </g>
            <g transform="matrix(12,0,0,12,36.6503,306.999)">
                <path d="M0.14,-0C0.155,-0.047 0.174,-0.098 0.195,-0.152C0.216,-0.205 0.238,-0.257 0.261,-0.308C0.283,-0.359 0.305,-0.405 0.326,-0.447C0.346,-0.489 0.364,-0.522 0.379,-0.546L0.069,-0.546L0.069,-0.631L0.472,-0.631L0.472,-0.549C0.462,-0.534 0.451,-0.513 0.438,-0.487C0.425,-0.461 0.41,-0.432 0.396,-0.401C0.381,-0.369 0.365,-0.335 0.349,-0.299C0.334,-0.263 0.319,-0.227 0.305,-0.192C0.291,-0.157 0.278,-0.122 0.266,-0.089C0.254,-0.056 0.244,-0.026 0.237,-0L0.14,-0Z" style="fill-rule:nonzero;"/>
            </g>
            <g transform="matrix(12,0,0,12,36.6503,347.039)">
                <path d="M0.273,-0.379C0.305,-0.389 0.331,-0.404 0.35,-0.423C0.369,-0.442 0.379,-0.465 0.379,-0.491C0.379,-0.516 0.369,-0.536 0.35,-0.553C0.331,-0.569 0.305,-0.577 0.273,-0.577C0.241,-0.577 0.215,-0.569 0.196,-0.553C0.177,-0.536 0.167,-0.514 0.167,-0.486C0.167,-0.463 0.176,-0.442 0.195,-0.423C0.213,-0.404 0.239,-0.389 0.273,-0.379ZM0.269,-0.302C0.251,-0.297 0.234,-0.291 0.218,-0.282C0.202,-0.274 0.188,-0.265 0.176,-0.254C0.164,-0.243 0.155,-0.23 0.148,-0.217C0.141,-0.203 0.137,-0.188 0.137,-0.172C0.137,-0.152 0.141,-0.135 0.15,-0.121C0.158,-0.106 0.169,-0.095 0.182,-0.086C0.195,-0.077 0.209,-0.07 0.225,-0.066C0.241,-0.062 0.257,-0.06 0.273,-0.06C0.289,-0.06 0.305,-0.062 0.321,-0.066C0.337,-0.07 0.352,-0.077 0.365,-0.086C0.378,-0.095 0.388,-0.106 0.396,-0.121C0.404,-0.135 0.408,-0.152 0.408,-0.172C0.408,-0.188 0.404,-0.203 0.397,-0.217C0.389,-0.23 0.379,-0.243 0.366,-0.254C0.353,-0.265 0.338,-0.274 0.321,-0.282C0.304,-0.291 0.287,-0.297 0.269,-0.302ZM0.176,-0.344C0.149,-0.358 0.127,-0.377 0.108,-0.4C0.089,-0.423 0.08,-0.452 0.08,-0.486C0.08,-0.509 0.085,-0.531 0.094,-0.551C0.102,-0.571 0.115,-0.588 0.132,-0.603C0.149,-0.617 0.169,-0.628 0.193,-0.636C0.216,-0.644 0.243,-0.648 0.273,-0.648C0.304,-0.648 0.332,-0.644 0.356,-0.636C0.38,-0.628 0.4,-0.617 0.416,-0.603C0.432,-0.589 0.444,-0.573 0.453,-0.554C0.461,-0.535 0.465,-0.514 0.465,-0.492C0.465,-0.461 0.456,-0.432 0.439,-0.407C0.422,-0.382 0.397,-0.362 0.365,-0.347C0.377,-0.342 0.391,-0.334 0.406,-0.325C0.422,-0.316 0.437,-0.304 0.451,-0.289C0.465,-0.274 0.477,-0.257 0.487,-0.237C0.496,-0.218 0.501,-0.195 0.501,-0.17C0.501,-0.149 0.497,-0.127 0.489,-0.105C0.48,-0.083 0.467,-0.063 0.449,-0.045C0.43,-0.027 0.406,-0.012 0.378,-0.001C0.348,0.01 0.314,0.016 0.273,0.016C0.231,0.016 0.196,0.01 0.167,-0.001C0.138,-0.012 0.114,-0.027 0.096,-0.045C0.078,-0.063 0.065,-0.083 0.057,-0.105C0.048,-0.126 0.044,-0.148 0.044,-0.169C0.044,-0.191 0.048,-0.211 0.055,-0.229C0.062,-0.247 0.072,-0.263 0.085,-0.278C0.097,-0.293 0.111,-0.306 0.127,-0.317C0.143,-0.328 0.159,-0.337 0.176,-0.344Z" style="fill-rule:nonzero;"/>
            </g>
        </g>
        <g>
            <g transform="matrix(12,0,0,12,221.682,66.1382)">
                <path d="M0.141,-0.08L0.253,-0.08L0.253,-0.535L0.123,-0.465L0.086,-0.536L0.263,-0.633L0.344,-0.633L0.344,-0.08L0.454,-0.08L0.454,-0L0.141,-0L0.141,-0.08Z" style="fill:white;fill-rule:nonzero;"/>
            </g>
            <g transform="matrix(12,0,0,12,220.782,106.178)">
                <path d="M0.068,-0.065C0.068,-0.1 0.076,-0.131 0.093,-0.158C0.11,-0.185 0.13,-0.21 0.153,-0.233C0.182,-0.262 0.209,-0.286 0.234,-0.307C0.26,-0.328 0.283,-0.347 0.302,-0.364C0.321,-0.381 0.337,-0.399 0.347,-0.416C0.359,-0.433 0.364,-0.452 0.364,-0.474C0.364,-0.484 0.362,-0.494 0.359,-0.505C0.355,-0.516 0.349,-0.526 0.34,-0.535C0.331,-0.544 0.32,-0.551 0.307,-0.557C0.294,-0.563 0.277,-0.566 0.257,-0.566C0.239,-0.566 0.223,-0.564 0.209,-0.559C0.195,-0.554 0.183,-0.547 0.172,-0.54C0.161,-0.533 0.152,-0.524 0.145,-0.515C0.138,-0.506 0.131,-0.497 0.125,-0.489L0.058,-0.537C0.065,-0.549 0.074,-0.562 0.086,-0.575C0.097,-0.588 0.111,-0.6 0.128,-0.611C0.144,-0.622 0.163,-0.63 0.186,-0.637C0.208,-0.645 0.234,-0.648 0.263,-0.648C0.297,-0.648 0.327,-0.643 0.352,-0.634C0.377,-0.625 0.397,-0.612 0.413,-0.597C0.429,-0.581 0.441,-0.563 0.449,-0.543C0.457,-0.523 0.461,-0.502 0.461,-0.48C0.461,-0.457 0.457,-0.435 0.449,-0.414C0.441,-0.394 0.43,-0.375 0.417,-0.358C0.404,-0.341 0.389,-0.324 0.372,-0.309C0.355,-0.293 0.337,-0.278 0.319,-0.264C0.298,-0.247 0.278,-0.231 0.26,-0.216C0.241,-0.201 0.225,-0.186 0.212,-0.171C0.198,-0.156 0.187,-0.142 0.18,-0.127C0.172,-0.112 0.168,-0.097 0.168,-0.082L0.468,-0.082L0.468,-0L0.068,-0L0.068,-0.065Z" style="fill:white;fill-rule:nonzero;"/>
            </g>
            <g transform="matrix(12,0,0,12,220.782,146.958)">
                <path d="M0.087,-0.118C0.104,-0.105 0.123,-0.092 0.146,-0.081C0.169,-0.069 0.197,-0.063 0.232,-0.063C0.274,-0.063 0.307,-0.074 0.332,-0.097C0.357,-0.12 0.369,-0.15 0.369,-0.188C0.369,-0.222 0.359,-0.25 0.338,-0.272C0.317,-0.294 0.286,-0.305 0.245,-0.305C0.233,-0.305 0.222,-0.304 0.212,-0.302C0.202,-0.3 0.192,-0.297 0.183,-0.294L0.154,-0.341L0.331,-0.547L0.079,-0.547L0.079,-0.63L0.441,-0.63L0.441,-0.558L0.279,-0.369C0.307,-0.369 0.332,-0.365 0.355,-0.356C0.378,-0.347 0.397,-0.335 0.413,-0.319C0.43,-0.303 0.442,-0.284 0.451,-0.262C0.46,-0.239 0.464,-0.214 0.464,-0.187C0.464,-0.154 0.458,-0.124 0.446,-0.099C0.434,-0.074 0.418,-0.053 0.397,-0.035C0.376,-0.019 0.351,-0.006 0.323,0.003C0.294,0.012 0.264,0.017 0.231,0.017C0.207,0.017 0.185,0.015 0.165,0.011C0.145,0.007 0.127,0.002 0.111,-0.005C0.095,-0.012 0.081,-0.019 0.068,-0.028C0.055,-0.036 0.044,-0.044 0.034,-0.053L0.087,-0.118Z" style="fill:white;fill-rule:nonzero;"/>
            </g>
            <g transform="matrix(12,0,0,12,220.782,186.998)">
                <path d="M0.049,-0.208L0.335,-0.631L0.426,-0.631L0.426,-0.209L0.494,-0.209L0.494,-0.131L0.426,-0.131L0.426,-0L0.339,-0L0.339,-0.131L0.049,-0.131L0.049,-0.208ZM0.339,-0.209L0.339,-0.51L0.138,-0.209L0.339,-0.209Z" style="fill:white;fill-rule:nonzero;"/>
            </g>
            <g transform="matrix(12,0,0,12,220.782,226.178)">
                <path d="M0.089,-0.118C0.108,-0.103 0.128,-0.09 0.151,-0.08C0.173,-0.069 0.201,-0.064 0.234,-0.064C0.257,-0.064 0.278,-0.068 0.295,-0.075C0.312,-0.082 0.327,-0.091 0.339,-0.103C0.35,-0.115 0.359,-0.129 0.365,-0.145C0.37,-0.161 0.373,-0.178 0.373,-0.197C0.373,-0.21 0.371,-0.223 0.367,-0.238C0.363,-0.253 0.356,-0.266 0.346,-0.279C0.336,-0.291 0.322,-0.301 0.305,-0.309C0.288,-0.317 0.266,-0.321 0.239,-0.321C0.212,-0.321 0.19,-0.318 0.174,-0.313C0.158,-0.308 0.143,-0.302 0.13,-0.295L0.084,-0.33L0.144,-0.63L0.453,-0.63L0.453,-0.546L0.207,-0.546L0.178,-0.381C0.185,-0.385 0.195,-0.389 0.21,-0.393C0.225,-0.396 0.242,-0.398 0.263,-0.398C0.293,-0.398 0.321,-0.394 0.345,-0.385C0.371,-0.376 0.392,-0.364 0.41,-0.346C0.428,-0.33 0.442,-0.309 0.452,-0.284C0.462,-0.26 0.467,-0.232 0.467,-0.2C0.467,-0.171 0.462,-0.143 0.453,-0.117C0.444,-0.091 0.429,-0.068 0.41,-0.048C0.391,-0.028 0.366,-0.012 0.336,-0.001C0.306,0.011 0.27,0.017 0.229,0.017C0.185,0.017 0.148,0.01 0.117,-0.003C0.086,-0.016 0.059,-0.033 0.038,-0.052L0.089,-0.118Z" style="fill:white;fill-rule:nonzero;"/>
            </g>
            <g transform="matrix(12,0,0,12,220.782,266.218)">
                <path d="M0.437,-0.534C0.435,-0.535 0.431,-0.538 0.426,-0.541C0.42,-0.544 0.412,-0.548 0.403,-0.552C0.394,-0.555 0.383,-0.559 0.371,-0.562C0.358,-0.565 0.345,-0.566 0.33,-0.566C0.302,-0.566 0.277,-0.56 0.256,-0.548C0.235,-0.536 0.217,-0.52 0.202,-0.5C0.187,-0.48 0.176,-0.457 0.168,-0.432C0.16,-0.406 0.156,-0.379 0.155,-0.352C0.17,-0.362 0.189,-0.373 0.212,-0.385C0.235,-0.396 0.265,-0.402 0.301,-0.402C0.362,-0.402 0.409,-0.384 0.444,-0.348C0.478,-0.312 0.495,-0.261 0.495,-0.195C0.495,-0.164 0.49,-0.135 0.48,-0.109C0.469,-0.083 0.455,-0.061 0.437,-0.042C0.418,-0.023 0.396,-0.009 0.371,0.001C0.346,0.012 0.318,0.017 0.288,0.017C0.217,0.017 0.162,-0.008 0.123,-0.058C0.083,-0.108 0.063,-0.184 0.063,-0.285C0.063,-0.341 0.069,-0.391 0.081,-0.436C0.092,-0.481 0.11,-0.519 0.133,-0.55C0.156,-0.581 0.184,-0.605 0.217,-0.622C0.25,-0.639 0.289,-0.647 0.333,-0.647C0.367,-0.647 0.397,-0.642 0.422,-0.632C0.447,-0.622 0.465,-0.613 0.478,-0.605L0.437,-0.534ZM0.154,-0.273C0.154,-0.207 0.164,-0.156 0.185,-0.118C0.206,-0.082 0.24,-0.063 0.287,-0.063C0.303,-0.063 0.318,-0.066 0.333,-0.072C0.348,-0.078 0.361,-0.087 0.372,-0.098C0.383,-0.109 0.392,-0.123 0.399,-0.14C0.406,-0.157 0.409,-0.176 0.409,-0.197C0.409,-0.233 0.4,-0.263 0.382,-0.286C0.363,-0.31 0.333,-0.322 0.292,-0.322C0.26,-0.322 0.233,-0.317 0.211,-0.308C0.188,-0.298 0.169,-0.286 0.154,-0.273Z" style="fill:white;fill-rule:nonzero;"/>
            </g>
            <g transform="matrix(12,0,0,12,220.782,306.998)">
                <path d="M0.14,-0C0.155,-0.047 0.174,-0.098 0.195,-0.152C0.216,-0.205 0.238,-0.257 0.261,-0.308C0.283,-0.359 0.305,-0.405 0.326,-0.447C0.346,-0.489 0.364,-0.522 0.379,-0.546L0.069,-0.546L0.069,-0.631L0.472,-0.631L0.472,-0.549C0.462,-0.534 0.451,-0.513 0.438,-0.487C0.425,-0.461 0.41,-0.432 0.396,-0.401C0.381,-0.369 0.365,-0.335 0.349,-0.299C0.334,-0.263 0.319,-0.227 0.305,-0.192C0.291,-0.157 0.278,-0.122 0.266,-0.089C0.254,-0.056 0.244,-0.026 0.237,-0L0.14,-0Z" style="fill:white;fill-rule:nonzero;"/>
            </g>
            <g transform="matrix(12,0,0,12,220.782,347.038)">
                <path d="M0.273,-0.379C0.305,-0.389 0.331,-0.404 0.35,-0.423C0.369,-0.442 0.379,-0.465 0.379,-0.491C0.379,-0.516 0.369,-0.536 0.35,-0.553C0.331,-0.569 0.305,-0.577 0.273,-0.577C0.241,-0.577 0.215,-0.569 0.196,-0.553C0.177,-0.536 0.167,-0.514 0.167,-0.486C0.167,-0.463 0.176,-0.442 0.195,-0.423C0.213,-0.404 0.239,-0.389 0.273,-0.379ZM0.269,-0.302C0.251,-0.297 0.234,-0.291 0.218,-0.282C0.202,-0.274 0.188,-0.265 0.176,-0.254C0.164,-0.243 0.155,-0.23 0.148,-0.217C0.141,-0.203 0.137,-0.188 0.137,-0.172C0.137,-0.152 0.141,-0.135 0.15,-0.121C0.158,-0.106 0.169,-0.095 0.182,-0.086C0.195,-0.077 0.209,-0.07 0.225,-0.066C0.241,-0.062 0.257,-0.06 0.273,-0.06C0.289,-0.06 0.305,-0.062 0.321,-0.066C0.337,-0.07 0.352,-0.077 0.365,-0.086C0.378,-0.095 0.388,-0.106 0.396,-0.121C0.404,-0.135 0.408,-0.152 0.408,-0.172C0.408,-0.188 0.404,-0.203 0.397,-0.217C0.389,-0.23 0.379,-0.243 0.366,-0.254C0.353,-0.265 0.338,-0.274 0.321,-0.282C0.304,-0.291 0.287,-0.297 0.269,-0.302ZM0.176,-0.344C0.149,-0.358 0.127,-0.377 0.108,-0.4C0.089,-0.423 0.08,-0.452 0.08,-0.486C0.08,-0.509 0.085,-0.531 0.094,-0.551C0.102,-0.571 0.115,-0.588 0.132,-0.603C0.149,-0.617 0.169,-0.628 0.193,-0.636C0.216,-0.644 0.243,-0.648 0.273,-0.648C0.304,-0.648 0.332,-0.644 0.356,-0.636C0.38,-0.628 0.4,-0.617 0.416,-0.603C0.432,-0.589 0.444,-0.573 0.453,-0.554C0.461,-0.535 0.465,-0.514 0.465,-0.492C0.465,-0.461 0.456,-0.432 0.439,-0.407C0.422,-0.382 0.397,-0.362 0.365,-0.347C0.377,-0.342 0.391,-0.334 0.406,-0.325C0.422,-0.316 0.437,-0.304 0.451,-0.289C0.465,-0.274 0.477,-0.257 0.487,-0.237C0.496,-0.218 0.501,-0.195 0.501,-0.17C0.501,-0.149 0.497,-0.127 0.489,-0.105C0.48,-0.083 0.467,-0.063 0.449,-0.045C0.43,-0.027 0.406,-0.012 0.378,-0.001C0.348,0.01 0.314,0.016 0.273,0.016C0.231,0.016 0.196,0.01 0.167,-0.001C0.138,-0.012 0.114,-0.027 0.096,-0.045C0.078,-0.063 0.065,-0.083 0.057,-0.105C0.048,-0.126 0.044,-0.148 0.044,-0.169C0.044,-0.191 0.048,-0.211 0.055,-0.229C0.062,-0.247 0.072,-0.263 0.085,-0.278C0.097,-0.293 0.111,-0.306 0.127,-0.317C0.143,-0.328 0.159,-0.337 0.176,-0.344Z" style="fill:white;fill-rule:nonzero;"/>
            </g>
        </g>
        <g>
            <g transform="matrix(12,0,0,12,167.418,87.0062)">
                <path d="M0.105,-0.162C0.114,-0.151 0.125,-0.141 0.137,-0.13C0.148,-0.118 0.161,-0.109 0.176,-0.1C0.191,-0.091 0.207,-0.084 0.225,-0.079C0.243,-0.074 0.263,-0.071 0.284,-0.071C0.328,-0.071 0.362,-0.081 0.387,-0.101C0.412,-0.121 0.424,-0.148 0.424,-0.182C0.424,-0.219 0.41,-0.246 0.382,-0.265C0.354,-0.283 0.314,-0.298 0.261,-0.309C0.232,-0.315 0.206,-0.323 0.183,-0.334C0.16,-0.345 0.14,-0.358 0.123,-0.374C0.106,-0.39 0.092,-0.408 0.083,-0.43C0.074,-0.451 0.069,-0.474 0.069,-0.501C0.069,-0.526 0.074,-0.549 0.083,-0.571C0.092,-0.593 0.106,-0.612 0.125,-0.629C0.144,-0.646 0.167,-0.659 0.195,-0.669C0.223,-0.679 0.255,-0.684 0.292,-0.684C0.325,-0.684 0.353,-0.681 0.377,-0.674C0.4,-0.667 0.42,-0.658 0.437,-0.648C0.454,-0.638 0.467,-0.628 0.477,-0.617C0.487,-0.606 0.495,-0.598 0.5,-0.591L0.436,-0.532C0.432,-0.537 0.426,-0.543 0.418,-0.551C0.41,-0.558 0.4,-0.566 0.388,-0.573C0.375,-0.58 0.361,-0.587 0.344,-0.592C0.328,-0.597 0.309,-0.599 0.288,-0.599C0.267,-0.599 0.248,-0.596 0.233,-0.591C0.218,-0.585 0.205,-0.578 0.195,-0.569C0.185,-0.56 0.178,-0.549 0.173,-0.538C0.168,-0.527 0.166,-0.515 0.166,-0.504C0.166,-0.487 0.17,-0.473 0.177,-0.462C0.184,-0.45 0.194,-0.44 0.207,-0.431C0.22,-0.422 0.237,-0.414 0.257,-0.407C0.276,-0.401 0.299,-0.395 0.324,-0.389C0.349,-0.383 0.373,-0.375 0.397,-0.366C0.42,-0.356 0.441,-0.343 0.46,-0.327C0.479,-0.31 0.494,-0.29 0.504,-0.267C0.516,-0.243 0.521,-0.214 0.521,-0.18C0.521,-0.151 0.515,-0.125 0.503,-0.101C0.491,-0.077 0.474,-0.056 0.454,-0.039C0.433,-0.021 0.408,-0.007 0.379,0.002C0.35,0.012 0.319,0.017 0.286,0.017C0.255,0.017 0.226,0.013 0.201,0.006C0.175,-0.001 0.152,-0.011 0.131,-0.022C0.11,-0.033 0.091,-0.046 0.076,-0.059C0.06,-0.073 0.047,-0.087 0.037,-0.1L0.105,-0.162Z" style="fill-rule:nonzero;"/>
            </g>
            <g transform="matrix(12,0,0,12,174.11,87.0062)">
                <path d="M0.466,-0.064C0.445,-0.041 0.42,-0.022 0.39,-0.008C0.359,0.007 0.324,0.014 0.284,0.014C0.247,0.014 0.213,0.008 0.183,-0.005C0.152,-0.017 0.127,-0.034 0.106,-0.056C0.085,-0.077 0.068,-0.103 0.057,-0.134C0.046,-0.164 0.04,-0.197 0.04,-0.233C0.04,-0.267 0.046,-0.299 0.058,-0.329C0.07,-0.359 0.087,-0.385 0.109,-0.407C0.13,-0.43 0.156,-0.448 0.186,-0.461C0.215,-0.473 0.248,-0.48 0.284,-0.48C0.323,-0.48 0.358,-0.473 0.388,-0.459C0.418,-0.445 0.444,-0.426 0.465,-0.402L0.406,-0.345C0.392,-0.362 0.375,-0.376 0.355,-0.386C0.335,-0.396 0.311,-0.401 0.284,-0.401C0.26,-0.401 0.238,-0.397 0.22,-0.388C0.201,-0.379 0.185,-0.366 0.172,-0.35C0.159,-0.335 0.149,-0.317 0.141,-0.297C0.135,-0.276 0.131,-0.255 0.131,-0.233C0.131,-0.212 0.135,-0.191 0.141,-0.171C0.149,-0.15 0.159,-0.132 0.172,-0.117C0.185,-0.101 0.201,-0.088 0.22,-0.079C0.238,-0.07 0.26,-0.065 0.284,-0.065C0.311,-0.065 0.336,-0.07 0.358,-0.081C0.379,-0.091 0.397,-0.105 0.411,-0.122L0.466,-0.064Z" style="fill-rule:nonzero;"/>
            </g>
            <g transform="matrix(12,0,0,12,179.734,87.0062)">
                <path d="M0.352,-0.22C0.349,-0.221 0.344,-0.222 0.337,-0.223C0.329,-0.224 0.32,-0.224 0.31,-0.225C0.3,-0.226 0.289,-0.226 0.278,-0.227C0.267,-0.228 0.256,-0.228 0.245,-0.228C0.22,-0.228 0.199,-0.225 0.184,-0.219C0.168,-0.213 0.156,-0.205 0.147,-0.197C0.138,-0.188 0.131,-0.178 0.128,-0.167C0.125,-0.156 0.123,-0.145 0.123,-0.135C0.123,-0.11 0.132,-0.091 0.149,-0.078C0.166,-0.065 0.19,-0.058 0.221,-0.058C0.238,-0.058 0.255,-0.061 0.271,-0.067C0.286,-0.073 0.3,-0.081 0.312,-0.091C0.324,-0.101 0.334,-0.113 0.341,-0.126C0.348,-0.139 0.352,-0.153 0.352,-0.167L0.352,-0.22ZM0.353,-0.056C0.336,-0.033 0.313,-0.015 0.284,-0.004C0.256,0.007 0.227,0.013 0.197,0.013C0.178,0.013 0.159,0.01 0.14,0.005C0.121,0 0.103,-0.008 0.087,-0.02C0.072,-0.031 0.059,-0.046 0.05,-0.065C0.04,-0.083 0.035,-0.105 0.035,-0.132C0.035,-0.182 0.053,-0.222 0.087,-0.252C0.123,-0.282 0.173,-0.297 0.239,-0.297C0.25,-0.297 0.261,-0.297 0.273,-0.296C0.285,-0.295 0.296,-0.295 0.307,-0.294C0.318,-0.293 0.327,-0.293 0.335,-0.292C0.343,-0.291 0.349,-0.291 0.352,-0.29L0.352,-0.307C0.352,-0.342 0.342,-0.367 0.321,-0.382C0.3,-0.397 0.271,-0.404 0.235,-0.404C0.2,-0.404 0.172,-0.399 0.151,-0.39C0.13,-0.38 0.113,-0.37 0.099,-0.36L0.057,-0.421C0.065,-0.428 0.075,-0.434 0.086,-0.441C0.097,-0.448 0.111,-0.454 0.126,-0.46C0.141,-0.465 0.159,-0.47 0.178,-0.473C0.197,-0.477 0.22,-0.479 0.245,-0.479C0.305,-0.479 0.352,-0.465 0.387,-0.436C0.421,-0.406 0.438,-0.365 0.438,-0.312L0.438,-0.042C0.438,-0.025 0.438,-0.011 0.439,-0L0.355,-0L0.353,-0.056Z" style="fill-rule:nonzero;"/>
            </g>
            <g transform="matrix(12,0,0,12,185.43,87.0062)">
                <path d="M0.062,-0L0.062,-0.418C0.062,-0.433 0.062,-0.448 0.061,-0.465L0.147,-0.465L0.15,-0.395C0.156,-0.403 0.163,-0.412 0.172,-0.422C0.181,-0.431 0.191,-0.44 0.204,-0.448C0.217,-0.456 0.232,-0.463 0.249,-0.468C0.266,-0.473 0.285,-0.476 0.306,-0.476C0.367,-0.476 0.412,-0.458 0.441,-0.423C0.47,-0.388 0.485,-0.34 0.485,-0.279L0.485,-0L0.395,-0L0.395,-0.272C0.395,-0.315 0.386,-0.347 0.367,-0.368C0.348,-0.388 0.322,-0.398 0.288,-0.398C0.262,-0.398 0.24,-0.393 0.223,-0.382C0.206,-0.371 0.192,-0.358 0.182,-0.341C0.171,-0.324 0.164,-0.304 0.159,-0.282C0.154,-0.261 0.152,-0.239 0.152,-0.216L0.152,-0L0.062,-0Z" style="fill-rule:nonzero;"/>
            </g>
            <g transform="matrix(12,0,0,12,157.446,146.956)">
                <path d="M0.105,-0.162C0.114,-0.151 0.125,-0.141 0.137,-0.13C0.148,-0.118 0.161,-0.109 0.176,-0.1C0.191,-0.091 0.207,-0.084 0.225,-0.079C0.243,-0.074 0.263,-0.071 0.284,-0.071C0.328,-0.071 0.362,-0.081 0.387,-0.101C0.412,-0.121 0.424,-0.148 0.424,-0.182C0.424,-0.219 0.41,-0.246 0.382,-0.265C0.354,-0.283 0.314,-0.298 0.261,-0.309C0.232,-0.315 0.206,-0.323 0.183,-0.334C0.16,-0.345 0.14,-0.358 0.123,-0.374C0.106,-0.39 0.092,-0.408 0.083,-0.43C0.074,-0.451 0.069,-0.474 0.069,-0.501C0.069,-0.526 0.074,-0.549 0.083,-0.571C0.092,-0.593 0.106,-0.612 0.125,-0.629C0.144,-0.646 0.167,-0.659 0.195,-0.669C0.223,-0.679 0.255,-0.684 0.292,-0.684C0.325,-0.684 0.353,-0.681 0.377,-0.674C0.4,-0.667 0.42,-0.658 0.437,-0.648C0.454,-0.638 0.467,-0.628 0.477,-0.617C0.487,-0.606 0.495,-0.598 0.5,-0.591L0.436,-0.532C0.432,-0.537 0.426,-0.543 0.418,-0.551C0.41,-0.558 0.4,-0.566 0.388,-0.573C0.375,-0.58 0.361,-0.587 0.344,-0.592C0.328,-0.597 0.309,-0.599 0.288,-0.599C0.267,-0.599 0.248,-0.596 0.233,-0.591C0.218,-0.585 0.205,-0.578 0.195,-0.569C0.185,-0.56 0.178,-0.549 0.173,-0.538C0.168,-0.527 0.166,-0.515 0.166,-0.504C0.166,-0.487 0.17,-0.473 0.177,-0.462C0.184,-0.45 0.194,-0.44 0.207,-0.431C0.22,-0.422 0.237,-0.414 0.257,-0.407C0.276,-0.401 0.299,-0.395 0.324,-0.389C0.349,-0.383 0.373,-0.375 0.397,-0.366C0.42,-0.356 0.441,-0.343 0.46,-0.327C0.479,-0.31 0.494,-0.29 0.504,-0.267C0.516,-0.243 0.521,-0.214 0.521,-0.18C0.521,-0.151 0.515,-0.125 0.503,-0.101C0.491,-0.077 0.474,-0.056 0.454,-0.039C0.433,-0.021 0.408,-0.007 0.379,0.002C0.35,0.012 0.319,0.017 0.286,0.017C0.255,0.017 0.226,0.013 0.201,0.006C0.175,-0.001 0.152,-0.011 0.131,-0.022C0.11,-0.033 0.091,-0.046 0.076,-0.059C0.06,-0.073 0.047,-0.087 0.037,-0.1L0.105,-0.162Z" style="fill-rule:nonzero;"/>
            </g>
            <g transform="matrix(12,0,0,12,163.88,146.956)">
                <path d="M0.102,-0.39L0.018,-0.39L0.018,-0.465L0.102,-0.465L0.102,-0.617L0.192,-0.617L0.192,-0.465L0.328,-0.465L0.328,-0.39L0.192,-0.39L0.192,-0.161C0.192,-0.124 0.198,-0.098 0.21,-0.084C0.221,-0.07 0.238,-0.063 0.259,-0.063C0.276,-0.063 0.291,-0.066 0.302,-0.071C0.313,-0.076 0.325,-0.084 0.336,-0.095L0.377,-0.04C0.358,-0.021 0.338,-0.008 0.318,0C0.297,0.009 0.273,0.013 0.245,0.013C0.196,0.013 0.16,-0 0.137,-0.027C0.114,-0.054 0.102,-0.095 0.102,-0.152L0.102,-0.39Z" style="fill-rule:nonzero;"/>
            </g>
            <g transform="matrix(12,0,0,12,168.358,146.956)">
                <path d="M0.352,-0.22C0.349,-0.221 0.344,-0.222 0.337,-0.223C0.329,-0.224 0.32,-0.224 0.31,-0.225C0.3,-0.226 0.289,-0.226 0.278,-0.227C0.267,-0.228 0.256,-0.228 0.245,-0.228C0.22,-0.228 0.199,-0.225 0.184,-0.219C0.168,-0.213 0.156,-0.205 0.147,-0.197C0.138,-0.188 0.131,-0.178 0.128,-0.167C0.125,-0.156 0.123,-0.145 0.123,-0.135C0.123,-0.11 0.132,-0.091 0.149,-0.078C0.166,-0.065 0.19,-0.058 0.221,-0.058C0.238,-0.058 0.255,-0.061 0.271,-0.067C0.286,-0.073 0.3,-0.081 0.312,-0.091C0.324,-0.101 0.334,-0.113 0.341,-0.126C0.348,-0.139 0.352,-0.153 0.352,-0.167L0.352,-0.22ZM0.353,-0.056C0.336,-0.033 0.313,-0.015 0.284,-0.004C0.256,0.007 0.227,0.013 0.197,0.013C0.178,0.013 0.159,0.01 0.14,0.005C0.121,0 0.103,-0.008 0.087,-0.02C0.072,-0.031 0.059,-0.046 0.05,-0.065C0.04,-0.083 0.035,-0.105 0.035,-0.132C0.035,-0.182 0.053,-0.222 0.087,-0.252C0.123,-0.282 0.173,-0.297 0.239,-0.297C0.25,-0.297 0.261,-0.297 0.273,-0.296C0.285,-0.295 0.296,-0.295 0.307,-0.294C0.318,-0.293 0.327,-0.293 0.335,-0.292C0.343,-0.291 0.349,-0.291 0.352,-0.29L0.352,-0.307C0.352,-0.342 0.342,-0.367 0.321,-0.382C0.3,-0.397 0.271,-0.404 0.235,-0.404C0.2,-0.404 0.172,-0.399 0.151,-0.39C0.13,-0.38 0.113,-0.37 0.099,-0.36L0.057,-0.421C0.065,-0.428 0.075,-0.434 0.086,-0.441C0.097,-0.448 0.111,-0.454 0.126,-0.46C0.141,-0.465 0.159,-0.47 0.178,-0.473C0.197,-0.477 0.22,-0.479 0.245,-0.479C0.305,-0.479 0.352,-0.465 0.387,-0.436C0.421,-0.406 0.438,-0.365 0.438,-0.312L0.438,-0.042C0.438,-0.025 0.438,-0.011 0.439,-0L0.355,-0L0.353,-0.056Z" style="fill-rule:nonzero;"/>
            </g>
            <g transform="matrix(12,0,0,12,174.217,146.956)">
                <path d="M0.396,-0.383C0.39,-0.385 0.38,-0.388 0.366,-0.392C0.351,-0.395 0.33,-0.397 0.301,-0.397C0.276,-0.397 0.253,-0.393 0.232,-0.385C0.211,-0.376 0.194,-0.365 0.179,-0.349C0.164,-0.335 0.152,-0.317 0.143,-0.296C0.135,-0.275 0.131,-0.253 0.131,-0.228C0.131,-0.207 0.134,-0.187 0.139,-0.168C0.143,-0.149 0.152,-0.133 0.163,-0.119C0.173,-0.105 0.187,-0.094 0.204,-0.086C0.221,-0.078 0.241,-0.074 0.265,-0.074C0.287,-0.074 0.306,-0.077 0.323,-0.084C0.34,-0.091 0.353,-0.1 0.364,-0.111C0.375,-0.122 0.383,-0.134 0.388,-0.148C0.393,-0.161 0.396,-0.175 0.396,-0.19L0.396,-0.383ZM0.124,0.095C0.139,0.106 0.158,0.115 0.181,0.122C0.203,0.13 0.23,0.134 0.262,0.134C0.307,0.134 0.34,0.122 0.362,0.097C0.384,0.072 0.395,0.04 0.395,-0L0.395,-0.057C0.39,-0.053 0.384,-0.048 0.377,-0.041C0.369,-0.034 0.359,-0.027 0.347,-0.021C0.336,-0.014 0.322,-0.009 0.306,-0.004C0.29,0.001 0.272,0.004 0.251,0.004C0.217,0.004 0.187,-0.002 0.161,-0.014C0.134,-0.025 0.112,-0.041 0.094,-0.062C0.076,-0.082 0.062,-0.106 0.053,-0.135C0.044,-0.163 0.039,-0.194 0.039,-0.227C0.039,-0.263 0.045,-0.296 0.058,-0.327C0.071,-0.357 0.089,-0.383 0.112,-0.406C0.135,-0.428 0.162,-0.445 0.194,-0.458C0.226,-0.47 0.262,-0.476 0.301,-0.476C0.339,-0.476 0.374,-0.473 0.407,-0.466C0.44,-0.459 0.466,-0.452 0.486,-0.444L0.486,-0C0.486,0.067 0.467,0.119 0.428,0.156C0.389,0.193 0.334,0.212 0.263,0.212C0.216,0.212 0.178,0.207 0.15,0.196C0.122,0.186 0.099,0.174 0.082,0.161L0.124,0.095Z" style="fill-rule:nonzero;"/>
            </g>
            <g transform="matrix(12,0,0,12,180.651,146.956)">
                <path d="M0.486,-0.068C0.481,-0.062 0.473,-0.054 0.462,-0.045C0.451,-0.036 0.438,-0.027 0.421,-0.018C0.404,-0.009 0.384,-0.002 0.361,0.004C0.338,0.011 0.311,0.014 0.282,0.014C0.246,0.014 0.213,0.008 0.183,-0.004C0.153,-0.016 0.127,-0.033 0.106,-0.055C0.085,-0.077 0.068,-0.103 0.057,-0.134C0.045,-0.165 0.039,-0.199 0.039,-0.236C0.039,-0.27 0.045,-0.302 0.056,-0.332C0.067,-0.361 0.083,-0.387 0.104,-0.408C0.125,-0.43 0.149,-0.447 0.178,-0.46C0.206,-0.473 0.237,-0.479 0.271,-0.479C0.311,-0.479 0.345,-0.471 0.374,-0.456C0.403,-0.441 0.426,-0.42 0.445,-0.395C0.463,-0.37 0.476,-0.341 0.485,-0.308C0.494,-0.275 0.498,-0.241 0.498,-0.206L0.131,-0.206C0.132,-0.185 0.136,-0.166 0.145,-0.149C0.153,-0.132 0.164,-0.117 0.178,-0.104C0.192,-0.091 0.208,-0.081 0.226,-0.074C0.244,-0.067 0.263,-0.063 0.283,-0.063C0.322,-0.063 0.355,-0.07 0.38,-0.083C0.405,-0.096 0.424,-0.109 0.435,-0.122L0.486,-0.068ZM0.405,-0.273C0.402,-0.309 0.39,-0.34 0.367,-0.365C0.344,-0.39 0.312,-0.403 0.271,-0.403C0.25,-0.403 0.231,-0.399 0.214,-0.392C0.197,-0.385 0.182,-0.375 0.17,-0.363C0.158,-0.351 0.149,-0.337 0.142,-0.322C0.135,-0.306 0.132,-0.29 0.131,-0.273L0.405,-0.273Z" style="fill-rule:nonzero;"/>
            </g>
            <g transform="matrix(12,0,0,12,186.954,146.956)">
                <path d="M0.092,-0.117C0.109,-0.1 0.129,-0.087 0.152,-0.077C0.175,-0.067 0.202,-0.062 0.233,-0.062C0.263,-0.062 0.288,-0.067 0.308,-0.077C0.328,-0.086 0.338,-0.101 0.338,-0.122C0.338,-0.133 0.336,-0.142 0.332,-0.15C0.327,-0.157 0.32,-0.164 0.31,-0.17C0.299,-0.176 0.285,-0.182 0.269,-0.187C0.252,-0.192 0.23,-0.197 0.205,-0.203C0.187,-0.207 0.169,-0.212 0.152,-0.219C0.134,-0.226 0.118,-0.234 0.104,-0.246C0.09,-0.257 0.079,-0.27 0.07,-0.285C0.061,-0.301 0.057,-0.32 0.057,-0.342C0.057,-0.365 0.062,-0.385 0.073,-0.402C0.083,-0.419 0.097,-0.433 0.114,-0.445C0.131,-0.456 0.151,-0.465 0.172,-0.471C0.194,-0.477 0.217,-0.48 0.24,-0.48C0.279,-0.48 0.313,-0.475 0.342,-0.465C0.37,-0.454 0.395,-0.44 0.416,-0.421L0.367,-0.359C0.353,-0.372 0.336,-0.382 0.315,-0.391C0.294,-0.4 0.269,-0.404 0.241,-0.404C0.212,-0.404 0.189,-0.399 0.172,-0.39C0.155,-0.381 0.146,-0.365 0.146,-0.344C0.146,-0.324 0.158,-0.309 0.181,-0.3C0.203,-0.29 0.234,-0.281 0.271,-0.272C0.293,-0.267 0.314,-0.261 0.333,-0.254C0.352,-0.247 0.368,-0.237 0.383,-0.227C0.397,-0.216 0.408,-0.202 0.417,-0.186C0.425,-0.17 0.429,-0.151 0.429,-0.128C0.429,-0.105 0.424,-0.084 0.413,-0.067C0.402,-0.049 0.388,-0.034 0.37,-0.022C0.352,-0.01 0.331,-0.001 0.308,0.005C0.285,0.011 0.26,0.014 0.235,0.014C0.147,0.014 0.081,-0.01 0.037,-0.057L0.092,-0.117Z" style="fill-rule:nonzero;"/>
            </g>
            <g transform="matrix(12,0,0,12,160.59,205.996)">
                <path d="M0.017,-0.667L0.123,-0.667L0.251,-0.129L0.396,-0.647L0.489,-0.647L0.631,-0.13L0.759,-0.667L0.859,-0.667L0.68,-0L0.578,-0L0.439,-0.493L0.296,-0L0.195,-0L0.017,-0.667Z" style="fill-rule:nonzero;"/>
            </g>
            <g transform="matrix(12,0,0,12,171.213,205.996)">
                <path d="M0.06,-0.649L0.161,-0.649L0.161,-0.548L0.06,-0.548L0.06,-0.649ZM0.066,-0.465L0.156,-0.465L0.156,-0L0.066,-0L0.066,-0.465Z" style="fill-rule:nonzero;"/>
            </g>
            <g transform="matrix(12,0,0,12,173.964,205.996)">
                <path d="M0.397,-0.362C0.39,-0.367 0.378,-0.375 0.36,-0.384C0.342,-0.393 0.316,-0.397 0.283,-0.397C0.261,-0.397 0.241,-0.393 0.223,-0.385C0.204,-0.377 0.188,-0.366 0.174,-0.351C0.161,-0.336 0.15,-0.318 0.142,-0.297C0.135,-0.276 0.131,-0.252 0.131,-0.225C0.131,-0.203 0.134,-0.182 0.139,-0.163C0.144,-0.143 0.153,-0.126 0.164,-0.111C0.174,-0.096 0.189,-0.085 0.205,-0.077C0.223,-0.068 0.243,-0.064 0.266,-0.064C0.289,-0.064 0.309,-0.068 0.326,-0.077C0.343,-0.086 0.356,-0.097 0.367,-0.11C0.377,-0.123 0.385,-0.137 0.39,-0.153C0.395,-0.168 0.397,-0.183 0.397,-0.196L0.397,-0.362ZM0.397,-0.059C0.394,-0.055 0.388,-0.049 0.381,-0.041C0.373,-0.032 0.363,-0.024 0.35,-0.016C0.337,-0.008 0.323,-0.001 0.306,0.005C0.289,0.011 0.269,0.014 0.246,0.014C0.217,0.014 0.189,0.008 0.164,-0.003C0.139,-0.014 0.117,-0.03 0.098,-0.051C0.079,-0.072 0.065,-0.097 0.055,-0.127C0.044,-0.156 0.039,-0.189 0.039,-0.226C0.039,-0.27 0.047,-0.308 0.062,-0.34C0.077,-0.371 0.097,-0.397 0.121,-0.418C0.144,-0.438 0.17,-0.453 0.198,-0.462C0.225,-0.471 0.251,-0.476 0.276,-0.476C0.309,-0.476 0.335,-0.472 0.354,-0.464C0.373,-0.456 0.387,-0.45 0.397,-0.446L0.397,-0.667L0.487,-0.667L0.487,-0.048C0.487,-0.033 0.487,-0.017 0.488,-0L0.4,-0L0.397,-0.059Z" style="fill-rule:nonzero;"/>
            </g>
            <g transform="matrix(12,0,0,12,180.651,205.996)">
                <path d="M0.102,-0.39L0.018,-0.39L0.018,-0.465L0.102,-0.465L0.102,-0.617L0.192,-0.617L0.192,-0.465L0.328,-0.465L0.328,-0.39L0.192,-0.39L0.192,-0.161C0.192,-0.124 0.198,-0.098 0.21,-0.084C0.221,-0.07 0.238,-0.063 0.259,-0.063C0.276,-0.063 0.291,-0.066 0.302,-0.071C0.313,-0.076 0.325,-0.084 0.336,-0.095L0.377,-0.04C0.358,-0.021 0.338,-0.008 0.318,0C0.297,0.009 0.273,0.013 0.245,0.013C0.196,0.013 0.16,-0 0.137,-0.027C0.114,-0.054 0.102,-0.095 0.102,-0.152L0.102,-0.39Z" style="fill-rule:nonzero;"/>
            </g>
            <g transform="matrix(12,0,0,12,185.346,205.996)">
                <path d="M0.061,-0.667L0.15,-0.667L0.15,-0.396C0.156,-0.404 0.163,-0.413 0.172,-0.422C0.181,-0.431 0.191,-0.44 0.204,-0.448C0.217,-0.456 0.231,-0.463 0.248,-0.468C0.265,-0.473 0.284,-0.476 0.305,-0.476C0.366,-0.476 0.411,-0.458 0.44,-0.423C0.469,-0.388 0.484,-0.34 0.484,-0.279L0.484,-0L0.394,-0L0.394,-0.272C0.394,-0.315 0.385,-0.347 0.366,-0.368C0.347,-0.388 0.321,-0.398 0.287,-0.398C0.261,-0.398 0.239,-0.393 0.222,-0.382C0.205,-0.371 0.191,-0.358 0.181,-0.341C0.17,-0.324 0.163,-0.304 0.158,-0.282C0.153,-0.261 0.151,-0.239 0.151,-0.216L0.151,-0L0.061,-0L0.061,-0.667Z" style="fill-rule:nonzero;"/>
            </g>
            <g transform="matrix(12,0,0,12,162.318,266.226)">
                <path d="M0.105,-0.162C0.114,-0.151 0.125,-0.141 0.137,-0.13C0.148,-0.118 0.161,-0.109 0.176,-0.1C0.191,-0.091 0.207,-0.084 0.225,-0.079C0.243,-0.074 0.263,-0.071 0.284,-0.071C0.328,-0.071 0.362,-0.081 0.387,-0.101C0.412,-0.121 0.424,-0.148 0.424,-0.182C0.424,-0.219 0.41,-0.246 0.382,-0.265C0.354,-0.283 0.314,-0.298 0.261,-0.309C0.232,-0.315 0.206,-0.323 0.183,-0.334C0.16,-0.345 0.14,-0.358 0.123,-0.374C0.106,-0.39 0.092,-0.408 0.083,-0.43C0.074,-0.451 0.069,-0.474 0.069,-0.501C0.069,-0.526 0.074,-0.549 0.083,-0.571C0.092,-0.593 0.106,-0.612 0.125,-0.629C0.144,-0.646 0.167,-0.659 0.195,-0.669C0.223,-0.679 0.255,-0.684 0.292,-0.684C0.325,-0.684 0.353,-0.681 0.377,-0.674C0.4,-0.667 0.42,-0.658 0.437,-0.648C0.454,-0.638 0.467,-0.628 0.477,-0.617C0.487,-0.606 0.495,-0.598 0.5,-0.591L0.436,-0.532C0.432,-0.537 0.426,-0.543 0.418,-0.551C0.41,-0.558 0.4,-0.566 0.388,-0.573C0.375,-0.58 0.361,-0.587 0.344,-0.592C0.328,-0.597 0.309,-0.599 0.288,-0.599C0.267,-0.599 0.248,-0.596 0.233,-0.591C0.218,-0.585 0.205,-0.578 0.195,-0.569C0.185,-0.56 0.178,-0.549 0.173,-0.538C0.168,-0.527 0.166,-0.515 0.166,-0.504C0.166,-0.487 0.17,-0.473 0.177,-0.462C0.184,-0.45 0.194,-0.44 0.207,-0.431C0.22,-0.422 0.237,-0.414 0.257,-0.407C0.276,-0.401 0.299,-0.395 0.324,-0.389C0.349,-0.383 0.373,-0.375 0.397,-0.366C0.42,-0.356 0.441,-0.343 0.46,-0.327C0.479,-0.31 0.494,-0.29 0.504,-0.267C0.516,-0.243 0.521,-0.214 0.521,-0.18C0.521,-0.151 0.515,-0.125 0.503,-0.101C0.491,-0.077 0.474,-0.056 0.454,-0.039C0.433,-0.021 0.408,-0.007 0.379,0.002C0.35,0.012 0.319,0.017 0.286,0.017C0.255,0.017 0.226,0.013 0.201,0.006C0.175,-0.001 0.152,-0.011 0.131,-0.022C0.11,-0.033 0.091,-0.046 0.076,-0.059C0.06,-0.073 0.047,-0.087 0.037,-0.1L0.105,-0.162Z" style="fill-rule:nonzero;"/>
            </g>
            <g transform="matrix(12,0,0,12,169.338,266.226)">
                <rect x="0.062" y="-0.667" width="0.09" height="0.667" style="fill-rule:nonzero;"/>
            </g>
            <g transform="matrix(12,0,0,12,171.942,266.226)">
                <path d="M0.286,0.014C0.25,0.014 0.217,0.007 0.187,-0.006C0.157,-0.019 0.131,-0.036 0.11,-0.059C0.088,-0.082 0.071,-0.108 0.059,-0.138C0.046,-0.167 0.04,-0.199 0.04,-0.233C0.04,-0.267 0.046,-0.299 0.059,-0.329C0.071,-0.358 0.088,-0.384 0.11,-0.407C0.131,-0.43 0.157,-0.448 0.187,-0.461C0.217,-0.473 0.25,-0.48 0.286,-0.48C0.321,-0.48 0.354,-0.473 0.384,-0.461C0.414,-0.448 0.44,-0.43 0.462,-0.407C0.484,-0.384 0.501,-0.358 0.514,-0.329C0.526,-0.299 0.532,-0.267 0.532,-0.233C0.532,-0.199 0.526,-0.167 0.514,-0.138C0.501,-0.108 0.484,-0.082 0.462,-0.059C0.44,-0.036 0.414,-0.019 0.384,-0.006C0.354,0.007 0.321,0.014 0.286,0.014ZM0.286,-0.064C0.31,-0.064 0.332,-0.069 0.351,-0.079C0.37,-0.088 0.387,-0.101 0.4,-0.117C0.413,-0.132 0.424,-0.15 0.431,-0.171C0.438,-0.191 0.441,-0.212 0.441,-0.233C0.441,-0.254 0.438,-0.274 0.431,-0.295C0.424,-0.315 0.413,-0.333 0.4,-0.349C0.386,-0.365 0.37,-0.378 0.35,-0.388C0.332,-0.397 0.31,-0.402 0.286,-0.402C0.262,-0.402 0.24,-0.397 0.221,-0.388C0.202,-0.378 0.185,-0.365 0.172,-0.349C0.159,-0.334 0.149,-0.316 0.141,-0.296C0.135,-0.275 0.131,-0.254 0.131,-0.233C0.131,-0.212 0.135,-0.191 0.141,-0.171C0.149,-0.151 0.159,-0.133 0.172,-0.117C0.186,-0.101 0.203,-0.088 0.222,-0.079C0.241,-0.069 0.262,-0.064 0.286,-0.064Z" style="fill-rule:nonzero;"/>
            </g>
            <g transform="matrix(12,0,0,12,178.842,266.226)">
                <path d="M0.062,0.2L0.062,-0.418C0.062,-0.433 0.062,-0.448 0.061,-0.465L0.147,-0.465L0.15,-0.399C0.155,-0.405 0.161,-0.412 0.17,-0.421C0.179,-0.43 0.19,-0.438 0.203,-0.446C0.216,-0.454 0.231,-0.461 0.248,-0.467C0.265,-0.472 0.285,-0.475 0.308,-0.475C0.344,-0.475 0.375,-0.468 0.402,-0.455C0.428,-0.442 0.45,-0.424 0.467,-0.401C0.484,-0.378 0.497,-0.352 0.505,-0.323C0.514,-0.294 0.518,-0.263 0.518,-0.23C0.518,-0.188 0.511,-0.152 0.497,-0.121C0.482,-0.09 0.464,-0.065 0.441,-0.045C0.418,-0.025 0.392,-0.01 0.364,-0.001C0.335,0.009 0.307,0.014 0.28,0.014C0.249,0.014 0.224,0.011 0.204,0.004C0.186,-0.002 0.168,-0.009 0.151,-0.016L0.151,0.2L0.062,0.2ZM0.151,-0.101C0.162,-0.092 0.177,-0.084 0.197,-0.076C0.217,-0.068 0.242,-0.064 0.272,-0.064C0.295,-0.064 0.316,-0.068 0.335,-0.077C0.354,-0.085 0.37,-0.097 0.384,-0.112C0.397,-0.127 0.408,-0.144 0.415,-0.164C0.422,-0.184 0.426,-0.206 0.426,-0.23C0.426,-0.253 0.424,-0.274 0.419,-0.294C0.413,-0.314 0.406,-0.332 0.395,-0.347C0.384,-0.362 0.369,-0.375 0.352,-0.384C0.335,-0.393 0.313,-0.397 0.288,-0.397C0.256,-0.397 0.229,-0.388 0.206,-0.371C0.183,-0.353 0.167,-0.327 0.158,-0.293C0.155,-0.282 0.153,-0.271 0.152,-0.259C0.151,-0.246 0.151,-0.233 0.151,-0.22L0.151,-0.101Z" style="fill-rule:nonzero;"/>
            </g>
            <g transform="matrix(12,0,0,12,185.574,266.226)">
                <path d="M0.486,-0.068C0.481,-0.062 0.473,-0.054 0.462,-0.045C0.451,-0.036 0.438,-0.027 0.421,-0.018C0.404,-0.009 0.384,-0.002 0.361,0.004C0.338,0.011 0.311,0.014 0.282,0.014C0.246,0.014 0.213,0.008 0.183,-0.004C0.153,-0.016 0.127,-0.033 0.106,-0.055C0.085,-0.077 0.068,-0.103 0.057,-0.134C0.045,-0.165 0.039,-0.199 0.039,-0.236C0.039,-0.27 0.045,-0.302 0.056,-0.332C0.067,-0.361 0.083,-0.387 0.104,-0.408C0.125,-0.43 0.149,-0.447 0.178,-0.46C0.206,-0.473 0.237,-0.479 0.271,-0.479C0.311,-0.479 0.345,-0.471 0.374,-0.456C0.403,-0.441 0.426,-0.42 0.445,-0.395C0.463,-0.37 0.476,-0.341 0.485,-0.308C0.494,-0.275 0.498,-0.241 0.498,-0.206L0.131,-0.206C0.132,-0.185 0.136,-0.166 0.145,-0.149C0.153,-0.132 0.164,-0.117 0.178,-0.104C0.192,-0.091 0.208,-0.081 0.226,-0.074C0.244,-0.067 0.263,-0.063 0.283,-0.063C0.322,-0.063 0.355,-0.07 0.38,-0.083C0.405,-0.096 0.424,-0.109 0.435,-0.122L0.486,-0.068ZM0.405,-0.273C0.402,-0.309 0.39,-0.34 0.367,-0.365C0.344,-0.39 0.312,-0.403 0.271,-0.403C0.25,-0.403 0.231,-0.399 0.214,-0.392C0.197,-0.385 0.182,-0.375 0.17,-0.363C0.158,-0.351 0.149,-0.337 0.142,-0.322C0.135,-0.306 0.132,-0.29 0.131,-0.273L0.405,-0.273Z" style="fill-rule:nonzero;"/>
            </g>
        </g>
        <g transform="matrix(12,0,0,12,130.866,47.6102)">
            <path d="M0.875,-0.203C0.875,-0.245 0.824,-0.266 0.795,-0.236L0.724,-0.165L0.515,-0.375L0.724,-0.584L0.795,-0.514C0.824,-0.484 0.875,-0.505 0.875,-0.547L0.875,-0.766C0.875,-0.792 0.854,-0.813 0.828,-0.813L0.609,-0.813C0.568,-0.813 0.547,-0.762 0.576,-0.732L0.647,-0.662L0.438,-0.452L0.228,-0.662L0.299,-0.732C0.328,-0.762 0.307,-0.813 0.266,-0.813L0.047,-0.813C0.021,-0.813 0,-0.792 0,-0.766L0,-0.547C0,-0.505 0.051,-0.484 0.08,-0.514L0.151,-0.585L0.36,-0.375L0.151,-0.166L0.08,-0.236C0.051,-0.266 0,-0.245 0,-0.203L-0,0.016C-0,0.042 0.021,0.063 0.047,0.063L0.266,0.063C0.307,0.063 0.328,0.012 0.299,-0.018L0.228,-0.088L0.438,-0.298L0.647,-0.088L0.576,-0.018C0.547,0.012 0.568,0.063 0.609,0.063L0.828,0.063C0.854,0.063 0.875,0.042 0.875,0.016L0.875,-0.203Z" style="fill-rule:nonzero;"/>
        </g>
        <g transform="matrix(12,0,0,12,95.3816,347.046)">
            <path d="M0.271,-0.667L0.369,-0.667L0.63,-0L0.523,-0L0.454,-0.186L0.18,-0.186L0.111,-0L0.01,-0L0.271,-0.667ZM0.425,-0.267L0.317,-0.56L0.208,-0.267L0.425,-0.267Z" style="fill-rule:nonzero;"/>
        </g>
        <g transform="matrix(12,0,0,12,103.242,347.046)">
            <rect x="0.062" y="-0.667" width="0.09" height="0.667" style="fill-rule:nonzero;"/>
        </g>
        <g transform="matrix(12,0,0,12,105.978,347.046)">
            <rect x="0.062" y="-0.667" width="0.09" height="0.667" style="fill-rule:nonzero;"/>
        </g>
        <g transform="matrix(12,0,0,12,111.432,347.046)">
            <rect x="0.076" y="-0.667" width="0.096" height="0.667" style="fill-rule:nonzero;"/>
        </g>
        <g transform="matrix(12,0,0,12,114.576,347.046)">
            <path d="M0.062,-0L0.062,-0.418C0.062,-0.433 0.062,-0.448 0.061,-0.465L0.147,-0.465L0.15,-0.395C0.156,-0.403 0.163,-0.412 0.172,-0.422C0.181,-0.431 0.191,-0.44 0.204,-0.448C0.217,-0.456 0.232,-0.463 0.249,-0.468C0.266,-0.473 0.285,-0.476 0.306,-0.476C0.367,-0.476 0.412,-0.458 0.441,-0.423C0.47,-0.388 0.485,-0.34 0.485,-0.279L0.485,-0L0.395,-0L0.395,-0.272C0.395,-0.315 0.386,-0.347 0.367,-0.368C0.348,-0.388 0.322,-0.398 0.288,-0.398C0.262,-0.398 0.24,-0.393 0.223,-0.382C0.206,-0.371 0.192,-0.358 0.182,-0.341C0.171,-0.324 0.164,-0.304 0.159,-0.282C0.154,-0.261 0.152,-0.239 0.152,-0.216L0.152,-0L0.062,-0Z" style="fill-rule:nonzero;"/>
        </g>
        <g transform="matrix(12,0,0,12,143.616,347.038)">
            <path d="M0.099,-0.667L0.191,-0.667L0.394,-0.32L0.597,-0.667L0.687,-0.667L0.718,-0L0.624,-0L0.602,-0.512L0.414,-0.197L0.366,-0.197L0.181,-0.508L0.158,-0L0.068,-0L0.099,-0.667Z" style="fill:white;fill-rule:nonzero;"/>
        </g>
        <g transform="matrix(12,0,0,12,153.546,347.038)">
            <path d="M0.06,-0.649L0.161,-0.649L0.161,-0.548L0.06,-0.548L0.06,-0.649ZM0.066,-0.465L0.156,-0.465L0.156,-0L0.066,-0L0.066,-0.465Z" style="fill:white;fill-rule:nonzero;"/>
        </g>
        <g transform="matrix(12,0,0,12,156.696,347.038)">
            <path d="M0.188,-0.24L0.021,-0.465L0.133,-0.465L0.245,-0.311L0.355,-0.465L0.455,-0.465L0.293,-0.247L0.478,-0L0.365,-0L0.236,-0.176L0.109,-0L0.008,-0L0.188,-0.24Z" style="fill:white;fill-rule:nonzero;"/>
        </g>
        <g transform="matrix(8,0,0,8,74.208,307.805)">
            <path d="M0.073,-0.36L0.234,-0.36L0.234,-0.517L0.312,-0.517L0.312,-0.36L0.472,-0.36L0.472,-0.282L0.313,-0.282L0.313,-0.125L0.234,-0.125L0.234,-0.282L0.073,-0.282L0.073,-0.36Z" style="fill-rule:nonzero;"/>
        </g>
        <g transform="matrix(8,0,0,8,79.22,307.805)">
            <path d="M0.089,-0.118C0.108,-0.103 0.128,-0.09 0.151,-0.08C0.173,-0.069 0.201,-0.064 0.234,-0.064C0.257,-0.064 0.278,-0.068 0.295,-0.075C0.312,-0.082 0.327,-0.091 0.339,-0.103C0.35,-0.115 0.359,-0.129 0.365,-0.145C0.37,-0.161 0.373,-0.178 0.373,-0.197C0.373,-0.21 0.371,-0.223 0.367,-0.238C0.363,-0.253 0.356,-0.266 0.346,-0.279C0.336,-0.291 0.322,-0.301 0.305,-0.309C0.288,-0.317 0.266,-0.321 0.239,-0.321C0.212,-0.321 0.19,-0.318 0.174,-0.313C0.158,-0.308 0.143,-0.302 0.13,-0.295L0.084,-0.33L0.144,-0.63L0.453,-0.63L0.453,-0.546L0.207,-0.546L0.178,-0.381C0.185,-0.385 0.195,-0.389 0.21,-0.393C0.225,-0.396 0.242,-0.398 0.263,-0.398C0.293,-0.398 0.321,-0.394 0.345,-0.385C0.371,-0.376 0.392,-0.364 0.41,-0.346C0.428,-0.33 0.442,-0.309 0.452,-0.284C0.462,-0.26 0.467,-0.232 0.467,-0.2C0.467,-0.171 0.462,-0.143 0.453,-0.117C0.444,-0.091 0.429,-0.068 0.41,-0.048C0.391,-0.028 0.366,-0.012 0.336,-0.001C0.306,0.011 0.27,0.017 0.229,0.017C0.185,0.017 0.148,0.01 0.117,-0.003C0.086,-0.016 0.059,-0.033 0.038,-0.052L0.089,-0.118Z" style="fill-rule:nonzero;"/>
        </g>
        <g transform="matrix(8,0,0,8,84.232,307.805)">
            <path d="M0.01,-0.667L0.117,-0.667L0.32,-0.119L0.523,-0.667L0.624,-0.667L0.366,-0L0.268,-0L0.01,-0.667Z" style="fill-rule:nonzero;"/>
        </g>
        <g transform="matrix(8,0,0,8,179.312,338.309)">
            <path d="M0.272,0.014C0.233,0.014 0.198,0.006 0.169,-0.01C0.139,-0.026 0.114,-0.049 0.094,-0.078C0.073,-0.107 0.058,-0.143 0.048,-0.184C0.037,-0.225 0.032,-0.271 0.032,-0.322C0.032,-0.372 0.037,-0.417 0.048,-0.457C0.058,-0.497 0.073,-0.531 0.094,-0.56C0.115,-0.588 0.14,-0.61 0.17,-0.625C0.199,-0.64 0.234,-0.648 0.273,-0.648C0.312,-0.648 0.346,-0.64 0.376,-0.625C0.406,-0.61 0.431,-0.588 0.452,-0.56C0.472,-0.531 0.487,-0.497 0.498,-0.457C0.508,-0.417 0.513,-0.372 0.513,-0.322C0.513,-0.271 0.508,-0.225 0.498,-0.184C0.487,-0.143 0.472,-0.107 0.451,-0.078C0.43,-0.049 0.405,-0.026 0.375,-0.01C0.345,0.006 0.311,0.014 0.272,0.014ZM0.272,-0.069C0.296,-0.069 0.317,-0.075 0.336,-0.087C0.354,-0.1 0.369,-0.117 0.382,-0.14C0.394,-0.162 0.403,-0.189 0.409,-0.22C0.416,-0.251 0.419,-0.285 0.419,-0.322C0.419,-0.359 0.416,-0.392 0.409,-0.422C0.403,-0.452 0.394,-0.477 0.381,-0.499C0.368,-0.52 0.353,-0.536 0.335,-0.547C0.317,-0.558 0.296,-0.564 0.272,-0.564C0.248,-0.564 0.227,-0.558 0.209,-0.547C0.191,-0.536 0.176,-0.52 0.164,-0.499C0.151,-0.477 0.142,-0.452 0.136,-0.422C0.129,-0.392 0.126,-0.359 0.126,-0.322C0.126,-0.285 0.129,-0.251 0.136,-0.22C0.142,-0.189 0.151,-0.162 0.164,-0.14C0.176,-0.117 0.191,-0.1 0.209,-0.087C0.227,-0.075 0.248,-0.069 0.272,-0.069Z" style="fill-rule:nonzero;"/>
        </g>
        <g transform="matrix(8,0,0,8,193.664,338.309)">
            <path d="M0.073,-0.36L0.234,-0.36L0.234,-0.517L0.312,-0.517L0.312,-0.36L0.472,-0.36L0.472,-0.282L0.313,-0.282L0.313,-0.125L0.234,-0.125L0.234,-0.282L0.073,-0.282L0.073,-0.36Z" style="fill-rule:nonzero;"/>
        </g>
        <g transform="matrix(-1,0,0,1,195.912,265.56)">
            <rect x="97.005" y="56.47" width="1.902" height="1.5" style="fill:rgb(35,31,32);"/>
        </g>
        <g transform="matrix(-1,0,0,1,202.736,265.56)">
            <rect x="100.417" y="56.47" width="1.902" height="1.5" style="fill:rgb(35,31,32);"/>
        </g>
        <g transform="matrix(-1,0,0,1,209.538,265.56)">
            <rect x="103.818" y="56.47" width="1.902" height="1.5" style="fill:rgb(35,31,32);"/>
        </g>
        <g transform="matrix(-1,0,0,1,175.416,265.56)">
            <rect x="86.757" y="56.47" width="1.902" height="1.5" style="fill:rgb(35,31,32);"/>
        </g>
        <g transform="matrix(-1,0,0,1,182.24,265.56)">
            <rect x="90.169" y="56.47" width="1.902" height="1.5" style="fill:rgb(35,31,32);"/>
        </g>
        <g transform="matrix(-1,0,0,1,189.042,265.56)">
            <rect x="93.57" y="56.47" width="1.902" height="1.5" style="fill:rgb(35,31,32);"/>
        </g>
        <g transform="matrix(-1,0,0,1,357.416,265.56)">
            <rect x="177.757" y="56.47" width="1.902" height="1.5" style="fill:rgb(35,31,32);"/>
        </g>
        <g transform="matrix(-1,0,0,1,364.24,265.56)">
            <rect x="181.169" y="56.47" width="1.902" height="1.5" style="fill:rgb(35,31,32);"/>
        </g>
        <g transform="matrix(-1,0,0,1,371.042,265.56)">
            <rect x="184.57" y="56.47" width="1.902" height="1.5" style="fill:rgb(35,31,32);"/>
        </g>
        <g transform="matrix(-1,0,0,1,336.92,265.56)">
            <rect x="167.509" y="56.47" width="1.902" height="1.5" style="fill:rgb(35,31,32);"/>
        </g>
        <g transform="matrix(-1,0,0,1,343.744,265.56)">
            <rect x="170.921" y="56.47" width="1.902" height="1.5" style="fill:rgb(35,31,32);"/>
        </g>
        <g transform="matrix(-1,0,0,1,350.546,265.56)">
            <rect x="174.322" y="56.47" width="1.902" height="1.5" style="fill:rgb(35,31,32);"/>
        </g>
    </g>
</svg>
