<?xml version="1.0" encoding="UTF-8" standalone="no"?>
<!DOCTYPE svg PUBLIC "-//W3C//DTD SVG 1.1//EN" "http://www.w3.org/Graphics/SVG/1.1/DTD/svg11.dtd">
<svg width="100%" height="100%" viewBox="0 0 240 380" version="1.1" xmlns="http://www.w3.org/2000/svg" xmlns:xlink="http://www.w3.org/1999/xlink" xml:space="preserve" xmlns:serif="http://www.serif.com/" style="fill-rule:evenodd;clip-rule:evenodd;stroke-linecap:round;stroke-linejoin:round;stroke-miterlimit:1.5;">
    <g transform="matrix(1,0,0,1,60,0)">
        <g id="svg8">
            <g transform="matrix(1.33333,0,0,1,-60,0)">
                <rect x="0" y="0" width="180" height="380" style="fill:rgb(240,240,240);"/>
            </g>
            <g id="XY-Controls" serif:id="XY Controls" transform="matrix(1,0,0,1,-57.0379,-55.2783)">
                <g id="X">
                    <g transform="matrix(1,0,0,1,-24.4502,-78.4866)">
                        <g transform="matrix(12,0,0,12,48.2399,193.333)">
                            <path d="M0.242,-0.345L0.022,-0.667L0.138,-0.667L0.3,-0.424L0.46,-0.667L0.565,-0.667L0.351,-0.348L0.588,-0L0.473,-0L0.294,-0.269L0.115,-0L0.009,-0L0.242,-0.345Z" style="fill-rule:nonzero;"/>
                        </g>
                    </g>
                    <g transform="matrix(1.19028,0,0,1.45671,-17.2576,19.5074)">
                        <path d="M37.5,78.323L37.5,154.987" style="fill:none;stroke:black;stroke-width:0.75px;stroke-dasharray:1.5,1.5,0,0;"/>
                    </g>
                    <g transform="matrix(1,0,0,1,-63.324,112.354)">
                        <g transform="matrix(8,0,0,8,76.6499,86.8535)">
                            <rect x="0.074" y="-0.347" width="0.277" height="0.118" style="fill-rule:nonzero;"/>
                        </g>
                        <g transform="matrix(8,0,0,8,99.6824,86.8535)">
                            <path d="M0.546,-0.181L0.546,-0.319L0.369,-0.319L0.369,-0.496L0.231,-0.496L0.231,-0.319L0.054,-0.319L0.054,-0.181L0.231,-0.181L0.231,-0.004L0.369,-0.004L0.369,-0.181L0.546,-0.181Z" style="fill-rule:nonzero;"/>
                        </g>
                    </g>
                </g>
                <g id="Y" transform="matrix(1,0,0,1,-10,0)">
                    <g transform="matrix(1,0,0,1,40.5498,-78.4866)">
                        <g transform="matrix(12,0,0,12,48.3659,193.333)">
                            <path d="M0.239,-0.298L0.009,-0.667L0.116,-0.667L0.29,-0.382L0.464,-0.667L0.567,-0.667L0.336,-0.298L0.336,-0L0.239,-0L0.239,-0.298Z" style="fill-rule:nonzero;"/>
                        </g>
                    </g>
                    <g transform="matrix(1.19028,0,0,1.45671,47.7424,19.5074)">
                        <path d="M37.5,78.323L37.5,154.987" style="fill:none;stroke:black;stroke-width:0.75px;stroke-dasharray:1.5,1.5,0,0;"/>
                    </g>
                    <g transform="matrix(1,0,0,1,1.676,112.354)">
                        <g transform="matrix(8,0,0,8,76.6499,86.8535)">
                            <rect x="0.074" y="-0.347" width="0.277" height="0.118" style="fill-rule:nonzero;"/>
                        </g>
                        <g transform="matrix(8,0,0,8,99.6824,86.8535)">
                            <path d="M0.546,-0.181L0.546,-0.319L0.369,-0.319L0.369,-0.496L0.231,-0.496L0.231,-0.319L0.054,-0.319L0.054,-0.181L0.231,-0.181L0.231,-0.004L0.369,-0.004L0.369,-0.181L0.546,-0.181Z" style="fill-rule:nonzero;"/>
                        </g>
                    </g>
                </g>
            </g>
            <g id="ABCD-In-Labels" serif:id="ABCD In Labels" transform="matrix(1,0,0,1,107.208,-191.844)">
                <g transform="matrix(1,0,0,1,-63.2435,58.0788)">
                    <g transform="matrix(12,0,0,12,47.9819,193.333)">
                        <path d="M0.271,-0.667L0.369,-0.667L0.63,-0L0.523,-0L0.454,-0.186L0.18,-0.186L0.111,-0L0.01,-0L0.271,-0.667ZM0.425,-0.267L0.317,-0.56L0.208,-0.267L0.425,-0.267Z" style="fill-rule:nonzero;"/>
                    </g>
                </g>
                <g transform="matrix(1,0,0,1,-63.2435,143.447)">
                    <g transform="matrix(12,0,0,12,47.7659,193.333)">
                        <path d="M0.642,-0.117C0.635,-0.105 0.623,-0.091 0.608,-0.076C0.593,-0.061 0.574,-0.046 0.552,-0.033C0.53,-0.019 0.505,-0.007 0.476,0.002C0.447,0.011 0.416,0.016 0.381,0.016C0.332,0.016 0.287,0.007 0.246,-0.01C0.205,-0.027 0.17,-0.052 0.141,-0.083C0.112,-0.114 0.089,-0.15 0.073,-0.193C0.056,-0.235 0.048,-0.281 0.048,-0.331C0.048,-0.38 0.056,-0.425 0.073,-0.468C0.089,-0.511 0.112,-0.548 0.141,-0.58C0.17,-0.612 0.206,-0.637 0.247,-0.656C0.288,-0.674 0.333,-0.683 0.383,-0.683C0.418,-0.683 0.45,-0.679 0.478,-0.67C0.506,-0.661 0.531,-0.651 0.552,-0.638C0.572,-0.624 0.591,-0.61 0.606,-0.595C0.62,-0.58 0.633,-0.565 0.642,-0.551L0.574,-0.493C0.566,-0.504 0.557,-0.516 0.546,-0.529C0.535,-0.541 0.521,-0.552 0.506,-0.562C0.491,-0.572 0.473,-0.58 0.453,-0.587C0.433,-0.594 0.41,-0.597 0.384,-0.597C0.347,-0.597 0.315,-0.59 0.286,-0.576C0.257,-0.562 0.232,-0.543 0.212,-0.519C0.191,-0.495 0.176,-0.467 0.165,-0.435C0.154,-0.403 0.149,-0.369 0.149,-0.333C0.149,-0.297 0.155,-0.263 0.166,-0.232C0.177,-0.2 0.192,-0.172 0.212,-0.149C0.232,-0.126 0.256,-0.107 0.285,-0.094C0.314,-0.081 0.346,-0.074 0.381,-0.074C0.411,-0.074 0.437,-0.078 0.459,-0.086C0.48,-0.093 0.498,-0.102 0.514,-0.113C0.529,-0.124 0.541,-0.134 0.551,-0.146C0.56,-0.157 0.568,-0.166 0.575,-0.173L0.642,-0.117Z" style="fill-rule:nonzero;"/>
                    </g>
                </g>
                <g transform="matrix(1,0,0,1,-7.48809,58.0788)">
                    <g transform="matrix(12,0,0,12,48.2879,193.333)">
                        <path d="M0.076,-0.667L0.302,-0.667C0.337,-0.667 0.367,-0.663 0.392,-0.654C0.417,-0.645 0.438,-0.632 0.455,-0.617C0.472,-0.602 0.484,-0.584 0.493,-0.563C0.501,-0.542 0.505,-0.52 0.505,-0.497C0.505,-0.476 0.501,-0.456 0.494,-0.439C0.486,-0.422 0.476,-0.407 0.466,-0.395C0.455,-0.383 0.443,-0.373 0.43,-0.366C0.417,-0.359 0.405,-0.354 0.394,-0.353C0.408,-0.351 0.424,-0.347 0.441,-0.341C0.458,-0.334 0.473,-0.325 0.488,-0.312C0.503,-0.299 0.515,-0.283 0.525,-0.263C0.535,-0.242 0.54,-0.217 0.54,-0.187C0.54,-0.151 0.534,-0.121 0.521,-0.098C0.507,-0.074 0.49,-0.055 0.468,-0.04C0.445,-0.025 0.419,-0.015 0.388,-0.009C0.357,-0.003 0.325,-0 0.29,-0L0.076,-0L0.076,-0.667ZM0.288,-0.389C0.303,-0.389 0.317,-0.391 0.332,-0.395C0.347,-0.398 0.36,-0.404 0.372,-0.412C0.384,-0.42 0.394,-0.43 0.401,-0.443C0.408,-0.456 0.412,-0.471 0.412,-0.489C0.412,-0.509 0.408,-0.525 0.401,-0.538C0.394,-0.55 0.384,-0.56 0.372,-0.567C0.36,-0.574 0.347,-0.578 0.332,-0.581C0.317,-0.583 0.303,-0.584 0.288,-0.584L0.169,-0.584L0.169,-0.389L0.288,-0.389ZM0.285,-0.083C0.302,-0.083 0.32,-0.084 0.339,-0.086C0.358,-0.088 0.375,-0.093 0.391,-0.1C0.406,-0.107 0.419,-0.118 0.429,-0.133C0.439,-0.147 0.444,-0.167 0.444,-0.192C0.444,-0.216 0.439,-0.235 0.43,-0.25C0.42,-0.265 0.408,-0.276 0.393,-0.285C0.378,-0.294 0.361,-0.3 0.343,-0.303C0.325,-0.306 0.308,-0.307 0.291,-0.307L0.169,-0.307L0.169,-0.083L0.285,-0.083Z" style="fill-rule:nonzero;"/>
                    </g>
                </g>
                <g transform="matrix(1,0,0,1,-7.48809,143.447)">
                    <g transform="matrix(12,0,0,12,47.5379,193.333)">
                        <path d="M0.076,-0.667L0.299,-0.667C0.352,-0.667 0.4,-0.661 0.445,-0.648C0.489,-0.634 0.527,-0.614 0.559,-0.587C0.591,-0.559 0.616,-0.524 0.634,-0.482C0.652,-0.44 0.661,-0.39 0.661,-0.332C0.661,-0.276 0.652,-0.227 0.634,-0.186C0.616,-0.144 0.591,-0.109 0.559,-0.082C0.527,-0.054 0.489,-0.033 0.444,-0.02C0.399,-0.007 0.351,-0 0.298,-0L0.076,-0L0.076,-0.667ZM0.296,-0.086C0.379,-0.086 0.444,-0.107 0.491,-0.148C0.537,-0.189 0.56,-0.249 0.56,-0.33C0.56,-0.411 0.538,-0.474 0.493,-0.517C0.448,-0.56 0.382,-0.581 0.293,-0.581L0.172,-0.581L0.172,-0.086L0.296,-0.086Z" style="fill-rule:nonzero;"/>
                    </g>
                </g>
            </g>
            <g transform="matrix(1,0,0,1,-47.0788,144.84)">
                <g transform="matrix(12,0,0,12,39.7859,193.333)">
                    <path d="M0.271,-0.667L0.369,-0.667L0.63,-0L0.523,-0L0.454,-0.186L0.18,-0.186L0.111,-0L0.01,-0L0.271,-0.667ZM0.425,-0.267L0.317,-0.56L0.208,-0.267L0.425,-0.267Z" style="fill-rule:nonzero;"/>
                </g>
                <g transform="matrix(12,0,0,12,47.3939,193.333)">
                    <rect x="0.062" y="-0.667" width="0.09" height="0.667" style="fill-rule:nonzero;"/>
                </g>
                <g transform="matrix(12,0,0,12,49.8779,193.333)">
                    <rect x="0.062" y="-0.667" width="0.09" height="0.667" style="fill-rule:nonzero;"/>
                </g>
                <g transform="matrix(12,0,0,12,54.4499,193.333)">
                    <rect x="0.076" y="-0.667" width="0.096" height="0.667" style="fill-rule:nonzero;"/>
                </g>
                <g transform="matrix(12,0,0,12,57.3419,193.333)">
                    <path d="M0.062,-0L0.062,-0.418C0.062,-0.432 0.062,-0.448 0.061,-0.465L0.147,-0.465L0.15,-0.395C0.156,-0.403 0.163,-0.412 0.172,-0.422C0.181,-0.431 0.191,-0.44 0.204,-0.448C0.217,-0.456 0.232,-0.463 0.249,-0.468C0.266,-0.473 0.285,-0.476 0.306,-0.476C0.367,-0.476 0.412,-0.458 0.441,-0.423C0.47,-0.388 0.485,-0.34 0.485,-0.279L0.485,-0L0.395,-0L0.395,-0.272C0.395,-0.315 0.386,-0.347 0.367,-0.368C0.348,-0.388 0.322,-0.398 0.288,-0.398C0.262,-0.398 0.24,-0.393 0.223,-0.382C0.206,-0.371 0.192,-0.358 0.182,-0.341C0.171,-0.324 0.164,-0.304 0.159,-0.283C0.154,-0.261 0.152,-0.239 0.152,-0.216L0.152,-0L0.062,-0Z" style="fill-rule:nonzero;"/>
                </g>
            </g>
            <g transform="matrix(1,0,0,1,-84.4502,144.84)">
                <g transform="matrix(12,0,0,12,33.6599,193.333)">
                    <path d="M0.073,-0.36L0.234,-0.36L0.234,-0.517L0.312,-0.517L0.312,-0.36L0.472,-0.36L0.472,-0.282L0.313,-0.282L0.313,-0.125L0.234,-0.125L0.234,-0.282L0.073,-0.282L0.073,-0.36Z" style="fill-rule:nonzero;"/>
                </g>
                <g transform="matrix(12,0,0,12,40.1159,193.333)">
                    <path d="M0.089,-0.118C0.108,-0.103 0.128,-0.09 0.151,-0.08C0.173,-0.069 0.201,-0.064 0.234,-0.064C0.257,-0.064 0.278,-0.068 0.295,-0.075C0.312,-0.082 0.327,-0.091 0.339,-0.103C0.35,-0.115 0.359,-0.129 0.365,-0.145C0.37,-0.161 0.373,-0.178 0.373,-0.197C0.373,-0.21 0.371,-0.223 0.367,-0.238C0.363,-0.253 0.356,-0.266 0.346,-0.279C0.336,-0.291 0.322,-0.301 0.305,-0.309C0.288,-0.317 0.266,-0.321 0.239,-0.321C0.212,-0.321 0.19,-0.318 0.174,-0.313C0.158,-0.308 0.143,-0.302 0.13,-0.295L0.084,-0.33L0.144,-0.63L0.453,-0.63L0.453,-0.546L0.207,-0.546L0.178,-0.381C0.185,-0.385 0.195,-0.389 0.21,-0.393C0.225,-0.396 0.242,-0.398 0.263,-0.398C0.293,-0.398 0.321,-0.394 0.346,-0.385C0.371,-0.376 0.392,-0.364 0.41,-0.347C0.428,-0.33 0.442,-0.309 0.452,-0.285C0.462,-0.26 0.467,-0.232 0.467,-0.2C0.467,-0.171 0.462,-0.143 0.453,-0.117C0.444,-0.091 0.429,-0.068 0.41,-0.048C0.391,-0.028 0.366,-0.012 0.336,-0.001C0.306,0.011 0.27,0.017 0.229,0.017C0.185,0.017 0.148,0.01 0.117,-0.003C0.086,-0.016 0.059,-0.033 0.038,-0.052L0.089,-0.118Z" style="fill-rule:nonzero;"/>
                </g>
                <g transform="matrix(12,0,0,12,48.6599,193.333)">
                    <path d="M0.01,-0.667L0.117,-0.667L0.32,-0.119L0.523,-0.667L0.624,-0.667L0.366,-0L0.268,-0L0.01,-0.667Z" style="fill-rule:nonzero;"/>
                </g>
                <g transform="matrix(12,0,0,12,58.2719,193.333)">
                    <rect x="0.073" y="-0.323" width="0.293" height="0.086" style="fill-rule:nonzero;"/>
                </g>
                <g transform="matrix(12,0,0,12,63.4559,193.333)">
                    <path d="M0.073,-0.167L0.368,-0.32L0.073,-0.473L0.107,-0.541L0.473,-0.349L0.473,-0.291L0.107,-0.099L0.073,-0.167Z" style="fill-rule:nonzero;"/>
                </g>
            </g>
            <g id="HetrickCV-Logo" serif:id="HetrickCV Logo" transform="matrix(1,0,0,1,-30.4962,0)">
                <g transform="matrix(1,0,0,1,70.7842,350.154)">
                    <path d="M0,11.424L-1.606,11.424L-1.606,6.093L-7.682,6.093L-7.682,11.424L-9.288,11.424L-9.288,0L-7.682,0L-7.682,4.719L-1.606,4.719L-1.606,0L0,0L0,11.424Z" style="fill:rgb(35,31,32);fill-rule:nonzero;"/>
                </g>
                <g transform="matrix(1,0,0,1,78.9917,350.154)">
                    <path d="M0,11.424L-6.821,11.424L-6.821,0L-0.132,0L-0.132,1.342L-5.215,1.342L-5.215,4.752L-0.414,4.752L-0.414,6.093L-5.215,6.093L-5.215,10.067L0,10.067L0,11.424Z" style="fill:rgb(35,31,32);fill-rule:nonzero;"/>
                </g>
                <g transform="matrix(1,0,0,1,87.8652,360.236)">
                    <path d="M0,-8.74L-3.212,-8.74L-3.212,1.342L-4.818,1.342L-4.818,-8.74L-8.046,-8.74L-8.046,-10.082L0,-10.082L0,-8.74Z" style="fill:rgb(35,31,32);fill-rule:nonzero;"/>
                </g>
                <g transform="matrix(1,0,0,1,93.5752,359.855)">
                    <path d="M0,-7.978C-0.513,-8.359 -1.126,-8.392 -1.92,-8.392L-3.096,-8.392L-3.096,-4.518L-1.92,-4.518C-1.126,-4.518 -0.513,-4.551 0,-4.915C0.514,-5.296 0.729,-5.76 0.729,-6.456C0.729,-7.134 0.514,-7.614 0,-7.978M3.047,1.723L1.109,1.723L-1.871,-3.194L-3.096,-3.194L-3.096,1.723L-4.702,1.723L-4.702,-9.701L-1.474,-9.701C-0.331,-9.701 0.596,-9.435 1.275,-8.906C1.954,-8.359 2.384,-7.532 2.384,-6.489C2.384,-4.485 0.993,-3.591 -0.215,-3.359L3.047,1.723Z" style="fill:rgb(35,31,32);fill-rule:nonzero;"/>
                </g>
                <g transform="matrix(-1,0,0,1,197.233,331.732)">
                    <rect x="97.814" y="18.422" width="1.605" height="11.424" style="fill:rgb(35,31,32);"/>
                </g>
                <g transform="matrix(1,0,0,1,110.542,351.678)">
                    <path d="M0,8.41C-0.712,9.205 -2.003,10.099 -4.172,10.099C-7.5,10.099 -10.017,7.764 -10.017,4.205C-10.017,0.645 -7.45,-1.689 -4.172,-1.689C-2.036,-1.689 -0.745,-0.795 -0.116,-0.182L-0.795,1.109C-1.241,0.547 -2.517,-0.281 -4.105,-0.281C-6.572,-0.281 -8.36,1.49 -8.36,4.172C-8.36,6.854 -6.556,8.626 -4.105,8.626C-2.6,8.626 -1.44,8.047 -0.695,7.235L0,8.41Z" style="fill:rgb(237,50,36);fill-rule:nonzero;"/>
                </g>
                <g transform="matrix(1,0,0,1,120.452,350.154)">
                    <path d="M0,11.424L-1.953,11.424L-5.745,5.695L-6.92,6.888L-6.92,11.424L-8.526,11.424L-8.526,0L-6.92,0L-6.92,4.868L-2.268,0L-0.314,0L-4.669,4.504L0,11.424Z" style="fill:rgb(237,50,36);fill-rule:nonzero;"/>
                </g>
                <g transform="matrix(1,0,0,1,120.452,354.658)">
                    <path d="M0,6.92L-1.953,6.92L-5.745,1.191L-6.92,2.384L-6.92,6.92L-8.526,6.92L-8.526,2.361L-6.92,2.384L-5.745,1.191L-4.669,0L-4.052,0.913L-3.555,1.65L0,6.92Z" style="fill-rule:nonzero;"/>
                </g>
            </g>
            <g transform="matrix(1,0,0,1,-122.002,0)">
                <g transform="matrix(18,0,0,18,142.384,28.8369)">
                    <path d="M0.01,-0.667L0.117,-0.667L0.32,-0.119L0.523,-0.667L0.624,-0.667L0.366,-0L0.268,-0L0.01,-0.667Z" style="fill-rule:nonzero;"/>
                </g>
                <g transform="matrix(18,0,0,18,153.34,28.8369)">
                    <path d="M0.486,-0.068C0.481,-0.062 0.473,-0.054 0.462,-0.045C0.451,-0.036 0.438,-0.027 0.421,-0.018C0.404,-0.009 0.384,-0.002 0.361,0.005C0.337,0.011 0.311,0.014 0.282,0.014C0.246,0.014 0.213,0.008 0.183,-0.004C0.153,-0.016 0.127,-0.033 0.106,-0.055C0.085,-0.077 0.068,-0.103 0.057,-0.134C0.045,-0.165 0.039,-0.199 0.039,-0.236C0.039,-0.27 0.045,-0.302 0.056,-0.332C0.067,-0.361 0.083,-0.387 0.104,-0.409C0.125,-0.43 0.149,-0.447 0.178,-0.46C0.206,-0.473 0.237,-0.479 0.271,-0.479C0.311,-0.479 0.345,-0.471 0.374,-0.456C0.403,-0.441 0.426,-0.42 0.445,-0.395C0.463,-0.37 0.476,-0.341 0.485,-0.308C0.494,-0.275 0.498,-0.241 0.498,-0.206L0.131,-0.206C0.132,-0.185 0.136,-0.166 0.145,-0.149C0.153,-0.132 0.164,-0.117 0.178,-0.104C0.192,-0.091 0.208,-0.081 0.226,-0.074C0.244,-0.067 0.263,-0.063 0.283,-0.063C0.322,-0.063 0.355,-0.07 0.38,-0.083C0.405,-0.096 0.424,-0.109 0.435,-0.122L0.486,-0.068ZM0.405,-0.273C0.402,-0.309 0.39,-0.34 0.367,-0.365C0.344,-0.39 0.312,-0.403 0.271,-0.403C0.25,-0.403 0.231,-0.399 0.214,-0.392C0.197,-0.385 0.182,-0.375 0.17,-0.363C0.158,-0.351 0.149,-0.337 0.142,-0.322C0.135,-0.306 0.132,-0.29 0.131,-0.273L0.405,-0.273Z" style="fill-rule:nonzero;"/>
                </g>
                <g transform="matrix(18,0,0,18,162.532,28.8369)">
                    <path d="M0.466,-0.064C0.445,-0.041 0.42,-0.022 0.39,-0.008C0.359,0.007 0.324,0.014 0.284,0.014C0.247,0.014 0.213,0.008 0.183,-0.005C0.152,-0.017 0.127,-0.034 0.106,-0.056C0.085,-0.077 0.068,-0.103 0.057,-0.134C0.046,-0.164 0.04,-0.197 0.04,-0.233C0.04,-0.267 0.046,-0.299 0.058,-0.329C0.07,-0.359 0.087,-0.385 0.109,-0.408C0.13,-0.43 0.156,-0.448 0.186,-0.461C0.215,-0.474 0.248,-0.48 0.284,-0.48C0.323,-0.48 0.358,-0.473 0.388,-0.459C0.418,-0.445 0.444,-0.426 0.465,-0.402L0.406,-0.345C0.392,-0.362 0.375,-0.376 0.355,-0.386C0.335,-0.396 0.311,-0.401 0.284,-0.401C0.26,-0.401 0.239,-0.397 0.22,-0.388C0.201,-0.379 0.185,-0.366 0.172,-0.351C0.159,-0.335 0.149,-0.317 0.142,-0.297C0.135,-0.276 0.131,-0.255 0.131,-0.233C0.131,-0.212 0.135,-0.191 0.142,-0.171C0.149,-0.15 0.159,-0.132 0.172,-0.117C0.185,-0.101 0.201,-0.088 0.22,-0.079C0.239,-0.07 0.26,-0.065 0.284,-0.065C0.311,-0.065 0.336,-0.07 0.358,-0.081C0.379,-0.091 0.397,-0.105 0.411,-0.122L0.466,-0.064Z" style="fill-rule:nonzero;"/>
                </g>
                <g transform="matrix(18,0,0,18,170.95,28.8369)">
                    <path d="M0.102,-0.39L0.018,-0.39L0.018,-0.465L0.102,-0.465L0.102,-0.617L0.192,-0.617L0.192,-0.465L0.328,-0.465L0.328,-0.39L0.192,-0.39L0.192,-0.161C0.192,-0.124 0.198,-0.098 0.21,-0.084C0.221,-0.07 0.238,-0.063 0.259,-0.063C0.276,-0.063 0.291,-0.066 0.302,-0.071C0.313,-0.076 0.325,-0.084 0.336,-0.095L0.377,-0.04C0.358,-0.021 0.338,-0.008 0.318,0.001C0.297,0.009 0.273,0.013 0.245,0.013C0.196,0.013 0.16,-0 0.137,-0.027C0.114,-0.054 0.102,-0.095 0.102,-0.152L0.102,-0.39Z" style="fill-rule:nonzero;"/>
                </g>
                <g transform="matrix(18,0,0,18,176.866,28.8369)">
                    <path d="M0.286,0.014C0.25,0.014 0.217,0.008 0.187,-0.006C0.157,-0.019 0.131,-0.036 0.11,-0.059C0.088,-0.082 0.071,-0.108 0.059,-0.138C0.046,-0.167 0.04,-0.199 0.04,-0.233C0.04,-0.267 0.046,-0.299 0.059,-0.329C0.071,-0.358 0.088,-0.384 0.11,-0.407C0.131,-0.43 0.157,-0.448 0.187,-0.461C0.217,-0.474 0.25,-0.48 0.286,-0.48C0.321,-0.48 0.354,-0.474 0.384,-0.461C0.414,-0.448 0.44,-0.43 0.462,-0.407C0.484,-0.384 0.501,-0.358 0.514,-0.329C0.526,-0.299 0.532,-0.267 0.532,-0.233C0.532,-0.199 0.526,-0.167 0.514,-0.138C0.501,-0.108 0.484,-0.082 0.462,-0.059C0.44,-0.036 0.414,-0.019 0.384,-0.006C0.354,0.008 0.321,0.014 0.286,0.014ZM0.286,-0.064C0.31,-0.064 0.332,-0.069 0.351,-0.079C0.37,-0.088 0.387,-0.101 0.4,-0.117C0.413,-0.132 0.424,-0.15 0.431,-0.171C0.438,-0.191 0.441,-0.212 0.441,-0.233C0.441,-0.254 0.438,-0.274 0.431,-0.295C0.424,-0.315 0.413,-0.333 0.4,-0.349C0.386,-0.365 0.37,-0.378 0.351,-0.388C0.332,-0.397 0.31,-0.402 0.286,-0.402C0.262,-0.402 0.24,-0.397 0.221,-0.388C0.202,-0.378 0.185,-0.365 0.172,-0.35C0.159,-0.334 0.149,-0.316 0.142,-0.296C0.135,-0.275 0.131,-0.254 0.131,-0.233C0.131,-0.212 0.135,-0.191 0.142,-0.171C0.149,-0.151 0.159,-0.133 0.173,-0.117C0.186,-0.101 0.203,-0.088 0.222,-0.079C0.241,-0.069 0.262,-0.064 0.286,-0.064Z" style="fill-rule:nonzero;"/>
                </g>
                <g transform="matrix(18,0,0,18,186.706,28.8369)">
                    <path d="M0.062,-0L0.062,-0.421C0.062,-0.435 0.062,-0.45 0.061,-0.465L0.147,-0.465L0.15,-0.39C0.155,-0.398 0.162,-0.407 0.171,-0.417C0.18,-0.426 0.19,-0.435 0.203,-0.443C0.215,-0.451 0.229,-0.458 0.246,-0.464C0.262,-0.469 0.281,-0.472 0.302,-0.472C0.312,-0.472 0.321,-0.471 0.33,-0.47C0.338,-0.469 0.346,-0.467 0.353,-0.464L0.333,-0.38C0.321,-0.385 0.306,-0.387 0.287,-0.387C0.268,-0.387 0.25,-0.383 0.234,-0.376C0.217,-0.369 0.203,-0.359 0.191,-0.346C0.179,-0.333 0.17,-0.317 0.163,-0.3C0.156,-0.283 0.152,-0.264 0.152,-0.245L0.152,-0L0.062,-0Z" style="fill-rule:nonzero;"/>
                </g>
                <g transform="matrix(18,0,0,18,195.604,28.8369)">
                    <path d="M0.099,-0.667L0.191,-0.667L0.394,-0.32L0.597,-0.667L0.687,-0.667L0.718,-0L0.624,-0L0.602,-0.512L0.414,-0.197L0.366,-0.197L0.181,-0.508L0.158,-0L0.068,-0L0.099,-0.667Z" style="fill-rule:nonzero;"/>
                </g>
                <g transform="matrix(18,0,0,18,209.314,28.8369)">
                    <path d="M0.06,-0.649L0.161,-0.649L0.161,-0.548L0.06,-0.548L0.06,-0.649ZM0.066,-0.465L0.156,-0.465L0.156,-0L0.066,-0L0.066,-0.465Z" style="fill-rule:nonzero;"/>
                </g>
                <g transform="matrix(18,0,0,18,212.854,28.8369)">
                    <path d="M0.188,-0.24L0.021,-0.465L0.133,-0.465L0.245,-0.311L0.355,-0.465L0.455,-0.465L0.293,-0.247L0.478,-0L0.365,-0L0.236,-0.176L0.109,-0L0.008,-0L0.188,-0.24Z" style="fill-rule:nonzero;"/>
                </g>
            </g>
            <g transform="matrix(0.846002,0,0,1,141.799,15.8395)">
                <g transform="matrix(3.92763,0,0,1,-230.296,0)">
                    <path d="M65.571,289.09C65.571,284.073 64.346,280 62.836,280L27.165,280C25.655,280 24.429,284.073 24.429,289.09L24.429,316.243C24.429,321.26 25.655,325.333 27.165,325.333L62.836,325.333C64.346,325.333 65.571,321.26 65.571,316.243L65.571,289.09Z"/>
                </g>
                <g transform="matrix(2.6244,0,0,2.14816,-140.114,-373.535)">
                    <path d="M65.571,284.252C65.571,281.905 63.728,280 61.457,280L28.544,280C26.273,280 24.429,281.905 24.429,284.252L24.429,321.081C24.429,323.428 26.273,325.333 28.544,325.333L61.457,325.333C63.728,325.333 65.571,323.428 65.571,321.081L65.571,284.252Z"/>
                </g>
                <g id="ABCD-Out-Labels" serif:id="ABCD Out Labels" transform="matrix(1.18203,0,0,1,-99.5971,-59.6432)">
                    <g transform="matrix(1,0,0,1,-13.5708,139.454)">
                        <g transform="matrix(12,0,0,12,47.9819,193.333)">
                            <path d="M0.271,-0.667L0.369,-0.667L0.63,-0L0.523,-0L0.454,-0.186L0.18,-0.186L0.111,-0L0.01,-0L0.271,-0.667ZM0.425,-0.267L0.317,-0.56L0.208,-0.267L0.425,-0.267Z" style="fill:white;fill-rule:nonzero;"/>
                        </g>
                    </g>
                    <g transform="matrix(1,0,0,1,-13.5708,188.644)">
                        <g transform="matrix(12,0,0,12,47.7659,193.333)">
                            <path d="M0.642,-0.117C0.635,-0.105 0.623,-0.091 0.608,-0.076C0.593,-0.061 0.574,-0.046 0.552,-0.033C0.53,-0.019 0.505,-0.007 0.476,0.002C0.447,0.011 0.416,0.016 0.381,0.016C0.332,0.016 0.287,0.007 0.246,-0.01C0.205,-0.027 0.17,-0.052 0.141,-0.083C0.112,-0.114 0.089,-0.15 0.073,-0.193C0.056,-0.235 0.048,-0.281 0.048,-0.331C0.048,-0.38 0.056,-0.425 0.073,-0.468C0.089,-0.511 0.112,-0.548 0.141,-0.58C0.17,-0.612 0.206,-0.637 0.247,-0.656C0.288,-0.674 0.333,-0.683 0.383,-0.683C0.418,-0.683 0.45,-0.679 0.478,-0.67C0.506,-0.661 0.531,-0.651 0.552,-0.638C0.572,-0.624 0.591,-0.61 0.606,-0.595C0.62,-0.58 0.633,-0.565 0.642,-0.551L0.574,-0.493C0.566,-0.504 0.557,-0.516 0.546,-0.529C0.535,-0.541 0.521,-0.552 0.506,-0.562C0.491,-0.572 0.473,-0.58 0.453,-0.587C0.433,-0.594 0.41,-0.597 0.384,-0.597C0.347,-0.597 0.315,-0.59 0.286,-0.576C0.257,-0.562 0.232,-0.543 0.212,-0.519C0.191,-0.495 0.176,-0.467 0.165,-0.435C0.154,-0.403 0.149,-0.369 0.149,-0.333C0.149,-0.297 0.155,-0.263 0.166,-0.232C0.177,-0.2 0.192,-0.172 0.212,-0.149C0.232,-0.126 0.256,-0.107 0.285,-0.094C0.314,-0.081 0.346,-0.074 0.381,-0.074C0.411,-0.074 0.437,-0.078 0.459,-0.086C0.48,-0.093 0.498,-0.102 0.514,-0.113C0.529,-0.124 0.541,-0.134 0.551,-0.146C0.56,-0.157 0.568,-0.166 0.575,-0.173L0.642,-0.117Z" style="fill:white;fill-rule:nonzero;"/>
                        </g>
                    </g>
                    <g transform="matrix(1,0,0,1,42.1847,139.454)">
                        <g transform="matrix(12,0,0,12,48.2879,193.333)">
                            <path d="M0.076,-0.667L0.302,-0.667C0.337,-0.667 0.367,-0.663 0.392,-0.654C0.417,-0.645 0.438,-0.632 0.455,-0.617C0.472,-0.602 0.484,-0.584 0.493,-0.563C0.501,-0.542 0.505,-0.52 0.505,-0.497C0.505,-0.476 0.501,-0.456 0.494,-0.439C0.486,-0.422 0.476,-0.407 0.466,-0.395C0.455,-0.383 0.443,-0.373 0.43,-0.366C0.417,-0.359 0.405,-0.354 0.394,-0.353C0.408,-0.351 0.424,-0.347 0.441,-0.341C0.458,-0.334 0.473,-0.325 0.488,-0.312C0.503,-0.299 0.515,-0.283 0.525,-0.263C0.535,-0.242 0.54,-0.217 0.54,-0.187C0.54,-0.151 0.534,-0.121 0.521,-0.098C0.507,-0.074 0.49,-0.055 0.468,-0.04C0.445,-0.025 0.419,-0.015 0.388,-0.009C0.357,-0.003 0.325,-0 0.29,-0L0.076,-0L0.076,-0.667ZM0.288,-0.389C0.303,-0.389 0.317,-0.391 0.332,-0.395C0.347,-0.398 0.36,-0.404 0.372,-0.412C0.384,-0.42 0.394,-0.43 0.401,-0.443C0.408,-0.456 0.412,-0.471 0.412,-0.489C0.412,-0.509 0.408,-0.525 0.401,-0.538C0.394,-0.55 0.384,-0.56 0.372,-0.567C0.36,-0.574 0.347,-0.578 0.332,-0.581C0.317,-0.583 0.303,-0.584 0.288,-0.584L0.169,-0.584L0.169,-0.389L0.288,-0.389ZM0.285,-0.083C0.302,-0.083 0.32,-0.084 0.339,-0.086C0.358,-0.088 0.375,-0.093 0.391,-0.1C0.406,-0.107 0.419,-0.118 0.429,-0.133C0.439,-0.147 0.444,-0.167 0.444,-0.192C0.444,-0.216 0.439,-0.235 0.43,-0.25C0.42,-0.265 0.408,-0.276 0.393,-0.285C0.378,-0.294 0.361,-0.3 0.343,-0.303C0.325,-0.306 0.308,-0.307 0.291,-0.307L0.169,-0.307L0.169,-0.083L0.285,-0.083Z" style="fill:white;fill-rule:nonzero;"/>
                        </g>
                    </g>
                    <g transform="matrix(1,0,0,1,42.1847,188.644)">
                        <g transform="matrix(12,0,0,12,47.5379,193.333)">
                            <path d="M0.076,-0.667L0.299,-0.667C0.352,-0.667 0.4,-0.661 0.445,-0.648C0.489,-0.634 0.527,-0.614 0.559,-0.587C0.591,-0.559 0.616,-0.524 0.634,-0.482C0.652,-0.44 0.661,-0.39 0.661,-0.332C0.661,-0.276 0.652,-0.227 0.634,-0.186C0.616,-0.144 0.591,-0.109 0.559,-0.082C0.527,-0.054 0.489,-0.033 0.444,-0.02C0.399,-0.007 0.351,-0 0.298,-0L0.076,-0L0.076,-0.667ZM0.296,-0.086C0.379,-0.086 0.444,-0.107 0.491,-0.148C0.537,-0.189 0.56,-0.249 0.56,-0.33C0.56,-0.411 0.538,-0.474 0.493,-0.517C0.448,-0.56 0.382,-0.581 0.293,-0.581L0.172,-0.581L0.172,-0.086L0.296,-0.086Z" style="fill:white;fill-rule:nonzero;"/>
                        </g>
                    </g>
                </g>
                <g transform="matrix(1.18203,0,0,1,-174.775,0.9995)">
                    <g transform="matrix(12,0,0,12,46.8252,321.334)">
                        <path d="M0.389,0.017C0.341,0.017 0.296,0.008 0.255,-0.011C0.214,-0.029 0.178,-0.054 0.147,-0.086C0.116,-0.117 0.092,-0.154 0.075,-0.197C0.058,-0.24 0.049,-0.285 0.049,-0.334C0.049,-0.383 0.058,-0.428 0.075,-0.471C0.092,-0.513 0.116,-0.55 0.147,-0.582C0.177,-0.613 0.213,-0.638 0.255,-0.657C0.296,-0.675 0.341,-0.684 0.389,-0.684C0.437,-0.684 0.482,-0.675 0.524,-0.657C0.565,-0.638 0.601,-0.613 0.632,-0.582C0.663,-0.55 0.687,-0.513 0.704,-0.471C0.721,-0.428 0.73,-0.383 0.73,-0.334C0.73,-0.285 0.721,-0.24 0.704,-0.197C0.687,-0.154 0.663,-0.117 0.632,-0.086C0.601,-0.054 0.565,-0.029 0.524,-0.011C0.482,0.008 0.437,0.017 0.389,0.017ZM0.389,-0.073C0.426,-0.073 0.459,-0.08 0.489,-0.094C0.518,-0.108 0.544,-0.127 0.565,-0.151C0.586,-0.175 0.602,-0.203 0.613,-0.235C0.624,-0.266 0.63,-0.3 0.63,-0.335C0.63,-0.371 0.624,-0.405 0.613,-0.437C0.602,-0.468 0.586,-0.496 0.565,-0.52C0.544,-0.544 0.518,-0.563 0.489,-0.577C0.459,-0.59 0.426,-0.597 0.389,-0.597C0.352,-0.597 0.319,-0.59 0.29,-0.577C0.261,-0.563 0.236,-0.544 0.215,-0.52C0.194,-0.496 0.177,-0.468 0.166,-0.437C0.155,-0.405 0.149,-0.371 0.149,-0.335C0.149,-0.3 0.155,-0.266 0.166,-0.235C0.177,-0.203 0.194,-0.175 0.215,-0.151C0.236,-0.127 0.261,-0.108 0.29,-0.094C0.319,-0.08 0.352,-0.073 0.389,-0.073Z" style="fill:white;fill-rule:nonzero;"/>
                    </g>
                    <g transform="matrix(12,0,0,12,56.1792,321.334)">
                        <path d="M0.059,-0.465L0.149,-0.465L0.149,-0.192C0.149,-0.148 0.158,-0.116 0.176,-0.097C0.194,-0.077 0.22,-0.067 0.254,-0.067C0.28,-0.067 0.302,-0.072 0.319,-0.083C0.335,-0.094 0.349,-0.108 0.36,-0.125C0.371,-0.141 0.378,-0.161 0.383,-0.183C0.387,-0.204 0.389,-0.226 0.389,-0.249L0.389,-0.465L0.479,-0.465L0.479,-0.048C0.479,-0.033 0.479,-0.017 0.48,-0L0.394,-0L0.391,-0.069C0.385,-0.061 0.378,-0.052 0.369,-0.043C0.36,-0.034 0.35,-0.025 0.337,-0.018C0.324,-0.01 0.31,-0.003 0.293,0.002C0.276,0.007 0.257,0.01 0.236,0.01C0.175,0.01 0.131,-0.008 0.102,-0.043C0.073,-0.078 0.059,-0.125 0.059,-0.186L0.059,-0.465Z" style="fill:white;fill-rule:nonzero;"/>
                    </g>
                    <g transform="matrix(12,0,0,12,62.6892,321.334)">
                        <path d="M0.102,-0.39L0.018,-0.39L0.018,-0.465L0.102,-0.465L0.102,-0.617L0.192,-0.617L0.192,-0.465L0.328,-0.465L0.328,-0.39L0.192,-0.39L0.192,-0.161C0.192,-0.124 0.198,-0.098 0.21,-0.084C0.221,-0.07 0.238,-0.063 0.259,-0.063C0.276,-0.063 0.291,-0.066 0.302,-0.071C0.313,-0.076 0.325,-0.084 0.336,-0.095L0.377,-0.04C0.358,-0.021 0.338,-0.008 0.318,0.001C0.297,0.009 0.273,0.013 0.245,0.013C0.196,0.013 0.16,-0 0.137,-0.027C0.114,-0.054 0.102,-0.095 0.102,-0.152L0.102,-0.39Z" style="fill:white;fill-rule:nonzero;"/>
                    </g>
                </g>
            </g>
        </g>
    </g>
</svg>
