<?xml version="1.0" encoding="UTF-8" standalone="no"?>
<!DOCTYPE svg PUBLIC "-//W3C//DTD SVG 1.1//EN" "http://www.w3.org/Graphics/SVG/1.1/DTD/svg11.dtd">
<svg width="100%" height="100%" viewBox="0 0 90 380" version="1.1" xmlns="http://www.w3.org/2000/svg" xmlns:xlink="http://www.w3.org/1999/xlink" xml:space="preserve" xmlns:serif="http://www.serif.com/" style="fill-rule:evenodd;clip-rule:evenodd;stroke-linecap:round;stroke-linejoin:round;stroke-miterlimit:1.5;">
    <g id="svg8">
        <rect x="0" y="0" width="90" height="380" style="fill:rgb(240,240,240);"/>
        <g id="HetrickCV">
            <g transform="matrix(1,0,0,1,25.7842,350.154)">
                <path d="M0,11.424L-1.606,11.424L-1.606,6.093L-7.682,6.093L-7.682,11.424L-9.288,11.424L-9.288,0L-7.682,0L-7.682,4.719L-1.606,4.719L-1.606,0L0,0L0,11.424Z" style="fill:rgb(35,31,32);fill-rule:nonzero;"/>
            </g>
            <g transform="matrix(1,0,0,1,33.9917,350.154)">
                <path d="M0,11.424L-6.821,11.424L-6.821,0L-0.132,0L-0.132,1.342L-5.215,1.342L-5.215,4.752L-0.414,4.752L-0.414,6.093L-5.215,6.093L-5.215,10.067L0,10.067L0,11.424Z" style="fill:rgb(35,31,32);fill-rule:nonzero;"/>
            </g>
            <g transform="matrix(1,0,0,1,42.8652,360.236)">
                <path d="M0,-8.74L-3.212,-8.74L-3.212,1.342L-4.818,1.342L-4.818,-8.74L-8.046,-8.74L-8.046,-10.082L0,-10.082L0,-8.74Z" style="fill:rgb(35,31,32);fill-rule:nonzero;"/>
            </g>
            <g transform="matrix(1,0,0,1,48.5752,359.855)">
                <path d="M0,-7.978C-0.513,-8.359 -1.126,-8.392 -1.92,-8.392L-3.096,-8.392L-3.096,-4.518L-1.92,-4.518C-1.126,-4.518 -0.513,-4.551 0,-4.915C0.514,-5.296 0.729,-5.76 0.729,-6.456C0.729,-7.134 0.514,-7.614 0,-7.978M3.047,1.723L1.109,1.723L-1.871,-3.194L-3.096,-3.194L-3.096,1.723L-4.702,1.723L-4.702,-9.701L-1.474,-9.701C-0.331,-9.701 0.596,-9.435 1.275,-8.906C1.954,-8.359 2.384,-7.532 2.384,-6.489C2.384,-4.485 0.993,-3.591 -0.215,-3.359L3.047,1.723Z" style="fill:rgb(35,31,32);fill-rule:nonzero;"/>
            </g>
            <g transform="matrix(-1,0,0,1,107.233,331.732)">
                <rect x="52.814" y="18.422" width="1.605" height="11.424" style="fill:rgb(35,31,32);"/>
            </g>
            <g transform="matrix(1,0,0,1,65.542,351.678)">
                <path d="M0,8.41C-0.712,9.205 -2.003,10.099 -4.172,10.099C-7.5,10.099 -10.017,7.764 -10.017,4.205C-10.017,0.645 -7.45,-1.689 -4.172,-1.689C-2.036,-1.689 -0.745,-0.795 -0.116,-0.182L-0.795,1.109C-1.241,0.547 -2.517,-0.281 -4.105,-0.281C-6.572,-0.281 -8.36,1.49 -8.36,4.172C-8.36,6.854 -6.556,8.626 -4.105,8.626C-2.6,8.626 -1.44,8.047 -0.695,7.235L0,8.41Z" style="fill:rgb(237,50,36);fill-rule:nonzero;"/>
            </g>
            <g transform="matrix(1,0,0,1,75.4521,350.154)">
                <path d="M0,11.424L-1.953,11.424L-5.745,5.695L-6.92,6.888L-6.92,11.424L-8.526,11.424L-8.526,0L-6.92,0L-6.92,4.868L-2.268,0L-0.314,0L-4.669,4.504L0,11.424Z" style="fill:rgb(237,50,36);fill-rule:nonzero;"/>
            </g>
            <g transform="matrix(1,0,0,1,75.4521,354.658)">
                <path d="M0,6.92L-1.953,6.92L-5.745,1.191L-6.92,2.384L-6.92,6.92L-8.526,6.92L-8.526,2.361L-6.92,2.384L-5.745,1.191L-4.669,0L-4.052,0.913L-3.555,1.65L0,6.92Z" style="fill-rule:nonzero;"/>
            </g>
        </g>
        <g transform="matrix(2.18755,0,0,1,-53.4402,-33.8371)">
            <path d="M65.571,289.09C65.571,284.073 63.709,280 61.416,280L28.585,280C26.291,280 24.429,284.073 24.429,289.09L24.429,316.243C24.429,321.26 26.291,325.333 28.585,325.333L61.416,325.333C63.709,325.333 65.571,321.26 65.571,316.243L65.571,289.09Z"/>
        </g>
        <g transform="matrix(2.18755,0,0,1,-53.4402,-170.17)">
            <path d="M65.571,289.09C65.571,284.073 63.709,280 61.416,280L28.585,280C26.291,280 24.429,284.073 24.429,289.09L24.429,316.243C24.429,321.26 26.291,325.333 28.585,325.333L61.416,325.333C63.709,325.333 65.571,321.26 65.571,316.243L65.571,289.09Z"/>
        </g>
        <g transform="matrix(1,0,0,1,-12.5107,7)">
            <g transform="matrix(18,0,0,18,15.6337,28.8369)">
                <path d="M0.242,-0.345L0.022,-0.667L0.138,-0.667L0.3,-0.424L0.46,-0.667L0.565,-0.667L0.351,-0.348L0.588,-0L0.473,-0L0.294,-0.269L0.115,-0L0.009,-0L0.242,-0.345Z" style="fill-rule:nonzero;"/>
            </g>
            <g transform="matrix(18,0,0,18,25.9657,28.8369)">
                <path d="M0.239,-0.298L0.009,-0.667L0.116,-0.667L0.29,-0.382L0.464,-0.667L0.567,-0.667L0.336,-0.298L0.336,-0L0.239,-0L0.239,-0.298Z" style="fill-rule:nonzero;"/>
            </g>
            <g transform="matrix(18,0,0,18,35.9197,28.8369)">
                <path d="M0.071,-0.349L0.437,-0.541L0.471,-0.473L0.176,-0.32L0.471,-0.167L0.437,-0.099L0.071,-0.291L0.071,-0.349Z" style="fill-rule:nonzero;"/>
            </g>
            <g transform="matrix(18,0,0,18,45.2977,28.8369)">
                <rect x="0.073" y="-0.323" width="0.293" height="0.086" style="fill-rule:nonzero;"/>
            </g>
            <g transform="matrix(18,0,0,18,52.7677,28.8369)">
                <path d="M0.073,-0.167L0.368,-0.32L0.073,-0.473L0.107,-0.541L0.473,-0.349L0.473,-0.291L0.107,-0.099L0.073,-0.167Z" style="fill-rule:nonzero;"/>
            </g>
            <g transform="matrix(18,0,0,18,62.1457,28.8369)">
                <path d="M0.076,-0.667L0.287,-0.667C0.332,-0.667 0.37,-0.661 0.4,-0.648C0.429,-0.635 0.453,-0.619 0.47,-0.6C0.488,-0.581 0.5,-0.559 0.507,-0.535C0.515,-0.511 0.518,-0.488 0.518,-0.465C0.518,-0.432 0.512,-0.402 0.501,-0.377C0.49,-0.352 0.474,-0.331 0.454,-0.314C0.434,-0.297 0.41,-0.284 0.383,-0.275C0.355,-0.266 0.325,-0.262 0.292,-0.262L0.171,-0.262L0.171,-0L0.076,-0L0.076,-0.667ZM0.291,-0.344C0.332,-0.344 0.364,-0.355 0.387,-0.376C0.409,-0.397 0.42,-0.426 0.42,-0.463C0.42,-0.501 0.408,-0.531 0.386,-0.553C0.363,-0.574 0.331,-0.585 0.291,-0.585L0.171,-0.585L0.171,-0.344L0.291,-0.344Z" style="fill-rule:nonzero;"/>
            </g>
            <g transform="matrix(18,0,0,18,71.0017,28.8369)">
                <path d="M0.286,0.014C0.25,0.014 0.217,0.007 0.187,-0.006C0.157,-0.019 0.131,-0.036 0.11,-0.059C0.088,-0.082 0.071,-0.108 0.059,-0.138C0.046,-0.167 0.04,-0.199 0.04,-0.233C0.04,-0.267 0.046,-0.299 0.059,-0.329C0.071,-0.358 0.088,-0.384 0.11,-0.407C0.131,-0.43 0.157,-0.448 0.187,-0.461C0.217,-0.473 0.25,-0.48 0.286,-0.48C0.321,-0.48 0.354,-0.473 0.384,-0.461C0.414,-0.448 0.44,-0.43 0.462,-0.407C0.484,-0.384 0.501,-0.358 0.514,-0.329C0.526,-0.299 0.532,-0.267 0.532,-0.233C0.532,-0.199 0.526,-0.167 0.514,-0.138C0.501,-0.108 0.484,-0.082 0.462,-0.059C0.44,-0.036 0.414,-0.019 0.384,-0.006C0.354,0.007 0.321,0.014 0.286,0.014ZM0.286,-0.064C0.31,-0.064 0.332,-0.069 0.351,-0.079C0.37,-0.088 0.387,-0.101 0.4,-0.117C0.413,-0.132 0.424,-0.15 0.431,-0.171C0.438,-0.191 0.441,-0.212 0.441,-0.233C0.441,-0.254 0.438,-0.274 0.431,-0.295C0.424,-0.315 0.413,-0.333 0.4,-0.349C0.386,-0.365 0.37,-0.378 0.35,-0.388C0.332,-0.397 0.31,-0.402 0.286,-0.402C0.262,-0.402 0.24,-0.397 0.221,-0.388C0.202,-0.378 0.185,-0.365 0.172,-0.349C0.159,-0.334 0.149,-0.316 0.141,-0.296C0.135,-0.275 0.131,-0.254 0.131,-0.233C0.131,-0.212 0.135,-0.191 0.141,-0.171C0.149,-0.151 0.159,-0.133 0.172,-0.117C0.186,-0.101 0.203,-0.088 0.222,-0.079C0.241,-0.069 0.262,-0.064 0.286,-0.064Z" style="fill-rule:nonzero;"/>
            </g>
            <g transform="matrix(18,0,0,18,80.8657,28.8369)">
                <rect x="0.062" y="-0.667" width="0.09" height="0.667" style="fill-rule:nonzero;"/>
            </g>
            <g transform="matrix(18,0,0,18,84.2857,28.8369)">
                <path d="M0.352,-0.22C0.349,-0.221 0.344,-0.222 0.337,-0.223C0.329,-0.224 0.32,-0.224 0.31,-0.225C0.3,-0.226 0.289,-0.226 0.278,-0.227C0.267,-0.228 0.256,-0.228 0.245,-0.228C0.22,-0.228 0.199,-0.225 0.184,-0.219C0.168,-0.213 0.156,-0.205 0.147,-0.197C0.138,-0.188 0.131,-0.178 0.128,-0.167C0.125,-0.156 0.123,-0.145 0.123,-0.135C0.123,-0.11 0.132,-0.091 0.149,-0.078C0.166,-0.065 0.19,-0.058 0.221,-0.058C0.238,-0.058 0.255,-0.061 0.271,-0.067C0.286,-0.073 0.3,-0.081 0.312,-0.091C0.324,-0.101 0.334,-0.113 0.341,-0.126C0.348,-0.139 0.352,-0.153 0.352,-0.167L0.352,-0.22ZM0.353,-0.056C0.336,-0.033 0.313,-0.015 0.284,-0.004C0.256,0.007 0.227,0.013 0.197,0.013C0.178,0.013 0.159,0.01 0.14,0.005C0.121,0 0.103,-0.008 0.087,-0.02C0.072,-0.031 0.059,-0.046 0.05,-0.065C0.04,-0.083 0.035,-0.105 0.035,-0.132C0.035,-0.182 0.053,-0.222 0.087,-0.252C0.123,-0.282 0.173,-0.297 0.239,-0.297C0.25,-0.297 0.261,-0.297 0.273,-0.296C0.285,-0.295 0.296,-0.295 0.307,-0.294C0.318,-0.293 0.327,-0.293 0.335,-0.292C0.343,-0.291 0.349,-0.291 0.352,-0.29L0.352,-0.307C0.352,-0.342 0.342,-0.367 0.321,-0.382C0.3,-0.397 0.271,-0.404 0.235,-0.404C0.2,-0.404 0.172,-0.399 0.151,-0.39C0.13,-0.38 0.113,-0.37 0.099,-0.36L0.057,-0.421C0.065,-0.428 0.075,-0.434 0.086,-0.441C0.097,-0.448 0.111,-0.454 0.126,-0.46C0.141,-0.465 0.159,-0.47 0.178,-0.473C0.197,-0.477 0.22,-0.479 0.245,-0.479C0.305,-0.479 0.352,-0.465 0.387,-0.436C0.421,-0.406 0.438,-0.365 0.438,-0.312L0.438,-0.042C0.438,-0.025 0.438,-0.011 0.439,-0L0.355,-0L0.353,-0.056Z" style="fill-rule:nonzero;"/>
            </g>
            <g transform="matrix(18,0,0,18,92.8357,28.8369)">
                <path d="M0.062,-0L0.062,-0.421C0.062,-0.435 0.062,-0.45 0.061,-0.465L0.147,-0.465L0.15,-0.39C0.155,-0.398 0.162,-0.407 0.171,-0.417C0.18,-0.426 0.19,-0.435 0.203,-0.443C0.215,-0.451 0.229,-0.458 0.246,-0.464C0.262,-0.469 0.281,-0.472 0.302,-0.472C0.312,-0.472 0.321,-0.471 0.33,-0.47C0.338,-0.469 0.346,-0.467 0.353,-0.464L0.333,-0.38C0.321,-0.385 0.306,-0.387 0.287,-0.387C0.268,-0.387 0.25,-0.383 0.234,-0.376C0.217,-0.369 0.203,-0.359 0.191,-0.345C0.179,-0.333 0.17,-0.317 0.163,-0.3C0.156,-0.283 0.152,-0.264 0.152,-0.245L0.152,-0L0.062,-0Z" style="fill-rule:nonzero;"/>
            </g>
        </g>
        <g transform="matrix(1,0,0,1,-40.2542,-170.827)">
            <g transform="matrix(12,0,0,12,51.3812,270.661)">
                <rect x="0.076" y="-0.667" width="0.096" height="0.667" style="fill-rule:nonzero;"/>
            </g>
            <g transform="matrix(12,0,0,12,54.3692,270.661)">
                <path d="M0.062,-0L0.062,-0.418C0.062,-0.433 0.062,-0.448 0.061,-0.465L0.147,-0.465L0.15,-0.395C0.156,-0.403 0.163,-0.412 0.172,-0.422C0.181,-0.431 0.191,-0.44 0.204,-0.448C0.217,-0.456 0.232,-0.463 0.249,-0.468C0.266,-0.473 0.285,-0.476 0.306,-0.476C0.367,-0.476 0.412,-0.458 0.441,-0.423C0.47,-0.388 0.485,-0.34 0.485,-0.279L0.485,-0L0.395,-0L0.395,-0.272C0.395,-0.315 0.386,-0.347 0.367,-0.368C0.348,-0.388 0.322,-0.398 0.288,-0.398C0.262,-0.398 0.24,-0.393 0.223,-0.382C0.206,-0.371 0.192,-0.358 0.182,-0.341C0.171,-0.324 0.164,-0.304 0.159,-0.282C0.154,-0.261 0.152,-0.239 0.152,-0.216L0.152,-0L0.062,-0Z" style="fill-rule:nonzero;"/>
            </g>
            <g transform="matrix(12,0,0,12,63.0932,270.661)">
                <path d="M0.242,-0.345L0.022,-0.667L0.138,-0.667L0.3,-0.424L0.46,-0.667L0.565,-0.667L0.351,-0.348L0.588,-0L0.473,-0L0.294,-0.269L0.115,-0L0.009,-0L0.242,-0.345Z" style="fill-rule:nonzero;"/>
            </g>
        </g>
        <g transform="matrix(1,0,0,1,-40.2542,-34.4936)">
            <g transform="matrix(12,0,0,12,51.4292,270.661)">
                <rect x="0.076" y="-0.667" width="0.096" height="0.667" style="fill-rule:nonzero;"/>
            </g>
            <g transform="matrix(12,0,0,12,54.4172,270.661)">
                <path d="M0.062,-0L0.062,-0.418C0.062,-0.433 0.062,-0.448 0.061,-0.465L0.147,-0.465L0.15,-0.395C0.156,-0.403 0.163,-0.412 0.172,-0.422C0.181,-0.431 0.191,-0.44 0.204,-0.448C0.217,-0.456 0.232,-0.463 0.249,-0.468C0.266,-0.473 0.285,-0.476 0.306,-0.476C0.367,-0.476 0.412,-0.458 0.441,-0.423C0.47,-0.388 0.485,-0.34 0.485,-0.279L0.485,-0L0.395,-0L0.395,-0.272C0.395,-0.315 0.386,-0.347 0.367,-0.368C0.348,-0.388 0.322,-0.398 0.288,-0.398C0.262,-0.398 0.24,-0.393 0.223,-0.382C0.206,-0.371 0.192,-0.358 0.182,-0.341C0.171,-0.324 0.164,-0.304 0.159,-0.282C0.154,-0.261 0.152,-0.239 0.152,-0.216L0.152,-0L0.062,-0Z" style="fill-rule:nonzero;"/>
            </g>
            <g transform="matrix(12,0,0,12,63.1412,270.661)">
                <path d="M0.076,-0.667L0.289,-0.667C0.332,-0.667 0.368,-0.661 0.397,-0.65C0.426,-0.638 0.45,-0.623 0.469,-0.605C0.487,-0.586 0.5,-0.565 0.508,-0.542C0.517,-0.519 0.521,-0.495 0.521,-0.471C0.521,-0.428 0.511,-0.391 0.491,-0.358C0.471,-0.325 0.44,-0.301 0.398,-0.285L0.554,-0L0.446,-0L0.303,-0.273L0.169,-0.273L0.169,-0L0.076,-0L0.076,-0.667ZM0.297,-0.354C0.339,-0.354 0.371,-0.364 0.392,-0.385C0.412,-0.406 0.423,-0.433 0.423,-0.468C0.423,-0.505 0.412,-0.533 0.389,-0.554C0.366,-0.574 0.335,-0.584 0.295,-0.584L0.169,-0.584L0.169,-0.354L0.297,-0.354Z" style="fill-rule:nonzero;"/>
            </g>
        </g>
        <g transform="matrix(1,0,0,1,8.6038,-170.827)">
            <g transform="matrix(12,0,0,12,51.5072,270.661)">
                <rect x="0.076" y="-0.667" width="0.096" height="0.667" style="fill-rule:nonzero;"/>
            </g>
            <g transform="matrix(12,0,0,12,54.4952,270.661)">
                <path d="M0.062,-0L0.062,-0.418C0.062,-0.433 0.062,-0.448 0.061,-0.465L0.147,-0.465L0.15,-0.395C0.156,-0.403 0.163,-0.412 0.172,-0.422C0.181,-0.431 0.191,-0.44 0.204,-0.448C0.217,-0.456 0.232,-0.463 0.249,-0.468C0.266,-0.473 0.285,-0.476 0.306,-0.476C0.367,-0.476 0.412,-0.458 0.441,-0.423C0.47,-0.388 0.485,-0.34 0.485,-0.279L0.485,-0L0.395,-0L0.395,-0.272C0.395,-0.315 0.386,-0.347 0.367,-0.368C0.348,-0.388 0.322,-0.398 0.288,-0.398C0.262,-0.398 0.24,-0.393 0.223,-0.382C0.206,-0.371 0.192,-0.358 0.182,-0.341C0.171,-0.324 0.164,-0.304 0.159,-0.282C0.154,-0.261 0.152,-0.239 0.152,-0.216L0.152,-0L0.062,-0Z" style="fill-rule:nonzero;"/>
            </g>
            <g transform="matrix(12,0,0,12,63.2192,270.661)">
                <path d="M0.239,-0.298L0.009,-0.667L0.116,-0.667L0.29,-0.382L0.464,-0.667L0.567,-0.667L0.336,-0.298L0.336,-0L0.239,-0L0.239,-0.298Z" style="fill-rule:nonzero;"/>
            </g>
        </g>
        <g transform="matrix(1,0,0,1,8.6038,-34.4936)">
            <g transform="matrix(12,0,0,12,49.2132,271.252)">
                <rect x="0.076" y="-0.667" width="0.096" height="0.667" style="fill-rule:nonzero;"/>
            </g>
            <g transform="matrix(12,0,0,12,52.2012,271.252)">
                <path d="M0.062,-0L0.062,-0.418C0.062,-0.433 0.062,-0.448 0.061,-0.465L0.147,-0.465L0.15,-0.395C0.156,-0.403 0.163,-0.412 0.172,-0.422C0.181,-0.431 0.191,-0.44 0.204,-0.448C0.217,-0.456 0.232,-0.463 0.249,-0.468C0.266,-0.473 0.285,-0.476 0.306,-0.476C0.367,-0.476 0.412,-0.458 0.441,-0.423C0.47,-0.388 0.485,-0.34 0.485,-0.279L0.485,-0L0.395,-0L0.395,-0.272C0.395,-0.315 0.386,-0.347 0.367,-0.368C0.348,-0.388 0.322,-0.398 0.288,-0.398C0.262,-0.398 0.24,-0.393 0.223,-0.382C0.206,-0.371 0.192,-0.358 0.182,-0.341C0.171,-0.324 0.164,-0.304 0.159,-0.282C0.154,-0.261 0.152,-0.239 0.152,-0.216L0.152,-0L0.062,-0Z" style="fill-rule:nonzero;"/>
            </g>
            <g transform="matrix(12,0,0,12,63.1032,271.252)">
                <path d="M0.047,-0.349C0.047,-0.468 0.079,-0.561 0.143,-0.628C0.207,-0.695 0.289,-0.729 0.39,-0.729C0.49,-0.729 0.572,-0.694 0.636,-0.626C0.7,-0.558 0.731,-0.468 0.731,-0.357C0.731,-0.246 0.699,-0.157 0.635,-0.089C0.571,-0.022 0.489,0.012 0.389,0.012C0.317,0.012 0.254,-0.006 0.2,-0.042C0.146,-0.078 0.107,-0.124 0.083,-0.18C0.059,-0.237 0.047,-0.293 0.047,-0.349ZM0.145,-0.347C0.145,-0.265 0.167,-0.199 0.211,-0.147C0.255,-0.095 0.314,-0.069 0.389,-0.069C0.462,-0.069 0.521,-0.094 0.566,-0.146C0.611,-0.197 0.634,-0.268 0.634,-0.357C0.634,-0.449 0.611,-0.52 0.565,-0.571C0.52,-0.622 0.461,-0.647 0.39,-0.647C0.32,-0.647 0.262,-0.623 0.215,-0.575C0.168,-0.527 0.145,-0.451 0.145,-0.347ZM0.248,-0.316L0.248,-0.4L0.531,-0.4L0.531,-0.316L0.248,-0.316Z" style="fill-rule:nonzero;"/>
            </g>
        </g>
        <g transform="matrix(1,0,0,1,-34.2021,-33.8371)">
            <g transform="matrix(12,0,0,12,39.8571,321.334)">
                <path d="M0.389,0.017C0.341,0.017 0.296,0.008 0.255,-0.011C0.214,-0.029 0.178,-0.054 0.147,-0.086C0.116,-0.117 0.092,-0.154 0.075,-0.197C0.058,-0.24 0.049,-0.285 0.049,-0.334C0.049,-0.383 0.058,-0.428 0.075,-0.47C0.092,-0.513 0.116,-0.55 0.147,-0.582C0.177,-0.613 0.213,-0.638 0.255,-0.657C0.296,-0.675 0.341,-0.684 0.389,-0.684C0.437,-0.684 0.482,-0.675 0.524,-0.657C0.565,-0.638 0.601,-0.613 0.632,-0.582C0.663,-0.55 0.687,-0.513 0.704,-0.47C0.721,-0.428 0.73,-0.383 0.73,-0.334C0.73,-0.285 0.721,-0.24 0.704,-0.197C0.687,-0.154 0.663,-0.117 0.632,-0.086C0.601,-0.054 0.565,-0.029 0.524,-0.011C0.482,0.008 0.437,0.017 0.389,0.017ZM0.389,-0.073C0.426,-0.073 0.459,-0.08 0.489,-0.094C0.518,-0.108 0.544,-0.127 0.565,-0.151C0.586,-0.175 0.602,-0.203 0.613,-0.234C0.624,-0.266 0.63,-0.3 0.63,-0.335C0.63,-0.371 0.624,-0.405 0.613,-0.437C0.602,-0.468 0.586,-0.496 0.565,-0.52C0.544,-0.544 0.518,-0.563 0.489,-0.577C0.459,-0.59 0.426,-0.597 0.389,-0.597C0.352,-0.597 0.319,-0.59 0.29,-0.577C0.261,-0.563 0.235,-0.544 0.215,-0.52C0.194,-0.496 0.177,-0.468 0.166,-0.437C0.155,-0.405 0.149,-0.371 0.149,-0.335C0.149,-0.3 0.155,-0.266 0.166,-0.234C0.177,-0.203 0.194,-0.175 0.215,-0.151C0.235,-0.127 0.261,-0.108 0.29,-0.094C0.319,-0.08 0.352,-0.073 0.389,-0.073Z" style="fill:white;fill-rule:nonzero;"/>
            </g>
            <g transform="matrix(12,0,0,12,49.2111,321.334)">
                <path d="M0.059,-0.465L0.149,-0.465L0.149,-0.192C0.149,-0.148 0.158,-0.116 0.176,-0.097C0.194,-0.077 0.22,-0.067 0.254,-0.067C0.28,-0.067 0.302,-0.072 0.319,-0.083C0.336,-0.094 0.349,-0.108 0.36,-0.125C0.371,-0.141 0.378,-0.161 0.383,-0.183C0.387,-0.204 0.389,-0.226 0.389,-0.249L0.389,-0.465L0.479,-0.465L0.479,-0.048C0.479,-0.033 0.479,-0.017 0.48,-0L0.394,-0L0.391,-0.069C0.385,-0.061 0.378,-0.052 0.369,-0.043C0.36,-0.034 0.35,-0.025 0.337,-0.018C0.324,-0.01 0.31,-0.003 0.293,0.002C0.276,0.007 0.257,0.01 0.236,0.01C0.175,0.01 0.131,-0.008 0.102,-0.043C0.073,-0.078 0.059,-0.125 0.059,-0.186L0.059,-0.465Z" style="fill:white;fill-rule:nonzero;"/>
            </g>
            <g transform="matrix(12,0,0,12,55.7211,321.334)">
                <path d="M0.102,-0.39L0.018,-0.39L0.018,-0.465L0.102,-0.465L0.102,-0.617L0.192,-0.617L0.192,-0.465L0.328,-0.465L0.328,-0.39L0.192,-0.39L0.192,-0.161C0.192,-0.124 0.198,-0.098 0.21,-0.084C0.221,-0.07 0.238,-0.063 0.259,-0.063C0.276,-0.063 0.291,-0.066 0.302,-0.071C0.313,-0.076 0.325,-0.084 0.336,-0.095L0.377,-0.04C0.358,-0.021 0.338,-0.008 0.318,0C0.297,0.009 0.273,0.013 0.245,0.013C0.196,0.013 0.16,-0 0.137,-0.027C0.114,-0.054 0.102,-0.095 0.102,-0.152L0.102,-0.39Z" style="fill:white;fill-rule:nonzero;"/>
            </g>
            <g transform="matrix(12,0,0,12,62.5131,321.334)">
                <path d="M0.242,-0.345L0.022,-0.667L0.138,-0.667L0.3,-0.424L0.46,-0.667L0.565,-0.667L0.351,-0.348L0.588,-0L0.473,-0L0.294,-0.269L0.115,-0L0.009,-0L0.242,-0.345Z" style="fill:white;fill-rule:nonzero;"/>
            </g>
        </g>
        <g transform="matrix(1,0,0,1,-34.2021,-170.17)">
            <g transform="matrix(12,0,0,12,39.9051,321.334)">
                <path d="M0.389,0.017C0.341,0.017 0.296,0.008 0.255,-0.011C0.214,-0.029 0.178,-0.054 0.147,-0.086C0.116,-0.117 0.092,-0.154 0.075,-0.197C0.058,-0.24 0.049,-0.285 0.049,-0.334C0.049,-0.383 0.058,-0.428 0.075,-0.47C0.092,-0.513 0.116,-0.55 0.147,-0.582C0.177,-0.613 0.213,-0.638 0.255,-0.657C0.296,-0.675 0.341,-0.684 0.389,-0.684C0.437,-0.684 0.482,-0.675 0.524,-0.657C0.565,-0.638 0.601,-0.613 0.632,-0.582C0.663,-0.55 0.687,-0.513 0.704,-0.47C0.721,-0.428 0.73,-0.383 0.73,-0.334C0.73,-0.285 0.721,-0.24 0.704,-0.197C0.687,-0.154 0.663,-0.117 0.632,-0.086C0.601,-0.054 0.565,-0.029 0.524,-0.011C0.482,0.008 0.437,0.017 0.389,0.017ZM0.389,-0.073C0.426,-0.073 0.459,-0.08 0.489,-0.094C0.518,-0.108 0.544,-0.127 0.565,-0.151C0.586,-0.175 0.602,-0.203 0.613,-0.234C0.624,-0.266 0.63,-0.3 0.63,-0.335C0.63,-0.371 0.624,-0.405 0.613,-0.437C0.602,-0.468 0.586,-0.496 0.565,-0.52C0.544,-0.544 0.518,-0.563 0.489,-0.577C0.459,-0.59 0.426,-0.597 0.389,-0.597C0.352,-0.597 0.319,-0.59 0.29,-0.577C0.261,-0.563 0.235,-0.544 0.215,-0.52C0.194,-0.496 0.177,-0.468 0.166,-0.437C0.155,-0.405 0.149,-0.371 0.149,-0.335C0.149,-0.3 0.155,-0.266 0.166,-0.234C0.177,-0.203 0.194,-0.175 0.215,-0.151C0.235,-0.127 0.261,-0.108 0.29,-0.094C0.319,-0.08 0.352,-0.073 0.389,-0.073Z" style="fill:white;fill-rule:nonzero;"/>
            </g>
            <g transform="matrix(12,0,0,12,49.2591,321.334)">
                <path d="M0.059,-0.465L0.149,-0.465L0.149,-0.192C0.149,-0.148 0.158,-0.116 0.176,-0.097C0.194,-0.077 0.22,-0.067 0.254,-0.067C0.28,-0.067 0.302,-0.072 0.319,-0.083C0.336,-0.094 0.349,-0.108 0.36,-0.125C0.371,-0.141 0.378,-0.161 0.383,-0.183C0.387,-0.204 0.389,-0.226 0.389,-0.249L0.389,-0.465L0.479,-0.465L0.479,-0.048C0.479,-0.033 0.479,-0.017 0.48,-0L0.394,-0L0.391,-0.069C0.385,-0.061 0.378,-0.052 0.369,-0.043C0.36,-0.034 0.35,-0.025 0.337,-0.018C0.324,-0.01 0.31,-0.003 0.293,0.002C0.276,0.007 0.257,0.01 0.236,0.01C0.175,0.01 0.131,-0.008 0.102,-0.043C0.073,-0.078 0.059,-0.125 0.059,-0.186L0.059,-0.465Z" style="fill:white;fill-rule:nonzero;"/>
            </g>
            <g transform="matrix(12,0,0,12,55.7691,321.334)">
                <path d="M0.102,-0.39L0.018,-0.39L0.018,-0.465L0.102,-0.465L0.102,-0.617L0.192,-0.617L0.192,-0.465L0.328,-0.465L0.328,-0.39L0.192,-0.39L0.192,-0.161C0.192,-0.124 0.198,-0.098 0.21,-0.084C0.221,-0.07 0.238,-0.063 0.259,-0.063C0.276,-0.063 0.291,-0.066 0.302,-0.071C0.313,-0.076 0.325,-0.084 0.336,-0.095L0.377,-0.04C0.358,-0.021 0.338,-0.008 0.318,0C0.297,0.009 0.273,0.013 0.245,0.013C0.196,0.013 0.16,-0 0.137,-0.027C0.114,-0.054 0.102,-0.095 0.102,-0.152L0.102,-0.39Z" style="fill:white;fill-rule:nonzero;"/>
            </g>
            <g transform="matrix(12,0,0,12,62.5611,321.334)">
                <path d="M0.076,-0.667L0.289,-0.667C0.332,-0.667 0.368,-0.661 0.397,-0.65C0.426,-0.638 0.45,-0.623 0.469,-0.605C0.487,-0.586 0.5,-0.565 0.508,-0.542C0.517,-0.519 0.521,-0.495 0.521,-0.471C0.521,-0.428 0.511,-0.391 0.491,-0.358C0.471,-0.325 0.44,-0.301 0.398,-0.285L0.554,-0L0.446,-0L0.303,-0.273L0.169,-0.273L0.169,-0L0.076,-0L0.076,-0.667ZM0.297,-0.354C0.339,-0.354 0.371,-0.364 0.392,-0.385C0.412,-0.406 0.423,-0.433 0.423,-0.468C0.423,-0.505 0.412,-0.533 0.389,-0.554C0.366,-0.574 0.335,-0.584 0.295,-0.584L0.169,-0.584L0.169,-0.354L0.297,-0.354Z" style="fill:white;fill-rule:nonzero;"/>
            </g>
        </g>
        <g transform="matrix(1,0,0,1,14.6559,-33.8371)">
            <g transform="matrix(12,0,0,12,39.9831,321.334)">
                <path d="M0.389,0.017C0.341,0.017 0.296,0.008 0.255,-0.011C0.214,-0.029 0.178,-0.054 0.147,-0.086C0.116,-0.117 0.092,-0.154 0.075,-0.197C0.058,-0.24 0.049,-0.285 0.049,-0.334C0.049,-0.383 0.058,-0.428 0.075,-0.47C0.092,-0.513 0.116,-0.55 0.147,-0.582C0.177,-0.613 0.213,-0.638 0.255,-0.657C0.296,-0.675 0.341,-0.684 0.389,-0.684C0.437,-0.684 0.482,-0.675 0.524,-0.657C0.565,-0.638 0.601,-0.613 0.632,-0.582C0.663,-0.55 0.687,-0.513 0.704,-0.47C0.721,-0.428 0.73,-0.383 0.73,-0.334C0.73,-0.285 0.721,-0.24 0.704,-0.197C0.687,-0.154 0.663,-0.117 0.632,-0.086C0.601,-0.054 0.565,-0.029 0.524,-0.011C0.482,0.008 0.437,0.017 0.389,0.017ZM0.389,-0.073C0.426,-0.073 0.459,-0.08 0.489,-0.094C0.518,-0.108 0.544,-0.127 0.565,-0.151C0.586,-0.175 0.602,-0.203 0.613,-0.234C0.624,-0.266 0.63,-0.3 0.63,-0.335C0.63,-0.371 0.624,-0.405 0.613,-0.437C0.602,-0.468 0.586,-0.496 0.565,-0.52C0.544,-0.544 0.518,-0.563 0.489,-0.577C0.459,-0.59 0.426,-0.597 0.389,-0.597C0.352,-0.597 0.319,-0.59 0.29,-0.577C0.261,-0.563 0.235,-0.544 0.215,-0.52C0.194,-0.496 0.177,-0.468 0.166,-0.437C0.155,-0.405 0.149,-0.371 0.149,-0.335C0.149,-0.3 0.155,-0.266 0.166,-0.234C0.177,-0.203 0.194,-0.175 0.215,-0.151C0.235,-0.127 0.261,-0.108 0.29,-0.094C0.319,-0.08 0.352,-0.073 0.389,-0.073Z" style="fill:white;fill-rule:nonzero;"/>
            </g>
            <g transform="matrix(12,0,0,12,49.3371,321.334)">
                <path d="M0.059,-0.465L0.149,-0.465L0.149,-0.192C0.149,-0.148 0.158,-0.116 0.176,-0.097C0.194,-0.077 0.22,-0.067 0.254,-0.067C0.28,-0.067 0.302,-0.072 0.319,-0.083C0.336,-0.094 0.349,-0.108 0.36,-0.125C0.371,-0.141 0.378,-0.161 0.383,-0.183C0.387,-0.204 0.389,-0.226 0.389,-0.249L0.389,-0.465L0.479,-0.465L0.479,-0.048C0.479,-0.033 0.479,-0.017 0.48,-0L0.394,-0L0.391,-0.069C0.385,-0.061 0.378,-0.052 0.369,-0.043C0.36,-0.034 0.35,-0.025 0.337,-0.018C0.324,-0.01 0.31,-0.003 0.293,0.002C0.276,0.007 0.257,0.01 0.236,0.01C0.175,0.01 0.131,-0.008 0.102,-0.043C0.073,-0.078 0.059,-0.125 0.059,-0.186L0.059,-0.465Z" style="fill:white;fill-rule:nonzero;"/>
            </g>
            <g transform="matrix(12,0,0,12,55.8471,321.334)">
                <path d="M0.102,-0.39L0.018,-0.39L0.018,-0.465L0.102,-0.465L0.102,-0.617L0.192,-0.617L0.192,-0.465L0.328,-0.465L0.328,-0.39L0.192,-0.39L0.192,-0.161C0.192,-0.124 0.198,-0.098 0.21,-0.084C0.221,-0.07 0.238,-0.063 0.259,-0.063C0.276,-0.063 0.291,-0.066 0.302,-0.071C0.313,-0.076 0.325,-0.084 0.336,-0.095L0.377,-0.04C0.358,-0.021 0.338,-0.008 0.318,0C0.297,0.009 0.273,0.013 0.245,0.013C0.196,0.013 0.16,-0 0.137,-0.027C0.114,-0.054 0.102,-0.095 0.102,-0.152L0.102,-0.39Z" style="fill:white;fill-rule:nonzero;"/>
            </g>
            <g transform="matrix(12,0,0,12,62.6391,321.334)">
                <path d="M0.239,-0.298L0.009,-0.667L0.116,-0.667L0.29,-0.382L0.464,-0.667L0.567,-0.667L0.336,-0.298L0.336,-0L0.239,-0L0.239,-0.298Z" style="fill:white;fill-rule:nonzero;"/>
            </g>
        </g>
        <g transform="matrix(1,0,0,1,14.6559,-170.17)">
            <g transform="matrix(12,0,0,12,38.7781,321.925)">
                <path d="M0.389,0.017C0.341,0.017 0.296,0.008 0.255,-0.011C0.214,-0.029 0.178,-0.054 0.147,-0.086C0.116,-0.117 0.092,-0.154 0.075,-0.197C0.058,-0.24 0.049,-0.285 0.049,-0.334C0.049,-0.383 0.058,-0.428 0.075,-0.47C0.092,-0.513 0.116,-0.55 0.147,-0.582C0.177,-0.613 0.213,-0.638 0.255,-0.657C0.296,-0.675 0.341,-0.684 0.389,-0.684C0.437,-0.684 0.482,-0.675 0.524,-0.657C0.565,-0.638 0.601,-0.613 0.632,-0.582C0.663,-0.55 0.687,-0.513 0.704,-0.47C0.721,-0.428 0.73,-0.383 0.73,-0.334C0.73,-0.285 0.721,-0.24 0.704,-0.197C0.687,-0.154 0.663,-0.117 0.632,-0.086C0.601,-0.054 0.565,-0.029 0.524,-0.011C0.482,0.008 0.437,0.017 0.389,0.017ZM0.389,-0.073C0.426,-0.073 0.459,-0.08 0.489,-0.094C0.518,-0.108 0.544,-0.127 0.565,-0.151C0.586,-0.175 0.602,-0.203 0.613,-0.234C0.624,-0.266 0.63,-0.3 0.63,-0.335C0.63,-0.371 0.624,-0.405 0.613,-0.437C0.602,-0.468 0.586,-0.496 0.565,-0.52C0.544,-0.544 0.518,-0.563 0.489,-0.577C0.459,-0.59 0.426,-0.597 0.389,-0.597C0.352,-0.597 0.319,-0.59 0.29,-0.577C0.261,-0.563 0.235,-0.544 0.215,-0.52C0.194,-0.496 0.177,-0.468 0.166,-0.437C0.155,-0.405 0.149,-0.371 0.149,-0.335C0.149,-0.3 0.155,-0.266 0.166,-0.234C0.177,-0.203 0.194,-0.175 0.215,-0.151C0.235,-0.127 0.261,-0.108 0.29,-0.094C0.319,-0.08 0.352,-0.073 0.389,-0.073Z" style="fill:white;fill-rule:nonzero;"/>
            </g>
            <g transform="matrix(12,0,0,12,48.1321,321.925)">
                <path d="M0.059,-0.465L0.149,-0.465L0.149,-0.192C0.149,-0.148 0.158,-0.116 0.176,-0.097C0.194,-0.077 0.22,-0.067 0.254,-0.067C0.28,-0.067 0.302,-0.072 0.319,-0.083C0.336,-0.094 0.349,-0.108 0.36,-0.125C0.371,-0.141 0.378,-0.161 0.383,-0.183C0.387,-0.204 0.389,-0.226 0.389,-0.249L0.389,-0.465L0.479,-0.465L0.479,-0.048C0.479,-0.033 0.479,-0.017 0.48,-0L0.394,-0L0.391,-0.069C0.385,-0.061 0.378,-0.052 0.369,-0.043C0.36,-0.034 0.35,-0.025 0.337,-0.018C0.324,-0.01 0.31,-0.003 0.293,0.002C0.276,0.007 0.257,0.01 0.236,0.01C0.175,0.01 0.131,-0.008 0.102,-0.043C0.073,-0.078 0.059,-0.125 0.059,-0.186L0.059,-0.465Z" style="fill:white;fill-rule:nonzero;"/>
            </g>
            <g transform="matrix(12,0,0,12,54.6421,321.925)">
                <path d="M0.102,-0.39L0.018,-0.39L0.018,-0.465L0.102,-0.465L0.102,-0.617L0.192,-0.617L0.192,-0.465L0.328,-0.465L0.328,-0.39L0.192,-0.39L0.192,-0.161C0.192,-0.124 0.198,-0.098 0.21,-0.084C0.221,-0.07 0.238,-0.063 0.259,-0.063C0.276,-0.063 0.291,-0.066 0.302,-0.071C0.313,-0.076 0.325,-0.084 0.336,-0.095L0.377,-0.04C0.358,-0.021 0.338,-0.008 0.318,0C0.297,0.009 0.273,0.013 0.245,0.013C0.196,0.013 0.16,-0 0.137,-0.027C0.114,-0.054 0.102,-0.095 0.102,-0.152L0.102,-0.39Z" style="fill:white;fill-rule:nonzero;"/>
            </g>
            <g transform="matrix(12,0,0,12,61.4341,321.925)">
                <path d="M0.047,-0.349C0.047,-0.468 0.079,-0.561 0.143,-0.628C0.207,-0.695 0.289,-0.729 0.39,-0.729C0.49,-0.729 0.572,-0.694 0.636,-0.626C0.7,-0.558 0.731,-0.468 0.731,-0.357C0.731,-0.246 0.699,-0.157 0.635,-0.089C0.571,-0.022 0.489,0.012 0.389,0.012C0.317,0.012 0.254,-0.006 0.2,-0.042C0.146,-0.078 0.107,-0.124 0.083,-0.18C0.059,-0.237 0.047,-0.293 0.047,-0.349ZM0.145,-0.347C0.145,-0.265 0.167,-0.199 0.211,-0.147C0.255,-0.095 0.314,-0.069 0.389,-0.069C0.462,-0.069 0.521,-0.094 0.566,-0.146C0.611,-0.197 0.634,-0.268 0.634,-0.357C0.634,-0.449 0.611,-0.52 0.565,-0.571C0.52,-0.622 0.461,-0.647 0.39,-0.647C0.32,-0.647 0.262,-0.623 0.215,-0.575C0.168,-0.527 0.145,-0.451 0.145,-0.347ZM0.248,-0.316L0.248,-0.4L0.531,-0.4L0.531,-0.316L0.248,-0.316Z" style="fill:white;fill-rule:nonzero;"/>
            </g>
        </g>
        <g transform="matrix(1,0,0,1.23968,0,-37.1506)">
            <g transform="matrix(1,-0,-0,0.806659,-0,29.9679)">
                <path d="M21.5,191.67L20,194.67L18.5,191.67C19.25,192.42 20.75,192.42 21.5,191.67Z"/>
                <path d="M20,155L20,192.27" style="fill:none;stroke:black;stroke-width:1px;stroke-dasharray:1,2,0,0;"/>
            </g>
        </g>
        <g transform="matrix(1,0,0,1.23968,49,-36.9876)">
            <g transform="matrix(1,-0,-0,0.806659,-49,29.8364)">
                <path d="M70.5,191.833L69,194.833L67.5,191.833C68.25,192.583 69.75,192.583 70.5,191.833Z"/>
                <path d="M69,155.163L69,192.433" style="fill:none;stroke:black;stroke-width:1px;stroke-dasharray:1,2,0,0;"/>
            </g>
        </g>
    </g>
</svg>
